<?xml version="1.0" standalone="no"?>
<!DOCTYPE svg PUBLIC "-//W3C//DTD SVG 20010904//EN"
 "http://www.w3.org/TR/2001/REC-SVG-20010904/DTD/svg10.dtd">
<svg version="1.0" xmlns="http://www.w3.org/2000/svg"
 width="256.000000pt" height="256.000000pt" viewBox="0 0 256.000000 256.000000"
 preserveAspectRatio="xMidYMid meet">

<g transform="translate(0.000000,256.000000) scale(0.100000,-0.100000)"
fill="#000000" stroke="none">
<path d="M1207 2353 c-96 -88 -872 -825 -919 -873 -56 -57 -61 -88 -22 -119
21 -17 41 -21 95 -21 l69 0 0 -568 0 -569 23 -21 23 -22 822 0 c809 0 822 0
842 20 20 20 20 33 20 590 l0 570 54 0 c64 0 106 27 106 68 0 21 -21 47 -95
117 l-95 90 0 331 c0 308 -1 332 -18 347 -16 15 -46 17 -214 17 -240 0 -226 8
-230 -144 l-3 -108 -135 129 c-204 192 -228 213 -250 213 -12 0 -44 -21 -73
-47z m483 -495 l403 -383 -407 -3 c-223 -1 -589 -1 -812 0 l-407 3 403 383
c221 210 406 382 410 382 4 0 189 -172 410 -382z m318 105 c1 -123 -1 -223 -5
-223 -4 0 -52 44 -105 97 l-98 98 0 128 0 128 103 -3 102 -3 3 -222z m22
-1148 l0 -525 -735 0 -735 0 0 525 0 525 735 0 735 0 0 -525z"/>
<path d="M1212 1232 c-92 -33 -157 -115 -169 -211 -5 -41 -2 -52 16 -70 41
-41 111 -13 111 44 0 62 63 125 126 125 37 0 94 -36 111 -70 18 -35 16 -87 -3
-118 -9 -15 -37 -43 -63 -63 -119 -92 -151 -289 -46 -289 40 0 65 28 65 73 0
46 29 95 75 128 134 97 153 271 42 387 -69 73 -171 97 -265 64z"/>
<path d="M1246 518 c-50 -71 23 -168 87 -117 21 15 27 29 27 58 0 52 -23 81
-65 81 -24 0 -39 -7 -49 -22z"/>
</g>
</svg>
