<?xml version="1.0" encoding="UTF-8" standalone="no"?>
<svg
   version="1.1"
   viewBox="-5 -10 75.808121 68.632339"
   id="svg3939"
   sodipodi:docname="noun-reception-7010002.svg"
   width="75.808121"
   height="68.632339"
   xmlns:inkscape="http://www.inkscape.org/namespaces/inkscape"
   xmlns:sodipodi="http://sodipodi.sourceforge.net/DTD/sodipodi-0.dtd"
   xmlns="http://www.w3.org/2000/svg"
   xmlns:svg="http://www.w3.org/2000/svg">
  <defs
     id="defs3943" />
  <sodipodi:namedview
     id="namedview3941"
     pagecolor="#ffffff"
     bordercolor="#000000"
     borderopacity="0.25"
     inkscape:showpageshadow="2"
     inkscape:pageopacity="0.0"
     inkscape:pagecheckerboard="0"
     inkscape:deskcolor="#d1d1d1"
     showgrid="false" />
  <path
     d="m 50.07098,8.0234 c 4.9688,0 9.0117,-4.043 9.0117,-9.0117 0,-4.9687 -4.043,-9.0117 -9.0117,-9.0117 -4.9687,0 -9.0117,4.043 -9.0117,9.0117 0,4.9687 4.043,9.0117 9.0117,9.0117 z m 0,-16.168 c 3.9492,0 7.1602,3.2109 7.1602,7.1602 0,3.9493 -3.2109,7.1602 -7.1602,7.1602 -3.9493,0 -7.1602,-3.2109 -7.1602,-7.1602 0,-3.9493 3.2109,-7.1602 7.1602,-7.1602 z m 19.812,30.949 h -6.4102 v -8.8398 c 0,-1.1797 -0.38281,-2.2109 -1.1133,-2.9844 l -2.3867,-2.5273 c -0.64844,-0.68359 -1.4766,-1.0312 -2.3438,-0.97656 -0.89062,0.05859 -1.707,0.53125 -2.293,1.3359 l -5.2656,7.2305 -5.2656,-7.2305 C 44.21884,8.00755 43.40638,7.53104 42.51568,7.47634 41.6524,7.42165 40.81648,7.7654 40.16408,8.4529 l -2.3789,2.5273 c -0.72656,0.77344 -1.1133,1.8047 -1.1133,2.9844 v 8.8398 h -14.633 v -1.5039 c 0,-1.8477 -1.5039,-3.3555 -3.3516,-3.3555 h -1.4805 v -5.3555 h 7.832 c 0.51172,0 0.92578,-0.41406 0.92578,-0.92578 v -12.43 c 0,-0.51172 -0.41406,-0.92578 -0.92578,-0.92578 h -21.777 c -0.51172,0 -0.92578,0.41406 -0.92578,0.92578 v 12.43 c 0,0.51172 0.41406,0.92578 0.92578,0.92578 h 7.832 v 5.3555 h -1.4805 c -1.8477,0 -3.3555,1.5039 -3.3555,3.3555 v 1.5039 h -10.332 C -4.58594,22.8044 -5,23.21846 -5,23.73018 v 4.1836 c 0,0.51172 0.41406,0.92578 0.92578,0.92578 h 1.8125 v 28.867 c 0,0.51172 0.41406,0.92578 0.92578,0.92578 h 68.48 c 0.51172,0 0.92578,-0.41406 0.92578,-0.92578 v -28.867 h 1.8125 c 0.51172,0 0.92578,-0.41406 0.92578,-0.92578 v -4.1836 c 0,-0.51172 -0.41406,-0.92578 -0.92578,-0.92578 z m -31.359,-8.8398 c 0,-0.71094 0.20312,-1.2852 0.60938,-1.7148 l 2.3789,-2.5273 c 0.26953,-0.28125 0.57422,-0.42188 0.88672,-0.40234 0.33203,0.02344 0.65625,0.22656 0.91406,0.57812 l 6.0156,8.2578 c 0.17578,0.23828 0.45312,0.38281 0.75,0.38281 0.29688,0 0.57422,-0.14062 0.75,-0.38281 l 6.0156,-8.2578 c 0.25781,-0.35156 0.58203,-0.55859 0.91406,-0.57812 0.30859,-0.01953 0.61328,0.11719 0.87891,0.39844 l 2.3828,2.5273 c 0.40234,0.42969 0.60937,1.0078 0.60937,1.7148 v 8.8398 h -23.098 V 13.9607 Z M 4.18798,0.1636 h 19.926 v 10.578 h -19.926 z m 8.7578,12.43 h 2.4102 v 5.3555 h -2.4102 z m -4.8359,8.7109 c 0,-0.82812 0.67578,-1.5039 1.5039,-1.5039 h 9.0742 c 0.82422,0 1.5,0.67578 1.5,1.5039 v 1.5039 h -12.078 z m 58.105,35.477 -66.625,-0.0039 v -27.941 h 66.629 v 27.941 z m 2.7383,-29.793 h -72.105 v -2.332 h 72.105 z m -57.793,18.797 c 0,-0.51172 0.41406,-0.92578 0.92578,-0.92578 h 41.629 c 0.51172,0 0.92578,0.41406 0.92578,0.92578 0,0.51172 -0.41406,0.92578 -0.92578,0.92578 h -41.625 c -0.51172,0 -0.92578,-0.41406 -0.92578,-0.92578 z m 43.48,5.9609 c 0,0.51172 -0.41406,0.92578 -0.92578,0.92578 h -41.625 c -0.51172,0 -0.92578,-0.41406 -0.92578,-0.92578 0,-0.51172 0.41406,-0.92578 0.92578,-0.92578 h 41.629 c 0.51172,0 0.92578,0.41406 0.92578,0.92578 z m -42.555,-10.992 h 41.629 c 0.51172,0 0.92578,-0.41406 0.92578,-0.92578 v -5.957 c 0,-0.51172 -0.41406,-0.92578 -0.92578,-0.92578 h -41.625 c -0.51172,0 -0.92578,0.41406 -0.92578,0.92578 v 5.957 c 0,0.51172 0.41406,0.92578 0.92578,0.92578 z m 0.92578,-5.957 h 39.777 v 4.1055 h -39.773 v -4.1055 z"
     id="path3933"
     style="fill:#666666" />
</svg>
