<?xml version="1.0" encoding="UTF-8" standalone="no"?>
<svg
   version="1.1"
   x="0px"
   y="0px"
   viewBox="0 0 93.599998 71.800003"
   xml:space="preserve"
   id="svg20"
   sodipodi:docname="aa2.svg"
   width="93.599998"
   height="71.800003"
   inkscape:version="1.1.2 (0a00cf5339, 2022-02-04)"
   xmlns:inkscape="http://www.inkscape.org/namespaces/inkscape"
   xmlns:sodipodi="http://sodipodi.sourceforge.net/DTD/sodipodi-0.dtd"
   xmlns="http://www.w3.org/2000/svg"
   xmlns:svg="http://www.w3.org/2000/svg"><defs
     id="defs24" /><sodipodi:namedview
     id="namedview22"
     pagecolor="#ffffff"
     bordercolor="#666666"
     borderopacity="1.0"
     inkscape:pageshadow="2"
     inkscape:pageopacity="0.0"
     inkscape:pagecheckerboard="0"
     showgrid="false"
     fit-margin-top="0"
     fit-margin-left="0"
     fit-margin-right="0"
     fit-margin-bottom="0"
     inkscape:zoom="5.5345455"
     inkscape:cx="46.796978"
     inkscape:cy="48.965177"
     inkscape:window-width="1920"
     inkscape:window-height="1052"
     inkscape:window-x="3840"
     inkscape:window-y="0"
     inkscape:window-maximized="1"
     inkscape:current-layer="svg20" /><g
     id="g14"
     transform="translate(-8.2,-19.9)"
     style="fill:#484848"><g
       id="g12"
       style="fill:#484848"><path
         d="M 95.4,19.9 H 14.6 c -3.5,0 -6.4,2.9 -6.4,6.4 v 25 c 0,3.5 2.9,6.4 6.4,6.4 h 80.8 c 3.5,0 6.4,-2.9 6.4,-6.4 v -25 c 0,-3.5 -2.9,-6.4 -6.4,-6.4 z M 89,53.6 H 21 v -3.5 h 68 z m 6.4,0 H 93 v -4.1 c 0,-1.9 -1.5,-3.4 -3.4,-3.4 H 20.4 c -1.9,0 -3.4,1.5 -3.4,3.4 v 4.1 h -2.4 c -1.3,0 -2.4,-1.1 -2.4,-2.4 V 31.4 H 70 c 1.1,0 2,-0.9 2,-2 0,-1.1 -0.9,-2 -2,-2 H 12.3 v -1.2 c 0,-1.3 1.1,-2.4 2.4,-2.4 h 80.8 c 1.3,0 2.4,1.1 2.4,2.4 V 27 H 80 c -1.1,0 -2,0.9 -2,2 0,1.1 0.9,2 2,2 h 17.8 v 20.1 c 0,1.4 -1.1,2.5 -2.4,2.5 z"
         id="path2"
         style="fill:#484848" /><path
         d="m 29,64 c -1.1,0 -2,0.9 -2,2 v 11.6 c 0,1.4 -1.1,2.5 -2.5,2.5 -1.4,0 -2.5,-1.1 -2.5,-2.5 0,-1.1 -0.9,-2 -2,-2 -1.1,0 -2,0.9 -2,2 0,3.6 2.9,6.5 6.5,6.5 3.6,0 6.5,-2.9 6.5,-6.5 V 66 c 0,-1.1 -0.9,-2 -2,-2 z"
         id="path4"
         style="fill:#484848" /><path
         d="m 89,83.2 c -1.1,0 -2,0.9 -2,2 0,1.4 -1.1,2.5 -2.5,2.5 -1.4,0 -2.5,-1.1 -2.5,-2.5 V 66 c 0,-1.1 -0.9,-2 -2,-2 -1.1,0 -2,0.9 -2,2 v 19.2 c 0,3.6 2.9,6.5 6.5,6.5 3.6,0 6.5,-2.9 6.5,-6.5 0,-1.1 -0.9,-2 -2,-2 z"
         id="path6"
         style="fill:#484848" /><path
         d="m 55,64 c -1.1,0 -2,0.9 -2,2 v 13 c 0,1.1 0.9,2 2,2 1.1,0 2,-0.9 2,-2 V 66 c 0,-1.1 -0.9,-2 -2,-2 z"
         id="path8"
         style="fill:#484848" /><path
         d="m 44,83 h -1 v -1 c 0,-1.1 -0.9,-2 -2,-2 -1.1,0 -2,0.9 -2,2 v 1 h -1 c -1.1,0 -2,0.9 -2,2 0,1.1 0.9,2 2,2 h 1 v 1 c 0,1.1 0.9,2 2,2 1.1,0 2,-0.9 2,-2 v -1 h 1 c 1.1,0 2,-0.9 2,-2 0,-1.1 -0.9,-2 -2,-2 z"
         id="path10"
         style="fill:#484848" /></g></g></svg>
