<?xml version="1.0" encoding="UTF-8" standalone="no"?>
<svg
   viewBox="0 0 25 19"
   x="0px"
   y="0px"
   version="1.1"
   id="svg26"
   sodipodi:docname="aa3.svg"
   width="25"
   height="19"
   inkscape:version="1.1.2 (0a00cf5339, 2022-02-04)"
   xmlns:inkscape="http://www.inkscape.org/namespaces/inkscape"
   xmlns:sodipodi="http://sodipodi.sourceforge.net/DTD/sodipodi-0.dtd"
   xmlns="http://www.w3.org/2000/svg"
   xmlns:svg="http://www.w3.org/2000/svg">
  <defs
     id="defs30" />
  <sodipodi:namedview
     id="namedview28"
     pagecolor="#ffffff"
     bordercolor="#666666"
     borderopacity="1.0"
     inkscape:pageshadow="2"
     inkscape:pageopacity="0.0"
     inkscape:pagecheckerboard="0"
     showgrid="false"
     fit-margin-top="0"
     fit-margin-left="0"
     fit-margin-right="0"
     fit-margin-bottom="0"
     inkscape:zoom="21.742857"
     inkscape:cx="9.7503285"
     inkscape:cy="7.6576873"
     inkscape:window-width="1850"
     inkscape:window-height="1025"
     inkscape:window-x="1990"
     inkscape:window-y="27"
     inkscape:window-maximized="1"
     inkscape:current-layer="svg26" />
  <g
     data-name="Layer 2"
     id="g20"
     transform="translate(-1.5,-4.5)"
     style="fill:#5e5e5e">
    <path
       d="M 24.662,4.5 H 3.338 A 1.841,1.841 0 0 0 1.5,6.338 v 7.281 A 2.884,2.884 0 0 0 4.381,16.5 H 23.619 A 2.884,2.884 0 0 0 26.5,13.619 V 6.338 A 1.841,1.841 0 0 0 24.662,4.5 Z M 3.338,5.5 H 24.662 A 0.839,0.839 0 0 1 25.5,6.338 V 11.5 H 2.5 V 6.338 A 0.839,0.839 0 0 1 3.338,5.5 Z m 3.162,10 v -1 h 15 v 1 z m 17.119,0 H 22.5 V 14 A 0.5,0.5 0 0 0 22,13.5 H 6 A 0.5,0.5 0 0 0 5.5,14 v 1.5 H 4.381 A 1.883,1.883 0 0 1 2.5,13.619 V 12.5 h 23 v 1.119 A 1.883,1.883 0 0 1 23.619,15.5 Z"
       id="path2"
       style="fill:#5e5e5e" />
    <path
       d="M 8.15,18.884 8.341,18.122 A 0.5,0.5 0 1 0 7.372,17.878 L 7.18,18.642 a 3.023,3.023 0 0 0 0.229,2.082 2.014,2.014 0 0 1 0.153,1.392 l -0.191,0.763 a 0.5,0.5 0 0 0 0.364,0.606 0.515,0.515 0 0 0 0.122,0.015 0.5,0.5 0 0 0 0.485,-0.379 l 0.19,-0.762 A 3.027,3.027 0 0 0 8.3,20.276 2.019,2.019 0 0 1 8.15,18.884 Z"
       id="path4"
       style="fill:#5e5e5e" />
    <path
       d="m 11.438,18.884 0.191,-0.763 a 0.50035113,0.50035113 0 0 0 -0.971,-0.242 l -0.19,0.762 a 3.027,3.027 0 0 0 0.228,2.083 2.019,2.019 0 0 1 0.154,1.392 l -0.191,0.762 a 0.5,0.5 0 0 0 0.363,0.607 0.515,0.515 0 0 0 0.122,0.015 0.5,0.5 0 0 0 0.484,-0.378 l 0.192,-0.764 a 3.023,3.023 0 0 0 -0.229,-2.082 2.014,2.014 0 0 1 -0.153,-1.392 z"
       id="path6"
       style="fill:#5e5e5e" />
    <path
       d="m 14.438,18.884 0.191,-0.763 a 0.50035113,0.50035113 0 0 0 -0.971,-0.242 l -0.19,0.762 a 3.027,3.027 0 0 0 0.228,2.083 2.019,2.019 0 0 1 0.154,1.392 l -0.191,0.762 a 0.5,0.5 0 0 0 0.363,0.607 0.515,0.515 0 0 0 0.122,0.015 0.5,0.5 0 0 0 0.484,-0.378 l 0.192,-0.764 a 3.023,3.023 0 0 0 -0.229,-2.082 2.014,2.014 0 0 1 -0.153,-1.392 z"
       id="path8"
       style="fill:#5e5e5e" />
    <path
       d="m 17.438,18.884 0.191,-0.763 a 0.50035113,0.50035113 0 0 0 -0.971,-0.242 l -0.19,0.762 a 3.027,3.027 0 0 0 0.228,2.083 2.019,2.019 0 0 1 0.154,1.392 l -0.191,0.762 a 0.5,0.5 0 0 0 0.363,0.607 0.515,0.515 0 0 0 0.122,0.015 0.5,0.5 0 0 0 0.484,-0.378 l 0.192,-0.764 a 3.023,3.023 0 0 0 -0.229,-2.082 2.014,2.014 0 0 1 -0.153,-1.392 z"
       id="path10"
       style="fill:#5e5e5e" />
    <path
       d="m 20.438,18.884 0.191,-0.763 a 0.50035113,0.50035113 0 0 0 -0.971,-0.242 l -0.19,0.762 a 3.027,3.027 0 0 0 0.228,2.083 2.019,2.019 0 0 1 0.154,1.392 l -0.191,0.762 a 0.5,0.5 0 0 0 0.363,0.607 0.515,0.515 0 0 0 0.122,0.015 0.5,0.5 0 0 0 0.484,-0.378 l 0.192,-0.764 a 3.023,3.023 0 0 0 -0.229,-2.082 2.014,2.014 0 0 1 -0.153,-1.392 z"
       id="path12"
       style="fill:#5e5e5e" />
    <circle
       cx="5.5"
       cy="9.5"
       r="0.5"
       id="circle14"
       style="fill:#5e5e5e" />
    <circle
       cx="7.5"
       cy="9.5"
       r="0.5"
       id="circle16"
       style="fill:#5e5e5e" />
    <circle
       cx="9.5"
       cy="9.5"
       r="0.5"
       id="circle18"
       style="fill:#5e5e5e" />
  </g>
</svg>
