<?xml version="1.0" encoding="UTF-8" standalone="no"?>
<svg
   width="645.26575pt"
   height="829.03687pt"
   version="1.1"
   viewBox="0 0 645.26575 829.03687"
   id="svg212"
   sodipodi:docname="aerotermia2.svg"
   inkscape:version="1.2.2 (b0a8486541, 2022-12-01)"
   xmlns:inkscape="http://www.inkscape.org/namespaces/inkscape"
   xmlns:sodipodi="http://sodipodi.sourceforge.net/DTD/sodipodi-0.dtd"
   xmlns="http://www.w3.org/2000/svg"
   xmlns:svg="http://www.w3.org/2000/svg">
  <defs
     id="defs216" />
  <sodipodi:namedview
     id="namedview214"
     pagecolor="#ffffff"
     bordercolor="#000000"
     borderopacity="0.25"
     inkscape:showpageshadow="2"
     inkscape:pageopacity="0.0"
     inkscape:pagecheckerboard="0"
     inkscape:deskcolor="#d1d1d1"
     inkscape:document-units="pt"
     showgrid="false"
     inkscape:zoom="0.541875"
     inkscape:cx="578.54671"
     inkscape:cy="552.7105"
     inkscape:window-width="1864"
     inkscape:window-height="1012"
     inkscape:window-x="1976"
     inkscape:window-y="32"
     inkscape:window-maximized="1"
     inkscape:current-layer="svg212" />
  <path
     d="m 620.306,828.67658 h -550.2 c -17.879,1.9141 -35.723,-3.8594 -49.098,-15.875 C 7.637,800.78558 0,783.65358 0,765.67658 c 0,-17.98 7.6367,-35.109 21.008,-47.129 13.375,-12.016 31.219,-17.785 49.098,-15.871 h 428.28 c 11.281,0 19.68,-6.8398 19.68,-12.961 0,-6.1212 -8.3984,-12.961 -19.68,-12.961 H 70.106 c -17.879,1.9141 -35.723,-3.8555 -49.098,-15.871 C 7.637,648.86358 0,631.73558 0,613.75458 c 0,-17.977 7.6367,-35.109 21.008,-47.125 13.375,-12.016 31.219,-17.789 49.098,-15.875 h 550.2 c 8.918,0 17.156,4.7578 21.617,12.48 4.457,7.7227 4.457,17.238 0,24.961 -4.4609,7.7227 -12.699,12.48 -21.617,12.48 h -550.2 c -11.281,0 -19.68,6.9609 -19.68,13.078 0,6.1211 8.3984,12.961 19.68,12.961 h 428.28 c 17.879,-1.9141 35.727,3.8555 49.098,15.875 13.371,12.016 21.008,29.148 21.008,47.125 0,17.977 -7.6367,35.109 -21.008,47.125 -13.371,12.02 -31.219,17.789 -49.098,15.875 H 70.106 c -11.281,0 -19.68,6.8398 -19.68,12.961 0,6.1212 8.3984,12.961 19.68,12.961 l 550.2,-0.004 c 8.5273,0.59375 16.168,5.4883 20.27,12.984 4.1016,7.5 4.1016,16.574 0,24.07401 -4.1016,7.5 -11.742,12.391 -20.27,12.984 z"
     id="path204"
     style="fill:#666666" />
  <path
     d="m 128.306,510.57658 c -5.5508,0.0117 -10.746,-2.7422 -13.855,-7.3398 -3.1055,-4.6016 -3.7227,-10.445 -1.6406,-15.59 2.0781,-5.1484 6.582,-8.9219 12.016,-10.07 2.6406,0 66.602,-15.961 66.602,-96 0,-45.602 -32.641,-88.559 -64.199,-130.08 -30,-39.48 -58.32,-76.68 -60,-117.12 h -0.004 C 65.1121,82.071784 90.1594,32.386784 133.4674,2.9767836 c 5.0234,-2.85550003 11.172,-2.91020003 16.246,-0.13672 5.0742,2.7695 8.3477,7.9727004 8.6562,13.7460004 0.30859,5.7734 -2.3945,11.297 -7.1445,14.594 -33.148,22.762 -52.414,60.848 -51.117,101.039996 1.5586,30.238 26.879,63.48 53.641,98.762 33.359,43.68 71.039,93.359 71.039,150.24 0,86.16 -60.84,121.92 -93,128.76 z"
     id="path206"
     style="fill:#666666" />
  <path
     d="m 305.426,510.57658 c -5.5547,0.0117 -10.746,-2.7422 -13.855,-7.3398 -3.1094,-4.6016 -3.7227,-10.445 -1.6445,-15.59 2.082,-5.1484 6.5859,-8.9219 12.02,-10.07 2.6406,0 66.719,-15.961 66.719,-96 0,-45.602 -32.641,-88.559 -64.32,-130.08 -29.879,-39.48 -58.199,-76.68 -60,-117.12 -1.9922,-52.335996 23.137,-101.999996 66.48,-131.3999964 3.7422,-2.59380003 8.3789,-3.55080003 12.84,-2.64060003 4.4648,0.91016003 8.3594,3.60160003 10.785,7.45700003 2.4297,3.8516004 3.1719,8.5273004 2.0664,12.9450004 -1.1094,4.418 -3.9727,8.1875 -7.9297,10.441 -33.148,22.762 -52.418,60.848 -51.121,101.039996 1.5586,30.238 26.879,63.48 53.762,98.762 33.238,43.68 70.922,93.359 70.922,150.24 0,86.16 -60.84,121.92 -93,128.76 z"
     id="path208"
     style="fill:#666666" />
  <path
     d="m 482.546,510.57658 c -5.9375,0.66406 -11.777,-1.8906 -15.32,-6.6992 -3.5469,-4.8086 -4.2539,-11.145 -1.8633,-16.621 2.3945,-5.4727 7.5273,-9.2539 13.465,-9.918 2.6406,0 66.719,-15.961 66.719,-96 0,-45.602 -32.641,-88.559 -64.199,-130.08 -30,-39.48 -58.32,-76.68 -60,-117.12 v -0.004 c -2.0039,-52.241996 23.082,-101.819996 66.359,-131.1599964 3.7617,-2.33200003 8.293,-3.08590003 12.605,-2.09770003 4.3164,0.99219003 8.0664,3.64060003 10.438,7.37890003 2.3359,3.7305004 3.1055,8.2305004 2.1367,12.5230004 -0.96484,4.293 -3.5898,8.0312 -7.2969,10.398 -33.082,22.785 -52.23,60.895 -50.762,101.039996 1.6797,30.238 27,63.48 53.762,98.762 33.238,43.68 71.039,93.359 71.039,150.24 0,86.16 -60.961,121.92 -93.121,128.76 z"
     id="path210"
     style="fill:#666666" />
</svg>
