<?xml version="1.0" encoding="UTF-8" standalone="no"?>
<svg
   version="1.1"
   x="0px"
   y="0px"
   viewBox="0 0 186.2 169.60405"
   xml:space="preserve"
   id="svg265"
   sodipodi:docname="aerotermia3.svg"
   width="186.2"
   height="169.60405"
   inkscape:version="1.2.2 (b0a8486541, 2022-12-01)"
   xmlns:inkscape="http://www.inkscape.org/namespaces/inkscape"
   xmlns:sodipodi="http://sodipodi.sourceforge.net/DTD/sodipodi-0.dtd"
   xmlns="http://www.w3.org/2000/svg"
   xmlns:svg="http://www.w3.org/2000/svg"><defs
     id="defs269" /><sodipodi:namedview
     id="namedview267"
     pagecolor="#ffffff"
     bordercolor="#000000"
     borderopacity="0.25"
     inkscape:showpageshadow="2"
     inkscape:pageopacity="0.0"
     inkscape:pagecheckerboard="0"
     inkscape:deskcolor="#d1d1d1"
     showgrid="false"
     inkscape:zoom="3.468"
     inkscape:cx="92.99308"
     inkscape:cy="109.14072"
     inkscape:window-width="1864"
     inkscape:window-height="1012"
     inkscape:window-x="1976"
     inkscape:window-y="32"
     inkscape:window-maximized="1"
     inkscape:current-layer="svg265" /><g
     id="g259"
     transform="translate(-7.1,-16.195948)"
     style="fill:#666666"><path
       d="M 192.6,169.2 163,101.8 c -0.2,-1.2 -1.3,-2.2 -2.6,-2.2 H 39.7 c -1.2,0 -2.3,0.9 -2.5,2.1 L 7.5,169.3 c -0.3,0.4 -0.4,0.9 -0.4,1.4 v 12.6 c 0,1.4 1.1,2.5 2.6,2.5 h 181 c 1.2,0 2.2,-0.9 2.5,-2.1 0,-0.1 0.1,-0.3 0.1,-0.4 v -12.6 c -0.1,-0.6 -0.3,-1.1 -0.7,-1.5 z M 40.4,103.1 h 119.4 l 28.6,65 H 11.8 Z m 149.3,79.2 H 10.5 v -10.7 h 179.1 v 10.7 z"
       id="path241"
       style="fill:#666666" /><path
       d="m 33.3,24 2.8,-1.7 c -2.3,7.3 -2.5,15.1 -0.4,22.3 l 0.1,0.4 c 1.3,4.8 1.3,9.9 -0.1,14.6 l -0.9,3.1 c -0.3,0.9 0.3,1.9 1.2,2.2 0.2,0 0.3,0.1 0.5,0.1 0.8,0 1.5,-0.5 1.7,-1.3 l 0.9,-3.1 c 1.6,-5.4 1.6,-11.1 0.1,-16.5 l -0.1,-0.5 c -2,-6.9 -1.7,-14.4 0.7,-21.3 l 1.8,4.3 c 0.3,0.7 0.9,1.1 1.6,1.1 0.2,0 0.5,0 0.7,-0.1 0.9,-0.4 1.3,-1.4 0.9,-2.3 l -3.3,-7.9 c -0.2,-0.5 -0.6,-0.8 -1.1,-1 -0.5,-0.2 -1,-0.1 -1.4,0.2 L 31.5,21 c -0.8,0.5 -1.1,1.6 -0.6,2.4 0.5,0.8 1.6,1.1 2.4,0.6 z"
       id="path243"
       style="fill:#666666" /><path
       d="m 35.5,67.6 c -1,-0.1 -1.8,0.6 -1.9,1.6 -0.4,4.4 0.2,9 1.8,13.4 0.3,0.7 0.9,1.1 1.6,1.1 0.2,0 0.4,0 0.6,-0.1 0.9,-0.3 1.4,-1.3 1,-2.2 -1.4,-3.9 -2,-8 -1.6,-11.8 0.1,-1.1 -0.6,-2 -1.5,-2 z"
       id="path245"
       style="fill:#666666" /><path
       d="m 93.1,24 2.7,-1.6 c -1,3.3 -1.7,6.7 -1.8,10.1 0,1 0.7,1.8 1.7,1.8 0,0 0.1,0 0.1,0 0.9,0 1.7,-0.7 1.7,-1.7 0.2,-3.6 0.9,-7 2.1,-10.3 l 1.9,4.3 c 0.3,0.7 0.9,1.1 1.6,1.1 0.2,0 0.5,0 0.7,-0.1 0.9,-0.4 1.3,-1.4 0.9,-2.3 l -3.4,-7.9 c -0.2,-0.5 -0.6,-0.8 -1.1,-1 -0.5,-0.2 -1,-0.1 -1.4,0.2 L 91.3,21 c -0.8,0.5 -1.1,1.6 -0.6,2.4 0.5,0.8 1.6,1.1 2.4,0.6 z"
       id="path247"
       style="fill:#666666" /><path
       d="m 98.8,60.7 c 1.6,-5.4 1.6,-11.1 0.1,-16.5 l -0.1,-0.4 c -0.5,-1.9 -0.9,-3.6 -1,-5.1 -0.1,-1 -1,-1.7 -1.9,-1.5 -1,0.1 -1.7,1 -1.5,1.9 0.2,1.7 0.6,3.6 1.1,5.6 l 0.1,0.4 c 1.3,4.8 1.3,9.9 -0.1,14.6 l -0.9,3.1 c -1.9,6.4 -1.7,13.4 0.6,19.6 0.3,0.7 0.9,1.1 1.6,1.1 0.2,0 0.4,0 0.6,-0.1 0.9,-0.3 1.4,-1.3 1,-2.3 -2,-5.5 -2.2,-11.7 -0.6,-17.4 z"
       id="path249"
       style="fill:#666666" /><path
       d="m 61.1,27.6 c 0.2,0.1 0.5,0.1 0.7,0.1 0.7,0 1.3,-0.4 1.6,-1.1 l 1.7,-3.8 c 2.3,6.8 2.5,14.2 0.4,20.9 l -0.1,0.4 c -1.5,5.5 -1.5,11.2 0.1,16.6 l 0.9,3.1 c 1.7,5.7 1.5,11.9 -0.6,17.4 -0.3,0.9 0.1,1.9 1,2.3 0.2,0.1 0.4,0.1 0.6,0.1 0.7,0 1.4,-0.4 1.6,-1.1 2.3,-6.2 2.5,-13.2 0.6,-19.6 L 68.7,59.8 C 67.3,55.1 67.3,50 68.6,45.1 l 0.1,-0.3 c 2.2,-7.3 2.1,-15.2 -0.4,-22.6 l 3.2,1.9 c 0.8,0.5 1.9,0.2 2.4,-0.6 0.5,-0.8 0.2,-1.9 -0.6,-2.4 l -7.4,-4.4 c -0.4,-0.3 -1,-0.3 -1.4,-0.2 -0.5,0.2 -0.9,0.5 -1.1,1 L 60,25.4 c -0.2,0.8 0.2,1.8 1.1,2.2 z"
       id="path251"
       style="fill:#666666" /><path
       d="m 154.5,24 2.8,-1.7 c -2.3,7.3 -2.5,15.2 -0.3,22.3 l 0.1,0.4 c 1.3,4.8 1.3,9.9 -0.1,14.6 l -0.9,3.1 c -1.9,6.4 -1.7,13.4 0.6,19.6 0.3,0.7 0.9,1.1 1.6,1.1 0.2,0 0.4,0 0.6,-0.1 0.9,-0.3 1.4,-1.3 1,-2.3 -2,-5.5 -2.2,-11.7 -0.6,-17.4 l 0.9,-3.1 c 1.6,-5.4 1.6,-11.1 0.1,-16.5 l -0.1,-0.5 c -2.1,-6.9 -1.8,-14.4 0.6,-21.4 l 1.9,4.4 c 0.3,0.7 0.9,1.1 1.6,1.1 0.2,0 0.5,0 0.7,-0.1 0.9,-0.4 1.3,-1.4 0.9,-2.3 l -3.4,-7.9 c -0.2,-0.5 -0.6,-0.8 -1.1,-1 -0.5,-0.2 -1,-0.1 -1.4,0.2 l -7.5,4.4 c -0.8,0.5 -1.1,1.6 -0.6,2.4 0.7,0.9 1.8,1.2 2.6,0.7 z"
       id="path253"
       style="fill:#666666" /><path
       d="m 122.6,27.6 c 0.2,0.1 0.4,0.1 0.7,0.1 0.7,0 1.3,-0.4 1.6,-1.1 l 1.6,-3.8 c 2.3,6.8 2.5,14.1 0.4,20.9 l -0.1,0.4 c -1.5,5.5 -1.5,11.2 0.1,16.6 l 0.9,3.1 c 1.7,5.7 1.5,11.9 -0.6,17.4 -0.3,0.9 0.1,1.9 1,2.3 0.2,0.1 0.4,0.1 0.6,0.1 0.7,0 1.4,-0.4 1.6,-1.1 2.3,-6.2 2.5,-13.2 0.6,-19.6 l -0.9,-3.1 C 128.7,55.1 128.7,50 130,45.1 l 0.1,-0.3 c 2.2,-7.3 2.1,-15.2 -0.4,-22.6 l 3.3,1.9 c 0.8,0.5 1.9,0.2 2.4,-0.6 0.5,-0.8 0.2,-1.9 -0.6,-2.4 l -7.5,-4.4 c -0.4,-0.3 -1,-0.3 -1.4,-0.2 -0.5,0.2 -0.9,0.5 -1.1,1 l -3.3,7.9 c -0.2,0.8 0.2,1.8 1.1,2.2 z"
       id="path255"
       style="fill:#666666" /><path
       d="m 44.2,132.2 c 1.6,0.7 3.3,1 5.1,1 h 103.2 c 0,0 0.1,0 0.1,0 0,0 0.1,0 0.1,0 4.7,0 10,4.4 10.7,8.9 0.6,3.8 -2.7,5.7 -5.5,6.5 -1.1,0.3 -2,0.4 -2.9,0.4 H 41 c -1,0 -1.8,0.8 -1.8,1.8 0,1 0.8,1.8 1.8,1.8 h 114 c 1.2,0 2.5,-0.2 3.9,-0.6 8.2,-2.6 8.3,-8.1 7.9,-10.4 -0.9,-6.2 -7.7,-11.9 -14.2,-11.9 0,0 -0.1,0 -0.1,0 0,0 -0.1,0 -0.1,0 H 49.3 c -1.3,0 -2.5,-0.3 -3.7,-0.8 -2.4,-1 -3.4,-2.6 -3,-4.7 0.6,-3 4.3,-6.6 8.2,-6.6 h 93.1 c 1,0 1.8,-0.8 1.8,-1.8 0,-1 -0.8,-1.8 -1.8,-1.8 H 50.8 c -5.1,0 -10.6,4.4 -11.6,9.4 -0.8,3.9 1.1,7.1 5,8.8 z"
       id="path257"
       style="fill:#666666" /></g></svg>
