<?xml version="1.0" encoding="UTF-8" standalone="no"?>
<svg
   data-name="Layer 1"
   viewBox="0 0 681.95221 831.94733"
   x="0px"
   y="0px"
   version="1.1"
   id="svg322"
   sodipodi:docname="aerotermia4.svg"
   width="681.95221"
   height="831.94733"
   inkscape:version="1.2.2 (b0a8486541, 2022-12-01)"
   xmlns:inkscape="http://www.inkscape.org/namespaces/inkscape"
   xmlns:sodipodi="http://sodipodi.sourceforge.net/DTD/sodipodi-0.dtd"
   xmlns="http://www.w3.org/2000/svg"
   xmlns:svg="http://www.w3.org/2000/svg"
   xmlns:rdf="http://www.w3.org/1999/02/22-rdf-syntax-ns#"
   xmlns:cc="http://creativecommons.org/ns#"
   xmlns:dc="http://purl.org/dc/elements/1.1/">
  <defs
     id="defs326" />
  <sodipodi:namedview
     id="namedview324"
     pagecolor="#ffffff"
     bordercolor="#000000"
     borderopacity="0.25"
     inkscape:showpageshadow="2"
     inkscape:pageopacity="0.0"
     inkscape:pagecheckerboard="0"
     inkscape:deskcolor="#d1d1d1"
     showgrid="false"
     inkscape:zoom="0.6936"
     inkscape:cx="342.41638"
     inkscape:cy="542.82007"
     inkscape:window-width="1864"
     inkscape:window-height="1012"
     inkscape:window-x="1976"
     inkscape:window-y="32"
     inkscape:window-maximized="1"
     inkscape:current-layer="svg322" />
  <title
     id="title300">6096-Underfloor Heating</title>
  <path
     d="m 631.7116,250.33733 a 16,16 0 0 1 -7.64,-1.95 L 341.0016,94.347331 57.931602,248.34733 a 16,16 0 0 1 -20,-3.87 l -34.2699995,-41.53 a 16,16 0 0 1 4.69,-24.24 L 333.3516,1.9473312 a 16,16 0 0 1 15.3,0 l 325,176.8499988 a 16,16 0 0 1 4.69,24.15 l -34.28,41.53 a 16,16 0 0 1 -12.35,5.86 z M 341.0016,60.127331 a 16,16 0 0 1 7.65,1.95 l 279.13,151.869999 13.53,-16.39 -300.31,-163.389999 -300.309998,163.419999 13.53,16.36 L 333.3516,62.047331 a 16,16 0 0 1 7.65,-1.92 z"
     id="path302"
     style="fill:#666666" />
  <path
     d="M 587.2816,557.08733 H 94.701602 a 16,16 0 0 1 -16,-16 v -330.92 a 16,16 0 0 1 31.999998,0 v 314.92 h 460.58 v -314.94 a 16,16 0 0 1 32,0 v 330.94 a 16,16 0 0 1 -16,16 z"
     id="path304"
     style="fill:#666666" />
  <path
     d="M 587.2716,831.94733 H 94.701602 a 16,16 0 0 1 -16,-16 v -275 a 16,16 0 0 1 31.999998,0 v 259 h 460.57 v -259 a 16,16 0 0 1 32,0 v 275 a 16,16 0 0 1 -16,16 z"
     id="path306"
     style="fill:#666666" />
  <path
     d="m 258.5016,493.19733 a 16,16 0 0 1 -16,-16 v -125 a 16,16 0 0 1 32,0 v 125 a 16,16 0 0 1 -16,16 z"
     id="path308"
     style="fill:#666666" />
  <path
     d="m 311.5316,421.23733 a 16,16 0 0 1 -11.32,-4.68 l -41.71,-41.72 -41.71,41.72 a 16,16 0 0 1 -22.63,-22.61 l 53,-53 a 16,16 0 0 1 22.62,0 l 53,53 a 16,16 0 0 1 -11.31,27.31 z"
     id="path310"
     style="fill:#666666" />
  <path
     d="m 423.4816,493.19733 a 16,16 0 0 1 -16,-16 v -125 a 16,16 0 0 1 32,0 v 125 a 16,16 0 0 1 -16,16 z"
     id="path312"
     style="fill:#666666" />
  <path
     d="m 370.4516,421.23733 a 16,16 0 0 1 -11.31,-27.29 l 53,-53 a 16,16 0 0 1 11.32,-4.68 v 0 a 16,16 0 0 1 11.33,4.68 l 53,53 a 16.001826,16.001826 0 1 1 -22.63,22.63 l -41.71,-41.72 -41.72,41.72 a 15.94,15.94 0 0 1 -11.28,4.66 z"
     id="path314"
     style="fill:#666666" />
  <path
     d="m 516.0016,769.46733 h -320.85 c -24.9,0 -45.16,-18.39 -45.16,-41 a 39.47,39.47 0 0 1 14.13,-29.83 47.62,47.62 0 0 1 31,-11.17 h 291.7 a 15.84,15.84 0 0 0 10.18,-3.52 c 1.1,-0.94 3,-2.92 3,-5.52 0,-4.26 -5.41,-9 -13.17,-9 h -291.68 c -24.9,0 -45.16,-18.39 -45.16,-41 a 39.47,39.47 0 0 1 14.13,-29.83 47.62,47.62 0 0 1 31,-11.17 h 320.88 a 16,16 0 0 1 0,32 h -320.85 a 15.78,15.78 0 0 0 -10.15,3.52 7.57,7.57 0 0 0 -3,5.53 c 0,4.26 5.4,9 13.16,9 h 291.66 c 24.9,0 45.17,18.39 45.17,41 a 39.47,39.47 0 0 1 -14.13,29.82 47.62,47.62 0 0 1 -31,11.18 h -291.71 a 15.78,15.78 0 0 0 -10.15,3.47 7.57,7.57 0 0 0 -3,5.53 c 0,4.26 5.4,9 13.16,9 h 320.84 a 16,16 0 0 1 0,32 z"
     id="path316"
     style="fill:#666666" />
  <metadata
     id="metadata344">
    <rdf:RDF>
      <cc:Work
         rdf:about="">
        <dc:title>6096-Underfloor Heating</dc:title>
      </cc:Work>
    </rdf:RDF>
  </metadata>
</svg>
