<?xml version="1.0" encoding="UTF-8" standalone="no"?>
<svg
   version="1.1"
   x="0px"
   y="0px"
   viewBox="0 0 99.3 100"
   xml:space="preserve"
   id="svg16"
   sodipodi:docname="aerotermia.svg"
   width="99.300003"
   height="100"
   inkscape:version="1.2.2 (b0a8486541, 2022-12-01)"
   xmlns:inkscape="http://www.inkscape.org/namespaces/inkscape"
   xmlns:sodipodi="http://sodipodi.sourceforge.net/DTD/sodipodi-0.dtd"
   xmlns="http://www.w3.org/2000/svg"
   xmlns:svg="http://www.w3.org/2000/svg"><defs
     id="defs20" /><sodipodi:namedview
     id="namedview18"
     pagecolor="#ffffff"
     bordercolor="#000000"
     borderopacity="0.25"
     inkscape:showpageshadow="2"
     inkscape:pageopacity="0.0"
     inkscape:pagecheckerboard="0"
     inkscape:deskcolor="#d1d1d1"
     showgrid="false"
     inkscape:zoom="6.936"
     inkscape:cx="49.668397"
     inkscape:cy="47.938293"
     inkscape:window-width="1864"
     inkscape:window-height="1012"
     inkscape:window-x="1976"
     inkscape:window-y="32"
     inkscape:window-maximized="1"
     inkscape:current-layer="svg16" /><g
     id="g10"
     style="fill:#666666"><polygon
       points="51.3,21.5 51.3,6.1 58.1,13 60.4,10.7 49.7,0 38.9,10.7 41.2,13 48.1,6.1 48.1,21.5 "
       id="polygon2"
       style="fill:#666666" /><polygon
       points="86.5,21.5 86.5,6.1 93.4,13 95.7,10.7 84.9,0 74.2,10.7 76.4,13 83.3,6.1 83.3,21.5 "
       id="polygon4"
       style="fill:#666666" /><polygon
       points="16,21.5 16,6.1 22.9,13 25.2,10.7 14.4,0 3.7,10.7 5.9,13 12.8,6.1 12.8,21.5 "
       id="polygon6"
       style="fill:#666666" /><path
       d="M 89.7,80.8 H 12.8 C 9.3,80.8 6.4,77.9 6.4,74.4 6.4,70.9 9.3,68 12.8,68 h 73.7 c 5.3,0 9.6,-4.3 9.6,-9.6 0,-5.3 -4.3,-9.6 -9.6,-9.6 H 9.6 C 6.1,48.8 3.2,45.9 3.2,42.4 3.2,38.9 6.1,36 9.6,36 H 97.7 V 32.8 H 9.6 C 4.3,32.7 0,37 0,42.3 c 0,5.3 4.3,9.6 9.6,9.6 h 76.9 c 3.5,0 6.4,2.9 6.4,6.4 0,3.5 -2.9,6.4 -6.4,6.4 H 12.8 c -5.3,0 -9.6,4.3 -9.6,9.6 0,5.3 4.3,9.7 9.6,9.7 h 76.9 c 3.5,0 6.4,2.9 6.4,6.4 0,3.5 -2.9,6.4 -6.4,6.4 H 1.6 v 3.2 h 88.1 c 5.3,0 9.6,-4.3 9.6,-9.6 0,-5.3 -4.3,-9.6 -9.6,-9.6 z"
       id="path8"
       style="fill:#666666" /></g></svg>
