<?xml version="1.0" encoding="UTF-8" standalone="no"?>
<svg
   version="1.1"
   x="0px"
   y="0px"
   viewBox="0 0 90 68"
   enable-background="new 0 0 100 100"
   xml:space="preserve"
   id="svg879"
   sodipodi:docname="noun-air-conditioner-3498290.svg"
   width="90"
   height="68"
   xmlns:inkscape="http://www.inkscape.org/namespaces/inkscape"
   xmlns:sodipodi="http://sodipodi.sourceforge.net/DTD/sodipodi-0.dtd"
   xmlns="http://www.w3.org/2000/svg"
   xmlns:svg="http://www.w3.org/2000/svg"><defs
     id="defs883" /><sodipodi:namedview
     id="namedview881"
     pagecolor="#ffffff"
     bordercolor="#000000"
     borderopacity="0.25"
     inkscape:showpageshadow="2"
     inkscape:pageopacity="0.0"
     inkscape:pagecheckerboard="0"
     inkscape:deskcolor="#d1d1d1"
     showgrid="false" /><path
     d="M 66,14 H 45 c -1.104,0 -2,-0.896 -2,-2 0,-1.104 0.896,-2 2,-2 h 21 c 1.104,0 2,0.896 2,2 0,1.104 -0.896,2 -2,2 z"
     id="path861"
     style="fill:#0000e2" /><path
     d="m 79,14 h -5 c -1.104,0 -2,-0.896 -2,-2 0,-1.104 0.896,-2 2,-2 h 5 c 1.104,0 2,0.896 2,2 0,1.104 -0.896,2 -2,2 z"
     id="path863"
     style="fill:#0000e2" /><path
     d="M 83,0 H 7 C 3.15,0 0,3.15 0,7 v 28 c 0,3.85 3.15,7 7,7 h 76 c 3.85,0 7,-3.15 7,-7 V 7 C 90,3.15 86.85,0 83,0 Z M 12,38 13.138,31.707 C 13.196,31.417 13.704,31 14,31 h 62 c 0.296,0 0.804,0.417 0.862,0.707 L 78,38 Z m 74,-3 c 0,1.654 -1.346,3 -3,3 H 82 L 80.784,30.922 C 80.353,28.765 78.2,27 76,27 H 14 c -2.2,0 -4.353,1.765 -4.785,3.922 L 8,38 H 7 C 5.346,38 4,36.654 4,35 V 7 C 4,5.346 5.346,4 7,4 h 76 c 1.654,0 3,1.346 3,3 z"
     id="path865"
     style="fill:#0000e2" /><path
     d="m 44,68 c -0.512,0 -1.024,-0.195 -1.414,-0.586 -0.779,-0.779 -0.781,-2.041 -0.006,-2.822 v 0 C 43.153,64.01 44,62.783 44,62 44,61.058 43.006,59.12 42.334,58.107 41.946,57.524 40,54.479 40,52 c 0,-2.749 2.321,-5.149 2.586,-5.414 0.78,-0.781 2.048,-0.781 2.828,0 0.781,0.781 0.781,2.047 0,2.828 C 44.847,49.99 44,51.217 44,52 c 0,0.942 0.994,2.88 1.666,3.893 C 46.054,56.476 48,59.521 48,62 48,64.749 45.679,67.149 45.414,67.414 45.024,67.805 44.512,68 44,68 Z"
     id="path867"
     style="fill:#0000e2" /><path
     d="m 32,68 c -0.512,0 -1.024,-0.195 -1.414,-0.586 -0.779,-0.779 -0.781,-2.041 -0.006,-2.822 v 0 C 31.153,64.01 32,62.783 32,62 32,61.058 31.006,59.12 30.334,58.107 29.946,57.524 28,54.479 28,52 c 0,-2.749 2.321,-5.149 2.586,-5.414 0.78,-0.781 2.048,-0.781 2.828,0 0.781,0.781 0.781,2.047 0,2.828 C 32.847,49.99 32,51.217 32,52 c 0,0.942 0.994,2.88 1.666,3.893 C 34.054,56.476 36,59.521 36,62 36,64.749 33.679,67.149 33.414,67.414 33.024,67.805 32.512,68 32,68 Z"
     id="path869"
     style="fill:#0000e2" /><path
     d="m 20,68 c -0.512,0 -1.024,-0.195 -1.414,-0.586 -0.779,-0.779 -0.781,-2.041 -0.006,-2.822 v 0 C 19.153,64.01 20,62.783 20,62 20,61.058 19.006,59.12 18.334,58.107 17.946,57.524 16,54.479 16,52 c 0,-2.749 2.321,-5.149 2.586,-5.414 0.78,-0.781 2.048,-0.781 2.828,0 0.781,0.781 0.781,2.047 0,2.828 C 20.847,49.99 20,51.217 20,52 c 0,0.942 0.994,2.88 1.666,3.893 C 22.054,56.476 24,59.521 24,62 24,64.749 21.679,67.149 21.414,67.414 21.024,67.805 20.512,68 20,68 Z"
     id="path871"
     style="fill:#0000e2" /><path
     d="M 73,59.768 68.207,57 73,54.232 C 73.957,53.679 74.284,52.457 73.732,51.5 73.179,50.544 71.955,50.215 71,50.768 l -4.588,2.648 V 48 c 0,-1.104 -0.896,-2 -2,-2 -1.104,0 -2,0.896 -2,2 v 5.654 l -5,-2.887 c -0.96,-0.553 -2.18,-0.224 -2.732,0.732 -0.552,0.957 -0.225,2.18 0.732,2.732 L 60.205,57 55.412,59.768 c -0.957,0.553 -1.284,1.775 -0.732,2.732 0.371,0.642 1.043,1 1.734,1 0.339,0 0.684,-0.086 0.998,-0.268 l 5,-2.887 V 66 c 0,1.104 0.896,2 2,2 1.104,0 2,-0.896 2,-2 V 60.584 L 71,63.232 c 0.315,0.182 0.659,0.268 0.998,0.268 0.691,0 1.363,-0.358 1.734,-1 0.552,-0.957 0.225,-2.18 -0.732,-2.732 z"
     id="path873"
     style="fill:#0000e2" /></svg>
