<?xml version="1.0" encoding="UTF-8" standalone="no"?>
<svg
   version="1.1"
   x="0px"
   y="0px"
   viewBox="0 0 2.1419103 2.3086141"
   enable-background="new 0 0 5 5.001"
   xml:space="preserve"
   id="svg3987"
   sodipodi:docname="noun-building-595419.svg"
   width="2.1419103"
   height="2.308614"
   xmlns:inkscape="http://www.inkscape.org/namespaces/inkscape"
   xmlns:sodipodi="http://sodipodi.sourceforge.net/DTD/sodipodi-0.dtd"
   xmlns="http://www.w3.org/2000/svg"
   xmlns:svg="http://www.w3.org/2000/svg"><defs
     id="defs3991" /><sodipodi:namedview
     id="namedview3989"
     pagecolor="#ffffff"
     bordercolor="#000000"
     borderopacity="0.25"
     inkscape:showpageshadow="2"
     inkscape:pageopacity="0.0"
     inkscape:pagecheckerboard="0"
     inkscape:deskcolor="#d1d1d1"
     showgrid="false" /><g
     id="g3981"
     transform="translate(-0.97508957,-1.347)"
     style="fill:#ffffff"><polygon
       fill="#000000"
       points="3.117,1.821 3.117,1.788 2.511,1.508 2.511,1.347 1.895,1.598 1.895,1.821 2.506,1.571 "
       id="polygon3951"
       style="fill:#ffffff" /><polygon
       fill="#000000"
       points="3.117,2.188 3.117,2.154 2.511,1.92 2.511,1.758 1.895,1.967 1.895,2.188 2.506,1.982 "
       id="polygon3953"
       style="fill:#ffffff" /><polygon
       fill="#000000"
       points="3.117,2.554 3.117,2.521 2.511,2.327 2.511,2.17 1.895,2.333 1.895,2.554 2.506,2.393 "
       id="polygon3955"
       style="fill:#ffffff" /><polygon
       fill="#000000"
       points="3.117,2.921 3.117,2.89 2.511,2.757 2.511,2.599 1.895,2.7 1.895,2.921 2.506,2.819 "
       id="polygon3957"
       style="fill:#ffffff" /><polygon
       fill="#000000"
       points="2.511,3.013 1.895,3.066 1.895,3.287 2.506,3.236 3.117,3.287 3.117,3.257 2.511,3.171 "
       id="polygon3959"
       style="fill:#ffffff" /><polygon
       fill="#000000"
       points="2.506,3.653 3.117,3.653 3.117,3.623 2.511,3.587 2.511,3.434 1.895,3.434 1.895,3.653 "
       id="polygon3961"
       style="fill:#ffffff" /></g><path
     d="m 0.79832463,1.9190505 c 0.023226,0.020107 0.023226,0.050269 0,0.070376 L 0.44996933,2.291034 c -0.0029,0.00251 -0.0058,0.00503 -0.0087,0.00754 0,0 -0.0029,0.00251 -0.0029,0.00251 -0.0029,0 -0.0029,0.00251 -0.0058,0.00251 -0.0029,0 -0.0029,0 -0.0058,0.00251 -0.0029,0 -0.0029,0 -0.0058,0.00251 -0.0029,0 -0.0087,0 -0.011613,0 -0.0029,0 -0.0087,0 -0.011613,0 -0.0029,0 -0.0029,0 -0.00581,-0.00251 -0.0029,0 -0.0029,0 -0.00581,-0.00251 -0.0029,0 -0.0029,-0.00251 -0.00581,-0.00251 -0.0029,0 -0.0029,-0.00251 -0.00581,-0.00251 -0.0029,-0.00251 -0.00581,-0.00503 -0.00871,-0.00754 L 0.0174195,1.9894259 c -0.023226,-0.020107 -0.023226,-0.050269 0,-0.070376 0.023226,-0.020107 0.0580591,-0.020107 0.0812827,0 l 0.249655,0.2161529 V 0.2149649 l -0.249655,0.2161526 c -0.023226,0.020107 -0.058059,0.020107 -0.0812827,0 -0.023226,-0.020107 -0.023226,-0.050268 0,-0.070376 L 0.36577483,0.0591342 c 0.0029,-0.00251 0.00581,-0.00503 0.00871,-0.00754 0.0029,0 0.0029,-0.00251 0.00581,-0.00251 0.0029,0 0.0029,-0.00251 0.00581,-0.00251 0.0029,0 0.0029,0 0.00581,-0.00251 0.0029,0 0.0029,0 0.00581,0 0.0029,0 0.0087,0 0.011613,0 0,0 0,0 0,0 0,0 0,0 0,0 0.0029,0 0.0087,0 0.011613,0 0.0029,0 0.0029,0 0.0058,0.00251 0.0029,0 0.0029,0 0.0058,0.00251 0.0029,0 0.0029,0.00251 0.0058,0.00251 0,0 0.0029,0 0.0029,0.00251 0.0029,0.00251 0.0058,0.00503 0.0087,0.00754 l 0.3483691,0.301608 c 0.023226,0.020107 0.023226,0.050268 0,0.070376 -0.011613,0.00754 -0.026126,0.012568 -0.040641,0.012568 -0.014516,0 -0.029028,-0.00503 -0.040641,-0.015082 l -0.2496501,-0.216149 v 1.9177249 l 0.249655,-0.2161526 c 0.023226,-0.017591 0.058059,-0.017591 0.081282,0.00251 z"
     id="path1158"
     style="fill:#ffffff;stroke-width:0.0270116" /></svg>
