<?xml version="1.0" encoding="UTF-8" standalone="no"?>
<svg
   version="1.1"
   x="0px"
   y="0px"
   viewBox="550 550 90 87.393997"
   enable-background="new 550 550 100 100"
   xml:space="preserve"
   id="svg42"
   sodipodi:docname="ambiente-compartir.svg"
   width="90"
   height="87.393997"
   inkscape:version="1.1.2 (0a00cf5339, 2022-02-04)"
   xmlns:inkscape="http://www.inkscape.org/namespaces/inkscape"
   xmlns:sodipodi="http://sodipodi.sourceforge.net/DTD/sodipodi-0.dtd"
   xmlns="http://www.w3.org/2000/svg"
   xmlns:svg="http://www.w3.org/2000/svg"><defs
     id="defs46" /><sodipodi:namedview
     id="namedview44"
     pagecolor="#ffffff"
     bordercolor="#666666"
     borderopacity="1.0"
     inkscape:pageshadow="2"
     inkscape:pageopacity="0.0"
     inkscape:pagecheckerboard="0"
     showgrid="false"
     fit-margin-top="0"
     fit-margin-left="0"
     fit-margin-right="0"
     fit-margin-bottom="0"
     inkscape:zoom="6.088"
     inkscape:cx="45.00657"
     inkscape:cy="56.258213"
     inkscape:window-width="1850"
     inkscape:window-height="1025"
     inkscape:window-x="1990"
     inkscape:window-y="27"
     inkscape:window-maximized="1"
     inkscape:current-layer="svg42" /><g
     id="g36"
     transform="translate(-5,-6.303)"
     style="fill:#9e9e9e"><path
       d="m 561.618,603.254 v -15.022 c 0,-0.139 0.007,-0.302 0.021,-0.477 0.036,-0.362 0.114,-0.714 0.224,-1.06 -0.117,-0.035 -0.238,-0.063 -0.355,-0.11 h -2.76 c -0.067,0 -0.131,0 -0.192,0.021 -1.771,0.075 -3.385,1.377 -3.542,3.044 -0.011,0.082 -0.014,0.178 -0.014,0.264 v 12.878 h 1.188 l 1.867,-10.883 c 0,0 -0.007,0 -0.007,-0.021 0,-0.175 0.146,-0.32 0.334,-0.32 0.174,0 0.324,0.146 0.334,0.32 h 0.007 l 1.864,29.96 h 2.524 c 0,0 0,0 0,-0.015 v -16.756 h -1.493 z"
       id="path2"
       style="fill:#9e9e9e" /><path
       d="m 566.618,603.561 -0.256,1.517 h -1.536 -1.063 v 16.756 c 0,0.015 0,0.015 0,0.015 h 2.525 l 0.807,-12.966 -0.37,-5.934 z"
       id="path4"
       style="fill:#9e9e9e" /><path
       d="m 566.938,581.635 c 0,-1.924 -1.575,-3.478 -3.499,-3.482 -1.928,0.005 -3.5,1.559 -3.5,3.482 0,1.689 1.22,3.037 2.816,3.37 0.932,-1.213 2.361,-2.073 3.976,-2.348 0.104,-0.329 0.207,-0.659 0.207,-1.022 z"
       id="path6"
       style="fill:#9e9e9e" /><path
       d="m 570.842,605.539 h -2.133 l 1.245,19.95 h 2.944 c 0,0 0,0 0,-0.015 v -19.936 h -0.452 -1.604 z"
       id="path8"
       style="fill:#9e9e9e" /><path
       d="m 573.659,614.571 v 10.903 c 0,0.015 0,0.015 0,0.015 h 2.944 l 0.619,-9.922 h -1.319 c -0.872,0 -1.683,-0.362 -2.244,-0.996 z"
       id="path10"
       style="fill:#9e9e9e" /><polygon
       points="573.659,607.324 574.05,604.657 573.744,605.539 573.659,605.539 "
       id="polygon12"
       style="fill:#9e9e9e" /><path
       d="m 572.208,586.606 c 0.064,-0.366 0.149,-0.726 0.271,-1.138 0.114,-0.37 0.32,-0.672 0.48,-1.014 -0.313,-0.018 -0.623,-0.041 -0.921,-0.106 h -4.228 c -0.079,0 -0.153,0 -0.224,0.023 -2.066,0.09 -3.947,1.608 -4.132,3.554 -0.007,0.096 -0.014,0.21 -0.014,0.306 v 15.022 h 1.387 l 2.176,-12.693 c 0,0 -0.011,0 -0.011,-0.024 0,-0.206 0.171,-0.373 0.392,-0.373 0.203,0 0.376,0.167 0.387,0.373 h 0.007 l 0.917,14.754 0.359,-1.907 z"
       id="path14"
       style="fill:#9e9e9e" /><path
       d="m 573.282,582.668 c 0.355,-0.002 0.675,-0.119 1.006,-0.206 0.69,-0.743 1.469,-1.354 2.368,-1.721 0.409,-0.639 0.708,-1.354 0.708,-2.166 0,-2.245 -1.835,-4.06 -4.082,-4.064 -2.248,0.005 -4.083,1.819 -4.083,4.064 0,2.253 1.821,4.086 4.083,4.093 z"
       id="path16"
       style="fill:#9e9e9e" /><path
       d="m 584.451,580.109 v 0.02 c 0.029,0 0.053,-0.007 0.082,-0.007 0.021,0 0.046,0.007 0.075,0.007 v -0.02 c 0.146,-0.005 0.267,-0.076 0.409,-0.096 0.832,-0.732 1.849,-1.28 2.959,-1.605 0.668,-0.8 1.109,-1.798 1.109,-2.922 0,-2.501 -1.999,-4.513 -4.477,-4.6 v -0.018 c -0.029,0 -0.054,0.007 -0.075,0.007 -0.029,0 -0.053,-0.007 -0.082,-0.007 v 0.018 c -2.479,0.087 -4.477,2.099 -4.477,4.6 0,2.502 1.988,4.538 4.477,4.623 z"
       id="path18"
       style="fill:#9e9e9e" /><path
       d="m 588.111,604.493 -0.263,1.516 h -1.533 -1.785 -1.82 v -1.821 -19.319 c 0,-0.188 0.014,-0.413 0.032,-0.559 0.071,-0.789 0.31,-1.542 0.665,-2.237 h -4.456 c -2.19,0 -4.025,1.665 -4.736,3.94 -0.085,0.303 -0.16,0.601 -0.213,0.907 l -3.158,16.799 h 1.604 l 5.003,-14.506 c 0.007,-0.256 0.203,-0.43 0.441,-0.43 0.117,0 0.235,0.042 0.31,0.132 l -3.45,23.502 c -0.103,0.732 0.413,1.33 1.152,1.33 h 1.835 1.355 l 2.472,15.384 h 2.578 v -15.384 h 0.309 0.018 0.125 0.014 0.313 v 15.384 h 2.575 l 2.425,-15.093 -0.923,-14.75 z"
       id="path20"
       style="fill:#9e9e9e" /><path
       d="m 597.969,617.608 c -0.135,-0.163 -0.188,-0.369 -0.292,-0.548 v 15.69 c 0,0.021 0,0.021 0,0.021 h 3.784 l 0.875,-14.046 h -1.871 c -0.971,10e-4 -1.881,-0.405 -2.496,-1.117 z"
       id="path22"
       style="fill:#9e9e9e" /><path
       d="m 597.666,606.862 h 0.01 v 5.05 l 1.636,-11.154 -1.451,4.205 -0.423,1.23 h -1.298 -1.999 -2.194 l 0.406,-2.162 3.94,-20.984 c 0.079,-0.438 0.182,-0.869 0.324,-1.352 0.199,-0.65 0.483,-1.248 0.796,-1.816 h -7.261 c -0.1,0 -0.199,0 -0.285,0.026 -2.66,0.119 -5.082,2.066 -5.313,4.571 -0.014,0.123 -0.024,0.269 -0.024,0.392 v 19.319 h 1.785 l 2.799,-16.329 c 0,0 -0.014,0 -0.014,-0.024 0,-0.267 0.221,-0.487 0.505,-0.487 0.264,0 0.484,0.221 0.498,0.487 h 0.011 l 2.798,44.938 h 3.784 c 0,0 0,0 0,-0.021 v -25.889 h 0.011 v -0.021 h -0.011 c 0,-0.271 0.213,-0.505 0.491,-0.512 0.277,0.007 0.49,0.241 0.49,0.512 h -0.01 v 0.021 z"
       id="path24"
       style="fill:#9e9e9e" /><path
       d="m 597.186,577.715 c 2.902,-0.008 5.249,-2.363 5.249,-5.26 0,-2.89 -2.358,-5.222 -5.249,-5.228 -2.891,0.006 -5.249,2.338 -5.249,5.228 0,2.897 2.347,5.252 5.249,5.26 z"
       id="path26"
       style="fill:#9e9e9e" /><path
       d="m 611.153,574.859 v 0.022 c 0.028,0 0.064,-0.011 0.1,-0.011 0.007,0 0.015,0.002 0.021,0.002 1.23,-1.511 3.001,-2.649 5.014,-3.17 0.405,-0.791 0.654,-1.673 0.654,-2.623 0,-3.127 -2.496,-5.644 -5.597,-5.752 v -0.021 c -0.036,0 -0.064,0.01 -0.093,0.01 -0.035,0 -0.071,-0.01 -0.1,-0.01 v 0.021 c -3.101,0.108 -5.597,2.625 -5.597,5.752 0,3.125 2.482,5.674 5.598,5.78 z"
       id="path28"
       style="fill:#9e9e9e" /><path
       d="m 615.427,605.888 -0.263,1.515 h -1.536 -2.383 -1.821 v -1.82 -25.761 c 0,-0.224 0.021,-0.49 0.043,-0.685 0.057,-0.631 0.221,-1.235 0.434,-1.824 h -5.625 c -2.737,0 -5.034,2.081 -5.923,4.926 -0.107,0.377 -0.199,0.75 -0.267,1.129 l -3.944,21.006 h 1.999 l 6.258,-18.136 c 0.011,-0.32 0.253,-0.534 0.548,-0.534 0.149,0 0.296,0.054 0.392,0.164 l -4.31,29.373 c -0.135,0.918 0.512,1.664 1.437,1.664 h 2.297 1.69 l 3.087,19.231 h 3.222 v -19.231 h 0.392 0.021 0.149 0.021 0.391 v 19.231 h 3.222 l 3.087,-19.231 h 0.89 l -1.438,-23.09 z"
       id="path30"
       style="fill:#9e9e9e" /><path
       d="m 644.964,579.303 c -0.306,-3.343 -3.535,-5.938 -7.084,-6.098 -0.113,-0.033 -0.242,-0.033 -0.377,-0.033 h -18.762 c -0.136,0 -0.264,0 -0.377,0.033 -3.549,0.16 -6.778,2.755 -7.084,6.098 -0.014,0.163 -0.035,0.357 -0.035,0.519 v 25.761 h 2.383 l 3.733,-21.771 c 0,0 -0.014,0 -0.014,-0.032 0,-0.357 0.291,-0.648 0.661,-0.648 0.355,0 0.646,0.291 0.668,0.648 h 0.015 l 3.734,59.917 h 5.042 c 0,0 0,0 0,-0.028 v -34.516 h 0.015 v -0.036 h -0.015 c 0,-0.355 0.284,-0.668 0.654,-0.676 0.37,0.008 0.654,0.32 0.654,0.676 h -0.014 v 0.036 h 0.014 v 34.516 c 0,0.028 0,0.028 0,0.028 h 5.043 l 3.733,-59.917 h 0.015 c 0.021,-0.357 0.313,-0.648 0.668,-0.648 0.377,0 0.669,0.291 0.669,0.648 0,0.032 -0.021,0.032 -0.021,0.032 l 3.734,21.771 H 645 v -25.761 c 0,-0.162 -0.014,-0.356 -0.036,-0.519 z"
       id="path32"
       style="fill:#9e9e9e" /><path
       d="m 628.122,570.284 c 3.869,-0.007 6.999,-3.147 6.999,-7.009 0,-3.855 -3.145,-6.965 -6.999,-6.972 -3.854,0.007 -6.998,3.116 -6.998,6.972 0,3.862 3.129,7.002 6.998,7.009 z"
       id="path34"
       style="fill:#9e9e9e" /></g></svg>
