<?xml version="1.0" encoding="UTF-8" standalone="no"?>
<svg
   data-name="Layer 1"
   viewBox="0 0 128.0042 108"
   x="0px"
   y="0px"
   version="1.1"
   id="svg26"
   sodipodi:docname="amueblado3.svg"
   width="128.0042"
   height="108"
   inkscape:version="1.1.2 (0a00cf5339, 2022-02-04)"
   xmlns:inkscape="http://www.inkscape.org/namespaces/inkscape"
   xmlns:sodipodi="http://sodipodi.sourceforge.net/DTD/sodipodi-0.dtd"
   xmlns="http://www.w3.org/2000/svg"
   xmlns:svg="http://www.w3.org/2000/svg"
   xmlns:rdf="http://www.w3.org/1999/02/22-rdf-syntax-ns#"
   xmlns:cc="http://creativecommons.org/ns#"
   xmlns:dc="http://purl.org/dc/elements/1.1/">
  <defs
     id="defs30" />
  <sodipodi:namedview
     id="namedview28"
     pagecolor="#ffffff"
     bordercolor="#666666"
     borderopacity="1.0"
     inkscape:pageshadow="2"
     inkscape:pageopacity="0.0"
     inkscape:pagecheckerboard="0"
     showgrid="false"
     fit-margin-top="0"
     fit-margin-left="0"
     fit-margin-right="0"
     fit-margin-bottom="0"
     inkscape:zoom="4.75625"
     inkscape:cx="63.9159"
     inkscape:cy="69.908016"
     inkscape:window-width="1850"
     inkscape:window-height="1025"
     inkscape:window-x="1990"
     inkscape:window-y="27"
     inkscape:window-maximized="1"
     inkscape:current-layer="svg26" />
  <title
     id="title2">miscellaneous 280_expandline</title>
  <path
     d="m 54.004202,25.99951 a 1.99973,1.99973 0 1 0 0,-3.99945 h -9.62848 L 34.992972,5.03522 a 1.99967,1.99967 0 0 0 -2.81641,-0.72406 l -6.23926,3.93158 a 1.99919,1.99919 0 0 0 -0.69727,2.6344 l 5.94623,11.12292 h -6.18206 V 3.99969 a 2,2 0 0 0 -2,-1.99969 h -8 a 2,2 0 0 0 -2,1.99969 V 22.00006 H 2.0042018 a 1.99973,1.99973 0 1 0 0,3.99945 z m -33,-3.99945 h -4 V 5.99939 h 4 z m 14.71753,0 -6.07642,-11.36652 2.87207,-1.80981 7.28782,13.17633 z"
     id="path4"
     style="fill:#5e5e5e" />
  <path
     d="M 102.0042,36 A 18,18 0 1 0 84.004202,18 18.02062,18.02062 0 0 0 102.0042,36 Z m 0,-32 A 14,14 0 1 1 88.004202,18 14.01573,14.01573 0 0 1 102.0042,4 Z"
     id="path6"
     style="fill:#5e5e5e" />
  <path
     d="M 28.004202,84 H 2.0042018 A 1.99976,1.99976 0 0 0 0.06720183,86.49756 L 4.5237418,103.84033 A 5.42483,5.42483 0 0 0 9.6799818,108 H 20.328422 a 5.42483,5.42483 0 0 0 5.15625,-4.15967 l 4.45653,-17.34277 A 1.99976,1.99976 0 0 0 28.004202,84 Z m -6.42822,18.98975 A 1.42068,1.42068 0 0 1 20.328422,104 H 9.6799818 a 1.42068,1.42068 0 0 1 -1.24756,-1.01025 C 8.4255918,102.95557 4.5833018,88 4.5833018,88 H 25.425102 c 0,0 -3.84229,14.95557 -3.84912,14.98975 z"
     id="path8"
     style="fill:#5e5e5e" />
  <path
     d="m 0.18682183,67.61621 c -0.043,0.22021 -1.01953,5.44189 2.06786997,9.62256 1.999,2.70605 5.15039,4.3042 9.3662202,4.75 a 2.01817,2.01817 0 0 0 2.16894,-1.583 c 0.04688,-0.22607 1.11133,-5.58691 -2.02148,-9.78955 C 9.7600718,67.92237 6.5808718,66.37159 2.3201318,66.00733 a 1.99817,1.99817 0 0 0 -2.13330997,1.60888 z m 8.35790997,5.36865 a 8.13215,8.13215 0 0 1 1.45459,4.66944 7.79335,7.79335 0 0 1 -4.50879,-2.76758 8.23416,8.23416 0 0 1 -1.4751,-4.58154 7.5645,7.5645 0 0 1 4.5293,2.67968 z"
     id="path10"
     style="fill:#5e5e5e" />
  <path
     d="m 16.218562,80.40576 a 2.044,2.044 0 0 0 2.16895,1.583 c 4.21582,-0.4458 7.36719,-2.04395 9.36621,-4.75 3.0874,-4.18066 2.11084,-9.40234 2.06787,-9.62256 a 2.00255,2.00255 0 0 0 -2.1333,-1.60889 c -4.26074,0.36426 -7.43994,1.915 -9.44824,4.60889 -3.13277,4.20258 -2.06841,9.56331 -2.02149,9.78956 z m 5.22852,-7.39844 a 7.55368,7.55368 0 0 1 4.5459,-2.70215 8.252,8.252 0 0 1 -1.457,4.55713 7.77945,7.77945 0 0 1 -4.52588,2.7915 8.15015,8.15015 0 0 1 1.43697,-4.64648 z"
     id="path12"
     style="fill:#5e5e5e" />
  <path
     d="M 13.584772,47.59082 C 13.397752,47.7793 9.0042018,52.271 9.0042018,58 c 0,5.729 4.3935502,10.2207 4.5805702,10.40918 a 2.00049,2.00049 0 0 0 2.83887,0 C 16.610652,68.2207 21.004202,63.729 21.004202,58 c 0,-5.729 -4.39355,-10.2207 -4.58057,-10.40918 a 2.06049,2.06049 0 0 0 -2.83886,0 z m 1.41943,16.18652 a 10.83677,10.83677 0 0 1 -2,-5.77734 10.83786,10.83786 0 0 1 2,-5.77734 10.83677,10.83677 0 0 1 2,5.77734 10.83786,10.83786 0 0 1 -2,5.77734 z"
     id="path14"
     style="fill:#5e5e5e" />
  <path
     d="m 100.90166,19.77832 6,4 a 2.03875,2.03875 0 0 0 2.77344,-0.55468 2.00041,2.00041 0 0 0 -0.55469,-2.77344 L 104.0042,17.03937 V 10 a 2,2 0 0 0 -4,0 v 8 c 0,0.03259 0.008,0.06293 0.01,0.09509 a 1.99558,1.99558 0 0 0 0.88788,1.68323 z"
     id="path16"
     style="fill:#5e5e5e" />
  <path
     d="m 94.004202,66 h -8 a 2,2 0 0 0 0,4 h 8 a 2,2 0 0 0 0,-4 z"
     id="path18"
     style="fill:#5e5e5e" />
  <path
     d="m 126.0042,86 a 2,2 0 0 0 0,-4 h -10 V 53 h 10 a 2,2 0 0 0 0,-4 H 48.959282 a 6.96306,6.96306 0 0 0 -6.95508,6.95508 v 7.21661 a 7.29132,7.29132 0 0 0 -6,6.9826 V 91.8457 A 7.4217,7.4217 0 0 0 43.651662,99 h 9.67407 a 7.87756,7.87756 0 0 0 -0.071,1 8.00024,8.00024 0 0 0 16.00047,0 7.87756,7.87756 0 0 0 -0.071,-1 H 126.0042 a 2,2 0 0 0 0,-4 H 52.004202 V 86 Z M 57.396962,99 h 7.71594 a 3.87116,3.87116 0 0 1 0.14227,1 4.000245,4.000245 0 0 1 -8.00049,0 3.87116,3.87116 0 0 1 0.14228,-1 z M 68.004202,53 H 112.0042 V 82 H 68.004202 Z m -20,42 h -4.35254 a 3.43181,3.43181 0 0 1 -3.64746,-3.1543 V 78.95508 h 8 z m 0,-20.04492 h -8 V 70.1543 A 3.43181,3.43181 0 0 1 43.651662,67 h 0.70654 a 3.431,3.431 0 0 1 3.646,3.1543 z m -2,-11.78363 V 55.95508 A 2.95848,2.95848 0 0 1 48.959282,53 h 15.04492 v 29 h -12 V 70.1543 a 7.291,7.291 0 0 0 -6,-6.98285 z"
     id="path20"
     style="fill:#5e5e5e" />
  <metadata
     id="metadata32">
    <rdf:RDF>
      <cc:Work
         rdf:about="">
        <dc:title>miscellaneous 280_expandline</dc:title>
      </cc:Work>
    </rdf:RDF>
  </metadata>
</svg>
