<?xml version="1.0" encoding="UTF-8" standalone="no"?>
<svg
   data-name="Layer 1"
   viewBox="0 0 96.900002 82.199997"
   x="0px"
   y="0px"
   version="1.1"
   id="svg18"
   sodipodi:docname="ba.svg"
   width="96.900002"
   height="82.199997"
   inkscape:version="1.1.2 (0a00cf5339, 2022-02-04)"
   xmlns:inkscape="http://www.inkscape.org/namespaces/inkscape"
   xmlns:sodipodi="http://sodipodi.sourceforge.net/DTD/sodipodi-0.dtd"
   xmlns="http://www.w3.org/2000/svg"
   xmlns:svg="http://www.w3.org/2000/svg"
   xmlns:rdf="http://www.w3.org/1999/02/22-rdf-syntax-ns#"
   xmlns:cc="http://creativecommons.org/ns#"
   xmlns:dc="http://purl.org/dc/elements/1.1/">
  <defs
     id="defs22" />
  <sodipodi:namedview
     id="namedview20"
     pagecolor="#ffffff"
     bordercolor="#666666"
     borderopacity="1.0"
     inkscape:pageshadow="2"
     inkscape:pageopacity="0.0"
     inkscape:pagecheckerboard="0"
     showgrid="false"
     fit-margin-top="0"
     fit-margin-left="0"
     fit-margin-right="0"
     fit-margin-bottom="0"
     inkscape:zoom="6.088"
     inkscape:cx="48.455979"
     inkscape:cy="53.630092"
     inkscape:window-width="1850"
     inkscape:window-height="1025"
     inkscape:window-x="1990"
     inkscape:window-y="27"
     inkscape:window-maximized="1"
     inkscape:current-layer="svg18" />
  <title
     id="title2">79</title>
  <g
     data-name="Group"
     id="g12"
     transform="translate(-1.5,-8.9)"
     style="fill:#5d5d5d">
    <path
       data-name="Compound Path"
       d="m 16.6,16.9 h 12.2 v 1.8 h -0.5 a 9.1,9.1 0 0 0 -9.1,9.1 v 8 h 27.2 v -8 A 9.1,9.1 0 0 0 37.3,18.7 H 36.8 V 8.9 H 8.6 v 49 H 1.5 v 8 H 8.9 A 29.2,29.2 0 0 0 37.7,91.1 H 63.3 A 29.2,29.2 0 0 0 92.1,65.9 h 6.3 v -8 H 16.6 Z M 38.4,27.7 H 27.2 a 1.1,1.1 0 0 1 1.1,-1.1 h 9.1 a 1.1,1.1 0 0 1 1,1.1 z M 63.3,83.1 H 37.7 A 21.1,21.1 0 0 1 17,65.9 H 84 A 21.1,21.1 0 0 1 63.3,83.1 Z"
       id="path4"
       style="fill:#5d5d5d" />
    <rect
       data-name="Path"
       x="28.799999"
       y="37.099998"
       width="8"
       height="13.48"
       id="rect6"
       style="fill:#5d5d5d" />
    <rect
       data-name="Path"
       x="37.900002"
       y="37.099998"
       width="8"
       height="13.48"
       id="rect8"
       style="fill:#5d5d5d" />
    <rect
       data-name="Path"
       x="19.700001"
       y="37.099998"
       width="8"
       height="13.48"
       id="rect10"
       style="fill:#5d5d5d" />
  </g>
  <metadata
     id="metadata24">
    <rdf:RDF>
      <cc:Work
         rdf:about="">
        <dc:title>79</dc:title>
      </cc:Work>
    </rdf:RDF>
  </metadata>
</svg>
