<?xml version="1.0" encoding="UTF-8" standalone="no"?>
<svg
   version="1.1"
   x="0px"
   y="0px"
   viewBox="0 0 25.693853 35.312252"
   enable-background="new 0 0 40 40"
   xml:space="preserve"
   id="svg1453"
   sodipodi:docname="backpacker-ok.svg"
   width="25.693853"
   height="35.312252"
   inkscape:version="1.2.2 (b0a8486541, 2022-12-01)"
   xmlns:inkscape="http://www.inkscape.org/namespaces/inkscape"
   xmlns:sodipodi="http://sodipodi.sourceforge.net/DTD/sodipodi-0.dtd"
   xmlns="http://www.w3.org/2000/svg"
   xmlns:svg="http://www.w3.org/2000/svg"><defs
     id="defs1457" /><sodipodi:namedview
     id="namedview1455"
     pagecolor="#ffffff"
     bordercolor="#000000"
     borderopacity="0.25"
     inkscape:showpageshadow="2"
     inkscape:pageopacity="0.0"
     inkscape:pagecheckerboard="0"
     inkscape:deskcolor="#d1d1d1"
     showgrid="false"
     inkscape:zoom="16.28"
     inkscape:cx="12.899263"
     inkscape:cy="17.751843"
     inkscape:window-width="1860"
     inkscape:window-height="1012"
     inkscape:window-x="0"
     inkscape:window-y="0"
     inkscape:window-maximized="1"
     inkscape:current-layer="svg1453" /><path
     d="m 11.811148,8.166 c 2.251,0 4.082,-1.832 4.082,-4.084 0,-2.25 -1.831,-4.082 -4.082,-4.082 -2.252,0 -4.083,1.832 -4.083,4.082 0,2.252 1.831,4.084 4.083,4.084 z m 0,-6.666 c 1.424,0 2.582,1.158 2.582,2.582 0,1.424 -1.158,2.584 -2.582,2.584 -1.424,0 -2.583,-1.16 -2.583,-2.584 0,-1.424 1.159,-2.582 2.583,-2.582 z"
     id="path1445"
     style="fill:#666666" /><path
     id="path1447"
     d="m 9.172367,8.556391 c -0.60201,0.03135 -1.152704,0.284286 -1.572266,0.68164 -0.466994,-0.166 -1.48674,-0.421994 -2.552734,0 -0.914994,0.363 -1.627053,1.119053 -2.123047,2.248047 -0.599997,0.258 -1.5872369,0.972512 -1.99023447,2.9375 -0.4469976,2.179988 -0.6434069,3.012141 -0.8164063,3.744141 l -0.023437,0.09961 c -0.1759994,0.749994 -0.1050139,1.384719 0.2089843,1.886719 0.2899982,0.466994 0.75948797,0.778781 1.39648437,0.925781 0.8469952,0.195 2.7297871,0.613219 3.6757811,0.824219 0.049,1.448988 0.1255,3.201459 0.1875,4.564453 l -4.76757797,5.148438 c -0.8229952,0.890994 -0.770854,2.28338 0.1191406,3.109374 0.85399517,0.791 2.31642737,0.731901 3.10742137,-0.121093 L 9.38721,28.808345 c 0.377,-0.408 0.585938,-0.938141 0.585938,-1.494141 v -4.798828 l 0.533203,0.09375 2.582031,4.544922 1.47461,6.447265 c 0.23,1.007994 1.110584,1.710938 2.142578,1.710938 0.166,0 0.332193,-0.01964 0.492187,-0.05664 1.181994,-0.270994 1.922344,-1.452818 1.652344,-2.632812 L 17.303226,25.86108 c -0.047,-0.213 -0.124469,-0.417609 -0.230469,-0.599609 l -3.21875,-5.666016 0.458985,-2.603515 1.71875,1.791015 c 0.355994,0.373 0.858953,0.587891 1.376953,0.587891 h 4.273437 v 0.0098 c 0.0046,-1.48e-4 0.0089,0 0.01367,0 h 0.296875 c 0.154347,-0.06459 0.314589,-0.09793 0.47461,-0.09375 0.138973,0.0036 0.275817,0.03733 0.408203,0.09375 h 0.08789 0.21875 v -0.0098 h 0.601563 c 1.052994,0 1.910156,-0.857209 1.910156,-1.908203 0.002,-1.052994 -0.856209,-1.910157 -1.908203,-1.910157 h -0.601562 v -0.05664 c -0.0495,-3.5e-5 -0.09902,-1.07e-4 -0.148438,0 -0.06173,10e-5 -0.123817,-0.0012 -0.185547,0 -0.07686,0.0014 -0.153699,0.0039 -0.230469,0.0078 -0.158506,0.0079 -0.316409,0.01853 -0.474609,0.03125 -0.228617,0.01672 -0.456214,0.02748 -0.685547,0.02148 -0.019,-5e-4 -0.03611,-0.0012 -0.05273,-0.0039 H 18.266117 L 15.217289,11.7185 c 0.035,-1.214994 -0.826647,-2.30749 -2.056641,-2.521484 L 9.73682,8.591547 C 9.634695,8.573297 9.53445,8.561887 9.434086,8.556387 c -0.08782,-0.0048 -0.175718,-0.0045 -0.261719,0 z m 0.103515,1.498047 c 0.06664,-0.0022 0.13425,0.0022 0.203125,0.01367 l 3.425782,0.605469 c 0.535994,0.094 0.895781,0.606537 0.800781,1.144531 -0.037,0.211 0.01934,0.429709 0.152344,0.595703 l 3.46289,4.353516 c 0.142,0.182 0.356938,0.285156 0.585938,0.285156 h 5.880859 c 0.226,0 0.410156,0.184157 0.410156,0.410157 -0.002,0.223994 -0.187109,0.408203 -0.412109,0.408203 h -6.375 c -0.111,0 -0.215969,-0.045 -0.292969,-0.125 l -4.414062,-4.542969 c -0.292,-0.297 -0.766547,-0.296654 -1.060547,-0.0059 -0.294,0.290994 -0.296654,0.765552 -0.0059,1.060546 l 1.388672,1.402344 -0.693359,3.94336 c -0.03,0.169994 -0.0011,0.348 0.08594,0.5 l 3.353516,5.904296 c 0.032,0.055 0.05727,0.116547 0.07227,0.185547 l 1.546875,6.763672 c 0.085,0.375 -0.150344,0.749891 -0.527344,0.837891 -0.368,0.084 -0.750943,-0.156344 -0.835937,-0.527344 l -1.498047,-6.554687 c -0.017,-0.072 -0.04408,-0.141125 -0.08008,-0.203125 l -2.814453,-4.955078 c -0.115,-0.203 -0.317828,-0.340094 -0.548828,-0.371094 -0.016,-0.004 -0.04627,-0.0058 -0.07227,-0.0078 l -1.65625,-0.291015 c -0.223,-0.041 -0.444282,0.02106 -0.613282,0.164062 -0.169994,0.143 -0.267578,0.354219 -0.267578,0.574219 v 5.691406 c 0,0.178 -0.06555,0.345615 -0.185547,0.474609 L 2.924281,33.585659 C 2.6705156,33.858827 2.20999,33.87675 1.9379918,33.62475 1.653993,33.36275 1.636931,32.919463 1.8989292,32.636469 L 6.879398,27.257562 c 0.137,-0.147994 0.209219,-0.343927 0.199219,-0.544921 -0.149,-3.241982 -0.28786,-6.904303 -0.25586,-7.279297 l 1.509766,-8.5625 c 0.08137,-0.464625 0.47688,-0.801113 0.943359,-0.816406 z m -2.990234,0.455078 c 0.21925,-1.25e-4 0.419172,0.03231 0.576172,0.07031 -10e-4,0.012 -0.0058,0.0203 -0.0078,0.0293 l -1.511718,8.5625 c -0.022,0.127 -0.02162,0.565547 -0.0098,1.185547 -1.001994,-0.225 -2.5499261,-0.56624 -3.2949219,-0.740234 -0.2339982,-0.053 -0.3899375,-0.140907 -0.4609375,-0.253907 -0.092,-0.148 -0.1004858,-0.415906 -0.021484,-0.753906 l 0.023438,-0.0957 c 0.176019,-0.743998 0.3751748,-1.588122 0.8261718,-3.78711 0.3509982,-1.710988 1.1571096,-1.88863 1.1621096,-1.890624 0.282,-0.029 0.525,-0.217475 0.625,-0.480469 0.339,-0.899994 0.80749,-1.476797 1.396484,-1.716797 0.238,-0.0965 0.478016,-0.128781 0.697266,-0.128906 z m 16.898438,4.65039 c -0.01119,0.01037 -0.02378,0.01745 -0.03516,0.02734 0.01171,8e-6 0.02344,-8e-6 0.03516,0 z"
     style="fill:#666666" /></svg>
