<?xml version="1.0" encoding="UTF-8" standalone="no"?>
<svg
   version="1.1"
   x="0px"
   y="0px"
   viewBox="0 0 33.326534 33.092903"
   enable-background="new 0 0 32 32"
   xml:space="preserve"
   id="svg1539"
   sodipodi:docname="backpacker-no.svg"
   width="33.326534"
   height="33.092903"
   inkscape:version="1.2.2 (b0a8486541, 2022-12-01)"
   xmlns:inkscape="http://www.inkscape.org/namespaces/inkscape"
   xmlns:sodipodi="http://sodipodi.sourceforge.net/DTD/sodipodi-0.dtd"
   xmlns="http://www.w3.org/2000/svg"
   xmlns:svg="http://www.w3.org/2000/svg"><defs
     id="defs1543" /><sodipodi:namedview
     id="namedview1541"
     pagecolor="#ffffff"
     bordercolor="#000000"
     borderopacity="0.25"
     inkscape:showpageshadow="2"
     inkscape:pageopacity="0.0"
     inkscape:pagecheckerboard="0"
     inkscape:deskcolor="#d1d1d1"
     showgrid="false"
     inkscape:zoom="20.35"
     inkscape:cx="16.707617"
     inkscape:cy="17.051597"
     inkscape:window-width="1920"
     inkscape:window-height="1044"
     inkscape:window-x="0"
     inkscape:window-y="0"
     inkscape:window-maximized="1"
     inkscape:current-layer="svg1539" /><path
     d="m 13.917267,8.9433145 c 1.907,0 3.458,-1.551 3.458,-3.458 0,-1.907 -1.551,-3.458 -3.458,-3.458 -1.906,0 -3.457,1.551 -3.457,3.458 0,1.907 1.551,3.458 3.457,3.458 z m 0,-5.916 c 1.355,0 2.458,1.103 2.458,2.458 0,1.355 -1.103,2.458 -2.458,2.458 -1.354,0 -2.457,-1.103 -2.457,-2.458 0,-1.355 1.102,-2.458 2.457,-2.458 z"
     id="path1529"
     style="fill:#6a6a6a" /><path
     d="m 28.834267,11.287315 -1.157,-4.3220005 c -0.177,-0.653 -0.891,-1.058 -1.537,-0.886 l -5.52,1.479 c -0.324,0.087 -0.595,0.294 -0.762,0.584 -0.168,0.29 -0.213,0.629 -0.126,0.952 l 2.378,8.8770005 c 0.148,0.547 0.646,0.929 1.212,0.929 0.109,0 0.22,-0.015 0.325,-0.043 l 3.453,-0.925 c 0.667,-0.18 1.065,-0.869 0.888,-1.538 l -0.896,-3.341 0.854,-0.229 c 0.324,-0.087 0.596,-0.295 0.764,-0.586 0.167,-0.291 0.211,-0.629 0.124,-0.951 z m -0.991,0.452 c -0.033,0.059 -0.089,0.101 -0.154,0.118 l -1.338,0.358 c -0.129,0.035 -0.238,0.118 -0.304,0.233 -0.066,0.115 -0.085,0.251 -0.051,0.38 l 1.025,3.822 c 0.036,0.138 -0.045,0.278 -0.18,0.314 l -3.453,0.925 c -0.143,0.039 -0.277,-0.049 -0.313,-0.18 l -2.378,-8.8760005 c -0.018,-0.065 -0.008,-0.134 0.025,-0.193 0.034,-0.059 0.09,-0.101 0.155,-0.118 l 5.587,-1.487 c 0.114,0 0.216,0.078 0.245,0.188 l 1.157,4.3220005 c 0.026,0.09 -0.004,0.16 -0.023,0.194 z"
     id="path1531"
     style="fill:#6a6a6a" /><path
     id="path1533"
     d="m 17.014829,8.691627 c -0.47898,0 -0.976535,0.1054103 -1.478515,0.3164063 -1.74196,0.729984 -3.544473,3.7808637 -4.064453,4.7148437 H 9.3995953 c -0.030581,0.0063 -0.064315,0.0072 -0.099609,0.0059 -0.078712,0.03767 -0.1816951,0.05849 -0.3105469,0.05078 -0.3039579,-0.01818 -0.6077387,-0.02901 -0.9121094,-0.03711 -0.3112825,-0.0079 -0.6241801,-0.0097 -0.9355469,-0.01172 -0.2378014,-0.0014 -0.4750857,-0.0015 -0.7128906,-0.002 -0.1286959,-2.23e-4 -0.2580228,6.3e-5 -0.3867188,0 -0.028783,-1.3e-5 -0.057352,-3e-6 -0.085937,0 -0.8414465,0.06445 -1.5078125,0.768372 -1.5078126,1.626953 0,0.842793 0.6440115,1.541087 1.4667969,1.625 h 0.00195 c 0.060618,-0.01859 0.1311354,-0.0293 0.2128907,-0.0293 H 6.9952984 7.9074078 8.7257672 9.034361 c 0.090692,0 0.1677432,0.01265 0.2324218,0.03516 h 2.9824222 c 0.43798,0 0.863828,-0.180113 1.173828,-0.496093 l 0.449218,-0.464844 c 0.231,0.76898 0.580516,1.824285 0.853516,2.447265 l -2.796875,3.966797 c -0.241,0.34 -0.369141,0.742157 -0.369141,1.160157 v 6.353515 c 0,1.10798 0.902739,2.011719 2.011719,2.011719 1.10898,0 2.009766,-0.902739 2.009766,-2.011719 v -5.68164 c 0.84498,-0.91298 1.805754,-1.905329 2.302734,-2.361329 0.278,0.521 0.740629,1.53502 1.099609,2.375 0.041,0.165 0.10452,0.327469 0.1875,0.480469 l 3.347657,6.150391 c 0.35398,0.64598 1.030598,1.046875 1.767578,1.046875 0.334,0 0.665957,-0.08414 0.960937,-0.244141 0.97298,-0.52998 1.333668,-1.754535 0.804688,-2.728515 L 22.82147,23.070525 c -0.227,-0.89298 -2.87475,-11.306458 -3.09375,-12.148438 -0.362999,-1.3959653 -1.377911,-2.23046 -2.712891,-2.23046 z m -0.128906,1.0078125 c 0.904949,-0.041813 1.61552,0.4744305 1.875,1.4726565 0.123,0.475 1.016473,3.986107 1.814453,7.123047 -0.008,0.111 -0.06245,0.557813 -0.439453,1.007813 -0.30198,0.35998 -1.537035,1.050734 -2.291015,1.427734 -0.268,0.083 -0.857853,0.535853 -3.132813,3.007813 -0.085,0.093 -0.130859,0.214843 -0.130859,0.339843 v 5.876953 c 0,0.557 -0.454739,1.009766 -1.011719,1.009766 -0.55798,0 -1.009766,-0.452766 -1.009766,-1.009766 v -6.355468 c 0,-0.21 0.06159,-0.411032 0.183594,-0.582032 l 2.96875,-4.207031 c 0.109,-0.154 0.12125,-0.358391 0.03125,-0.525391 -0.344,-0.64098 -1.074906,-3.017265 -1.128906,-3.322265 -0.032,-0.186 -0.165703,-0.337578 -0.345703,-0.392578 -0.18,-0.06 -0.37486,-0.0061 -0.50586,0.128906 l -1.05664,1.095703 c -0.121,0.123 -0.287051,0.193359 -0.457031,0.19336 H 6.081236 c -0.348994,0 -0.6328125,-0.283813 -0.6328126,-0.632813 0,-0.35 0.2838186,-0.632812 0.6328126,-0.632813 h 5.6875 c 0.186,0 0.357359,-0.104531 0.443359,-0.269531 0.557,-1.05898 2.308911,-3.93545 3.712891,-4.5234377 0.33548,-0.140748 0.6593,-0.2165313 0.960937,-0.2304688 z m 4.085938,10.1523445 c 0.50598,1.98696 0.896484,3.527344 0.896484,3.527343 0.01,0.041 0.02492,0.07823 0.04492,0.115235 l 3.255859,5.978515 c 0.266,0.488 0.08566,1.103141 -0.402343,1.369141 -0.48,0.26 -1.112094,0.0697 -1.371094,-0.404297 l -3.347656,-6.146484 c -0.042,-0.078 -0.07414,-0.160426 -0.119141,-0.316406 -0.56798,-1.35098 -0.937453,-2.126192 -1.189453,-2.576172 0.67998,-0.36 1.766129,-0.980145 2.162109,-1.453125 0.026,-0.031 0.04631,-0.06275 0.07031,-0.09375 z"
     style="fill:#6a6a6a" /><g
     id="g526"
     transform="matrix(0.69659577,0,0,0.69170514,-18.166173,-18.038632)"
     style="fill:#6a6a6a"><path
       d="m 27.579,73.921 c -0.384,0 -0.768,-0.146 -1.061,-0.439 -0.586,-0.585 -0.586,-1.536 0,-2.121 L 71.36,26.518 c 0.586,-0.586 1.535,-0.586 2.121,0 0.586,0.585 0.586,1.536 0,2.121 L 28.639,73.481 c -0.293,0.293 -0.677,0.44 -1.06,0.44 z"
       id="path524"
       style="fill:#6a6a6a" /></g></svg>
