<?xml version="1.0" encoding="UTF-8" standalone="no"?>
<svg
   xml:space="preserve"
   style="image-rendering:optimizeQuality;shape-rendering:geometricPrecision;text-rendering:geometricPrecision"
   viewBox="0 0 34.909061 24.028296"
   x="0px"
   y="0px"
   fill-rule="evenodd"
   clip-rule="evenodd"
   version="1.1"
   id="svg88"
   sodipodi:docname="noun-balcony-2802499.svg"
   width="34.909061"
   height="24.028296"
   xmlns:inkscape="http://www.inkscape.org/namespaces/inkscape"
   xmlns:sodipodi="http://sodipodi.sourceforge.net/DTD/sodipodi-0.dtd"
   xmlns="http://www.w3.org/2000/svg"
   xmlns:svg="http://www.w3.org/2000/svg"><sodipodi:namedview
     id="namedview90"
     pagecolor="#ffffff"
     bordercolor="#000000"
     borderopacity="0.25"
     inkscape:showpageshadow="2"
     inkscape:pageopacity="0.0"
     inkscape:pagecheckerboard="0"
     inkscape:deskcolor="#d1d1d1"
     showgrid="false" /><defs
     id="defs4"><style
       type="text/css"
       id="style2">
   
    .fil0 {fill:black}
   
  </style></defs><g
     id="g82"
     transform="translate(-7.54545,-12.71314)"
     style="fill:#666666"><path
       class="fil0"
       d="m 8.60328,14.8288 c -0.584031,0 -1.05783,-0.473795 -1.05783,-1.05783 0,-0.584031 0.473795,-1.05783 1.05783,-1.05783 h 32.7934 c 0.584031,0 1.05783,0.473795 1.05783,1.05783 0,0.584031 -0.473795,1.05783 -1.05783,1.05783 z"
       id="path6"
       style="fill:#666666" /><path
       class="fil0"
       d="m 10.0415,30.2844 h 29.917 c 0.292106,0 0.528925,0.236819 0.528925,0.528925 v 1.7738 c 0,1.14297 -0.467236,2.18172 -1.21991,2.9344 -0.752681,0.752677 -1.79143,1.21991 -2.9344,1.21991 h -22.6662 c -1.14297,0 -2.18172,-0.467236 -2.9344,-1.21991 -0.752681,-0.752681 -1.21992,-1.79143 -1.21992,-2.9344 v -1.7738 c 0,-0.292106 0.236819,-0.528925 0.528929,-0.528925 z"
       id="path8"
       style="fill:#666666" /><g
       id="g22"
       style="fill:#666666"><path
         class="fil0"
         d="m 38.0085,21.7182 c 0,0.438055 -0.355307,0.793366 -0.793366,0.793366 -0.438055,0 -0.793362,-0.355311 -0.793362,-0.793366 v -7.94725 c 0,-0.438055 0.355307,-0.793362 0.793362,-0.793362 0.438059,0 0.793366,0.355382 0.793366,0.793362 z m 0,8.83354 c 0,0.438055 -0.355307,0.793366 -0.793366,0.793366 -0.438055,0 -0.793362,-0.355311 -0.793362,-0.793366 v -7.22203 c 0,-0.438055 0.355307,-0.793362 0.793362,-0.793362 0.438059,0 0.793366,0.355307 0.793366,0.793362 z"
         id="path10"
         style="fill:#666666" /><g
         id="g20"
         style="fill:#666666"><path
           class="fil0"
           d="m 37.2481,20.5494 c 0.55428,0 1.05609,0.224697 1.41929,0.587925 0.363228,0.363224 0.587925,0.865063 0.587925,1.41931 0,0.554252 -0.224697,1.05609 -0.587894,1.41929 -0.363228,0.363228 -0.865067,0.587925 -1.41932,0.587925 -0.554252,0 -1.05609,-0.224697 -1.41929,-0.587925 -0.363228,-0.363197 -0.587925,-0.865035 -0.587925,-1.41929 0,-0.554252 0.224697,-1.05609 0.587925,-1.41931 C 36.192008,20.774097 36.693846,20.5494 37.2481,20.5494 Z"
           id="path12"
           style="fill:#666666" /><g
           id="g18"
           style="fill:#666666"><circle
             class="fil0"
             cx="37.2481"
             cy="17.7917"
             r="1.41642"
             id="circle14"
             style="fill:#666666" /><circle
             class="fil0"
             cx="37.2481"
             cy="27.321501"
             r="1.41642"
             id="circle16"
             style="fill:#666666" /></g></g></g><g
       id="g36"
       style="fill:#666666"><path
         class="fil0"
         d="m 13.5124,21.7182 c 0,0.438055 -0.355307,0.793366 -0.793366,0.793366 -0.438055,0 -0.793362,-0.355311 -0.793362,-0.793366 v -7.94725 c 0,-0.438055 0.355307,-0.793362 0.793362,-0.793362 0.438059,0 0.793366,0.355382 0.793366,0.793362 z m 0,8.83354 c 0,0.438055 -0.355307,0.793366 -0.793366,0.793366 -0.438055,0 -0.793362,-0.355311 -0.793362,-0.793366 v -7.22203 c 0,-0.438055 0.355307,-0.793362 0.793362,-0.793362 0.438059,0 0.793366,0.355307 0.793366,0.793362 z"
         id="path24"
         style="fill:#666666" /><g
         id="g34"
         style="fill:#666666"><path
           class="fil0"
           d="m 12.7519,20.5494 c 0.55428,0 1.05609,0.224697 1.41929,0.587925 0.363228,0.363224 0.587925,0.865063 0.587925,1.41931 0,0.554252 -0.224697,1.05609 -0.587898,1.41929 -0.363224,0.363228 -0.865063,0.587925 -1.41931,0.587925 -0.554252,0 -1.05609,-0.224697 -1.41929,-0.587925 -0.363228,-0.363197 -0.587925,-0.865035 -0.587925,-1.41929 0,-0.554252 0.224697,-1.05609 0.587925,-1.41931 0.363197,-0.363228 0.865035,-0.587925 1.41929,-0.587925 z"
           id="path26"
           style="fill:#666666" /><g
           id="g32"
           style="fill:#666666"><circle
             class="fil0"
             cx="12.7519"
             cy="17.7917"
             r="1.41642"
             id="circle28"
             style="fill:#666666" /><circle
             class="fil0"
             cx="12.7519"
             cy="27.321501"
             r="1.41642"
             id="circle30"
             style="fill:#666666" /></g></g></g><g
       id="g50"
       style="fill:#666666"><path
         class="fil0"
         d="m 19.6364,21.7182 c 0,0.438055 -0.355307,0.793366 -0.793366,0.793366 -0.438055,0 -0.793362,-0.355311 -0.793362,-0.793366 v -7.94725 c 0,-0.438055 0.355307,-0.793362 0.793362,-0.793362 0.438059,0 0.793366,0.355382 0.793366,0.793362 z m 0,8.83354 c 0,0.438055 -0.355307,0.793366 -0.793366,0.793366 -0.438055,0 -0.793362,-0.355311 -0.793362,-0.793366 v -7.22203 c 0,-0.438055 0.355307,-0.793362 0.793362,-0.793362 0.438059,0 0.793366,0.355307 0.793366,0.793362 z"
         id="path38"
         style="fill:#666666" /><g
         id="g48"
         style="fill:#666666"><path
           class="fil0"
           d="m 18.876,20.5494 c 0.55428,0 1.05609,0.224697 1.41929,0.587925 0.363228,0.363224 0.587925,0.865063 0.587925,1.41931 0,0.554252 -0.224697,1.05609 -0.587894,1.41929 -0.363228,0.363228 -0.865067,0.587925 -1.41932,0.587925 -0.554252,0 -1.05609,-0.224697 -1.41929,-0.587925 -0.363228,-0.363197 -0.587925,-0.865035 -0.587925,-1.41929 0,-0.554252 0.224697,-1.05609 0.587925,-1.41931 0.363197,-0.363228 0.865035,-0.587925 1.41929,-0.587925 z"
           id="path40"
           style="fill:#666666" /><g
           id="g46"
           style="fill:#666666"><circle
             class="fil0"
             cx="18.875999"
             cy="17.7917"
             r="1.41642"
             id="circle42"
             style="fill:#666666" /><circle
             class="fil0"
             cx="18.875999"
             cy="27.321501"
             r="1.41642"
             id="circle44"
             style="fill:#666666" /></g></g></g><g
       id="g64"
       style="fill:#666666"><path
         class="fil0"
         d="m 25.7604,21.7182 c 0,0.438055 -0.355307,0.793366 -0.793366,0.793366 -0.438055,0 -0.793362,-0.355311 -0.793362,-0.793366 v -7.94725 c 0,-0.438055 0.355307,-0.793362 0.793362,-0.793362 0.438059,0 0.793366,0.355382 0.793366,0.793362 z m 0,8.83354 c 0,0.438055 -0.355307,0.793366 -0.793366,0.793366 -0.438055,0 -0.793362,-0.355311 -0.793362,-0.793366 v -7.22203 c 0,-0.438055 0.355307,-0.793362 0.793362,-0.793362 0.438059,0 0.793366,0.355307 0.793366,0.793362 z"
         id="path52"
         style="fill:#666666" /><g
         id="g62"
         style="fill:#666666"><path
           class="fil0"
           d="m 25,20.5494 c 0.55428,0 1.05609,0.224697 1.41929,0.587925 0.363228,0.363224 0.587925,0.865063 0.587925,1.41931 0,0.554252 -0.224697,1.05609 -0.587894,1.41929 -0.363228,0.363228 -0.865067,0.587925 -1.41932,0.587925 -0.554252,0 -1.05609,-0.224697 -1.41929,-0.587925 -0.363228,-0.363197 -0.587925,-0.865035 -0.587925,-1.41929 0,-0.554252 0.224697,-1.05609 0.587925,-1.41931 0.363197,-0.363228 0.865035,-0.587925 1.41929,-0.587925 z"
           id="path54"
           style="fill:#666666" /><g
           id="g60"
           style="fill:#666666"><circle
             class="fil0"
             cx="25"
             cy="17.7917"
             r="1.41642"
             id="circle56"
             style="fill:#666666" /><circle
             class="fil0"
             cx="25"
             cy="27.321501"
             r="1.41642"
             id="circle58"
             style="fill:#666666" /></g></g></g><g
       id="g78"
       style="fill:#666666"><path
         class="fil0"
         d="m 31.8845,21.7182 c 0,0.438055 -0.355307,0.793366 -0.793366,0.793366 -0.438055,0 -0.793362,-0.355311 -0.793362,-0.793366 v -7.94725 c 0,-0.438055 0.355307,-0.793362 0.793362,-0.793362 0.438059,0 0.793366,0.355382 0.793366,0.793362 z m 0,8.83354 c 0,0.438055 -0.355307,0.793366 -0.793366,0.793366 -0.438055,0 -0.793362,-0.355311 -0.793362,-0.793366 v -7.22203 c 0,-0.438055 0.355307,-0.793362 0.793362,-0.793362 0.438059,0 0.793366,0.355307 0.793366,0.793362 z"
         id="path66"
         style="fill:#666666" /><g
         id="g76"
         style="fill:#666666"><path
           class="fil0"
           d="m 31.124,20.5494 c 0.55428,0 1.05609,0.224697 1.41929,0.587925 0.363228,0.363224 0.587925,0.865063 0.587925,1.41931 0,0.554252 -0.224697,1.05609 -0.587894,1.41929 -0.363228,0.363228 -0.865067,0.587925 -1.41932,0.587925 -0.554252,0 -1.05609,-0.224697 -1.41929,-0.587925 -0.363228,-0.363197 -0.587925,-0.865035 -0.587925,-1.41929 0,-0.554252 0.224697,-1.05609 0.587925,-1.41931 0.363197,-0.363228 0.865035,-0.587925 1.41929,-0.587925 z"
           id="path68"
           style="fill:#666666" /><g
           id="g74"
           style="fill:#666666"><circle
             class="fil0"
             cx="31.124001"
             cy="17.7917"
             r="1.41642"
             id="circle70"
             style="fill:#666666" /><circle
             class="fil0"
             cx="31.124001"
             cy="27.321501"
             r="1.41642"
             id="circle72"
             style="fill:#666666" /></g></g></g></g></svg>
