<?xml version="1.0" encoding="UTF-8" standalone="no"?>
<svg
   version="1.1"
   x="0px"
   y="0px"
   viewBox="0 0 79 69"
   xml:space="preserve"
   id="svg16"
   sodipodi:docname="balcony.svg"
   width="79"
   height="69"
   inkscape:version="1.1.2 (0a00cf5339, 2022-02-04)"
   xmlns:inkscape="http://www.inkscape.org/namespaces/inkscape"
   xmlns:sodipodi="http://sodipodi.sourceforge.net/DTD/sodipodi-0.dtd"
   xmlns="http://www.w3.org/2000/svg"
   xmlns:svg="http://www.w3.org/2000/svg"><defs
     id="defs20" /><sodipodi:namedview
     id="namedview18"
     pagecolor="#ffffff"
     bordercolor="#666666"
     borderopacity="1.0"
     inkscape:pageshadow="2"
     inkscape:pageopacity="0.0"
     inkscape:pagecheckerboard="0"
     showgrid="false"
     fit-margin-top="0"
     fit-margin-left="0"
     fit-margin-right="0"
     fit-margin-bottom="0"
     inkscape:zoom="5.5345455"
     inkscape:cx="39.388962"
     inkscape:cy="48.423127"
     inkscape:window-width="1920"
     inkscape:window-height="1052"
     inkscape:window-x="3840"
     inkscape:window-y="0"
     inkscape:window-maximized="1"
     inkscape:current-layer="svg16" /><g
     id="g10"
     transform="translate(-15.5,-20.5)"
     style="fill:#4f4f4f"><g
       id="g8"
       style="fill:#4f4f4f"><path
         d="M 92.5,52.5 H 89 v -6 c 0,-1.1 -0.9,-2 -2,-2 H 67 c -1.1,0 -2,0.9 -2,2 v 6 H 51 c 0,-3.5 -1.4,-6.7 -3.8,-9.2 -0.5,-0.5 -1,-0.9 -1.6,-1.3 1.5,-1.8 2.4,-4 2.4,-6.5 0,-5.5 -4.5,-10 -10,-10 -5.5,0 -10,4.5 -10,10 0,2.4 0.9,4.7 2.4,6.5 C 27,44.4 25,48.2 25,52.5 h -7.5 c -1.1,0 -2,0.9 -2,2 v 6 c 0,1.1 0.9,2 2,2 h 2 v 25 c 0,1.1 0.9,2 2,2 h 67 c 1.1,0 2,-0.9 2,-2 v -25 h 2 c 1.1,0 2,-0.9 2,-2 v -6 c 0,-1.1 -0.9,-2 -2,-2 z M 69,48.5 h 16 v 4 H 69 Z m -31,-19 c 3.3,0 6,2.7 6,6 0,2.1 -1.1,4 -2.9,5.1 -1.4,0.9 -3.2,1.1 -4.8,0.7 -0.5,-0.1 -1,-0.4 -1.5,-0.7 -1.8,-1.1 -2.9,-3 -2.9,-5.1 0.1,-3.3 2.8,-6 6.1,-6 z m -4.2,15.1 c 0,0 0.1,0 0.1,0.1 0.1,0.1 0.3,0.1 0.4,0.2 0.2,0.1 0.5,0.2 0.8,0.3 0.2,0.1 0.4,0.1 0.6,0.2 0.2,0 0.4,0.1 0.6,0.1 0.2,0 0.5,0.1 0.7,0.1 0.1,0 0.2,0 0.3,0 0.3,0 0.6,0.1 0.9,0.1 0.3,0 0.6,0 0.9,-0.1 0.1,0 0.2,0 0.3,0 0.2,0 0.5,-0.1 0.7,-0.1 0.2,0 0.4,-0.1 0.6,-0.1 0.2,0 0.4,-0.1 0.6,-0.2 0.3,-0.1 0.5,-0.2 0.7,-0.3 0.1,-0.1 0.3,-0.1 0.4,-0.2 0,0 0.1,0 0.1,-0.1 0.8,0.4 1.5,0.9 2.1,1.6 1.7,1.7 2.6,4 2.6,6.4 H 29 c 0,-3.5 1.8,-6.5 4.8,-8 z m 52.7,40.9 h -63 v -23 h 63 z m 4,-27 h -2 -67 -2 v -2 h 7.5 22 18 20 3.5 z"
         id="path2"
         style="fill:#4f4f4f" /><path
         d="m 81,27.5 h 1 v 1 c 0,1.1 0.9,2 2,2 1.1,0 2,-0.9 2,-2 v -1 h 1 c 1.1,0 2,-0.9 2,-2 0,-1.1 -0.9,-2 -2,-2 h -1 v -1 c 0,-1.1 -0.9,-2 -2,-2 -1.1,0 -2,0.9 -2,2 v 1 h -1 c -1.1,0 -2,0.9 -2,2 0,1.1 0.9,2 2,2 z"
         id="path4"
         style="fill:#4f4f4f" /><path
         d="m 57,39.5 h 1 v 1 c 0,1.1 0.9,2 2,2 1.1,0 2,-0.9 2,-2 v -1 h 1 c 1.1,0 2,-0.9 2,-2 0,-1.1 -0.9,-2 -2,-2 h -1 v -1 c 0,-1.1 -0.9,-2 -2,-2 -1.1,0 -2,0.9 -2,2 v 1 h -1 c -1.1,0 -2,0.9 -2,2 0,1.1 0.9,2 2,2 z"
         id="path6"
         style="fill:#4f4f4f" /></g></g></svg>
