<?xml version="1.0" encoding="UTF-8" standalone="no"?>
<svg
   xml:space="preserve"
   style="image-rendering:optimizeQuality;shape-rendering:geometricPrecision;text-rendering:geometricPrecision"
   viewBox="0 0 1535.9998 1066.2959"
   x="0px"
   y="0px"
   fill-rule="evenodd"
   clip-rule="evenodd"
   version="1.1"
   id="svg60"
   sodipodi:docname="balcony3.svg"
   width="1535.9998"
   height="1066.2959"
   inkscape:version="1.1.2 (0a00cf5339, 2022-02-04)"
   xmlns:inkscape="http://www.inkscape.org/namespaces/inkscape"
   xmlns:sodipodi="http://sodipodi.sourceforge.net/DTD/sodipodi-0.dtd"
   xmlns="http://www.w3.org/2000/svg"
   xmlns:svg="http://www.w3.org/2000/svg"><sodipodi:namedview
     id="namedview62"
     pagecolor="#ffffff"
     bordercolor="#666666"
     borderopacity="1.0"
     inkscape:pageshadow="2"
     inkscape:pageopacity="0.0"
     inkscape:pagecheckerboard="0"
     showgrid="false"
     fit-margin-top="0"
     fit-margin-left="0"
     fit-margin-right="0"
     fit-margin-bottom="0"
     inkscape:zoom="0.29726562"
     inkscape:cx="766.9908"
     inkscape:cy="529.82917"
     inkscape:window-width="1850"
     inkscape:window-height="1025"
     inkscape:window-x="1990"
     inkscape:window-y="27"
     inkscape:window-maximized="1"
     inkscape:current-layer="svg60" /><defs
     id="defs4"><style
       type="text/css"
       id="style2">
   
    .fil2 {fill:none}
    .fil1 {fill:black}
    .fil0 {fill:black;fill-rule:nonzero}
   
  </style></defs><g
     id="g52"
     transform="translate(-255.999,-490.852)"
     style="fill:#5e5e5e"><g
       id="g50"
       style="fill:#5e5e5e"><path
         class="fil0"
         d="m 279.999,538.857 c -13.2543,0 -24,-10.7457 -24,-24 0,-13.2543 10.7457,-24 24,-24 h 84.2398 1403.76 c 13.2543,0 24,10.7457 24,24 0,13.2543 -10.7457,24 -24,24 h -1403.76 z"
         id="path6"
         style="fill:#5e5e5e" /><path
         class="fil0"
         d="m 345.259,1264.16 h 1357.48 c 13.2543,0 24,10.7457 24,24 v 80.4863 c 0,51.8622 -21.2008,98.9954 -55.3536,133.148 -34.1528,34.1528 -81.2859,55.3536 -133.148,55.3536 h -1028.48 c -51.8622,0 -98.9954,-21.2008 -133.148,-55.3536 -34.1528,-34.1528 -55.3536,-81.2859 -55.3536,-133.148 V 1288.16 c 0,-13.2543 10.7457,-24 24,-24 z m 1333.48,48 H 369.259 v 56.4863 c 0,38.6114 15.815,73.7339 41.2914,99.2103 25.4764,25.4764 60.5989,41.2914 99.2103,41.2914 h 1028.48 c 38.6114,0 73.7339,-15.815 99.2103,-41.2914 25.4764,-25.4764 41.2914,-60.5989 41.2914,-99.2103 V 1312.16 Z"
         id="path8"
         style="fill:#5e5e5e" /><path
         class="fil0"
         d="m 490.75,1276.28 c 0,13.2543 -10.7457,24 -24,24 -13.2543,0 -24,-10.7457 -24,-24 V 948.581 c 0,-13.2543 10.7457,-24 24,-24 13.2543,0 24,10.7457 24,24 z m 0,-470.478 c 0,13.2543 -10.7457,24 -24,24 -13.2543,0 -24,-10.7457 -24,-24 V 514.853 c 0,-13.2543 10.7457,-24 24,-24 13.2543,0 24,10.7457 24,24 z"
         id="path10"
         style="fill:#5e5e5e" /><path
         class="fil0"
         d="m 468.244,791.769 c 22.5697,0 43.0052,9.15001 57.7949,23.941 14.791,14.791 23.941,35.2264 23.941,57.7961 0,22.5697 -9.15001,43.0052 -23.941,57.7949 -14.7898,14.791 -35.2252,23.941 -57.7949,23.941 -22.5697,0 -43.0052,-9.15001 -57.7961,-23.941 -14.7898,-14.7898 -23.9398,-35.2252 -23.9398,-57.7949 0,-22.5697 9.15001,-43.0052 23.941,-57.7961 14.7898,-14.791 35.224,-23.941 57.7949,-23.941 z m 23.8571,57.8788 c -6.10276,-6.10276 -14.5382,-9.87875 -23.8571,-9.87875 -9.3189,0 -17.7543,3.77599 -23.8571,9.87875 -6.10276,6.10276 -9.87875,14.5394 -9.87875,23.8583 0,9.3189 3.77599,17.7555 9.87757,23.8571 6.10276,6.10276 14.5394,9.87875 23.8583,9.87875 9.3189,0 17.7543,-3.77599 23.8571,-9.87875 6.10276,-6.10276 9.87875,-14.5382 9.87875,-23.8571 0,-9.3189 -3.77599,-17.7555 -9.87875,-23.8583 z"
         id="path12"
         style="fill:#5e5e5e" /><ellipse
         class="fil1"
         cx="468.24399"
         cy="680.021"
         rx="52.956402"
         ry="52.956299"
         id="ellipse14"
         style="fill:#5e5e5e" /><ellipse
         class="fil1"
         cx="468.24399"
         cy="1066.99"
         rx="52.956402"
         ry="52.956299"
         id="ellipse16"
         style="fill:#5e5e5e" /><path
         class="fil0"
         d="m 768.628,1276.28 c 0,13.2543 -10.7457,24 -24,24 -13.2543,0 -24,-10.7457 -24,-24 V 948.581 c 0,-13.2543 10.7457,-24 24,-24 13.2543,0 24,10.7457 24,24 z m 0,-477.511 c 0,13.2543 -10.7457,24 -24,24 -13.2543,0 -24,-10.7457 -24,-24 V 514.852 c 0,-13.2543 10.7457,-24 24,-24 13.2543,0 24,10.7457 24,24 z"
         id="path18"
         style="fill:#5e5e5e" /><path
         class="fil0"
         d="m 746.122,791.769 c 22.5697,0 43.0052,9.15001 57.7949,23.941 14.791,14.791 23.941,35.2264 23.941,57.7961 0,22.5697 -9.15001,43.0052 -23.941,57.7949 -14.7898,14.791 -35.2252,23.941 -57.7949,23.941 -22.5697,0 -43.0052,-9.15001 -57.7961,-23.941 -14.7898,-14.7898 -23.9398,-35.2252 -23.9398,-57.7949 0,-22.5697 9.15001,-43.0052 23.941,-57.7961 14.7898,-14.791 35.224,-23.941 57.7949,-23.941 z m 23.8571,57.8788 c -6.10276,-6.10276 -14.5382,-9.87875 -23.8571,-9.87875 -9.3189,0 -17.7543,3.77599 -23.8571,9.87875 -6.10276,6.10276 -9.87875,14.5394 -9.87875,23.8583 0,9.3189 3.77599,17.7555 9.87757,23.8571 6.10276,6.10276 14.5394,9.87875 23.8583,9.87875 9.3189,0 17.7543,-3.77599 23.8571,-9.87875 6.10276,-6.10276 9.87875,-14.5382 9.87875,-23.8571 0,-9.3189 -3.77599,-17.7555 -9.87875,-23.8583 z"
         id="path20"
         style="fill:#5e5e5e" /><ellipse
         class="fil1"
         cx="746.12201"
         cy="680.021"
         rx="52.956402"
         ry="52.956299"
         id="ellipse22"
         style="fill:#5e5e5e" /><ellipse
         class="fil1"
         cx="746.12201"
         cy="1066.99"
         rx="52.956402"
         ry="52.956299"
         id="ellipse24"
         style="fill:#5e5e5e" /><path
         class="fil0"
         d="m 1046.51,1276.28 c 0,13.2543 -10.7457,24 -24,24 -13.2543,0 -24,-10.7457 -24,-24 V 948.581 c 0,-13.2543 10.7457,-24 24,-24 13.2543,0 24,10.7457 24,24 z m 0,-466.572 c 0,13.2543 -10.7457,24 -24,24 -13.2543,0 -24,-10.7457 -24,-24 V 514.853 c 0,-13.2543 10.7457,-24 24,-24 13.2543,0 24,10.7457 24,24 z"
         id="path26"
         style="fill:#5e5e5e" /><path
         class="fil0"
         d="m 1024,791.769 c 22.5709,0 43.0052,9.15001 57.7949,23.941 14.791,14.791 23.941,35.2264 23.941,57.7961 0,22.5697 -9.15,43.0052 -23.9398,57.7949 -14.791,14.791 -35.2264,23.941 -57.7961,23.941 -22.5697,0 -43.0052,-9.15001 -57.7961,-23.941 -14.7898,-14.7898 -23.9398,-35.2252 -23.9398,-57.7949 0,-22.5697 9.15001,-43.0052 23.941,-57.7961 14.7898,-14.791 35.224,-23.941 57.7949,-23.941 z m 23.8571,57.8788 c -6.1028,-6.10276 -14.5382,-9.87875 -23.8571,-9.87875 -9.3189,0 -17.7543,3.77599 -23.8571,9.87875 -6.10276,6.10276 -9.87875,14.5394 -9.87875,23.8583 0,9.3189 3.77599,17.7555 9.87755,23.8571 6.1028,6.10276 14.5394,9.87875 23.8583,9.87875 9.3189,0 17.7555,-3.77599 23.8583,-9.87875 6.1016,-6.10158 9.8776,-14.5382 9.8776,-23.8571 0,-9.3189 -3.776,-17.7555 -9.8788,-23.8583 z"
         id="path28"
         style="fill:#5e5e5e" /><ellipse
         class="fil1"
         cx="1024"
         cy="680.021"
         rx="52.956402"
         ry="52.956299"
         id="ellipse30"
         style="fill:#5e5e5e" /><ellipse
         class="fil1"
         cx="1024"
         cy="1066.99"
         rx="52.956402"
         ry="52.956299"
         id="ellipse32"
         style="fill:#5e5e5e" /><path
         class="fil0"
         d="m 1324.38,1276.28 c 0,13.2543 -10.7457,24 -24,24 -13.2543,0 -24,-10.7457 -24,-24 V 948.581 c 0,-13.2543 10.7457,-24 24,-24 13.2543,0 24,10.7457 24,24 z m 0,-460.496 c 0,13.2543 -10.7457,24 -24,24 -13.2543,0 -24,-10.7457 -24,-24 V 514.852 c 0,-13.2543 10.7457,-24 24,-24 13.2543,0 24,10.7457 24,24 z"
         id="path34"
         style="fill:#5e5e5e" /><path
         class="fil0"
         d="m 1301.88,791.769 c 22.5709,0 43.0052,9.15001 57.7949,23.941 14.791,14.791 23.941,35.2264 23.941,57.7961 0,22.5697 -9.15,43.0052 -23.9398,57.7949 -14.791,14.791 -35.2264,23.941 -57.7961,23.941 -22.5697,0 -43.0052,-9.15001 -57.7949,-23.941 -14.791,-14.7898 -23.941,-35.2252 -23.941,-57.7949 0,-22.5697 9.15,-43.0052 23.941,-57.7961 14.7898,-14.791 35.2252,-23.941 57.7949,-23.941 z m 23.8571,57.8788 c -6.1028,-6.10276 -14.5382,-9.87875 -23.8571,-9.87875 -9.3189,0 -17.7543,3.77599 -23.8571,9.87875 -6.1028,6.10276 -9.8787,14.5394 -9.8787,23.8583 0,9.3189 3.7759,17.7543 9.8787,23.8571 6.1028,6.10276 14.5382,9.87875 23.8571,9.87875 9.3189,0 17.7555,-3.77599 23.8583,-9.87875 6.1016,-6.10158 9.8776,-14.5382 9.8776,-23.8571 0,-9.3189 -3.776,-17.7555 -9.8788,-23.8583 z"
         id="path36"
         style="fill:#5e5e5e" /><ellipse
         class="fil1"
         cx="1301.88"
         cy="680.021"
         rx="52.956402"
         ry="52.956299"
         id="ellipse38"
         style="fill:#5e5e5e" /><ellipse
         class="fil1"
         cx="1301.88"
         cy="1066.99"
         rx="52.956402"
         ry="52.956299"
         id="ellipse40"
         style="fill:#5e5e5e" /><path
         class="fil0"
         d="m 1602.26,1276.28 c 0,13.2543 -10.7457,24 -24,24 -13.2543,0 -24,-10.7457 -24,-24 V 948.581 c 0,-13.2543 10.7457,-24 24,-24 13.2543,0 24,10.7457 24,24 z m 0,-472.822 c 0,13.2543 -10.7457,24 -24,24 -13.2543,0 -24,-10.7457 -24,-24 V 514.852 c 0,-13.2543 10.7457,-24 24,-24 13.2543,0 24,10.7457 24,24 z"
         id="path42"
         style="fill:#5e5e5e" /><path
         class="fil0"
         d="m 1579.76,791.769 c 22.5709,0 43.0052,9.15001 57.7949,23.941 14.791,14.791 23.941,35.2264 23.941,57.7961 0,22.5697 -9.15,43.0052 -23.9398,57.7949 -14.791,14.791 -35.2264,23.941 -57.7961,23.941 -22.5697,0 -43.0052,-9.15001 -57.7949,-23.941 -14.791,-14.7898 -23.941,-35.2252 -23.941,-57.7949 0,-22.5697 9.15,-43.0052 23.941,-57.7961 14.7898,-14.791 35.2252,-23.941 57.7949,-23.941 z m 23.8571,57.8788 c -6.1028,-6.10276 -14.5382,-9.87875 -23.8571,-9.87875 -9.3189,0 -17.7543,3.77599 -23.8571,9.87875 -6.1028,6.10276 -9.8787,14.5394 -9.8787,23.8583 0,9.3189 3.7759,17.7543 9.8787,23.8571 6.1028,6.10276 14.5382,9.87875 23.8571,9.87875 9.3189,0 17.7555,-3.77599 23.8583,-9.87875 6.1016,-6.10158 9.8776,-14.5382 9.8776,-23.8571 0,-9.3189 -3.776,-17.7555 -9.8788,-23.8583 z"
         id="path44"
         style="fill:#5e5e5e" /><ellipse
         class="fil1"
         cx="1579.76"
         cy="680.021"
         rx="52.956402"
         ry="52.956299"
         id="ellipse46"
         style="fill:#5e5e5e" /><ellipse
         class="fil1"
         cx="1579.76"
         cy="1066.99"
         rx="52.956402"
         ry="52.956299"
         id="ellipse48"
         style="fill:#5e5e5e" /></g></g><rect
     class="fil2"
     width="2048"
     height="2048"
     id="rect54"
     x="-255.99899"
     y="-490.85199" /><text
     x="-255.99899"
     y="1572.1479"
     fill="#000000"
     font-size="5px"
     font-weight="bold"
     font-family="'Helvetica Neue', Helvetica, Arial-Unicode, Arial, Sans-serif"
     id="text56">Created by IYIKON</text><text
     x="-255.99899"
     y="1577.1479"
     fill="#000000"
     font-size="5px"
     font-weight="bold"
     font-family="'Helvetica Neue', Helvetica, Arial-Unicode, Arial, Sans-serif"
     id="text58">from the Noun Project</text></svg>
