<?xml version="1.0" encoding="UTF-8" standalone="no"?>
<svg
   version="1.1"
   x="0px"
   y="0px"
   viewBox="0 0 85 74.300003"
   xml:space="preserve"
   id="svg16"
   sodipodi:docname="bath_independent.svg"
   width="85"
   height="74.300003"
   inkscape:version="1.1.2 (0a00cf5339, 2022-02-04)"
   xmlns:inkscape="http://www.inkscape.org/namespaces/inkscape"
   xmlns:sodipodi="http://sodipodi.sourceforge.net/DTD/sodipodi-0.dtd"
   xmlns="http://www.w3.org/2000/svg"
   xmlns:svg="http://www.w3.org/2000/svg"><defs
     id="defs20" /><sodipodi:namedview
     id="namedview18"
     pagecolor="#ffffff"
     bordercolor="#666666"
     borderopacity="1.0"
     inkscape:pageshadow="2"
     inkscape:pageopacity="0.0"
     inkscape:pagecheckerboard="0"
     showgrid="false"
     fit-margin-top="0"
     fit-margin-left="0"
     fit-margin-right="0"
     fit-margin-bottom="0"
     inkscape:zoom="5.5345455"
     inkscape:cx="42.279895"
     inkscape:cy="51.85611"
     inkscape:window-width="1920"
     inkscape:window-height="1052"
     inkscape:window-x="3840"
     inkscape:window-y="0"
     inkscape:window-maximized="1"
     inkscape:current-layer="svg16" /><g
     id="g10"
     transform="translate(-12.6,-16.9)"
     style="fill:#494949"><g
       id="g8"
       style="fill:#494949"><path
         d="m 97,56.8 c -0.4,-0.4 -0.9,-0.7 -1.5,-0.7 h -73 V 25.8 c 0,-2.7 2.2,-4.9 4.9,-4.9 1.1,0 2.1,0.4 2.9,1 -2.8,1.2 -4.8,4.1 -4.8,7.3 0,1.1 0.9,2 2,2 h 12 c 1.1,0 2,-0.9 2,-2 0,-3.8 -2.7,-7 -6.3,-7.8 -1.6,-2.8 -4.5,-4.5 -7.7,-4.5 -4.9,0 -8.9,4 -8.9,8.9 v 30.4 h -4 c -0.6,0 -1.1,0.3 -1.5,0.7 -0.4,0.4 -0.5,1 -0.5,1.6 l 0.6,4.2 c 0.6,9.1 6.2,17.2 14.4,21.1 V 87 c 0,2.3 1.9,4.2 4.2,4.2 h 5.6 c 2.3,0 4.2,-1.9 4.2,-4.2 v -0.8 h 26 V 87 c 0,2.3 1.9,4.2 4.2,4.2 h 5.6 c 2.3,0 4.2,-1.9 4.2,-4.2 V 84.2 C 90.3,80.5 96.3,72.2 97,62.7 l 0.6,-4.2 c 0,-0.6 -0.2,-1.2 -0.6,-1.7 z M 37,27.2 h -7 c 0.7,-1.3 2.2,-2.1 3.7,-2 0,0 0,0 0,0 1.4,0 2.6,0.8 3.3,2 z M 37.5,87 c 0,0.1 -0.1,0.2 -0.2,0.2 h -5.6 c -0.1,0 -0.2,-0.1 -0.2,-0.2 v -1.7 c 0.1,0 0.2,0 0.3,0.1 0.3,0.1 0.6,0.2 0.9,0.2 0.1,0 0.3,0.1 0.4,0.1 0.4,0.1 0.7,0.1 1.1,0.2 0.1,0 0.2,0 0.3,0 0.5,0.1 0.9,0.1 1.4,0.2 0.1,0 0.2,0 0.4,0 0.3,0 0.7,0 1,0.1 0.1,0 0.1,0 0.2,0 V 87 Z m 40,0 c 0,0.1 -0.1,0.2 -0.2,0.2 h -5.6 c -0.1,0 -0.2,-0.1 -0.2,-0.2 v -0.8 h 0.3 c 0.6,0 1.3,0 1.9,-0.1 0.2,0 0.3,0 0.5,0 0.6,-0.1 1.2,-0.1 1.8,-0.2 0,0 0.1,0 0.1,0 0.5,-0.1 1,-0.2 1.5,-0.3 V 87 Z M 92.9,62.2 c 0,0.1 0,0.1 0,0.2 -0.5,8.5 -6,15.8 -14,18.6 -2.3,0.8 -4.7,1.2 -7.1,1.2 h -2.3 -30 -1.3 c -2.7,0 -5.4,-0.5 -8,-1.6 -7.5,-3 -12.6,-10.2 -13.1,-18.3 0,-0.1 0,-0.1 0,-0.2 l -0.3,-2 h 76.4 z"
         id="path2"
         style="fill:#494949" /><path
         d="m 76.2,36.9 h 1.1 V 38 c 0,1.1 0.9,2 2,2 1.1,0 2,-0.9 2,-2 v -1.1 h 1.1 c 1.1,0 2,-0.9 2,-2 0,-1.1 -0.9,-2 -2,-2 h -1.1 v -1.1 c 0,-1.1 -0.9,-2 -2,-2 -1.1,0 -2,0.9 -2,2 v 1.1 h -1.1 c -1.1,0 -2,0.9 -2,2 0,1.1 0.9,2 2,2 z"
         id="path4"
         style="fill:#494949" /><path
         d="m 39.8,45 c 0,1.1 0.9,2 2,2 h 1.1 v 1.1 c 0,1.1 0.9,2 2,2 1.1,0 2,-0.9 2,-2 V 47 H 48 c 1.1,0 2,-0.9 2,-2 0,-1.1 -0.9,-2 -2,-2 h -1.1 v -1.1 c 0,-1.1 -0.9,-2 -2,-2 -1.1,0 -2,0.9 -2,2 V 43 h -1.1 c -1.1,0 -2,0.9 -2,2 z"
         id="path6"
         style="fill:#494949" /></g></g></svg>
