<?xml version="1.0" encoding="UTF-8" standalone="no"?>
<svg
   viewBox="0 0 60 60.023956"
   x="0px"
   y="0px"
   version="1.1"
   id="svg330"
   sodipodi:docname="bath-transform.svg"
   width="60"
   height="60.023956"
   inkscape:version="1.2.2 (b0a8486541, 2022-12-01)"
   xmlns:inkscape="http://www.inkscape.org/namespaces/inkscape"
   xmlns:sodipodi="http://sodipodi.sourceforge.net/DTD/sodipodi-0.dtd"
   xmlns="http://www.w3.org/2000/svg"
   xmlns:svg="http://www.w3.org/2000/svg"
   xmlns:rdf="http://www.w3.org/1999/02/22-rdf-syntax-ns#"
   xmlns:cc="http://creativecommons.org/ns#"
   xmlns:dc="http://purl.org/dc/elements/1.1/">
  <defs
     id="defs334" />
  <sodipodi:namedview
     id="namedview332"
     pagecolor="#ffffff"
     bordercolor="#000000"
     borderopacity="0.25"
     inkscape:showpageshadow="2"
     inkscape:pageopacity="0.0"
     inkscape:pagecheckerboard="0"
     inkscape:deskcolor="#d1d1d1"
     showgrid="false"
     inkscape:zoom="11.56"
     inkscape:cx="30.017301"
     inkscape:cy="30.147059"
     inkscape:window-width="1920"
     inkscape:window-height="1044"
     inkscape:window-x="3840"
     inkscape:window-y="0"
     inkscape:window-maximized="1"
     inkscape:current-layer="svg330" />
  <title
     id="title302">Bathroom Objects - Outline - 005 - Bubble with shower</title>
  <g
     data-name="01-Toilet Front"
     id="g324"
     style="fill:#555555">
    <path
       d="m 3,36 v 0 c 0.27,7.28 3.39,15 8.06,17.29 A 4,4 0 1 0 17.43,54 H 42.56 A 4,4 0 0 0 42,56 4,4 0 1 0 48.92,53.29 C 53.59,51 56.71,43.28 57,36 v 0 a 3,3 0 0 0 0,-6 V 8 A 8,8 0 0 0 49,0 h -3 a 1,1 0 0 0 -1,1 v 5.1 a 5,5 0 0 0 -4,4.9 1,1 0 0 0 1,1 h 8 A 1,1 0 0 0 51,11 5,5 0 0 0 47,6.1 V 2 h 2 a 6,6 0 0 1 6,6 V 30 H 3 a 3,3 0 0 0 0,6 z M 48.83,10 h -5.66 a 3,3 0 0 1 5.66,0 z M 16,56 a 2,2 0 1 1 -2,-2 2,2 0 0 1 2,2 z m 32,0 a 2,2 0 1 1 -2,-2 2,2 0 0 1 2,2 z M 46,52 H 14 C 9.55,52 5.35,44.36 5,36 h 50 c -0.35,8.36 -4.55,16 -9,16 z M 3,32 h 54 a 1,1 0 0 1 0,2 H 3 a 1,1 0 0 1 0,-2 z"
       id="path304"
       style="fill:#555555" />
    <path
       d="m 46,17 a 1,1 0 0 0 1,-1 v -1 a 1,1 0 0 0 -2,0 v 1 a 1,1 0 0 0 1,1 z"
       id="path306"
       style="fill:#555555" />
    <path
       d="m 45,21 a 1,1 0 0 0 2,0 v -1 a 1,1 0 0 0 -2,0 z"
       id="path308"
       style="fill:#555555" />
    <path
       d="m 45,26 a 1,1 0 0 0 2,0 v -1 a 1,1 0 0 0 -2,0 z"
       id="path310"
       style="fill:#555555" />
    <path
       d="m 42,17 a 1,1 0 0 0 1,-1 v -1 a 1,1 0 0 0 -2,0 v 1 a 1,1 0 0 0 1,1 z"
       id="path312"
       style="fill:#555555" />
    <path
       d="m 42,22 a 1,1 0 0 0 1,-1 v -1 a 1,1 0 0 0 -2,0 v 1 a 1,1 0 0 0 1,1 z"
       id="path314"
       style="fill:#555555" />
    <path
       d="m 42,27 a 1,1 0 0 0 1,-1 v -1 a 1,1 0 0 0 -2,0 v 1 a 1,1 0 0 0 1,1 z"
       id="path316"
       style="fill:#555555" />
    <path
       d="m 50,17 a 1,1 0 0 0 1,-1 v -1 a 1,1 0 0 0 -2,0 v 1 a 1,1 0 0 0 1,1 z"
       id="path318"
       style="fill:#555555" />
    <path
       d="m 49,21 a 1,1 0 0 0 2,0 v -1 a 1,1 0 0 0 -2,0 z"
       id="path320"
       style="fill:#555555" />
    <path
       d="m 49,26 a 1,1 0 0 0 2,0 v -1 a 1,1 0 0 0 -2,0 z"
       id="path322"
       style="fill:#555555" />
  </g>
  <metadata
     id="metadata352">
    <rdf:RDF>
      <cc:Work
         rdf:about="">
        <dc:title>Bathroom Objects - Outline - 005 - Bubble with shower</dc:title>
      </cc:Work>
    </rdf:RDF>
  </metadata>
</svg>
