<?xml version="1.0" encoding="UTF-8" standalone="no"?>
<svg
   version="1.1"
   x="0px"
   y="0px"
   viewBox="0 0 48 44"
   xml:space="preserve"
   id="svg58"
   sodipodi:docname="bath-24v.svg"
   width="48"
   height="44"
   inkscape:version="1.1.2 (0a00cf5339, 2022-02-04)"
   xmlns:inkscape="http://www.inkscape.org/namespaces/inkscape"
   xmlns:sodipodi="http://sodipodi.sourceforge.net/DTD/sodipodi-0.dtd"
   xmlns="http://www.w3.org/2000/svg"
   xmlns:svg="http://www.w3.org/2000/svg"><defs
     id="defs62" /><sodipodi:namedview
     id="namedview60"
     pagecolor="#ffffff"
     bordercolor="#666666"
     borderopacity="1.0"
     inkscape:pageshadow="2"
     inkscape:pageopacity="0.0"
     inkscape:pagecheckerboard="0"
     showgrid="false"
     fit-margin-top="0"
     fit-margin-left="0"
     fit-margin-right="0"
     fit-margin-bottom="0"
     inkscape:zoom="11.707692"
     inkscape:cx="24.001314"
     inkscape:cy="28.485545"
     inkscape:window-width="1850"
     inkscape:window-height="1025"
     inkscape:window-x="1990"
     inkscape:window-y="27"
     inkscape:window-maximized="1"
     inkscape:current-layer="svg58" /><style
     type="text/css"
     id="style2">
	.st0{fill:none;stroke:#000000;stroke-width:2;stroke-linecap:round;stroke-miterlimit:10;}
	.st1{fill:none;stroke:#000000;stroke-width:2;stroke-linecap:round;stroke-linejoin:round;stroke-miterlimit:10;}
	.st2{fill:none;stroke:#000000;stroke-width:2;stroke-linecap:round;stroke-linejoin:round;stroke-miterlimit:6;}
	.st3{fill:none;stroke:#000000;stroke-width:2;stroke-miterlimit:10;}
	.st4{fill:none;stroke:#000000;stroke-width:2;stroke-linejoin:round;stroke-miterlimit:10;}
</style><g
     id="g52"
     transform="translate(-2,-4)"><g
       id="g6"><path
         d="M 43.194336,44.3125 H 8.8066406 C 5.0537109,44.3125 2,41.463867 2,37.962891 v -8.362305 c 0,-0.552734 0.4472656,-1 1,-1 h 46 c 0.552734,0 1,0.447266 1,1 v 8.362305 C 50,41.463867 46.947266,44.3125 43.194336,44.3125 Z M 4,30.600586 v 7.362305 C 4,40.361328 6.15625,42.3125 8.8066406,42.3125 H 43.194336 C 45.84375,42.3125 48,40.361328 48,37.962891 v -7.362305 z"
         id="path4" /></g><g
       id="g10"><path
         d="m 16.529297,48 h -5.411133 c -0.552734,0 -1,-0.447266 -1,-1 v -3.6875 c 0,-0.552734 0.447266,-1 1,-1 h 5.411133 c 0.552734,0 1,0.447266 1,1 V 47 c 0,0.552734 -0.447266,1 -1,1 z m -4.411133,-2 h 3.411133 v -1.6875 h -3.411133 z"
         id="path8" /></g><g
       id="g14"><path
         d="m 40.206055,48 h -5.41211 c -0.552734,0 -1,-0.447266 -1,-1 v -3.6875 c 0,-0.552734 0.447266,-1 1,-1 h 5.41211 c 0.552734,0 1,0.447266 1,1 V 47 c 0,0.552734 -0.447266,1 -1,1 z m -4.41211,-2 h 3.41211 v -1.6875 h -3.41211 z"
         id="path12" /></g><g
       id="g18"><path
         d="m 5.7060547,29.978516 c -0.5527344,0 -1,-0.447266 -1,-1 V 11.586914 C 4.7060547,7.4033203 8.3623047,4 12.855469,4 c 3.297851,0 5.706054,1.4433594 6.96582,4.1748047 0.231445,0.5019531 0.01172,1.0957031 -0.489258,1.3271484 C 18.828125,9.734375 18.236328,9.5136719 18.004883,9.0126953 17.070312,6.9853516 15.385742,6 12.855469,6 9.4648438,6 6.7060547,8.5058594 6.7060547,11.586914 v 17.391602 c 0,0.552734 -0.4472656,1 -1,1 z"
         id="path16" /></g><g
       id="g22"><path
         d="m 17.882812,16.265625 c -0.183593,0 -0.368164,-0.05078 -0.530273,-0.152344 -0.338867,-0.211914 -0.518555,-0.605469 -0.458008,-1 l 1.030274,-6.6718748 c 0.118164,-0.7480469 0.813476,-1.25 1.573242,-1.15625 l 7.24414,0.9511719 c 0.410157,0.053711 0.745118,0.3544922 0.841797,0.7558594 0.09766,0.4023438 -0.0625,0.8222656 -0.402343,1.0576175 l -8.729493,6.038086 c -0.170898,0.118164 -0.370117,0.177734 -0.569336,0.177734 z M 19.80957,9.34375 19.225586,13.121094 23.90918,9.881836 Z"
         id="path20" /></g><g
       id="g36"><g
         id="g26"><path
           d="m 21.53125,19.268555 c -0.288086,0 -0.573242,-0.123047 -0.770508,-0.361328 l -0.422851,-0.509766 c -0.35254,-0.425781 -0.293946,-1.055664 0.130859,-1.408203 0.424805,-0.355469 1.056641,-0.292969 1.408203,0.130859 l 0.422852,0.509766 c 0.352539,0.425781 0.293945,1.055664 -0.13086,1.408203 -0.186523,0.155273 -0.413086,0.230469 -0.637695,0.230469 z"
           id="path24" /></g><g
         id="g30"><path
           d="m 25.589844,18.022461 c -0.288086,0 -0.573242,-0.123047 -0.770508,-0.361328 l -0.422852,-0.509766 c -0.352539,-0.425781 -0.293945,-1.055664 0.13086,-1.408203 0.424804,-0.355469 1.05664,-0.293945 1.408203,0.130859 l 0.422851,0.509766 c 0.35254,0.425781 0.293946,1.055664 -0.130859,1.408203 -0.186523,0.155274 -0.413086,0.230469 -0.637695,0.230469 z"
           id="path28" /></g><g
         id="g34"><path
           d="m 28.295898,15.529297 c -0.288086,0 -0.573242,-0.123047 -0.770507,-0.361328 L 27.102539,14.658203 C 26.75,14.232422 26.808594,13.602539 27.233398,13.25 c 0.424805,-0.355469 1.055664,-0.292969 1.408203,0.130859 l 0.422852,0.509766 c 0.352539,0.425781 0.293945,1.055664 -0.130859,1.408203 -0.186524,0.155274 -0.413086,0.230469 -0.637696,0.230469 z"
           id="path32" /></g></g><g
       id="g50"><g
         id="g40"><path
           d="m 24.237305,24.254883 c -0.288086,0 -0.573243,-0.123047 -0.770508,-0.361328 l -0.422852,-0.509766 c -0.352539,-0.425781 -0.293945,-1.055664 0.13086,-1.408203 0.424804,-0.355469 1.05664,-0.293945 1.408203,0.130859 l 0.422851,0.509766 c 0.35254,0.425781 0.293946,1.055664 -0.130859,1.408203 -0.186523,0.155273 -0.413086,0.230469 -0.637695,0.230469 z"
           id="path38" /></g><g
         id="g44"><path
           d="m 28.295898,23.007812 c -0.287109,0 -0.572265,-0.123046 -0.770507,-0.360351 l -0.422852,-0.508789 c -0.352539,-0.424805 -0.293945,-1.055664 0.129883,-1.40918 0.426758,-0.352539 1.054687,-0.293945 1.409179,0.129883 l 0.422852,0.508789 c 0.352539,0.424805 0.293945,1.055664 -0.129883,1.40918 -0.1875,0.154297 -0.414062,0.230468 -0.638672,0.230468 z"
           id="path42" /></g><g
         id="g48"><path
           d="m 31.001953,20.515625 c -0.288086,0 -0.573242,-0.123047 -0.770508,-0.361328 l -0.422851,-0.509766 c -0.352539,-0.425781 -0.293946,-1.055664 0.130859,-1.408203 0.424805,-0.355469 1.055664,-0.293945 1.408203,0.13086 l 0.422852,0.509765 c 0.352539,0.425781 0.293945,1.055664 -0.13086,1.408203 -0.186523,0.155274 -0.413086,0.230469 -0.637695,0.230469 z"
           id="path46" /></g></g></g></svg>
