<?xml version="1.0" encoding="UTF-8" standalone="no"?>
<svg
   viewBox="0 0 60 60.023346"
   version="1.1"
   x="0px"
   y="0px"
   id="svg44"
   sodipodi:docname="bath_tub.svg"
   width="60"
   height="60.023346"
   inkscape:version="1.1.2 (0a00cf5339, 2022-02-04)"
   xmlns:inkscape="http://www.inkscape.org/namespaces/inkscape"
   xmlns:sodipodi="http://sodipodi.sourceforge.net/DTD/sodipodi-0.dtd"
   xmlns="http://www.w3.org/2000/svg"
   xmlns:svg="http://www.w3.org/2000/svg"
   xmlns:rdf="http://www.w3.org/1999/02/22-rdf-syntax-ns#"
   xmlns:cc="http://creativecommons.org/ns#"
   xmlns:dc="http://purl.org/dc/elements/1.1/">
  <defs
     id="defs48">
    <filter
       style="color-interpolation-filters:sRGB;"
       inkscape:label="Colorize"
       id="filter146"
       x="-0.022439328"
       y="-0.017233388"
       width="1.0448787"
       height="1.0344678">
      <feComposite
         in2="SourceGraphic"
         operator="arithmetic"
         k1="0"
         k2="1"
         result="composite1"
         id="feComposite132" />
      <feColorMatrix
         in="composite1"
         values="1"
         type="saturate"
         result="colormatrix1"
         id="feColorMatrix134" />
      <feFlood
         flood-opacity="1"
         flood-color="rgb(102,102,102)"
         result="flood1"
         id="feFlood136" />
      <feBlend
         in="flood1"
         in2="colormatrix1"
         mode="screen"
         result="blend1"
         id="feBlend138" />
      <feBlend
         in2="blend1"
         mode="multiply"
         result="blend2"
         id="feBlend140" />
      <feColorMatrix
         in="blend2"
         values="1"
         type="saturate"
         result="colormatrix2"
         id="feColorMatrix142" />
      <feComposite
         in="colormatrix2"
         in2="SourceGraphic"
         operator="in"
         k2="1"
         result="fbSourceGraphic"
         id="feComposite144" />
      <feColorMatrix
         result="fbSourceGraphicAlpha"
         in="fbSourceGraphic"
         values="0 0 0 -1 0 0 0 0 -1 0 0 0 0 -1 0 0 0 0 1 0"
         id="feColorMatrix166" />
      <feComposite
         in2="fbSourceGraphic"
         id="feComposite168"
         operator="arithmetic"
         k1="0"
         k2="1"
         result="composite1"
         in="fbSourceGraphic" />
      <feColorMatrix
         id="feColorMatrix170"
         in="composite1"
         values="1"
         type="saturate"
         result="colormatrix1" />
      <feFlood
         id="feFlood172"
         flood-opacity="1"
         flood-color="rgb(102,102,102)"
         result="flood1" />
      <feBlend
         in2="colormatrix1"
         id="feBlend174"
         in="flood1"
         mode="screen"
         result="blend1" />
      <feBlend
         in2="blend1"
         id="feBlend176"
         mode="multiply"
         result="blend2" />
      <feColorMatrix
         id="feColorMatrix178"
         in="blend2"
         values="1"
         type="saturate"
         result="colormatrix2" />
      <feComposite
         in2="fbSourceGraphic"
         id="feComposite180"
         in="colormatrix2"
         operator="in"
         k2="1"
         result="composite2" />
    </filter>
  </defs>
  <sodipodi:namedview
     id="namedview46"
     pagecolor="#ffffff"
     bordercolor="#666666"
     borderopacity="1.0"
     inkscape:pageshadow="2"
     inkscape:pageopacity="0.0"
     inkscape:pagecheckerboard="0"
     showgrid="false"
     fit-margin-top="0"
     fit-margin-left="0"
     fit-margin-right="0"
     fit-margin-bottom="0"
     inkscape:zoom="9.9803279"
     inkscape:cx="29.958936"
     inkscape:cy="37.123029"
     inkscape:window-width="1850"
     inkscape:window-height="1025"
     inkscape:window-x="1990"
     inkscape:window-y="27"
     inkscape:window-maximized="1"
     inkscape:current-layer="svg44" />
  <title
     id="title2">005 - Bath</title>
  <desc
     id="desc4">Created with Sketch.</desc>
  <g
     stroke="none"
     stroke-width="1"
     fill="none"
     fill-rule="evenodd"
     id="g38"
     transform="translate(0,-0.97665384)"
     style="filter:url(#filter146)">
    <g
       transform="translate(1,1)"
       stroke="#000000"
       stroke-width="2"
       id="g36">
      <path
         d="M 45.93774,54 H 12.06226 C 8.0276605,54.000019 4.6244315,50.995724 4.124,46.99228 L 2,36 H 56 L 53.876,46.99228 C 53.375568,50.995724 49.972339,54.000019 45.93774,54 Z"
         id="path6" />
      <rect
         x="0"
         y="31"
         width="58"
         height="5"
         rx="2.5"
         id="rect8" />
      <path
         d="m 13,54 h 6 v 3 c 0,1.104569 -0.895431,2 -2,2 h -2 c -1.104569,0 -2,-0.895431 -2,-2 z"
         id="path10" />
      <path
         d="m 39,54 h 6 v 3 c 0,1.104569 -0.895431,2 -2,2 h -2 c -1.104569,0 -2,-0.895431 -2,-2 z"
         id="path12" />
      <path
         d="M 9,31 V 8.02 C 9.0005042,6.817849 9.713659,5.7303781 10.816012,5.250811 11.918366,4.7712439 13.200146,4.9908396 14.08,5.81 l 1.85,1.72"
         id="path14" />
      <path
         d="M 5,31 V 7.03 C 5.0114206,5.1645051 5.882089,3.4084114 7.36,2.27 9.0164196,1.1438944 11.055457,0.7296024 13.02,1.12 c 1.081156,0.1663085 2.118148,0.5471055 3.05,1.12 0.958306,0.7316417 1.845559,1.551932 2.65,2.45 0.02745,0.029406 0.05758,0.056189 0.09,0.08"
         id="path16" />
      <path
         d="m 17.82178,15.17822 c -0.206476,0.207882 -0.493441,0.315226 -0.78566,0.29389 C 16.743901,15.45077 16.475572,15.302888 16.30148,15.06722 14.314531,12.282302 14.631144,8.469289 17.050205,6.050223 19.469266,3.6311571 23.282278,3.3145365 26.0672,5.30148 26.302868,5.4755718 26.450755,5.7439013 26.47209,6.0361203 26.49343,6.3283394 26.38608,6.6153038 26.1782,6.82178 Z"
         id="path18" />
      <path
         d="m 19.87868,18.77817 1.41421,1.41422"
         id="path20" />
      <path
         d="m 29.77817,8.87868 1.41422,1.41421"
         id="path22" />
      <path
         d="m 24.82843,13.82843 1.41421,1.41421"
         id="path24" />
      <path
         d="m 29.77817,13.12132 1.41422,1.41421"
         id="path26" />
      <path
         d="m 24.12132,18.77817 1.41421,1.41422"
         id="path28" />
      <path
         d="m 29.07107,18.07107 1.41421,1.41421"
         id="path30" />
      <path
         d="m 24.12132,23.02082 1.41421,1.41421"
         id="path32" />
      <path
         d="m 34.02082,13.12132 1.41421,1.41421"
         id="path34" />
    </g>
  </g>
  <text
     x="0"
     y="80.023346"
     fill="#000000"
     font-size="5px"
     font-weight="bold"
     font-family="'Helvetica Neue', Helvetica, Arial-Unicode, Arial, Sans-serif"
     id="text42">from the Noun Project</text>
  <metadata
     id="metadata50">
    <rdf:RDF>
      <cc:Work
         rdf:about="">
        <dc:title>005 - Bath</dc:title>
      </cc:Work>
    </rdf:RDF>
  </metadata>
</svg>
