<?xml version="1.0" encoding="UTF-8" standalone="no"?>
<svg
   version="1.1"
   x="0px"
   y="0px"
   viewBox="0 0 84.990059 33.419998"
   xml:space="preserve"
   id="svg22"
   sodipodi:docname="noun-distance-line_ok.svg"
   width="84.990059"
   height="33.419998"
   inkscape:version="1.1.2 (0a00cf5339, 2022-02-04)"
   xmlns:inkscape="http://www.inkscape.org/namespaces/inkscape"
   xmlns:sodipodi="http://sodipodi.sourceforge.net/DTD/sodipodi-0.dtd"
   xmlns="http://www.w3.org/2000/svg"
   xmlns:svg="http://www.w3.org/2000/svg"><defs
     id="defs26" /><sodipodi:namedview
     id="namedview24"
     pagecolor="#ffffff"
     bordercolor="#666666"
     borderopacity="1.0"
     inkscape:pageshadow="2"
     inkscape:pageopacity="0.0"
     inkscape:pagecheckerboard="0"
     showgrid="false"
     units="px"
     fit-margin-top="0"
     fit-margin-left="0"
     fit-margin-right="0"
     fit-margin-bottom="0"
     inkscape:zoom="6.088"
     inkscape:cx="70.466491"
     inkscape:cy="6.652431"
     inkscape:window-width="1850"
     inkscape:window-height="1025"
     inkscape:window-x="1990"
     inkscape:window-y="27"
     inkscape:window-maximized="1"
     inkscape:current-layer="svg22" /><path
     d="m 11.23,33.42 c 0.33,0 0.64,-0.17 0.82,-0.44 C 12.08,32.94 14.66,29 17.2,24.43 20.68,18.18 22.44,13.74 22.44,11.22 22.44,5.0399996 17.41,0 11.22,0 5.0299999,0 0,5.0299996 0,11.22 c 0,2.51 1.76,6.96 5.2399999,13.21 2.55,4.58 5.1300001,8.51 5.1500001,8.55 0.2,0.27 0.51,0.44 0.84,0.44 z M 5.2899999,11.22 c 0,-3.2800004 2.67,-5.9400004 5.9400001,-5.9400004 3.28,0 5.94,2.67 5.94,5.9400004 0,3.27 -2.67,5.94 -5.94,5.94 -3.2800001,0 -5.9400001,-2.67 -5.9400001,-5.94 z"
     id="path2"
     style="fill:#4d4d4d" /><path
     d="m -18.828123,45.967794 c -6.19,0 -11.22,5.029999 -11.22,11.22 0,2.51 1.76,6.96 5.24,13.21 2.55,4.58 5.13,8.51 5.15,8.55 0.18,0.28 0.49,0.44 0.82,0.44 0.33,0 0.64,-0.17 0.82,-0.44 0.03,-0.04 2.61,-3.98 5.15,-8.55 3.4800003,-6.25 5.2400003,-10.69 5.2400003,-13.21 0.02,-6.190001 -5.0100003,-11.22 -11.2000003,-11.22 z m 0,17.16 c -3.28,0 -5.94,-2.67 -5.94,-5.94 0,-3.270001 2.67,-5.940001 5.94,-5.940001 3.28,0 5.94,2.67 5.94,5.940001 0,3.27 -2.66,5.94 -5.94,5.94 z"
     id="path4"
     style="fill:#4d4d4d" /><g
     id="g423"
     transform="matrix(0.06935639,0,0,0.0646864,56.298372,0.31597099)"
     style="fill:#4d4d4d"><g
       id="g421"
       style="fill:#4d4d4d"><g
         id="g389"
         style="fill:#4d4d4d"><g
           id="g379"
           style="fill:#4d4d4d"><path
             d="M 342.113,313.549 H 171.174 c -40.384,0 -72.019,-31.622 -72.019,-71.994 V 70.72 C 99.155,31.725 131.462,0 171.174,0 h 170.939 c 39.001,0 70.731,31.725 70.731,70.72 v 170.835 c 0.001,39.697 -31.73,71.994 -70.731,71.994 z M 171.174,14.544 c -32.229,0 -57.475,24.675 -57.475,56.176 v 170.835 c 0,32.215 25.245,57.451 57.475,57.451 h 170.939 c 31.507,0 56.187,-25.236 56.187,-57.451 V 70.72 c 0,-30.976 -25.205,-56.176 -56.187,-56.176 H 171.174 Z"
             id="path377"
             style="fill:#4d4d4d" /></g><g
           id="g383"
           style="fill:#4d4d4d"><path
             d="m 256.618,481.866 c -4.017,0 -7.271,-3.255 -7.271,-7.272 V 306.277 c 0,-4.018 3.255,-7.271 7.271,-7.271 4.018,0 7.272,3.254 7.272,7.271 v 168.316 c 0.001,4.018 -3.254,7.273 -7.272,7.273 z"
             id="path381"
             style="fill:#4d4d4d" /></g><g
           id="g387"
           style="fill:#4d4d4d"><path
             d="m 256.633,512 c -41.428,0 -73.882,-17.645 -73.882,-40.168 0,-14.409 13.422,-27.294 35.903,-34.466 3.833,-1.222 7.918,0.892 9.14,4.718 1.219,3.827 -0.893,7.918 -4.718,9.14 -15.661,4.994 -25.78,13.083 -25.78,20.608 0,11.85 25.92,25.624 59.337,25.624 33.443,0 59.383,-13.774 59.383,-25.624 0,-7.118 -8.024,-14.113 -22.02,-19.188 -3.773,-1.371 -5.724,-5.542 -4.355,-9.317 1.37,-3.775 5.542,-5.722 9.317,-4.355 20.379,7.393 31.602,19.063 31.602,32.861 0,22.522 -32.473,40.167 -73.927,40.167 z"
             id="path385"
             style="fill:#4d4d4d" /></g></g><g
         id="g419"
         style="fill:#4d4d4d"><g
           id="g393"
           style="fill:#4d4d4d"><path
             d="m 351.565,187.957 c -1.25,0 -2.492,-0.471 -3.451,-1.425 l -78.928,-78.926 c -0.907,-0.914 -1.421,-2.149 -1.421,-3.444 0,-1.288 0.514,-2.525 1.421,-3.439 11.461,-11.457 26.701,-17.772 42.911,-17.772 16.206,0 31.442,6.315 42.905,17.772 11.461,11.464 17.772,26.697 17.772,42.904 0,16.211 -6.312,31.445 -17.772,42.905 -0.954,0.954 -2.196,1.425 -3.437,1.425 z m -71.885,-83.632 71.722,71.728 c 7.54,-9.108 11.641,-20.45 11.641,-32.426 0,-13.605 -5.303,-26.402 -14.928,-36.021 -9.611,-9.625 -22.41,-14.925 -36.017,-14.925 -11.976,0.001 -23.317,4.105 -32.418,11.644 z"
             id="path391"
             style="fill:#4d4d4d" /></g><g
           id="g397"
           style="fill:#4d4d4d"><path
             d="m 336.382,172.781 c -1.295,0 -2.532,-0.516 -3.437,-1.428 l -48.577,-48.571 c -1.898,-1.901 -1.898,-4.98 0,-6.879 14.708,-14.702 32.893,-23.484 48.65,-23.484 8.95,0 16.549,2.869 21.984,8.304 7.727,7.729 10.178,19.555 6.904,33.297 -3.072,12.905 -10.914,26.171 -22.086,37.334 -0.909,0.912 -2.145,1.427 -3.438,1.427 z m -41.59,-53.339 41.486,41.491 c 16.951,-19.024 22.471,-42.699 11.836,-53.327 -3.561,-3.569 -8.782,-5.456 -15.096,-5.456 -11.854,0 -26.164,6.536 -38.226,17.292 z"
             id="path395"
             style="fill:#4d4d4d" /></g><g
           id="g401"
           style="fill:#4d4d4d"><path
             d="m 321.2,157.601 c -1.246,0 -2.486,-0.476 -3.436,-1.425 l -18.22,-18.213 c -0.909,-0.914 -1.421,-2.149 -1.421,-3.438 0,-1.292 0.512,-2.532 1.421,-3.444 15.147,-15.145 37.056,-32.825 48.948,-32.825 3.342,0 5.381,1.34 6.51,2.467 4.379,4.382 2.928,12.238 -4.437,24.021 -5.918,9.474 -15.126,20.643 -25.921,31.432 -0.95,0.949 -2.192,1.425 -3.444,1.425 z m -11.295,-23.047 11.259,11.264 c 7.873,-8.2 14.755,-16.563 19.628,-23.876 4.983,-7.482 6.553,-11.899 6.882,-13.893 -5.461,0.821 -19.737,9.161 -37.769,26.505 z"
             id="path399"
             style="fill:#4d4d4d" /></g><g
           id="g405"
           style="fill:#4d4d4d"><path
             d="m 290.064,236.574 h -0.005 -136.242 c -1.965,0 -3.742,-1.187 -4.492,-3.004 -0.753,-1.818 -0.334,-3.913 1.058,-5.303 l 24.327,-24.322 c 0.914,-0.919 2.149,-1.435 3.439,-1.435 h 87.578 c 1.287,0 2.528,0.516 3.441,1.435 l 24.15,24.143 c 0.989,0.895 1.609,2.183 1.609,3.617 0.002,2.689 -2.174,4.869 -4.863,4.869 z M 165.563,226.848 H 278.31 l -14.597,-14.601 h -83.549 z"
             id="path403"
             style="fill:#4d4d4d" /></g><g
           id="g409"
           style="fill:#4d4d4d"><path
             d="m 248.345,212.247 c -1.244,0 -2.492,-0.474 -3.439,-1.428 -1.898,-1.901 -1.898,-4.98 0,-6.874 l 63.75,-63.758 c 1.901,-1.9 4.979,-1.9 6.882,0 1.898,1.901 1.898,4.98 0,6.884 l -63.755,63.748 c -0.945,0.954 -2.192,1.428 -3.438,1.428 z"
             id="path407"
             style="fill:#4d4d4d" /></g><g
           id="g413"
           style="fill:#4d4d4d"><path
             d="M 358.177,236.574 H 144.089 c -2.685,0 -4.865,-2.181 -4.865,-4.869 0,-2.685 2.181,-4.857 4.865,-4.857 h 214.088 c 2.685,0 4.865,2.173 4.865,4.857 0,2.689 -2.181,4.869 -4.865,4.869 z"
             id="path411"
             style="fill:#4d4d4d" /></g><g
           id="g417"
           style="fill:#4d4d4d"><path
             d="m 187.881,124.666 c -13.417,0 -24.329,-10.917 -24.329,-24.332 0,-13.414 10.912,-24.326 24.329,-24.326 13.413,0 24.33,10.912 24.33,24.326 0,13.415 -10.917,24.332 -24.33,24.332 z m 0,-38.928 c -8.053,0 -14.599,6.55 -14.599,14.596 0,8.051 6.546,14.597 14.599,14.597 8.044,0 14.597,-6.546 14.597,-14.597 0,-8.046 -6.553,-14.596 -14.597,-14.596 z"
             id="path415"
             style="fill:#4d4d4d" /></g></g></g></g><path
     d="m 20.95,33.42 c 0.85,0 1.53,-0.69 1.53,-1.53 0,-0.84 -0.69,-1.53 -1.53,-1.53 h -3.52 c -0.85,0 -1.53,0.69 -1.53,1.53 0,0.84 0.69,1.53 1.53,1.53 z"
     id="path6"
     style="fill:#4d4d4d" /><path
     d="m 30.28,30.35 h -3.52 c -0.85,0 -1.53,0.69 -1.53,1.53 0,0.84 0.69,1.53 1.53,1.53 h 3.52 c 0.85,0 1.53,-0.69 1.53,-1.53 0,-0.84 -0.69,-1.53 -1.53,-1.53 z"
     id="path8"
     style="fill:#4d4d4d" /><path
     d="m 39.61,30.35 h -3.52 c -0.85,0 -1.53,0.69 -1.53,1.53 0,0.84 0.69,1.53 1.53,1.53 h 3.52 c 0.85,0 1.53,-0.69 1.53,-1.53 0,-0.84 -0.69,-1.53 -1.53,-1.53 z"
     id="path10"
     style="fill:#4d4d4d" /><path
     d="m 43.88,31.89 c 0,0.85 0.69,1.53 1.53,1.53 h 3.52 c 0.85,0 1.53,-0.69 1.53,-1.53 0,-0.84 -0.69,-1.53 -1.53,-1.53 h -3.52 c -0.84,-0.01 -1.53,0.68 -1.53,1.53 z"
     id="path12"
     style="fill:#4d4d4d" /><path
     d="m 58.27,33.42 c 0.85,0 1.53,-0.69 1.53,-1.53 0,-0.84 -0.69,-1.53 -1.53,-1.53 h -3.52 c -0.85,0 -1.53,0.69 -1.53,1.53 0,0.84 0.69,1.53 1.53,1.53 z"
     id="path14"
     style="fill:#4d4d4d" /><path
     d="m 67.6,33.42 c 0.85,0 1.53,-0.69 1.53,-1.53 0,-0.84 -0.69,-1.53 -1.53,-1.53 h -3.52 c -0.85,0 -1.53,0.69 -1.53,1.53 0,0.84 0.69,1.53 1.53,1.53 z"
     id="path16"
     style="fill:#4d4d4d" /></svg>
