<?xml version="1.0" encoding="UTF-8" standalone="no"?>
<svg
   enable-background="new"
   version="1.1"
   viewBox="0 0 56.000687 55.999161"
   x="0px"
   y="0px"
   id="svg401"
   sodipodi:docname="beach-chair.svg"
   width="56.000687"
   height="55.999161"
   inkscape:version="1.2.2 (b0a8486541, 2022-12-01)"
   xmlns:inkscape="http://www.inkscape.org/namespaces/inkscape"
   xmlns:sodipodi="http://sodipodi.sourceforge.net/DTD/sodipodi-0.dtd"
   xmlns="http://www.w3.org/2000/svg"
   xmlns:svg="http://www.w3.org/2000/svg">
  <defs
     id="defs405" />
  <sodipodi:namedview
     id="namedview403"
     pagecolor="#ffffff"
     bordercolor="#000000"
     borderopacity="0.25"
     inkscape:showpageshadow="2"
     inkscape:pageopacity="0.0"
     inkscape:pagecheckerboard="0"
     inkscape:deskcolor="#d1d1d1"
     showgrid="false"
     inkscape:zoom="10.8375"
     inkscape:cx="28.096886"
     inkscape:cy="30.219146"
     inkscape:window-width="1920"
     inkscape:window-height="1044"
     inkscape:window-x="3840"
     inkscape:window-y="0"
     inkscape:window-maximized="1"
     inkscape:current-layer="svg401" />
  <path
     d="M 27.146868,5.9907029e-4 C 18.200668,0.09839107 9.9808683,5.6906991 6.7758683,14.314599 c -0.59204,1.5929 0.41358,3.3102 2.0039,3.7363 l 17.3869997,4.6582 -4.6035,17.289 h -1.5625 c -0.33878,0 -0.6666,-0.12133 -0.92383,-0.3418 l -12.4789997,-10.693 c -0.74514,-0.6387 -1.7004,-0.98388 -2.6816,-0.96484 -1.1395,0.02236 -2.2172,0.53128 -2.95900002,1.3965 -1.4308,1.6679 -1.2347,4.2102 0.43359002,5.6406 l 14.0019997,12 c 0.72504,0.62161 1.6485,0.96294 2.6035,0.96289 h 1.4375 l -1.7949,6.7422 c -0.14273,0.53399 0.17483,1.0825 0.70898,1.2246 0.53336,0.14148 1.0805,-0.1758 1.2227,-0.70898 l 1.9336,-7.2578 h 24.596 l 1.9336,7.2578 a 1,1 0 0 0 1.2246,0.70898 1,1 0 0 0 0.70898,-1.2246 l -1.7969,-6.7422 h 3.8301 c 2.1974,0 4,-1.8027 4,-4 0,-2.1973 -1.8026,-4 -4,-4 h -28.365 l 4.4648,-16.771 17.385,4.6582 c 1.5903,0.42613 3.3198,-0.55891 3.6035,-2.2344 1.8726,-11.059 -4.96,-21.9389999 -16.004,-24.89799993 -1.3805,-0.3699 -2.7655,-0.59887 -4.1406,-0.69727 -0.60161,-0.043048 -1.2005,-0.061207 -1.7969,-0.054688 z M 27.162498,1.9966991 c 0.54259,-0.00572 1.0873,0.011409 1.6348,0.050781 1.2514,0.089994 2.512,0.29976 3.7695,0.63672 10.06,2.6957 16.252,12.5749999 14.549,22.6329999 -0.08498,0.50185 -0.56974,0.78236 -1.1133,0.63672 l -36.7049997,-9.834 c -0.54354,-0.14564 -0.82382,-0.63226 -0.64648,-1.1094 C 11.566418,7.1667201 19.024018,2.0825201 27.163018,1.9965201 Z M 3.9554983,29.998699 c 0.49142,-0.0095 0.96881,0.16244 1.3418,0.48242 l 12.4789997,10.695 c 0.61936,0.53083 1.4089,0.82227 2.2246,0.82227 h 32 c 1.1167,0 2,0.88371 2,2 0,1.11629 -0.88333,2 -2,2 h -34.004 c -0.47799,2.3e-5 -0.9399,-0.17135 -1.3027,-0.48242 l -14.0019997,-12 c -0.84634,-0.72698 -0.94141,-1.9714 -0.21484,-2.8184 0.37145,-0.43323 0.90785,-0.68802 1.4785,-0.69922 z"
     color="#000000"
     color-rendering="auto"
     dominant-baseline="auto"
     enable-background="accumulate"
     image-rendering="auto"
     shape-rendering="auto"
     solid-color="#000000"
     stop-color="#000000"
     style="font-variant-ligatures:normal;font-variant-position:normal;font-variant-caps:normal;font-variant-numeric:normal;font-variant-alternates:normal;font-variant-east-asian:normal;font-feature-settings:normal;font-variation-settings:normal;text-indent:0;text-decoration-line:none;text-decoration-style:solid;text-decoration-color:#000000;text-transform:none;text-orientation:mixed;white-space:normal;shape-padding:0;shape-margin:0;inline-size:0;isolation:auto;mix-blend-mode:normal;fill:#6a6a6a"
     id="path395" />
</svg>
