<?xml version="1.0" encoding="UTF-8" standalone="no"?>
<svg
   viewBox="0 0 63.143002 54.830002"
   version="1.1"
   x="0px"
   y="0px"
   id="svg12"
   sodipodi:docname="bed-horizontal.svg"
   width="63.143002"
   height="54.830002"
   inkscape:version="1.1.2 (0a00cf5339, 2022-02-04)"
   xmlns:inkscape="http://www.inkscape.org/namespaces/inkscape"
   xmlns:sodipodi="http://sodipodi.sourceforge.net/DTD/sodipodi-0.dtd"
   xmlns="http://www.w3.org/2000/svg"
   xmlns:svg="http://www.w3.org/2000/svg"
   xmlns:rdf="http://www.w3.org/1999/02/22-rdf-syntax-ns#"
   xmlns:cc="http://creativecommons.org/ns#"
   xmlns:dc="http://purl.org/dc/elements/1.1/">
  <defs
     id="defs16" />
  <sodipodi:namedview
     id="namedview14"
     pagecolor="#ffffff"
     bordercolor="#666666"
     borderopacity="1.0"
     inkscape:pageshadow="2"
     inkscape:pageopacity="0.0"
     inkscape:pagecheckerboard="0"
     showgrid="false"
     fit-margin-top="0"
     fit-margin-left="0"
     fit-margin-right="0"
     fit-margin-bottom="0"
     inkscape:zoom="6.088"
     inkscape:cx="31.537451"
     inkscape:cy="39.996715"
     inkscape:window-width="1850"
     inkscape:window-height="1025"
     inkscape:window-x="1990"
     inkscape:window-y="27"
     inkscape:window-maximized="1"
     inkscape:current-layer="svg12" />
  <title
     id="title2">bed</title>
  <g
     stroke="none"
     stroke-width="1"
     fill="none"
     fill-rule="evenodd"
     id="g6"
     transform="translate(-18.4285,-22.5849)"
     style="fill:#414141">
    <path
       d="m 22.4285,59.4849 v -9.5 h 54.942 c 0.111,0 0.201,0.089 0.201,0.2 v 9.3 z m 13.031,-13.5 h -13.031 v -10.34 c 10.205,0.586 12.59,5.694 13.031,10.34 z m 41.911,0 h -37.907 c -0.568,-6.645 -4.251,-13.681 -17.035,-14.343 v -7.057 c 0,-1.104 -0.896,-2 -2,-2 -1.104,0 -2,0.896 -2,2 v 34.9 4 11.93 c 0,1.105 0.896,2 2,2 1.104,0 2,-0.895 2,-2 v -11.93 h 55.143 v 11.5 c 0,1.104 0.895,2 2,2 1.104,0 2,-0.896 2,-2 v -11.5 -4 -9.3 c 0,-2.316 -1.884,-4.2 -4.201,-4.2 z"
       fill="#000000"
       id="path4"
       style="fill:#414141" />
  </g>
  <metadata
     id="metadata18">
    <rdf:RDF>
      <cc:Work
         rdf:about="">
        <dc:title>bed</dc:title>
      </cc:Work>
    </rdf:RDF>
  </metadata>
</svg>
