<?xml version="1.0" encoding="UTF-8" standalone="no"?>
<svg
   version="1.1"
   x="0px"
   y="0px"
   viewBox="0 0 30 22"
   enable-background="new 0 0 32 32"
   xml:space="preserve"
   id="svg10"
   sodipodi:docname="bed-white.svg"
   width="30"
   height="22"
   inkscape:version="1.1.2 (0a00cf5339, 2022-02-04)"
   xmlns:inkscape="http://www.inkscape.org/namespaces/inkscape"
   xmlns:sodipodi="http://sodipodi.sourceforge.net/DTD/sodipodi-0.dtd"
   xmlns="http://www.w3.org/2000/svg"
   xmlns:svg="http://www.w3.org/2000/svg"><defs
     id="defs14"><filter
       style="color-interpolation-filters:sRGB;"
       inkscape:label="Colorize"
       id="filter190"
       x="0"
       y="0"
       width="1"
       height="1"><feComposite
         in2="SourceGraphic"
         operator="arithmetic"
         k1="0"
         k2="1"
         result="composite1"
         id="feComposite176" /><feColorMatrix
         in="composite1"
         values="1"
         type="saturate"
         result="colormatrix1"
         id="feColorMatrix178" /><feFlood
         flood-opacity="1"
         flood-color="rgb(255,255,255)"
         result="flood1"
         id="feFlood180" /><feBlend
         in="flood1"
         in2="colormatrix1"
         mode="screen"
         result="blend1"
         id="feBlend182" /><feBlend
         in2="blend1"
         mode="multiply"
         result="blend2"
         id="feBlend184" /><feColorMatrix
         in="blend2"
         values="1"
         type="saturate"
         result="colormatrix2"
         id="feColorMatrix186" /><feComposite
         in="colormatrix2"
         in2="SourceGraphic"
         operator="in"
         k2="1"
         result="composite2"
         id="feComposite188" /></filter></defs><sodipodi:namedview
     id="namedview12"
     pagecolor="#ffffff"
     bordercolor="#666666"
     borderopacity="1.0"
     inkscape:pageshadow="2"
     inkscape:pageopacity="0.0"
     inkscape:pagecheckerboard="0"
     showgrid="false"
     fit-margin-top="0"
     fit-margin-left="0"
     fit-margin-right="0"
     fit-margin-bottom="0"
     inkscape:zoom="19.025"
     inkscape:cx="14.980289"
     inkscape:cy="10.328515"
     inkscape:window-width="1850"
     inkscape:window-height="1025"
     inkscape:window-x="1990"
     inkscape:window-y="27"
     inkscape:window-maximized="1"
     inkscape:current-layer="svg10" /><g
     id="g4"
     transform="translate(-1,-5)"
     style="filter:url(#filter190)"><path
       d="M 28,15 H 27 V 8 C 27,6.3 25.7,5 24,5 H 8 C 6.3,5 5,6.3 5,8 v 7 H 4 c -1.7,0 -3,1.3 -3,3 v 8 c 0,0.6 0.4,1 1,1 h 28 c 0.6,0 1,-0.4 1,-1 v -8 c 0,-1.7 -1.3,-3 -3,-3 z m -5,-0.9 h -6 v -1 c 0,-0.6 0.4,-1 1,-1 h 4 c 0.6,0 1,0.4 1,1 z m -8,0 H 9 v -1 c 0,-0.6 0.4,-1 1,-1 h 4 c 0.6,0 1,0.4 1,1 z M 7,8 C 7,7.4 7.4,7 8,7 h 16 c 0.6,0 1,0.4 1,1 v 5.1 c 0,-1.7 -1.3,-3 -3,-3 h -4 c -0.8,0 -1.5,0.3 -2,0.8 -0.5,-0.5 -1.2,-0.8 -2,-0.8 h -4 c -1.7,0 -3,1.3 -3,3 z M 29,25 H 3 v -7 c 0,-0.6 0.4,-1 1,-1 h 2 20 2 c 0.6,0 1,0.4 1,1 z"
       id="path2" /></g></svg>
