<?xml version="1.0" encoding="UTF-8" standalone="no"?>
<svg
   version="1.1"
   x="0px"
   y="0px"
   viewBox="0 0 61.5 80"
   xml:space="preserve"
   id="svg28"
   sodipodi:docname="boxroom3.svg"
   width="61.5"
   height="80"
   inkscape:version="1.1.2 (0a00cf5339, 2022-02-04)"
   xmlns:inkscape="http://www.inkscape.org/namespaces/inkscape"
   xmlns:sodipodi="http://sodipodi.sourceforge.net/DTD/sodipodi-0.dtd"
   xmlns="http://www.w3.org/2000/svg"
   xmlns:svg="http://www.w3.org/2000/svg"><defs
     id="defs32" /><sodipodi:namedview
     id="namedview30"
     pagecolor="#ffffff"
     bordercolor="#666666"
     borderopacity="1.0"
     inkscape:pageshadow="2"
     inkscape:pageopacity="0.0"
     inkscape:pagecheckerboard="0"
     showgrid="false"
     fit-margin-top="0"
     fit-margin-left="0"
     fit-margin-right="0"
     fit-margin-bottom="0"
     inkscape:zoom="6.088"
     inkscape:cx="30.716163"
     inkscape:cy="52.480289"
     inkscape:window-width="1850"
     inkscape:window-height="1025"
     inkscape:window-x="1990"
     inkscape:window-y="27"
     inkscape:window-maximized="1"
     inkscape:current-layer="svg28" /><path
     d="M 50.7,14.1 H 40.6 c -0.4,0 -0.8,0.3 -0.8,0.8 0,0.4 0.3,0.8 0.8,0.8 h 10.1 c 0.4,0 0.8,-0.3 0.8,-0.8 0,-0.4 -0.4,-0.8 -0.8,-0.8 z"
     id="path2"
     style="fill:#5e5e5e" /><path
     d="M 50.7,18.9 H 40.6 c -0.4,0 -0.8,0.3 -0.8,0.8 0,0.5 0.3,0.8 0.8,0.8 h 10.1 c 0.4,0 0.8,-0.3 0.8,-0.8 0,-0.5 -0.4,-0.8 -0.8,-0.8 z"
     id="path4"
     style="fill:#5e5e5e" /><path
     d="M 50.7,23.8 H 40.6 c -0.4,0 -0.8,0.3 -0.8,0.8 0,0.4 0.3,0.8 0.8,0.8 h 10.1 c 0.4,0 0.8,-0.3 0.8,-0.8 0,-0.5 -0.4,-0.8 -0.8,-0.8 z"
     id="path6"
     style="fill:#5e5e5e" /><path
     d="m 40.6,37.2 c -1.6,0 -2.8,1.3 -2.8,2.8 0,1.3 0.9,2.4 2.1,2.7 v 4.4 c 0,0.4 0.3,0.8 0.8,0.8 0.5,0 0.8,-0.3 0.8,-0.8 v -4.4 c 1.2,-0.3 2.1,-1.4 2.1,-2.7 -0.1,-1.6 -1.4,-2.8 -3,-2.8 z m 0,4.1 c -0.7,0 -1.3,-0.6 -1.3,-1.3 0,-0.7 0.6,-1.3 1.3,-1.3 0.7,0 1.3,0.6 1.3,1.3 0,0.7 -0.6,1.3 -1.3,1.3 z"
     id="path8"
     style="fill:#5e5e5e" /><path
     d="M 35.3,70.7 H 56 c 0.4,0 0.8,-0.3 0.8,-0.8 v -9.1 c 1,-0.3 1.7,-1.3 1.7,-2.4 V 57 c 0,-1.1 -0.7,-2 -1.7,-2.4 V 25.3 c 1,-0.3 1.7,-1.3 1.7,-2.4 v -1.4 c 0,-1.1 -0.7,-2 -1.7,-2.4 V 10 C 56.8,9.6 56.5,9.2 56,9.2 H 35.3 c -0.4,0 -0.8,0.3 -0.8,0.8 v 60 c 0.1,0.4 0.4,0.7 0.8,0.7 z M 56.9,57 v 1.4 c 0,0.5 -0.4,0.9 -0.9,0.9 -0.5,0 -0.9,-0.4 -0.9,-0.9 V 57 c 0,-0.5 0.4,-0.9 0.9,-0.9 0.5,0 0.9,0.4 0.9,0.9 z M 56,20.6 c 0.5,0 0.9,0.4 0.9,0.9 V 23 c 0,0.5 -0.4,0.9 -0.9,0.9 -0.5,0 -0.9,-0.4 -0.9,-0.9 V 21.6 C 55,21 55.5,20.6 56,20.6 Z M 36.1,10.8 h 19.1 v 8.3 c -1,0.3 -1.7,1.3 -1.7,2.4 V 23 c 0,1.1 0.7,2 1.7,2.4 v 29.3 c -1,0.3 -1.7,1.3 -1.7,2.4 v 1.4 c 0,1.1 0.7,2 1.7,2.4 v 8.3 H 36.1 Z"
     id="path10"
     style="fill:#5e5e5e" /><path
     d="M 20.8,14.1 H 10.7 c -0.4,0 -0.8,0.3 -0.8,0.8 0,0.4 0.3,0.8 0.8,0.8 h 10.1 c 0.4,0 0.8,-0.3 0.8,-0.8 -0.1,-0.4 -0.4,-0.8 -0.8,-0.8 z"
     id="path12"
     style="fill:#5e5e5e" /><path
     d="M 20.8,18.9 H 10.7 c -0.4,0 -0.8,0.3 -0.8,0.8 0,0.5 0.3,0.8 0.8,0.8 h 10.1 c 0.4,0 0.8,-0.3 0.8,-0.8 0,-0.5 -0.4,-0.8 -0.8,-0.8 z"
     id="path14"
     style="fill:#5e5e5e" /><path
     d="M 20.8,23.8 H 10.7 c -0.4,0 -0.8,0.3 -0.8,0.8 0,0.4 0.3,0.8 0.8,0.8 h 10.1 c 0.4,0 0.8,-0.3 0.8,-0.8 -0.1,-0.5 -0.4,-0.8 -0.8,-0.8 z"
     id="path16"
     style="fill:#5e5e5e" /><path
     d="m 10.7,37.2 c -1.6,0 -2.8,1.3 -2.8,2.8 0,1.3 0.9,2.4 2.1,2.7 v 4.4 c 0,0.4 0.3,0.8 0.8,0.8 0.4,0 0.8,-0.3 0.8,-0.8 v -4.4 c 1.2,-0.3 2.1,-1.4 2.1,-2.7 -0.2,-1.6 -1.4,-2.8 -3,-2.8 z m 0,4.1 C 10,41.3 9.4,40.7 9.4,40 c 0,-0.7 0.6,-1.3 1.3,-1.3 0.7,0 1.3,0.6 1.3,1.3 0,0.7 -0.6,1.3 -1.3,1.3 z"
     id="path18"
     style="fill:#5e5e5e" /><path
     d="M 26.8,19.2 V 10 C 26.8,9.6 26.5,9.2 26,9.2 H 5.4 C 5,9.2 4.6,9.5 4.6,10 v 60 c 0,0.4 0.3,0.8 0.8,0.8 h 20.7 c 0.4,0 0.8,-0.3 0.8,-0.8 v -9.1 c 1,-0.3 1.7,-1.3 1.7,-2.4 V 57 c 0,-1.1 -0.7,-2 -1.7,-2.4 V 25.3 c 1,-0.3 1.7,-1.3 1.7,-2.4 v -1.4 c 0,-1.1 -0.8,-2 -1.8,-2.3 z m -1.5,50 H 6.2 V 10.8 h 19.1 v 8.3 c -1,0.3 -1.7,1.3 -1.7,2.4 V 23 c 0,1.1 0.7,2 1.7,2.4 v 29.3 c -1,0.3 -1.7,1.3 -1.7,2.4 v 1.4 c 0,1.1 0.7,2 1.7,2.4 z M 27,57 v 1.4 c 0,0.5 -0.4,0.9 -0.9,0.9 -0.5,0 -0.9,-0.4 -0.9,-0.9 V 57 c 0,-0.5 0.4,-0.9 0.9,-0.9 0.5,0 0.9,0.4 0.9,0.9 z m 0,-34 c 0,0.5 -0.4,0.9 -0.9,0.9 -0.5,0 -0.9,-0.4 -0.9,-0.9 v -1.4 c 0,-0.5 0.4,-0.9 0.9,-0.9 0.5,0 0.9,0.4 0.9,0.9 z"
     id="path20"
     style="fill:#5e5e5e" /><path
     d="M 0,79.2 C 0,79.6 0.3,80 0.8,80 h 59.9 c 0.4,0 0.8,-0.3 0.8,-0.8 V 74.6 5.4 0.8 C 61.5,0.4 61.2,0 60.7,0 H 0.8 C 0.4,0 0,0.3 0,0.8 v 4.6 c 0,0 0,0 0,0 v 69.2 c 0,0 0,0 0,0 z M 59.9,78.5 H 1.5 v -3.1 h 29.2 29.2 z m 0,-4.7 H 31.5 V 6.2 H 59.9 Z M 1.5,1.5 H 59.8 V 4.6 H 30.7 1.5 Z m 0,4.7 H 29.9 V 73.8 H 1.5 Z"
     id="path22"
     style="fill:#5e5e5e" /></svg>
