<?xml version="1.0" encoding="UTF-8" standalone="no"?>
<svg
   version="1.1"
   viewBox="-5 -10 90.004395 79.429604"
   id="svg8"
   sodipodi:docname="calendar-fill.svg"
   width="90.004395"
   height="79.429604"
   inkscape:version="1.1.2 (0a00cf5339, 2022-02-04)"
   xmlns:inkscape="http://www.inkscape.org/namespaces/inkscape"
   xmlns:sodipodi="http://sodipodi.sourceforge.net/DTD/sodipodi-0.dtd"
   xmlns="http://www.w3.org/2000/svg"
   xmlns:svg="http://www.w3.org/2000/svg">
  <defs
     id="defs12" />
  <sodipodi:namedview
     id="namedview10"
     pagecolor="#ffffff"
     bordercolor="#666666"
     borderopacity="1.0"
     inkscape:pageshadow="2"
     inkscape:pageopacity="0.0"
     inkscape:pagecheckerboard="0"
     showgrid="false"
     fit-margin-top="0"
     fit-margin-left="0"
     fit-margin-right="0"
     fit-margin-bottom="0"
     inkscape:zoom="5.637037"
     inkscape:cx="45.059133"
     inkscape:cy="47.27661"
     inkscape:window-width="1850"
     inkscape:window-height="1025"
     inkscape:window-x="1990"
     inkscape:window-y="27"
     inkscape:window-maximized="1"
     inkscape:current-layer="svg8" />
  <path
     d="m 85.000196,10.973 h -90 v 53.691 c 0,2.625 2.1406,4.7656 4.7656,4.7656 h 80.473 c 2.6172,0 4.7656,-2.1484 4.7656,-4.7656 z M 13.969196,-10 h -4.0156 v 9.2148 h 4.0156 z m 28.039,0 h -4.0156 v 9.2148 h 4.0156 z m 20.562,5.7852 v 3.668 c 0,1.7773 1.4492,3.2266 3.2266,3.2266 h 4.4844 c 0.89062,0 1.6953,-0.36328 2.2812,-0.94531 0,-0.03125 0.94531,-0.82812 0.94531,-2.2812 v -3.668 h 6.7266 c 1.3125,0 2.5039,0.53516 3.3672,1.3984 l -0.0039,0.0039 c 0.86328,0.86328 1.3984,2.0547 1.3984,3.3633 v 6.9648 l -89.996,-0.0039 v -6.9648 c 0,-2.6172 2.1484,-4.7656 4.7656,-4.7656 h 6.7305 v 3.668 c 0,1.7773 1.4492,3.2266 3.2266,3.2266 h 4.4844 c 0.89062,0 1.6953,-0.36328 2.2812,-0.94531 1.332,-1.3359 0.94531,-3.5703 0.94531,-5.9453 h 17.102 v 3.668 c 0,1.7773 1.4492,3.2266 3.2266,3.2266 h 4.4844 c 0.89062,0 1.6953,-0.36328 2.2812,-0.94531 0,-0.03125 0.94531,-0.82812 0.94531,-2.2812 v -3.668 l 17.098,-0.0039 z m 3.4609,-1.7539 v 5.1836 h 4.0156 v -9.2148 h -4.0156 z m -24.023,27.066 v 4.0156 h -4.0156 v -4.0156 z m -5.7461,-3.4609 h 7.4766 c 0.95703,0 1.7305,0.77344 1.7305,1.7305 v 7.4766 c 0,0.95703 -0.77344,1.7305 -1.7305,1.7305 h -7.4766 c -0.95312,0 -1.7305,-0.77344 -1.7305,-1.7305 v -7.4766 c 0,-0.95703 0.77344,-1.7305 1.7305,-1.7305 z m 21.523,3.4609 v 4.0156 h -4.0156 v -4.0156 z m -5.7461,-3.4609 h 7.4766 c 0.95703,0 1.7305,0.77344 1.7305,1.7305 v 7.4766 c 0,0.95703 -0.77344,1.7305 -1.7305,1.7305 h -7.4766 c -0.95312,0 -1.7305,-0.77344 -1.7305,-1.7305 v -7.4766 c 0,-0.95703 0.77344,-1.7305 1.7305,-1.7305 z m 21.523,3.4609 v 4.0156 h -4.0156 v -4.0156 z m -5.7461,-3.4609 h 7.4766 c 0.95312,0 1.7305,0.77344 1.7305,1.7305 v 7.4766 c 0,0.95703 -0.77344,1.7305 -1.7305,1.7305 h -7.4766 c -0.95703,0 -1.7305,-0.77344 -1.7305,-1.7305 v -7.4766 c 0,-0.95703 0.77344,-1.7305 1.7305,-1.7305 z m -57.363,18.531 v 4.0156 h -4.0156 v -4.0156 z m -5.7422,-3.4609 h 7.4766 c 0.95312,0 1.7305,0.77344 1.7305,1.7305 v 7.4766 c 0,0.95703 -0.77344,1.7305 -1.7305,1.7305 h -7.4766 c -0.95703,0 -1.7305,-0.77344 -1.7305,-1.7305 V 34.437 c -0.0039,-0.95312 0.77344,-1.7305 1.7305,-1.7305 z m 21.52,3.4609 v 4.0156 h -4.0156 v -4.0156 z m -5.7461,-3.4609 h 7.4766 c 0.95703,0 1.7305,0.77344 1.7305,1.7305 v 7.4766 c 0,0.95703 -0.77344,1.7305 -1.7305,1.7305 h -7.4766 c -0.95312,0 -1.7305,-0.77344 -1.7305,-1.7305 V 34.437 c 0,-0.95312 0.77344,-1.7305 1.7305,-1.7305 z m 21.523,3.4609 v 4.0156 h -4.0156 v -4.0156 z m -5.7461,-3.4609 h 7.4766 c 0.95703,0 1.7305,0.77344 1.7305,1.7305 v 7.4766 c 0,0.95703 -0.77344,1.7305 -1.7305,1.7305 h -7.4766 c -0.95312,0 -1.7305,-0.77344 -1.7305,-1.7305 V 34.437 c 0,-0.95312 0.77344,-1.7305 1.7305,-1.7305 z m 21.523,3.4609 v 4.0156 h -4.0156 v -4.0156 z m -5.7461,-3.4609 h 7.4766 c 0.95703,0 1.7305,0.77344 1.7305,1.7305 v 7.4766 c 0,0.95703 -0.77344,1.7305 -1.7305,1.7305 h -7.4766 c -0.95312,0 -1.7305,-0.77344 -1.7305,-1.7305 V 34.437 c 0,-0.95312 0.77344,-1.7305 1.7305,-1.7305 z m 21.523,3.4609 v 4.0156 h -4.0156 v -4.0156 z m -5.7461,-3.4609 h 7.4766 c 0.95312,0 1.7305,0.77344 1.7305,1.7305 v 7.4766 c 0,0.95703 -0.77344,1.7305 -1.7305,1.7305 h -7.4766 c -0.95703,0 -1.7305,-0.77344 -1.7305,-1.7305 V 34.437 c 0,-0.95312 0.77344,-1.7305 1.7305,-1.7305 z m -57.363,18.535 v 4.0156 h -4.0156 v -4.0156 z m -5.7422,-3.4609 h 7.4766 c 0.95312,0 1.7305,0.77344 1.7305,1.7305 v 7.4766 c 0,0.95703 -0.77344,1.7305 -1.7305,1.7305 h -7.4766 c -0.95703,0 -1.7305,-0.77344 -1.7305,-1.7305 v -7.4766 c -0.0039,-0.95703 0.77344,-1.7305 1.7305,-1.7305 z m 21.52,3.4609 v 4.0156 h -4.0156 v -4.0156 z m -5.7461,-3.4609 h 7.4766 c 0.95703,0 1.7305,0.77344 1.7305,1.7305 v 7.4766 c 0,0.95703 -0.77344,1.7305 -1.7305,1.7305 h -7.4766 c -0.95312,0 -1.7305,-0.77344 -1.7305,-1.7305 v -7.4766 c 0,-0.95703 0.77344,-1.7305 1.7305,-1.7305 z m 21.523,3.4609 v 4.0156 h -4.0156 v -4.0156 z m -5.7461,-3.4609 h 7.4766 c 0.95703,0 1.7305,0.77344 1.7305,1.7305 v 7.4766 c 0,0.95703 -0.77344,1.7305 -1.7305,1.7305 h -7.4766 c -0.95312,0 -1.7305,-0.77344 -1.7305,-1.7305 v -7.4766 c 0,-0.95703 0.77344,-1.7305 1.7305,-1.7305 z m 21.523,3.4609 v 4.0156 h -4.0156 v -4.0156 z m -5.7461,-3.4609 h 7.4766 c 0.95703,0 1.7305,0.77344 1.7305,1.7305 v 7.4766 c 0,0.95703 -0.77344,1.7305 -1.7305,1.7305 h -7.4766 c -0.95312,0 -1.7305,-0.77344 -1.7305,-1.7305 v -7.4766 c 0,-0.95703 0.77344,-1.7305 1.7305,-1.7305 z m 21.523,3.4609 v 4.0156 h -4.0156 v -4.0156 z m -5.7461,-3.4609 h 7.4766 c 0.95312,0 1.7305,0.77344 1.7305,1.7305 v 7.4766 c 0,0.95703 -0.77344,1.7305 -1.7305,1.7305 h -7.4766 c -0.95703,0 -1.7305,-0.77344 -1.7305,-1.7305 v -7.4766 c 0,-0.95703 0.77344,-1.7305 1.7305,-1.7305 z"
     fill-rule="evenodd"
     id="path2"
     style="fill:#b9b9b9" />
</svg>
