<?xml version="1.0" encoding="UTF-8" standalone="no"?>
<svg
   data-name="Layer 1"
   viewBox="0 0 96.400177 72.900009"
   x="0px"
   y="0px"
   version="1.1"
   id="svg18"
   sodipodi:docname="car-tabs.svg"
   width="96.400177"
   height="72.900009"
   inkscape:version="1.1.2 (0a00cf5339, 2022-02-04)"
   xmlns:inkscape="http://www.inkscape.org/namespaces/inkscape"
   xmlns:sodipodi="http://sodipodi.sourceforge.net/DTD/sodipodi-0.dtd"
   xmlns="http://www.w3.org/2000/svg"
   xmlns:svg="http://www.w3.org/2000/svg"
   xmlns:rdf="http://www.w3.org/1999/02/22-rdf-syntax-ns#"
   xmlns:cc="http://creativecommons.org/ns#"
   xmlns:dc="http://purl.org/dc/elements/1.1/">
  <defs
     id="defs22" />
  <sodipodi:namedview
     id="namedview20"
     pagecolor="#ffffff"
     bordercolor="#666666"
     borderopacity="1.0"
     inkscape:pageshadow="2"
     inkscape:pageopacity="0.0"
     inkscape:pagecheckerboard="0"
     showgrid="false"
     fit-margin-top="0"
     fit-margin-left="0"
     fit-margin-right="0"
     fit-margin-bottom="0"
     inkscape:zoom="6.088"
     inkscape:cx="36.136662"
     inkscape:cy="49.03088"
     inkscape:window-width="1850"
     inkscape:window-height="1025"
     inkscape:window-x="1990"
     inkscape:window-y="27"
     inkscape:window-maximized="1"
     inkscape:current-layer="svg18" />
  <title
     id="title2">a</title>
  <g
     data-name="Group"
     id="g12"
     transform="translate(-1.7999637,-13.499988)"
     style="fill:#444444">
    <path
       data-name="Compound Path"
       d="m 16.2,54.9 a 8.7,8.7 0 1 0 8.7,-8.7 8.7,8.7 0 0 0 -8.7,8.7 z m 11.3,0 a 2.7,2.7 0 1 1 -2.7,-2.7 2.7,2.7 0 0 1 2.7,2.7 z"
       id="path4"
       style="fill:#444444" />
    <path
       data-name="Compound Path"
       d="m 75.2,63.6 a 8.7,8.7 0 1 0 -8.7,-8.7 8.7,8.7 0 0 0 8.7,8.7 z m 0,-11.3 a 2.7,2.7 0 1 1 -2.7,2.7 2.7,2.7 0 0 1 2.7,-2.7 z"
       id="path6"
       style="fill:#444444" />
    <path
       data-name="Path"
       d="m 41.2,57.9 h 17.6 a 3,3 0 0 0 0,-6 H 41.2 a 3,3 0 1 0 0,6 z"
       id="path8"
       style="fill:#444444" />
    <path
       data-name="Compound Path"
       d="M 92.2,30.4 H 83.1 L 78,18.9 a 9,9 0 0 0 -8.2,-5.4 h -40 a 9,9 0 0 0 -8.5,6 L 17.5,30.4 H 7.8 a 6,6 0 0 0 -6,6 v 2.9 a 6,6 0 0 0 5.5,6 11,11 0 0 0 -1.1,4.7 v 31.4 a 5,5 0 0 0 5,5 H 22 a 5,5 0 0 0 5,-5 v -8.5 h 46 v 8.5 a 5,5 0 0 0 5,5 h 10.8 a 5,5 0 0 0 5,-5 V 49.6 a 11,11 0 0 0 -0.9,-4.3 6,6 0 0 0 5.3,-6 v -2.9 a 6,6 0 0 0 -6,-6 z m 0,6 v 2.9 h -4.5 l -1.1,-1 -0.9,-2 z M 27,21.6 a 3,3 0 0 1 2.8,-2 h 40 a 3,3 0 0 1 2.7,1.8 l 6.7,15.2 H 21.6 Z m 55.4,21 3.7,3.2 a 5,5 0 0 1 1.7,3.8 V 66.9 H 12.2 V 50 a 5,5 0 0 1 2,-4 l 4.6,-3.3 z M 7.8,36.4 h 7.6 l -0.6,1.8 -1.6,1.2 H 7.8 Z M 21,80.4 H 12.2 V 72.9 H 21 Z m 58,0 v -7.5 h 8.8 v 7.5 z"
       id="path10"
       style="fill:#444444" />
  </g>
  <metadata
     id="metadata24">
    <rdf:RDF>
      <cc:Work
         rdf:about="">
        <dc:title>a</dc:title>
      </cc:Work>
    </rdf:RDF>
  </metadata>
</svg>
