<?xml version="1.0" encoding="UTF-8" standalone="no"?>
<svg
   xml:space="preserve"
   version="1.1"
   style="image-rendering:optimizeQuality;shape-rendering:geometricPrecision;text-rendering:geometricPrecision"
   viewBox="0 0 774.02423 572.11706"
   x="0px"
   y="0px"
   fill-rule="evenodd"
   clip-rule="evenodd"
   id="svg14"
   sodipodi:docname="car-parking.svg"
   width="774.02423"
   height="572.11707"
   inkscape:version="1.1.2 (0a00cf5339, 2022-02-04)"
   xmlns:inkscape="http://www.inkscape.org/namespaces/inkscape"
   xmlns:sodipodi="http://sodipodi.sourceforge.net/DTD/sodipodi-0.dtd"
   xmlns="http://www.w3.org/2000/svg"
   xmlns:svg="http://www.w3.org/2000/svg"><sodipodi:namedview
     id="namedview16"
     pagecolor="#ffffff"
     bordercolor="#666666"
     borderopacity="1.0"
     inkscape:pageshadow="2"
     inkscape:pageopacity="0.0"
     inkscape:pagecheckerboard="0"
     showgrid="false"
     fit-margin-top="0"
     fit-margin-left="0"
     fit-margin-right="0"
     fit-margin-bottom="0"
     inkscape:zoom="1.0605163"
     inkscape:cx="417.72106"
     inkscape:cy="358.31604"
     inkscape:window-width="1920"
     inkscape:window-height="1052"
     inkscape:window-x="0"
     inkscape:window-y="0"
     inkscape:window-maximized="1"
     inkscape:current-layer="svg14" /><defs
     id="defs4"><style
       type="text/css"
       id="style2">
   
    .fil0 {fill:black}
   
  </style></defs><g
     id="g8"
     transform="translate(0,0.005)"
     style="fill:#616161"><path
       id="path6"
       class="fil0"
       transform="translate(0,-0.005)"
       d="m 251.78906,0 c -2.64625,0 -5.29453,0.4645318 -7.51953,1.3945312 L 11.300781,99.275391 C 4.5007835,101.88539 0,108.41484 0,115.71484 v 412.01954 c 0,9.72 7.8698416,17.58984 17.589844,17.58984 9.71,0 17.580078,-7.86985 17.580078,-17.58984 V 127.38477 L 251.78906,36.375 468.40039,127.38477 v 48.68945 h 35.16992 v -60.35938 c 0,-7.3 -4.50078,-13.82945 -11.30078,-16.439449 L 259.30078,1.3945312 C 257.08078,0.4645318 254.43531,0 251.78906,0 Z"
       style="fill:#616161" /></g><g
     id="g20"
     transform="matrix(0.7554336,0,0,0.80284843,29.542855,-21.57099)"
     style="fill:#616161"><g
       id="g6"
       style="fill:#616161"><g
         id="g4"
         style="fill:#616161"><path
           d="m 925.5,562.3 c 0,7.9 0,15.8 0,23.7 0,8.2 0.7,16.7 -0.3,24.8 0.4,-2.7 0.7,-5.3 1.1,-8 -0.4,2.7 -1.1,5.2 -2.2,7.7 1,-2.4 2,-4.8 3,-7.2 -0.7,1.6 -1.6,3.1 -2.5,4.6 -2.6,4.4 5.4,-6 1,-1.6 -4.4,4.4 6,-3.6 1.6,-1 -1.5,0.9 -3,1.8 -4.6,2.5 2.4,-1 4.8,-2 7.2,-3 -2.5,1 -5,1.7 -7.7,2.2 2.7,-0.4 5.3,-0.7 8,-1.1 -4.8,0.6 -9.7,0.3 -14.5,0.3 -9,0 -18.1,0 -27.1,0 -13.5,0 -27,0 -40.5,0 10,10 20,20 30,30 0.3,-20.7 -5.7,-42.6 -17.6,-59.7 -13.4,-19.1 -30.9,-32.6 -52.7,-40.9 -39,-14.9 -87.8,-1.6 -114.2,30.6 -16.3,19.9 -25.8,43.9 -25.5,69.9 10,-10 20,-20 30,-30 -12.3,0 -24.6,0 -36.9,0 -29.6,0 -59.1,0 -88.7,0 -35.8,0 -71.6,0 -107.4,0 -31.1,0 -62.2,0 -93.3,0 -15,0 -30.1,-0.5 -45.1,0 -0.2,0 -0.4,0 -0.6,0 10,10 20,20 30,30 0.3,-20.7 -5.7,-42.6 -17.6,-59.7 -13.4,-19.1 -30.9,-32.6 -52.7,-40.9 -39,-14.9 -87.8,-1.6 -114.2,30.6 C 155.2,586 145.7,610 146,636 c 10,-10 20,-20 30,-30 -13.5,0 -27,0 -40.5,0 -8.9,0 -17.9,0 -26.8,0 -4.9,0 -10,0.3 -14.9,-0.3 2.7,0.4 5.3,0.7 8,1.1 -2.7,-0.4 -5.2,-1.1 -7.7,-2.2 2.4,1 4.8,2 7.2,3 -1.6,-0.7 -3.1,-1.6 -4.6,-2.5 -4.4,-2.6 6,5.4 1.6,1 -4.4,-4.4 3.6,6 1,1.6 -0.9,-1.5 -1.8,-3 -2.5,-4.6 1,2.4 2,4.8 3,7.2 -1,-2.5 -1.7,-5 -2.2,-7.7 0.4,2.7 0.7,5.3 1.1,8 -0.6,-5.2 -0.3,-10.5 -0.3,-15.7 0,-10 0,-19.9 0,-29.9 0,-22.8 0,-45.7 0,-68.5 0,-6.6 -0.3,-13.4 0.5,-20 -0.4,2.7 -0.7,5.3 -1.1,8 0.7,-4.4 1.8,-8.6 3.6,-12.7 -1,2.4 -2,4.8 -3,7.2 1.3,-2.8 2.8,-5.3 4.4,-8 2.6,-4.4 -5,5.7 -1.6,2 1,-1.1 2,-2.3 3,-3.3 0.3,-0.3 3.2,-3.1 3.3,-3 0.1,0.1 -7.3,5.2 -1.9,1.6 2.5,-1.7 5.2,-3.1 8,-4.3 -2.4,1 -4.8,2 -7.2,3 4.1,-1.7 8.3,-2.9 12.8,-3.5 -2.7,0.4 -5.3,0.7 -8,1.1 6.7,-0.8 13.6,-0.5 20.4,-0.5 9.1,0 18.2,0 27.4,0 1.8,0 3.7,0.1 5.5,0 8.6,-0.4 16,-3.8 22.1,-9.7 3.1,-3 6.1,-6.1 9.2,-9.2 25.1,-25.1 50.2,-50.1 75.3,-75.2 4.3,-4.3 8.6,-8.6 13,-12.9 0.7,-0.7 1.5,-1.5 2.2,-2.2 0.8,-0.8 1.5,-1.5 2.3,-2.2 0.4,-0.3 2.2,-2.1 2.4,-2.1 -0.2,0 -5.9,4.3 -2.3,1.8 3.9,-2.7 8,-5 12.3,-6.9 -2.4,1 -4.8,2 -7.2,3 5.4,-2.2 10.9,-3.8 16.6,-4.7 -2.7,0.4 -5.3,0.7 -8,1.1 9.7,-1.3 19.7,-0.7 29.5,-0.7 18.1,0 36.3,0 54.4,0 41.4,0 82.8,0 124.2,0 11.6,0 23.7,-0.8 35.2,0.7 -2.7,-0.4 -5.3,-0.7 -8,-1.1 5.8,0.9 11.3,2.4 16.6,4.7 -2.4,-1 -4.8,-2 -7.2,-3 3.1,1.4 6.2,2.9 9.1,4.7 1.5,0.9 3.3,1.9 4.6,3.1 0.3,0.3 -5.3,-4.5 -3,-2.2 0.8,0.7 1.6,1.4 2.4,2.1 0.9,0.8 1.7,1.7 2.6,2.5 2.3,2.3 4.6,4.6 6.9,6.9 9.9,9.9 19.7,19.7 29.6,29.6 23.2,23.2 46.4,46.4 69.6,69.6 7.1,7.1 15.1,17.2 25.2,19.6 6.7,1.6 13.8,2 20.6,3 32.7,4.8 65.5,9.6 98.2,14.4 21.1,3.1 42.2,5.9 63.3,9.3 6.8,1.1 13.3,3 19.7,5.6 -2.4,-1 -4.8,-2 -7.2,-3 4.6,2 9.1,4.3 13.3,7 0.8,0.5 1.7,1.1 2.5,1.7 0.7,0.5 4.9,3.7 0.6,0.4 -4.2,-3.2 -0.5,-0.3 0.5,0.5 0.9,0.8 1.9,1.7 2.8,2.6 1.6,1.6 3.2,3.2 4.7,4.9 0.8,1 1.6,1.9 2.5,2.9 2.2,2.6 -4.2,-6.2 -1.3,-1.6 3.2,5.1 6.2,10 8.6,15.5 -1,-2.4 -2,-4.8 -3,-7.2 3,7.2 4.9,14.5 6,22.2 -0.4,-2.7 -0.7,-5.3 -1.1,-8 0.4,3.6 0.7,7.1 0.7,10.7 0.2,15.7 13.7,30.7 30,30 16.1,-0.7 30.2,-13.2 30,-30 -0.5,-49.8 -32.8,-93.4 -79.9,-108.9 -11.4,-3.7 -23.9,-4.7 -35.7,-6.5 -41.5,-6.1 -83,-12.1 -124.5,-18.2 -11.8,-1.7 -23.5,-3.4 -35.3,-5.2 4.4,2.6 8.8,5.1 13.2,7.7 -29.8,-29.8 -59.7,-59.7 -89.5,-89.5 -11.2,-11.2 -21.9,-23.5 -34.1,-33.6 -18.3,-15.2 -40.1,-23.9 -64.1,-24 -4.8,0 -9.5,0 -14.3,0 -50.2,0 -100.4,0 -150.7,0 -18.2,0 -36.4,0 -54.7,0 -11.4,0 -23,1 -33.8,4.8 -16,5.6 -29.5,14.6 -41.4,26.5 -31.6,31.6 -63.3,63.2 -94.9,94.8 -0.9,0.9 -1.8,1.8 -2.7,2.7 7.1,-2.9 14.1,-5.9 21.2,-8.8 -11.5,0 -23.1,0 -34.6,0 -19.1,0 -38,1.4 -54.5,12.4 -22.8,15.2 -36.6,39.7 -36.9,67.3 -0.1,7.8 0,15.6 0,23.4 0,28.4 0,56.9 0,85.3 0,10 -0.6,20.4 2.2,30.1 7.6,27 32.5,43.5 59.9,43.5 25.1,0 50.3,0 75.4,0 16.1,0 30.2,-13.7 30,-30 -0.1,-3.8 0.2,-7.5 0.6,-11.2 -0.4,2.7 -0.7,5.3 -1.1,8 0.9,-6.7 2.7,-13.2 5.3,-19.5 -1,2.4 -2,4.8 -3,7.2 1.8,-4.2 4,-8.3 6.6,-12.2 0.6,-0.9 1.3,-1.8 1.9,-2.7 2.9,-4.2 -4,4.6 -1.9,2.4 1.7,-1.7 3.1,-3.6 4.8,-5.3 1.5,-1.5 3.2,-3 4.8,-4.4 3.5,-3.1 -5.3,3.8 -2.5,1.9 0.9,-0.6 1.8,-1.3 2.7,-1.9 4,-2.7 8.3,-5 12.7,-6.9 -2.4,1 -4.8,2 -7.2,3 6.3,-2.6 12.7,-4.3 19.5,-5.3 -2.7,0.4 -5.3,0.7 -8,1.1 6.5,-0.8 13,-0.8 19.4,0 -2.7,-0.4 -5.3,-0.7 -8,-1.1 6.7,0.9 13.2,2.7 19.5,5.3 -2.4,-1 -4.8,-2 -7.2,-3 4.2,1.8 8.3,4 12.2,6.6 0.9,0.6 1.8,1.3 2.7,1.9 4.2,2.9 -4.6,-4 -2.4,-1.9 1.7,1.7 3.6,3.1 5.3,4.8 1.5,1.5 3,3.2 4.4,4.8 3.1,3.5 -3.8,-5.3 -1.9,-2.5 0.6,0.9 1.3,1.8 1.9,2.7 2.7,4 5,8.3 6.9,12.7 -1,-2.4 -2,-4.8 -3,-7.2 2.6,6.3 4.3,12.7 5.3,19.5 -0.4,-2.7 -0.7,-5.3 -1.1,-8 0.4,3.7 0.7,7.5 0.6,11.2 -0.2,16.2 13.9,30 30,30 12.3,0 24.6,0 36.9,0 29.6,0 59.1,0 88.7,0 35.8,0 71.6,0 107.4,0 31.1,0 62.2,0 93.3,0 15,0 30.1,0.3 45.1,0 0.2,0 0.4,0 0.6,0 16.1,0 30.2,-13.7 30,-30 -0.1,-3.8 0.2,-7.5 0.6,-11.2 -0.4,2.7 -0.7,5.3 -1.1,8 0.9,-6.7 2.7,-13.2 5.3,-19.5 -1,2.4 -2,4.8 -3,7.2 1.8,-4.2 4,-8.3 6.6,-12.2 0.6,-0.9 1.3,-1.8 1.9,-2.7 2.9,-4.2 -4,4.6 -1.9,2.4 1.7,-1.7 3.1,-3.6 4.8,-5.3 1.5,-1.5 3.2,-3 4.8,-4.4 3.5,-3.1 -5.3,3.8 -2.5,1.9 0.9,-0.6 1.8,-1.3 2.7,-1.9 4,-2.7 8.3,-5 12.7,-6.9 -2.4,1 -4.8,2 -7.2,3 6.3,-2.6 12.7,-4.3 19.5,-5.3 -2.7,0.4 -5.3,0.7 -8,1.1 6.5,-0.8 13,-0.8 19.4,0 -2.7,-0.4 -5.3,-0.7 -8,-1.1 6.7,0.9 13.2,2.7 19.5,5.3 -2.4,-1 -4.8,-2 -7.2,-3 4.2,1.8 8.3,4 12.2,6.6 0.9,0.6 1.8,1.3 2.7,1.9 4.2,2.9 -4.6,-4 -2.4,-1.9 1.7,1.7 3.6,3.1 5.3,4.8 1.5,1.5 3,3.2 4.4,4.8 3.1,3.5 -3.8,-5.3 -1.9,-2.5 0.6,0.9 1.3,1.8 1.9,2.7 2.7,4 5,8.3 6.9,12.7 -1,-2.4 -2,-4.8 -3,-7.2 2.6,6.3 4.3,12.7 5.3,19.5 -0.4,-2.7 -0.7,-5.3 -1.1,-8 0.4,3.7 0.7,7.5 0.6,11.2 -0.2,16.2 13.9,30 30,30 21.8,0 43.7,0 65.5,0 15,0 29.5,-0.2 43,-8.3 13.5,-8.2 24.3,-22.1 27.5,-37.7 1.4,-7.1 1.6,-13.5 1.6,-20.6 0,-12.4 0,-24.9 0,-37.3 0,-15.7 -13.8,-30.7 -30,-30 -15.8,0.8 -29.5,13.3 -29.5,30.1 z"
           id="path2"
           style="fill:#616161" /></g></g><g
       id="g12"
       style="fill:#616161"><g
         id="g10"
         style="fill:#616161"><path
           d="m 296,634.8 c 0,3.3 -0.2,6.5 -0.6,9.8 0.4,-2.7 0.7,-5.3 1.1,-8 -0.9,6.7 -2.7,13.2 -5.3,19.4 1,-2.4 2,-4.8 3,-7.2 -1.8,4.2 -4,8.3 -6.6,12.2 -0.6,0.9 -1.3,1.8 -1.9,2.7 -2.9,4.2 4,-4.6 1.9,-2.5 -1.7,1.7 -3.1,3.6 -4.8,5.3 -1.5,1.5 -3.2,3 -4.8,4.4 -3.5,3.1 5.3,-3.8 2.5,-1.9 -0.9,0.6 -1.8,1.3 -2.7,1.9 -4,2.7 -8.3,5 -12.7,6.9 2.4,-1 4.8,-2 7.2,-3 -6.3,2.6 -12.7,4.3 -19.5,5.3 2.7,-0.4 5.3,-0.7 8,-1.1 -6.5,0.8 -12.9,0.8 -19.4,0 2.7,0.4 5.3,0.7 8,1.1 -6.7,-0.9 -13.2,-2.7 -19.5,-5.3 2.4,1 4.8,2 7.2,3 -4.2,-1.8 -8.3,-4 -12.2,-6.5 -0.9,-0.6 -1.8,-1.3 -2.7,-1.9 -4.2,-2.9 4.6,4 2.4,1.9 -1.7,-1.7 -3.6,-3.1 -5.3,-4.8 -1.5,-1.5 -3,-3.2 -4.4,-4.8 -3.1,-3.5 3.8,5.3 1.9,2.5 -0.6,-0.9 -1.3,-1.8 -1.9,-2.7 -2.7,-4 -5,-8.3 -6.9,-12.7 1,2.4 2,4.8 3,7.2 -2.6,-6.3 -4.3,-12.7 -5.3,-19.4 0.4,2.7 0.7,5.3 1.1,8 -0.8,-6.5 -0.8,-13 0,-19.5 -0.4,2.7 -0.7,5.3 -1.1,8 0.9,-6.7 2.7,-13.2 5.3,-19.5 -1,2.4 -2,4.8 -3,7.2 1.8,-4.2 4,-8.3 6.6,-12.2 0.6,-0.9 1.3,-1.8 1.9,-2.7 2.9,-4.2 -4,4.6 -1.9,2.4 1.7,-1.7 3.1,-3.6 4.8,-5.3 1.5,-1.5 3.2,-3 4.8,-4.4 3.5,-3.1 -5.3,3.8 -2.5,1.9 0.9,-0.6 1.8,-1.3 2.7,-1.9 4,-2.7 8.3,-5 12.7,-6.9 -2.4,1 -4.8,2 -7.2,3 6.3,-2.6 12.7,-4.3 19.5,-5.3 -2.7,0.4 -5.3,0.7 -8,1.1 6.5,-0.8 13,-0.8 19.4,0 -2.7,-0.4 -5.3,-0.7 -8,-1.1 6.7,0.9 13.2,2.7 19.5,5.3 -2.4,-1 -4.8,-2 -7.2,-3 4.2,1.8 8.3,4 12.2,6.6 0.9,0.6 1.8,1.3 2.7,1.9 4.2,2.9 -4.6,-4 -2.4,-1.9 1.7,1.7 3.6,3.1 5.3,4.8 1.5,1.5 3,3.2 4.4,4.8 3.1,3.5 -3.8,-5.3 -1.9,-2.5 0.6,0.9 1.3,1.8 1.9,2.7 2.7,4 5,8.3 6.9,12.7 -1,-2.4 -2,-4.8 -3,-7.2 2.6,6.3 4.3,12.7 5.3,19.5 -0.4,-2.7 -0.7,-5.3 -1.1,-8 0.4,3.2 0.6,6.4 0.6,9.7 0.1,15.7 13.7,30.7 30,30 16.1,-0.7 30.2,-13.2 30,-30 -0.2,-20.7 -6.1,-42.4 -18.4,-59.2 -13.6,-18.7 -30.8,-32 -52.5,-40 -39,-14.5 -87.2,-1.2 -113.6,30.8 -14.9,18.1 -23.3,38.7 -25.2,62.1 -1.7,20.5 4,42.5 14.5,60.1 10.4,17.3 26.2,32.3 44.7,40.7 21.8,9.9 44.4,12.6 67.9,8 48.1,-9.4 81.9,-54.6 82.6,-102.5 0.2,-15.7 -13.9,-30.7 -30,-30 -16.4,0.7 -29.8,13.1 -30,30 z"
           id="path8"
           style="fill:#616161" /></g></g><g
       id="g18"
       style="fill:#616161"><g
         id="g16"
         style="fill:#616161"><path
           d="m 818,634.8 c 0,3.3 -0.2,6.5 -0.6,9.8 0.4,-2.7 0.7,-5.3 1.1,-8 -0.9,6.7 -2.7,13.2 -5.3,19.4 1,-2.4 2,-4.8 3,-7.2 -1.8,4.2 -4,8.3 -6.6,12.2 -0.6,0.9 -1.3,1.8 -1.9,2.7 -2.9,4.2 4,-4.6 1.9,-2.5 -1.7,1.7 -3.1,3.6 -4.8,5.3 -1.5,1.5 -3.2,3 -4.8,4.4 -3.5,3.1 5.3,-3.8 2.5,-1.9 -0.9,0.6 -1.8,1.3 -2.7,1.9 -4,2.7 -8.3,5 -12.7,6.9 2.4,-1 4.8,-2 7.2,-3 -6.3,2.6 -12.7,4.3 -19.5,5.3 2.7,-0.4 5.3,-0.7 8,-1.1 -6.5,0.8 -12.9,0.8 -19.4,0 2.7,0.4 5.3,0.7 8,1.1 -6.7,-0.9 -13.2,-2.7 -19.5,-5.3 2.4,1 4.8,2 7.2,3 -4.2,-1.8 -8.3,-4 -12.2,-6.5 -0.9,-0.6 -1.8,-1.3 -2.7,-1.9 -4.2,-2.9 4.6,4 2.5,1.9 -1.7,-1.7 -3.6,-3.1 -5.3,-4.8 -1.5,-1.5 -3,-3.2 -4.4,-4.8 -3.1,-3.5 3.8,5.3 1.9,2.5 -0.6,-0.9 -1.3,-1.8 -1.9,-2.7 -2.7,-4 -5,-8.3 -6.9,-12.7 1,2.4 2,4.8 3,7.2 -2.6,-6.3 -4.3,-12.7 -5.3,-19.4 0.4,2.7 0.7,5.3 1.1,8 -0.8,-6.5 -0.8,-13 0,-19.5 -0.4,2.7 -0.7,5.3 -1.1,8 0.9,-6.7 2.7,-13.2 5.3,-19.5 -1,2.4 -2,4.8 -3,7.2 1.8,-4.2 4,-8.3 6.6,-12.2 0.6,-0.9 1.3,-1.8 1.9,-2.7 2.9,-4.2 -4,4.6 -1.9,2.4 1.7,-1.7 3.1,-3.6 4.8,-5.3 1.5,-1.5 3.2,-3 4.8,-4.4 3.5,-3.1 -5.3,3.8 -2.5,1.9 0.9,-0.6 1.8,-1.3 2.7,-1.9 4,-2.7 8.3,-5 12.7,-6.9 -2.4,1 -4.8,2 -7.2,3 6.3,-2.6 12.7,-4.3 19.5,-5.3 -2.7,0.4 -5.3,0.7 -8,1.1 6.5,-0.8 13,-0.8 19.4,0 -2.7,-0.4 -5.3,-0.7 -8,-1.1 6.7,0.9 13.2,2.7 19.5,5.3 -2.4,-1 -4.8,-2 -7.2,-3 4.2,1.8 8.3,4 12.2,6.6 0.9,0.6 1.8,1.3 2.7,1.9 4.2,2.9 -4.6,-4 -2.4,-1.9 1.7,1.7 3.6,3.1 5.3,4.8 1.5,1.5 3,3.2 4.4,4.8 3.1,3.5 -3.8,-5.3 -1.9,-2.5 0.6,0.9 1.3,1.8 1.9,2.7 2.7,4 5,8.3 6.9,12.7 -1,-2.4 -2,-4.8 -3,-7.2 2.6,6.3 4.3,12.7 5.3,19.5 -0.4,-2.7 -0.7,-5.3 -1.1,-8 0.3,3.2 0.5,6.4 0.5,9.7 0.1,15.7 13.7,30.7 30,30 16.1,-0.7 30.2,-13.2 30,-30 -0.2,-20.7 -6.1,-42.4 -18.4,-59.2 -13.6,-18.7 -30.8,-32 -52.5,-40 -39,-14.5 -87.2,-1.2 -113.6,30.8 -14.9,18.1 -23.3,38.7 -25.2,62.1 -1.7,20.5 4,42.5 14.5,60.1 10.4,17.3 26.2,32.3 44.7,40.7 21.8,9.9 44.4,12.6 67.9,8 48.1,-9.4 81.9,-54.6 82.6,-102.5 0.2,-15.7 -13.9,-30.7 -30,-30 -16.4,0.7 -29.8,13.1 -30,30 z"
           id="path14"
           style="fill:#616161" /></g></g></g></svg>
