<?xml version="1.0" encoding="UTF-8" standalone="no"?>
<svg
   version="1.1"
   viewBox="-5 -10 94.985046 88.910454"
   id="svg10793"
   sodipodi:docname="noun-car-parking-7149351.svg"
   width="94.985046"
   height="88.910454"
   xmlns:inkscape="http://www.inkscape.org/namespaces/inkscape"
   xmlns:sodipodi="http://sodipodi.sourceforge.net/DTD/sodipodi-0.dtd"
   xmlns="http://www.w3.org/2000/svg"
   xmlns:svg="http://www.w3.org/2000/svg">
  <defs
     id="defs10797" />
  <sodipodi:namedview
     id="namedview10795"
     pagecolor="#ffffff"
     bordercolor="#000000"
     borderopacity="0.25"
     inkscape:showpageshadow="2"
     inkscape:pageopacity="0.0"
     inkscape:pagecheckerboard="0"
     inkscape:deskcolor="#d1d1d1"
     showgrid="false" />
  <path
     d="m 2.524147,53.88645 h 51.191 l -5.1523,-15.637 c -0.42188,-1.2773 -1.2031,-2.332 -2.207,-3.0586 -1,-0.72656 -2.2422,-1.1367 -3.5938,-1.1367 h -29.289 c -1.3203,0 -2.5352,0.39063 -3.5234,1.082 l -0.07031,0.05469 c -1.0039,0.72656 -1.7852,1.7812 -2.207,3.0586 l -5.1523,15.637 z m 69.375,-41.164 c 0,0.82812 -0.67188,1.5 -1.5,1.5 -0.82812,0 -1.5,-0.67188 -1.5,-1.5 v -13.516 c 0,-0.42578 0.17969,-0.8125 0.46484,-1.0859 0.89453,-0.98047 2.0391,-1.6445 3.2773,-1.957 1.2773,-0.32031 2.6523,-0.25781 3.9414,0.22656 1.2891,0.48438 2.3594,1.3477 3.1094,2.4297 0.75,1.0859 1.1797,2.3945 1.1797,3.7656 0,1.3711 -0.42969,2.6797 -1.1797,3.7656 -0.75,1.0859 -1.8242,1.9453 -3.1094,2.4297 -1.2891,0.48438 -2.6602,0.54688 -3.9336,0.22656 -0.25781,-0.0625 -0.50391,-0.14063 -0.75,-0.23438 z m 0,-12.898 v 5.5273 c 0.42969,0.36328 0.93359,0.62109 1.4688,0.75391 0.69922,0.17578 1.457,0.14062 2.1602,-0.125 0.70703,-0.26562 1.293,-0.73828 1.7031,-1.3281 0.40625,-0.58984 0.64062,-1.3086 0.64062,-2.0664 0,-0.75781 -0.23438,-1.4766 -0.64062,-2.0664 -0.41016,-0.58984 -0.99609,-1.0625 -1.7031,-1.3281 -0.70701,-0.2656 -1.4609,-0.29688 -2.1602,-0.12109 -0.53906,0.13281 -1.043,0.38672 -1.4688,0.75391 z m -6.1602,-9.8242 h 18.293 c 1.6328,0 3.1211,0.67188 4.1992,1.7461 1.082,1.0781 1.7539,2.5664 1.7539,4.2031 v 18.293 c 0,1.6367 -0.66797,3.125 -1.7461,4.2031 -1.0781,1.0781 -2.5664,1.7461 -4.2031,1.7461 h -5.2969 v 35.371 c 0,0.82812 -0.67187,1.5 -1.5,1.5 -0.82812,0 -1.5,-0.67188 -1.5,-1.5 v -35.371 h -1.6953 v 55.719 h 1.6953 v -9.2852 c 0,-0.82812 0.67188,-1.5 1.5,-1.5 0.82813,0 1.5,0.67188 1.5,1.5 v 10.785 c 0,0.82812 -0.67187,1.5 -1.5,1.5 h -4.6953 c -0.82812,0 -1.5,-0.67188 -1.5,-1.5 v -57.219 h -5.3008 c -1.6367,0 -3.125,-0.66797 -4.2031,-1.7461 l -0.08594,-0.09375 c -1.0234,-1.0703 -1.6602,-2.5195 -1.6602,-4.1094 v -18.293 c 0,-1.6367 0.67188,-3.1289 1.7461,-4.2031 1.0781,-1.0781 2.5664,-1.7461 4.2031,-1.7461 z m 18.293,3 h -18.293 c -0.80859,0 -1.5469,0.33203 -2.082,0.86719 -0.53516,0.53516 -0.86719,1.2734 -0.86719,2.082 v 18.293 c 0,0.78125 0.30469,1.4922 0.80078,2.0234 l 0.06641,0.05859 c 0.53516,0.53516 1.2734,0.86719 2.082,0.86719 h 18.293 c 0.80859,0 1.5469,-0.33203 2.082,-0.86719 0.53516,-0.53516 0.86719,-1.2734 0.86719,-2.082 v -18.293 c 0,-0.80859 -0.33203,-1.5469 -0.86719,-2.082 -0.53125,-0.53516 -1.2695,-0.86719 -2.082,-0.86719 z m -8.2969,67.98 c 0,-0.82812 0.67188,-1.5 1.5,-1.5 0.82812,0 1.5,0.67188 1.5,1.5 v 0.22266 c 0,0.82812 -0.67188,1.5 -1.5,1.5 -0.82812,0 -1.5,-0.67188 -1.5,-1.5 z m -55.141,8.7539 v -1.3633 c 0,-1.1055 0.45312,-2.1133 1.1836,-2.8438 0.73438,-0.73438 1.7422,-1.1875 2.8477,-1.1875 h 6.9922 c 1.1094,0 2.1211,0.45312 2.8477,1.1836 l 0.09375,0.10547 c 0.67188,0.71875 1.0859,1.6875 1.0859,2.7461 v 1.3633 h 18.641 v -12.848 h -52.336 v 12.848 h 18.641 z m 12.055,0 v -1.3633 c 0,-0.25781 -0.09766,-0.5 -0.25391,-0.67969 l -0.05078,-0.04687 c -0.1875,-0.1875 -0.44531,-0.30469 -0.72656,-0.30469 h -6.9922 c -0.28516,0 -0.54297,0.11719 -0.73047,0.30078 -0.18359,0.18359 -0.30078,0.44531 -0.30078,0.73047 v 1.3633 z m -8.5352,-29.164 c -0.58594,-0.58594 -0.58594,-1.5352 0,-2.1211 0.58594,-0.58594 1.5352,-0.58594 2.1211,0 l 7.4102,7.4102 c 0.58594,0.58594 0.58594,1.5352 0,2.1211 -0.58594,0.58594 -1.5352,0.58594 -2.1211,0 z m -1.5078,4.4141 c -0.58594,-0.58594 -0.58594,-1.5352 0,-2.1211 0.58594,-0.58594 1.5352,-0.58594 2.1211,0 l 4.5078,4.5078 c 0.58594,0.58594 0.58594,1.5352 0,2.1211 -0.58594,0.58594 -1.5352,0.58594 -2.1211,0 z m 22.062,19.828 c -0.82812,0 -1.5,-0.67188 -1.5,-1.5 0,-0.82812 0.67188,-1.5 1.5,-1.5 h 4.9023 c 0.82812,0 1.5,0.67188 1.5,1.5 0,0.82812 -0.67188,1.5 -1.5,1.5 z m -37.98,0 c -0.82812,0 -1.5,-0.67188 -1.5,-1.5 0,-0.82812 0.67188,-1.5 1.5,-1.5 h 4.8984 c 0.82812,0 1.5,0.67188 1.5,1.5 0,0.82812 -0.67188,1.5 -1.5,1.5 z m 50.609,10.066 c 0,1.1016 -0.45312,2.1094 -1.1836,2.8398 l -0.0078,0.0078 c -0.73047,0.72656 -1.7383,1.1797 -2.8398,1.1797 h -5.7266 c -1.1016,0 -2.1094,-0.45312 -2.8398,-1.1836 l -0.0078,-0.0078 c -0.72656,-0.73047 -1.1797,-1.7383 -1.1797,-2.8398 v -2.1406 h -30.758 v 2.1406 c 0,1.1094 -0.45313,2.1172 -1.1836,2.8477 -0.73047,0.73047 -1.7383,1.1836 -2.8477,1.1836 h -5.7266 c -1.1016,0 -2.1094,-0.45312 -2.8398,-1.1836 l -0.00781,-0.0078 c -0.72656,-0.73047 -1.1797,-1.7383 -1.1797,-2.8398 v -19.629 l 0.00781,-0.03906 0.00391,-0.03516 0.03125,-0.15625 0.00391,-0.01563 0.00781,-0.01953 0.00391,-0.01563 0.00781,-0.01953 0.00391,-0.01563 0.023437,-0.07031 v -0.0039 l 0.86719,-2.6289 -3.207,-2.25 c -0.5,-0.35547 -0.90234,-0.79688 -1.1914,-1.2969 L -4.550747,48.5384 c -0.29297,-0.56641 -0.44922,-1.1992 -0.44922,-1.8711 v -1.707 c 0,-1.1055 0.45312,-2.1172 1.1836,-2.8516 l 0.00781,-0.0078 c 0.73437,-0.73047 1.7461,-1.1875 2.8516,-1.1875 h 4.6094 l 1.1914,-3.6133 c 0.62109,-1.8906 1.7852,-3.4531 3.2969,-4.5469 l 0.09375,-0.0625 c 1.4922,-1.0547 3.3086,-1.6484 5.2578,-1.6484 h 29.289 c 1.9883,0 3.8359,0.61719 5.3477,1.7109 1.5156,1.0938 2.6797,2.6562 3.3047,4.5469 l 1.1875,3.6133 h 4.6094 c 1.1094,0 2.1211,0.45312 2.8555,1.1875 0.76172,0.76172 1.1914,1.7812 1.1914,2.8594 v 1.707 c 0,0.70703 -0.17188,1.4023 -0.53125,2.0117 -0.28906,0.50391 -0.69141,0.94531 -1.1914,1.2969 l -3.2031,2.2539 0.86719,2.6289 0.01172,0.03906 c 0.05078,0.16406 0.07813,0.30078 0.07813,0.48047 v 0.01172 19.477 z m -10.789,-2.1406 v 2.1406 c 0,0.28516 0.11719,0.54297 0.29688,0.72656 0.1875,0.1875 0.44922,0.30469 0.73047,0.30469 h 5.7266 c 0.28516,0 0.54297,-0.11719 0.72656,-0.29688 0.1875,-0.1875 0.30469,-0.44922 0.30469,-0.73047 v -2.1406 h -7.7891 z m -44.547,0 v 2.1406 c 0,0.28516 0.11719,0.54297 0.29688,0.72656 0.1875,0.1875 0.44922,0.30469 0.73047,0.30469 h 5.7266 c 0.28125,0 0.53906,-0.11719 0.72656,-0.30469 0.1875,-0.1875 0.30469,-0.44531 0.30469,-0.72656 v -2.1406 h -7.7891 z m 53.398,-23.469 2.4648,-1.7305 c 0.13281,-0.08594 0.23438,-0.19141 0.30469,-0.30469 l 0.03125,-0.06641 c 0.07031,-0.13672 0.10937,-0.30078 0.10937,-0.48828 v -1.707 c 0,-0.28906 -0.11719,-0.55469 -0.30078,-0.73828 -0.19141,-0.19141 -0.45312,-0.30859 -0.74219,-0.30859 h -3.6211 l 1.7617,5.3398 z m -52.703,-5.3398 h -3.6211 c -0.28906,0 -0.55078,0.11719 -0.73828,0.30078 -0.19141,0.19141 -0.30859,0.45312 -0.30859,0.74219 v 1.707 c 0,0.18359 0.039063,0.35156 0.10938,0.48828 l 0.03125,0.06641 c 0.070312,0.11328 0.17187,0.21875 0.29687,0.30469 l 2.4688,1.7305 z"
     id="path10787"
     style="fill:#6a6a6a" />
</svg>
