<?xml version="1.0" encoding="UTF-8" standalone="no"?>
<svg
   version="1.1"
   x="0px"
   y="0px"
   viewBox="0 0 90 80"
   xml:space="preserve"
   id="svg8"
   sodipodi:docname="car-popup.svg"
   width="90"
   height="80"
   inkscape:version="1.1.2 (0a00cf5339, 2022-02-04)"
   xmlns:inkscape="http://www.inkscape.org/namespaces/inkscape"
   xmlns:sodipodi="http://sodipodi.sourceforge.net/DTD/sodipodi-0.dtd"
   xmlns="http://www.w3.org/2000/svg"
   xmlns:svg="http://www.w3.org/2000/svg"><defs
     id="defs12" /><sodipodi:namedview
     id="namedview10"
     pagecolor="#ffffff"
     bordercolor="#666666"
     borderopacity="1.0"
     inkscape:pageshadow="2"
     inkscape:pageopacity="0.0"
     inkscape:pagecheckerboard="0"
     showgrid="false"
     fit-margin-top="0"
     fit-margin-left="0"
     fit-margin-right="0"
     fit-margin-bottom="0"
     inkscape:zoom="6.088"
     inkscape:cx="45.00657"
     inkscape:cy="52.480289"
     inkscape:window-width="1850"
     inkscape:window-height="1025"
     inkscape:window-x="1990"
     inkscape:window-y="27"
     inkscape:window-maximized="1"
     inkscape:current-layer="svg8" /><path
     d="M 79,28 V 12 C 79,5.4 73.6,0 67,0 H 23 C 16.4,0 11,5.4 11,12 V 28 C 4.9,28.5 0,33.7 0,40 v 14 c 0,6.6 5.4,12 12,12 v 3 c 0,6 5,11 11,11 3,0 5.8,-1.2 7.8,-3.2 2,-2 3.2,-4.8 3.2,-7.8 v -3 h 22 v 3 c 0,6 5,11 11,11 3,0 5.8,-1.2 7.8,-3.2 2,-2 3.2,-4.8 3.2,-7.8 v -3 c 6.6,0 12,-5.4 12,-12 V 40 C 90,33.7 85.1,28.5 79,28 Z m -7,41 c 0,2.8 -2.2,5 -5,5 -2.8,0 -5,-2.2 -5,-5 V 66 H 72 Z M 56,60 H 34 12 C 8.7,60 6,57.3 6,54 V 40 C 6,37 8.2,34.6 11,34.1 11.3,34 11.7,34 12,34 h 2 3 56 3 2 c 0.3,0 0.7,0 1,0.1 2.8,0.5 5,2.9 5,5.9 v 14 c 0,3.3 -2.7,6 -6,6 z m -28,9 c 0,2.8 -2.2,5 -5,5 -2.8,0 -5,-2.2 -5,-5 V 66 H 28 Z M 17,12 c 0,-3.3 2.7,-6 6,-6 h 44 c 3.3,0 6,2.7 6,6 V 28 H 64.6 L 52.7,16.1 c -0.8,-0.8 -2,-0.8 -2.8,0 -0.8,0.8 -0.8,2 0,2.8 L 59,28 H 39.6 L 27.7,16.1 c -0.8,-0.8 -2,-0.8 -2.8,0 -0.8,0.8 -0.8,2 0,2.8 L 34,28 H 17 Z m 2.5,28 c -0.9,0 -1.7,0.2 -2.5,0.5 -1.2,0.5 -2.2,1.2 -3,2.2 -1,1.2 -1.5,2.7 -1.5,4.3 0,2.3 1.1,4.3 2.7,5.5 1.2,0.9 2.7,1.5 4.3,1.5 0.6,0 1.2,-0.1 1.8,-0.2 3,-0.8 5.2,-3.5 5.2,-6.8 0,-3.9 -3.1,-7 -7,-7 z m 0,10 c -1,0 -1.9,-0.5 -2.5,-1.3 -0.3,-0.5 -0.5,-1.1 -0.5,-1.7 0,-0.6 0.2,-1.2 0.5,-1.7 0.5,-0.8 1.5,-1.3 2.5,-1.3 1.7,0 3,1.3 3,3 0,1.6 -1.3,3 -3,3 z M 73,40.5 C 72.2,40.2 71.4,40 70.5,40 c -3.9,0 -7,3.1 -7,7 0,3.2 2.2,6 5.2,6.8 0.6,0.2 1.2,0.2 1.8,0.2 1.6,0 3.1,-0.5 4.3,-1.5 1.7,-1.3 2.7,-3.3 2.7,-5.5 0,-1.6 -0.5,-3.1 -1.5,-4.3 -0.8,-1 -1.8,-1.8 -3,-2.2 z m 0,8.2 c -0.5,0.8 -1.4,1.3 -2.5,1.3 -1.7,0 -3,-1.4 -3,-3 0,-1.7 1.3,-3 3,-3 1,0 2,0.5 2.5,1.3 0.3,0.5 0.5,1.1 0.5,1.7 0,0.6 -0.2,1.2 -0.5,1.7 z"
     id="path2"
     style="fill:#5d5d5d" /></svg>
