<?xml version="1.0" encoding="UTF-8" standalone="no"?>
<svg
   xml:space="preserve"
   version="1.1"
   style="image-rendering:optimizeQuality;shape-rendering:geometricPrecision;text-rendering:geometricPrecision"
   viewBox="0 0 326.68001 265.19"
   x="0px"
   y="0px"
   fill-rule="evenodd"
   clip-rule="evenodd"
   id="svg14"
   sodipodi:docname="card-stairs.svg"
   width="326.67999"
   height="265.19"
   inkscape:version="1.1.2 (0a00cf5339, 2022-02-04)"
   xmlns:inkscape="http://www.inkscape.org/namespaces/inkscape"
   xmlns:sodipodi="http://sodipodi.sourceforge.net/DTD/sodipodi-0.dtd"
   xmlns="http://www.w3.org/2000/svg"
   xmlns:svg="http://www.w3.org/2000/svg"><sodipodi:namedview
     id="namedview16"
     pagecolor="#ffffff"
     bordercolor="#666666"
     borderopacity="1.0"
     inkscape:pageshadow="2"
     inkscape:pageopacity="0.0"
     inkscape:pagecheckerboard="0"
     showgrid="false"
     fit-margin-top="0"
     fit-margin-left="0"
     fit-margin-right="0"
     fit-margin-bottom="0"
     inkscape:zoom="1.8264182"
     inkscape:cx="163.16088"
     inkscape:cy="172.19495"
     inkscape:window-width="1850"
     inkscape:window-height="1025"
     inkscape:window-x="1990"
     inkscape:window-y="27"
     inkscape:window-maximized="1"
     inkscape:current-layer="svg14" /><defs
     id="defs4"><style
       type="text/css"
       id="style2">
   
    .fil0 {fill:black;fill-rule:nonzero}
   
  </style></defs><g
     id="g8"
     transform="translate(-3.33,-34.07)"
     style="fill:#b4b4b4"><path
       class="fil0"
       d="m 198.81,34.07 h 111.23 c 5.5,0 10.49,2.24 14.11,5.86 3.61,3.62 5.86,8.61 5.86,14.11 v 30.21 c 0,5.46 -2.24,10.45 -5.86,14.08 l -0.05,0.04 c -3.63,3.61 -8.61,5.84 -14.06,5.84 H 198.81 c -5.5,0 -10.49,-2.24 -14.1,-5.86 -3.61,-3.61 -5.86,-8.61 -5.86,-14.11 V 54.03 c 0,-5.48 2.24,-10.46 5.86,-14.07 l 0.03,-0.03 c 3.61,-3.61 8.6,-5.86 14.07,-5.86 z M 23.3,229.11 h 111.23 c 5.5,0 10.49,2.24 14.1,5.86 0.17,0.17 0.33,0.35 0.48,0.53 3.33,3.57 5.37,8.35 5.37,13.58 v 30.21 c 0,5.48 -2.24,10.46 -5.86,14.07 l -0.01,0.02 0.01,0.02 c -3.61,3.61 -8.61,5.86 -14.1,5.86 H 23.29 c -5.46,0 -10.44,-2.24 -14.07,-5.86 l -0.05,-0.05 c -3.61,-3.63 -5.84,-8.6 -5.84,-14.06 v -30.21 c 0,-5.46 2.24,-10.45 5.86,-14.08 l 0.05,-0.04 c 3.63,-3.61 8.6,-5.84 14.06,-5.84 z m 111.23,15.31 H 23.3 c -1.29,0 -2.45,0.51 -3.28,1.34 l -0.03,0.03 c -0.83,0.83 -1.34,1.98 -1.34,3.28 v 30.21 c 0,1.29 0.52,2.45 1.34,3.28 l 0.03,0.03 c 0.83,0.83 1.99,1.34 3.28,1.34 h 111.23 c 1.27,0 2.43,-0.52 3.28,-1.37 l 0.02,0.02 c 0.83,-0.85 1.35,-2.01 1.35,-3.3 v -30.21 c 0,-1.17 -0.43,-2.23 -1.13,-3.05 l -0.24,-0.23 c -0.85,-0.84 -2.01,-1.37 -3.28,-1.37 z M 111.06,131.59 h 111.23 c 5.5,0 10.49,2.24 14.11,5.86 3.61,3.61 5.86,8.61 5.86,14.11 v 30.21 c 0,5.46 -2.24,10.44 -5.86,14.07 l -0.05,0.05 c -3.63,3.61 -8.61,5.84 -14.06,5.84 H 111.06 c -5.5,0 -10.49,-2.24 -14.11,-5.86 -3.61,-3.61 -5.86,-8.61 -5.86,-14.11 v -30.21 c 0,-5.48 2.24,-10.46 5.86,-14.07 l 0.03,-0.03 c 3.61,-3.61 8.6,-5.86 14.07,-5.86 z M 222.29,146.9 H 111.06 c -1.28,0 -2.45,0.52 -3.3,1.36 -0.83,0.85 -1.35,2.01 -1.35,3.3 v 30.21 c 0,1.27 0.52,2.43 1.37,3.28 0.85,0.85 2.01,1.37 3.28,1.37 h 111.23 c 1.29,0 2.45,-0.52 3.28,-1.34 l 0.03,-0.03 c 0.83,-0.83 1.34,-1.99 1.34,-3.28 v -30.21 c 0,-1.27 -0.52,-2.43 -1.37,-3.28 -0.85,-0.85 -2.01,-1.37 -3.28,-1.37 z M 310.05,49.38 H 198.82 c -1.28,0 -2.45,0.52 -3.3,1.35 -0.83,0.85 -1.35,2.01 -1.35,3.3 v 30.21 c 0,1.28 0.53,2.44 1.37,3.28 0.85,0.85 2.01,1.37 3.28,1.37 h 111.23 c 1.29,0 2.45,-0.51 3.28,-1.34 l 0.03,-0.03 c 0.83,-0.83 1.34,-1.98 1.34,-3.28 V 54.03 c 0,-1.27 -0.53,-2.43 -1.37,-3.28 -0.85,-0.85 -2.01,-1.37 -3.28,-1.37 z"
       id="path6"
       style="fill:#b4b4b4" /></g></svg>
