<?xml version="1.0" encoding="UTF-8" standalone="no"?>
<svg
   data-name="Layer 1"
   viewBox="0 0 81.790466 79.915451"
   x="0px"
   y="0px"
   version="1.1"
   id="svg18"
   sodipodi:docname="card-facing.svg"
   width="81.790466"
   height="79.915451"
   inkscape:version="1.1.2 (0a00cf5339, 2022-02-04)"
   xmlns:inkscape="http://www.inkscape.org/namespaces/inkscape"
   xmlns:sodipodi="http://sodipodi.sourceforge.net/DTD/sodipodi-0.dtd"
   xmlns="http://www.w3.org/2000/svg"
   xmlns:svg="http://www.w3.org/2000/svg"
   xmlns:rdf="http://www.w3.org/1999/02/22-rdf-syntax-ns#"
   xmlns:cc="http://creativecommons.org/ns#"
   xmlns:dc="http://purl.org/dc/elements/1.1/">
  <sodipodi:namedview
     id="namedview20"
     pagecolor="#ffffff"
     bordercolor="#666666"
     borderopacity="1.0"
     inkscape:pageshadow="2"
     inkscape:pageopacity="0.0"
     inkscape:pagecheckerboard="0"
     showgrid="false"
     fit-margin-top="0"
     fit-margin-left="0"
     fit-margin-right="0"
     fit-margin-bottom="0"
     inkscape:zoom="6.088"
     inkscape:cx="41.885677"
     inkscape:cy="52.316032"
     inkscape:window-width="1850"
     inkscape:window-height="1025"
     inkscape:window-x="1990"
     inkscape:window-y="27"
     inkscape:window-maximized="1"
     inkscape:current-layer="svg18" />
  <defs
     id="defs4">
    <style
       id="style2">.cls-1{fill-rule:evenodd;}</style>
  </defs>
  <title
     id="title6">navigation icons</title>
  <path
     class="cls-1"
     d="m 77.710262,3.8310274 -33.6,21.9999996 a 13.87,13.87 0 0 0 -3.22,-0.37 14.53,14.53 0 0 0 -14.7,14.46 12.82,12.82 0 0 0 0.37,3.09 l -22.4800003,33 33.6000003,-22 a 13.32,13.32 0 0 0 3.21,0.37 14.53,14.53 0 0 0 14.71,-14.47 24.79,24.79 0 0 0 -0.25,-3.08 z m -36.82,43.3699996 a 7.23,7.23 0 1 1 0,-14.46 7.23,7.23 0 1 1 0,14.46 z"
     id="path8"
     style="fill:#a1a1a1" />
  <path
     class="cls-1"
     d="m 72.770262,14.951027 a 40.84,40.84 0 0 1 6.68,11.74 39.05,39.05 0 0 1 -0.75,28.54 42.69,42.69 0 0 1 -8.89,13 38.9,38.9 0 0 1 -13.35,8.6 40.28,40.28 0 0 1 -29,0.74 37.61,37.61 0 0 1 -12,-6.55 l -1,-0.61 1,-0.62 1.49,-1 0.49,-0.37 0.49,0.37 a 38.83,38.83 0 0 0 10.86,5.84 38.9,38.9 0 0 0 12.1,1.85 37,37 0 0 0 14.33,-2.72 37.73,37.73 0 0 0 12.11,-7.93 37.11,37.11 0 0 0 8.16,-11.86 35.88,35.88 0 0 0 2.84,-14.08 37.26,37.26 0 0 0 -2,-11.87 34.52,34.52 0 0 0 -5.92,-10.62 l -0.38,-0.49 0.38,-0.5 1,-1.48 0.62,-0.87 z"
     id="path10"
     style="fill:#a1a1a1" />
  <path
     class="cls-1"
     d="m 40.890262,0.00102742 a 41.81,41.81 0 0 1 13.59,2.21999998 43.16,43.16 0 0 1 12,6.43 l 0.86,0.74 -1,0.7399996 -1.49,1 -0.49,0.25 -0.49,-0.37 a 38.48,38.48 0 0 0 -10.75,-5.6799996 36.53,36.53 0 0 0 -12.24,-2 38,38 0 0 0 -14.2,2.72 37.13,37.13 0 0 0 -12.23,7.8999996 39.71,39.71 0 0 0 -8.1600003,12 35.26,35.26 0 0 0 -2.84,14 37.2,37.2 0 0 0 2,11.86 35.77,35.77 0 0 0 5.9300003,10.62 l 0.37,0.5 -0.37,0.49 -1,1.48 -0.6200003,0.87 -0.76,-0.78 a 43.17,43.17 0 0 1 -6.65,-11.86 38.25,38.25 0 0 1 0.86,-28.54 38.34,38.34 0 0 1 8.7900003,-12.85 40.73,40.73 0 0 1 28.9,-11.73999958 z"
     id="path12"
     style="fill:#a1a1a1" />
  <metadata
     id="metadata22">
    <rdf:RDF>
      <cc:Work
         rdf:about="">
        <dc:title>navigation icons</dc:title>
      </cc:Work>
    </rdf:RDF>
  </metadata>
</svg>
