<?xml version="1.0" encoding="UTF-8" standalone="no"?>
<svg
   version="1.1"
   x="0px"
   y="0px"
   viewBox="0 0 74.800003 80"
   xml:space="preserve"
   id="svg14"
   sodipodi:docname="noun-toilet-6018172.svg"
   width="74.800003"
   height="80"
   inkscape:version="1.1.2 (0a00cf5339, 2022-02-04)"
   xmlns:inkscape="http://www.inkscape.org/namespaces/inkscape"
   xmlns:sodipodi="http://sodipodi.sourceforge.net/DTD/sodipodi-0.dtd"
   xmlns="http://www.w3.org/2000/svg"
   xmlns:svg="http://www.w3.org/2000/svg"><defs
     id="defs18" /><sodipodi:namedview
     id="namedview16"
     pagecolor="#ffffff"
     bordercolor="#666666"
     borderopacity="1.0"
     inkscape:pageshadow="2"
     inkscape:pageopacity="0.0"
     inkscape:pagecheckerboard="0"
     showgrid="false"
     fit-margin-top="0"
     fit-margin-left="0"
     fit-margin-right="0"
     fit-margin-bottom="0"
     inkscape:zoom="6.088"
     inkscape:cx="37.286465"
     inkscape:cy="52.480289"
     inkscape:window-width="1850"
     inkscape:window-height="1025"
     inkscape:window-x="1990"
     inkscape:window-y="27"
     inkscape:window-maximized="1"
     inkscape:current-layer="svg14" /><path
     id="path2"
     d="M 1.5,0 C 0.7,0 0,0.7 0,1.5 v 7.4003906 c 0,0.8 0.7,1.5000004 1.5,1.5000004 h 0.8007812 v 33.798828 c 0,0.8 0.7000002,1.5 1.5,1.5 H 8 l 4.900391,12 V 78.5 c 0,0.8 0.7,1.5 1.5,1.5 h 48.699218 c 0.7,0 1.200391,-0.399609 1.400391,-1.099609 0.2,-0.6 -0.09961,-1.301172 -0.599609,-1.701172 -0.238204,-0.15245 -0.462565,-0.313412 -0.689453,-0.472657 -0.01824,10e-7 -0.03645,6e-6 -0.05469,0 -0.230506,-0.0012 -0.461033,-0.0076 -0.691406,0.0039 -0.04217,0.0015 -0.855485,0.01808 -0.689453,-0.06445 0.0035,-0.07214 0.0057,-0.0045 -0.134766,0.04492 -0.357462,0.125849 -0.570928,0.195108 -0.921875,0.167968 -0.287625,-0.0013 -0.575824,0.0061 -0.863281,0 -0.01433,-0.0056 -0.02875,-0.01162 -0.04297,-0.01758 -0.03601,0.0081 -0.07878,-0.0074 -0.117188,-0.0059 -0.297572,0.01205 -0.497125,0.03547 -0.804687,0.06445 -0.09477,0.0089 -0.184641,0.01 -0.269531,0.0059 0.02658,0.02429 0.05072,0.05052 0.07813,0.07422 H 15.900391 V 57.400391 c 0,-0.2 3.9e-4,-0.39961 -0.09961,-0.59961 L 11.199219,45.699219 h 56.291015 c 0.001,-0.0104 0.003,-0.05775 0.0039,-0.0625 0.0012,-0.0066 6.65e-4,0.05548 0.002,0.0625 h 0.603515 c -0.0032,0.01199 -0.0082,0.02329 -0.01172,0.03516 0.169696,-0.01189 0.340154,-0.01785 0.509765,-0.01758 0.287027,4.65e-4 0.573878,0.01283 0.861328,0.01758 0.471458,-5e-4 0.942597,-0.0081 1.414063,-0.0059 0.105906,7.59e-4 0.212131,0.0016 0.318359,0.002 0.0026,-0.01044 0.0054,-0.02074 0.0078,-0.03125 h 2.101562 c 0.8,0 1.5,-0.7 1.5,-1.5 v -7.398438 c 0,-0.8 -0.7,-1.5 -1.5,-1.5 h -46.40039 v -25 h 0.798828 v 0.09961 c 0.8,0 1.5,-0.7000004 1.5,-1.5000004 V 1.5 c 0,-0.8 -0.7,-1.5 -1.5,-1.5 z M 3,3 H 26.199219 V 7.4003906 H 3 Z m 2.1992188,7.400391 H 23.800781 V 42.699219 H 5.1992188 Z m 21.6015622,27.90039 h 45 v 4.398438 h -45 z m 32.552735,38.390625 c -0.01404,0.01043 0.25387,0.120594 0.353515,0.15625 0.01713,0.0061 0.04953,0.0041 0.07813,0.002 -0.133863,-0.05802 -0.264015,-0.126341 -0.40625,-0.15625 -0.01479,-0.0031 -0.02338,-0.0034 -0.02539,-0.002 z"
     style="fill:#4a4a4a" /><path
     style="fill:#4a4a4a"
     id="path1307"
     d="m 72.706514,45.32359 c -0.330686,0.612049 -0.705993,1.197552 -1.060516,1.795448 -0.441713,0.793426 -0.893594,1.579083 -1.288297,2.397541 -0.422913,0.928993 -0.661915,1.924221 -0.976142,2.891499 -0.276644,0.882344 -0.509849,1.776514 -0.821022,2.647816 -0.291631,0.779576 -0.561715,1.567984 -0.871407,2.34055 -0.253903,0.705745 -0.513755,1.409807 -0.753563,2.120532 -0.209996,0.597806 -0.451087,1.183882 -0.679536,1.774666 -0.239335,0.600485 -0.39028,1.231347 -0.578137,1.849057 -0.293593,0.749974 -0.63206,1.479606 -0.939195,2.224142 -0.311537,0.730622 -0.627587,1.460438 -0.894414,2.20879 -0.232562,0.649666 -0.478381,1.294862 -0.664247,1.959815 -0.105009,0.577351 -0.268961,1.140343 -0.411547,1.708686 -0.160535,0.605975 -0.340994,1.206839 -0.575473,1.788545 -0.202497,0.486583 -0.274962,1.012775 -0.407993,1.520472 -0.16587,0.535336 -0.33895,1.068576 -0.540093,1.591783 -0.207936,0.445969 -0.398367,0.89953 -0.587015,1.353906 -0.139858,0.37207 -0.289022,0.741423 -0.463394,1.098808 -0.147639,0.321218 -0.233748,0.661983 -0.343213,0.99609 0,0 2.185372,-1.03021 2.185372,-1.03021 v 0 c 0.101388,-0.329866 0.21765,-0.655206 0.359416,-0.970118 0.159069,-0.363762 0.307492,-0.731714 0.449709,-1.102397 0.189724,-0.451362 0.374815,-0.904592 0.568641,-1.354208 0.199006,-0.531953 0.374009,-1.072669 0.532716,-1.617991 0.12523,-0.501907 0.217893,-1.014598 0.417116,-1.494663 0.213459,-0.593806 0.397144,-1.196785 0.555213,-1.807723 0.153505,-0.566266 0.301665,-1.13264 0.419858,-1.707678 0.185342,-0.655478 0.423948,-1.294004 0.653198,-1.935051 0.27371,-0.739802 0.582499,-1.466443 0.887597,-2.193712 0.315058,-0.751644 0.669974,-1.486575 0.946675,-2.25361 0.186784,-0.616566 0.353077,-1.241217 0.597138,-1.838574 0.228096,-0.592163 0.463001,-1.181875 0.671137,-1.78152 0.239984,-0.70182 0.46444,-1.409286 0.736786,-2.099534 0.305362,-0.777093 0.575672,-1.567787 0.867438,-2.350085 0.29354,-0.870541 0.518417,-1.760282 0.787727,-2.638213 0.308218,-0.970387 0.571297,-1.958685 1.021756,-2.8771 0.389883,-0.813257 0.843098,-1.591896 1.291059,-2.37415 0.374329,-0.608252 0.742808,-1.220723 1.133481,-1.818527 0,0 -2.226829,0.976918 -2.226829,0.976918 z" /><path
     style="fill:#4a4a4a"
     id="path1739"
     d="m 72.088797,45.195976 c -0.0726,0.457004 -0.256038,0.870465 -0.44835,1.286277 -0.158227,0.352411 -0.303069,0.709247 -0.42575,1.075631 -0.122717,0.357839 -0.20072,0.725318 -0.292008,1.092611 -0.09336,0.420518 -0.204096,0.836212 -0.325315,1.249306 -0.09807,0.651256 -0.26819,1.287408 -0.370022,1.937989 -0.05518,0.553229 -0.181188,1.097129 -0.322828,1.633846 -0.137142,0.502104 -0.253244,1.008731 -0.375141,1.514425 -0.104328,0.513932 -0.21191,1.024286 -0.333307,1.534548 -0.07597,0.48491 -0.291731,0.924213 -0.489371,1.367177 -0.189294,0.479066 -0.325064,0.974871 -0.489778,1.462652 -0.1743,0.506812 -0.364627,1.007247 -0.52562,1.518842 -0.158357,0.358265 -0.259754,0.731483 -0.309505,1.118955 -0.0184,0.304144 -0.06283,0.609815 -0.165296,0.897811 -0.08953,0.312101 -0.208062,0.61217 -0.275667,0.9305 -0.09049,0.313401 -0.199303,0.621386 -0.281987,0.936996 -0.05645,0.31593 -0.194149,0.607886 -0.278307,0.916344 -0.128607,0.292366 -0.159064,0.609204 -0.298247,0.896371 -0.124837,0.290902 -0.234833,0.59173 -0.314198,0.8986 -0.05839,0.319223 -0.223324,0.599624 -0.30949,0.912517 -0.09968,0.292766 -0.218274,0.579857 -0.303353,0.877305 -0.124751,0.274171 -0.221911,0.559305 -0.341361,0.835424 -0.120451,0.313725 -0.272459,0.613726 -0.407148,0.921865 -0.120341,0.372886 -0.270161,0.731786 -0.458028,1.075819 -0.147426,0.319388 -0.28873,0.640763 -0.374329,0.98283 -0.06272,0.313751 -0.109525,0.632518 -0.20022,0.93996 -0.104324,0.334261 -0.237803,0.654812 -0.307274,0.999719 -0.0509,0.296698 -0.05242,0.59845 -0.05547,0.898543 0.02233,0.284812 -0.02027,0.56014 -0.06255,0.840133 -0.02112,0.260043 -0.06177,0.507424 -0.160596,0.749668 -0.0759,0.248205 -0.185426,0.482509 -0.285425,0.721264 -0.02427,0.04084 -0.05223,0.218021 -0.118863,0.233319 -0.02224,0.0051 -0.08331,-0.01438 -0.06346,-0.02564 2.109554,-1.196152 2.473047,-0.418025 2.107556,-1.173529 -0.04355,-0.197902 -0.03622,-0.402979 -0.0371,-0.604476 -0.02225,-0.294522 0.01952,-0.573735 0.101825,-0.855634 0.09159,-0.448434 0.271943,-0.869122 0.44852,-1.288769 0.156312,-0.344823 0.263661,-0.708847 0.402453,-1.059655 0.09608,-0.304488 0.203644,-0.60311 0.263373,-0.917573 0.129883,-0.355094 0.157209,-0.732264 0.182913,-1.10606 0.02276,-0.374621 0.0277,-0.749993 0.03073,-1.125194 0.0044,-0.346988 -0.0048,-0.693882 -0.007,-1.040834 -5.11e-4,-0.380929 0.0024,-0.76185 0.0042,-1.142772 -0.02852,-0.325341 0.05112,-0.617529 0.180131,-0.911767 0.137827,-0.386197 0.381198,-0.721534 0.609243,-1.05852 0.204296,-0.288858 0.319106,-0.623869 0.498638,-0.925576 0.157242,-0.31597 0.378598,-0.594251 0.582688,-0.880817 0.108205,-0.179281 0.229506,-0.369517 0.401049,-0.496451 0.0306,-0.02264 0.131955,-0.07601 0.0991,-0.05677 -0.671851,0.393501 -1.344073,0.78637 -2.016109,1.179555 0.04211,-0.257878 0.02142,0.375133 0.02032,0.385309 -0.0701,0.467334 -0.09794,0.938493 -0.108686,1.410426 0.02351,0.628715 -0.07586,1.245332 -0.220586,1.85465 -0.123958,0.597598 -0.31207,1.176528 -0.52552,1.747125 -0.163581,0.462149 -0.372646,0.904705 -0.567309,1.353747 -0.174839,0.417465 -0.34697,0.835394 -0.501878,1.260804 -0.126818,0.312418 -0.183202,0.646398 -0.286342,0.965108 -0.10066,0.29783 -0.139592,0.608881 -0.161588,0.920853 0.0062,0.289747 -0.07817,0.566507 -0.120766,0.851209 -0.02335,0.349947 -0.06805,0.701766 -0.164149,1.039718 -0.07112,0.31052 -0.155883,0.617871 -0.220028,0.929985 -0.04706,0.263908 -0.126213,0.519657 -0.167844,0.785123 -0.04605,0.130115 0.02051,0.325016 -0.06501,0.434906 -0.06621,0.192082 -0.164254,0.38484 -0.312318,0.5253 -0.02131,0.03173 -0.04262,0.06347 -0.06393,0.0952 0,0 2.235741,-0.967671 2.235741,-0.967671 v 0 c 0.02269,-0.02891 0.04538,-0.05782 0.06807,-0.08673 0.116413,-0.1943 0.225389,-0.39203 0.282706,-0.613421 0.01392,-0.15261 0.01761,-0.306241 0.04438,-0.457442 0.04708,-0.258138 0.117416,-0.511146 0.163289,-0.769581 0.07257,-0.307814 0.142497,-0.616141 0.218397,-0.923153 0.0726,-0.350113 0.118016,-0.70373 0.160174,-1.058495 0.05153,-0.288317 0.115407,-0.574061 0.113546,-0.868875 0.02942,-0.298159 0.0848,-0.591275 0.179571,-0.876251 0.08255,-0.319525 0.174369,-0.63537 0.28645,-0.946129 0.155611,-0.417551 0.314406,-0.83348 0.496874,-1.240286 0.206754,-0.446397 0.383686,-0.904793 0.553164,-1.366532 0.20394,-0.578736 0.375682,-1.167741 0.501219,-1.768873 0.135041,-0.62637 0.223201,-1.254688 0.209154,-1.897358 0.0281,-0.473958 0.07195,-0.945903 0.136522,-1.416365 0.01151,-0.286406 0.02963,-0.667729 -0.266459,-0.818522 -1.420036,0.816197 -1.964322,0.803848 -2.619111,1.853577 -0.204846,0.294245 -0.420649,0.581896 -0.576149,0.906872 -0.156927,0.306487 -0.298673,0.620914 -0.497548,0.904229 -0.226664,0.352696 -0.456646,0.70491 -0.593512,1.104734 -0.119394,0.323562 -0.168184,0.651209 -0.143714,0.996821 0.0018,0.379417 0.005,0.75883 0.0052,1.138253 -0.0014,0.348501 -0.0088,0.696959 -0.0046,1.045482 4.25e-4,0.367738 -2.99e-4,0.735881 -0.02766,1.102827 -0.03418,0.36874 -0.100509,0.728823 -0.209482,1.083257 -0.07403,0.301194 -0.178202,0.594087 -0.277047,0.887836 -0.117266,0.352057 -0.251045,0.69714 -0.389806,1.041341 -0.178344,0.43134 -0.336849,0.869906 -0.446846,1.324343 -0.07299,0.303456 -0.100101,0.607332 -0.08682,0.919643 0.0014,0.239186 0.0015,0.484103 0.08462,0.711702 0.451084,0.838203 0.05338,0.192254 2.296354,-0.934451 0.02681,-0.01347 0.0654,-0.312399 0.111216,-0.331298 0.101804,-0.240288 0.189538,-0.485739 0.273091,-0.732911 0.07638,-0.259475 0.114476,-0.522359 0.141497,-0.791218 0.0411,-0.288572 0.0552,-0.57639 0.04671,-0.86801 0.005,-0.285427 0.01332,-0.572732 0.07575,-0.852528 0.08377,-0.33543 0.219643,-0.653376 0.304905,-0.988376 0.07408,-0.312283 0.139315,-0.626303 0.206949,-0.939868 0.09963,-0.32292 0.239228,-0.632391 0.38831,-0.935257 0.170631,-0.354487 0.307758,-0.720398 0.451358,-1.086118 0.143337,-0.30872 0.292663,-0.615149 0.412585,-0.934064 0.109935,-0.286192 0.23896,-0.564696 0.335469,-0.855949 0.09791,-0.292376 0.201422,-0.582871 0.298336,-0.875612 0.104397,-0.30605 0.251232,-0.597361 0.310186,-0.917964 0.09324,-0.295333 0.195516,-0.588315 0.322491,-0.871039 0.109363,-0.302825 0.173982,-0.619787 0.289491,-0.921077 0.09816,-0.304664 0.209549,-0.605494 0.276122,-0.919499 0.09398,-0.31478 0.192958,-0.628087 0.277763,-0.945557 0.08215,-0.309803 0.197206,-0.609499 0.282609,-0.918524 0.07618,-0.305368 0.125781,-0.614185 0.147757,-0.928281 0.06176,-0.371023 0.180927,-0.724332 0.31152,-1.076503 0.161945,-0.50448 0.341613,-1.002698 0.508056,-1.505637 0.165687,-0.48828 0.322393,-0.979995 0.524332,-1.455051 0.196607,-0.450205 0.366296,-0.910692 0.452748,-1.396478 0.128921,-0.509949 0.226214,-1.024675 0.338363,-1.53832 0.120425,-0.503956 0.246266,-1.006387 0.373019,-1.508784 0.1377,-0.543783 0.252127,-1.092345 0.307571,-1.651457 0.106023,-0.646534 0.242568,-1.289557 0.40693,-1.923476 0.116922,-0.41502 0.214346,-0.835297 0.316871,-1.25403 0.09321,-0.363511 0.191032,-0.724762 0.313609,-1.07969 0.127328,-0.354217 0.263077,-0.704473 0.417844,-1.047826 0.189933,-0.429793 0.334213,-0.870903 0.465522,-1.321503 0,0 -2.203996,1.034901 -2.203996,1.034901 z" /><path
     style="fill:#4a4a4a"
     id="path1741"
     d="m 65.150761,78.617189 c 0.210892,-0.569027 0.472041,-1.121919 0.750359,-1.661921 0.307681,-0.708722 0.674674,-1.389228 0.985611,-2.09625 0.268542,-0.536585 0.451983,-1.111017 0.612821,-1.687561 0.119153,-0.627615 0.312566,-1.237692 0.507837,-1.845939 0.260212,-0.786488 0.600849,-1.542148 0.95387,-2.290361 0.350004,-0.816275 0.664126,-1.650432 0.960707,-2.487855 0.249031,-0.705124 0.354558,-1.447821 0.532966,-2.171461 0.201678,-0.737623 0.309931,-1.495104 0.499316,-2.235429 0.159407,-0.691486 0.394812,-1.358266 0.690705,-2.002168 0.312979,-0.838608 0.629534,-1.67476 0.955371,-2.50845 0.359039,-0.851971 0.669717,-1.722794 0.931178,-2.609433 0.255818,-0.910921 0.53324,-1.814995 0.81116,-2.719359 0.180166,-0.623778 0.345596,-1.253277 0.480275,-1.888708 0.06306,-0.300058 0.06746,-0.605797 0.129547,-0.905383 0.05683,-0.258404 0.05145,-0.524242 0.05056,-0.787165 0.0034,-0.412198 0.0012,-0.824388 0.0025,-1.23659 0.0019,-0.352172 0.0037,-0.704341 0.0042,-1.056519 -0.0048,-0.355064 -0.0017,-0.71017 -7.58e-4,-1.06525 0.0019,-0.307227 0.0021,-0.614453 0.0018,-0.921685 0.0063,-0.244079 -0.0095,-0.489344 0.0103,-0.732964 -0.724932,0.412323 -1.480137,0.775466 -2.174797,1.236969 -0.05619,0.03733 0.0067,0.134772 0.0085,0.202209 0.01056,0.380397 0.0093,0.761117 0.01291,1.14161 4.1e-4,0.632685 -0.0048,1.265192 0.0017,1.89787 -0.0635,0.68632 -0.07615,1.378411 -0.160933,2.062424 -0.07379,0.588353 -0.12224,1.177261 -0.211901,1.763323 -0.05776,0.478159 -0.225009,0.932346 -0.367297,1.389727 -0.232973,0.771736 -0.516887,1.527104 -0.818319,2.274375 -0.328143,0.853026 -0.680081,1.6916 -1.058618,2.523647 -0.280231,0.65668 -0.578006,1.306748 -0.839096,1.971392 0.201066,-0.116973 -0.213007,0.308781 -0.126768,0.263415 2.419068,-1.27255 2.049208,-0.497931 2.230754,-2.122028 0.123779,-1.213146 0.36366,-2.406212 0.672429,-3.584444 0.199103,-0.757195 0.405102,-1.513991 0.571841,-2.27915 0.06284,-0.43884 0.177287,-0.866231 0.271849,-1.298659 0.176386,-0.595928 0.339449,-1.192394 0.542493,-1.780198 0.02959,-0.09034 0.06079,-0.180179 0.08877,-0.271034 0.04975,-0.161518 0.0869,-0.299185 0.12091,-0.463792 0.02771,-0.134091 0.02723,-0.293231 0.09461,-0.414825 -0.736127,0.386857 -1.500573,0.724051 -2.208382,1.160569 -0.0627,0.03867 -0.02032,0.145928 -0.02875,0.219106 -0.01353,0.117524 -0.02412,0.235372 -0.03713,0.352956 -0.06266,0.566244 -0.155437,1.119474 -0.262643,1.67903 -0.271765,1.216577 -0.63646,2.408935 -0.989264,3.603627 -0.210242,0.847381 -0.430692,1.692657 -0.619525,2.545132 -0.03196,0.107783 -0.05595,0.218259 -0.09589,0.323348 -0.116175,0.305681 -0.287531,0.595341 -0.419273,0.894683 -0.08694,0.197539 -0.165093,0.398865 -0.251968,0.596432 -0.202395,0.508791 -0.417033,1.003652 -0.70757,1.469006 -0.27167,0.561166 -0.496492,1.140845 -0.700944,1.729304 -0.148807,0.576076 -0.349711,1.136425 -0.490934,1.714442 -0.119331,0.413633 -0.197032,0.835733 -0.3088,1.250992 -0.08867,0.209741 -0.156013,0.426841 -0.214597,0.646532 0,0 2.19076,-1.042241 2.19076,-1.042241 v 0 c 0.0634,-0.217393 0.140967,-0.42982 0.205466,-0.64686 0.10405,-0.414659 0.174117,-0.837068 0.294081,-1.247996 0.138315,-0.56811 0.322554,-1.12327 0.483668,-1.685113 0.206144,-0.583526 0.437549,-1.159648 0.744758,-1.698419 0.262763,-0.478469 0.458261,-0.984534 0.672824,-1.485603 0.25925,-0.612714 0.579616,-1.206423 0.741357,-1.85436 0.171705,-0.841623 0.371811,-1.677685 0.58365,-2.510009 0.331094,-1.198557 0.682972,-2.392222 0.952994,-3.606606 0.121273,-0.573052 0.220483,-1.146319 0.323573,-1.722668 0.02148,-0.120101 0.04347,-0.240125 0.06741,-0.359762 0.01666,-0.08327 0.134698,-0.276406 0.05436,-0.248892 -0.755995,0.258904 -1.458678,0.653068 -2.188017,0.979602 -0.0031,0.379526 -0.157913,0.74644 -0.255082,1.10724 -0.194433,0.599088 -0.371985,1.203523 -0.548534,1.807908 -0.106955,0.429881 -0.204928,0.860299 -0.262915,1.30002 -0.153244,0.749144 -0.324511,1.495077 -0.507207,2.237518 -0.292891,1.192567 -0.515421,2.39954 -0.678544,3.616877 -0.01225,0.07739 -0.126624,0.763569 -0.129533,0.899659 -0.0022,0.102102 -0.0623,0.340146 0.03342,0.304547 2.066893,-0.768714 1.93573,-0.418671 2.271601,-1.391837 0.243925,-0.651683 0.512703,-1.294139 0.789599,-1.932391 0.382479,-0.834049 0.732318,-1.678313 1.058131,-2.53602 0.301487,-0.763801 0.603815,-1.528647 0.855187,-2.310665 0.150596,-0.466759 0.309684,-0.932101 0.351716,-1.424731 0.08408,-0.586281 0.115396,-1.177897 0.193637,-1.765087 0.06284,-0.693376 0.103001,-1.389276 0.147341,-2.084022 0.0065,-0.633255 0.0013,-1.266338 0.0017,-1.899599 0.0036,-0.384884 0.0025,-0.769974 0.01291,-1.154766 0.0019,-0.07033 0.07484,-0.234421 0.0085,-0.210902 -0.749295,0.26577 -1.449864,0.65284 -2.174797,0.97926 0.02128,0.239954 0.0029,0.481991 0.0103,0.722466 -3.03e-4,0.306637 -1.6e-4,0.61327 0.0018,0.919903 9.88e-4,0.355328 0.0041,0.710681 -4.86e-4,1.065996 7.96e-4,0.350517 0.0031,0.701021 0.0055,1.05153 0.0014,0.411233 5.69e-4,0.822583 -0.0095,1.233704 -0.01301,0.255744 -0.03098,0.511068 -0.08235,0.762513 -0.04244,0.294873 -0.04438,0.594578 -0.106078,0.887088 -0.118289,0.622365 -0.274709,1.237258 -0.446063,1.846931 -0.270815,0.90322 -0.533448,1.808824 -0.798491,2.713751 -0.272302,0.880753 -0.599551,1.741227 -0.945501,2.595515 -0.3267,0.834659 -0.632454,1.677276 -0.976465,2.504911 -0.291603,0.657976 -0.523888,1.339 -0.676253,2.043484 -0.173998,0.743037 -0.295911,1.497361 -0.496135,2.234659 -0.169926,0.716322 -0.294988,1.445019 -0.53192,2.143864 -0.296753,0.835009 -0.606333,1.668083 -0.980026,2.4721 -0.347149,0.755667 -0.675204,1.520809 -0.932964,2.312358 -0.202773,0.61713 -0.416756,1.230708 -0.539793,1.869811 -0.16804,0.56376 -0.349043,1.122188 -0.609838,1.65143 -0.306466,0.703722 -0.665093,1.383166 -0.986074,2.080289 -0.284032,0.554794 -0.528332,1.127746 -0.803627,1.68683 0,0 2.216411,-1.000754 2.216411,-1.000754 z" /><circle
     id="path1743"
     style="fill:#4a4a4a;stroke:#000000"
     cx="63.92382"
     cy="79.259598"
     r="0.08204665" /><circle
     id="path1745"
     style="fill:#4a4a4a;stroke:#000000"
     cx="63.92382"
     cy="79.259598"
     r="0.08204665" /><circle
     id="path1747"
     style="fill:#4a4a4a;stroke:#000000"
     cx="64.413307"
     cy="79.094437"
     r="0.08204665" /><circle
     id="path1749"
     style="fill:#4a4a4a;stroke:#000000"
     cx="64.413307"
     cy="79.094437"
     r="0.08204665" /><circle
     id="path1751"
     style="fill:#4a4a4a;stroke:#000000"
     cx="64.413307"
     cy="79.452301"
     r="0.08204665" /><circle
     id="path1753"
     style="fill:#4a4a4a;stroke:#000000"
     cx="64.413307"
     cy="79.452301"
     r="0.08204665" /><circle
     id="path1755"
     style="fill:#4a4a4a;stroke:#000000"
     cx="63.962276"
     cy="79.371979"
     r="0.08204665" /><circle
     id="path1757"
     style="fill:#4a4a4a;stroke:#000000"
     cx="63.962276"
     cy="79.371979"
     r="0.08204665" /><circle
     id="path1759"
     style="fill:#4a4a4a;stroke:#000000"
     cx="63.962276"
     cy="79.371979"
     r="0.08204665" /><circle
     id="path1761"
     style="fill:#4a4a4a;stroke:#000000"
     cx="63.962276"
     cy="79.371979"
     r="0.08204665" /><circle
     id="path1763"
     style="fill:#4a4a4a;stroke:#000000"
     cx="63.962276"
     cy="79.371979"
     r="0.08204665" /><circle
     id="path1765"
     style="fill:#4a4a4a;stroke:#000000"
     cx="63.962276"
     cy="79.371979"
     r="0.08204665" /><circle
     id="path1767"
     style="fill:#4a4a4a;stroke:#000000"
     cx="63.962276"
     cy="79.371979"
     r="0.08204665" /><circle
     id="path1769"
     style="fill:#4a4a4a;stroke:#000000"
     cx="63.962276"
     cy="79.371979"
     r="0.08204665" /><circle
     id="path1771"
     style="fill:#4a4a4a;stroke:#000000"
     cx="63.962276"
     cy="79.371979"
     r="0.08204665" /><circle
     id="path1773"
     style="fill:#4a4a4a;stroke:#000000"
     cx="63.962276"
     cy="79.371979"
     r="0.08204665" /><circle
     id="path1775"
     style="fill:#4a4a4a;stroke:#000000"
     cx="63.962276"
     cy="79.371979"
     r="0.08204665" /><circle
     id="path1777"
     style="fill:#4a4a4a;stroke:#000000"
     cx="63.962276"
     cy="79.371979"
     r="0.08204665" /></svg>
