<?xml version="1.0" encoding="UTF-8" standalone="no"?>
<svg
   version="1.1"
   viewBox="-5 -10 80.105568 66.203796"
   id="svg2686"
   sodipodi:docname="noun-cctv-7408838.svg"
   width="80.105568"
   height="66.203796"
   xmlns:inkscape="http://www.inkscape.org/namespaces/inkscape"
   xmlns:sodipodi="http://sodipodi.sourceforge.net/DTD/sodipodi-0.dtd"
   xmlns="http://www.w3.org/2000/svg"
   xmlns:svg="http://www.w3.org/2000/svg">
  <defs
     id="defs2690" />
  <sodipodi:namedview
     id="namedview2688"
     pagecolor="#ffffff"
     bordercolor="#000000"
     borderopacity="0.25"
     inkscape:showpageshadow="2"
     inkscape:pageopacity="0.0"
     inkscape:pagecheckerboard="0"
     inkscape:deskcolor="#d1d1d1"
     showgrid="false" />
  <path
     d="m -4.000894,56.20376 h 5.3984 c 0.60156,0 1,-0.39844 1,-1 v -5.8984 h 4.3984 c 0.60156,0 1,-0.39844 1,-1 v -1.3984 h 14.102 c 0.10156,0 0.19922,0 0.30078,-0.10156 h 0.10156 c 0.10156,0 0.19922,-0.10156 0.30078,-0.19922 v -0.10156 l 0.10156,-0.10156 12.602,-18.801 22.801,11.5 c 0.10156,0.10156 0.30078,0.10156 0.5,0.10156 0.39844,0 0.69922,-0.19922 0.89844,-0.5 l 1.6016,-3.1992 0.89844,0.39844 c 0.69922,0.39844 1.5,0.5 2.3008,0.5 0.5,0 1,-0.10156 1.5,-0.19922 1.3008,-0.39844 2.3008,-1.3008 2.8984,-2.5 1.1992,-2.3984 0.30078,-5.3984 -2.1016,-6.6016 l -0.89844,-0.5 1.6016,-3.1992 c 0.19922,-0.39844 0.10156,-0.80078 -0.19922,-1.1016 l 7.3984,-3.3008 c 0.39844,-0.19922 0.60156,-0.5 0.60156,-0.89844 0,-0.39844 -0.19922,-0.69922 -0.5,-0.89844 l -54.207,-27.102 C 20.199346,-10 19.898566,-10 19.597786,-10 c -0.30078,0.10156 -0.5,0.30078 -0.60156,0.5 l -7.1016,14 c -0.19922,0.5 -0.10156,1.1016 0.39844,1.3008 l 3.1016,1.6016 -3.6992,7.1992 c -0.19922,0.5 -0.10156,1.1016 0.39844,1.3008 l 16.398,8.3008 -9.9922,15.297 h -10.699 v -1.3984 c 0,-0.60156 -0.39844,-1 -1,-1 h -4.3984 l -0.0039,-6 c 0,-0.60156 -0.39844,-1 -1,-1 h -5.3984 c -0.60156,0 -1,0.39844 -1,1 v 24.102 c 0,0.59766 0.39844,1 1,1 z m 69.5,-27.203 c 1.3984,0.69922 2,2.5 1.3008,3.8984 -0.39844,0.69922 -1,1.1992 -1.6992,1.5 -0.80078,0.19922 -1.6016,0.19922 -2.3008,-0.19922 l -0.80078,-0.39844 2.6992,-5.1992 z m -51.301,-24.5 6.1992,-12.199 51.199,25.898 -16.199,7.1992 z m -0.09766,10.203 3.1992,-6.3008 37.699,19 c 0.10156,0.10156 0.30078,0.10156 0.5,0.10156 0.10156,0 0.30078,0 0.39844,-0.10156 l 8.8008,-3.8984 0.19922,0.10156 -6.8008,13.398 -27.297,-13.902 z m -6.3008,26.797 h 11.199 c 0.10156,0 0.19922,0 0.30078,-0.10156 h 0.10156 c 0.10156,0 0.19922,-0.10156 0.30078,-0.19922 l 0.10156,-0.10156 10.602,-15.801 3.1016,1.6016 -12.109,18.004 h -13.598 z m -5.4023,-2.3984 h 3.3984 v 8.1953 h -3.3984 z m -5.3984,-7 h 3.3984 v 22.098 l -3.3984,0.0039 z"
     id="path2674"
     style="fill:#666666" />
  <path
     d="m 49.651106,12.41076 c 2.8945,1.3594 0.85156,5.7031 -2.043,4.3398 -2.8984,-1.3594 -0.85547,-5.7031 2.043,-4.3398"
     id="path2676"
     style="fill:#666666" />
  <path
     d="m 41.101106,8.10176 c -1.3008,-0.30078 -2.6016,0.60156 -2.8984,1.8984 -0.30078,1.3008 0.60156,2.6016 1.8984,2.8984 1.3008,0.30078 2.6016,-0.60156 2.8984,-1.8984 0.30078,-1.3984 -0.5,-2.6992 -1.8984,-2.8984 z"
     id="path2678"
     style="fill:#666666" />
  <path
     d="m 33.647106,4.10176 c 2.9102,1.3281 0.91797,5.6953 -1.9922,4.3672 -2.9102,-1.3281 -0.91797,-5.6953 1.9922,-4.3672"
     id="path2680"
     style="fill:#666666" />
</svg>
