<?xml version="1.0" encoding="UTF-8" standalone="no"?>
<svg
   viewBox="0 0 48.042858 47.999878"
   x="0px"
   y="0px"
   version="1.1"
   id="svg14"
   sodipodi:docname="cctv.svg"
   width="48.042858"
   height="47.999878"
   inkscape:version="1.1.2 (0a00cf5339, 2022-02-04)"
   xmlns:inkscape="http://www.inkscape.org/namespaces/inkscape"
   xmlns:sodipodi="http://sodipodi.sourceforge.net/DTD/sodipodi-0.dtd"
   xmlns="http://www.w3.org/2000/svg"
   xmlns:svg="http://www.w3.org/2000/svg"
   xmlns:rdf="http://www.w3.org/1999/02/22-rdf-syntax-ns#"
   xmlns:cc="http://creativecommons.org/ns#"
   xmlns:dc="http://purl.org/dc/elements/1.1/">
  <defs
     id="defs18" />
  <sodipodi:namedview
     id="namedview16"
     pagecolor="#ffffff"
     bordercolor="#666666"
     borderopacity="1.0"
     inkscape:pageshadow="2"
     inkscape:pageopacity="0.0"
     inkscape:pagecheckerboard="0"
     showgrid="false"
     fit-margin-top="0"
     fit-margin-left="0"
     fit-margin-right="0"
     fit-margin-bottom="0"
     inkscape:zoom="12.683333"
     inkscape:cx="23.968463"
     inkscape:cy="30"
     inkscape:window-width="1850"
     inkscape:window-height="1025"
     inkscape:window-x="1990"
     inkscape:window-y="27"
     inkscape:window-maximized="1"
     inkscape:current-layer="svg14" />
  <title
     id="title2">CCTV</title>
  <g
     id="g8"
     transform="translate(0,-1.2060207e-4)"
     style="fill:#464646">
    <path
       id="path4"
       style="fill:#464646"
       transform="translate(0,1.2060207e-4)"
       d="M 15.279297,0.02929688 A 1,1 0 0 0 14.089844,0.6796875 l -2,6 A 1,1 0 0 0 12.740234,8 l 1.378907,0.359375 -0.59961,2.240234 A 8.28,8.28 0 0 0 4,18.769531 V 30 H 1 a 1,1 0 0 0 -1,1 v 16 a 1,1 0 0 0 1,1 h 4 a 5,5 0 0 0 5,-5 v -1 h 9 a 5,5 0 1 0 7,-7 C 26,23.28 25.9,24.779141 26.25,24.869141 A 3,3 0 0 0 29.919922,22.75 l 0.259766,-1 c 9.719999,2.61 8.500703,3.069453 9.470703,-0.560547 A 23.16,23.16 0 0 0 42.810547,22 a 1,1 0 0 0 1,-0.75 l 1.558594,-5.791016 A 1,1 0 0 0 44.660156,14.230469 L 43.439453,14 C 48.049453,9.36 48.17,9.4804687 48,8.7304688 47.76,7.8704676 49.489297,8.5792969 15.279297,0.02929688 Z M 15.669922,2.1894531 45,9.5390625 l -5.300781,5.3398435 -0.0039,-0.002 c -0.02175,0.02945 -0.01969,0.0259 -0.05859,0.07813 -0.03177,0.04262 -0.0646,0.08386 -0.0957,0.126953 -6.13e-4,0.0049 -0.0017,0.01165 -0.002,0.01563 -0.0047,0.0091 -0.0291,0.02802 -0.02344,0.01953 0.0081,-0.01212 0.01687,-0.02335 0.02539,-0.03516 0.007,-0.05637 0.03338,-0.16786 0.0078,-0.130859 -0.07078,0.146739 -0.142111,0.294667 -0.21289,0.441406 0.0072,-6e-4 0.02185,-0.0066 0.02734,-0.0059 l 0.002,0.002 c -0.01096,0.03665 -0.04224,0.06503 -0.05859,0.09961 -0.02683,0.05674 -0.04649,0.115758 -0.07031,0.173828 l -0.09766,0.205079 c -0.02513,0.198533 -0.134212,0.372078 -0.201172,0.55664 -0.03503,0.09656 -0.05127,0.198285 -0.08008,0.296875 -0.06336,0.110606 -0.09181,0.160853 -0.113281,0.199219 l -1.273438,4.769531 -23.201172,-6.208984 1.791016,-6.6308596 0.0918,0.025391 c 0.0022,-0.00582 0.0055,-0.011742 0.0078,-0.017578 -0.01245,-0.102376 0.0051,-0.228463 0.06836,-0.375 0.17004,-0.3939459 0.248341,-0.821656 0.414062,-1.2167969 0.03313,-0.078994 0.07643,-0.1541939 0.111328,-0.2324219 -0.01049,0.074034 -0.05894,0.2921143 -0.03125,0.2226563 L 16.787109,6.96875 C 15.901897,6.7341444 15.389592,6.6008481 14.300781,6.3105469 Z m 2.326172,5.0996094 c -0.0015,0.00689 -0.0042,0.014534 -0.0059,0.021484 0.0013,-1.216e-4 0.0026,1.049e-4 0.0039,0 0.029,-0.00231 0.05965,-5.527e-4 0.08984,0.00195 -0.04319,-0.011431 -0.04426,-0.01189 -0.08789,-0.023437 z m 0.0625,0.6289063 -0.283203,0.017578 c -9.57e-4,0.00273 -0.003,0.00508 -0.0039,0.00781 0.0943,-0.004 0.188964,-0.00835 0.283204,-0.00977 9.07e-4,-0.00544 0.003,-0.010166 0.0039,-0.015625 z m 5.777344,0.9765624 c 0.0051,0.00217 0.01052,0.00368 0.01562,0.00586 0.03648,0.018373 0.05467,0.02661 0.08008,0.039063 0.05601,8.4e-6 0.111964,1.995e-4 0.167968,0 -0.02074,-0.00348 -0.146636,-0.025254 -0.263671,-0.044922 z m 5.048828,1.6328128 c -0.0033,0.01431 -0.0073,0.02799 -0.01367,0.04101 0.01237,-4.88e-4 0.02474,-0.0013 0.03711,-0.002 l -0.0078,-0.01563 c -0.0043,-0.0088 -0.01131,-0.01497 -0.01563,-0.02344 z M 13,12.529297 12.080078,15.929688 a 1,1 0 0 0 0.708984,1.230468 l 5.800782,1.548828 -0.259766,1 A 3,3 0 0 0 20,23.179688 V 35 a 4.46,4.46 0 0 0 -1,1 H 10 V 35 A 5,5 0 0 0 6,30.099609 V 18.769531 a 6.27,6.27 0 0 1 7,-6.240234 z m 21.175781,0.841797 c 0.006,0.0026 0.01161,0.0052 0.01758,0.0078 v -0.002 z m 2.414063,0.660156 c -0.0035,0.02098 -0.0069,0.04273 -0.0098,0.0625 0.01743,-0.01709 0.03533,-0.03367 0.05273,-0.05078 z m 5.25,1.609375 L 43.140625,16 l -1,3.859375 -1.929687,-0.519531 c 0.909998,-3.39 0.528906,-2.599219 1.628906,-3.699219 z m -3.978516,0.328125 c -0.0013,0.0019 -0.0026,0.0039 -0.0039,0.0059 6.2e-5,0.0039 -5.8e-5,0.0078 0,0.01172 0.0011,-0.0033 0.0027,-0.0065 0.0039,-0.0098 3.7e-5,-0.0026 -3.8e-5,-0.0052 0,-0.0078 z m -17.310547,3.220703 7.728516,2.070313 -0.279297,1 a 1,1 0 0 1 -1.220703,0.710937 L 21,21.419922 A 1,1 0 0 1 20.289062,20.189453 Z M 22,23.759766 l 2,0.541015 v 9.798828 a 5,5 0 0 0 -2,0 z M 2,32 h 3 a 3,3 0 0 1 3,3 v 8 A 3,3 0 0 1 5,46 H 2 Z m 21,4 A 3,3 0 0 1 24.148438,36.228516 3,3 0 0 1 26,39 a 3,3 0 0 1 -3,3 3,3 0 0 1 0,-6 z m -13,2 h 8.099609 a 5,5 0 0 0 0,2 H 10 Z" />
    <path
       d="m 23,38 a 1,1 0 0 0 0,2 1,1 0 0 0 0,-2 z"
       id="path6"
       style="fill:#464646" />
  </g>
  <metadata
     id="metadata20">
    <rdf:RDF>
      <cc:Work
         rdf:about="">
        <dc:title>CCTV</dc:title>
      </cc:Work>
    </rdf:RDF>
  </metadata>
</svg>
