<?xml version="1.0" encoding="UTF-8" standalone="no"?>
<svg
   viewBox="0 0 58 58"
   x="0px"
   y="0px"
   version="1.1"
   id="svg3920"
   sodipodi:docname="noun-ceiling-4915408.svg"
   width="58"
   height="58"
   xmlns:inkscape="http://www.inkscape.org/namespaces/inkscape"
   xmlns:sodipodi="http://sodipodi.sourceforge.net/DTD/sodipodi-0.dtd"
   xmlns="http://www.w3.org/2000/svg"
   xmlns:svg="http://www.w3.org/2000/svg">
  <defs
     id="defs3924" />
  <sodipodi:namedview
     id="namedview3922"
     pagecolor="#ffffff"
     bordercolor="#000000"
     borderopacity="0.25"
     inkscape:showpageshadow="2"
     inkscape:pageopacity="0.0"
     inkscape:pagecheckerboard="0"
     inkscape:deskcolor="#d1d1d1"
     showgrid="false" />
  <path
     d="M 57,0 H 1 C 0.45,0 0,0.45 0,1 v 56 c 0,0.55 0.45,1 1,1 0.55,0 1,-0.45 1,-1 V 5.24 l 8,16 V 49 c 0,0.55 0.45,1 1,1 0.55,0 1,-0.45 1,-1 V 22 h 34 v 27 c 0,0.55 0.45,1 1,1 0.55,0 1,-0.45 1,-1 V 21.24 l 8,-16 V 57 c 0,0.55 0.45,1 1,1 0.55,0 1,-0.45 1,-1 V 1 C 58,0.45 57.55,0 57,0 Z M 46.38,20 H 11.62 l -9,-18 h 52.76 z"
     id="path3912"
     style="fill:#0000e2" />
  <path
     d="M 51.38,4.47 C 51.2,4.18 50.88,4 50.53,4 H 7.47 C 7.12,4 6.8,4.18 6.62,4.47 6.44,4.76 6.42,5.13 6.58,5.44 l 6,12 c 0.17,0.34 0.52,0.55 0.89,0.55 h 31.06 c 0.38,0 0.72,-0.21 0.89,-0.55 l 6,-12 C 51.58,5.13 51.56,4.76 51.38,4.47 Z M 28,6 v 4 H 11.09 l -2,-4 z M 12.09,12 H 28 v 4 H 14.09 Z m 31.82,4 H 30 v -4 h 15.91 z m 3,-6 H 30 V 6 h 18.91 z"
     id="path3914"
     style="fill:#0000e2" />
</svg>
