<?xml version="1.0" encoding="UTF-8" standalone="no"?>
<svg
   data-name="Layer 1"
   viewBox="0 0 488.19199 359.65701"
   x="0px"
   y="0px"
   version="1.1"
   id="svg10"
   sodipodi:docname="child-playground.svg"
   width="488.19199"
   height="359.65701"
   inkscape:version="1.2.2 (b0a8486541, 2022-12-01)"
   xmlns:inkscape="http://www.inkscape.org/namespaces/inkscape"
   xmlns:sodipodi="http://sodipodi.sourceforge.net/DTD/sodipodi-0.dtd"
   xmlns="http://www.w3.org/2000/svg"
   xmlns:svg="http://www.w3.org/2000/svg"
   xmlns:rdf="http://www.w3.org/1999/02/22-rdf-syntax-ns#"
   xmlns:cc="http://creativecommons.org/ns#"
   xmlns:dc="http://purl.org/dc/elements/1.1/">
  <defs
     id="defs14" />
  <sodipodi:namedview
     id="namedview12"
     pagecolor="#ffffff"
     bordercolor="#000000"
     borderopacity="0.25"
     inkscape:showpageshadow="2"
     inkscape:pageopacity="0.0"
     inkscape:pagecheckerboard="0"
     inkscape:deskcolor="#d1d1d1"
     showgrid="false"
     inkscape:zoom="1.3546875"
     inkscape:cx="244.70588"
     inkscape:cy="244.70588"
     inkscape:window-width="1920"
     inkscape:window-height="1044"
     inkscape:window-x="3840"
     inkscape:window-y="0"
     inkscape:window-maximized="1"
     inkscape:current-layer="svg10" />
  <title
     id="title2">Slider</title>
  <path
     d="m 480.431,225.657 h -51.933 a 31.576,31.576 0 0 1 -22.627,-9.148 L 211.882,22.619 A 47.592,47.592 0 0 0 177.941,8.657 H 118.192 V 8 a 8,8 0 0 0 -16,0 v 55.657 h -86 V 8 a 8,8 0 0 0 -16,0 V 69.687 C 0.192,70.244 0,70.821 0,71.415 c 0,0.594 0.192,1.172 0.192,1.729 v 56.577 c 0,0.557 -0.192,1.134 -0.192,1.728 0,0.594 0.192,1.171 0.192,1.728 v 55.8 c 0,0.557 -0.192,1.134 -0.192,1.728 0,0.594 0.192,1.172 0.192,1.729 v 55.8 c 0,0.557 -0.192,1.134 -0.192,1.728 0,0.594 0.192,1.171 0.192,1.729 v 55.8 c 0,0.557 -0.192,1.135 -0.192,1.729 0,0.594 0.192,1.171 0.192,1.728 v 40.374 a 8,8 0 0 0 16,0 v -33.665 h 86 v 33.657 a 8,8 0 0 0 16,0 V 141.657 h 10.638 a 31.874,31.874 0 0 1 22.627,9.463 l 193.988,194.237 a 47.921,47.921 0 0 0 33.941,14.3 h 101.045 c 4.418,0 7.761,-3.981 7.761,-8.4 v -117.15 c 0,-4.419 -3.343,-8.45 -7.761,-8.45 z m -464.239,-86 h 86 v 43 h -86 z m 0,59 h 86 v 43 h -86 z m 86,-119 v 44 h -86 v -44 z m -86,222 v -44 h 86 v 44 z m 456,42 h -92.806 a 31.981,31.981 0 0 1 -22.627,-9.573 L 162.771,139.907 a 47.868,47.868 0 0 0 -33.941,-14.25 h -10.638 v -101 h 59.749 a 31.8,31.8 0 0 1 22.627,9.388 l 193.988,193.77 a 47.482,47.482 0 0 0 33.942,13.842 h 43.694 z"
     id="path4"
     style="fill:#6a6a6a" />
  <metadata
     id="metadata196">
    <rdf:RDF>
      <cc:Work
         rdf:about="">
        <dc:title>Slider</dc:title>
      </cc:Work>
    </rdf:RDF>
  </metadata>
</svg>
