<?xml version="1.0" encoding="UTF-8" standalone="no"?>
<svg
   version="1.1"
   x="0px"
   y="0px"
   viewBox="0 0 69.084671 69.136299"
   enable-background="new 0 0 100 100"
   xml:space="preserve"
   id="svg10"
   sodipodi:docname="circle_toggle_off.svg"
   width="69.084671"
   height="69.136299"
   inkscape:version="1.1.2 (0a00cf5339, 2022-02-04)"
   xmlns:inkscape="http://www.inkscape.org/namespaces/inkscape"
   xmlns:sodipodi="http://sodipodi.sourceforge.net/DTD/sodipodi-0.dtd"
   xmlns="http://www.w3.org/2000/svg"
   xmlns:svg="http://www.w3.org/2000/svg"><defs
     id="defs14" /><sodipodi:namedview
     id="namedview12"
     pagecolor="#ffffff"
     bordercolor="#666666"
     borderopacity="1.0"
     inkscape:pageshadow="2"
     inkscape:pageopacity="0.0"
     inkscape:pagecheckerboard="0"
     showgrid="false"
     fit-margin-top="0"
     fit-margin-left="0"
     fit-margin-right="0"
     fit-margin-bottom="0"
     inkscape:zoom="6.088"
     inkscape:cx="33.837057"
     inkscape:cy="47.552562"
     inkscape:window-width="1850"
     inkscape:window-height="1025"
     inkscape:window-x="1990"
     inkscape:window-y="27"
     inkscape:window-maximized="1"
     inkscape:current-layer="svg10" /><g
     id="g4"
     transform="translate(-16.152325,-14.910519)"
     style="fill:#4f4f4f"><path
       d="m 84.271,51.919 0.569,-0.548 0.117,-0.117 -0.006,-0.009 c 0.17,-0.218 0.271,-0.492 0.284,-0.784 0.021,-0.393 -0.125,-0.744 -0.364,-0.98 H 84.854 C 84.715,49.359 84.553,49.266 84.377,49.218 L 84.891,48.627 85,48.501 84.99,48.494 c 0.15,-0.23 0.223,-0.512 0.207,-0.804 -0.031,-0.608 -0.436,-1.085 -0.953,-1.185 0,0 0.516,-0.632 0.498,-0.633 l 0.092,-0.134 -0.008,-0.007 c 0.125,-0.241 0.17,-0.526 0.125,-0.816 -0.09,-0.603 -0.543,-1.045 -1.068,-1.102 L 84.326,43.142 84.416,43 84.408,42.994 c 0.125,-0.254 0.168,-0.546 0.086,-0.828 -0.098,-0.382 -0.34,-0.686 -0.645,-0.854 L 83.08,41.5 83.836,41.314 C 83.676,41.228 83.5,41.175 83.32,41.17 l 0.377,-0.703 0.076,-0.149 -0.008,-0.005 c 0.096,-0.262 0.108,-0.556 0.034,-0.839 -0.155,-0.589 -0.728,-0.936 -1.248,-0.909 l 0.312,-0.728 0.061,-0.154 -0.01,-0.004 c 0.072,-0.268 0.057,-0.56 -0.043,-0.834 -0.203,-0.576 -0.744,-0.897 -1.289,-0.817 l 0.242,-0.747 0.049,-0.158 -0.012,-0.004 C 81.91,34.848 81.867,34.56 81.74,34.297 81.568,33.942 81.271,33.699 80.947,33.604 l -1.031,0.542 c 0,0 -0.219,0.723 -0.484,1.498 -0.037,0.11 -0.076,0.222 -0.115,0.333 -0.312,0.893 -0.649,1.729 -0.649,1.729 -0.442,0.158 -0.955,-0.02 -1.147,-0.422 -0.099,-0.202 -0.105,-0.432 -0.021,-0.649 0,0 0.139,-0.371 0.277,-0.741 0.135,-0.38 0.268,-0.76 0.268,-0.76 l -0.375,0.198 -0.061,0.17 c -0.137,0.062 -0.279,0.085 -0.416,0.08 l -0.019,0.009 c -0.289,-0.017 -0.541,-0.175 -0.707,-0.425 -0.116,-0.191 -0.146,-0.417 -0.082,-0.64 0,0 0.349,-1.202 0.634,-2.505 0.032,-0.147 0.051,-0.284 0.078,-0.428 0.088,-0.489 0.151,-0.959 0.206,-1.343 0.062,-0.496 0.103,-0.827 0.103,-0.827 0.395,-0.264 0.949,-0.152 1.262,0.268 0.156,0.209 0.227,0.459 0.195,0.702 0,0 -0.051,0.325 -0.146,0.809 -0.094,0.483 -0.229,1.117 -0.373,1.732 -0.037,0.158 -0.074,0.315 -0.113,0.468 -0.108,0.443 -0.219,0.857 -0.309,1.183 -0.127,0.442 -0.242,0.743 -0.242,0.743 l 0.375,-0.198 c 0,0 0.072,-0.215 0.182,-0.538 0.06,-0.228 0.134,-0.515 0.211,-0.813 0.031,-0.121 0.062,-0.239 0.097,-0.362 0.215,-0.866 0.397,-1.78 0.397,-1.78 0.414,-0.231 0.953,-0.071 1.226,0.375 0.135,0.224 0.183,0.48 0.129,0.721 0,0 -0.08,0.351 -0.16,0.702 -0.09,0.353 -0.202,0.708 -0.204,0.708 l 1.008,-0.53 c -0.172,-0.048 -0.353,-0.058 -0.525,-0.021 0,0 0.064,-0.198 0.104,-0.386 0.043,-0.19 0.086,-0.381 0.086,-0.381 l 0.033,-0.16 -0.012,-0.003 C 80.648,32.39 80.58,32.109 80.428,31.858 80.112,31.337 79.526,31.106 79.022,31.26 l 0.148,-0.795 0.027,-0.167 -0.01,-0.002 c 0,-0.272 -0.097,-0.543 -0.271,-0.778 -0.363,-0.489 -0.971,-0.667 -1.465,-0.472 l 0.078,-0.799 0.014,-0.168 -0.012,-0.001 C 77.514,27.802 77.43,27.511 77.226,27.301 76.961,27.009 76.607,26.855 76.258,26.846 l -0.299,0.266 0.289,-0.256 C 76.063,26.854 75.885,26.89 75.724,26.97 L 75.732,26.173 75.73,26.006 H 75.717 C 75.683,25.73 75.558,25.464 75.359,25.248 74.947,24.8 74.283,24.758 73.834,25.024 l -0.062,-0.789 -0.018,-0.166 h -0.01 c -0.061,-0.271 -0.209,-0.522 -0.426,-0.718 -0.443,-0.42 -1.078,-0.445 -1.523,-0.123 l -0.129,-0.774 -0.031,-0.162 -0.012,10e-4 C 71.541,22.031 71.369,21.795 71.135,21.62 70.821,21.384 70.446,21.306 70.114,21.372 l -0.662,0.957 c 0,0 0.142,0.746 0.265,1.558 0.019,0.114 0.035,0.23 0.052,0.345 0.137,0.937 0.225,1.834 0.225,1.834 -0.322,0.35 -0.855,0.426 -1.213,0.159 -0.183,-0.134 -0.293,-0.334 -0.32,-0.567 0,0 -0.049,-0.393 -0.098,-0.786 -0.058,-0.398 -0.113,-0.797 -0.113,-0.798 l 0.006,-0.01 c 0,0 -0.037,-0.223 -0.092,-0.557 -0.053,-0.23 -0.119,-0.52 -0.188,-0.82 -0.028,-0.121 -0.057,-0.24 -0.084,-0.363 -0.211,-0.869 -0.469,-1.766 -0.469,-1.766 0.258,-0.396 0.812,-0.504 1.258,-0.232 0.224,0.136 0.384,0.342 0.447,0.581 0,0 0.09,0.349 0.183,0.697 0.092,0.342 0.149,0.716 0.149,0.717 l 0.647,-0.937 c -0.176,0.037 -0.338,0.111 -0.477,0.226 0.012,-0.012 -0.191,-0.762 -0.191,-0.762 l -0.045,-0.158 -0.01,0.002 C 69.279,20.441 69.085,20.223 68.835,20.07 68.315,19.753 67.69,19.819 67.314,20.189 L 67.07,19.41 67.013,19.254 67.002,19.257 c -0.129,-0.239 -0.338,-0.437 -0.603,-0.564 -0.549,-0.266 -1.17,-0.144 -1.516,0.258 l -0.303,-0.745 -0.066,-0.155 -0.01,0.004 c -0.141,-0.243 -0.354,-0.452 -0.633,-0.544 -0.369,-0.137 -0.756,-0.108 -1.068,0.045 l -0.004,0.013 c -0.162,0.083 -0.307,0.198 -0.412,0.344 l -0.365,-0.71 -0.078,-0.147 -0.01,0.005 c -0.162,-0.229 -0.396,-0.406 -0.672,-0.505 -0.572,-0.208 -1.182,0.068 -1.457,0.513 l -0.422,-0.668 -0.092,-0.139 -0.01,0.005 c -0.18,-0.211 -0.43,-0.364 -0.713,-0.436 -0.59,-0.156 -1.16,0.098 -1.402,0.593 l -0.479,-0.622 -0.103,-0.128 -0.01,0.006 c -0.195,-0.192 -0.457,-0.319 -0.746,-0.363 -0.392,-0.06 -0.759,0.048 -1.021,0.262 l -0.14,1.155 c 0,0 0.47,0.588 0.957,1.245 0.069,0.094 0.142,0.189 0.209,0.284 0.269,0.378 0.537,0.757 0.735,1.041 0.195,0.279 0.316,0.478 0.316,0.478 -0.119,0.444 -0.559,0.773 -0.998,0.703 -0.223,-0.033 -0.414,-0.157 -0.547,-0.35 0,0 -0.227,-0.323 -0.453,-0.647 -0.236,-0.325 -0.475,-0.65 -0.475,-0.65 l -0.051,0.422 0.107,0.146 c -0.027,0.148 -0.091,0.278 -0.173,0.389 l -0.002,0.02 c -0.18,0.235 -0.45,0.34 -0.75,0.329 -0.225,-0.011 -0.428,-0.114 -0.573,-0.292 0,0 -0.793,-0.961 -1.703,-1.931 -0.103,-0.114 -0.203,-0.209 -0.308,-0.316 -0.353,-0.364 -0.703,-0.696 -0.987,-0.945 -0.373,-0.327 -0.621,-0.545 -0.621,-0.545 0.006,-0.474 0.415,-0.873 0.937,-0.896 0.262,-0.018 0.505,0.071 0.688,0.258 0,0 0.951,0.933 1.795,1.863 0.111,0.123 0.213,0.239 0.32,0.359 0.301,0.335 0.584,0.66 0.799,0.919 0.283,0.379 0.473,0.633 0.473,0.633 l 0.051,-0.422 c 0,0 -0.389,-0.541 -0.875,-1.096 -0.084,-0.096 -0.17,-0.192 -0.258,-0.286 -0.59,-0.664 -1.236,-1.331 -1.236,-1.331 0.043,-0.471 0.482,-0.828 1.004,-0.801 0.26,0.014 0.498,0.12 0.666,0.298 0,0 0.248,0.255 0.486,0.535 0.232,0.288 0.465,0.576 0.465,0.576 l 0.137,-1.13 c -0.137,0.115 -0.248,0.257 -0.315,0.422 0,0 -0.13,-0.156 -0.259,-0.312 -0.129,-0.156 -0.264,-0.292 -0.264,-0.292 l -0.113,-0.118 10e-4,0.006 c -0.213,-0.171 -0.481,-0.272 -0.774,-0.287 -0.606,-0.031 -1.132,0.323 -1.291,0.827 l -0.568,-0.57 -0.12,-0.117 -0.009,0.007 c -0.226,-0.177 -0.502,-0.269 -0.794,-0.246 -0.609,0.029 -1.101,0.434 -1.22,0.952 l -0.612,-0.511 -0.131,-0.104 -0.007,0.008 C 48.09,15.112 47.805,15.04 47.513,15.056 47.119,15.062 46.792,15.3 46.587,15.577 l 0.002,0.015 c -0.105,0.15 -0.178,0.32 -0.205,0.5 l -0.65,-0.449 -0.138,-0.091 -0.006,0.009 c -0.248,-0.124 -0.536,-0.167 -0.826,-0.123 -0.602,0.097 -1.031,0.534 -1.062,1.087 L 43.02,16.14 42.875,16.062 42.869,16.071 c -0.256,-0.1 -0.546,-0.114 -0.83,-0.042 -0.591,0.152 -0.978,0.645 -0.972,1.171 0,0 -0.18,-0.093 -0.359,-0.186 -0.183,-0.099 -0.359,-0.169 -0.359,-0.168 l -0.15,-0.064 -0.005,0.01 c -0.262,-0.075 -0.551,-0.062 -0.826,0.039 -0.37,0.135 -0.645,0.407 -0.777,0.723 l 0.413,1.087 c 0,0 0.701,0.3 1.441,0.649 0.097,0.046 0.195,0.092 0.292,0.139 0.419,0.198 0.827,0.404 1.139,0.595 0.305,0.18 0.508,0.301 0.508,0.301 0.106,0.468 -0.148,0.904 -0.573,1.039 -0.21,0.078 -0.437,0.062 -0.642,-0.044 0,0 -0.349,-0.176 -0.698,-0.352 -0.358,-0.172 -0.716,-0.345 -0.717,-0.345 L 39.75,20.612 c 0,0 -0.59,-0.283 -1.291,-0.58 -0.12,-0.051 -0.243,-0.102 -0.367,-0.152 -0.827,-0.304 -1.706,-0.584 -1.706,-0.584 -0.18,-0.438 0.04,-0.963 0.512,-1.189 0.237,-0.11 0.49,-0.142 0.731,-0.04 l 1.369,0.563 -0.404,-1.064 c -0.067,0.167 -0.099,0.346 -0.082,0.525 l -0.748,-0.302 -0.158,-0.06 -0.004,0.01 c -0.277,-0.078 -0.561,-0.036 -0.825,0.092 -0.55,0.263 -0.845,0.827 -0.752,1.35 l -0.766,-0.231 -0.162,-0.045 -0.003,0.01 c -0.277,-0.043 -0.567,0.001 -0.831,0.129 -0.527,0.305 -0.769,0.904 -0.633,1.417 l -0.777,-0.162 -0.164,-0.031 -0.002,0.011 c -0.277,-0.019 -0.561,0.054 -0.811,0.206 -0.34,0.2 -0.544,0.523 -0.585,0.88 l 0.008,0.011 c -0.022,0.183 -0.007,0.368 0.054,0.54 l -0.783,-0.092 -0.165,-0.016 -0.001,0.011 c -0.276,0.007 -0.551,0.104 -0.785,0.28 -0.484,0.369 -0.659,0.958 -0.435,1.453 L 28.402,23.53 28.238,23.529 v 0.011 c -0.272,0.031 -0.536,0.153 -0.752,0.35 -0.451,0.41 -0.563,1.026 -0.312,1.49 0,0 -0.202,0.001 -0.404,0.002 -0.207,-0.002 -0.396,0.017 -0.396,0.017 l -0.163,0.013 v 0.011 c -0.266,0.055 -0.516,0.201 -0.713,0.417 -0.265,0.291 -0.382,0.658 -0.353,1 l 0.011,0.01 c 0.018,0.179 0.073,0.352 0.171,0.503 l -0.802,0.08 -0.168,0.02 0.001,0.01 c -0.282,0.059 -0.507,0.235 -0.685,0.467 -0.366,0.487 -0.367,1.123 -0.042,1.542 l -0.787,0.148 -0.165,0.035 0.002,0.01 c -0.265,0.09 -0.505,0.262 -0.675,0.5 -0.318,0.52 -0.262,1.157 0.097,1.551 l -0.765,0.216 -0.16,0.049 0.002,0.01 c -0.255,0.112 -0.474,0.307 -0.625,0.557 -0.213,0.332 -0.231,0.72 -0.106,1.054 l 0.013,0.007 c 0.065,0.172 0.163,0.329 0.296,0.453 l -0.737,0.281 -0.154,0.062 0.003,0.01 c -0.242,0.133 -0.44,0.347 -0.567,0.611 -0.258,0.552 -0.147,1.152 0.29,1.491 l -0.703,0.343 -0.146,0.075 0.004,0.01 c -0.227,0.154 -0.404,0.385 -0.504,0.66 -0.209,0.573 -0.023,1.172 0.414,1.465 0,0 -0.178,0.095 -0.357,0.19 -0.185,0.094 -0.344,0.199 -0.343,0.199 l -0.138,0.087 0.005,0.01 c -0.21,0.173 -0.363,0.418 -0.437,0.702 -0.099,0.381 -0.03,0.761 0.155,1.051 l 1.129,0.277 c 0,0 0.644,-0.407 1.352,-0.819 0.093,-0.054 0.186,-0.108 0.28,-0.162 0.4,-0.233 0.803,-0.452 1.137,-0.6 0.322,-0.149 0.536,-0.248 0.536,-0.248 0.445,0.179 0.662,0.636 0.529,1.061 -0.055,0.218 -0.196,0.395 -0.4,0.504 0,0 -0.342,0.188 -0.685,0.375 -0.345,0.197 -0.689,0.394 -0.69,0.395 L 20.72,42.089 c 0,0 -0.564,0.325 -1.21,0.733 -0.111,0.07 -0.224,0.142 -0.337,0.216 -0.718,0.509 -1.445,1.074 -1.445,1.074 -0.463,-0.101 -0.772,-0.58 -0.691,-1.097 0.039,-0.258 0.166,-0.483 0.386,-0.624 l 1.239,-0.808 -1.105,-0.271 c 0.1,0.15 0.229,0.278 0.386,0.366 l -0.672,0.445 -0.139,0.096 0.005,0.009 c -0.22,0.184 -0.356,0.44 -0.395,0.731 -0.094,0.602 0.204,1.166 0.688,1.385 l -0.624,0.5 -0.129,0.107 0.006,0.009 c -0.192,0.203 -0.319,0.468 -0.362,0.757 -0.077,0.604 0.307,1.145 0.799,1.324 l -0.57,0.547 -0.118,0.118 0.007,0.008 c -0.171,0.218 -0.271,0.492 -0.285,0.784 -0.019,0.393 0.125,0.745 0.365,0.98 h 0.014 c 0.14,0.122 0.301,0.215 0.478,0.263 l -0.513,0.591 -0.105,0.126 0.008,0.008 c -0.148,0.229 -0.221,0.511 -0.206,0.804 0.031,0.608 0.436,1.086 0.953,1.186 0,0 -0.515,0.631 -0.498,0.632 l -0.092,0.136 0.009,0.006 c -0.125,0.24 -0.17,0.526 -0.126,0.815 0.091,0.604 0.543,1.045 1.069,1.103 l -0.444,0.672 -0.09,0.143 0.009,0.008 c -0.125,0.254 -0.167,0.545 -0.086,0.827 0.097,0.382 0.34,0.685 0.643,0.854 l 0.015,-0.004 c 0.161,0.086 0.336,0.14 0.516,0.145 l -0.373,0.701 -0.077,0.148 0.009,0.006 c -0.097,0.263 -0.11,0.556 -0.036,0.84 0.157,0.589 0.728,0.936 1.25,0.908 l -0.311,0.729 -0.062,0.152 0.01,0.006 c -0.072,0.268 -0.057,0.561 0.044,0.834 0.202,0.576 0.744,0.898 1.288,0.818 l -0.242,0.746 -0.048,0.157 0.01,0.005 c -0.047,0.27 -0.004,0.559 0.123,0.821 0.171,0.354 0.467,0.597 0.792,0.692 l 0.013,-0.006 c 0.172,0.047 0.351,0.058 0.526,0.021 0,0 -0.064,0.198 -0.104,0.386 -0.042,0.189 -0.085,0.381 -0.085,0.381 l -0.033,0.16 0.01,0.004 c -0.022,0.271 0.047,0.553 0.199,0.803 0.316,0.521 0.902,0.752 1.407,0.6 l -0.148,0.795 -0.028,0.167 0.01,0.002 c 0,0.272 0.097,0.544 0.271,0.778 0.364,0.49 0.972,0.668 1.465,0.473 l -0.078,0.799 -0.013,0.168 0.011,0.002 c 0.016,0.276 0.1,0.567 0.305,0.776 0.264,0.293 0.621,0.446 0.967,0.455 l 0.871,-0.771 c 0,0 0.009,-0.238 0.022,-0.597 0.018,-0.28 0.031,-0.622 0.062,-0.981 0.009,-0.105 0.013,-0.205 0.028,-0.313 0.115,-0.962 0.268,-1.874 0.268,-1.874 0.396,-0.262 0.917,-0.197 1.184,0.161 0.134,0.181 0.187,0.407 0.151,0.646 0,0 -0.036,0.385 -0.072,0.77 -0.029,0.391 -0.057,0.781 -0.058,0.783 l -0.009,0.009 c 0,0 -0.043,0.651 -0.068,1.419 -0.004,0.123 -0.008,0.249 -0.011,0.376 -0.042,0.933 0.033,1.825 0.033,1.825 -0.338,0.314 -0.94,0.328 -1.289,-0.061 -0.176,-0.193 -0.274,-0.439 -0.274,-0.691 l 0.023,-1.463 -0.852,0.756 C 25.336,72.116 25.516,72.08 25.679,72 l -0.007,0.797 0.002,0.168 h 0.011 c 0.036,0.276 0.161,0.542 0.358,0.759 0.413,0.447 1.078,0.489 1.527,0.225 l 0.062,0.787 0.016,0.166 h 0.011 c 0.061,0.271 0.209,0.521 0.426,0.719 0.443,0.42 1.078,0.443 1.522,0.123 l 0.13,0.773 0.031,0.162 h 0.011 c 0.083,0.262 0.254,0.496 0.489,0.672 0.315,0.235 0.689,0.313 1.022,0.248 l 0.008,-0.012 c 0.174,-0.037 0.337,-0.111 0.475,-0.227 -0.011,0.013 0.191,0.763 0.191,0.763 l 0.045,0.157 0.01,-0.002 c 0.106,0.252 0.298,0.47 0.548,0.621 0.521,0.316 1.146,0.252 1.522,-0.119 l 0.236,0.775 0.055,0.156 0.011,-0.004 c 0.127,0.238 0.338,0.438 0.601,0.564 0.549,0.267 1.171,0.144 1.517,-0.258 l 0.301,0.745 0.066,0.155 0.01,-0.004 c 0.141,0.242 0.354,0.451 0.632,0.544 0.37,0.136 0.757,0.106 1.069,-0.046 L 39,80.32 c 0,0 -0.339,-0.674 -0.661,-1.438 -0.04,-0.095 -0.08,-0.19 -0.119,-0.286 -0.343,-0.906 -0.63,-1.787 -0.63,-1.787 0.229,-0.416 0.721,-0.6 1.123,-0.404 0.203,0.097 0.353,0.279 0.433,0.5 0,0 0.147,0.355 0.293,0.714 0.156,0.36 0.312,0.721 0.312,0.722 l -0.004,0.01 c 0,0 0.264,0.598 0.598,1.291 0.054,0.11 0.108,0.223 0.165,0.338 0.395,0.846 0.878,1.6 0.878,1.6 -0.152,0.438 -0.68,0.73 -1.169,0.546 -0.246,-0.089 -0.447,-0.263 -0.564,-0.485 l -0.66,-1.307 -0.404,1.064 c 0.163,-0.084 0.305,-0.199 0.412,-0.346 l 0.364,0.711 0.08,0.146 0.01,-0.006 c 0.16,0.229 0.395,0.406 0.67,0.507 0.574,0.206 1.184,-0.068 1.458,-0.513 l 0.423,0.668 0.092,0.139 0.009,-0.006 c 0.18,0.212 0.429,0.363 0.712,0.437 0.59,0.156 1.16,-0.098 1.403,-0.593 l 0.477,0.621 0.103,0.129 0.009,-0.007 c 0.196,0.192 0.458,0.319 0.747,0.362 0.39,0.061 0.757,-0.047 1.021,-0.262 l 10e-4,-0.014 c 0.137,-0.115 0.248,-0.258 0.316,-0.424 0,0 0.129,0.156 0.258,0.312 0.13,0.155 0.265,0.291 0.265,0.291 l 0.113,0.117 0.009,-0.007 c 0.211,0.171 0.482,0.271 0.774,0.286 0.608,0.031 1.131,-0.322 1.291,-0.826 l 0.569,0.57 0.122,0.117 0.008,-0.009 c 0.224,0.179 0.501,0.269 0.792,0.245 0.609,-0.027 1.103,-0.434 1.221,-0.951 l 0.611,0.512 0.131,0.104 0.008,-0.008 c 0.236,0.146 0.521,0.219 0.812,0.203 0.395,-0.006 0.721,-0.244 0.926,-0.521 l -0.002,-0.015 c 0.105,-0.15 0.178,-0.32 0.205,-0.501 l 0.65,0.449 0.139,0.092 0.006,-0.01 c 0.248,0.125 0.537,0.168 0.826,0.123 0.602,-0.097 1.031,-0.533 1.061,-1.088 l 0.683,0.385 0.146,0.078 0.006,-0.01 c 0.255,0.1 0.545,0.114 0.828,0.041 0.592,-0.15 0.979,-0.645 0.974,-1.171 0,0 0.18,0.093 0.358,0.187 0.183,0.1 0.357,0.168 0.357,0.168 l 0.15,0.064 0.006,-0.01 c 0.262,0.074 0.551,0.062 0.824,-0.039 0.371,-0.135 0.645,-0.406 0.776,-0.723 L 62.39,80.314 c 0,0 -0.701,-0.301 -1.441,-0.648 -0.098,-0.046 -0.195,-0.094 -0.291,-0.141 -0.42,-0.197 -0.828,-0.402 -1.141,-0.594 -0.306,-0.182 -0.509,-0.302 -0.509,-0.302 -0.104,-0.469 0.148,-0.903 0.572,-1.039 0.211,-0.077 0.438,-0.062 0.644,0.044 0,0 0.348,0.176 0.696,0.352 0.358,0.174 0.718,0.347 0.718,0.347 l 0.004,0.011 c 0,0 0.59,0.283 1.291,0.579 0.118,0.052 0.241,0.103 0.366,0.152 0.828,0.304 1.705,0.584 1.705,0.584 0.183,0.438 -0.039,0.963 -0.512,1.188 -0.236,0.109 -0.49,0.141 -0.729,0.039 l -1.369,-0.562 0.403,1.064 c 0.065,-0.168 0.099,-0.347 0.082,-0.525 l 0.748,0.302 0.158,0.06 0.004,-0.01 c 0.276,0.078 0.562,0.036 0.823,-0.092 0.552,-0.264 0.847,-0.827 0.753,-1.35 l 0.766,0.23 0.162,0.045 0.004,-0.01 c 0.277,0.044 0.565,-0.002 0.83,-0.13 0.526,-0.306 0.771,-0.904 0.634,-1.417 l 0.776,0.16 0.164,0.031 0.002,-0.011 c 0.276,0.019 0.562,-0.054 0.812,-0.206 0.338,-0.199 0.543,-0.523 0.584,-0.88 l -0.379,-0.547 0.371,0.535 c 0.021,-0.183 0.006,-0.367 -0.055,-0.54 l 0.783,0.092 0.164,0.018 0.002,-0.012 c 0.275,-0.007 0.551,-0.104 0.785,-0.279 0.483,-0.369 0.66,-0.959 0.436,-1.453 l 0.781,0.021 0.164,0.002 V 75.42 c 0.272,-0.031 0.537,-0.152 0.752,-0.35 0.451,-0.41 0.563,-1.026 0.312,-1.489 0,0 0.203,-0.002 0.404,-0.003 0.207,0.002 0.396,-0.018 0.396,-0.018 l 0.164,-0.014 -0.002,-0.011 c 0.268,-0.056 0.518,-0.201 0.715,-0.417 0.265,-0.291 0.381,-0.658 0.353,-1 l -0.802,-0.71 0.791,0.7 c -0.018,-0.18 -0.073,-0.354 -0.172,-0.504 l 0.804,-0.08 0.168,-0.02 -0.002,-0.011 c 0.282,-0.06 0.508,-0.233 0.686,-0.468 0.365,-0.485 0.367,-1.121 0.044,-1.541 l 0.784,-0.148 0.166,-0.035 -0.002,-0.01 c 0.265,-0.09 0.504,-0.262 0.674,-0.5 0.318,-0.52 0.263,-1.156 -0.098,-1.551 l 0.767,-0.217 0.159,-0.049 -0.002,-0.011 c 0.254,-0.11 0.474,-0.307 0.623,-0.557 0.215,-0.332 0.231,-0.722 0.106,-1.054 l -1.03,-0.541 c 0,0 -0.224,0.076 -0.558,0.192 -0.27,0.073 -0.61,0.167 -0.967,0.265 -0.105,0.028 -0.209,0.058 -0.318,0.086 -0.928,0.24 -1.821,0.428 -1.821,0.428 -0.386,-0.278 -0.517,-0.793 -0.285,-1.176 0.117,-0.191 0.31,-0.323 0.539,-0.375 0,0 0.392,-0.094 0.78,-0.186 0.394,-0.096 0.753,-0.221 0.755,-0.223 l 0.01,0.006 c 0,0 0.627,-0.198 1.351,-0.454 0.108,-0.038 0.221,-0.078 0.332,-0.119 0.852,-0.307 1.725,-0.666 1.725,-0.666 0.424,0.21 0.588,0.74 0.361,1.212 -0.113,0.235 -0.304,0.416 -0.535,0.508 l -1.357,0.506 1.008,0.529 c -0.064,-0.172 -0.164,-0.328 -0.297,-0.453 l 0.738,-0.281 0.152,-0.061 -0.004,-0.012 c 0.241,-0.135 0.44,-0.348 0.567,-0.611 0.258,-0.553 0.146,-1.152 -0.291,-1.49 l 0.703,-0.344 0.146,-0.074 -0.004,-0.01 c 0.228,-0.154 0.402,-0.386 0.504,-0.66 0.209,-0.572 0.023,-1.172 -0.414,-1.465 0,0 0.179,-0.096 0.357,-0.191 0.184,-0.094 0.344,-0.198 0.344,-0.198 l 0.137,-0.087 -0.006,-0.01 c 0.211,-0.174 0.363,-0.42 0.438,-0.703 0.099,-0.381 0.028,-0.762 -0.155,-1.051 L 83.829,57.639 C 83.728,57.491 83.6,57.362 83.443,57.274 l 0.673,-0.443 0.139,-0.098 -0.006,-0.008 c 0.222,-0.186 0.356,-0.44 0.396,-0.73 0.095,-0.604 -0.205,-1.166 -0.688,-1.387 L 84.582,54.11 84.711,54.003 84.709,54 c 0.193,-0.203 0.32,-0.469 0.363,-0.757 0.076,-0.604 -0.306,-1.143 -0.801,-1.324 z m 0.667,-1.466 c -0.012,0.261 -0.117,0.502 -0.297,0.677 0,0 -0.957,0.955 -1.949,1.787 -0.108,0.087 -0.219,0.171 -0.325,0.254 -0.937,0.724 -1.775,1.304 -1.775,1.304 -0.463,-0.104 -0.782,-0.525 -0.715,-0.968 0.035,-0.222 0.16,-0.418 0.354,-0.557 0,0 0.272,-0.185 0.645,-0.481 0.359,-0.298 0.842,-0.709 1.324,-1.144 0.117,-0.104 0.234,-0.21 0.348,-0.315 0.84,-0.769 1.588,-1.527 1.588,-1.527 0.469,0.025 0.827,0.448 0.802,0.97 z m -0.04,-2.747 c 0.012,0.261 -0.068,0.51 -0.229,0.698 l -0.948,1.078 h -0.013 c 0,0 -0.545,0.543 -1.151,1.108 -0.084,0.077 -0.168,0.155 -0.252,0.23 -0.701,0.646 -1.398,1.229 -1.398,1.229 -0.471,-0.064 -0.83,-0.461 -0.809,-0.906 0.012,-0.226 0.114,-0.432 0.293,-0.586 0,0 0.301,-0.264 0.6,-0.528 0.301,-0.274 0.6,-0.548 0.6,-0.548 h 0.012 c 0,0 0.447,-0.46 0.957,-1.018 0.08,-0.088 0.162,-0.179 0.244,-0.271 0.6,-0.667 1.197,-1.39 1.197,-1.39 0.472,-0.011 0.87,0.382 0.897,0.904 z m -0.244,-2.75 c 0.039,0.258 -0.018,0.513 -0.158,0.712 0,0 -0.047,0.065 -0.129,0.179 -0.076,0.113 -0.199,0.274 -0.359,0.466 -0.312,0.384 -0.73,0.882 -1.15,1.358 -0.104,0.119 -0.207,0.236 -0.311,0.35 -0.725,0.807 -1.371,1.459 -1.371,1.459 h -0.01 l -0.135,0.123 c -0.15,-0.008 -0.285,-0.055 -0.404,-0.123 h -0.02 c -0.26,-0.15 -0.445,-0.407 -0.461,-0.706 -0.013,-0.225 0.069,-0.438 0.231,-0.606 0,0 0.879,-0.902 1.748,-1.922 0.086,-0.109 0.17,-0.22 0.254,-0.331 0.683,-0.899 1.287,-1.786 1.287,-1.786 0.473,-0.049 0.91,0.309 0.988,0.827 z m -0.453,-2.727 c 0.072,0.251 0.023,0.512 -0.119,0.726 0,0 -0.752,1.164 -1.525,2.209 -0.074,0.108 -0.152,0.214 -0.229,0.319 -0.683,0.919 -1.408,1.687 -1.406,1.687 -0.479,0.009 -0.862,-0.327 -0.897,-0.771 -0.035,-0.222 0.024,-0.44 0.17,-0.62 0,0 0.785,-0.966 1.551,-2.051 0.092,-0.123 0.166,-0.242 0.25,-0.364 0.287,-0.418 0.547,-0.829 0.73,-1.156 0.246,-0.431 0.409,-0.718 0.409,-0.718 0.465,-0.089 0.937,0.232 1.066,0.739 z m -0.687,-2.667 c 0.066,0.253 0.039,0.517 -0.08,0.74 l -0.701,1.285 -0.012,0.003 c 0,0 -0.367,0.664 -0.809,1.361 -0.055,0.086 -0.109,0.173 -0.166,0.259 -0.553,0.798 -1.117,1.534 -1.117,1.534 -0.473,0.047 -0.9,-0.253 -0.967,-0.694 -0.037,-0.222 0.035,-0.45 0.162,-0.64 0,0 0.211,-0.323 0.422,-0.646 0.209,-0.333 0.416,-0.667 0.416,-0.667 l -0.238,0.059 0.25,-0.062 c 0,0 0.344,-0.557 0.723,-1.225 0.062,-0.107 0.123,-0.217 0.187,-0.328 0.474,-0.806 0.817,-1.631 0.817,-1.631 0.447,-0.124 0.986,0.144 1.113,0.652 z m -0.922,-2.607 c 0.09,0.245 0.088,0.509 -0.01,0.74 0,0 -0.488,1.208 -1.051,2.321 -0.084,0.152 -0.166,0.302 -0.248,0.449 -0.533,0.951 -1.021,1.728 -1.021,1.729 l -0.012,0.002 -0.094,0.15 c -0.146,0.028 -0.293,0.016 -0.428,-0.021 l -0.021,0.005 c -0.283,-0.086 -0.515,-0.293 -0.586,-0.583 -0.058,-0.218 -0.019,-0.447 0.104,-0.65 0,0 0.174,-0.275 0.41,-0.696 0.215,-0.414 0.496,-0.98 0.771,-1.57 0.068,-0.143 0.129,-0.284 0.193,-0.427 0.203,-0.446 0.396,-0.885 0.545,-1.239 0.199,-0.469 0.313,-0.785 0.313,-0.785 0.465,-0.169 0.951,0.084 1.135,0.575 z m -3.795,1.149 c 0.223,-0.447 0.451,-1.032 0.666,-1.636 0.053,-0.141 0.102,-0.283 0.152,-0.424 0.375,-1.07 0.678,-2.095 0.678,-2.095 0.43,-0.197 0.949,0.008 1.178,0.479 0.113,0.235 0.135,0.497 0.062,0.733 0,0 -0.104,0.317 -0.259,0.793 -0.143,0.465 -0.389,1.092 -0.664,1.706 -0.053,0.12 -0.104,0.238 -0.157,0.355 -0.48,1.077 -0.946,1.985 -0.946,1.985 -0.461,0.123 -0.944,-0.099 -1.1,-0.518 -0.078,-0.211 -0.062,-0.441 0.043,-0.652 -0.001,0.001 0.138,-0.289 0.347,-0.726 z M 76.99,27.49 c 0.182,0.188 0.246,0.452 0.227,0.703 0,0 -0.119,1.376 -0.311,2.659 -0.018,0.133 -0.041,0.258 -0.062,0.39 -0.076,0.498 -0.162,0.979 -0.264,1.365 -0.117,0.473 -0.195,0.788 -0.195,0.788 -0.414,0.229 -0.924,0.12 -1.154,-0.262 -0.108,-0.198 -0.178,-0.405 -0.129,-0.635 0,0 0.238,-1.217 0.408,-2.531 0.02,-0.145 0.039,-0.289 0.057,-0.432 0.062,-0.51 0.101,-0.998 0.105,-1.374 0.018,-0.496 0.029,-0.826 0.029,-0.826 0.371,-0.296 0.938,-0.233 1.289,0.155 z m -1.851,-2.037 c 0.176,0.193 0.273,0.439 0.273,0.691 l -0.021,1.462 -0.01,0.008 c 0,0 -0.008,0.239 -0.021,0.596 -0.018,0.28 -0.03,0.621 -0.062,0.982 -0.01,0.105 -0.014,0.205 -0.026,0.314 -0.115,0.961 -0.269,1.874 -0.269,1.874 -0.396,0.262 -0.918,0.198 -1.187,-0.161 -0.133,-0.18 -0.186,-0.408 -0.149,-0.646 0,0 0.035,-0.385 0.071,-0.77 0.029,-0.391 0.058,-0.783 0.058,-0.784 l 0.011,-0.008 c 0,0 0.043,-0.651 0.067,-1.418 0.004,-0.124 0.008,-0.249 0.01,-0.376 0.044,-0.932 -0.032,-1.825 -0.032,-1.825 0.337,-0.315 0.937,-0.329 1.287,0.061 z m -5.453,-3.477 c 0.291,-0.374 0.847,-0.432 1.265,-0.119 0.209,0.156 0.35,0.378 0.393,0.623 0,0 0.058,0.329 0.14,0.823 0.088,0.479 0.168,1.142 0.205,1.817 0.01,0.132 0.018,0.261 0.024,0.39 0.074,1.177 0.084,2.196 0.084,2.196 -0.351,0.323 -0.883,0.351 -1.215,0.051 -0.166,-0.151 -0.261,-0.362 -0.267,-0.598 0,0 -0.012,-0.322 -0.026,-0.805 -0.013,-0.5 -0.086,-1.118 -0.172,-1.757 -0.021,-0.149 -0.041,-0.299 -0.062,-0.448 -0.164,-1.124 -0.369,-2.173 -0.369,-2.173 z m -3.42,-3.017 c 0.234,0.114 0.412,0.304 0.498,0.533 0,0 0.111,0.298 0.248,0.778 0.139,0.473 0.314,1.097 0.469,1.71 0.041,0.157 0.08,0.313 0.117,0.466 0.107,0.445 0.203,0.864 0.273,1.196 0.051,0.219 0.082,0.413 0.1,0.551 0.021,0.136 0.031,0.214 0.031,0.214 l 0.135,-0.194 -0.141,0.203 0.025,0.179 c -0.092,0.119 -0.207,0.205 -0.33,0.264 l -0.215,0.311 0.203,-0.295 c -0.263,0.113 -0.566,0.103 -0.828,-0.044 -0.191,-0.116 -0.322,-0.304 -0.367,-0.531 0,0 -0.248,-1.228 -0.596,-2.518 -0.041,-0.136 -0.084,-0.271 -0.127,-0.407 -0.347,-1.085 -0.738,-2.071 -0.738,-2.071 0.227,-0.416 0.772,-0.573 1.243,-0.345 z m -2.504,-1.172 c 0.248,0.082 0.432,0.278 0.529,0.514 0,0 0.531,1.277 0.955,2.504 0.045,0.127 0.082,0.247 0.125,0.371 0.164,0.478 0.314,0.938 0.402,1.33 0.115,0.475 0.19,0.791 0.19,0.791 -0.262,0.396 -0.764,0.534 -1.146,0.3 -0.194,-0.112 -0.346,-0.274 -0.409,-0.498 0,0 -0.353,-1.19 -0.812,-2.435 -0.053,-0.14 -0.104,-0.272 -0.156,-0.41 -0.063,-0.17 -0.131,-0.345 -0.19,-0.506 -0.127,-0.276 -0.244,-0.535 -0.347,-0.756 -0.217,-0.447 -0.358,-0.745 -0.358,-0.745 0.193,-0.435 0.726,-0.642 1.217,-0.46 z M 61.174,16.84 c 0.246,0.089 0.447,0.262 0.564,0.485 l 0.66,1.307 -0.004,0.01 c 0,0 0.338,0.675 0.662,1.438 0.039,0.094 0.077,0.19 0.116,0.286 0.345,0.907 0.632,1.787 0.632,1.787 -0.23,0.416 -0.722,0.6 -1.123,0.405 -0.203,-0.097 -0.354,-0.279 -0.435,-0.5 0,0 -0.146,-0.356 -0.293,-0.713 -0.156,-0.359 -0.312,-0.717 -0.312,-0.72 l 0.004,-0.012 c 0,0 -0.265,-0.598 -0.599,-1.29 -0.055,-0.111 -0.108,-0.224 -0.166,-0.337 -0.396,-0.846 -0.877,-1.6 -0.877,-1.6 0.155,-0.437 0.683,-0.731 1.171,-0.546 z m -2.67,-0.719 c 0.254,0.065 0.469,0.216 0.605,0.427 0,0 0.717,1.085 1.312,2.183 0.08,0.154 0.156,0.308 0.229,0.458 0.481,0.979 0.846,1.821 0.846,1.821 l 0.02,-0.054 -0.022,0.065 0.069,0.162 c -0.061,0.137 -0.153,0.251 -0.262,0.341 l -0.006,0.018 c -0.232,0.185 -0.533,0.256 -0.814,0.153 -0.211,-0.078 -0.377,-0.239 -0.475,-0.456 0,0 -0.137,-0.293 -0.34,-0.733 -0.219,-0.412 -0.525,-0.965 -0.854,-1.526 -0.078,-0.134 -0.158,-0.269 -0.24,-0.402 -0.586,-0.974 -1.182,-1.859 -1.182,-1.859 0.122,-0.465 0.608,-0.725 1.114,-0.598 z m -2.174,2.298 c -0.088,-0.122 -0.176,-0.244 -0.264,-0.364 -0.668,-0.914 -1.34,-1.744 -1.34,-1.744 0.08,-0.466 0.545,-0.778 1.062,-0.699 0.258,0.04 0.485,0.169 0.64,0.364 0,0 0.202,0.264 0.508,0.66 0.301,0.379 0.676,0.947 1.024,1.518 0.067,0.11 0.136,0.22 0.201,0.329 0.614,1.008 1.101,1.906 1.101,1.906 -0.16,0.448 -0.619,0.722 -1.052,0.611 -0.217,-0.056 -0.397,-0.199 -0.515,-0.404 0,0 -0.159,-0.279 -0.399,-0.698 -0.241,-0.436 -0.591,-0.965 -0.966,-1.479 z m -8.793,-3.065 c 0.261,-0.014 0.513,0.066 0.708,0.226 0,0 1.063,0.868 2.008,1.743 0.101,0.088 0.2,0.182 0.297,0.276 0.364,0.352 0.701,0.729 0.962,1.01 0.321,0.362 0.536,0.604 0.536,0.604 -0.047,0.472 -0.428,0.833 -0.873,0.809 -0.225,-0.006 -0.435,-0.129 -0.595,-0.283 -10e-4,0 -0.866,-0.876 -1.85,-1.75 -0.115,-0.103 -0.229,-0.2 -0.344,-0.301 -0.376,-0.329 -0.749,-0.647 -1.051,-0.896 -0.397,-0.289 -0.662,-0.482 -0.662,-0.482 -0.029,-0.459 0.341,-0.943 0.864,-0.956 z m -5.425,0.967 c 0.253,-0.065 0.514,-0.035 0.73,0.084 0,0 0.279,0.157 0.697,0.394 0.41,0.22 0.958,0.594 1.483,0.962 0.134,0.093 0.266,0.187 0.394,0.278 0.887,0.635 1.609,1.208 1.609,1.208 l -0.051,-0.422 c 0,0 -0.521,-0.406 -1.145,-0.86 -0.092,-0.067 -0.187,-0.135 -0.282,-0.203 -0.736,-0.528 -1.528,-1.046 -1.527,-1.046 -0.069,-0.468 0.275,-0.903 0.792,-0.983 0.258,-0.04 0.516,0.015 0.723,0.155 l 1.187,0.832 -0.042,-0.352 0.044,0.363 c 0,0 0.611,0.429 1.253,0.987 0.08,0.069 0.161,0.14 0.24,0.213 0.725,0.632 1.388,1.268 1.388,1.268 -0.009,0.475 -0.359,0.873 -0.806,0.896 -0.225,0.011 -0.442,-0.072 -0.616,-0.234 0,0 -0.298,-0.271 -0.596,-0.541 -0.305,-0.242 -0.61,-0.483 -0.61,-0.483 l 0.051,0.422 0.137,0.108 c 0.01,0.15 -0.02,0.294 -0.073,0.426 l 0.002,0.019 c -0.119,0.274 -0.352,0.482 -0.647,0.528 -0.222,0.034 -0.444,-0.026 -0.63,-0.17 0,0 -0.256,-0.194 -0.641,-0.485 -0.393,-0.302 -0.924,-0.673 -1.47,-0.991 -0.126,-0.078 -0.253,-0.154 -0.38,-0.23 -0.973,-0.58 -1.917,-1.081 -1.917,-1.081 -0.11,-0.462 0.196,-0.932 0.703,-1.062 z m -0.873,3.012 c -0.125,-0.062 -0.251,-0.124 -0.378,-0.184 -1.019,-0.489 -2.008,-0.905 -2.008,-0.905 -0.144,-0.451 0.121,-0.951 0.612,-1.13 0.246,-0.089 0.506,-0.084 0.731,0.014 0,0 0.3,0.115 0.757,0.358 0.456,0.238 1.05,0.561 1.62,0.889 0.11,0.063 0.209,0.124 0.316,0.187 0.451,0.265 0.881,0.525 1.205,0.729 0.399,0.244 0.662,0.442 0.662,0.441 0.063,0.458 -0.216,0.913 -0.647,1.03 -0.217,0.056 -0.442,0.018 -0.639,-0.107 0,0 -1.061,-0.686 -2.231,-1.322 z M 34.407,19.31 c 0.235,-0.114 0.5,-0.138 0.742,-0.067 0,0 1.272,0.37 2.444,0.789 0.158,0.053 0.31,0.115 0.465,0.174 0.417,0.158 0.818,0.325 1.134,0.474 0.425,0.199 0.708,0.331 0.708,0.331 l -0.018,-0.046 0.021,0.057 0.161,0.077 c 0.045,0.144 0.051,0.289 0.03,0.426 l 0.007,0.018 c -0.051,0.288 -0.232,0.536 -0.513,0.637 -0.211,0.076 -0.446,0.059 -0.655,-0.02 0,0 -1.141,-0.47 -2.391,-0.891 -0.139,-0.051 -0.279,-0.098 -0.417,-0.144 -1.109,-0.368 -2.128,-0.579 -2.128,-0.579 -0.213,-0.422 -0.043,-0.976 0.41,-1.236 z m -2.367,1.429 c 0.223,-0.136 0.482,-0.185 0.729,-0.136 0,0 1.341,0.263 2.579,0.588 0.135,0.042 0.268,0.083 0.399,0.126 1.126,0.36 2.077,0.724 2.077,0.724 0.178,0.441 0.012,0.942 -0.391,1.135 -0.202,0.097 -0.435,0.104 -0.66,0.022 0,0 -0.311,-0.126 -0.756,-0.246 -0.45,-0.129 -1.064,-0.295 -1.698,-0.449 -0.148,-0.036 -0.298,-0.071 -0.446,-0.106 -0.485,-0.112 -0.958,-0.214 -1.339,-0.291 -0.252,-0.054 -0.457,-0.087 -0.597,-0.104 -0.143,-0.019 -0.224,-0.03 -0.224,-0.03 C 31.462,21.566 31.585,21 32.04,20.739 Z m -2.237,1.6 c 0.209,-0.157 0.462,-0.229 0.709,-0.202 l 1.435,0.178 -0.555,-0.803 0.562,0.812 c 0,0 0.232,0.026 0.587,0.091 0.272,0.06 0.618,0.135 0.975,0.213 0.109,0.024 0.215,0.046 0.326,0.071 0.933,0.215 1.811,0.462 1.811,0.462 0.213,0.425 0.091,0.943 -0.291,1.175 -0.192,0.117 -0.421,0.146 -0.65,0.086 0,0 -0.388,-0.098 -0.776,-0.197 -0.399,-0.106 -0.775,-0.158 -0.776,-0.158 l -0.006,-0.009 c 0,0 -0.643,-0.114 -1.401,-0.22 C 31.637,23.821 31.519,23.805 31.4,23.79 30.505,23.668 29.566,23.582 29.566,23.582 29.285,23.2 29.384,22.653 29.803,22.339 Z m -4.087,3.708 c 0.176,-0.193 0.409,-0.31 0.653,-0.326 0,0 0.32,-0.038 0.837,-0.035 0.514,-0.001 1.188,0.007 1.846,0.032 0.126,0.004 0.25,0.01 0.375,0.016 0.522,0.024 1.015,0.055 1.397,0.084 0.465,0.028 0.796,0.088 0.797,0.088 0.271,0.377 0.223,0.896 -0.098,1.207 -0.166,0.151 -0.383,0.223 -0.615,0.204 0,0 -1.257,-0.111 -2.589,-0.129 -0.14,0.003 -0.28,0.007 -0.419,0.012 -1.13,0.04 -2.2,0.13 -2.2,0.13 -0.338,-0.331 -0.336,-0.896 0.016,-1.283 z m -1.809,2.072 c 0.161,-0.206 0.368,-0.353 0.626,-0.376 l 1.474,-0.136 -0.108,-0.096 0.117,0.104 c 0,0 0.76,-0.06 1.579,-0.095 0.107,-0.004 0.215,-0.009 0.323,-0.012 0.463,-0.02 0.922,-0.026 1.286,-0.002 0.354,0.017 0.589,0.029 0.589,0.029 0.312,0.365 0.291,0.871 -0.024,1.188 -0.15,0.167 -0.359,0.258 -0.59,0.259 0,0 -0.391,0.006 -0.782,0.012 C 28,29.006 27.603,29.02 27.601,29.02 l -0.009,-0.008 c 0,0 -0.657,0.021 -1.412,0.087 -0.129,0.011 -0.26,0.023 -0.393,0.038 -0.875,0.113 -1.785,0.271 -1.785,0.271 -0.361,-0.304 -0.409,-0.871 -0.095,-1.289 z m -1.652,2.216 c 0.151,-0.212 0.377,-0.354 0.625,-0.404 0,0 1.299,-0.26 2.534,-0.431 0.166,-0.026 0.328,-0.042 0.493,-0.062 0.44,-0.055 0.871,-0.095 1.222,-0.107 0.469,-0.021 0.781,-0.036 0.781,-0.036 l -0.021,-0.019 0.03,0.026 0.179,-0.006 c 0.107,0.105 0.179,0.231 0.224,0.363 l 0.227,0.201 -0.213,-0.188 c 0.088,0.279 0.042,0.582 -0.159,0.803 -0.156,0.163 -0.364,0.263 -0.586,0.289 0,0 -1.231,0.112 -2.536,0.317 -0.146,0.019 -0.291,0.042 -0.434,0.064 -1.156,0.187 -2.154,0.476 -2.154,0.476 -0.387,-0.276 -0.486,-0.84 -0.212,-1.286 z m -1.437,2.363 c 0.135,-0.224 0.343,-0.387 0.584,-0.457 0,0 1.312,-0.387 2.562,-0.671 0.137,-0.026 0.272,-0.051 0.407,-0.075 1.158,-0.207 2.178,-0.322 2.178,-0.322 0.362,0.308 0.446,0.829 0.178,1.186 -0.135,0.18 -0.338,0.294 -0.575,0.326 0,0 -0.327,0.037 -0.779,0.136 -0.46,0.094 -1.082,0.23 -1.716,0.387 -0.147,0.036 -0.296,0.074 -0.442,0.112 -0.483,0.125 -0.951,0.253 -1.327,0.362 -0.486,0.143 -0.784,0.265 -0.784,0.265 -0.404,-0.242 -0.571,-0.81 -0.286,-1.249 z m -1.24,2.456 c 0.113,-0.235 0.304,-0.417 0.537,-0.507 l 1.356,-0.507 0.01,0.005 c 0,0 0.223,-0.078 0.557,-0.194 0.269,-0.073 0.612,-0.167 0.966,-0.263 0.107,-0.029 0.21,-0.057 0.319,-0.087 0.927,-0.24 1.822,-0.427 1.822,-0.427 0.386,0.278 0.517,0.793 0.285,1.174 -0.117,0.192 -0.307,0.325 -0.538,0.377 0,0 -0.39,0.092 -0.781,0.184 -0.393,0.096 -0.754,0.222 -0.754,0.222 l -0.01,-0.005 c 0,0 -0.625,0.197 -1.349,0.454 -0.109,0.039 -0.221,0.079 -0.333,0.12 -0.851,0.307 -1.724,0.666 -1.724,0.666 -0.425,-0.209 -0.589,-0.74 -0.363,-1.212 z m -1.05,2.557 c 0.09,-0.246 0.262,-0.443 0.483,-0.554 0,0 1.123,-0.596 2.354,-1.025 0.152,-0.058 0.304,-0.113 0.452,-0.167 1.023,-0.37 1.902,-0.64 1.903,-0.641 l 0.01,0.005 0.167,-0.052 c 0.129,0.078 0.231,0.184 0.31,0.302 l 0.017,0.009 c 0.159,0.254 0.199,0.564 0.07,0.834 -0.097,0.202 -0.273,0.351 -0.497,0.423 0,0 -0.305,0.101 -0.762,0.253 -0.466,0.154 -1.082,0.378 -1.652,0.647 -0.135,0.06 -0.27,0.121 -0.403,0.182 -1.029,0.473 -1.979,0.966 -1.979,0.966 -0.439,-0.172 -0.652,-0.691 -0.473,-1.182 z m 1.985,2.429 c -0.122,0.068 -0.244,0.137 -0.365,0.207 -0.98,0.561 -1.883,1.14 -1.883,1.14 -0.453,-0.137 -0.715,-0.639 -0.583,-1.145 0.065,-0.253 0.217,-0.465 0.425,-0.594 0,0 0.071,-0.043 0.195,-0.119 0.122,-0.076 0.298,-0.183 0.53,-0.301 0.455,-0.24 1.057,-0.546 1.65,-0.829 0.115,-0.055 0.222,-0.103 0.335,-0.156 0.473,-0.221 0.93,-0.427 1.281,-0.577 0.426,-0.191 0.743,-0.293 0.743,-0.293 0.414,0.208 0.621,0.692 0.477,1.115 -0.077,0.211 -0.236,0.375 -0.45,0.466 0,-0.001 -1.165,0.483 -2.355,1.086 z m -4.054,8.369 c 0.013,-0.261 0.119,-0.502 0.297,-0.677 0,0 0.957,-0.955 1.95,-1.787 0.109,-0.086 0.218,-0.17 0.326,-0.254 0.936,-0.724 1.774,-1.303 1.774,-1.303 0.464,0.104 0.783,0.525 0.715,0.966 -0.034,0.222 -0.159,0.418 -0.353,0.557 0,0 -0.274,0.185 -0.645,0.482 -0.36,0.297 -0.841,0.708 -1.325,1.143 -0.117,0.104 -0.233,0.21 -0.348,0.315 -0.838,0.769 -1.588,1.527 -1.588,1.527 -0.47,-0.024 -0.828,-0.447 -0.803,-0.969 z m 0.041,2.748 c -0.013,-0.261 0.068,-0.51 0.229,-0.698 l 0.949,-1.078 h 0.011 c 0,0 0.544,-0.543 1.152,-1.108 0.083,-0.077 0.167,-0.155 0.251,-0.231 0.701,-0.645 1.398,-1.228 1.398,-1.228 0.471,0.066 0.832,0.461 0.809,0.907 -0.011,0.225 -0.115,0.431 -0.294,0.585 0,0 -0.299,0.264 -0.599,0.528 -0.3,0.274 -0.6,0.548 -0.6,0.548 h -0.011 c 0,0 -0.449,0.46 -0.958,1.019 -0.081,0.088 -0.162,0.179 -0.244,0.271 -0.601,0.668 -1.197,1.39 -1.197,1.39 -0.471,0.01 -0.87,-0.385 -0.896,-0.905 z m 0.244,2.75 c -0.039,-0.259 0.017,-0.513 0.159,-0.713 0,0 0.046,-0.063 0.127,-0.179 0.077,-0.112 0.2,-0.273 0.36,-0.467 0.312,-0.383 0.73,-0.881 1.15,-1.357 0.104,-0.119 0.208,-0.236 0.311,-0.35 0.725,-0.808 1.371,-1.459 1.371,-1.459 h 0.011 l 0.134,-0.123 c 0.149,0.008 0.285,0.055 0.404,0.123 h 0.019 c 0.261,0.15 0.446,0.407 0.461,0.706 0.012,0.225 -0.071,0.438 -0.233,0.606 0,0 -0.878,0.901 -1.748,1.922 -0.085,0.109 -0.17,0.222 -0.254,0.331 -0.682,0.898 -1.287,1.786 -1.287,1.786 -0.47,0.05 -0.907,-0.31 -0.985,-0.826 z m 0.453,2.725 c -0.072,-0.252 -0.025,-0.512 0.119,-0.727 0,10e-4 0.751,-1.162 1.524,-2.209 0.075,-0.107 0.153,-0.214 0.23,-0.318 0.681,-0.918 1.407,-1.687 1.407,-1.687 0.478,-0.011 0.863,0.326 0.897,0.771 0.035,0.223 -0.025,0.44 -0.17,0.619 0,0.002 -0.784,0.967 -1.551,2.051 -0.09,0.123 -0.165,0.242 -0.249,0.365 -0.288,0.418 -0.547,0.827 -0.731,1.155 -0.246,0.431 -0.41,0.718 -0.41,0.718 -0.465,0.092 -0.937,-0.23 -1.066,-0.738 z m 0.686,2.668 c -0.066,-0.252 -0.038,-0.518 0.08,-0.739 l 0.702,-1.284 0.011,-0.003 c 0,0 0.368,-0.664 0.808,-1.362 0.055,-0.086 0.11,-0.173 0.166,-0.259 0.553,-0.798 1.117,-1.532 1.117,-1.532 0.473,-0.049 0.902,0.252 0.968,0.693 0.037,0.223 -0.036,0.449 -0.163,0.641 0,0 -0.21,0.323 -0.421,0.646 -0.208,0.332 -0.415,0.662 -0.417,0.666 l -0.012,0.003 c 0,0 -0.343,0.558 -0.724,1.226 -0.061,0.106 -0.123,0.217 -0.185,0.327 -0.473,0.806 -0.818,1.632 -0.818,1.632 -0.444,0.123 -0.984,-0.147 -1.112,-0.655 z m 0.923,2.608 c -0.09,-0.244 -0.087,-0.509 0.009,-0.74 0,0 0.489,-1.207 1.052,-2.32 0.083,-0.151 0.166,-0.303 0.248,-0.448 0.534,-0.95 1.021,-1.729 1.021,-1.729 l -0.07,0.018 0.081,-0.02 0.093,-0.149 c 0.147,-0.028 0.293,-0.017 0.429,0.021 l 0.276,-0.066 -0.258,0.062 c 0.283,0.086 0.513,0.293 0.587,0.582 0.056,0.219 0.018,0.447 -0.106,0.65 0,0 -0.175,0.275 -0.409,0.695 -0.215,0.414 -0.498,0.98 -0.773,1.569 -0.067,0.144 -0.129,0.283 -0.194,0.427 -0.203,0.445 -0.396,0.885 -0.544,1.239 -0.199,0.47 -0.314,0.785 -0.314,0.785 -0.459,0.167 -0.944,-0.086 -1.128,-0.576 z m 1.121,2.526 c -0.113,-0.235 -0.135,-0.497 -0.061,-0.734 0,0 0.103,-0.315 0.258,-0.793 0.143,-0.464 0.389,-1.092 0.665,-1.704 0.052,-0.121 0.105,-0.238 0.157,-0.355 0.481,-1.078 0.947,-1.985 0.947,-1.985 0.459,-0.123 0.945,0.101 1.099,0.519 0.077,0.211 0.062,0.44 -0.042,0.652 0,0 -0.139,0.29 -0.348,0.727 -0.222,0.447 -0.451,1.031 -0.666,1.637 -0.052,0.141 -0.102,0.283 -0.152,0.424 -0.375,1.07 -0.679,2.096 -0.679,2.096 -0.431,0.193 -0.95,-0.013 -1.178,-0.484 z m 2.532,2.795 C 22.046,67.56 21.506,67.4 21.235,66.953 21.1,66.73 21.053,66.473 21.106,66.232 c 0,0 0.08,-0.352 0.16,-0.703 0.09,-0.352 0.204,-0.707 0.205,-0.707 l 0.01,-0.006 c 0,0 0.219,-0.723 0.484,-1.498 0.038,-0.109 0.077,-0.221 0.116,-0.332 0.313,-0.893 0.652,-1.729 0.652,-1.729 0.442,-0.156 0.955,0.021 1.148,0.424 0.098,0.201 0.104,0.43 0.021,0.648 0,0 -0.139,0.37 -0.277,0.74 -0.134,0.381 -0.268,0.76 -0.268,0.761 l -0.01,0.005 c 0,0 -0.072,0.217 -0.18,0.538 -0.06,0.228 -0.135,0.515 -0.213,0.812 -0.032,0.121 -0.062,0.239 -0.095,0.362 -0.215,0.868 -0.4,1.782 -0.4,1.782 z m 1.637,1.387 c -0.061,0.496 -0.101,0.826 -0.101,0.826 -0.394,0.265 -0.949,0.151 -1.262,-0.269 -0.156,-0.209 -0.226,-0.459 -0.194,-0.701 0,0 0.05,-0.324 0.146,-0.809 0.094,-0.484 0.228,-1.117 0.373,-1.732 0.037,-0.157 0.075,-0.312 0.113,-0.469 0.109,-0.441 0.219,-0.855 0.309,-1.182 0.127,-0.441 0.242,-0.742 0.243,-0.742 l 0.01,-0.006 0.06,-0.171 c 0.136,-0.062 0.279,-0.085 0.416,-0.08 l 0.396,-0.208 -0.378,0.199 c 0.29,0.018 0.542,0.175 0.708,0.425 0.117,0.19 0.146,0.418 0.082,0.642 0,0 -0.348,1.201 -0.634,2.504 -0.033,0.147 -0.051,0.285 -0.077,0.429 -0.09,0.489 -0.154,0.959 -0.21,1.344 z m 1.792,0.282 c -0.021,0.145 -0.039,0.289 -0.056,0.432 -0.062,0.51 -0.1,0.998 -0.107,1.373 -0.017,0.496 -0.028,0.826 -0.028,0.826 -0.371,0.295 -0.939,0.23 -1.289,-0.156 -0.183,-0.188 -0.247,-0.451 -0.227,-0.701 0,0 0.119,-1.377 0.311,-2.66 0.019,-0.133 0.042,-0.258 0.062,-0.389 0.077,-0.498 0.163,-0.979 0.264,-1.365 0.117,-0.473 0.195,-0.787 0.195,-0.787 0.416,-0.229 0.925,-0.12 1.155,0.262 0.108,0.197 0.177,0.404 0.128,0.637 -10e-4,-0.003 -0.239,1.214 -0.408,2.528 z m 2.395,6.391 c -0.193,-0.175 -0.313,-0.41 -0.335,-0.658 0,0 -0.126,-1.297 -0.145,-2.545 0.002,-0.174 0.006,-0.345 0.01,-0.513 0.029,-1.089 0.097,-2.004 0.097,-2.004 l -0.003,0.003 0.012,-0.011 0.013,-0.177 c 0.118,-0.094 0.252,-0.15 0.39,-0.18 l 0.015,-0.015 c 0.291,-0.056 0.59,0.021 0.792,0.241 0.151,0.168 0.225,0.388 0.209,0.625 0,0 -0.015,0.322 -0.038,0.808 0.002,0.468 0.015,1.101 0.045,1.75 0.007,0.154 0.015,0.31 0.023,0.464 0.027,0.491 0.062,0.971 0.095,1.355 0.039,0.511 0.088,0.837 0.088,0.837 -0.327,0.363 -0.881,0.371 -1.268,0.02 z m 2.164,1.716 c -0.209,-0.156 -0.35,-0.379 -0.393,-0.623 0,0 -0.055,-0.33 -0.138,-0.822 -0.037,-0.243 -0.079,-0.527 -0.125,-0.831 -0.025,-0.313 -0.053,-0.649 -0.08,-0.985 -0.01,-0.132 -0.018,-0.262 -0.026,-0.392 -0.073,-1.177 -0.083,-2.195 -0.083,-2.195 0.35,-0.323 0.883,-0.353 1.214,-0.051 0.167,0.151 0.26,0.362 0.266,0.599 0,0 0.012,0.321 0.029,0.805 0.01,0.502 0.084,1.117 0.171,1.758 0.02,0.148 0.041,0.299 0.062,0.447 0.162,1.123 0.367,2.172 0.367,2.172 -0.29,0.372 -0.845,0.431 -1.264,0.118 z m 4.684,2.899 c -0.235,-0.113 -0.413,-0.304 -0.498,-0.533 0,0 -0.113,-0.299 -0.248,-0.777 -0.14,-0.473 -0.314,-1.098 -0.47,-1.711 -0.04,-0.156 -0.079,-0.312 -0.116,-0.465 -0.108,-0.445 -0.203,-0.865 -0.273,-1.195 -0.05,-0.219 -0.082,-0.413 -0.101,-0.553 -0.02,-0.137 -0.032,-0.213 -0.032,-0.213 l -0.242,0.35 c 0,0 0.037,0.222 0.092,0.556 0.053,0.229 0.12,0.521 0.188,0.819 0.028,0.121 0.055,0.24 0.083,0.363 0.21,0.869 0.469,1.767 0.469,1.767 -0.259,0.396 -0.811,0.504 -1.257,0.231 -0.223,-0.136 -0.383,-0.343 -0.447,-0.58 0,0 -0.091,-0.35 -0.183,-0.697 -0.092,-0.342 -0.15,-0.717 -0.15,-0.717 l 0.006,-0.01 c 0,0 -0.14,-0.744 -0.264,-1.558 -0.018,-0.114 -0.035,-0.229 -0.051,-0.345 -0.137,-0.938 -0.225,-1.834 -0.225,-1.834 0.323,-0.35 0.856,-0.426 1.214,-0.159 0.18,0.135 0.292,0.335 0.319,0.567 0,0 0.049,0.394 0.098,0.785 0.057,0.399 0.114,0.799 0.114,0.799 l 0.242,-0.35 -0.026,-0.179 c 0.092,-0.118 0.208,-0.204 0.332,-0.265 l 0.011,-0.016 c 0.261,-0.113 0.566,-0.104 0.828,0.044 0.192,0.116 0.322,0.304 0.368,0.531 0,0 0.247,1.228 0.596,2.519 0.041,0.135 0.083,0.271 0.126,0.406 0.345,1.085 0.737,2.07 0.737,2.07 -0.225,0.421 -0.769,0.578 -1.24,0.35 z M 37.797,78.3 c 0.053,0.14 0.103,0.272 0.155,0.41 0.064,0.17 0.131,0.345 0.192,0.507 0.127,0.276 0.246,0.534 0.347,0.756 0.215,0.446 0.358,0.744 0.358,0.744 -0.191,0.434 -0.724,0.641 -1.215,0.461 -0.249,-0.084 -0.432,-0.279 -0.529,-0.515 0,0 -0.533,-1.276 -0.956,-2.504 -0.044,-0.128 -0.083,-0.247 -0.125,-0.372 -0.163,-0.479 -0.313,-0.938 -0.401,-1.329 -0.115,-0.476 -0.191,-0.79 -0.191,-0.79 0.262,-0.396 0.763,-0.533 1.144,-0.301 0.195,0.111 0.346,0.273 0.411,0.498 0,0 0.352,1.192 0.81,2.435 z m 5.095,4.542 c -0.253,-0.064 -0.469,-0.217 -0.604,-0.427 0,10e-4 -0.717,-1.086 -1.313,-2.183 -0.079,-0.154 -0.155,-0.309 -0.229,-0.459 -0.48,-0.978 -0.843,-1.818 -0.845,-1.82 l 0.004,-0.012 -0.07,-0.162 c 0.061,-0.137 0.153,-0.25 0.261,-0.34 l 0.007,-0.021 c 0.231,-0.185 0.532,-0.255 0.812,-0.151 0.21,0.078 0.378,0.238 0.475,0.455 0,0 0.136,0.293 0.341,0.733 0.219,0.411 0.525,0.965 0.854,1.524 0.079,0.136 0.159,0.271 0.239,0.402 0.586,0.975 1.181,1.859 1.181,1.859 -0.12,0.47 -0.605,0.731 -1.113,0.602 z m 2.716,0.51 c -0.258,-0.039 -0.486,-0.168 -0.639,-0.363 0,0 -0.203,-0.266 -0.507,-0.661 C 44.16,81.95 43.785,81.382 43.436,80.809 43.367,80.7 43.3,80.589 43.233,80.481 c -0.615,-1.008 -1.098,-1.906 -1.098,-1.906 0.159,-0.448 0.618,-0.723 1.05,-0.611 0.217,0.057 0.398,0.199 0.514,0.404 0,0 0.16,0.279 0.4,0.697 0.242,0.438 0.591,0.967 0.968,1.479 0.086,0.122 0.175,0.244 0.263,0.364 0.669,0.914 1.341,1.744 1.34,1.744 -0.081,0.466 -0.545,0.778 -1.062,0.7 z m 2.733,0.298 c -0.261,-0.014 -0.499,-0.119 -0.666,-0.299 0,0 -0.249,-0.256 -0.486,-0.535 -0.233,-0.287 -0.466,-0.574 -0.466,-0.575 l 10e-4,-0.011 c 0,0 -0.471,-0.588 -0.958,-1.244 -0.069,-0.094 -0.14,-0.189 -0.208,-0.284 -0.268,-0.38 -0.536,-0.757 -0.737,-1.041 -0.194,-0.279 -0.316,-0.478 -0.316,-0.478 0.119,-0.445 0.558,-0.773 0.999,-0.703 0.222,0.033 0.415,0.156 0.547,0.35 0,0 0.227,0.322 0.454,0.646 0.237,0.324 0.473,0.648 0.474,0.649 l -10e-4,0.011 c 0,0 0.389,0.541 0.874,1.098 0.084,0.096 0.17,0.19 0.258,0.285 0.591,0.664 1.238,1.33 1.238,1.33 -0.047,0.471 -0.486,0.829 -1.007,0.801 z m 5.518,-0.043 c -0.26,0.015 -0.512,-0.065 -0.707,-0.227 0,0 -1.064,-0.867 -2.01,-1.742 -0.101,-0.088 -0.199,-0.182 -0.297,-0.275 -0.364,-0.352 -0.701,-0.729 -0.959,-1.01 -0.323,-0.362 -0.539,-0.604 -0.539,-0.604 0.047,-0.474 0.428,-0.832 0.874,-0.81 0.225,0.006 0.435,0.131 0.595,0.283 0,0 0.865,0.877 1.85,1.75 0.115,0.103 0.229,0.199 0.344,0.301 0.377,0.328 0.75,0.647 1.051,0.896 0.398,0.289 0.662,0.481 0.662,0.481 0.029,0.461 -0.34,0.946 -0.864,0.957 z m 5.426,-0.964 c -0.254,0.064 -0.514,0.035 -0.73,-0.084 0,0 -0.279,-0.158 -0.697,-0.395 -0.409,-0.221 -0.957,-0.594 -1.481,-0.962 -0.135,-0.093 -0.267,-0.187 -0.396,-0.278 -0.887,-0.635 -1.608,-1.208 -1.608,-1.208 l 0.051,0.423 c 0,0 0.521,0.405 1.146,0.858 0.094,0.067 0.188,0.135 0.283,0.203 0.735,0.528 1.526,1.046 1.526,1.046 0.067,0.468 -0.274,0.902 -0.791,0.982 -0.26,0.039 -0.519,-0.016 -0.724,-0.156 L 54.676,82.241 54.674,82.23 c 0,-0.002 -0.611,-0.43 -1.254,-0.987 -0.08,-0.069 -0.16,-0.14 -0.24,-0.214 -0.725,-0.631 -1.387,-1.268 -1.387,-1.268 0.01,-0.475 0.359,-0.871 0.805,-0.895 0.225,-0.012 0.443,0.072 0.617,0.234 0,0 0.299,0.271 0.596,0.541 0.306,0.24 0.609,0.481 0.609,0.481 l -0.051,-0.421 -0.137,-0.107 c -0.01,-0.15 0.02,-0.295 0.074,-0.427 l -0.004,-0.021 c 0.12,-0.273 0.354,-0.481 0.647,-0.527 0.223,-0.034 0.442,0.027 0.631,0.171 0,0 0.256,0.194 0.642,0.485 0.393,0.302 0.924,0.673 1.471,0.99 0.125,0.078 0.252,0.154 0.379,0.229 0.975,0.579 1.918,1.081 1.918,1.081 0.108,0.467 -0.199,0.937 -0.705,1.068 z m 0.873,-3.014 c 0.125,0.062 0.252,0.123 0.377,0.184 1.02,0.49 2.008,0.906 2.008,0.906 0.145,0.45 -0.119,0.949 -0.611,1.129 -0.246,0.09 -0.506,0.086 -0.729,-0.015 0,0.001 -0.302,-0.114 -0.759,-0.356 -0.455,-0.238 -1.049,-0.562 -1.618,-0.89 -0.109,-0.063 -0.212,-0.124 -0.316,-0.187 -0.45,-0.267 -0.881,-0.525 -1.204,-0.729 -0.398,-0.243 -0.662,-0.44 -0.662,-0.44 -0.062,-0.457 0.217,-0.912 0.646,-1.029 0.219,-0.057 0.442,-0.02 0.642,0.107 -0.004,0 1.056,0.684 2.226,1.32 z m 6.832,0.023 c -0.234,0.113 -0.5,0.139 -0.742,0.066 0,0 -1.271,-0.369 -2.445,-0.789 -0.158,-0.053 -0.309,-0.113 -0.465,-0.174 -0.416,-0.156 -0.818,-0.324 -1.133,-0.475 -0.426,-0.197 -0.707,-0.33 -0.709,-0.33 l -0.004,-0.012 -0.16,-0.076 c -0.047,-0.143 -0.053,-0.288 -0.031,-0.426 l -0.006,-0.019 c 0.051,-0.288 0.232,-0.535 0.514,-0.638 0.211,-0.075 0.445,-0.059 0.654,0.021 0,0 1.141,0.469 2.391,0.891 0.14,0.052 0.279,0.099 0.416,0.145 1.109,0.368 2.129,0.578 2.129,0.579 0.214,0.424 0.044,0.978 -0.409,1.237 z m 2.367,-1.429 c -0.224,0.137 -0.482,0.187 -0.729,0.137 0,0 -1.342,-0.264 -2.58,-0.588 -0.135,-0.043 -0.269,-0.084 -0.397,-0.127 -1.127,-0.359 -2.078,-0.724 -2.078,-0.724 -0.178,-0.44 -0.012,-0.94 0.391,-1.135 0.203,-0.099 0.436,-0.104 0.66,-0.022 0,0 0.311,0.125 0.756,0.244 0.451,0.131 1.064,0.297 1.699,0.449 0.148,0.036 0.297,0.072 0.445,0.105 0.483,0.112 0.957,0.215 1.34,0.291 0.252,0.055 0.457,0.088 0.596,0.104 0.143,0.019 0.225,0.03 0.225,0.03 0.251,0.409 0.126,0.975 -0.328,1.236 z m 2.237,-1.6 c -0.209,0.156 -0.461,0.229 -0.709,0.202 l -1.436,-0.179 -0.006,-0.01 c 0,0 -0.232,-0.025 -0.586,-0.091 -0.273,-0.06 -0.619,-0.135 -0.978,-0.213 -0.108,-0.024 -0.215,-0.047 -0.323,-0.071 -0.935,-0.215 -1.812,-0.462 -1.812,-0.462 -0.216,-0.425 -0.093,-0.942 0.289,-1.175 0.192,-0.117 0.422,-0.146 0.649,-0.086 0,0 0.39,0.1 0.777,0.195 0.396,0.106 0.771,0.158 0.775,0.158 l 0.006,0.01 c 0,0 0.645,0.113 1.402,0.222 0.114,0.017 0.231,0.032 0.352,0.048 0.896,0.121 1.836,0.207 1.836,0.207 0.281,0.384 0.182,0.933 -0.236,1.245 z m 4.088,-3.708 c -0.176,0.192 -0.41,0.31 -0.654,0.325 0,0 -0.319,0.037 -0.836,0.035 -0.514,0.002 -1.188,-0.008 -1.846,-0.031 -0.127,-0.006 -0.252,-0.012 -0.375,-0.016 -0.523,-0.024 -1.016,-0.057 -1.396,-0.086 -0.468,-0.027 -0.798,-0.088 -0.798,-0.088 -0.271,-0.377 -0.225,-0.896 0.099,-1.207 0.166,-0.15 0.383,-0.224 0.615,-0.203 0,0 1.256,0.11 2.588,0.129 0.142,-0.004 0.28,-0.008 0.42,-0.014 1.131,-0.039 2.198,-0.13 2.198,-0.13 0.338,0.335 0.336,0.898 -0.015,1.286 z m 1.808,-2.071 c -0.16,0.205 -0.369,0.354 -0.627,0.377 l -1.473,0.135 -0.011,-0.008 c 0,0 -0.76,0.062 -1.578,0.096 -0.106,0.004 -0.215,0.009 -0.321,0.013 -0.465,0.021 -0.922,0.024 -1.287,0.002 -0.354,-0.017 -0.59,-0.028 -0.59,-0.028 -0.312,-0.365 -0.289,-0.871 0.024,-1.188 0.149,-0.167 0.356,-0.258 0.59,-0.26 0,0 0.392,-0.006 0.781,-0.012 0.396,-0.015 0.793,-0.027 0.795,-0.027 l 0.011,0.008 c 0,0 0.655,-0.021 1.411,-0.088 0.13,-0.012 0.261,-0.022 0.394,-0.037 0.875,-0.113 1.783,-0.271 1.783,-0.271 0.364,0.303 0.413,0.87 0.098,1.288 z m 1.653,-2.217 c -0.151,0.213 -0.379,0.354 -0.625,0.404 0,0 -1.301,0.26 -2.535,0.431 -0.166,0.026 -0.328,0.042 -0.491,0.062 -0.441,0.056 -0.871,0.097 -1.224,0.107 -0.469,0.021 -0.781,0.036 -0.781,0.036 l -0.008,-0.008 -0.18,0.007 c -0.105,-0.105 -0.178,-0.23 -0.223,-0.363 L 73.06,69.29 c -0.088,-0.278 -0.041,-0.582 0.16,-0.804 0.155,-0.162 0.362,-0.264 0.586,-0.289 0,0 1.231,-0.111 2.536,-0.316 0.146,-0.02 0.289,-0.041 0.435,-0.064 1.154,-0.187 2.152,-0.476 2.152,-0.476 0.387,0.276 0.487,0.841 0.214,1.286 z m -1.405,-2.873 c 0.148,-0.035 0.297,-0.072 0.443,-0.111 0.483,-0.123 0.95,-0.252 1.325,-0.361 0.486,-0.143 0.785,-0.264 0.783,-0.264 0.405,0.24 0.571,0.809 0.287,1.248 -0.136,0.223 -0.343,0.387 -0.584,0.457 0,0 -1.312,0.387 -2.562,0.67 -0.138,0.026 -0.271,0.051 -0.406,0.076 -1.158,0.205 -2.178,0.32 -2.178,0.32 -0.361,-0.309 -0.445,-0.829 -0.179,-1.186 0.136,-0.181 0.338,-0.295 0.574,-0.326 0,-0.002 0.325,-0.037 0.778,-0.137 0.463,-0.093 1.086,-0.229 1.719,-0.386 z m 5.979,-7.133 c -0.066,0.253 -0.217,0.465 -0.426,0.594 0,0 -0.07,0.044 -0.195,0.119 -0.121,0.076 -0.297,0.184 -0.529,0.301 -0.455,0.24 -1.057,0.547 -1.651,0.83 -0.112,0.055 -0.226,0.105 -0.336,0.158 -0.476,0.223 -0.929,0.423 -1.279,0.574 -0.426,0.189 -0.741,0.293 -0.741,0.293 -0.414,-0.209 -0.621,-0.692 -0.479,-1.115 0.078,-0.211 0.235,-0.375 0.45,-0.466 0,0 1.164,-0.484 2.355,-1.087 0.121,-0.067 0.244,-0.137 0.365,-0.207 0.979,-0.561 1.883,-1.141 1.883,-1.139 0.452,0.137 0.714,0.639 0.583,1.145 z m 0.64,-2.678 c -0.039,0.26 -0.166,0.484 -0.387,0.625 l -1.238,0.808 -0.012,-0.003 c 0,0 -0.646,0.406 -1.353,0.818 -0.093,0.055 -0.187,0.107 -0.279,0.162 -0.399,0.232 -0.805,0.451 -1.139,0.6 -0.32,0.148 -0.535,0.248 -0.535,0.248 -0.444,-0.178 -0.662,-0.637 -0.528,-1.061 0.055,-0.219 0.196,-0.396 0.399,-0.504 0,0 0.342,-0.189 0.687,-0.375 0.344,-0.197 0.688,-0.395 0.688,-0.396 l 0.012,0.004 c 0,0 0.563,-0.325 1.209,-0.732 0.111,-0.07 0.226,-0.143 0.339,-0.217 0.717,-0.509 1.444,-1.072 1.444,-1.072 0.465,0.099 0.774,0.58 0.693,1.095 z m 0.053,-2.084 c 0,0 -1.023,0.838 -2.031,1.564 -0.133,0.102 -0.27,0.188 -0.406,0.283 -0.369,0.253 -0.738,0.488 -1.037,0.665 -0.403,0.237 -0.674,0.396 -0.674,0.396 L 80.25,56.765 80.096,56.853 C 79.951,56.81 79.828,56.732 79.729,56.636 l -0.444,-0.109 c 0.108,0.205 0.278,0.384 0.498,0.504 l -0.65,0.355 c -0.271,0.145 -0.459,0.377 -0.53,0.666 -0.154,0.484 0.041,1.004 0.483,1.297 l -0.687,0.299 c -0.285,0.121 -0.496,0.336 -0.598,0.615 -0.158,0.486 0.004,1.021 0.408,1.346 l -0.715,0.238 c -0.299,0.096 -0.531,0.291 -0.66,0.559 -0.115,0.24 -0.127,0.505 -0.059,0.758 l 0.396,0.209 C 77.014,63.12 76.973,62.809 77.104,62.54 77.2,62.337 77.375,62.187 77.6,62.116 c 0,0 0.305,-0.101 0.762,-0.253 0.465,-0.154 1.082,-0.379 1.652,-0.646 0.135,-0.061 0.27,-0.121 0.401,-0.182 1.03,-0.473 1.979,-0.967 1.979,-0.967 0.44,0.174 0.653,0.691 0.475,1.184 -0.09,0.245 -0.262,0.441 -0.484,0.553 0,0 -1.123,0.598 -2.354,1.025 -0.152,0.059 -0.305,0.113 -0.453,0.167 -1.023,0.371 -1.902,0.642 -1.902,0.642 l 0.092,0.049 -0.102,-0.055 -0.166,0.053 c -0.131,-0.078 -0.232,-0.185 -0.311,-0.304 l -0.406,-0.213 c 0.064,0.229 0.193,0.446 0.379,0.616 l -0.736,0.177 c -0.309,0.069 -0.561,0.244 -0.715,0.497 -0.266,0.438 -0.166,1.008 0.193,1.4 l -0.715,0.139 c -0.316,0.043 -0.586,0.193 -0.765,0.432 -0.307,0.407 -0.26,0.98 0.066,1.4 l -0.732,0.074 c -0.303,0.029 -0.559,0.179 -0.768,0.39 -0.181,0.196 -0.267,0.442 -0.269,0.699 L 72.732,69 c 0.002,0.23 0.067,0.469 0.207,0.678 l -0.742,0.012 c -0.307,0.002 -0.584,0.121 -0.783,0.342 -0.361,0.359 -0.43,0.908 -0.174,1.375 l -0.744,-0.053 c -0.311,-0.025 -0.598,0.067 -0.816,0.269 -0.367,0.358 -0.479,0.901 -0.266,1.38 l -0.744,-0.12 c -0.309,-0.053 -0.605,0.015 -0.842,0.19 -0.213,0.16 -0.348,0.391 -0.404,0.646 l 0.256,0.369 c -0.022,-0.298 0.084,-0.593 0.324,-0.771 0.18,-0.135 0.404,-0.187 0.635,-0.146 0,0 0.318,0.051 0.793,0.127 0.48,0.075 1.137,0.17 1.766,0.196 0.146,0.01 0.294,0.019 0.439,0.024 1.133,0.061 2.202,0.062 2.202,0.062 0.312,0.357 0.259,0.916 -0.129,1.268 -0.192,0.176 -0.438,0.271 -0.685,0.266 0,0 -1.274,0.002 -2.562,-0.186 -0.161,-0.02 -0.319,-0.039 -0.478,-0.061 -1.077,-0.146 -1.981,-0.312 -1.981,-0.312 l 0.104,0.154 -0.112,-0.163 -0.17,-0.03 c -0.08,-0.129 -0.121,-0.271 -0.136,-0.412 l -0.262,-0.377 c -0.049,0.23 -0.033,0.488 0.049,0.719 l -0.735,-0.188 c -0.306,-0.08 -0.609,-0.042 -0.863,0.112 -0.437,0.265 -0.612,0.817 -0.476,1.334 0,0 -0.694,-0.199 -0.7,-0.216 -0.3,-0.107 -0.606,-0.098 -0.875,0.029 -0.461,0.221 -0.685,0.752 -0.588,1.274 L 62.555,76.52 c -0.279,-0.109 -0.58,-0.106 -0.861,-0.017 -0.25,0.091 -0.438,0.271 -0.561,0.495 l 0.004,0.01 c -0.104,0.205 -0.156,0.447 -0.131,0.695 l -0.662,-0.334 c -0.272,-0.143 -0.572,-0.164 -0.85,-0.061 -0.488,0.149 -0.803,0.604 -0.793,1.135 l -0.635,-0.396 c -0.262,-0.167 -0.562,-0.219 -0.848,-0.146 -0.49,0.146 -0.839,0.593 -0.875,1.105 l -0.604,-0.457 c -0.248,-0.191 -0.541,-0.273 -0.834,-0.229 -0.265,0.039 -0.488,0.181 -0.658,0.379 v 0.012 c -0.149,0.182 -0.258,0.41 -0.291,0.659 -0.002,0.015 -0.562,-0.495 -0.562,-0.495 -0.234,-0.216 -0.521,-0.326 -0.816,-0.312 -0.512,0.024 -0.926,0.429 -1.045,0.947 l -0.521,-0.515 c -0.213,-0.205 -0.49,-0.339 -0.788,-0.36 -0.511,-0.027 -0.956,0.332 -1.114,0.836 l -0.479,-0.564 c -0.197,-0.237 -0.464,-0.375 -0.76,-0.389 -0.267,-0.006 -0.515,0.035 -0.726,0.183 l -0.054,0.444 c 0.18,-0.234 0.451,-0.34 0.75,-0.328 0.225,0.011 0.427,0.113 0.574,0.291 0,0 0.792,0.961 1.703,1.931 0.102,0.114 0.204,0.21 0.308,0.315 0.353,0.363 0.702,0.697 0.987,0.945 0.373,0.327 0.621,0.545 0.621,0.545 -0.009,0.475 -0.414,0.873 -0.938,0.897 -0.26,0.019 -0.504,-0.071 -0.687,-0.259 0,0 -0.952,-0.932 -1.795,-1.862 -0.112,-0.123 -0.214,-0.239 -0.321,-0.358 -0.3,-0.336 -0.584,-0.66 -0.799,-0.92 -0.283,-0.38 -0.472,-0.632 -0.473,-0.633 l 10e-4,-0.011 -0.106,-0.146 c 0.026,-0.148 0.088,-0.279 0.17,-0.39 l 0.055,-0.455 c -0.189,0.129 -0.345,0.317 -0.438,0.548 l -0.43,-0.613 c -0.176,-0.256 -0.43,-0.422 -0.723,-0.465 -0.507,-0.066 -1.005,0.229 -1.238,0.682 l -0.376,-0.656 c -0.153,-0.273 -0.392,-0.465 -0.679,-0.538 -0.495,-0.127 -1.017,0.134 -1.293,0.591 0,0 -0.084,-0.162 -0.168,-0.324 -0.079,-0.174 -0.157,-0.348 -0.157,-0.348 -0.129,-0.289 -0.35,-0.504 -0.628,-0.605 -0.25,-0.092 -0.513,-0.076 -0.753,0.017 l -0.039,0.103 0.035,-0.093 c -0.217,0.089 -0.417,0.238 -0.562,0.442 L 39.414,76.77 c -0.117,-0.271 -0.312,-0.519 -0.58,-0.646 -0.459,-0.224 -1.01,-0.065 -1.355,0.337 L 37.261,75.756 C 37.175,75.459 36.977,75.239 36.718,75.098 36.282,74.83 35.725,74.936 35.349,75.309 L 35.193,74.58 c -0.062,-0.304 -0.232,-0.552 -0.486,-0.705 -0.232,-0.131 -0.491,-0.181 -0.736,-0.162 l -0.244,0.353 0.238,-0.344 c -0.227,0.024 -0.453,0.117 -0.641,0.277 l -0.093,-0.745 c -0.035,-0.312 -0.183,-0.575 -0.42,-0.753 -0.41,-0.307 -1,-0.264 -1.417,0.027 l -0.027,-0.756 c -0.008,-0.314 -0.13,-0.594 -0.35,-0.795 -0.378,-0.344 -0.961,-0.356 -1.419,-0.08 0,0 0.001,-0.185 0.002,-0.367 0.011,-0.188 0.022,-0.379 0.022,-0.379 0.02,-0.316 -0.077,-0.608 -0.276,-0.828 -0.179,-0.197 -0.419,-0.307 -0.676,-0.336 L 28.622,69.03 28.665,69 c -0.233,-0.023 -0.48,0.018 -0.704,0.131 l 0.067,-0.729 c 0.021,-0.293 -0.03,-0.61 -0.212,-0.844 -0.305,-0.41 -0.867,-0.525 -1.359,-0.328 l 0.132,-0.727 c 0.064,-0.305 -0.02,-0.584 -0.172,-0.839 -0.264,-0.438 -0.808,-0.603 -1.313,-0.446 l 0.198,-0.717 c 0.085,-0.297 0.048,-0.598 -0.106,-0.85 -0.148,-0.223 -0.34,-0.394 -0.572,-0.487 l -0.009,0.005 c -0.213,-0.083 -0.456,-0.104 -0.698,-0.05 l 0.263,-0.703 c 0.112,-0.291 0.104,-0.595 -0.025,-0.86 -0.227,-0.457 -0.761,-0.697 -1.266,-0.632 l 0.328,-0.683 c 0.138,-0.282 0.16,-0.588 0.058,-0.865 -0.176,-0.479 -0.686,-0.762 -1.219,-0.729 0,0 0.085,-0.162 0.171,-0.323 C 22.325,58.162 22.423,58 22.423,58 c 0.165,-0.271 0.216,-0.574 0.143,-0.861 -0.066,-0.258 -0.227,-0.466 -0.44,-0.611 l -0.011,0.004 C 21.92,56.401 21.683,56.323 21.433,56.319 l 0.4,-0.613 c 0.157,-0.25 0.241,-0.551 0.199,-0.844 -0.076,-0.506 -0.516,-0.869 -1.043,-0.926 l 0.458,-0.58 c 0.193,-0.238 0.274,-0.527 0.228,-0.82 -0.038,-0.51 -0.427,-0.91 -0.948,-1.008 l 0.515,-0.543 c 0.216,-0.225 0.326,-0.506 0.311,-0.802 -0.014,-0.266 -0.131,-0.506 -0.312,-0.699 H 21.23 c -0.147,-0.172 -0.35,-0.305 -0.588,-0.369 l 0.568,-0.5 c 0.238,-0.206 0.376,-0.478 0.392,-0.774 0.025,-0.511 -0.334,-0.971 -0.837,-1.15 0,0 0.141,-0.115 0.281,-0.231 0.153,-0.112 0.306,-0.224 0.306,-0.224 0.258,-0.185 0.424,-0.444 0.47,-0.737 0.078,-0.505 -0.234,-0.99 -0.719,-1.209 l 0.608,-0.408 c 0.245,-0.169 0.422,-0.416 0.506,-0.7 0.067,-0.257 0.026,-0.515 -0.091,-0.742 L 21.69,42.333 c 0.208,0.206 0.31,0.495 0.234,0.784 -0.053,0.218 -0.211,0.399 -0.392,0.527 0,0 -1.032,0.673 -2.085,1.464 -0.12,0.09 -0.24,0.181 -0.36,0.272 -0.402,0.305 -0.792,0.609 -1.082,0.859 -0.363,0.332 -0.605,0.553 -0.605,0.553 -0.461,-0.062 -0.846,-0.518 -0.775,-1.036 0.039,-0.258 0.168,-0.49 0.364,-0.649 0,0 1.023,-0.837 2.031,-1.565 0.132,-0.1 0.27,-0.189 0.407,-0.283 0.368,-0.253 0.738,-0.489 1.037,-0.665 0.404,-0.237 0.674,-0.396 0.674,-0.396 l -0.161,-0.04 0.171,0.042 0.155,-0.088 c 0.144,0.043 0.267,0.122 0.368,0.217 l 0.445,0.109 c -0.109,-0.204 -0.28,-0.383 -0.499,-0.503 l 0.65,-0.355 c 0.271,-0.145 0.459,-0.379 0.532,-0.666 0.155,-0.486 -0.041,-1.004 -0.485,-1.298 L 23,39.317 c 0.286,-0.121 0.497,-0.337 0.598,-0.616 0.158,-0.487 -0.004,-1.022 -0.409,-1.346 l 0.716,-0.238 c 0.298,-0.096 0.531,-0.292 0.659,-0.559 0.115,-0.24 0.127,-0.505 0.059,-0.758 l -0.24,-0.126 0.231,0.122 C 24.55,35.567 24.421,35.35 24.235,35.18 L 24.972,35 c 0.308,-0.07 0.561,-0.244 0.714,-0.497 0.266,-0.437 0.166,-1.008 -0.194,-1.401 l 0.716,-0.138 c 0.315,-0.043 0.585,-0.193 0.763,-0.431 0.307,-0.409 0.26,-0.982 -0.066,-1.401 l 0.731,-0.076 c 0.303,-0.029 0.56,-0.177 0.769,-0.389 0.18,-0.197 0.264,-0.443 0.267,-0.699 L 28.664,29.961 C 28.663,29.73 28.595,29.492 28.457,29.284 l 0.742,-0.012 c 0.308,-0.002 0.584,-0.121 0.783,-0.342 0.362,-0.359 0.43,-0.91 0.174,-1.376 l 0.746,0.054 c 0.309,0.025 0.597,-0.068 0.816,-0.269 0.366,-0.359 0.478,-0.901 0.265,-1.38 l 0.744,0.12 c 0.308,0.053 0.605,-0.013 0.843,-0.191 0.213,-0.16 0.346,-0.39 0.403,-0.646 l -0.255,-0.37 c 0.023,0.298 -0.084,0.593 -0.324,0.772 -0.18,0.135 -0.404,0.186 -0.635,0.146 0,0 -0.317,-0.051 -0.792,-0.127 C 31.486,25.588 30.83,25.494 30.2,25.467 30.054,25.457 29.908,25.449 29.762,25.442 28.63,25.383 27.559,25.38 27.559,25.38 c -0.309,-0.358 -0.258,-0.917 0.129,-1.268 0.193,-0.176 0.438,-0.271 0.685,-0.266 0,0 1.275,-0.001 2.562,0.186 0.161,0.021 0.32,0.04 0.477,0.062 1.078,0.145 1.982,0.312 1.983,0.312 l 0.006,0.009 0.171,0.031 c 0.079,0.128 0.121,0.27 0.135,0.412 l 0.26,0.376 C 34.017,25.003 34,24.745 33.919,24.515 l 0.737,0.187 c 0.305,0.081 0.609,0.042 0.862,-0.111 0.437,-0.265 0.613,-0.819 0.475,-1.334 0,0 0.696,0.199 0.702,0.215 0.299,0.108 0.607,0.099 0.875,-0.029 0.46,-0.221 0.684,-0.751 0.589,-1.274 l 0.683,0.271 c 0.28,0.11 0.58,0.107 0.862,0.016 0.25,-0.09 0.439,-0.27 0.56,-0.495 l -0.004,-0.01 c 0.106,-0.206 0.157,-0.447 0.131,-0.695 l 0.662,0.334 c 0.273,0.141 0.572,0.164 0.85,0.061 0.487,-0.15 0.803,-0.604 0.794,-1.136 l 0.634,0.396 c 0.262,0.167 0.56,0.218 0.847,0.144 0.491,-0.145 0.838,-0.591 0.875,-1.104 l 0.603,0.457 c 0.248,0.191 0.542,0.273 0.835,0.229 0.263,-0.04 0.488,-0.18 0.658,-0.379 l -10e-4,-0.011 c 0.152,-0.182 0.258,-0.411 0.292,-0.66 0.001,-0.015 0.563,0.496 0.563,0.495 0.233,0.216 0.52,0.327 0.816,0.312 0.511,-0.025 0.925,-0.428 1.043,-0.947 l 0.521,0.515 c 0.215,0.205 0.492,0.338 0.788,0.36 0.513,0.028 0.957,-0.331 1.115,-0.836 l 0.479,0.566 c 0.196,0.236 0.463,0.374 0.76,0.388 0.268,0.006 0.516,-0.034 0.727,-0.182 v -0.01 c 0.189,-0.129 0.346,-0.317 0.438,-0.547 l 0.433,0.613 c 0.176,0.256 0.43,0.421 0.724,0.465 0.508,0.066 1.004,-0.228 1.237,-0.682 l 0.375,0.657 c 0.153,0.274 0.394,0.464 0.681,0.538 0.493,0.126 1.018,-0.133 1.293,-0.591 0,0 0.084,0.163 0.168,0.326 0.08,0.173 0.157,0.347 0.157,0.347 0.129,0.289 0.351,0.503 0.627,0.605 0.25,0.092 0.515,0.077 0.755,-0.016 l 0.004,-0.01 c 0.217,-0.087 0.416,-0.238 0.562,-0.441 l 0.276,0.677 c 0.119,0.27 0.312,0.519 0.582,0.646 0.459,0.223 1.01,0.065 1.354,-0.337 l 0.22,0.706 c 0.086,0.297 0.282,0.516 0.543,0.658 0.436,0.267 0.993,0.161 1.368,-0.21 l 0.156,0.728 c 0.062,0.303 0.231,0.552 0.485,0.705 0.232,0.13 0.49,0.18 0.736,0.163 l 0.006,-0.009 c 0.228,-0.025 0.453,-0.118 0.644,-0.278 l 0.092,0.746 c 0.035,0.31 0.183,0.576 0.42,0.752 0.41,0.305 1,0.262 1.418,-0.029 l 0.024,0.757 c 0.011,0.314 0.132,0.595 0.353,0.794 0.377,0.344 0.961,0.357 1.418,0.081 0,0 0,0.184 -0.002,0.367 -0.012,0.19 -0.021,0.379 -0.021,0.379 -0.021,0.316 0.076,0.609 0.274,0.829 0.181,0.197 0.421,0.306 0.677,0.335 l 0.336,-0.298 c -0.291,0.056 -0.59,-0.021 -0.791,-0.242 -0.152,-0.167 -0.226,-0.387 -0.211,-0.624 0,0 0.016,-0.323 0.039,-0.807 C 72.1,27.534 72.085,26.9 72.057,26.251 72.048,26.097 72.04,25.942 72.034,25.788 72.007,25.295 71.972,24.817 71.938,24.432 71.899,23.922 71.85,23.595 71.85,23.595 c 0.327,-0.361 0.881,-0.37 1.268,-0.018 0.193,0.175 0.314,0.41 0.336,0.659 0,0 0.125,1.296 0.145,2.544 -0.002,0.173 -0.006,0.345 -0.01,0.513 -0.029,1.089 -0.098,2.004 -0.098,2.004 l -0.008,0.008 -0.015,0.176 c -0.116,0.093 -0.252,0.151 -0.389,0.181 l -0.345,0.304 c 0.234,0.023 0.48,-0.018 0.705,-0.13 l -0.067,0.729 c -0.021,0.293 0.03,0.61 0.213,0.844 0.306,0.41 0.867,0.525 1.358,0.328 l -0.133,0.726 c -0.062,0.305 0.021,0.584 0.172,0.839 0.265,0.438 0.81,0.602 1.312,0.446 l -0.197,0.717 c -0.084,0.297 -0.049,0.596 0.107,0.849 0.148,0.222 0.34,0.393 0.572,0.488 l 0.008,-0.005 c 0.213,0.083 0.457,0.104 0.699,0.05 l -0.265,0.703 c -0.11,0.291 -0.104,0.594 0.025,0.86 0.228,0.458 0.762,0.697 1.266,0.632 l -0.327,0.682 c -0.14,0.282 -0.16,0.587 -0.058,0.865 0.174,0.479 0.687,0.761 1.219,0.729 0,0 -0.086,0.162 -0.172,0.323 -0.098,0.163 -0.194,0.326 -0.194,0.326 -0.166,0.271 -0.218,0.574 -0.146,0.861 0.065,0.257 0.228,0.465 0.44,0.611 l 0.011,-0.002 c 0.194,0.129 0.432,0.208 0.684,0.212 l -0.399,0.613 c -0.156,0.25 -0.242,0.55 -0.199,0.844 0.074,0.505 0.516,0.869 1.043,0.925 l -0.459,0.581 c -0.193,0.239 -0.273,0.528 -0.229,0.821 0.039,0.51 0.428,0.91 0.948,1.008 l -0.517,0.543 c -0.215,0.224 -0.325,0.506 -0.309,0.802 0.014,0.266 0.131,0.506 0.312,0.699 h 0.012 c 0.146,0.172 0.351,0.305 0.588,0.369 l -0.567,0.5 c -0.238,0.207 -0.377,0.478 -0.392,0.774 -0.024,0.511 0.332,0.972 0.836,1.149 0,0 -0.141,0.115 -0.28,0.23 -0.152,0.111 -0.306,0.225 -0.306,0.225 -0.26,0.185 -0.426,0.443 -0.471,0.736 -0.078,0.504 0.233,0.99 0.719,1.209 l -0.608,0.408 c -0.244,0.169 -0.422,0.415 -0.506,0.7 -0.066,0.257 -0.025,0.515 0.092,0.741 l 0.436,0.106 c -0.207,-0.206 -0.309,-0.495 -0.234,-0.784 0.053,-0.218 0.211,-0.398 0.394,-0.527 0,0 1.03,-0.672 2.086,-1.463 0.119,-0.09 0.239,-0.182 0.358,-0.271 C 82.716,53.28 83.105,52.98 83.396,52.73 83.759,52.398 84,52.176 84,52.176 c 0.461,0.062 0.849,0.519 0.774,1.036 -0.04,0.257 -0.169,0.488 -0.364,0.647 z"
       id="path2"
       style="fill:#4f4f4f" /></g></svg>
