<?xml version="1.0" encoding="UTF-8" standalone="no"?>
<svg
   data-name="Layer 1"
   viewBox="0 0 79.412003 76.383034"
   x="0px"
   y="0px"
   version="1.1"
   id="svg8"
   sodipodi:docname="city.svg"
   width="79.412003"
   height="76.383034"
   inkscape:version="1.1.2 (0a00cf5339, 2022-02-04)"
   xmlns:inkscape="http://www.inkscape.org/namespaces/inkscape"
   xmlns:sodipodi="http://sodipodi.sourceforge.net/DTD/sodipodi-0.dtd"
   xmlns="http://www.w3.org/2000/svg"
   xmlns:svg="http://www.w3.org/2000/svg">
  <defs
     id="defs12" />
  <sodipodi:namedview
     id="namedview10"
     pagecolor="#ffffff"
     bordercolor="#666666"
     borderopacity="1.0"
     inkscape:pageshadow="2"
     inkscape:pageopacity="0.0"
     inkscape:pagecheckerboard="0"
     showgrid="false"
     fit-margin-top="0"
     fit-margin-left="0"
     fit-margin-right="0"
     fit-margin-bottom="0"
     inkscape:zoom="6.088"
     inkscape:cx="39.586071"
     inkscape:cy="50.673456"
     inkscape:window-width="1850"
     inkscape:window-height="1025"
     inkscape:window-x="1990"
     inkscape:window-y="27"
     inkscape:window-maximized="1"
     inkscape:current-layer="svg8" />
  <path
     d="m 78.309,74.178037 h -1.391 v -59.231 c 0,-0.609 -0.494,-1.103 -1.103,-1.103 H 58.981 c -0.609,0 -1.103,0.494 -1.103,1.103 v 21.199 h -3.405 v -20.468 c 0,-0.609 -0.494,-1.103 -1.103,-1.103 H 37.991 c -0.609,0 -1.103,0.494 -1.103,1.103 v 15.48 H 24.131 v -6.171 c 0,-0.609 -0.494,-1.103 -1.103,-1.103 h -2.95 v -5.548 c 0,-0.609 -0.494,-1.103 -1.103,-1.103 h -4.3 v -7.21 c 0,-0.609 -0.494,-1.103 -1.103,-1.103 -0.609,0 -1.103,0.494 -1.103,1.103 v 7.21 h -4.3 c -0.609,0 -1.103,0.494 -1.103,1.103 v 5.548 H 4.117 c -0.609,0 -1.103,0.494 -1.103,1.103 v 49.19 H 1.103 c -0.609,0 -1.103,0.494 -1.103,1.103 0,0.609 0.494,1.103 1.103,1.103 h 77.206 c 0.609,0 1.103,-0.494 1.103,-1.103 0,-0.609 -0.494,-1.103 -1.103,-1.103 z m -26.042,-57.397 v 19.365 h -9.08 c -0.609,0 -1.103,0.494 -1.103,1.103 v 36.929 h -2.99 v -41.917 c 0,0 0,0 0,0 v -15.48 z m -42.996,2.659 h 8.601 v 4.445 H 9.271 Z m -4.052,6.65 h 16.706 v 48.087 H 5.219 Z m 18.912,7.274 h 12.757 v 40.814 H 24.131 Z m 20.159,40.814 v -35.826 h 13.589 v 35.826 z m 15.795,0 v -58.128 h 14.628 v 58.128 z m 6.491,-52.653 c 0,0.522 -0.423,0.945 -0.945,0.945 h -2.409 c -0.522,0 -0.945,-0.423 -0.945,-0.945 0,-0.522 0.423,-0.945 0.945,-0.945 h 2.409 c 0.522,0 0.945,0.423 0.945,0.945 z m 5.863,0 c 0,0.522 -0.423,0.945 -0.945,0.945 H 69.22 c -0.522,0 -0.945,-0.423 -0.945,-0.945 0,-0.522 0.423,-0.945 0.945,-0.945 h 2.274 c 0.522,0 0.945,0.423 0.945,0.945 z m -5.863,5.651 c 0,0.522 -0.423,0.945 -0.945,0.945 h -2.409 c -0.522,0 -0.945,-0.423 -0.945,-0.945 0,-0.522 0.423,-0.945 0.945,-0.945 h 2.409 c 0.522,0 0.945,0.423 0.945,0.945 z m 5.863,0 c 0,0.522 -0.423,0.945 -0.945,0.945 H 69.22 c -0.522,0 -0.945,-0.423 -0.945,-0.945 0,-0.522 0.423,-0.945 0.945,-0.945 h 2.274 c 0.522,0 0.945,0.423 0.945,0.945 z m -10.233,5.651 c 0,-0.522 0.423,-0.945 0.945,-0.945 h 2.409 c 0.522,0 0.945,0.423 0.945,0.945 0,0.522 -0.423,0.945 -0.945,0.945 h -2.409 c -0.522,0 -0.945,-0.423 -0.945,-0.945 z m 6.001,0 c 0,-0.522 0.423,-0.945 0.945,-0.945 h 2.274 c 0.522,0 0.945,0.423 0.945,0.945 0,0.522 -0.423,0.945 -0.945,0.945 h -2.274 c -0.522,0 -0.945,-0.423 -0.945,-0.945 z m -20.992,-7.18 v -2.737 c 0,-0.522 0.423,-0.945 0.945,-0.945 0.522,0 0.945,0.423 0.945,0.945 v 2.737 c 0,0.522 -0.423,0.945 -0.945,0.945 -0.522,0 -0.945,-0.423 -0.945,-0.945 z m -4.583,-0.046 v -2.737 c 0,-0.522 0.423,-0.945 0.945,-0.945 0.522,0 0.945,0.423 0.945,0.945 v 2.737 c 0,0.522 -0.423,0.945 -0.945,0.945 -0.522,0 -0.945,-0.423 -0.945,-0.945 z m 1.977,2.918 v 2.737 c 0,0.522 -0.423,0.945 -0.945,0.945 -0.522,0 -0.945,-0.423 -0.945,-0.945 v -2.737 c 0,-0.522 0.423,-0.945 0.945,-0.945 0.522,0 0.945,0.423 0.945,0.945 z m 2.605,2.646 v -2.737 c 0,-0.522 0.423,-0.945 0.945,-0.945 0.522,0 0.945,0.423 0.945,0.945 v 2.737 c 0,0.522 -0.423,0.945 -0.945,0.945 -0.522,0 -0.945,-0.423 -0.945,-0.945 z m -37.218,-0.449 v 3.428 c 0,0.522 -0.423,0.945 -0.945,0.945 -0.522,0 -0.945,-0.423 -0.945,-0.945 v -3.428 c 0,-0.522 0.423,-0.945 0.945,-0.945 0.522,0 0.945,0.423 0.945,0.945 z m 4.155,0 v 3.428 c 0,0.522 -0.423,0.945 -0.945,0.945 -0.522,0 -0.945,-0.423 -0.945,-0.945 v -3.428 c 0,-0.522 0.423,-0.945 0.945,-0.945 0.522,0 0.945,0.423 0.945,0.945 z m 4.155,0.101 v 3.428 c 0,0.522 -0.423,0.945 -0.945,0.945 -0.522,0 -0.945,-0.423 -0.945,-0.945 v -3.428 c 0,-0.522 0.423,-0.945 0.945,-0.945 0.522,0 0.945,0.423 0.945,0.945 z m -8.31,6.754 v 3.428 c 0,0.522 -0.423,0.945 -0.945,0.945 -0.522,0 -0.945,-0.423 -0.945,-0.945 v -3.428 c 0,-0.522 0.423,-0.945 0.945,-0.945 0.522,0 0.945,0.423 0.945,0.945 z m 4.155,0 v 3.428 c 0,0.522 -0.423,0.945 -0.945,0.945 -0.522,0 -0.945,-0.423 -0.945,-0.945 v -3.428 c 0,-0.522 0.423,-0.945 0.945,-0.945 0.522,0 0.945,0.423 0.945,0.945 z m 4.155,0.101 v 3.428 c 0,0.522 -0.423,0.945 -0.945,0.945 -0.522,0 -0.945,-0.423 -0.945,-0.945 v -3.428 c 0,-0.522 0.423,-0.945 0.945,-0.945 0.522,0 0.945,0.423 0.945,0.945 z m -8.31,6.754 v 3.428 c 0,0.522 -0.423,0.945 -0.945,0.945 -0.522,0 -0.945,-0.423 -0.945,-0.945 v -3.428 c 0,-0.522 0.423,-0.945 0.945,-0.945 0.522,0 0.945,0.423 0.945,0.945 z m 4.155,0 v 3.428 c 0,0.522 -0.423,0.945 -0.945,0.945 -0.522,0 -0.945,-0.423 -0.945,-0.945 v -3.428 c 0,-0.522 0.423,-0.945 0.945,-0.945 0.522,0 0.945,0.423 0.945,0.945 z m 4.155,0.101 v 3.428 c 0,0.522 -0.423,0.945 -0.945,0.945 -0.522,0 -0.945,-0.423 -0.945,-0.945 v -3.428 c 0,-0.522 0.423,-0.945 0.945,-0.945 0.522,0 0.945,0.423 0.945,0.945 z m -8.31,6.754 v 3.428 c 0,0.522 -0.423,0.945 -0.945,0.945 -0.522,0 -0.945,-0.423 -0.945,-0.945 v -3.428 c 0,-0.522 0.423,-0.945 0.945,-0.945 0.522,0 0.945,0.423 0.945,0.945 z m 4.155,0 v 3.428 c 0,0.522 -0.423,0.945 -0.945,0.945 -0.522,0 -0.945,-0.423 -0.945,-0.945 v -3.428 c 0,-0.522 0.423,-0.945 0.945,-0.945 0.522,0 0.945,0.423 0.945,0.945 z m 4.155,0.101 v 3.428 c 0,0.522 -0.423,0.945 -0.945,0.945 -0.522,0 -0.945,-0.423 -0.945,-0.945 v -3.428 c 0,-0.522 0.423,-0.945 0.945,-0.945 0.522,0 0.945,0.423 0.945,0.945 z m -8.31,6.754 v 3.428 c 0,0.522 -0.423,0.945 -0.945,0.945 -0.522,0 -0.945,-0.423 -0.945,-0.945 v -3.428 c 0,-0.522 0.423,-0.945 0.945,-0.945 0.522,0 0.945,0.423 0.945,0.945 z m 4.155,0 v 3.428 c 0,0.522 -0.423,0.945 -0.945,0.945 -0.522,0 -0.945,-0.423 -0.945,-0.945 v -3.428 c 0,-0.522 0.423,-0.945 0.945,-0.945 0.522,0 0.945,0.423 0.945,0.945 z m 4.155,0.101 v 3.428 c 0,0.522 -0.423,0.945 -0.945,0.945 -0.522,0 -0.945,-0.423 -0.945,-0.945 v -3.428 c 0,-0.522 0.423,-0.945 0.945,-0.945 0.522,0 0.945,0.423 0.945,0.945 z m -8.31,6.754 v 3.428 c 0,0.522 -0.423,0.945 -0.945,0.945 -0.522,0 -0.945,-0.423 -0.945,-0.945 v -3.428 c 0,-0.522 0.423,-0.945 0.945,-0.945 0.522,0 0.945,0.423 0.945,0.945 z m 4.155,0 v 3.428 c 0,0.522 -0.423,0.945 -0.945,0.945 -0.522,0 -0.945,-0.423 -0.945,-0.945 v -3.428 c 0,-0.522 0.423,-0.945 0.945,-0.945 0.522,0 0.945,0.423 0.945,0.945 z m 4.155,0.101 v 3.428 c 0,0.522 -0.423,0.945 -0.945,0.945 -0.522,0 -0.945,-0.423 -0.945,-0.945 v -3.428 c 0,-0.522 0.423,-0.945 0.945,-0.945 0.522,0 0.945,0.423 0.945,0.945 z m 48.27,-26.614 c 0,0.522 -0.423,0.945 -0.945,0.945 h -2.409 c -0.522,0 -0.945,-0.423 -0.945,-0.945 0,-0.522 0.423,-0.945 0.945,-0.945 h 2.409 c 0.522,0 0.945,0.423 0.945,0.945 z m 5.863,0 c 0,0.522 -0.423,0.945 -0.945,0.945 H 69.22 c -0.522,0 -0.945,-0.423 -0.945,-0.945 0,-0.522 0.423,-0.945 0.945,-0.945 h 2.274 c 0.522,0 0.945,0.423 0.945,0.945 z m -5.863,5.651 c 0,0.522 -0.423,0.945 -0.945,0.945 h -2.409 c -0.522,0 -0.945,-0.423 -0.945,-0.945 0,-0.522 0.423,-0.945 0.945,-0.945 h 2.409 c 0.522,0 0.945,0.423 0.945,0.945 z m 5.863,0 c 0,0.522 -0.423,0.945 -0.945,0.945 H 69.22 c -0.522,0 -0.945,-0.423 -0.945,-0.945 0,-0.522 0.423,-0.945 0.945,-0.945 h 2.274 c 0.522,0 0.945,0.423 0.945,0.945 z m -10.233,5.651 c 0,-0.522 0.423,-0.945 0.945,-0.945 h 2.409 c 0.522,0 0.945,0.423 0.945,0.945 0,0.522 -0.423,0.945 -0.945,0.945 h -2.409 c -0.522,0 -0.945,-0.423 -0.945,-0.945 z m 10.166,0 c 0,0.522 -0.423,0.945 -0.945,0.945 h -2.274 c -0.522,0 -0.945,-0.423 -0.945,-0.945 0,-0.522 0.423,-0.945 0.945,-0.945 h 2.274 c 0.522,0 0.945,0.423 0.945,0.945 z m -5.863,5.651 c 0,0.522 -0.423,0.945 -0.945,0.945 h -2.409 c -0.522,0 -0.945,-0.423 -0.945,-0.945 0,-0.522 0.423,-0.945 0.945,-0.945 h 2.409 c 0.522,0 0.945,0.423 0.945,0.945 z m 5.863,0 c 0,0.522 -0.423,0.945 -0.945,0.945 h -2.274 c -0.522,0 -0.945,-0.423 -0.945,-0.945 0,-0.522 0.423,-0.945 0.945,-0.945 h 2.274 c 0.522,0 0.945,0.423 0.945,0.945 z m -5.863,5.651 c 0,0.522 -0.423,0.945 -0.945,0.945 h -2.409 c -0.522,0 -0.945,-0.423 -0.945,-0.945 0,-0.522 0.423,-0.945 0.945,-0.945 h 2.409 c 0.522,0 0.945,0.423 0.945,0.945 z m 5.863,0 c 0,0.522 -0.423,0.945 -0.945,0.945 h -2.274 c -0.522,0 -0.945,-0.423 -0.945,-0.945 0,-0.522 0.423,-0.945 0.945,-0.945 h 2.274 c 0.522,0 0.945,0.423 0.945,0.945 z m -5.933,5.651 c 0,0.522 -0.423,0.945 -0.945,0.945 h -2.409 c -0.522,0 -0.945,-0.423 -0.945,-0.945 0,-0.522 0.423,-0.945 0.945,-0.945 h 2.409 c 0.522,0 0.945,0.423 0.945,0.945 z m 5.867,0 c 0,0.522 -0.423,0.945 -0.945,0.945 h -2.274 c -0.522,0 -0.945,-0.423 -0.945,-0.945 0,-0.522 0.423,-0.945 0.945,-0.945 h 2.274 c 0.522,0 0.945,0.423 0.945,0.945 z m -22.155,-24.26 c 0,0.522 -0.423,0.945 -0.945,0.945 h -2.409 c -0.522,0 -0.945,-0.423 -0.945,-0.945 0,-0.522 0.423,-0.945 0.945,-0.945 h 2.409 c 0.522,0 0.945,0.423 0.945,0.945 z m 1.697,0 c 0,-0.522 0.423,-0.945 0.945,-0.945 h 2.274 c 0.522,0 0.945,0.423 0.945,0.945 0,0.522 -0.423,0.945 -0.945,0.945 h -2.274 c -0.522,0 -0.945,-0.423 -0.945,-0.945 z m -1.697,4.155 c 0,0.522 -0.423,0.945 -0.945,0.945 h -2.409 c -0.522,0 -0.945,-0.423 -0.945,-0.945 0,-0.522 0.423,-0.945 0.945,-0.945 h 2.409 c 0.522,0 0.945,0.423 0.945,0.945 z m 1.697,0 c 0,-0.522 0.423,-0.945 0.945,-0.945 h 2.274 c 0.522,0 0.945,0.423 0.945,0.945 0,0.522 -0.423,0.945 -0.945,0.945 h -2.274 c -0.522,0 -0.945,-0.423 -0.945,-0.945 z m -6.068,4.155 c 0,-0.522 0.423,-0.945 0.945,-0.945 h 2.409 c 0.522,0 0.945,0.423 0.945,0.945 0,0.522 -0.423,0.945 -0.945,0.945 h -2.409 c -0.522,0 -0.945,-0.423 -0.945,-0.945 z m 6.001,0 c 0,-0.522 0.423,-0.945 0.945,-0.945 h 2.275 c 0.522,0 0.945,0.423 0.945,0.945 0,0.522 -0.423,0.945 -0.945,0.945 h -2.275 c -0.522,0 -0.945,-0.423 -0.945,-0.945 z m -1.63,4.155 c 0,0.522 -0.423,0.945 -0.945,0.945 h -2.409 c -0.522,0 -0.945,-0.423 -0.945,-0.945 0,-0.522 0.423,-0.945 0.945,-0.945 h 2.409 c 0.522,0 0.945,0.423 0.945,0.945 z m 5.863,0 c 0,0.522 -0.423,0.945 -0.945,0.945 h -2.274 c -0.522,0 -0.945,-0.423 -0.945,-0.945 0,-0.522 0.423,-0.945 0.945,-0.945 h 2.274 c 0.522,0 0.945,0.423 0.945,0.945 z m -5.863,4.155 c 0,0.522 -0.423,0.945 -0.945,0.945 h -2.409 c -0.522,0 -0.945,-0.423 -0.945,-0.945 0,-0.522 0.423,-0.945 0.945,-0.945 h 2.409 c 0.522,0 0.945,0.423 0.945,0.945 z m 5.863,0 c 0,0.522 -0.423,0.945 -0.945,0.945 h -2.274 c -0.522,0 -0.945,-0.423 -0.945,-0.945 0,-0.522 0.423,-0.945 0.945,-0.945 h 2.274 c 0.522,0 0.945,0.423 0.945,0.945 z m -10.233,4.155 c 0,-0.522 0.423,-0.945 0.945,-0.945 h 2.409 c 0.522,0 0.945,0.423 0.945,0.945 0,0.522 -0.423,0.945 -0.945,0.945 h -2.409 c -0.522,0 -0.945,-0.423 -0.945,-0.945 z m 6.001,0 c 0,-0.522 0.423,-0.945 0.945,-0.945 h 2.275 c 0.522,0 0.945,0.423 0.945,0.945 0,0.522 -0.423,0.945 -0.945,0.945 h -2.275 c -0.522,0 -0.945,-0.423 -0.945,-0.945 z m -1.697,4.155 c 0,0.522 -0.423,0.945 -0.945,0.945 h -2.409 c -0.522,0 -0.945,-0.423 -0.945,-0.945 0,-0.522 0.423,-0.945 0.945,-0.945 h 2.409 c 0.522,0 0.945,0.423 0.945,0.945 z m 4.917,0.945 h -2.274 c -0.522,0 -0.945,-0.423 -0.945,-0.945 0,-0.522 0.423,-0.945 0.945,-0.945 h 2.274 c 0.522,0 0.945,0.423 0.945,0.945 0,0.522 -0.423,0.945 -0.945,0.945 z m -26.433,-30.486 v 3.089 c 0,0.522 -0.423,0.945 -0.945,0.945 -0.522,0 -0.945,-0.423 -0.945,-0.945 v -3.089 c 0,-0.522 0.423,-0.945 0.945,-0.945 0.522,0 0.945,0.423 0.945,0.945 z m 5.1,0.091 v 3.089 c 0,0.522 -0.423,0.945 -0.945,0.945 -0.522,0 -0.945,-0.423 -0.945,-0.945 v -3.089 c 0,-0.522 0.423,-0.945 0.945,-0.945 0.522,0 0.945,0.423 0.945,0.945 z m -5.1,6.087 v 3.089 c 0,0.522 -0.423,0.945 -0.945,0.945 -0.522,0 -0.945,-0.423 -0.945,-0.945 v -3.089 c 0,-0.522 0.423,-0.945 0.945,-0.945 0.522,0 0.945,0.423 0.945,0.945 z m 5.1,0.091 v 3.089 c 0,0.522 -0.423,0.945 -0.945,0.945 -0.522,0 -0.945,-0.423 -0.945,-0.945 v -3.089 c 0,-0.522 0.423,-0.945 0.945,-0.945 0.522,0 0.945,0.423 0.945,0.945 z m -5.1,6.087 v 3.089 c 0,0.522 -0.423,0.945 -0.945,0.945 -0.522,0 -0.945,-0.423 -0.945,-0.945 v -3.089 c 0,-0.522 0.423,-0.945 0.945,-0.945 0.522,0 0.945,0.423 0.945,0.945 z m 5.1,0.091 v 3.089 c 0,0.522 -0.423,0.945 -0.945,0.945 -0.522,0 -0.945,-0.423 -0.945,-0.945 v -3.089 c 0,-0.522 0.423,-0.945 0.945,-0.945 0.522,0 0.945,0.423 0.945,0.945 z m -5.1,6.087 v 3.089 c 0,0.522 -0.423,0.945 -0.945,0.945 -0.522,0 -0.945,-0.423 -0.945,-0.945 v -3.089 c 0,-0.522 0.423,-0.945 0.945,-0.945 0.522,0 0.945,0.423 0.945,0.945 z m 5.1,0.091 v 3.089 c 0,0.522 -0.423,0.945 -0.945,0.945 -0.522,0 -0.945,-0.423 -0.945,-0.945 v -3.089 c 0,-0.522 0.423,-0.945 0.945,-0.945 0.522,0 0.945,0.423 0.945,0.945 z m -5.1,6.087 v 3.089 c 0,0.522 -0.423,0.945 -0.945,0.945 -0.522,0 -0.945,-0.423 -0.945,-0.945 v -3.089 c 0,-0.522 0.423,-0.945 0.945,-0.945 0.522,0 0.945,0.423 0.945,0.945 z m 5.1,0.091 v 3.089 c 0,0.522 -0.423,0.945 -0.945,0.945 -0.522,0 -0.945,-0.423 -0.945,-0.945 v -3.089 c 0,-0.522 0.423,-0.945 0.945,-0.945 0.522,0 0.945,0.423 0.945,0.945 z m -13.843,-53.283 c 0.847,0.365 1.755,0.542 2.639,0.542 1.25,0 2.438,-0.369 3.357,-1.038 0.82,0.705 1.814,1.327 2.933,1.81 1.695,0.731 3.456,1.085 5.061,1.085 2.332,0 4.333,-0.749 5.33,-2.17 0.7,0.266 1.446,0.4 2.199,0.4 2.112,0 4.254,-0.997 5.425,-2.707 0.822,-1.2 1.069,-2.57 0.697,-3.857 -0.38,-1.313 -1.35,-2.365 -2.731,-2.96099997 -2.697,-1.163 -6.223,-0.167 -7.858,2.22099997 -0.039,0.057 -0.069,0.117 -0.105,0.175 -0.656,-0.465 -1.387,-0.878 -2.193,-1.225 -3.773,-1.62799997 -7.924,-1.36899997 -9.892,0.511 -0.073,-0.035 -0.137,-0.078 -0.211,-0.11 -2.589,-1.11699997 -5.663,-0.466 -6.997,1.482 -0.597,0.871 -0.766,1.903 -0.476,2.905 0.361,1.249 1.39,2.319 2.823,2.937 z m -1.047,-4.952 c 0.893,-1.303 3.215,-1.727 5.073,-0.926 0.21,0.091 0.41,0.195 0.595,0.31 0.038,0.024 0.08,0.028 0.12,0.045 0.049,0.02 0.095,0.045 0.146,0.055 0.051,0.01 0.101,0.006 0.152,0.006 0.05,0 0.099,0.004 0.147,-0.005 0.05,-0.01 0.095,-0.032 0.143,-0.052 0.046,-0.019 0.093,-0.033 0.135,-0.06 0.044,-0.028 0.078,-0.069 0.116,-0.106 0.031,-0.03 0.068,-0.05 0.094,-0.086 1.251,-1.713 5.123,-1.945 8.456,-0.507 0.994,0.429 1.858,0.959 2.568,1.576 0.068,0.059 0.145,0.101 0.225,0.133 0.007,0.003 0.011,0.008 0.018,0.011 0,0 0,0 10e-4,0 0.088,0.033 0.181,0.049 0.273,0.049 0.006,0 0.011,-0.003 0.016,-0.003 0.087,-0.002 0.169,-0.024 0.249,-0.053 0.019,-0.007 0.04,-0.006 0.059,-0.014 0.098,-0.044 0.185,-0.11 0.258,-0.191 0.003,-0.004 0.009,-0.005 0.012,-0.009 0.032,-0.037 0.046,-0.082 0.07,-0.123 0.024,-0.041 0.057,-0.074 0.074,-0.119 0.097,-0.261 0.231,-0.518 0.399,-0.763 1.232,-1.798 3.894,-2.545 5.934,-1.665 0.941,0.406 1.595,1.099 1.842,1.951 0.239,0.827 0.067,1.725 -0.483,2.529 -1.232,1.798 -3.894,2.545 -5.934,1.665 -0.119,-0.051 -0.235,-0.108 -0.346,-0.169 -0.015,-0.008 -0.031,-0.007 -0.046,-0.015 -0.015,-0.007 -0.025,-0.02 -0.041,-0.027 -0.035,-0.014 -0.071,-0.011 -0.107,-0.02 -0.052,-0.013 -0.102,-0.026 -0.155,-0.029 -0.05,-0.002 -0.098,0.006 -0.147,0.013 -0.051,0.008 -0.099,0.014 -0.148,0.032 -0.047,0.017 -0.088,0.042 -0.131,0.067 -0.044,0.026 -0.086,0.05 -0.124,0.084 -0.039,0.035 -0.069,0.077 -0.101,0.12 -0.022,0.029 -0.052,0.05 -0.07,0.083 -0.008,0.015 -0.007,0.031 -0.015,0.046 -0.007,0.015 -0.02,0.025 -0.027,0.041 -0.053,0.131 -0.122,0.26 -0.206,0.383 -1.211,1.768 -5.101,2.025 -8.494,0.561 -1.185,-0.511 -2.212,-1.186 -2.968,-1.952 -0.003,-0.003 -0.007,-0.004 -0.009,-0.006 -0.003,-0.003 -0.003,-0.006 -0.006,-0.009 -0.036,-0.034 -0.081,-0.05 -0.121,-0.076 -0.045,-0.029 -0.086,-0.066 -0.134,-0.085 -0.048,-0.019 -0.099,-0.021 -0.15,-0.03 -0.049,-0.009 -0.096,-0.025 -0.146,-0.025 -0.052,0 -0.101,0.018 -0.152,0.029 -0.048,0.01 -0.097,0.012 -0.143,0.031 -0.049,0.02 -0.089,0.057 -0.133,0.087 -0.04,0.027 -0.084,0.043 -0.12,0.078 -0.003,0.003 -0.003,0.006 -0.006,0.009 -0.003,0.003 -0.006,0.004 -0.009,0.006 -1.048,1.095 -3.125,1.365 -4.831,0.629 -0.999,-0.431 -1.704,-1.134 -1.933,-1.928 -0.159,-0.549 -0.068,-1.095 0.262,-1.577 z"
     id="path2"
     style="fill:#494949" />
</svg>
