<?xml version="1.0" encoding="UTF-8" standalone="no"?>
<svg
   version="1.1"
   x="0px"
   y="0px"
   viewBox="0 0 80 80"
   xml:space="preserve"
   id="svg10"
   sodipodi:docname="communitypool3.svg"
   width="80"
   height="80"
   inkscape:version="1.1.2 (0a00cf5339, 2022-02-04)"
   xmlns:inkscape="http://www.inkscape.org/namespaces/inkscape"
   xmlns:sodipodi="http://sodipodi.sourceforge.net/DTD/sodipodi-0.dtd"
   xmlns="http://www.w3.org/2000/svg"
   xmlns:svg="http://www.w3.org/2000/svg"><defs
     id="defs14" /><sodipodi:namedview
     id="namedview12"
     pagecolor="#ffffff"
     bordercolor="#666666"
     borderopacity="1.0"
     inkscape:pageshadow="2"
     inkscape:pageopacity="0.0"
     inkscape:pagecheckerboard="0"
     showgrid="false"
     fit-margin-top="0"
     fit-margin-left="0"
     fit-margin-right="0"
     fit-margin-bottom="0"
     inkscape:zoom="6.088"
     inkscape:cx="39.914586"
     inkscape:cy="52.480289"
     inkscape:window-width="1850"
     inkscape:window-height="1025"
     inkscape:window-x="1990"
     inkscape:window-y="27"
     inkscape:window-maximized="1"
     inkscape:current-layer="svg10" /><path
     d="m 1,78 c -0.552246,0 -1,0.447754 -1,1 0,0.552246 0.447754,1 1,1 h 78 c 0.552246,0 1,-0.447754 1,-1 0,-0.552246 -0.447754,-1 -1,-1 H 69.525879 V 65.785645 h 4.988769 C 77.539062,65.785645 80,63.324707 80,60.300293 V 14.841797 C 80,11.817383 77.539062,9.356445 74.514648,9.356445 H 69.525879 V 4.730957 C 69.525879,2.12207 67.489258,0 64.98584,0 H 62.397461 C 59.894043,0 57.857422,2.12207 57.857422,4.730957 V 9.356445 H 22.142578 V 4.730957 C 22.142578,2.12207 20.105957,0 17.602539,0 H 15.01416 C 12.510742,0 10.474121,2.12207 10.474121,4.730957 V 9.356445 H 5.485352 C 2.460938,9.356445 0,11.817383 0,14.841797 v 45.458496 c 0,3.024414 2.460938,5.485352 5.485352,5.485352 h 4.988769 V 78 Z M 57.857422,65.785645 V 78 H 22.142578 V 65.785645 Z M 67.525879,78 H 59.857422 V 65.785645 h 7.668457 z M 59.857422,4.730957 C 59.857422,3.225098 60.99707,2 62.397461,2 h 2.588379 c 1.40039,0 2.540039,1.225098 2.540039,2.730957 v 4.625488 h -7.668457 z m -47.383301,0 C 12.474121,3.225098 13.613769,2 15.01416,2 h 2.588379 c 1.400391,0 2.540039,1.225098 2.540039,2.730957 V 9.356445 H 12.474121 Z M 2,60.300293 V 14.841797 C 2,12.919922 3.563477,11.356445 5.485352,11.356445 H 74.514649 C 76.436523,11.356445 78,12.919922 78,14.841797 v 45.458496 c 0,1.921875 -1.563477,3.485352 -3.485352,3.485352 H 5.485352 C 3.563477,63.785645 2,62.222168 2,60.300293 Z m 10.474121,5.485352 h 7.668457 V 78 h -7.668457 z"
     id="path2"
     style="fill:#5e5e5e" /><path
     d="m 52.25,17.917969 c -4.105469,0 -7.445313,3.340332 -7.445313,7.445801 0,0.552246 0.447754,1 1,1 0.552247,0 1,-0.447754 1,-1 0,-3.00293 2.442872,-5.445801 5.445313,-5.445801 3.002441,0 5.445312,2.442871 5.445312,5.445801 v 4.77832 h -22.5 v -4.77832 c 0,-4.105469 -3.339843,-7.445801 -7.445312,-7.445801 -4.105469,0 -7.445313,3.340332 -7.445313,7.445801 0,0.552246 0.447754,1 1,1 0.552247,0 1,-0.447754 1,-1 0,-3.00293 2.442872,-5.445801 5.445313,-5.445801 3.002441,0 5.445312,2.442871 5.445312,5.445801 v 31.268554 c 0,0.552246 0.447754,1 1,1 0.552247,0 1,-0.447754 1,-1 v -4.74707 h 22.5 v 4.74707 c 0,0.552246 0.447754,1 1,1 0.552247,0 1,-0.447754 1,-1 V 25.363769 c 0,-4.105468 -3.339843,-7.4458 -7.445312,-7.4458 z m 5.445312,14.224121 v 7.871582 h -22.5 V 32.14209 Z m -22.5,17.743164 v -7.871582 h 22.5 v 7.871582 z"
     id="path4"
     style="fill:#5e5e5e" /></svg>
