<?xml version="1.0" encoding="UTF-8" standalone="no"?>
<svg
   version="1.1"
   x="0px"
   y="0px"
   viewBox="0 0 48 48"
   enable-background="new 0 0 48 48"
   xml:space="preserve"
   id="svg20"
   sodipodi:docname="compass-white.svg"
   width="48"
   height="48"
   inkscape:version="1.1.2 (0a00cf5339, 2022-02-04)"
   xmlns:inkscape="http://www.inkscape.org/namespaces/inkscape"
   xmlns:sodipodi="http://sodipodi.sourceforge.net/DTD/sodipodi-0.dtd"
   xmlns="http://www.w3.org/2000/svg"
   xmlns:svg="http://www.w3.org/2000/svg"><defs
     id="defs24"><filter
       style="color-interpolation-filters:sRGB;"
       inkscape:label="Colorize"
       id="filter200"
       x="0"
       y="0"
       width="1"
       height="1"><feComposite
         in2="SourceGraphic"
         operator="arithmetic"
         k1="0"
         k2="1"
         result="composite1"
         id="feComposite186" /><feColorMatrix
         in="composite1"
         values="1"
         type="saturate"
         result="colormatrix1"
         id="feColorMatrix188" /><feFlood
         flood-opacity="1"
         flood-color="rgb(255,255,255)"
         result="flood1"
         id="feFlood190" /><feBlend
         in="flood1"
         in2="colormatrix1"
         mode="screen"
         result="blend1"
         id="feBlend192" /><feBlend
         in2="blend1"
         mode="multiply"
         result="blend2"
         id="feBlend194" /><feColorMatrix
         in="blend2"
         values="1"
         type="saturate"
         result="colormatrix2"
         id="feColorMatrix196" /><feComposite
         in="colormatrix2"
         in2="SourceGraphic"
         operator="in"
         k2="1"
         result="composite2"
         id="feComposite198" /></filter></defs><sodipodi:namedview
     id="namedview22"
     pagecolor="#ffffff"
     bordercolor="#666666"
     borderopacity="1.0"
     inkscape:pageshadow="2"
     inkscape:pageopacity="0.0"
     inkscape:pagecheckerboard="0"
     showgrid="false"
     fit-margin-top="0"
     fit-margin-left="0"
     fit-margin-right="0"
     fit-margin-bottom="0"
     inkscape:zoom="12.683333"
     inkscape:cx="23.968463"
     inkscape:cy="24.086728"
     inkscape:window-width="1850"
     inkscape:window-height="1025"
     inkscape:window-x="1990"
     inkscape:window-y="27"
     inkscape:window-maximized="1"
     inkscape:current-layer="svg20" /><g
     id="g14"
     style="filter:url(#filter200)"><path
       d="M 24,0 C 10.8,0 0,10.8 0,24 0,37.2 10.8,48 24,48 37.2,48 48,37.2 48,24 48,10.8 37.2,0 24,0 Z m 0,44 C 13,44 4,35 4,24 4,13 13,4 24,4 35,4 44,13 44,24 44,35 35,44 24,44 Z"
       id="path2" /><path
       d="M 27.9,21 C 27.7,20.6 27.4,20.3 27,20.1 L 14.3,13.3 c -0.6,-0.3 -1.3,0.4 -1,1 L 20.1,27 c 0.2,0.4 0.5,0.7 0.9,0.9 l 12.7,6.8 c 0.6,0.3 1.3,-0.4 1,-1 z m -2.3,4.6 c -0.9,0.9 -2.3,0.9 -3.1,0 -0.9,-0.9 -0.9,-2.3 0,-3.1 0.9,-0.9 2.3,-0.9 3.1,0 0.8,0.8 0.8,2.2 0,3.1 z"
       id="path4" /><path
       d="m 24,10.2 c 0.6,0 1,-0.4 1,-1 V 7.4 c 0,-0.6 -0.4,-1 -1,-1 -0.6,0 -1,0.4 -1,1 v 1.8 c 0,0.6 0.4,1 1,1 z"
       id="path6" /><path
       d="m 24,37.8 c -0.6,0 -1,0.4 -1,1 v 1.8 c 0,0.6 0.4,1 1,1 0.6,0 1,-0.4 1,-1 v -1.8 c 0,-0.6 -0.4,-1 -1,-1 z"
       id="path8" /><path
       d="m 40.6,23 h -1.8 c -0.6,0 -1,0.4 -1,1 0,0.6 0.4,1 1,1 h 1.8 c 0.6,0 1,-0.4 1,-1 0,-0.6 -0.4,-1 -1,-1 z"
       id="path10" /><path
       d="M 9.2,23 H 7.4 c -0.6,0 -1,0.4 -1,1 0,0.6 0.4,1 1,1 h 1.8 c 0.6,0 1,-0.4 1,-1 0,-0.6 -0.4,-1 -1,-1 z"
       id="path12" /></g></svg>
