<?xml version="1.0" encoding="UTF-8" standalone="no"?>
<svg
   version="1.1"
   x="0px"
   y="0px"
   viewBox="0 0 48 46"
   xml:space="preserve"
   id="svg26"
   sodipodi:docname="comunity-pool.svg"
   width="48"
   height="46"
   inkscape:version="1.1.2 (0a00cf5339, 2022-02-04)"
   xmlns:inkscape="http://www.inkscape.org/namespaces/inkscape"
   xmlns:sodipodi="http://sodipodi.sourceforge.net/DTD/sodipodi-0.dtd"
   xmlns="http://www.w3.org/2000/svg"
   xmlns:svg="http://www.w3.org/2000/svg"><defs
     id="defs30" /><sodipodi:namedview
     id="namedview28"
     pagecolor="#ffffff"
     bordercolor="#666666"
     borderopacity="1.0"
     inkscape:pageshadow="2"
     inkscape:pageopacity="0.0"
     inkscape:pagecheckerboard="0"
     showgrid="false"
     fit-margin-top="0"
     fit-margin-left="0"
     fit-margin-right="0"
     fit-margin-bottom="0"
     inkscape:zoom="10.146667"
     inkscape:cx="23.948752"
     inkscape:cy="14.733903"
     inkscape:window-width="1850"
     inkscape:window-height="1025"
     inkscape:window-x="1990"
     inkscape:window-y="27"
     inkscape:window-maximized="1"
     inkscape:current-layer="svg26" /><path
     d="m 47,21 h -5 v 2 h 5 c 0.55,0 1,-0.45 1,-1 0,-0.55 -0.45,-1 -1,-1 z"
     id="path2"
     style="fill:#464646" /><path
     d="m 3.3,4.87 0.87,0.5 C 4.33,5.46 4.5,5.5 4.67,5.5 5.01,5.5 5.35,5.32 5.54,5 5.81,4.52 5.65,3.91 5.17,3.63 L 4.3,3.13 C 3.82,2.86 3.21,3.02 2.94,3.5 2.66,3.98 2.83,4.59 3.3,4.87 Z"
     id="path4"
     style="fill:#464646" /><path
     d="M 9,3 C 9.55,3 10,2.55 10,2 V 1 C 10,0.45 9.55,0 9,0 8.45,0 8,0.45 8,1 v 1 c 0,0.55 0.45,1 1,1 z"
     id="path6"
     style="fill:#464646" /><circle
     cx="9"
     cy="7"
     r="3"
     id="circle8"
     style="fill:#464646" /><path
     d="m 8,12 v 1 c 0,0.55 0.45,1 1,1 0.55,0 1,-0.45 1,-1 V 12 C 10,11.45 9.55,11 9,11 8.45,11 8,11.45 8,12 Z"
     id="path10"
     style="fill:#464646" /><path
     d="m 3.8,11 c 0.17,0 0.35,-0.04 0.5,-0.13 l 0.87,-0.5 C 5.65,10.09 5.81,9.48 5.54,9 5.26,8.52 4.65,8.36 4.17,8.63 L 3.3,9.13 C 2.83,9.41 2.66,10.02 2.94,10.5 3.12,10.82 3.46,11 3.8,11 Z"
     id="path12"
     style="fill:#464646" /><path
     d="m 13.33,5.5 c 0.17,0 0.34,-0.04 0.5,-0.13 L 14.7,4.87 C 15.17,4.59 15.34,3.98 15.06,3.5 14.79,3.02 14.17,2.86 13.7,3.13 l -0.87,0.5 C 12.35,3.91 12.19,4.52 12.46,5 c 0.19,0.32 0.53,0.5 0.87,0.5 z"
     id="path14"
     style="fill:#464646" /><path
     d="m 12.83,10.37 0.87,0.5 c 0.15,0.09 0.33,0.13 0.5,0.13 0.34,0 0.68,-0.18 0.86,-0.5 0.28,-0.48 0.11,-1.09 -0.36,-1.37 L 13.83,8.63 C 13.35,8.36 12.74,8.52 12.46,9 c -0.27,0.48 -0.11,1.09 0.37,1.37 z"
     id="path16"
     style="fill:#464646" /><path
     d="m 47,42 c -1.52,0 -2.32,0.69 -2.96,1.25 C 43.52,43.7 43.17,44 42.39,44 41.61,44 41.27,43.7 40.74,43.25 40.11,42.69 39.31,42 37.79,42 36.27,42 35.47,42.69 34.83,43.25 34.31,43.7 33.96,44 33.19,44 32.41,44 32.07,43.7 31.55,43.25 30.91,42.69 30.11,42 28.59,42 27.07,42 26.27,42.69 25.63,43.25 25.11,43.7 24.77,44 23.99,44 23.21,44 22.87,43.7 22.35,43.25 21.71,42.69 20.91,42 19.39,42 17.87,42 17.07,42.69 16.43,43.25 15.91,43.7 15.57,44 14.79,44 14.01,44 13.67,43.7 13.15,43.25 12.51,42.69 11.72,42 10.19,42 8.67,42 7.87,42.69 7.24,43.25 6.71,43.7 6.37,44 5.59,44 4.82,44 4.47,43.7 3.95,43.25 3.32,42.69 2.52,42 1,42 c -0.55,0 -1,0.45 -1,1 0,0.55 0.45,1 1,1 0.77,0 1.12,0.3 1.64,0.75 C 3.28,45.31 4.07,46 5.59,46 7.11,46 7.91,45.31 8.55,44.75 9.07,44.3 9.42,44 10.19,44 c 0.78,0 1.12,0.3 1.64,0.75 0.64,0.56 1.43,1.25 2.96,1.25 1.52,0 2.32,-0.69 2.96,-1.25 0.52,-0.45 0.86,-0.75 1.64,-0.75 0.78,0 1.12,0.3 1.64,0.75 0.64,0.56 1.43,1.25 2.96,1.25 1.52,0 2.32,-0.69 2.96,-1.25 0.52,-0.45 0.86,-0.75 1.64,-0.75 0.78,0 1.12,0.3 1.64,0.75 0.64,0.56 1.43,1.25 2.96,1.25 1.52,0 2.32,-0.69 2.96,-1.25 0.52,-0.45 0.86,-0.75 1.64,-0.75 0.78,0 1.12,0.3 1.65,0.75 0.64,0.55 1.43,1.25 2.96,1.25 1.52,0 2.32,-0.69 2.96,-1.25 C 45.88,44.3 46.22,44 47,44 c 0.55,0 1,-0.45 1,-1 0,-0.55 -0.45,-1 -1,-1 z"
     id="path18"
     style="fill:#464646" /><path
     d="m 47,37 c -1.52,0 -2.32,0.69 -2.96,1.25 C 43.52,38.7 43.17,39 42.39,39 41.61,39 41.27,38.7 40.74,38.25 40.52,38.06 40.28,37.85 39.99,37.66 V 14 c 0,-1.1 0.9,-2 2,-2 0.53,0 1.03,0.21 1.41,0.59 0.38,0.38 0.6,0.88 0.6,1.41 0,0.55 0.45,1 1,1 0.55,0 1,-0.45 1,-1 0,-1.07 -0.42,-2.07 -1.17,-2.83 C 44.08,10.41 43.07,10 42,10 c -2.21,0 -4,1.79 -4,4 v 7 h -9 v 2 h 9 v 4 H 27 V 14 c 0,-1.1 0.9,-2 2,-2 0.53,0 1.03,0.21 1.41,0.59 0.38,0.38 0.59,0.88 0.59,1.41 0,0.55 0.45,1 1,1 0.55,0 1,-0.45 1,-1 0,-1.07 -0.42,-2.07 -1.17,-2.83 C 31.08,10.41 30.07,10 29,10 c -2.21,0 -4,1.79 -4,4 v 7 H 1 c -0.55,0 -1,0.45 -1,1 0,0.55 0.45,1 1,1 H 25 V 38.73 C 24.73,38.9 24.43,39 23.99,39 23.21,39 22.87,38.7 22.35,38.25 21.71,37.69 20.91,37 19.39,37 17.87,37 17.07,37.69 16.43,38.25 15.91,38.7 15.57,39 14.79,39 14.01,39 13.67,38.7 13.15,38.25 12.51,37.69 11.72,37 10.19,37 8.67,37 7.87,37.69 7.24,38.25 6.71,38.7 6.37,39 5.59,39 4.82,39 4.47,38.7 3.95,38.25 3.32,37.69 2.52,37 1,37 c -0.55,0 -1,0.45 -1,1 0,0.55 0.45,1 1,1 0.77,0 1.12,0.3 1.64,0.75 C 3.28,40.31 4.07,41 5.59,41 7.11,41 7.91,40.31 8.55,39.75 9.07,39.3 9.42,39 10.19,39 c 0.78,0 1.12,0.3 1.64,0.75 0.64,0.56 1.43,1.25 2.96,1.25 1.52,0 2.32,-0.69 2.96,-1.25 0.52,-0.45 0.86,-0.75 1.64,-0.75 0.78,0 1.12,0.3 1.64,0.75 0.64,0.56 1.43,1.25 2.96,1.25 1.52,0 2.32,-0.69 2.96,-1.25 0.52,-0.45 0.86,-0.75 1.64,-0.75 0.78,0 1.12,0.3 1.64,0.75 0.64,0.56 1.43,1.25 2.96,1.25 1.52,0 2.32,-0.69 2.96,-1.25 0.52,-0.45 0.86,-0.75 1.64,-0.75 0.78,0 1.12,0.3 1.65,0.75 0.64,0.55 1.43,1.25 2.96,1.25 1.52,0 2.32,-0.69 2.96,-1.25 C 45.88,39.3 46.22,39 47,39 c 0.55,0 1,-0.45 1,-1 0,-0.55 -0.45,-1 -1,-1 z m -9,0.01 C 37.93,37.01 37.86,37 37.79,37 36.27,37 35.47,37.69 34.83,38.25 34.31,38.7 33.96,39 33.19,39 32.41,39 32.07,38.7 31.55,38.25 30.91,37.69 30.11,37 28.59,37 27.94,37 27.43,37.13 27,37.32 V 34 H 38 Z M 38,32 H 27 v -3 h 11 z"
     id="path20"
     style="fill:#464646" /></svg>
