<?xml version="1.0" encoding="UTF-8" standalone="no"?>
<svg
   viewBox="0 0 90.099998 95.950012"
   x="0px"
   y="0px"
   version="1.1"
   id="svg5016"
   sodipodi:docname="noun-air-conditioner-5179887.svg"
   width="90.099998"
   height="95.950012"
   xmlns:inkscape="http://www.inkscape.org/namespaces/inkscape"
   xmlns:sodipodi="http://sodipodi.sourceforge.net/DTD/sodipodi-0.dtd"
   xmlns="http://www.w3.org/2000/svg"
   xmlns:svg="http://www.w3.org/2000/svg">
  <defs
     id="defs5020" />
  <sodipodi:namedview
     id="namedview5018"
     pagecolor="#ffffff"
     bordercolor="#000000"
     borderopacity="0.25"
     inkscape:showpageshadow="2"
     inkscape:pageopacity="0.0"
     inkscape:pagecheckerboard="0"
     inkscape:deskcolor="#d1d1d1"
     showgrid="false" />
  <title
     id="title4988">Air Conditioner</title>
  <g
     data-name="Air Conditioner"
     id="g5010"
     transform="translate(-2.94,-0.04998613)"
     style="fill:#666666">
    <path
       d="M 88.93,38.14 H 68.15 A 4.13,4.13 0 0 0 65,39.6 4.11,4.11 0 0 0 61.88,38.14 H 54.8 v -3 A 2.67,2.67 0 0 0 52.14,32.47 H 48 c 0,-11 0.25,-12.88 -0.83,-16.64 V 15.78 A 21.81,21.81 0 0 0 26.2,0.05 H 3.94 a 1,1 0 0 0 0,2 H 5.78 V 18 H 3.94 a 1,1 0 1 0 0,2 H 23.22 A 4.8,4.8 0 0 1 28,24.79 v 7.73 h -4.17 a 2.67,2.67 0 0 0 -2.66,2.67 v 3 h -7.1 A 4.13,4.13 0 0 0 10,42.27 v 43 a 4.13,4.13 0 0 0 4.12,4.13 H 16 V 95 a 1,1 0 0 0 1,1 h 9.18 a 1,1 0 0 0 1,-1 V 89.38 H 61.9 a 4.08,4.08 0 0 0 3.1,-1.47 4.1,4.1 0 0 0 3.13,1.47 h 9.39 V 95 a 1,1 0 0 0 1,1 h 9.18 a 1,1 0 0 0 1,-1 v -5.62 a 4.14,4.14 0 0 0 4.34,-4.13 v -43 A 4.13,4.13 0 0 0 88.93,38.14 Z M 46,23.32 H 29.85 a 7,7 0 0 0 -0.27,-0.89 l 15.87,-5 A 23.09,23.09 0 0 1 46,23.32 Z m -16,5.1 v -3.1 h 16 v 3.1 z m 16,2 v 2.1 H 30 v -2.1 z M 44.9,15.48 28.59,20.65 28.47,20.49 40,7.69 a 19.89,19.89 0 0 1 4.9,7.79 z M 10.88,18 H 7.78 V 2.05 h 3.1 z M 16,18 H 12.9 V 2.05 H 16 Z m 5.1,0 H 18 V 2.05 h 3.1 z m 2.14,0 C 23.04,18 23.1,19.81 23.1,2.05 a 34.08,34.08 0 0 1 6.18,0.26 l -5.2,15.74 A 7.89,7.89 0 0 0 23.22,18 Z M 27,19.15 A 6.1,6.1 0 0 0 26,18.59 L 31.23,2.72 a 19.63,19.63 0 0 1 7.27,3.65 z m -3.82,16 a 0.66,0.66 0 0 1 0.66,-0.67 h 28.3 a 0.66,0.66 0 0 1 0.66,0.67 v 3 H 23.17 Z m 2,58.76 H 18 v -4.53 h 7.18 z M 64,85.25 a 2.13,2.13 0 0 1 -2.12,2.13 H 14.07 A 2.13,2.13 0 0 1 12,85.25 v -43 a 2.12,2.12 0 0 1 2.12,-2.13 H 61.9 A 2.12,2.12 0 0 1 64,42.27 Z M 86.72,94 h -7.18 v -4.62 h 7.18 z m 4.34,-8.7 a 2.13,2.13 0 0 1 -2.13,2.13 H 68.15 A 2.14,2.14 0 0 1 66,85.25 v -43 a 2.13,2.13 0 0 1 2.13,-2.13 h 20.8 a 2.13,2.13 0 0 1 2.13,2.13 z"
       id="path4990"
       style="fill:#666666" />
    <path
       d="m 51.31,50.52 a 18.79,18.79 0 1 0 0,26.53 18.74,18.74 0 0 0 0,-26.53 z m 3.42,12.24 h -4 a 12.72,12.72 0 0 0 -3,-7.32 l 2.81,-2.81 a 16.67,16.67 0 0 1 4.19,10.13 z M 35,63.71 a 3,3 0 1 1 3,3 3,3 0 0 1 -3,-3 z m 2,-4.9 a 4.86,4.86 0 0 0 -1.78,0.75 L 31.1,55.44 A 10.7,10.7 0 0 1 37,53 Z M 33.8,61 a 4.83,4.83 0 0 0 -0.72,1.77 h -5.87 a 10.77,10.77 0 0 1 2.45,-5.91 z m -0.7,3.77 a 4.85,4.85 0 0 0 0.74,1.73 l -4.18,4.18 a 10.83,10.83 0 0 1 -2.45,-5.91 z m 5.9,3.84 a 5,5 0 0 0 1.73,-0.71 l 4.18,4.18 A 10.7,10.7 0 0 1 39,74.53 Z m 3.16,-2.11 a 5.09,5.09 0 0 0 0.74,-1.74 h 5.88 a 10.83,10.83 0 0 1 -2.45,5.91 z m 0.76,-3.74 A 4.88,4.88 0 0 0 42.18,61 l 4.13,-4.13 a 10.77,10.77 0 0 1 2.45,5.91 z M 39,47 a 16.67,16.67 0 0 1 10.13,4.2 L 46.31,54 A 12.76,12.76 0 0 0 39,51 Z m 0,6 a 10.76,10.76 0 0 1 5.91,2.44 l -4.12,4.13 A 4.91,4.91 0 0 0 39,58.81 Z m -2,-6 v 4 a 12.76,12.76 0 0 0 -7.32,3 l -2.8,-2.8 A 16.67,16.67 0 0 1 37,47 Z m -11.56,5.63 2.81,2.81 a 12.72,12.72 0 0 0 -3,7.32 h -4 a 16.67,16.67 0 0 1 4.19,-10.13 z m -4.2,12.13 h 4 a 12.75,12.75 0 0 0 3,7.32 l -2.81,2.81 A 16.67,16.67 0 0 1 21.24,64.76 Z M 37,80.5 A 16.67,16.67 0 0 1 26.88,76.3 l 2.8,-2.8 a 12.76,12.76 0 0 0 7.32,3 z m 0,-6 a 10.7,10.7 0 0 1 -5.9,-2.45 l 4.18,-4.18 A 5.13,5.13 0 0 0 37,68.58 Z m 2,6 v -4 a 12.76,12.76 0 0 0 7.33,-3 l 2.8,2.8 A 16.67,16.67 0 0 1 39,80.5 Z m 11.55,-5.61 -2.81,-2.81 a 12.75,12.75 0 0 0 3,-7.32 h 4 a 16.67,16.67 0 0 1 -4.21,10.13 z"
       id="path4992"
       style="fill:#666666" />
    <path
       d="m 16.8,79.1 a 2.9,2.9 0 1 0 2.9,2.9 2.9,2.9 0 0 0 -2.9,-2.9 z m 0,3.79 A 0.9,0.9 0 1 1 17.7,82 0.9,0.9 0 0 1 16.8,82.89 Z"
       id="path4994"
       style="fill:#666666" />
    <path
       d="m 59.26,79.1 a 2.9,2.9 0 1 0 2.9,2.9 2.9,2.9 0 0 0 -2.9,-2.9 z m 0,3.79 a 0.9,0.9 0 1 1 0.9,-0.89 0.89,0.89 0 0 1 -0.9,0.89 z"
       id="path4996"
       style="fill:#666666" />
    <path
       d="m 16.8,47.57 a 2.9,2.9 0 1 0 -2.9,-2.9 2.9,2.9 0 0 0 2.9,2.9 z m 0,-3.8 a 0.9,0.9 0 1 1 -0.9,0.9 0.9,0.9 0 0 1 0.9,-0.9 z"
       id="path4998"
       style="fill:#666666" />
    <path
       d="m 59.26,41.77 a 2.9,2.9 0 1 0 2.9,2.9 2.9,2.9 0 0 0 -2.9,-2.9 z m 0,3.8 a 0.9,0.9 0 1 1 0.9,-0.9 0.9,0.9 0 0 1 -0.9,0.9 z"
       id="path5000"
       style="fill:#666666" />
    <path
       d="m 72.74,63.16 h 11.6 a 2.89,2.89 0 0 0 2.89,-2.89 V 45.75 a 2.89,2.89 0 0 0 -2.89,-2.89 h -11.6 a 2.89,2.89 0 0 0 -2.89,2.89 v 14.52 a 2.89,2.89 0 0 0 2.89,2.89 z M 71.85,45.75 a 0.89,0.89 0 0 1 0.89,-0.89 h 11.6 a 0.89,0.89 0 0 1 0.89,0.89 v 14.52 a 0.89,0.89 0 0 1 -0.89,0.89 h -11.6 a 0.89,0.89 0 0 1 -0.89,-0.89 z"
       id="path5002"
       style="fill:#666666" />
    <path
       d="M 86.23,69.46 H 70.85 a 1,1 0 0 0 0,2 h 15.38 a 1,1 0 0 0 0,-2 z"
       id="path5004"
       style="fill:#666666" />
    <path
       d="M 86.23,74.58 H 70.85 a 1,1 0 0 0 0,2 h 15.38 a 1,1 0 0 0 0,-2 z"
       id="path5006"
       style="fill:#666666" />
    <path
       d="M 86.23,79.71 H 70.85 a 1,1 0 0 0 0,2 h 15.38 a 1,1 0 0 0 0,-2 z"
       id="path5008"
       style="fill:#666666" />
  </g>
</svg>
