<?xml version="1.0" encoding="UTF-8" standalone="no"?>
<svg
   version="1.1"
   viewBox="-5 -10 89.789597 58.4963"
   id="svg4463"
   sodipodi:docname="noun-air-conditioner-7111190.svg"
   width="89.789597"
   height="58.4963"
   xmlns:inkscape="http://www.inkscape.org/namespaces/inkscape"
   xmlns:sodipodi="http://sodipodi.sourceforge.net/DTD/sodipodi-0.dtd"
   xmlns="http://www.w3.org/2000/svg"
   xmlns:svg="http://www.w3.org/2000/svg">
  <defs
     id="defs4467" />
  <sodipodi:namedview
     id="namedview4465"
     pagecolor="#ffffff"
     bordercolor="#000000"
     borderopacity="0.25"
     inkscape:showpageshadow="2"
     inkscape:pageopacity="0.0"
     inkscape:pagecheckerboard="0"
     inkscape:deskcolor="#d1d1d1"
     showgrid="false" />
  <path
     d="m 21.69826,-3.5232 c -10.891,0 -19.75,8.8594 -19.75,19.75 0,10.8906 8.8594,19.75 19.75,19.75 10.891,0 19.75,-8.8594 19.75,-19.75 0,-10.8906 -8.8594,-19.75 -19.75,-19.75 z m 0,37.492 c -9.7891,0 -17.75,-7.9609 -17.75,-17.75 0,-9.7891 7.9609,-17.75 17.75,-17.75 9.7891,0 17.75,7.9609 17.75,17.75 0,9.7891 -7.9609,17.75 -17.75,17.75 z"
     id="path4443"
     style="fill:#666666" />
  <path
     d="m 32.55026,5.3678 c 0,0 -0.03125,-0.01172 -0.03906,-0.01953 -2.7812,-2.7617 -6.6016,-4.4688 -10.809,-4.4688 -4.2109,0 -8.0312,1.7109 -10.809,4.4688 -0.01172,0.01172 -0.03125,0.01172 -0.03906,0.03125 -0.01172,0.01172 -0.01953,0.03125 -0.03125,0.03906 -2.7617,2.7812 -4.4688,6.6016 -4.4688,10.809 0,4.2109 1.7109,8.0312 4.4688,10.809 0.01172,0.01172 0.01172,0.03125 0.03125,0.03906 0.01172,0.01172 0.03125,0.01953 0.03906,0.03125 2.7812,2.7617 6.6016,4.4688 10.809,4.4688 4.2109,0 8.0391,-1.7109 10.809,-4.4688 0.01172,-0.01172 0.03125,-0.01172 0.03906,-0.01953 0.01172,-0.01172 0.01172,-0.03125 0.01953,-0.03906 2.7617,-2.7812 4.4688,-6.6016 4.4688,-10.809 0,-4.2109 -1.7109,-8.0391 -4.4688,-10.809 C 32.55807,5.41858 32.55807,5.39905 32.55026,5.39124 Z m -0.74219,19.551 -6.1289,-6.1289 c 0.30078,-0.46875 0.53125,-1 0.64844,-1.5586 h 8.6719 c -0.21875,2.9297 -1.3789,5.5898 -3.1914,7.6914 z m -23.398,-7.6992 h 8.6719 c 0.12109,0.55859 0.35156,1.0898 0.64844,1.5586 l -6.1289,6.1289 c -1.8086,-2.1016 -2.9688,-4.7617 -3.1914,-7.6914 z m 3.1875,-9.6914 6.1289,6.1289 c -0.30078,0.46875 -0.53125,0.98828 -0.64844,1.5586 h -8.6719 c 0.21875,-2.9297 1.3789,-5.5898 3.1914,-7.6914 z m 10.102,11.43 c -1.5117,0 -2.7383,-1.2305 -2.7383,-2.7383 0,-1.5117 1.2305,-2.7383 2.7383,-2.7383 1.5117,0 2.7383,1.2305 2.7383,2.7383 0,1.5117 -1.2305,2.7383 -2.7383,2.7383 z m 2.5586,-6.707 c -0.46875,-0.30078 -0.98828,-0.53125 -1.5586,-0.64844 v -8.6719 c 2.9297,0.21875 5.5898,1.3789 7.6914,3.1914 l -6.1289,6.1289 z m -3.5586,-0.65234 c -0.55859,0.12109 -1.0898,0.35156 -1.5586,0.64844 l -6.1289,-6.1289 c 2.1016,-1.8086 4.7617,-2.9688 7.6914,-3.1914 v 8.6719 z m -1.5586,8.6016 c 0.46875,0.30078 1,0.53125 1.5586,0.64844 v 8.6719 c -2.9297,-0.21875 -5.5898,-1.3789 -7.6914,-3.1914 l 6.1289,-6.1289 z m 3.5586,0.64844 c 0.55859,-0.12109 1.0898,-0.35156 1.5586,-0.64844 l 6.1289,6.1289 c -2.1016,1.8086 -4.7617,2.9688 -7.6914,3.1914 v -8.6719 z m 3.6289,-5.6289 c -0.12109,-0.55859 -0.35156,-1.0898 -0.64844,-1.5586 l 6.1289,-6.1289 c 1.8086,2.1016 2.9688,4.7617 3.1914,7.6914 h -8.6719 z"
     id="path4445"
     style="fill:#666666" />
  <path
     d="m 66.45626,10.5088 h -17.141 c -0.55078,0 -1,0.44922 -1,1 0,0.55078 0.44922,1 1,1 h 17.141 c 0.55078,0 1,-0.44922 1,-1 0,-0.55078 -0.44922,-1 -1,-1 z"
     id="path4447"
     style="fill:#666666" />
  <path
     d="m 66.45626,19.3478 h -17.141 c -0.55078,0 -1,0.44922 -1,1 0,0.55078 0.44922,1 1,1 h 17.141 c 0.55078,0 1,-0.44922 1,-1 0,-0.55078 -0.44922,-1 -1,-1 z"
     id="path4449"
     style="fill:#666666" />
  <path
     d="m 66.45626,28.1798 h -17.141 c -0.55078,0 -1,0.44922 -1,1 0,0.55078 0.44922,1 1,1 h 17.141 c 0.55078,0 1,-0.44922 1,-1 0,-0.55078 -0.44922,-1 -1,-1 z"
     id="path4451"
     style="fill:#666666" />
  <path
     d="m 59.31926,4.1798 c 0.55078,0 1,-0.44922 1,-1 v -6.5586 c 0,-0.55078 -0.44922,-1 -1,-1 -0.55078,0 -1,0.44922 -1,1 v 6.5586 c 0,0.55078 0.44922,1 1,1 z"
     id="path4453"
     style="fill:#666666" />
  <path
     d="m 65.49926,4.1798 c 0.55078,0 1,-0.44922 1,-1 v -6.5586 c 0,-0.55078 -0.44922,-1 -1,-1 -0.55078,0 -1,0.44922 -1,1 v 6.5586 c 0,0.55078 0.44922,1 1,1 z"
     id="path4455"
     style="fill:#666666" />
  <path
     d="M 74.76926,-2.2812 H 74.2302 V -4.9414 C 74.2302,-7.7305 71.9607,-10 69.1716,-10 H 0.0586 C -2.7305,-10 -5,-7.7305 -5,-4.9414 v 42.34 c 0,2.7891 2.2695,5.0586 5.0586,5.0586 h 7.7305 v 2.6797 c 0,1.8516 1.5,3.3594 3.3594,3.3594 h 8.0703 c 1.8516,0 3.3594,-1.5117 3.3594,-3.3594 v -2.6797 h 24.102 v 2.6797 c 0,1.8516 1.5,3.3594 3.3594,3.3594 h 8.0703 c 1.8516,0 3.3594,-1.5117 3.3594,-3.3594 v -2.6797 h 7.7305 c 2.7891,0 5.0586,-2.2695 5.0586,-5.0586 v -2.0703 h 9.5312 c 0.55078,0 1,-0.44922 1,-1 V 7.7193 c 0,-5.5117 -4.4805,-9.9883 -9.9883,-9.9883 z m -54.211,47.41 c 0,0.75 -0.60938,1.3594 -1.3594,1.3594 h -8.0703 c -0.75,0 -1.3594,-0.60938 -1.3594,-1.3594 v -2.6797 h 10.781 v 2.6797 z m 38.879,0 c 0,0.75 -0.60938,1.3594 -1.3594,1.3594 h -8.0703 c -0.75,0 -1.3594,-0.60938 -1.3594,-1.3594 v -2.6797 h 10.781 v 2.6797 z m 12.793,-7.7422 c 0,1.6914 -1.3711,3.0586 -3.0586,3.0586 l -69.113,0.0039 c -1.6914,0 -3.0586,-1.3711 -3.0586,-3.0586 v -42.344 c 0,-1.6914 1.3711,-3.0586 3.0586,-3.0586 h 69.109 c 1.6914,0 3.0586,1.3711 3.0586,3.0586 v 42.34 z m 10.527,-4.0703 h -8.5312 l 0.0039,-33.598 h 0.53906 c 4.4102,0 7.9883,3.5781 7.9883,7.9883 z"
     id="path4457"
     style="fill:#666666" />
</svg>
