<?xml version="1.0" encoding="UTF-8" standalone="no"?>
<svg
   version="1.1"
   x="0px"
   y="0px"
   viewBox="0 0 50 50"
   enable-background="new 0 0 64 64"
   xml:space="preserve"
   id="svg3628"
   sodipodi:docname="corner.svg"
   width="50"
   height="50"
   inkscape:export-filename="corner.svg"
   inkscape:export-xdpi="96"
   inkscape:export-ydpi="96"
   xmlns:inkscape="http://www.inkscape.org/namespaces/inkscape"
   xmlns:sodipodi="http://sodipodi.sourceforge.net/DTD/sodipodi-0.dtd"
   xmlns="http://www.w3.org/2000/svg"
   xmlns:svg="http://www.w3.org/2000/svg"><defs
     id="defs3632" /><sodipodi:namedview
     id="namedview3630"
     pagecolor="#ffffff"
     bordercolor="#000000"
     borderopacity="0.25"
     inkscape:showpageshadow="2"
     inkscape:pageopacity="0.0"
     inkscape:pagecheckerboard="0"
     inkscape:deskcolor="#d1d1d1"
     showgrid="false" /><g
     id="g3622"
     transform="translate(-7,-7)"
     style="fill:#666666"><path
       d="m 17.791504,56.5 c -0.276367,0 -0.5,-0.223633 -0.5,-0.5 v -2.5 c 0,-0.276367 0.223633,-0.5 0.5,-0.5 0.276367,0 0.5,0.223633 0.5,0.5 V 56 c 0,0.276367 -0.223633,0.5 -0.5,0.5 z"
       id="path3608"
       style="fill:#666666" /><path
       d="m 17.791504,49.285644 c -0.276367,0 -0.5,-0.223632 -0.5,-0.5 v -4.714355 c 0,-0.276367 0.223633,-0.5 0.5,-0.5 0.276367,0 0.5,0.223633 0.5,0.5 v 4.714355 c 0,0.276368 -0.223633,0.5 -0.5,0.5 z m 0,-9.42871 c -0.276367,0 -0.5,-0.223633 -0.5,-0.5 v -4.714356 c 0,-0.276367 0.223633,-0.5 0.5,-0.5 0.276367,0 0.5,0.223633 0.5,0.5 v 4.714356 c 0,0.276367 -0.223633,0.5 -0.5,0.5 z m 0,-9.428223 c -0.276367,0 -0.5,-0.223633 -0.5,-0.5 v -4.714356 c 0,-0.276367 0.223633,-0.5 0.5,-0.5 0.276367,0 0.5,0.223633 0.5,0.5 v 4.714356 c 0,0.276367 -0.223633,0.5 -0.5,0.5 z"
       id="path3610"
       style="fill:#666666" /><path
       d="m 17.791504,21 c -0.276367,0 -0.5,-0.223633 -0.5,-0.5 V 18 c 0,-0.276367 0.223633,-0.5 0.5,-0.5 h 2.5 c 0.276367,0 0.5,0.223633 0.5,0.5 0,0.276367 -0.223633,0.5 -0.5,0.5 h -2 v 2 c 0,0.276367 -0.223633,0.5 -0.5,0.5 z"
       id="path3612"
       style="fill:#666666" /><path
       d="m 48.755859,18.5 h -4.74414 c -0.276367,0 -0.5,-0.223633 -0.5,-0.5 0,-0.276367 0.223633,-0.5 0.5,-0.5 h 4.74414 c 0.276368,0 0.5,0.223633 0.5,0.5 0,0.276367 -0.223632,0.5 -0.5,0.5 z m -9.488281,0 h -4.744141 c -0.276367,0 -0.5,-0.223633 -0.5,-0.5 0,-0.276367 0.223633,-0.5 0.5,-0.5 h 4.744141 c 0.276367,0 0.5,0.223633 0.5,0.5 0,0.276367 -0.223633,0.5 -0.5,0.5 z m -9.487793,0 h -4.74414 c -0.276368,0 -0.5,-0.223633 -0.5,-0.5 0,-0.276367 0.223632,-0.5 0.5,-0.5 h 4.74414 c 0.276367,0 0.5,0.223633 0.5,0.5 0,0.276367 -0.223633,0.5 -0.5,0.5 z"
       id="path3614"
       style="fill:#666666" /><path
       d="M 56,18.5 H 53.5 C 53.223633,18.5 53,18.276367 53,18 c 0,-0.276367 0.223633,-0.5 0.5,-0.5 H 56 c 0.276367,0 0.5,0.223633 0.5,0.5 0,0.276367 -0.223633,0.5 -0.5,0.5 z"
       id="path3616"
       style="fill:#666666" /><path
       d="M 8,57 C 7.4477539,57 7,56.552246 7,56 V 8 C 7,7.4477539 7.4477539,7 8,7 h 48 c 0.552734,0 1,0.4477539 1,1 0,0.5522461 -0.447266,1 -1,1 H 9 v 47 c 0,0.552246 -0.4477539,1 -1,1 z"
       id="path3618"
       style="fill:#666666" /><path
       d="m 28,57 c -0.552246,0 -1,-0.447754 -1,-1 V 28 c 0,-0.552246 0.447754,-1 1,-1 h 28 c 0.552734,0 1,0.447754 1,1 0,0.552246 -0.447266,1 -1,1 H 29 v 27 c 0,0.552246 -0.447754,1 -1,1 z"
       id="path3620"
       style="fill:#666666" /></g><path
     d="m 34.104508,42.934554 c -0.129109,0 -0.24954,-0.05332 -0.322772,-0.141394 -0.01638,-0.02101 -1.684179,-2.019903 -3.327859,-4.368639 -2.234342,-3.190692 -3.366337,-5.483706 -3.366337,-6.815126 0,-2.102309 1.337335,-4.04473 3.50915,-5.095884 2.170754,-1.051154 4.845522,-1.051154 7.017066,0 2.170755,1.051154 3.508164,2.993575 3.508164,5.095884 0,1.331524 -1.132094,3.624434 -3.365597,6.814299 -1.644691,2.34948 -3.31158,4.349197 -3.328846,4.369466 -0.07323,0.08807 -0.193663,0.141394 -0.322772,0.141394 z m 0,-16.547093 c -3.433921,0 -6.22802,2.343069 -6.22802,5.222676 0,1.194969 1.126323,3.435384 3.25559,6.479014 1.199553,1.712873 2.409688,3.237439 2.971443,3.929934 0.561706,-0.693239 1.77379,-2.219378 2.973417,-3.933243 2.129317,-3.041976 3.254603,-5.280797 3.254603,-6.475912 9.28e-4,-2.880435 -2.793113,-5.222675 -6.227033,-5.222675 z"
     id="path4477"
     style="fill:#666666;stroke-width:0.225871" /><path
     d="m 34.104508,35.017184 c -2.172679,0 -3.940795,-1.482619 -3.940795,-3.304661 0,-1.822042 1.768018,-3.304662 3.940795,-3.304662 2.172778,0 3.940795,1.48262 3.940795,3.304662 0,1.822765 -1.768017,3.304661 -3.940795,3.304661 z m 0,-5.947439 c -1.274709,0 -2.424142,0.643951 -2.911753,1.632081 -0.487537,0.987323 -0.217749,2.124233 0.683108,2.879608 0.901818,0.756243 2.256492,0.982484 3.434908,0.57284 1.177379,-0.408838 1.945287,-1.372727 1.945287,-2.441731 -0.0019,-1.458378 -1.411527,-2.640502 -3.151501,-2.642777 z"
     id="path4479"
     style="fill:#666666;stroke-width:0.225871" /><path
     d="m 31.733421,39.893198 c -0.158976,0 -0.303509,-0.07999 -0.36421,-0.203607 -0.0607,-0.124426 -0.02698,-0.266636 0.08575,-0.361162 0.112728,-0.09453 0.282296,-0.12281 0.429721,-0.07191 0.147416,0.05172 0.243764,0.172096 0.243764,0.306225 0,0.08726 -0.04143,0.172095 -0.11562,0.234306 -0.07419,0.06141 -0.174392,0.09615 -0.27941,0.09615 z"
     id="path4481"
     style="fill:#666666;stroke-width:0.225871" /><path
     d="m 36.475595,39.893198 c -0.15994,0 -0.303508,-0.07999 -0.36421,-0.203607 -0.06166,-0.124426 -0.02794,-0.266636 0.08479,-0.361162 0.112729,-0.09452 0.283257,-0.12281 0.430683,-0.07191 0.147415,0.05172 0.243764,0.172096 0.243764,0.306225 0,0.08726 -0.04239,0.172095 -0.116584,0.234306 -0.07323,0.06141 -0.174392,0.09615 -0.278448,0.09615 z"
     id="path4483"
     style="fill:#666666;stroke-width:0.225871" /></svg>
