<?xml version="1.0" encoding="UTF-8" standalone="no"?>
<svg
   data-name="Capa 1"
   viewBox="0 0 14.301156 16.904797"
   x="0px"
   y="0px"
   version="1.1"
   id="svg414"
   sodipodi:docname="couples-no.svg"
   width="14.301156"
   height="16.904797"
   inkscape:version="1.2.2 (b0a8486541, 2022-12-01)"
   xmlns:inkscape="http://www.inkscape.org/namespaces/inkscape"
   xmlns:sodipodi="http://sodipodi.sourceforge.net/DTD/sodipodi-0.dtd"
   xmlns="http://www.w3.org/2000/svg"
   xmlns:svg="http://www.w3.org/2000/svg"
   xmlns:rdf="http://www.w3.org/1999/02/22-rdf-syntax-ns#"
   xmlns:cc="http://creativecommons.org/ns#"
   xmlns:dc="http://purl.org/dc/elements/1.1/">
  <defs
     id="defs418" />
  <sodipodi:namedview
     id="namedview416"
     pagecolor="#ffffff"
     bordercolor="#000000"
     borderopacity="0.25"
     inkscape:showpageshadow="2"
     inkscape:pageopacity="0.0"
     inkscape:pagecheckerboard="0"
     inkscape:deskcolor="#d1d1d1"
     showgrid="false"
     inkscape:zoom="27.133333"
     inkscape:cx="-6.8918919"
     inkscape:cy="11.646192"
     inkscape:window-width="1920"
     inkscape:window-height="1044"
     inkscape:window-x="0"
     inkscape:window-y="0"
     inkscape:window-maximized="1"
     inkscape:current-layer="svg414" />
  <title
     id="title400">Mesa de trabajo 28 copia</title>
  <path
     d="m 5.650578,5.8331254 h -3 a 0.5,0.5 0 0 0 -0.5,0.5 v 8.9999996 a 0.5,0.5 0 0 0 1,0 V 6.8331254 h 2 v 8.4999996 a 0.5,0.5 0 0 0 1,0 V 6.3331254 a 0.5,0.5 0 0 0 -0.5,-0.5 z"
     id="path402"
     style="fill:#6a6a6a" />
  <path
     d="m 8.650578,15.833125 a 0.5,0.5 0 0 0 0.5,-0.5 V 6.8331254 h 2 v 8.4999996 a 0.5,0.5 0 0 0 1,0 V 6.3331254 a 0.5,0.5 0 0 0 -0.5,-0.5 h -3 a 0.5,0.5 0 0 0 -0.5,0.5 v 8.9999996 a 0.5,0.5 0 0 0 0.5,0.5 z"
     id="path404"
     style="fill:#6a6a6a" />
  <path
     d="m 4.150578,0.83312542 a 2,2 0 1 0 2,1.99999998 2,2 0 0 0 -2,-1.99999998 z m 0,2.99999998 a 1,1 0 1 1 1,-1 1,1 0 0 1 -1,1 z"
     id="path406"
     style="fill:#6a6a6a" />
  <path
     d="m 10.150578,4.8331254 a 2,2 0 1 0 -2,-2 2,2 0 0 0 2,2 z m 0,-3 a 1,1 0 1 1 -1,1 1,1 0 0 1 1,-1 z"
     id="path408"
     style="fill:#6a6a6a" />
  <g
     id="g526"
     transform="matrix(0.29892471,0,0,0.35334268,-7.795508,-9.2146471)"
     style="fill:#6a6a6a">
    <path
       d="m 27.579,73.921 c -0.384,0 -0.768,-0.146 -1.061,-0.439 -0.586,-0.585 -0.586,-1.536 0,-2.121 L 71.36,26.518 c 0.586,-0.586 1.535,-0.586 2.121,0 0.586,0.585 0.586,1.536 0,2.121 L 28.639,73.481 c -0.293,0.293 -0.677,0.44 -1.06,0.44 z"
       id="path524"
       style="fill:#6a6a6a" />
  </g>
  <metadata
     id="metadata598">
    <rdf:RDF>
      <cc:Work
         rdf:about="">
        <dc:title>Mesa de trabajo 28 copia</dc:title>
      </cc:Work>
    </rdf:RDF>
  </metadata>
</svg>
