<?xml version="1.0" encoding="UTF-8" standalone="no"?>
<svg
   version="1.1"
   x="0px"
   y="0px"
   viewBox="0 0 46 45"
   xml:space="preserve"
   id="svg617"
   sodipodi:docname="couples-ok.svg"
   width="46"
   height="45"
   inkscape:version="1.2.2 (b0a8486541, 2022-12-01)"
   xmlns:inkscape="http://www.inkscape.org/namespaces/inkscape"
   xmlns:sodipodi="http://sodipodi.sourceforge.net/DTD/sodipodi-0.dtd"
   xmlns="http://www.w3.org/2000/svg"
   xmlns:svg="http://www.w3.org/2000/svg"><defs
     id="defs621" /><sodipodi:namedview
     id="namedview619"
     pagecolor="#ffffff"
     bordercolor="#000000"
     borderopacity="0.25"
     inkscape:showpageshadow="2"
     inkscape:pageopacity="0.0"
     inkscape:pagecheckerboard="0"
     inkscape:deskcolor="#d1d1d1"
     showgrid="false"
     inkscape:zoom="13.566667"
     inkscape:cx="22.997543"
     inkscape:cy="21.081081"
     inkscape:window-width="1860"
     inkscape:window-height="1012"
     inkscape:window-x="0"
     inkscape:window-y="0"
     inkscape:window-maximized="1"
     inkscape:current-layer="svg617" /><path
     d="M 46,8 C 46,3.589 42.411,0 38,0 34.992,0 32.366,1.669 31,4.13 29.634,1.669 27.008,0 24,0 c -4.411,0 -8,3.589 -8,8 0,1.017 0.176,2.097 0.504,3.212 C 15.913,11.773 15.398,12.412 15,13.13 13.634,10.669 11.008,9 8,9 3.589,9 0,12.589 0,17 c 0,7.498 8.497,15.273 12.868,18.01 -1.123,0.945 -2.181,2.379 -2.763,3.542 -0.155,0.31 -0.138,0.678 0.044,0.973 C 10.332,39.82 10.653,40 11,40 h 3 v 5 h 2 v -5 h 3 c 0.347,0 0.668,-0.18 0.851,-0.474 0.182,-0.295 0.199,-0.663 0.044,-0.973 -0.582,-1.164 -1.639,-2.598 -2.763,-3.542 2.8,-1.754 7.289,-5.573 10.158,-10.065 0.553,0.41 1.08,0.773 1.566,1.076 -1.119,0.945 -2.17,2.372 -2.75,3.532 -0.155,0.31 -0.138,0.678 0.044,0.973 C 26.332,30.82 26.653,31 27,31 h 3 v 14 h 2 V 31 h 3 c 0.347,0 0.668,-0.18 0.851,-0.474 0.182,-0.295 0.199,-0.663 0.044,-0.973 C 35.313,28.389 34.256,26.955 33.132,26.011 37.503,23.273 46,15.498 46,8 Z M 17.199,38 h -4.398 c 0.864,-1.146 1.834,-1.947 2.18,-2.001 0.373,0.054 1.351,0.855 2.218,2.001 z m 9.029,-15.172 c -0.003,0.004 -0.008,0.006 -0.012,0.01 -0.029,0.036 -0.038,0.08 -0.061,0.119 C 23.128,28.251 17.217,32.929 15,33.926 11.965,32.561 2,24.3 2,17 c 0,-3.309 2.691,-6 6,-6 3.309,0 6,2.691 6,6 0,0.552 0.448,1 1,1 0.552,0 1,-0.448 1,-1 0,-3.309 2.691,-6 6,-6 3.309,0 6,2.691 6,6 0,1.924 -0.696,3.915 -1.772,5.828 z M 33.199,29 h -4.398 c 0.864,-1.146 1.834,-1.947 2.18,-2.001 0.373,0.054 1.351,0.855 2.218,2.001 z M 31.002,24.925 C 30.435,24.666 29.494,24.096 28.299,23.197 29.34,21.185 30,19.082 30,17 30,12.589 26.411,9 22,9 20.639,9 19.365,9.356 18.242,9.958 18.087,9.277 18,8.62 18,8 c 0,-3.309 2.691,-6 6,-6 3.309,0 6,2.691 6,6 0,0.552 0.448,1 1,1 0.552,0 1,-0.448 1,-1 0,-3.309 2.691,-6 6,-6 3.309,0 6,2.691 6,6 0,7.298 -9.96,15.557 -12.998,16.925 z M 26,17 c 0,0.552 -0.448,1 -1,1 -0.552,0 -1,-0.448 -1,-1 0,-1.103 -0.897,-2 -2,-2 -0.552,0 -1,-0.448 -1,-1 0,-0.552 0.448,-1 1,-1 2.206,0 4,1.794 4,4 z M 42,8 C 42,8.552 41.552,9 41,9 40.448,9 40,8.552 40,8 40,6.897 39.103,6 38,6 37.448,6 37,5.552 37,5 c 0,-0.552 0.448,-1 1,-1 2.206,0 4,1.794 4,4 z"
     id="path611"
     style="fill:#666666" /></svg>
