<?xml version="1.0" encoding="UTF-8" standalone="no"?>
<svg
   version="1.1"
   x="0px"
   y="0px"
   viewBox="0 0 41.598999 64"
   enable-background="new 0 0 100 100"
   xml:space="preserve"
   id="svg440"
   sodipodi:docname="couples.svg"
   width="41.598999"
   height="64"
   inkscape:version="1.1.2 (0a00cf5339, 2022-02-04)"
   xmlns:inkscape="http://www.inkscape.org/namespaces/inkscape"
   xmlns:sodipodi="http://sodipodi.sourceforge.net/DTD/sodipodi-0.dtd"
   xmlns="http://www.w3.org/2000/svg"
   xmlns:svg="http://www.w3.org/2000/svg"><defs
     id="defs444" /><sodipodi:namedview
     id="namedview442"
     pagecolor="#ffffff"
     bordercolor="#666666"
     borderopacity="1.0"
     inkscape:pageshadow="2"
     inkscape:pageopacity="0.0"
     inkscape:pagecheckerboard="0"
     showgrid="false"
     fit-margin-top="0"
     fit-margin-left="0"
     fit-margin-right="0"
     fit-margin-bottom="0"
     inkscape:zoom="6.088"
     inkscape:cx="20.696452"
     inkscape:cy="42.460578"
     inkscape:window-width="1850"
     inkscape:window-height="1025"
     inkscape:window-x="1990"
     inkscape:window-y="27"
     inkscape:window-maximized="1"
     inkscape:current-layer="svg440" /><g
     id="g434"
     transform="translate(-29.201,-20)"
     style="fill:#979797"><circle
       fill="#000000"
       cx="42"
       cy="29.200001"
       r="6"
       id="circle426"
       style="fill:#979797" /><circle
       fill="#000000"
       cx="62.799999"
       cy="26"
       r="6"
       id="circle428"
       style="fill:#979797" /><path
       fill="#000000"
       d="m 48.399,45.6 c 0,-3.533 -2.864,-6.4 -6.399,-6.4 -3.532,0 -6.399,2.866 -6.399,6.4 v 8.682 l -6.4,15.532 h 8.095 L 38.8,84 H 42 45.2 L 47.185,69.816 H 54.8 L 48.4,55.563 V 45.6 Z"
       id="path430"
       style="fill:#979797" /><path
       fill="#000000"
       d="m 64.4,36 h -3.2 c -3.533,0 -6.4,2.866 -6.4,6.4 V 69.816 84 h 6 V 60 h 4 v 24 h 6 V 42.4 C 70.8,38.867 67.936,36 64.4,36 Z"
       id="path432"
       style="fill:#979797" /></g></svg>
