<?xml version="1.0" encoding="UTF-8" standalone="no"?>
<svg
   version="1.1"
   viewBox="-5 -10 88.019341 88.007263"
   id="svg15266"
   sodipodi:docname="noun-coworking-7393549.svg"
   width="88.019341"
   height="88.007263"
   xmlns:inkscape="http://www.inkscape.org/namespaces/inkscape"
   xmlns:sodipodi="http://sodipodi.sourceforge.net/DTD/sodipodi-0.dtd"
   xmlns="http://www.w3.org/2000/svg"
   xmlns:svg="http://www.w3.org/2000/svg">
  <defs
     id="defs15270" />
  <sodipodi:namedview
     id="namedview15268"
     pagecolor="#ffffff"
     bordercolor="#000000"
     borderopacity="0.25"
     inkscape:showpageshadow="2"
     inkscape:pageopacity="0.0"
     inkscape:pagecheckerboard="0"
     inkscape:deskcolor="#d1d1d1"
     showgrid="false" />
  <path
     d="m 17.495436,52.581906 h 7.8203 c 1.0781,0 1.9609,-0.87891 1.9609,-1.9609 v -1.9609 c 0,-1.0781 -0.87891,-1.9609 -1.9609,-1.9609 h -7.8203 c -1.0781,0 -1.9609,0.87891 -1.9609,1.9609 v 1.9609 c 0,1.0781 0.87891,1.9609 1.9609,1.9609 z m 0,-3.9102 h 7.8203 v 1.9609 h -7.8203 z"
     id="path15254"
     style="fill:#6a6a6a" />
  <path
     d="m 79.097436,40.843906 h -13.25 c -1.4492,-1.7617 -3.3594,-2.9805 -5.5117,-3.5508 1.8906,-1.4297 3.1094,-3.6914 3.1094,-6.2305 0,-4.3086 -3.5117,-7.8203 -7.8203,-7.8203 -4.3086,0 -7.8203,3.5117 -7.8203,7.8203 0,2.3711 1.0703,4.5 2.7383,5.9297 -5.3789,0.58984 -9.5781,5.1484 -9.5781,10.691 v 9.7812 c 0,1.9102 0.78906,3.6484 2.0586,4.8906 h -6.0586 c 0.05078,-0.19922 0.08984,-0.41016 0.08984,-0.64062 v -0.67969 c 0,-0.80859 -0.37891,-1.5312 -0.96875,-2 0.58984,-0.69141 0.96875,-1.5703 0.96875,-2.5508 v -11.73 c 0,-2.1602 -1.75,-3.9102 -3.9102,-3.9102 h -13.25 c -1.4492,-1.7617 -3.3594,-2.9805 -5.5117,-3.5508 1.8906,-1.4297 3.1094,-3.6914 3.1094,-6.2305 0,-4.3086 -3.5117,-7.8203 -7.8203,-7.8203 -4.3086,0 -7.8203,3.5117 -7.8203,7.8203 0,2.3711 1.0703,4.5 2.7383,5.9297 -5.3789,0.58984 -9.5781,5.1484 -9.5781,10.691 v 9.7812 c 0,1.9102 0.78906,3.6484 2.0586,4.8906 h -0.10938 c -1.0781,0 -1.9609,0.87891 -1.9609,1.9609 v 3.9102 c 0,1.0781 0.87891,1.9609 1.9609,1.9609 h 1.4688 v 6.8398 c 0,0.53906 0.44141,0.98047 0.98047,0.98047 l 79.199,-0.0039 c 0.53906,0 0.98047,-0.44141 0.98047,-0.98047 v -6.8398 h 1.4688 c 1.0781,0 1.9609,-0.87891 1.9609,-1.9609 v -3.9102 c 0,-0.44922 -0.16016,-0.85938 -0.42188,-1.1914 0.26172,-0.39844 0.42188,-0.87891 0.42188,-1.3984 v -0.67969 c 0,-0.80859 -0.37891,-1.5312 -0.96875,-2 0.58984,-0.69141 0.96875,-1.5703 0.96875,-2.5508 v -11.73 c 0,-2.1602 -1.75,-3.9102 -3.9102,-3.9102 z m -29.328,-9.7812 c 0,-3.2383 2.6289,-5.8711 5.8711,-5.8711 3.2383,0 5.8711,2.6289 5.8711,5.8711 0,3.2383 -2.6289,5.8711 -5.8711,5.8711 -3.2383,0 -5.8711,-2.6289 -5.8711,-5.8711 z m -6.8398,26.398 v -9.7812 c 0,-4.8516 3.9492,-8.8008 8.8008,-8.8008 h 5.8711 c 2.0508,0 3.9805,0.69922 5.5195,1.9609 h -7.4805 c -2.1602,0 -3.9102,1.75 -3.9102,3.9102 v 11.73 c 0,0.32813 0.05859,0.66016 0.14062,0.98047 h -2.1016 c -0.53906,0 -0.98047,-0.44141 -0.98047,-0.98047 v -5.8711 c 0,-0.53906 -0.44141,-0.98047 -0.98047,-0.98047 -0.53906,0 -0.98047,0.44141 -0.98047,0.98047 v 5.8711 c 0,1.6211 1.3203,2.9297 2.9297,2.9297 h 2.5391 c -0.35937,0.44141 -0.57812,1 -0.57812,1.6094 v 0.67969 c 0,0.21875 0.03906,0.42969 0.08984,0.64063 h -4 c -2.6992,0 -4.8906,-2.1914 -4.8906,-4.8906 z m -9.7812,-14.672 c 1.0781,0 1.9609,0.87891 1.9609,1.9609 v 11.73 c 0,1.0781 -0.87891,1.9609 -1.9609,1.9609 l -23.469,0.0039 c -0.55859,0 -1.0898,-0.23047 -1.4609,-0.66016 -0.32031,-0.35938 -0.5,-0.82031 -0.5,-1.3008 v -11.73 c 0,-1.0781 0.87891,-1.9609 1.9609,-1.9609 h 23.469 z m 1.9609,18.238 v 0.67969 c 0,0.35156 -0.28906,0.64062 -0.64062,0.64062 l -26.109,0.0078 c -0.35156,0 -0.64062,-0.28125 -0.64062,-0.64062 v -0.67969 c 0,-0.35156 0.28906,-0.64062 0.64062,-0.64062 h 26.109 c 0.35156,0 0.64062,0.28125 0.64062,0.64062 z m -31.301,-29.953 c 0,-3.2383 2.6289,-5.8711 5.8711,-5.8711 3.2383,0 5.8711,2.6289 5.8711,5.8711 0,3.2383 -2.6289,5.8711 -5.8711,5.8711 -3.2383,0 -5.8711,-2.6289 -5.8711,-5.8711 z m -6.8398,26.398 v -9.7812 c 0,-4.8516 3.9492,-8.8008 8.8008,-8.8008 h 5.8711 c 2.0508,0 3.9805,0.69922 5.5195,1.9609 h -7.4805 c -2.1602,0 -3.9102,1.75 -3.9102,3.9102 v 11.73 c 0,0.32812 0.05859,0.66016 0.14062,0.98047 h -2.1016 c -0.53906,0 -0.98047,-0.44141 -0.98047,-0.98047 v -5.8711 c 0,-0.53906 -0.44141,-0.98047 -0.98047,-0.98047 -0.53906,0 -0.98047,0.44141 -0.98047,0.98047 v 5.8711 c 0,1.6211 1.3203,2.9297 2.9297,2.9297 h 2.5391 c -0.35938,0.44141 -0.57812,1 -0.57812,1.6094 v 0.67969 c 0,0.21875 0.03906,0.42969 0.08984,0.64062 h -4 c -2.6992,0 -4.8906,-2.1914 -4.8906,-4.8906 z m 80.672,18.578 -77.254,0.0039 v -5.8711 h 77.242 v 5.8711 z m 3.4219,-7.8203 -84.094,0.0039 v -3.9102 h 84.078 v 3.9102 z m 0,-6.5 c 0,0.35156 -0.28125,0.64063 -0.64063,0.64063 h -26.109 c -0.35156,0 -0.64063,-0.28125 -0.64063,-0.64063 v -0.67969 c 0,-0.35156 0.28906,-0.64062 0.64063,-0.64062 h 26.109 c 0.35156,0 0.64063,0.28125 0.64063,0.64062 z m 0,-5.2305 c 0,1.0781 -0.87891,1.9609 -1.9609,1.9609 h -23.469 c -0.55859,0 -1.0898,-0.23047 -1.4609,-0.66016 -0.32031,-0.35938 -0.5,-0.82031 -0.5,-1.3008 v -11.73 c 0,-1.0781 0.87891,-1.9609 1.9609,-1.9609 h 23.469 c 1.0781,0 1.9609,0.87891 1.9609,1.9609 z"
     id="path15256"
     style="fill:#6a6a6a" />
  <path
     d="m 71.277436,46.714906 h -7.8203 c -1.0781,0 -1.9609,0.87891 -1.9609,1.9609 v 1.9609 c 0,1.0781 0.87891,1.9609 1.9609,1.9609 h 7.8203 c 1.0781,0 1.9609,-0.87891 1.9609,-1.9609 v -1.9609 c 0,-1.0781 -0.87891,-1.9609 -1.9609,-1.9609 z m 0,3.9102 h -7.8203 v -1.9609 h 7.8203 z"
     id="path15258"
     style="fill:#6a6a6a" />
  <path
     d="m 81.046436,-9.996094 h -84.078 c -1.0781,0 -1.9609,0.87891 -1.9609,1.9609 v 1.9609 c 0,1.0781 0.87891,1.9609 1.9609,1.9609 h 9.7812 v 4.4102 c -3.2617,1.1484 -5.5508,4.1211 -5.8398,7.5781 -0.60156,0.32812 -1.0117,0.96875 -1.0117,1.6992 v 1.9609 c 0,1.0781 0.87891,1.9609 1.9609,1.9609 h 3.0312 c 0.44922,2.2305 2.4297,3.9102 4.7891,3.9102 2.3594,0 4.3398,-1.6797 4.7891,-3.9102 h 3.0312 c 1.0781,0 1.9609,-0.87891 1.9609,-1.9609 v -1.9609 c 0,-0.73047 -0.41016,-1.3711 -1.0117,-1.6992 -0.28125,-3.4492 -2.5703,-6.4219 -5.8398,-7.5781 v -4.4102 l 40.09,-0.0039 v 4.4102 c -3.2617,1.1484 -5.5508,4.1211 -5.8398,7.5781 -0.60156,0.32812 -1.0117,0.96875 -1.0117,1.6992 v 1.9609 c 0,1.0781 0.87891,1.9609 1.9609,1.9609 h 3.0312 c 0.44922,2.2305 2.4297,3.9102 4.7891,3.9102 2.3594,0 4.3398,-1.6797 4.7891,-3.9102 h 3.0312 c 1.0781,0 1.9609,-0.87891 1.9609,-1.9609 v -1.9609 c 0,-0.73047 -0.41016,-1.3711 -1.0117,-1.6992 -0.28125,-3.4492 -2.5703,-6.4219 -5.8398,-7.5781 v -4.4102 h 22.488 c 1.0781,0 1.9609,-0.87891 1.9609,-1.9609 v -1.9609 c 0,-1.0781 -0.87891,-1.9609 -1.9609,-1.9609 z m -71.367,25.422 c -1.2695,0 -2.3516,-0.82031 -2.75,-1.9609 h 5.5117 c -0.39844,1.1406 -1.4805,1.9609 -2.75,1.9609 z m 7.8203,-3.9102 h -15.652 v -1.9609 h 15.641 v 1.9609 z m -1.0508,-3.9102 h -13.551 c 0.39062,-2.6992 2.3594,-4.9609 5.0586,-5.6484 1.1406,-0.28906 2.3008,-0.28125 3.4297,0 2.6992,0.69922 4.6797,2.9492 5.0586,5.6484 z m -7.75,-7.7617 v -3.9688 h 1.9609 v 3.9688 c -0.64844,-0.07031 -1.3008,-0.07031 -1.9609,0 z m 46.93,15.578 c -1.2695,0 -2.3516,-0.82031 -2.75,-1.9609 h 5.5117 c -0.39844,1.1406 -1.4805,1.9609 -2.75,1.9609 z m 7.8203,-3.9102 h -15.641 v -1.9609 h 15.641 z m -1.0508,-3.9102 h -13.551 c 0.39062,-2.6992 2.3594,-4.9609 5.0586,-5.6484 1.1406,-0.28906 2.3008,-0.28125 3.4297,0 2.6992,0.69922 4.6797,2.9492 5.0586,5.6484 z m -7.75,-7.7617 v -3.9688 h 1.9609 v 3.9688 c -0.64844,-0.07031 -1.3008,-0.07031 -1.9609,0 z m 26.398,-5.9297 -84.078,0.00391 v -1.9609 h 84.078 v 1.9609 z"
     id="path15260"
     style="fill:#6a6a6a" />
</svg>
