<?xml version="1.0" encoding="UTF-8" standalone="no"?>
<svg
   version="1.1"
   x="0px"
   y="0px"
   viewBox="0 0 80 80"
   xml:space="preserve"
   id="svg8"
   sodipodi:docname="date-out.svg"
   width="80"
   height="80"
   inkscape:version="1.1.2 (0a00cf5339, 2022-02-04)"
   xmlns:inkscape="http://www.inkscape.org/namespaces/inkscape"
   xmlns:sodipodi="http://sodipodi.sourceforge.net/DTD/sodipodi-0.dtd"
   xmlns="http://www.w3.org/2000/svg"
   xmlns:svg="http://www.w3.org/2000/svg"><defs
     id="defs12"><filter
       style="color-interpolation-filters:sRGB;"
       inkscape:label="Colorize"
       id="filter188"
       x="0"
       y="0"
       width="1"
       height="1"><feComposite
         in2="SourceGraphic"
         operator="arithmetic"
         k1="0"
         k2="1"
         result="composite1"
         id="feComposite174" /><feColorMatrix
         in="composite1"
         values="1"
         type="saturate"
         result="colormatrix1"
         id="feColorMatrix176" /><feFlood
         flood-opacity="1"
         flood-color="rgb(58,59,60)"
         result="flood1"
         id="feFlood178" /><feBlend
         in="flood1"
         in2="colormatrix1"
         mode="screen"
         result="blend1"
         id="feBlend180" /><feBlend
         in2="blend1"
         mode="multiply"
         result="blend2"
         id="feBlend182" /><feColorMatrix
         in="blend2"
         values="1"
         type="saturate"
         result="colormatrix2"
         id="feColorMatrix184" /><feComposite
         in="colormatrix2"
         in2="SourceGraphic"
         operator="in"
         k2="1"
         result="fbSourceGraphic"
         id="feComposite186" /><feColorMatrix
         result="fbSourceGraphicAlpha"
         in="fbSourceGraphic"
         values="0 0 0 -1 0 0 0 0 -1 0 0 0 0 -1 0 0 0 0 1 0"
         id="feColorMatrix208" /><feComposite
         in2="fbSourceGraphic"
         id="feComposite210"
         operator="arithmetic"
         k1="0"
         k2="1"
         result="composite1"
         in="fbSourceGraphic" /><feColorMatrix
         id="feColorMatrix212"
         in="composite1"
         values="1"
         type="saturate"
         result="colormatrix1" /><feFlood
         id="feFlood214"
         flood-opacity="1"
         flood-color="rgb(58,59,60)"
         result="flood1" /><feBlend
         in2="colormatrix1"
         id="feBlend216"
         in="flood1"
         mode="screen"
         result="blend1" /><feBlend
         in2="blend1"
         id="feBlend218"
         mode="multiply"
         result="blend2" /><feColorMatrix
         id="feColorMatrix220"
         in="blend2"
         values="1"
         type="saturate"
         result="colormatrix2" /><feComposite
         in2="fbSourceGraphic"
         id="feComposite222"
         in="colormatrix2"
         operator="in"
         k2="1"
         result="composite2" /></filter></defs><sodipodi:namedview
     id="namedview10"
     pagecolor="#ffffff"
     bordercolor="#666666"
     borderopacity="1.0"
     inkscape:pageshadow="2"
     inkscape:pageopacity="0.0"
     inkscape:pagecheckerboard="0"
     showgrid="false"
     fit-margin-top="0"
     fit-margin-left="0"
     fit-margin-right="0"
     fit-margin-bottom="0"
     inkscape:zoom="6.088"
     inkscape:cx="39.914586"
     inkscape:cy="52.39816"
     inkscape:window-width="1920"
     inkscape:window-height="1052"
     inkscape:window-x="0"
     inkscape:window-y="0"
     inkscape:window-maximized="1"
     inkscape:current-layer="svg8" /><path
     d="M 74,6 H 62 V 2 C 62,0.896 61.105,0 60,0 58.895,0 58,0.896 58,2 V 6 H 22 V 2 C 22,0.896 21.105,0 20,0 18.895,0 18,0.896 18,2 V 6 H 6 C 2.691,6 0,8.691 0,12 v 62 c 0,3.309 2.691,6 6,6 h 68 c 3.309,0 6,-2.691 6,-6 V 12 C 80,8.691 77.309,6 74,6 Z M 4,12 c 0,-1.103 0.896,-2 2,-2 h 12 v 4 c 0,1.104 0.895,2 2,2 1.105,0 2,-0.896 2,-2 v -4 h 36 v 4 c 0,1.104 0.895,2 2,2 1.105,0 2,-0.896 2,-2 v -4 h 12 c 1.104,0 2,0.897 2,2 V 24 H 4 Z m 72,62 c 0,1.103 -0.896,2 -2,2 H 6 C 4.896,76 4,75.103 4,74 V 28 h 72 z"
     id="path2"
     style="filter:url(#filter188);fill:#5b5b5b" /><g
     id="g6"
     transform="matrix(0.42604313,0,0,0.53015612,19.493768,25.910628)"
     style="fill:#00a000"><g
       id="g4"
       style="fill:#00a000"><path
         d="m 39.286,81.624 c -0.029,0 -0.06,0 -0.089,0 C 36.513,81.6 33.953,80.499 32.09,78.568 L 10.271,55.955 C 6.436,51.98 6.549,45.65 10.524,41.815 c 3.975,-3.834 10.305,-3.721 14.14,0.252 l 14.75,15.287 36.049,-36.049 c 3.906,-3.904 10.236,-3.904 14.143,0 3.905,3.905 3.905,10.237 0,14.143 L 46.357,78.695 c -1.876,1.876 -4.42,2.929 -7.071,2.929 z"
         id="path2-3"
         style="fill:#00a000" /></g></g></svg>
