<?xml version="1.0" encoding="UTF-8" standalone="no"?>
<svg
   data-name="Layer 1"
   viewBox="0 0 444 411"
   x="0px"
   y="0px"
   version="1.1"
   id="svg10"
   sodipodi:docname="noun-date-3535571.svg"
   width="444"
   height="411"
   inkscape:version="1.1.2 (0a00cf5339, 2022-02-04)"
   xmlns:inkscape="http://www.inkscape.org/namespaces/inkscape"
   xmlns:sodipodi="http://sodipodi.sourceforge.net/DTD/sodipodi-0.dtd"
   xmlns="http://www.w3.org/2000/svg"
   xmlns:svg="http://www.w3.org/2000/svg"
   xmlns:rdf="http://www.w3.org/1999/02/22-rdf-syntax-ns#"
   xmlns:cc="http://creativecommons.org/ns#"
   xmlns:dc="http://purl.org/dc/elements/1.1/">
  <defs
     id="defs14" />
  <sodipodi:namedview
     id="namedview12"
     pagecolor="#ffffff"
     bordercolor="#666666"
     borderopacity="1.0"
     inkscape:pageshadow="2"
     inkscape:pageopacity="0.0"
     inkscape:pagecheckerboard="0"
     showgrid="false"
     fit-margin-top="0"
     fit-margin-left="0"
     fit-margin-right="0"
     fit-margin-bottom="0"
     inkscape:zoom="1.1890625"
     inkscape:cx="222.02365"
     inkscape:cy="272.90407"
     inkscape:window-width="1850"
     inkscape:window-height="1025"
     inkscape:window-x="1990"
     inkscape:window-y="27"
     inkscape:window-maximized="1"
     inkscape:current-layer="svg10" />
  <title
     id="title2">Artboard 65</title>
  <path
     d="M 414.522,31 H 361 V 0 H 343 V 31 H 161 V 0 H 143 V 31 H 90.274 A 29.524,29.524 0 0 0 61,60.519 V 82 H 29.478 A 29.41,29.41 0 0 0 0,111.182 V 381.553 A 29.637,29.637 0 0 0 29.478,411 H 353.726 A 29.463,29.463 0 0 0 383,381.553 V 360 h 31.522 A 29.349,29.349 0 0 0 444,330.89 V 60.519 A 29.7,29.7 0 0 0 414.522,31 Z M 90.274,49 H 143 v 32 h 18 V 49 h 182 v 32 h 18 V 49 h 53.522 A 11.681,11.681 0 0 1 426,60.519 V 117 H 79 V 60.519 A 11.5,11.5 0 0 1 90.274,49 Z M 365,381.553 A 11.442,11.442 0 0 1 353.726,393 H 29.478 A 11.618,11.618 0 0 1 18,381.553 V 111.182 A 11.392,11.392 0 0 1 29.478,100 H 61 V 330.89 A 29.175,29.175 0 0 0 90.274,360 H 365 Z M 414.522,342 H 90.274 A 11.153,11.153 0 0 1 79,330.89 V 135 H 426 V 330.89 A 11.331,11.331 0 0 1 414.522,342 Z"
     id="path4"
     style="fill:#383838" />
  <metadata
     id="metadata16">
    <rdf:RDF>
      <cc:Work
         rdf:about="">
        <dc:title>Artboard 65</dc:title>
      </cc:Work>
    </rdf:RDF>
  </metadata>
</svg>
