<?xml version="1.0" encoding="UTF-8" standalone="no"?>
<svg
   data-name="Layer 1"
   viewBox="0 0 85.29747 56.825367"
   x="0px"
   y="0px"
   version="1.1"
   id="svg12"
   sodipodi:docname="deal.svg"
   width="85.29747"
   height="56.825367"
   inkscape:version="1.1.2 (0a00cf5339, 2022-02-04)"
   xmlns:inkscape="http://www.inkscape.org/namespaces/inkscape"
   xmlns:sodipodi="http://sodipodi.sourceforge.net/DTD/sodipodi-0.dtd"
   xmlns="http://www.w3.org/2000/svg"
   xmlns:svg="http://www.w3.org/2000/svg"
   xmlns:rdf="http://www.w3.org/1999/02/22-rdf-syntax-ns#"
   xmlns:cc="http://creativecommons.org/ns#"
   xmlns:dc="http://purl.org/dc/elements/1.1/">
  <defs
     id="defs16" />
  <sodipodi:namedview
     id="namedview14"
     pagecolor="#ffffff"
     bordercolor="#666666"
     borderopacity="1.0"
     inkscape:pageshadow="2"
     inkscape:pageopacity="0.0"
     inkscape:pagecheckerboard="0"
     showgrid="false"
     fit-margin-top="0"
     fit-margin-left="0"
     fit-margin-right="0"
     fit-margin-bottom="0"
     inkscape:zoom="6.088"
     inkscape:cx="43.528252"
     inkscape:cy="37.697109"
     inkscape:window-width="1850"
     inkscape:window-height="1025"
     inkscape:window-x="1990"
     inkscape:window-y="27"
     inkscape:window-maximized="1"
     inkscape:current-layer="svg12" />
  <title
     id="title2">Noun_Project_50Icon_1px_grid</title>
  <path
     d="m 81.4144,3.31294 h -5.47943 a 3.79181,3.79181 0 0 0 -3.88307,3.684 v 1.90275 l -7.572,-5.17613 a 14.08442,14.08442 0 0 0 -7.98,-2.46667 H 44.6253 A 10.54425,10.54425 0 0 0 37.0758,4.46225 L 36.92195,4.62178 13.24556,5.11112 V 4.10388 A 4.10848,4.10848 0 0 0 9.14168,0 H 4.10388 A 4.10848,4.10848 0 0 0 0,4.10388 v 35.09914 a 4.10847,4.10847 0 0 0 4.10388,4.10388 h 5.0378 a 4.10847,4.10847 0 0 0 4.10388,-4.10388 v -3.641 h 0.59211 l 16.43207,18.99901 a 0.9482,0.9482 0 0 0 0.12178,0.11713 10.09887,10.09887 0 0 0 5.42487,2.14709 4.68,4.68 0 0 0 1.57334,-0.26063 5.45827,5.45827 0 0 0 3.20176,-3.68837 c 1.85776,1.27031 3.52548,1.6235 4.97084,1.04872 1.99919,-0.79533 2.91657,-3.11851 3.31889,-4.69909 1.24471,0.78448 3.22787,1.6791 5.08305,0.99236 1.6928,-0.62546 2.83771,-2.37411 3.41223,-5.20432 a 5.75163,5.75163 0 0 0 3.90168,0.48791 3.67429,3.67429 0 0 0 1.56927,-0.94666 l 9.20445,-1.12791 v 1.08066 a 3.79181,3.79181 0 0 0 3.88307,3.684 h 5.47943 a 3.79181,3.79181 0 0 0 3.88307,-3.684 V 6.99692 A 3.79181,3.79181 0 0 0 81.4144,3.31294 Z m -7.50913,17.61551 h 9.53883 v 3.12548 h -9.53883 z m 2.0297,-15.76214 h 5.47943 a 1.94016,1.94016 0 0 1 2.0297,1.83061 v 12.0782 H 73.90527 V 6.99692 a 1.94016,1.94016 0 0 1 2.0297,-1.83061 z M 4.10388,1.85337 h 5.0378 A 2.2532,2.2532 0 0 1 11.3922,4.10388 V 17.01875 H 1.85337 V 4.10388 A 2.25319,2.25319 0 0 1 4.10388,1.85337 Z M 11.3922,39.20302 A 2.2532,2.2532 0 0 1 9.14168,41.45354 H 4.10388 A 2.2532,2.2532 0 0 1 1.85337,39.20302 v -20.3309 h 9.53883 z m 49.3611,4.52146 A 4.95155,4.95155 0 0 1 57.28859,42.90562 L 43.39507,24.02472 a 0.92673116,0.92673116 0 1 0 -1.49293,1.0984 l 13.79371,18.74525 c -0.392,2.58561 -1.20767,4.17809 -2.37074,4.61027 -1.52732,0.56961 -3.63266,-0.84562 -4.39593,-1.503 L 35.20489,28.48981 a 0.9266947,0.9266947 0 1 0 -1.48828,1.10457 L 47.2748,47.85641 c -0.21,1.2676 -0.90917,3.7567 -2.39971,4.34758 -1.27289,0.504 -2.93441,-0.541 -4.13225,-1.53889 L 28.09601,33.54881 a 0.92670445,0.92670445 0 0 0 -1.4906,1.10147 l 12.45915,16.86231 c -0.46088,1.815 -1.23043,2.9262 -2.291,3.30416 -1.7864,0.63631 -4.2691,-0.84938 -5.16062,-1.53611 L 14.96241,34.02896 a 0.92677,0.92677 0 0 0 -0.701,-0.32036 H 13.24556 V 6.96486 l 21.85,-0.45145 c -4.05372,4.19619 -9.54219,9.86436 -11.90208,12.301 a 3.01235,3.01235 0 0 0 -0.21176,3.93013 c 1.6204,2.07961 5.3261,5.07995 11.93621,1.80838 a 0.92971,0.92971 0 0 0 0.19625,-0.13058 l 7.94842,-6.8953 c 0.45119,-0.28442 3.1741,-1.73572 6.071,2.58406 l 12.62085,18.81966 a 3.5814,3.5814 0 0 1 0.2552,3.66251 2.09572,2.09572 0 0 1 -1.25635,1.13121 z m 3.26828,-1.1802 a 5.48736,5.48736 0 0 0 -0.72766,-4.6457 L 50.67304,19.07896 c -1.4438,-2.15278 -3.10221,-3.41818 -4.92946,-3.761 a 5.27474,5.27474 0 0 0 -3.77163,0.70846 0.9464,0.9464 0 0 0 -0.077,0.06 l -7.90447,6.85729 c -5.09391,2.47624 -8.00169,0.64459 -9.54685,-1.33831 a 1.151,1.151 0 0 1 0.08093,-1.50146 c 2.681,-2.7679 9.39869,-9.70587 13.4656,-13.91989 l 0.4199,-0.43516 a 8.68026,8.68026 0 0 1 6.21529,-2.63862 h 11.87463 a 12.23869,12.23869 0 0 1 6.93408,2.14347 l 8.61784,5.89128 v 30.41524 z m 17.39282,3.79425 h -5.47943 a 1.94016,1.94016 0 0 1 -2.0297,-1.83061 V 25.9073 h 9.53883 v 18.60062 a 1.94016,1.94016 0 0 1 -2.0297,1.83061 z"
     id="path4"
     style="fill:#b4b4b4" />
  <path
     d="m 78.67469,15.05187 a 3.77292,3.77292 0 1 0 -3.77289,-3.77292 3.77721,3.77721 0 0 0 3.77289,3.77292 z m 0,-5.69248 a 1.91956,1.91956 0 1 1 -1.91956,1.91956 1.9216,1.9216 0 0 1 1.91956,-1.91956 z"
     id="path6"
     style="fill:#b4b4b4" />
  <metadata
     id="metadata18">
    <rdf:RDF>
      <cc:Work
         rdf:about="">
        <dc:title>Noun_Project_50Icon_1px_grid</dc:title>
      </cc:Work>
    </rdf:RDF>
  </metadata>
</svg>
