<?xml version="1.0" encoding="UTF-8" standalone="no"?>
<svg
   version="1.1"
   x="0px"
   y="0px"
   viewBox="0 0 23.68087 23.687084"
   enable-background="new 0 0 24 24"
   xml:space="preserve"
   id="svg8"
   sodipodi:docname="deslunado.svg"
   width="23.68087"
   height="23.687084"
   inkscape:version="1.1.2 (0a00cf5339, 2022-02-04)"
   xmlns:inkscape="http://www.inkscape.org/namespaces/inkscape"
   xmlns:sodipodi="http://sodipodi.sourceforge.net/DTD/sodipodi-0.dtd"
   xmlns="http://www.w3.org/2000/svg"
   xmlns:svg="http://www.w3.org/2000/svg"><defs
     id="defs12" /><sodipodi:namedview
     id="namedview10"
     pagecolor="#ffffff"
     bordercolor="#666666"
     borderopacity="1.0"
     inkscape:pageshadow="2"
     inkscape:pageopacity="0.0"
     inkscape:pagecheckerboard="0"
     showgrid="false"
     fit-margin-top="0"
     fit-margin-left="0"
     fit-margin-right="0"
     fit-margin-bottom="0"
     inkscape:zoom="25.366667"
     inkscape:cx="11.826544"
     inkscape:cy="14.842313"
     inkscape:window-width="1850"
     inkscape:window-height="1025"
     inkscape:window-x="1990"
     inkscape:window-y="27"
     inkscape:window-maximized="1"
     inkscape:current-layer="svg8" /><path
     d="m 12.34325,23.687085 c -3.299,0 -6.4,-1.284 -8.732,-3.617 -4.815,-4.815 -4.815,-12.6490004 0,-17.4640004 1.076,-1.076 2.342,-1.93799997 3.761,-2.56199997 0.192,-0.086 0.419,-0.04399999997 0.57,0.107 0.149,0.15 0.193,0.376 0.107,0.57 -1.896,4.30999997 -0.974,9.24099997 2.348,12.56300037 2.133,2.133 4.97,3.308 7.989,3.308 1.588,0 3.126,-0.322 4.574,-0.959 0.192,-0.085 0.419,-0.043 0.57,0.107 0.149,0.15 0.193,0.376 0.107,0.57 -0.625,1.421 -1.487,2.686 -2.563,3.761 -2.332,2.331 -5.433,3.616 -8.731,3.616 z M 6.63225,1.5690846 c -0.842,0.489 -1.611,1.079 -2.295,1.763 -4.414,4.414 -4.414,11.5970004 0,16.0110004 2.138,2.138 4.982,3.316 8.006,3.316 3.023,0 5.867,-1.178 8.005,-3.316 0.684,-0.684 1.275,-1.453 1.763,-2.296 -1.201,0.379 -2.448,0.571 -3.725,0.571 -3.293,0 -6.388,-1.281 -8.715,-3.609 -3.303,-3.303 -4.432,-8.0640004 -3.039,-12.4400004 z"
     id="path2"
     style="fill:#4a4a4a" /><text
     x="-0.15975"
     y="38.843086"
     fill="#000000"
     font-size="5px"
     font-weight="bold"
     font-family="'Helvetica Neue', Helvetica, Arial-Unicode, Arial, Sans-serif"
     id="text4">Created by Atif Arshad</text><text
     x="-0.15975"
     y="43.843086"
     fill="#000000"
     font-size="5px"
     font-weight="bold"
     font-family="'Helvetica Neue', Helvetica, Arial-Unicode, Arial, Sans-serif"
     id="text6">from the Noun Project</text><g
     id="g9"
     transform="matrix(0.14311701,0,0,0.14489976,9.5465185,-0.25955038)"
     style="fill:#4a4a4a"><g
       id="use7"
       style="fill:#4a4a4a"><path
         fill="#000000"
         stroke="none"
         d="M 84.25,24.25 Q 86.003711,22.489062 86,20 86.003711,17.510937 84.25,15.75 82.489063,13.996289 80,14 77.510937,13.9963 75.75,15.75 L 50,41.5 24.25,15.75 Q 22.489062,13.996289 20,14 17.510937,13.996289 15.75,15.75 13.996289,17.510937 14,20 q -0.0037,2.489062 1.75,4.25 L 41.5,50 15.75,75.75 Q 13.996289,77.510937 14,80 q -0.0037,2.489063 1.75,4.25 1.760937,1.753711 4.25,1.75 2.489062,0.0037 4.25,-1.75 L 50,58.5 75.75,84.25 Q 77.510937,86.003711 80,86 82.489063,86.0037 84.25,84.25 86.003711,82.489063 86,80 86.0037,77.510937 84.25,75.75 L 58.5,50 Z"
         id="path46"
         style="fill:#4a4a4a" /></g></g></svg>
