<?xml version="1.0" encoding="UTF-8" standalone="no"?>
<svg
   version="1.1"
   x="0px"
   y="0px"
   viewBox="0 0 84.990059 33.419998"
   xml:space="preserve"
   id="svg22"
   sodipodi:docname="noun-distance-line_ok.svg"
   width="84.990059"
   height="33.419998"
   inkscape:version="1.1.2 (0a00cf5339, 2022-02-04)"
   xmlns:inkscape="http://www.inkscape.org/namespaces/inkscape"
   xmlns:sodipodi="http://sodipodi.sourceforge.net/DTD/sodipodi-0.dtd"
   xmlns="http://www.w3.org/2000/svg"
   xmlns:svg="http://www.w3.org/2000/svg"><defs
     id="defs26" /><sodipodi:namedview
     id="namedview24"
     pagecolor="#ffffff"
     bordercolor="#666666"
     borderopacity="1.0"
     inkscape:pageshadow="2"
     inkscape:pageopacity="0.0"
     inkscape:pagecheckerboard="0"
     showgrid="false"
     units="px"
     fit-margin-top="0"
     fit-margin-left="0"
     fit-margin-right="0"
     fit-margin-bottom="0"
     inkscape:zoom="6.088"
     inkscape:cx="31.044678"
     inkscape:cy="30.798292"
     inkscape:window-width="1850"
     inkscape:window-height="1025"
     inkscape:window-x="1990"
     inkscape:window-y="27"
     inkscape:window-maximized="1"
     inkscape:current-layer="svg22" /><path
     d="m 11.23,33.42 c 0.33,0 0.64,-0.17 0.82,-0.44 C 12.08,32.94 14.66,29 17.2,24.43 20.68,18.18 22.44,13.74 22.44,11.22 22.44,5.0399996 17.41,0 11.22,0 5.0299999,0 0,5.0299996 0,11.22 c 0,2.51 1.76,6.96 5.2399999,13.21 2.55,4.58 5.1300001,8.51 5.1500001,8.55 0.2,0.27 0.51,0.44 0.84,0.44 z M 5.2899999,11.22 c 0,-3.2800004 2.67,-5.9400004 5.9400001,-5.9400004 3.28,0 5.94,2.67 5.94,5.9400004 0,3.27 -2.67,5.94 -5.94,5.94 -3.2800001,0 -5.9400001,-2.67 -5.9400001,-5.94 z"
     id="path2" /><path
     d="M 73.79,0 C 67.6,0 62.57,5.0299996 62.57,11.22 c 0,2.51 1.76,6.96 5.24,13.21 2.55,4.58 5.13,8.51 5.15,8.55 0.18,0.28 0.49,0.44 0.82,0.44 0.33,0 0.64,-0.17 0.82,-0.44 0.03,-0.04 2.61,-3.98 5.15,-8.55 3.48,-6.25 5.24,-10.69 5.24,-13.21 C 85.01,5.0299996 79.98,0 73.79,0 Z m 0,17.16 c -3.28,0 -5.94,-2.67 -5.94,-5.94 0,-3.2700004 2.67,-5.9400004 5.94,-5.9400004 3.28,0 5.94,2.67 5.94,5.9400004 0,3.27 -2.66,5.94 -5.94,5.94 z"
     id="path4" /><path
     d="m 20.95,33.42 c 0.85,0 1.53,-0.69 1.53,-1.53 0,-0.84 -0.69,-1.53 -1.53,-1.53 h -3.52 c -0.85,0 -1.53,0.69 -1.53,1.53 0,0.84 0.69,1.53 1.53,1.53 z"
     id="path6" /><path
     d="m 30.28,30.35 h -3.52 c -0.85,0 -1.53,0.69 -1.53,1.53 0,0.84 0.69,1.53 1.53,1.53 h 3.52 c 0.85,0 1.53,-0.69 1.53,-1.53 0,-0.84 -0.69,-1.53 -1.53,-1.53 z"
     id="path8" /><path
     d="m 39.61,30.35 h -3.52 c -0.85,0 -1.53,0.69 -1.53,1.53 0,0.84 0.69,1.53 1.53,1.53 h 3.52 c 0.85,0 1.53,-0.69 1.53,-1.53 0,-0.84 -0.69,-1.53 -1.53,-1.53 z"
     id="path10" /><path
     d="m 43.88,31.89 c 0,0.85 0.69,1.53 1.53,1.53 h 3.52 c 0.85,0 1.53,-0.69 1.53,-1.53 0,-0.84 -0.69,-1.53 -1.53,-1.53 h -3.52 c -0.84,-0.01 -1.53,0.68 -1.53,1.53 z"
     id="path12" /><path
     d="m 58.27,33.42 c 0.85,0 1.53,-0.69 1.53,-1.53 0,-0.84 -0.69,-1.53 -1.53,-1.53 h -3.52 c -0.85,0 -1.53,0.69 -1.53,1.53 0,0.84 0.69,1.53 1.53,1.53 z"
     id="path14" /><path
     d="m 67.6,33.42 c 0.85,0 1.53,-0.69 1.53,-1.53 0,-0.84 -0.69,-1.53 -1.53,-1.53 h -3.52 c -0.85,0 -1.53,0.69 -1.53,1.53 0,0.84 0.69,1.53 1.53,1.53 z"
     id="path16" /></svg>
