<?xml version="1.0" encoding="UTF-8" standalone="no"?>
<svg
   version="1.1"
   x="0px"
   y="0px"
   viewBox="0 0 89.599998 89.599998"
   xml:space="preserve"
   id="svg36"
   sodipodi:docname="document.svg"
   width="89.599998"
   height="89.599998"
   inkscape:version="1.1.2 (0a00cf5339, 2022-02-04)"
   xmlns:inkscape="http://www.inkscape.org/namespaces/inkscape"
   xmlns:sodipodi="http://sodipodi.sourceforge.net/DTD/sodipodi-0.dtd"
   xmlns="http://www.w3.org/2000/svg"
   xmlns:svg="http://www.w3.org/2000/svg"><defs
     id="defs40" /><sodipodi:namedview
     id="namedview38"
     pagecolor="#ffffff"
     bordercolor="#666666"
     borderopacity="1.0"
     inkscape:pageshadow="2"
     inkscape:pageopacity="0.0"
     inkscape:pagecheckerboard="0"
     showgrid="false"
     fit-margin-top="0"
     fit-margin-left="0"
     fit-margin-right="0"
     fit-margin-bottom="0"
     inkscape:zoom="6.088"
     inkscape:cx="44.678055"
     inkscape:cy="57.243758"
     inkscape:window-width="1850"
     inkscape:window-height="1025"
     inkscape:window-x="1990"
     inkscape:window-y="27"
     inkscape:window-maximized="1"
     inkscape:current-layer="svg36" /><style
     type="text/css"
     id="style2">
	.st0{fill:none;}
	.st1{fill:#363F40;}
</style><g
     id="g30"
     transform="translate(-5.2,-5.2)"
     style="fill:#5e5e5e"><path
       d="m 20.6,8 h 47.6 v 11.2 h 11.2 v 33.6 h 2.8 V 17.2 l -12,-12 H 17.8 v 47.6 h 2.8 z M 71,9.9 77.4,16.3 H 71 Z"
       id="path4"
       style="fill:#5e5e5e" /><polygon
       points="20.6,69.6 17.8,69.6 17.8,94.8 82.2,94.8 82.2,75.2 79.4,75.2 79.4,92 20.6,92 "
       id="polygon6"
       style="fill:#5e5e5e" /><path
       d="M 86.4,55.6 H 85 19.2 13.6 c -0.3,0 -0.5,0.1 -0.7,0.2 l -7,4.2 c -0.4,0.3 -0.7,0.7 -0.7,1.2 0,0.5 0.3,0.9 0.7,1.2 l 7,4.2 c 0.2,0.1 0.5,0.2 0.7,0.2 h 5.6 60.2 v 2.8 H 59.8 v 2.8 h 22.4 v -5.6 h 2.8 1.4 8.4 V 55.6 Z M 17.8,64 H 14 L 9.3,61.2 14,58.4 h 3.8 z M 34.6,58.4 V 64 h -14 V 58.4 Z M 37.4,64 V 58.4 H 85 V 64 Z M 92,64 H 87.8 V 58.4 H 92 Z"
       id="path8"
       style="fill:#5e5e5e" /><path
       d="m 35.6,79 c 0.7,-0.7 1,-1 1.8,-1 0.8,0 1.1,0.3 1.8,1 0.8,0.8 1.8,1.8 3.8,1.8 2,0 3,-1 3.8,-1.8 0.7,-0.7 1,-1 1.8,-1 0.8,0 1.1,0.3 1.8,1 0.8,0.8 1.8,1.8 3.8,1.8 V 78 c -0.8,0 -1.1,-0.3 -1.8,-1 -0.8,-0.8 -1.8,-1.8 -3.8,-1.8 -2,0 -3,1 -3.8,1.8 -0.7,0.7 -1,1 -1.8,1 -0.8,0 -1.1,-0.3 -1.8,-1 -0.8,-0.8 -1.8,-1.8 -3.8,-1.8 -2,0 -3,1 -3.8,1.8 -0.7,0.7 -1,1 -1.8,1 C 31,78 30.7,77.7 30,77 29.2,76.2 28.2,75.2 26.2,75.2 V 78 c 0.8,0 1.1,0.3 1.8,1 0.8,0.8 1.8,1.8 3.8,1.8 2,0 3,-1 3.8,-1.8 z"
       id="path10"
       style="fill:#5e5e5e" /><rect
       x="26.200001"
       y="16.4"
       width="2.8"
       height="2.8"
       id="rect12"
       style="fill:#5e5e5e" /><rect
       x="31.799999"
       y="16.4"
       width="2.8"
       height="2.8"
       id="rect14"
       style="fill:#5e5e5e" /><rect
       x="37.400002"
       y="16.4"
       width="2.8"
       height="2.8"
       id="rect16"
       style="fill:#5e5e5e" /><rect
       x="26.200001"
       y="24.799999"
       width="47.599998"
       height="2.8"
       id="rect18"
       style="fill:#5e5e5e" /><rect
       x="26.200001"
       y="30.4"
       width="47.599998"
       height="2.8"
       id="rect20"
       style="fill:#5e5e5e" /><rect
       x="26.200001"
       y="36"
       width="47.599998"
       height="2.8"
       id="rect22"
       style="fill:#5e5e5e" /><rect
       x="26.200001"
       y="41.599998"
       width="47.599998"
       height="2.8"
       id="rect24"
       style="fill:#5e5e5e" /><rect
       x="26.200001"
       y="47.200001"
       width="22.4"
       height="2.8"
       id="rect26"
       style="fill:#5e5e5e" /><rect
       x="26.200001"
       y="83.599998"
       width="28"
       height="2.8"
       id="rect28"
       style="fill:#5e5e5e" /></g></svg>
