<?xml version="1.0" encoding="UTF-8" standalone="no"?>
<svg
   version="1.1"
   viewBox="-5 -10 77.785149 61.109375"
   id="svg1693"
   sodipodi:docname="double-wind.svg"
   width="77.785149"
   height="61.109375"
   inkscape:version="1.2.2 (b0a8486541, 2022-12-01)"
   xmlns:inkscape="http://www.inkscape.org/namespaces/inkscape"
   xmlns:sodipodi="http://sodipodi.sourceforge.net/DTD/sodipodi-0.dtd"
   xmlns="http://www.w3.org/2000/svg"
   xmlns:svg="http://www.w3.org/2000/svg">
  <defs
     id="defs1697" />
  <sodipodi:namedview
     id="namedview1695"
     pagecolor="#ffffff"
     bordercolor="#000000"
     borderopacity="0.25"
     inkscape:showpageshadow="2"
     inkscape:pageopacity="0.0"
     inkscape:pagecheckerboard="0"
     inkscape:deskcolor="#d1d1d1"
     showgrid="false"
     inkscape:zoom="6.4222222"
     inkscape:cx="45.856401"
     inkscape:cy="20.16436"
     inkscape:window-width="1920"
     inkscape:window-height="1044"
     inkscape:window-x="3840"
     inkscape:window-y="0"
     inkscape:window-maximized="1"
     inkscape:current-layer="svg1693" />
  <path
     id="path1687"
     d="M -0.83203125,-10 C -3.1366869,-10 -5,-8.1405893 -5,-5.8320312 V 33.058594 c 0,2.304643 1.8594131,4.167968 4.16796875,4.167968 H 54.722656 c 2.304656,0 4.167969,-1.859425 4.167969,-4.167968 v -0.0039 -38.8867192 C 58.890625,-8.1367973 57.031212,-10 54.722656,-10 Z m 0.003906,2.7734375 -0.003906,0.00391 H 54.722656 c 0.777321,0 1.390625,0.6094201 1.390625,1.390625 v 6.9453124 h -0.314453 c 0.08922,0.7333878 0.150874,1.4711475 0.212891,2.2070313 0.02778,0.3775105 0.03521,0.4619813 0.04297,0.5664063 h 0.05859 v 0.984375 c 0.0059,0.1604807 0.006,0.3153959 0,0.4648437 V 33.054688 c 0,0.777321 -0.609423,1.390625 -1.390625,1.390624 H -0.83203125 c -0.77732485,0 -1.39062495,-0.609413 -1.39062495,-1.390624 h 0.00391 V 3.8867188 h 0.2265625 C -2.1192115,3.4540908 -2.1914063,2.9492863 -2.1914062,2.3730469 V 2.0703125 1.109375 H -2.21875 v -6.9453125 c 0,-0.7773236 0.6094226,-1.390626 1.390625,-1.390625 z M 48.615234,2.9980469 c 0.06194,0.3266842 0.170752,0.4065894 0,0 z m 17.22461,0.8808593 c -0.781201,0 -1.390625,0.6133014 -1.390625,1.390625 0,0.7812049 0.613305,1.390625 1.390625,1.390625 h 2.777344 c 0.781202,0 1.390624,0.6133014 1.390624,1.390625 V 46.941406 c 0,0.781201 -0.613303,1.390625 -1.390624,1.390625 H 13.0625 c -0.781211,0 -1.390626,-0.613304 -1.390625,-1.390625 v -2.777344 c 0,-0.781211 -0.613298,-1.390625 -1.390625,-1.390624 -0.7812141,0 -1.390626,0.613303 -1.390625,1.390624 v 2.777344 c 0,2.308562 1.863313,4.167969 4.167969,4.167969 h 55.554687 l 0.0039,-0.0039 c 2.308549,0 4.167968,-1.863307 4.167968,-4.167969 V 8.046875 c 0,-2.3085581 -1.863319,-4.1679687 -4.167968,-4.1679688 z"
     style="fill:#6a6a6a" />
</svg>
