<?xml version="1.0" encoding="UTF-8" standalone="no"?>
<svg
   version="1.1"
   x="0px"
   y="0px"
   viewBox="0 0 76.052574 76.014"
   id="svg10"
   sodipodi:docname="noun-eco-house-10672664.svg"
   width="76.052574"
   height="76.014"
   inkscape:version="1.1.2 (0a00cf5339, 2022-02-04)"
   xmlns:inkscape="http://www.inkscape.org/namespaces/inkscape"
   xmlns:sodipodi="http://sodipodi.sourceforge.net/DTD/sodipodi-0.dtd"
   xmlns="http://www.w3.org/2000/svg"
   xmlns:svg="http://www.w3.org/2000/svg">
  <defs
     id="defs14">
    <filter
       style="color-interpolation-filters:sRGB;"
       inkscape:label="Colorize"
       id="filter190"
       x="0"
       y="0"
       width="1"
       height="1">
      <feComposite
         in2="SourceGraphic"
         operator="arithmetic"
         k1="0"
         k2="1"
         result="composite1"
         id="feComposite176" />
      <feColorMatrix
         in="composite1"
         values="1"
         type="saturate"
         result="colormatrix1"
         id="feColorMatrix178" />
      <feFlood
         flood-opacity="1"
         flood-color="rgb(102,102,102)"
         result="flood1"
         id="feFlood180" />
      <feBlend
         in="flood1"
         in2="colormatrix1"
         mode="screen"
         result="blend1"
         id="feBlend182" />
      <feBlend
         in2="blend1"
         mode="multiply"
         result="blend2"
         id="feBlend184" />
      <feColorMatrix
         in="blend2"
         values="1"
         type="saturate"
         result="colormatrix2"
         id="feColorMatrix186" />
      <feComposite
         in="colormatrix2"
         in2="SourceGraphic"
         operator="in"
         k2="1"
         result="fbSourceGraphic"
         id="feComposite188" />
      <feColorMatrix
         result="fbSourceGraphicAlpha"
         in="fbSourceGraphic"
         values="0 0 0 -1 0 0 0 0 -1 0 0 0 0 -1 0 0 0 0 1 0"
         id="feColorMatrix210" />
      <feComposite
         in2="fbSourceGraphic"
         id="feComposite212"
         operator="arithmetic"
         k1="0"
         k2="1"
         result="composite1"
         in="fbSourceGraphic" />
      <feColorMatrix
         id="feColorMatrix214"
         in="composite1"
         values="1"
         type="saturate"
         result="colormatrix1" />
      <feFlood
         id="feFlood216"
         flood-opacity="1"
         flood-color="rgb(102,102,102)"
         result="flood1" />
      <feBlend
         in2="colormatrix1"
         id="feBlend218"
         in="flood1"
         mode="screen"
         result="blend1" />
      <feBlend
         in2="blend1"
         id="feBlend220"
         mode="multiply"
         result="blend2" />
      <feColorMatrix
         id="feColorMatrix222"
         in="blend2"
         values="1"
         type="saturate"
         result="colormatrix2" />
      <feComposite
         in2="fbSourceGraphic"
         id="feComposite224"
         in="colormatrix2"
         operator="in"
         k2="1"
         result="composite2" />
    </filter>
  </defs>
  <sodipodi:namedview
     id="namedview12"
     pagecolor="#ffffff"
     bordercolor="#666666"
     borderopacity="1.0"
     inkscape:pageshadow="2"
     inkscape:pageopacity="0.0"
     inkscape:pagecheckerboard="0"
     showgrid="false"
     fit-margin-top="0"
     fit-margin-left="0"
     fit-margin-right="0"
     fit-margin-bottom="0"
     inkscape:zoom="6.088"
     inkscape:cx="37.943495"
     inkscape:cy="50.509198"
     inkscape:window-width="1850"
     inkscape:window-height="1025"
     inkscape:window-x="1990"
     inkscape:window-y="27"
     inkscape:window-maximized="1"
     inkscape:current-layer="svg10" />
  <g
     transform="translate(-11.973714,-964.34818)"
     id="g4"
     style="filter:url(#filter190);fill:#5b5b5b">
    <path
       style="color:#000000;font-style:normal;font-variant:normal;font-weight:normal;font-stretch:normal;font-size:medium;line-height:normal;font-family:Sans;-inkscape-font-specification:Sans;text-indent:0;text-align:start;text-decoration:none;text-decoration-line:none;letter-spacing:normal;word-spacing:normal;text-transform:none;writing-mode:lr-tb;direction:ltr;baseline-shift:baseline;text-anchor:start;display:inline;overflow:visible;visibility:visible;opacity:1;fill:#5b5b5b;fill-opacity:1;stroke:none;stroke-width:2;marker:none;enable-background:accumulate"
       d="m 49.84375,12 a 1.0001,1.0001 0 0 0 -0.53125,0.25 l -37,34 A 1.0001,1.0001 0 0 0 13,48 h 9 v 35 c 0,2.7527 2.247298,5 5,5 h 46 c 2.752702,0 5,-2.2473 5,-5 V 48 h 9 a 1.0001,1.0001 0 0 0 0.6875,-1.75 l -37,-34 A 1.0001,1.0001 0 0 0 49.84375,12 Z M 50,14.375 84.40625,46 H 77 a 1.0001,1.0001 0 0 0 -1,1 v 36 c 0,1.6793 -1.320704,3 -3,3 H 37.0625 c 0.26627,-2.616767 1.192275,-4.479159 2.5625,-6.0625 0.650701,-0.751907 1.422083,-1.431403 2.25,-2.09375 C 44.21972,79.3028 47.29936,80 51,80 55.223545,80 58.790091,77.8581 61.21875,74.6875 63.647409,71.5169 65,67.3188 65,63 65,56.6994 63.190897,49.0403 58.71875,44.3125 A 1.0001,1.0001 0 0 0 57.8125,44 a 1.0001,1.0001 0 0 0 -0.75,0.65625 C 55.72933,48.6558 50.941378,51.7849 46.28125,55.125 43.951186,56.795 41.679021,58.52975 39.9375,60.59375 38.195979,62.65765 37,65.1095 37,68 c 0,3.627937 1.099951,6.559028 3.25,8.59375 -0.756842,0.628172 -1.477548,1.283118 -2.125,2.03125 -1.626742,1.879703 -2.780373,4.262892 -3.0625,7.375 H 27 c -1.679296,0 -3,-1.3207 -3,-3 V 47 a 1.0001,1.0001 0 0 0 -1,-1 h -7.40625 z m 8.09375,32.5 C 61.363207,51.1064 63,57.5791 63,63 63,66.8951 61.751368,70.69275 59.625,73.46875 57.498632,76.24465 54.556347,78 51,78 c -3.049065,0 -5.513431,-0.496522 -7.375,-1.4375 0.558064,-0.392321 1.127155,-0.820449 1.71875,-1.21875 4.420832,-2.9766 9.584303,-6.44115 11.625,-14.09375 a 1.0001,1.0001 0 0 0 -1.03125,-1.28125 1.0001,1.0001 0 0 0 -0.90625,0.75 C 53.164122,67.72045 48.675742,70.7076 44.25,73.6875 43.438568,74.233865 42.627272,74.77805 41.84375,75.34375 39.982408,73.718045 39,71.371069 39,68 c 0,-2.3498 0.929021,-4.3002 2.46875,-6.125 1.539729,-1.8248 3.705064,-3.4801 6,-5.125 4.067506,-2.9153 8.47659,-5.7938 10.625,-9.875 z"
       transform="translate(0,952.36218)"
       id="path2" />
  </g>
</svg>
