<?xml version="1.0" encoding="UTF-8" standalone="no"?>
<svg
   version="1.1"
   x="0px"
   y="0px"
   viewBox="0 0 34 44"
   xml:space="preserve"
   id="svg686"
   sodipodi:docname="elevator-form.svg"
   width="34"
   height="44"
   inkscape:version="1.2.2 (b0a8486541, 2022-12-01)"
   xmlns:inkscape="http://www.inkscape.org/namespaces/inkscape"
   xmlns:sodipodi="http://sodipodi.sourceforge.net/DTD/sodipodi-0.dtd"
   xmlns="http://www.w3.org/2000/svg"
   xmlns:svg="http://www.w3.org/2000/svg"><defs
     id="defs690" /><sodipodi:namedview
     id="namedview688"
     pagecolor="#ffffff"
     bordercolor="#000000"
     borderopacity="0.25"
     inkscape:showpageshadow="2"
     inkscape:pageopacity="0.0"
     inkscape:pagecheckerboard="0"
     inkscape:deskcolor="#d1d1d1"
     showgrid="false"
     inkscape:zoom="11.56"
     inkscape:cx="16.99827"
     inkscape:cy="13.797578"
     inkscape:window-width="1920"
     inkscape:window-height="1044"
     inkscape:window-x="3840"
     inkscape:window-y="0"
     inkscape:window-maximized="1"
     inkscape:current-layer="svg686" /><path
     d="M 1,0 C 0.45,0 0,0.45 0,1 v 42 c 0,0.55 0.45,1 1,1 h 32 c 0.55,0 1,-0.45 1,-1 V 1 C 34,0.45 33.55,0 33,0 Z M 16,42 H 2 V 2 h 14 z m 16,0 H 18 V 2 h 14 z"
     id="path676"
     style="fill:#6a6a6a" /><path
     d="m 8.29,28.21 c 0.09,0.09 0.2,0.17 0.33,0.22 0.12,0.05 0.25,0.08 0.38,0.08 0.13,0 0.26,-0.03 0.38,-0.08 0.12,-0.05 0.23,-0.12 0.33,-0.22 l 4,-4 c 0.39,-0.39 0.39,-1.02 0,-1.41 -0.39,-0.39 -1.02,-0.39 -1.41,0 L 10,25.09 V 16.5 c 0,-0.55 -0.45,-1 -1,-1 -0.55,0 -1,0.45 -1,1 v 8.59 L 5.71,22.8 c -0.39,-0.39 -1.02,-0.39 -1.41,0 -0.39,0.39 -0.39,1.02 0,1.41 z"
     id="path678"
     style="fill:#6a6a6a" /><path
     d="M 21.71,21.21 24,18.91 v 8.59 c 0,0.55 0.45,1 1,1 0.55,0 1,-0.45 1,-1 v -8.59 l 2.29,2.29 c 0.2,0.2 0.45,0.29 0.71,0.29 0.26,0 0.51,-0.1 0.71,-0.29 0.39,-0.39 0.39,-1.02 0,-1.41 l -4,-4 c -0.09,-0.09 -0.2,-0.17 -0.33,-0.22 -0.24,-0.1 -0.52,-0.1 -0.76,0 -0.12,0.05 -0.23,0.12 -0.33,0.22 l -4,4 c -0.39,0.39 -0.39,1.02 0,1.41 0.39,0.39 1.03,0.4 1.42,0.01 z"
     id="path680"
     style="fill:#6a6a6a" /></svg>
