<?xml version="1.0" encoding="UTF-8" standalone="no"?>
<svg
   data-name="Layer 3"
   viewBox="0 0 32.9925 34"
   x="0px"
   y="0px"
   version="1.1"
   id="svg8"
   sodipodi:docname="elevator.svg"
   width="32.9925"
   height="34"
   inkscape:version="1.1.2 (0a00cf5339, 2022-02-04)"
   xmlns:inkscape="http://www.inkscape.org/namespaces/inkscape"
   xmlns:sodipodi="http://sodipodi.sourceforge.net/DTD/sodipodi-0.dtd"
   xmlns="http://www.w3.org/2000/svg"
   xmlns:svg="http://www.w3.org/2000/svg">
  <defs
     id="defs12" />
  <sodipodi:namedview
     id="namedview10"
     pagecolor="#ffffff"
     bordercolor="#666666"
     borderopacity="1.0"
     inkscape:pageshadow="2"
     inkscape:pageopacity="0.0"
     inkscape:pagecheckerboard="0"
     showgrid="false"
     fit-margin-top="0"
     fit-margin-left="0"
     fit-margin-right="0"
     fit-margin-bottom="0"
     inkscape:zoom="16.911111"
     inkscape:cx="16.498029"
     inkscape:cy="16.764126"
     inkscape:window-width="1850"
     inkscape:window-height="1025"
     inkscape:window-x="1990"
     inkscape:window-y="27"
     inkscape:window-maximized="1"
     inkscape:current-layer="svg8" />
  <path
     d="m 27,20 c -0.55,0 -1,0.45 -1,1 V 32 H 23 V 11 c 0,-0.55 -0.45,-1 -1,-1 H 6 C 5.45,10 5,10.45 5,11 V 32 H 2 V 2 h 24 v 5 c 0,0.55 0.45,1 1,1 0.55,0 1,-0.45 1,-1 V 1 C 28,0.45 27.55,0 27,0 H 1 C 0.45,0 0,0.45 0,1 v 32 c 0,0.55 0.45,1 1,1 h 26 c 0.55,0 1,-0.45 1,-1 V 21 c 0,-0.55 -0.45,-1 -1,-1 z M 7,12 h 6 V 32 H 7 Z m 8,20 V 12 h 6 V 32 Z M 19,5 c 0.55,0 1,0.45 1,1 0,0.55 -0.45,1 -1,1 H 9 C 8.45,7 8,6.55 8,6 8,5.45 8.45,5 9,5 Z m 6.29,6.29 3,-3 c 0.39,-0.39 1.02,-0.39 1.41,0 l 3,3 c 0.39,0.39 0.39,1.02 0,1.41 -0.2,0.2 -0.45,0.29 -0.71,0.29 -0.26,0 -0.51,-0.1 -0.71,-0.29 L 28.99,10.41 26.7,12.7 c -0.39,0.39 -1.02,0.39 -1.41,0 -0.39,-0.39 -0.39,-1.02 0,-1.41 z m 7.41,4 c 0.39,0.39 0.39,1.02 0,1.41 l -3,3 c -0.2,0.2 -0.45,0.29 -0.71,0.29 -0.26,0 -0.51,-0.1 -0.71,-0.29 l -3,-3 c -0.39,-0.39 -0.39,-1.02 0,-1.41 0.39,-0.39 1.02,-0.39 1.41,0 l 2.29,2.29 2.29,-2.29 c 0.39,-0.39 1.02,-0.39 1.41,0 z"
     id="path2"
     style="fill:#444444" />
</svg>
