<?xml version="1.0" encoding="UTF-8" standalone="no"?>
<svg
   version="1.1"
   x="0px"
   y="0px"
   viewBox="0 0 80 84.000175"
   id="svg10"
   sodipodi:docname="elevator3.svg"
   width="80"
   height="84.000175"
   inkscape:version="1.1.2 (0a00cf5339, 2022-02-04)"
   xmlns:inkscape="http://www.inkscape.org/namespaces/inkscape"
   xmlns:sodipodi="http://sodipodi.sourceforge.net/DTD/sodipodi-0.dtd"
   xmlns="http://www.w3.org/2000/svg"
   xmlns:svg="http://www.w3.org/2000/svg">
  <defs
     id="defs14" />
  <sodipodi:namedview
     id="namedview12"
     pagecolor="#ffffff"
     bordercolor="#666666"
     borderopacity="1.0"
     inkscape:pageshadow="2"
     inkscape:pageopacity="0.0"
     inkscape:pagecheckerboard="0"
     showgrid="false"
     fit-margin-top="0"
     fit-margin-left="0"
     fit-margin-right="0"
     fit-margin-bottom="0"
     inkscape:zoom="6.088"
     inkscape:cx="39.914586"
     inkscape:cy="54.45138"
     inkscape:window-width="1850"
     inkscape:window-height="1025"
     inkscape:window-x="1990"
     inkscape:window-y="27"
     inkscape:window-maximized="1"
     inkscape:current-layer="svg10" />
  <g
     transform="translate(-10,-960.36201)"
     id="g4"
     style="fill:#5e5e5e">
    <path
       style="color:#000000;text-indent:0;text-transform:none;direction:ltr;baseline-shift:baseline;enable-background:accumulate;fill:#5e5e5e"
       d="M 29.8125,8 C 28.765159,8.0488842 27.856757,9.0464378 27.905851,10.093769 27.954944,11.1411 28.952679,12.049303 30,12 h 28 c 1.056623,0.01494 2.028477,-0.943272 2.028477,-2 0,-1.0567285 -0.971854,-2.0149395 -2.028477,-2 -9.390897,-7e-7 -18.810225,0 -28.1875,0 z M 14,18 c -2.181404,0 -4,1.8186 -4,4 v 66 c 0,2.1814 1.818596,4 4,4 h 60 c 2.181404,0 4,-1.8186 4,-4 V 22 c 0,-2.1814 -1.818596,-4 -4,-4 z m 0,4 H 42 V 88 H 14 Z m 32,0 H 74 V 88 H 46 Z m 40,26 -4,5 h 8 z m -4,9 4,5 4,-5 z"
       transform="translate(0,952.36218)"
       fill="#000000"
       fill-opacity="1"
       stroke="none"
       marker="none"
       visibility="visible"
       display="inline"
       overflow="visible"
       id="path2" />
  </g>
</svg>
