<?xml version="1.0" encoding="UTF-8" standalone="no"?>
<svg
   version="1.1"
   viewBox="-5 -10 79.007996 97.550499"
   id="svg8"
   sodipodi:docname="energy-cert.svg"
   width="79.007996"
   height="97.550499"
   inkscape:version="1.2.2 (b0a8486541, 2022-12-01)"
   xmlns:inkscape="http://www.inkscape.org/namespaces/inkscape"
   xmlns:sodipodi="http://sodipodi.sourceforge.net/DTD/sodipodi-0.dtd"
   xmlns="http://www.w3.org/2000/svg"
   xmlns:svg="http://www.w3.org/2000/svg">
  <defs
     id="defs12" />
  <sodipodi:namedview
     id="namedview10"
     pagecolor="#ffffff"
     bordercolor="#000000"
     borderopacity="0.25"
     inkscape:showpageshadow="2"
     inkscape:pageopacity="0.0"
     inkscape:pagecheckerboard="0"
     inkscape:deskcolor="#d1d1d1"
     showgrid="false"
     inkscape:zoom="6.6148148"
     inkscape:cx="39.532475"
     inkscape:cy="56.464166"
     inkscape:window-width="1920"
     inkscape:window-height="1044"
     inkscape:window-x="3840"
     inkscape:window-y="0"
     inkscape:window-maximized="1"
     inkscape:current-layer="svg8" />
  <path
     d="m 73.60126,11.48825 -21.078,-21.082 C 52.26154,-9.85156 51.90998,-10 51.5467,-10 h -39.496 c -3.3945,0.00391 -6.1484,2.7578 -6.1523,6.1523 v 2.9336 H 1.1523 C -2.2461,-0.9102 -4.9961,1.8398 -5,5.2343 v 76.16 c 0,3.3984 2.7539,6.1523 6.1523,6.1562 h 55.805 c 3.3945,-0.0039 6.1484,-2.7539 6.1523,-6.1523 v -2.9375 h 4.75 -0.0039 c 3.3984,-0.0039 6.1484,-2.7539 6.1523,-6.1484 v -59.848 c 0,-0.36719 -0.14453,-0.71875 -0.40625,-0.97656 z m -4.1367,-0.22656 -16.531,0.26172 -0.0039,-16.801 z m -9.1211,70.133 c 0,1.8711 -1.5156,3.3867 -3.3867,3.3867 h -55.805 c -1.8711,-0.0039 -3.3867,-1.5156 -3.3867,-3.3867 v -76.16 c 0,-1.8672 1.5156,-3.3828 3.3867,-3.3867 h 4.75 l -0.0039,70.465 c 0.0039,3.3945 2.7578,6.1445 6.1523,6.1484 h 48.293 z m 7.5117,-5.6953 h -55.805 c -1.8711,-0.0039 -3.3867,-1.5195 -3.3867,-3.3867 v -76.16 c 0,-1.8711 1.5156,-3.3867 3.3867,-3.3867 h 38.109 l 0.01172,20.16 c 0,0.36719 0.14453,0.71875 0.40234,0.97656 0.26172,0.26172 0.61328,0.40625 0.98047,0.40625 h 0.02344 l 19.668,-0.3125 -0.0039,58.316 c -0.0039,1.8672 -1.5156,3.3828 -3.3867,3.3867 z m -34.867,-64.16 c 0,-0.36719 0.14453,-0.71875 0.40625,-0.97656 0.25781,-0.25781 0.60938,-0.40625 0.97656,-0.40625 h 10.734 c 0.76563,0 1.3828,0.62109 1.3828,1.3828 0,0.76562 -0.61719,1.3828 -1.3828,1.3828 h -10.734 c -0.76563,0 -1.3828,-0.61719 -1.3828,-1.3828 z m 30.109,23.578 c 0,0.76172 -0.61719,1.3828 -1.3789,1.3828 h -28.141 c -0.76562,0 -1.3828,-0.62109 -1.3828,-1.3828 0,-0.76562 0.61719,-1.3828 1.3828,-1.3828 h 28.137 c 0.76562,0 1.3828,0.61719 1.3828,1.3828 z m -0.23828,25.59 c 0,0.36719 -0.14453,0.71875 -0.40234,0.97656 -0.26172,0.26172 -0.61328,0.40625 -0.98047,0.40625 h -28.137 c -0.76172,0 -1.3828,-0.62109 -1.3828,-1.3828 0,-0.76172 0.62109,-1.3828 1.3828,-1.3828 h 28.137 c 0.36719,0 0.71875,0.14453 0.98047,0.40625 0.25781,0.25781 0.40234,0.60938 0.40234,0.97656 z m -34.754,-30.582 -3.8828,0.0078 -1.1953,-3.6914 c -0.29688,-0.92578 -1.1562,-1.5508 -2.125,-1.5508 -0.97266,0 -1.8281,0.625 -2.1289,1.5508 l -1.1914,3.6914 -3.8828,-0.0078 h 0.0039 c -0.96875,0.0039 -1.8242,0.62891 -2.1211,1.5469 -0.29688,0.91797 0.03125,1.9258 0.8125,2.4922 l 3.1445,2.2773 -1.207,3.6875 c -0.30469,0.92188 0.02344,1.9336 0.80859,2.5039 0.78516,0.57031 1.8477,0.56641 2.6289,-0.0039 l 3.1367,-2.2891 3.1328,2.2891 c 0.78125,0.57031 1.8438,0.57422 2.6289,0.0039 0.78125,-0.57031 1.1094,-1.582 0.80859,-2.5039 l -1.207,-3.6875 3.1445,-2.2773 c 0.78516,-0.56641 1.1133,-1.5742 0.81641,-2.4961 -0.30078,-0.92188 -1.1562,-1.5469 -2.125,-1.5469 z m -3.7695,4.3047 c -0.78906,0.56641 -1.1211,1.5781 -0.81641,2.5039 l 0.81641,2.4922 -2.1172,-1.543 c -0.78516,-0.57422 -1.8516,-0.57422 -2.6328,0 l -2.1211,1.5469 0.81641,-2.4922 c 0.30469,-0.92187 -0.02344,-1.9375 -0.8125,-2.5039 l -2.125,-1.5391 2.625,0.0039 h -0.0039 c 0.96875,0.0039 1.832,-0.62109 2.125,-1.5469 l 0.80469,-2.4961 0.80859,2.4961 c 0.29688,0.92578 1.1602,1.5508 2.1328,1.543 l 2.625,-0.0039 z m 3.7695,20.293 -3.8828,0.0078 -1.1953,-3.6953 c -0.29688,-0.92188 -1.1562,-1.5469 -2.125,-1.5469 -0.97266,0 -1.8281,0.625 -2.1289,1.5469 l -1.1914,3.6914 -3.8828,-0.0078 0.0039,0.0039 c -0.96875,0 -1.8281,0.625 -2.125,1.5469 -0.29688,0.91797 0.03125,1.9297 0.81641,2.4961 l 3.1445,2.2773 -1.2148,3.6875 c -0.30078,0.92188 0.02344,1.9336 0.80859,2.5039 0.78516,0.56641 1.8477,0.56641 2.6328,-0.0078 l 3.1367,-2.2852 3.1367,2.2852 c 0.78125,0.57031 1.8438,0.57422 2.625,0.0039 0.78516,-0.57031 1.1133,-1.5781 0.8125,-2.5 l -1.207,-3.6914 3.1445,-2.2734 c 0.78516,-0.56641 1.1133,-1.5781 0.8125,-2.4961 -0.29688,-0.92188 -1.1523,-1.5469 -2.1211,-1.5469 z m -3.7695,4.3047 c -0.79297,0.56641 -1.1211,1.582 -0.81641,2.5039 l 0.81641,2.4922 -2.1211,-1.5469 0.0039,0.0039 c -0.78516,-0.57422 -1.8516,-0.57422 -2.6328,0 l -2.1211,1.5469 0.81641,-2.4961 c 0.30469,-0.92187 -0.02344,-1.9375 -0.8125,-2.5039 l -2.125,-1.5391 h 2.625 -0.0039 c 0.96875,0.0039 1.832,-0.62109 2.125,-1.543 l 0.80469,-2.4961 0.80859,2.4961 c 0.29297,0.92578 1.1602,1.5547 2.1328,1.5508 h 2.625 z m 4.1562,-53.504 h -0.0039 l -3.8828,0.0078 -1.1914,-3.6914 -0.0039,-0.0039 c -0.29688,-0.92188 -1.1562,-1.5469 -2.125,-1.5469 -0.9688,0 -1.8281,0.625 -2.125,1.5469 l -1.1914,3.6914 -3.8828,-0.0078 v 0.0039 c -0.96875,0 -1.8242,0.625 -2.125,1.5469 -0.29688,0.92188 0.03125,1.9297 0.81641,2.4961 l 3.1445,2.2773 -1.207,3.6875 c -0.30078,0.92188 0.02734,1.9297 0.8125,2.5 0.78516,0.57031 1.8438,0.57031 2.6289,-0.0039 l 3.125,-2.2852 3.1367,2.2891 c 0.78125,0.57031 1.8438,0.57031 2.6289,0 0.78516,-0.57031 1.1094,-1.5781 0.80859,-2.5 l -1.207,-3.6875 3.1445,-2.2773 h 0.0039 c 0.78125,-0.56641 1.1094,-1.5742 0.8125,-2.4961 -0.2969,-0.9219 -1.1562,-1.5469 -2.125,-1.5469 z m -3.7656,4.3047 c -0.78906,0.56641 -1.1211,1.582 -0.8125,2.5039 l 0.81641,2.4922 -2.1211,-1.5469 v 0.0039 c -0.78516,-0.57422 -1.8477,-0.57422 -2.6328,0 l -2.1211,1.5469 0.81641,-2.4961 c 0.30469,-0.92188 -0.02734,-1.9336 -0.8125,-2.5039 l -2.1328,-1.5352 2.625,0.0039 h -0.0039 c 0.97266,0 1.832,-0.625 2.1289,-1.5469 l 0.80469,-2.4961 0.80469,2.4961 c 0.29688,0.92188 1.1562,1.5469 2.125,1.5469 l 2.625,-0.0039 z"
     id="path2"
     style="fill:#6a6a6a" />
</svg>
