<?xml version="1.0" encoding="UTF-8" standalone="no"?>
<svg
   xml:space="preserve"
   style="image-rendering:optimizeQuality;shape-rendering:geometricPrecision;text-rendering:geometricPrecision"
   viewBox="0 0 6.1273316 6.1273316"
   version="1.1"
   x="0px"
   y="0px"
   fill-rule="evenodd"
   clip-rule="evenodd"
   id="svg5954"
   sodipodi:docname="noun-pipe-extractor-5946274.svg"
   width="6.1273317"
   height="6.1273317"
   xmlns:inkscape="http://www.inkscape.org/namespaces/inkscape"
   xmlns:sodipodi="http://sodipodi.sourceforge.net/DTD/sodipodi-0.dtd"
   xmlns="http://www.w3.org/2000/svg"
   xmlns:svg="http://www.w3.org/2000/svg"><sodipodi:namedview
     id="namedview5956"
     pagecolor="#ffffff"
     bordercolor="#000000"
     borderopacity="0.25"
     inkscape:showpageshadow="2"
     inkscape:pageopacity="0.0"
     inkscape:pagecheckerboard="0"
     inkscape:deskcolor="#d1d1d1"
     showgrid="false" /><defs
     id="defs5904"><style
       type="text/css"
       id="style5902">
   
    .fil1 {fill:none}
    .fil0 {fill:black}
   
  </style></defs><g
     id="g5946"
     transform="translate(-0.349669,-0.34966413)"
     style="fill:#6a6a6a"><g
       id="g5944"
       style="fill:#6a6a6a"><path
         class="fil0"
         d="m 0.691362,0.489976 c -0.111098,0 -0.201378,0.0902638 -0.201378,0.201346 l 7.87e-6,5.44401 c 0,0.111087 0.090252,0.20135 0.201331,0.20135 l 5.44404003,-3.9e-6 c 0.110996,0 0.201323,-0.090252 0.201323,-0.201335 V 0.69132306 c 0,-0.111091 -0.090374,-0.201339 -0.201335,-0.201339 l -5.44398003,-7.87e-6 z m 5.444,5.98702 h -5.444 c -0.188437,0 -0.341693,-0.153224 -0.341693,-0.34165 l 7.87e-6,-5.44402 c 0,-0.188429 0.15322,-0.341654 0.341646,-0.341654 l 5.44404003,-7.87e-6 c 0.188445,0 0.341638,0.153236 0.341638,0.341661 V 6.1353351 c 0,0.188437 -0.15322,0.341665 -0.3416389,0.3416609 z"
         id="path5906"
         style="fill:#6a6a6a" /><path
         class="fil0"
         d="m 3.41347,2.88167 c -0.293185,0 -0.531677,0.238492 -0.531677,0.531665 1.18e-5,0.293165 0.238492,0.531661 0.531661,0.531661 0.293197,0 0.531657,-0.238488 0.531657,-0.531661 C 3.9451307,3.120154 3.706623,2.88167 3.41347,2.88167 Z m 0,1.20364 c -0.370516,0 -0.671992,-0.301457 -0.671992,-0.671976 1.18e-5,-0.37052 0.301461,-0.67198 0.671976,-0.67198 0.370539,0 0.671972,0.301461 0.671972,0.67198 1.97e-5,0.37052 -0.301457,0.67198 -0.671956,0.671976 z"
         id="path5908"
         style="fill:#6a6a6a" /><path
         class="fil0"
         d="m 3.96076,3.23306 c -0.02548,0 -0.050106,-0.014 -0.06252,-0.03824 C 3.880575,3.16034 3.89421,3.118088 3.928685,3.100426 c 0.381272,-0.19513 0.618138,-0.582209 0.618138,-1.0101 2.76e-5,-0.601217 -0.470886,-1.0945 -1.0632,-1.1308 l 1.57e-5,1.85186 c 0,0.038721 -0.031441,0.070158 -0.070173,0.070158 -0.038736,0 -0.070158,-0.031425 -0.070158,-0.070158 l 1.58e-5,-1.92422 c 0,-0.0387402 0.031405,-0.0701496 0.070142,-0.0701496 0.702307,-7.87e-6 1.27367,0.571248 1.27367,1.27331 3.54e-5,0.48087 -0.266122,0.915701 -0.694504,1.13494 -0.010213,0.00523 -0.021193,0.0078 -0.031866,0.00779 z"
         id="path5910"
         style="fill:#6a6a6a" /><path
         class="fil0"
         d="M 4.73649,4.68701 C 4.25547,4.68701 3.820758,4.420876 3.60176,3.992502 3.584154,3.957908 3.59774,3.915644 3.632339,3.898108 3.666808,3.880431 3.709067,3.894088 3.726725,3.928557 c 0.194783,0.381354 0.581728,0.618142 1.00974,0.618142 0.60124,-3.9e-6 1.0945,-0.470886 1.13081,-1.0632 h -1.8522 c -0.038752,0 -0.070197,-0.031421 -0.070197,-0.070158 3.94e-5,-0.03874 0.031433,-0.070157 0.070158,-0.070157 h 1.92461 c 0.038752,0 0.070138,0.031425 0.070138,0.070157 1.97e-5,0.702299 -0.571252,1.27368 -1.27328,1.27367 z"
         id="path5912"
         style="fill:#6a6a6a" /><path
         class="fil0"
         d="m 3.41347,6.00964 c -0.702287,0 -1.27369,-0.57124 -1.27369,-1.2733 0,-0.481004 0.266134,-0.915823 0.694516,-1.1347 0.034472,-0.017669 0.07685,-0.00402 0.09439,0.030571 0.017689,0.034469 0.00402,0.076732 -0.030445,0.094398 -0.381366,0.194748 -0.618146,0.58172 -0.618146,1.00973 0,0.601079 0.470764,1.09451 1.0632,1.1308 l 1.57e-5,-1.85186 c 0,-0.038732 0.031405,-0.070158 0.070142,-0.070158 0.038768,0 0.070158,0.031425 0.070158,0.070158 l 1.58e-5,1.92421 c 0,0.038736 -0.031441,0.070161 -0.070158,0.070157 z"
         id="path5914"
         style="fill:#6a6a6a" /><path
         class="fil0"
         d="M 2.81154,3.48349 H 0.8871 c -0.038748,0 -0.0701929,-0.031421 -0.0701929,-0.070158 3.543e-5,-0.702315 0.571126,-1.27367 1.27331,-1.27367 0.480772,0 0.915701,0.266134 1.13494,0.694508 0.017697,0.034472 0.00402,0.076736 -0.030449,0.094398 -0.034567,0.017657 -0.076862,0.00402 -0.094512,-0.030453 -0.195087,-0.381248 -0.582087,-0.618142 -1.00998,-0.618142 -0.601185,-7.9e-6 -1.0945,0.470886 -1.1308,1.0632 h 1.85213 c 0.038752,0 0.07013,0.031425 0.07013,0.070158 2.76e-5,0.038724 -0.031417,0.070157 -0.07013,0.070157 z"
         id="path5916"
         style="fill:#6a6a6a" /><path
         class="fil0"
         d="m 3.41336,0.957331 c -1.3542,0 -2.45602,1.10182 -2.45602,2.456 2.362e-5,1.35418 1.10182,2.456 2.456,2.456 1.35423,-3.9e-6 2.456,-1.10181 2.456,-2.456 3.54e-5,-1.35419 -1.10181,-2.456 -2.45597,-2.456 z m 0,5.05231 c -1.43165,0 -2.59634,-1.16466 -2.59634,-2.59631 2.362e-5,-0.693543 0.270031,-1.34541 0.760409,-1.83578 0.49039,-0.490374 1.14238,-0.760528 1.8359,-0.760528 1.43157,-7.87e-6 2.59619,1.16466 2.59619,2.59631 5.12e-5,1.43165 -1.16466,2.59631 -2.59616,2.59631 z"
         id="path5918"
         style="fill:#6a6a6a" /><path
         class="fil0"
         d="m 5.2568,3.48349 c -0.038697,0 -0.070158,-0.031421 -0.070158,-0.070158 0,-0.517287 -0.22522,-1.00766 -0.617902,-1.34529 C 4.539386,2.042826 4.535972,1.998491 4.56131,1.96914 4.586515,1.939782 4.630853,1.936372 4.660208,1.96171 c 0.423776,0.364181 0.666744,0.893287 0.666744,1.45162 0,0.038724 -0.031433,0.070158 -0.070157,0.070158 z"
         id="path5920"
         style="fill:#6a6a6a" /><path
         class="fil0"
         d="M 3.41347,5.32695 C 3.374718,5.32695 3.343297,5.295529 3.343297,5.256797 3.3433127,5.218053 3.374718,5.18664 3.413455,5.18664 3.93088,5.1866361 4.421235,4.961305 4.758755,4.568502 4.784015,4.539144 4.828298,4.535734 4.857653,4.561062 4.887055,4.586278 4.890417,4.630613 4.865203,4.659967 4.500912,5.083833 3.97179,5.326951 3.413473,5.326947 Z"
         id="path5922"
         style="fill:#6a6a6a" /><path
         class="fil0"
         d="M 2.01472,2.2824 C 1.998547,2.2824 1.982181,2.27693 1.969019,2.265479 1.939566,2.240263 1.936259,2.195932 1.961469,2.166577 c 0.364343,-0.42387 0.893528,-0.66698 1.45187,-0.66698 0.00113,-1.57e-5 0.00207,0 0.00317,0 0.038732,0.00182 0.068701,0.034591 0.066988,0.073323 -0.00167,0.037626 -0.03276,0.066992 -0.070035,0.066992 -2.048e-4,-1.57e-5 -6.063e-4,0 -9.804e-4,0 -0.517016,2.323e-4 -1.00717,0.225453 -1.34455,0.618142 -0.013866,0.016071 -0.033496,0.024358 -0.053209,0.024347 z"
         id="path5924"
         style="fill:#6a6a6a" /><path
         class="fil0"
         d="M 2.21252,4.88237 C 2.196292,4.88237 2.180091,4.87678 2.166819,4.865453 1.74285,4.500902 1.499717,3.971551 1.499717,3.413343 c 3.94e-5,-0.03874 0.031417,-0.070157 0.070157,-0.070157 0.03874,0 0.070158,0.031425 0.070158,0.070157 3.94e-5,0.517287 0.225331,1.00778 0.618256,1.34566 0.029374,0.025331 0.032764,0.069551 0.00744,0.099028 C 2.251874,4.874102 2.232232,4.882389 2.212523,4.882378 Z"
         id="path5926"
         style="fill:#6a6a6a" /><path
         class="fil0"
         d="M 2.44332,4.09444 C 2.420084,4.09444 2.397265,4.082877 2.383993,4.061688 2.261631,3.867775 2.197024,3.643542 2.197024,3.413338 2.1970634,3.374598 2.228331,3.34318 2.267182,3.34318 c 0.03874,0 0.070158,0.031425 0.070158,0.070158 3.94e-5,0.203772 0.057122,0.402067 0.165291,0.573563 C 2.523351,4.019665 2.513466,4.063027 2.480698,4.08361 2.469139,4.09091 2.456096,4.094452 2.44332,4.09444 Z"
         id="path5928"
         style="fill:#6a6a6a" /><path
         class="fil0"
         d="M 4.55951,3.48349 C 4.520758,3.48349 4.489325,3.452069 4.489325,3.413332 4.4893526,3.209667 4.432203,3.011513 4.324164,2.840257 4.303491,2.807485 4.313322,2.764135 4.346089,2.743426 4.378908,2.722717 4.422211,2.732584 4.442798,2.765351 c 0.122299,0.19378 0.186843,0.417776 0.186843,0.64798 2.76e-5,0.038724 -0.031421,0.070158 -0.07013,0.070158 z"
         id="path5930"
         style="fill:#6a6a6a" /><path
         class="fil0"
         d="M 3.41347,4.62963 C 3.374718,4.62963 3.343297,4.598213 3.343297,4.55948 3.3433127,4.520732 3.374718,4.489323 3.413455,4.489323 3.617148,4.4893151 3.815396,4.432197 3.986896,4.32404 4.019675,4.303331 4.062896,4.313198 4.083605,4.345961 4.104357,4.378721 4.094447,4.422087 4.06168,4.44267 3.8677928,4.5649569 3.6436548,4.6296389 3.41347,4.62963 Z"
         id="path5932"
         style="fill:#6a6a6a" /><path
         class="fil0"
         d="M 2.80267,2.51346 C 2.779268,2.51346 2.756469,2.501901 2.743198,2.480708 2.722482,2.447932 2.732348,2.404582 2.765115,2.383995 2.95904,2.2617 3.183131,2.19703 3.413339,2.19703 3.452118,2.1970221 3.483497,2.228455 3.483497,2.267188 3.4835246,2.30592 3.452194,2.337345 3.413462,2.337345 3.20969,2.3373371 3.011403,2.394471 2.839899,2.502628 2.828379,2.509938 2.815301,2.513471 2.802671,2.51346 Z"
         id="path5934"
         style="fill:#6a6a6a" /><path
         class="fil0"
         d="M 0.973803,0.7845 C 0.9171849,0.7845 0.870984,0.8305433 0.870984,0.887181 0.87103912,0.943929 0.9171454,0.98998 0.973787,0.98998 1.0304248,0.98997213 1.076578,0.9439406 1.076578,0.887181 1.0766292,0.8305393 1.0304087,0.7845 0.973803,0.7845 Z m 0,0.345787 c -0.133957,0 -0.243134,-0.109004 -0.243134,-0.243106 5.512e-5,-0.133992 0.10913,-0.242992 0.243118,-0.242992 0.134142,-3.94e-6 0.243106,0.109008 0.243106,0.242992 5.12e-5,0.134098 -0.109004,0.243114 -0.24309,0.243106 z"
         id="path5936"
         style="fill:#6a6a6a" /><path
         class="fil0"
         d="m 0.973803,5.83669 c -0.0566181,0 -0.102819,0.046047 -0.102819,0.102803 5.512e-5,0.056642 0.0461614,0.102799 0.102803,0.102799 C 1.0304248,6.0422841 1.076578,5.996135 1.076578,5.939493 1.0766292,5.882729 1.030409,5.836694 0.973803,5.83669 Z m 0,0.345787 c -0.133957,0 -0.243134,-0.109 -0.243134,-0.242984 5.512e-5,-0.134098 0.10913,-0.24311 0.243118,-0.24311 0.134142,-7.9e-6 0.243106,0.109012 0.243106,0.24311 5.12e-5,0.133976 -0.109004,0.242992 -0.24309,0.242984 z"
         id="path5938"
         style="fill:#6a6a6a" /><path
         class="fil0"
         d="M 5.85282,0.7845 C 5.796147,0.7845 5.750088,0.8305433 5.750088,0.887181 5.7501037,0.943929 5.796135,0.98998 5.852769,0.98998 5.9095446,0.98997213 5.95556,0.9439406 5.95556,0.887181 5.9555876,0.8305393 5.9095324,0.7845 5.85282,0.7845 Z m 0,0.345787 c -0.134012,0 -0.243047,-0.109004 -0.243047,-0.243106 1.57e-5,-0.133992 0.10902,-0.242992 0.242996,-0.242992 0.134114,-3.94e-6 0.243122,0.109008 0.243122,0.242992 1.18e-5,0.134098 -0.109012,0.243114 -0.243122,0.243114 z"
         id="path5940"
         style="fill:#6a6a6a" /><path
         class="fil0"
         d="m 5.85282,5.83669 c -0.056673,0 -0.102732,0.046047 -0.102732,0.102803 1.57e-5,0.056642 0.046047,0.102799 0.102681,0.102799 C 5.909545,6.0422841 5.95556,5.996135 5.95556,5.939493 5.9555876,5.882729 5.909532,5.836694 5.85282,5.83669 Z m 0,0.345787 c -0.134012,0 -0.243047,-0.109 -0.243047,-0.242984 1.57e-5,-0.134098 0.10902,-0.24311 0.242996,-0.24311 0.134114,-7.9e-6 0.243122,0.109012 0.243122,0.24311 1.18e-5,0.133976 -0.109012,0.242992 -0.243122,0.242992 z"
         id="path5942"
         style="fill:#6a6a6a" /></g></g><rect
     class="fil1"
     width="6.8266602"
     height="6.8266602"
     id="rect5948"
     x="-0.34966901"
     y="-0.34966412" /></svg>
