<?xml version="1.0" encoding="UTF-8" standalone="no"?>
<svg
   version="1.1"
   x="0px"
   y="0px"
   viewBox="0 0 403.35999 294.41394"
   xml:space="preserve"
   id="svg12"
   sodipodi:docname="fianza.svg"
   width="403.35999"
   height="294.41394"
   inkscape:version="1.1.2 (0a00cf5339, 2022-02-04)"
   xmlns:inkscape="http://www.inkscape.org/namespaces/inkscape"
   xmlns:sodipodi="http://sodipodi.sourceforge.net/DTD/sodipodi-0.dtd"
   xmlns="http://www.w3.org/2000/svg"
   xmlns:svg="http://www.w3.org/2000/svg"><defs
     id="defs16" /><sodipodi:namedview
     id="namedview14"
     pagecolor="#ffffff"
     bordercolor="#666666"
     borderopacity="1.0"
     inkscape:pageshadow="2"
     inkscape:pageopacity="0.0"
     inkscape:pagecheckerboard="0"
     showgrid="false"
     fit-margin-top="0"
     fit-margin-left="0"
     fit-margin-right="0"
     fit-margin-bottom="0"
     inkscape:zoom="1.2683333"
     inkscape:cx="194.74376"
     inkscape:cy="201.83968"
     inkscape:window-width="1920"
     inkscape:window-height="1052"
     inkscape:window-x="3840"
     inkscape:window-y="0"
     inkscape:window-maximized="1"
     inkscape:current-layer="svg12" /><style
     type="text/css"
     id="style2">
	.st0{fill-rule:evenodd;clip-rule:evenodd;}
</style><g
     id="g6"
     transform="translate(-45.06,-98.06)"
     style="fill:#444444"><path
       class="st0"
       d="m 378.77,281.02 c 0.15,0.14 0.29,0.28 0.41,0.44 2.25,2.42 3.93,5.28 4.96,8.36 1.18,3.53 1.51,7.34 0.88,11.11 -1.05,6.28 -4.54,11.54 -9.35,14.97 -3.31,2.36 -7.25,3.86 -11.43,4.21 0.1,0.27 0.19,0.55 0.27,0.83 1.09,3.56 1.33,7.38 0.61,11.13 -1.21,6.26 -4.83,11.43 -9.72,14.74 -4.88,3.3 -11.02,4.74 -17.27,3.54 -0.49,-0.09 -0.97,-0.2 -1.45,-0.33 0.05,0.83 0.05,1.67 0.01,2.51 v 0 0 c 0,0.23 -0.02,0.45 -0.05,0.67 -0.49,6 -3.33,11.26 -7.54,14.96 -4.23,3.7 -9.83,5.82 -15.85,5.5 v 0 0 c -0.22,0 -0.45,-0.02 -0.66,-0.05 -1.94,-0.16 -3.83,-0.57 -5.63,-1.21 -0.53,-0.19 -1.06,-0.4 -1.58,-0.63 -0.03,0.23 -0.06,0.45 -0.09,0.68 -0.82,5.4 -3.76,9.96 -7.85,12.97 -4.08,3 -9.3,4.45 -14.69,3.63 -1.02,-0.15 -2.06,-0.4 -3.12,-0.75 -1.04,-0.34 -2.03,-0.75 -2.97,-1.23 -0.34,-0.17 -0.65,-0.38 -0.93,-0.62 -0.35,-0.15 -0.7,-0.34 -1.02,-0.58 L 249.03,366.7 c -0.4,0.84 -0.86,1.65 -1.38,2.44 -0.24,0.54 -0.58,1.04 -1.02,1.48 l -15.05,14.78 c -0.21,0.38 -0.46,0.73 -0.78,1.06 -0.74,0.76 -1.54,1.47 -2.41,2.11 -0.86,0.64 -1.77,1.21 -2.72,1.7 -4.84,2.5 -10.25,2.8 -15.07,1.27 -4.83,-1.54 -9.08,-4.92 -11.58,-9.76 -1.15,-2.23 -1.85,-4.64 -2.1,-7.07 -0.46,0.12 -0.92,0.23 -1.39,0.33 -6.04,1.23 -12,-0.1 -16.76,-3.25 -4.76,-3.15 -8.31,-8.11 -9.54,-14.15 -0.19,-0.93 -0.32,-1.87 -0.39,-2.81 -0.32,0.13 -0.65,0.26 -0.98,0.38 -0.27,0.12 -0.55,0.21 -0.84,0.28 -5.9,1.87 -12.01,1.24 -17.17,-1.31 -5.16,-2.56 -9.37,-7.04 -11.47,-12.87 -0.12,-0.27 -0.21,-0.55 -0.28,-0.84 -1.11,-3.5 -1.35,-7.16 -0.77,-10.69 0.05,-0.29 0.1,-0.58 0.16,-0.87 -4.19,0.21 -8.3,-0.74 -11.9,-2.63 -5.22,-2.75 -9.39,-7.5 -11.27,-13.58 -1.13,-3.65 -1.32,-7.47 -0.63,-11.11 0.7,-3.66 2.28,-7.15 4.68,-10.14 0.37,-0.46 0.8,-0.83 1.28,-1.11 l 12.06,-11.85 -22.83,-21.95 c -2.13,1.29 -4.35,1.92 -6.61,1.92 -3.42,0 -6.66,-1.45 -9.62,-4.26 -0.11,-0.09 -0.22,-0.19 -0.32,-0.29 L 49.5,211.05 c -0.18,-0.18 -0.33,-0.36 -0.48,-0.56 -2.61,-2.87 -3.96,-6 -3.96,-9.3 0,-3.34 1.39,-6.59 4.24,-9.62 0.1,-0.12 0.2,-0.23 0.31,-0.34 l 87.29,-87.29 c 0.15,-0.2 0.31,-0.38 0.49,-0.56 3.11,-3.05 6.47,-4.53 9.92,-4.53 3.33,0 6.49,1.37 9.38,4.04 0.18,0.14 0.35,0.28 0.52,0.45 l 42.84,42.84 c 0.19,0.2 0.37,0.4 0.52,0.62 2.67,2.89 4.04,6.05 4.04,9.39 0,1.28 -0.2,2.54 -0.61,3.79 l 35.87,8.75 5.41,-3.61 v 0.01 c 0.67,-0.45 1.47,-0.74 2.34,-0.79 l 42.84,-2.92 c -1.06,-1.95 -1.59,-3.97 -1.59,-6.02 0,-3.33 1.37,-6.5 4.04,-9.39 0.15,-0.22 0.33,-0.42 0.52,-0.62 l 42.84,-42.84 c 0.16,-0.16 0.34,-0.31 0.52,-0.45 2.89,-2.66 6.05,-4.04 9.38,-4.04 3.45,0 6.81,1.48 9.92,4.53 0.18,0.18 0.34,0.37 0.49,0.56 l 87.29,87.29 c 0.11,0.11 0.21,0.22 0.31,0.34 2.85,3.03 4.24,6.28 4.24,9.62 0,3.3 -1.35,6.43 -3.96,9.3 -0.14,0.19 -0.3,0.38 -0.48,0.56 l -42.84,42.84 c -0.1,0.1 -0.21,0.2 -0.32,0.29 -2.95,2.81 -6.2,4.26 -9.62,4.26 -3.34,0 -6.59,-1.39 -9.62,-4.24 -0.12,-0.1 -0.23,-0.2 -0.34,-0.31 l -0.02,-0.02 -14.07,19.25 9.59,7.16 c 0.5,0.22 0.97,0.52 1.38,0.92 0.24,0.2 0.45,0.4 0.65,0.61 z M 99.31,247.3 c 1.09,1.02 2.09,1.55 2.97,1.55 0.87,0 1.88,-0.51 3,-1.55 0.06,-0.06 0.11,-0.12 0.17,-0.18 l 87.86,-87.86 c 0.15,-0.15 0.31,-0.29 0.48,-0.42 0.82,-0.98 1.23,-1.86 1.23,-2.63 0,-0.94 -0.6,-2.01 -1.75,-3.19 -0.11,-0.11 -0.21,-0.22 -0.3,-0.34 l -42.33,-42.33 c -0.04,-0.04 -0.09,-0.08 -0.13,-0.12 -1.17,-1.16 -2.25,-1.75 -3.19,-1.75 -0.77,0 -1.66,0.4 -2.63,1.23 -0.13,0.17 -0.27,0.33 -0.42,0.48 L 56.4,198.03 c -0.06,0.06 -0.12,0.12 -0.18,0.17 -1.05,1.12 -1.55,2.13 -1.55,3 0,0.94 0.6,2.01 1.75,3.19 0.05,0.05 0.1,0.11 0.15,0.16 l 42.56,42.56 c 0.07,0.06 0.12,0.12 0.18,0.19 z m 16.72,2.8 22.52,21.66 1.87,-1.84 c 0.46,-0.46 1,-0.8 1.57,-1.03 0.79,-0.53 1.59,-0.99 2.38,-1.39 1.08,-0.54 2.24,-1 3.48,-1.38 6.08,-1.88 12.34,-1.12 17.56,1.63 5.22,2.75 9.39,7.5 11.27,13.58 0.6,1.93 0.93,3.9 1.01,5.87 0.14,-0.05 0.29,-0.09 0.44,-0.13 5.9,-1.87 12.01,-1.24 17.17,1.32 5.16,2.56 9.37,7.04 11.47,12.87 0.12,0.27 0.21,0.55 0.28,0.84 1.11,3.5 1.35,7.16 0.77,10.69 -0.12,0.74 -0.28,1.47 -0.47,2.2 4.53,-0.04 8.86,1.3 12.5,3.7 4.76,3.15 8.31,8.11 9.54,14.15 0.42,2.04 0.54,4.11 0.39,6.13 3.48,-0.3 6.92,0.35 9.99,1.81 4.51,2.13 8.21,5.98 10.02,11.04 0.49,1.38 0.83,2.8 1,4.23 l 29.67,22.15 c 0.1,0.08 0.2,0.16 0.29,0.24 0.1,0.04 0.2,0.09 0.3,0.14 0.5,0.26 1.01,0.47 1.51,0.63 0.49,0.16 1.03,0.28 1.62,0.37 2.8,0.43 5.5,-0.32 7.6,-1.87 2.09,-1.54 3.6,-3.89 4.02,-6.67 0.17,-1.11 0.16,-2.22 -0.03,-3.29 -0.19,-1.07 -0.54,-2.12 -1.06,-3.08 -0.27,-0.5 -0.44,-1.02 -0.52,-1.55 l -31.26,-26.04 c -2.03,-1.69 -2.31,-4.7 -0.62,-6.73 1.69,-2.03 4.7,-2.31 6.73,-0.62 l 39.63,33.02 c 0.48,0.24 0.97,0.45 1.47,0.63 1.1,0.39 2.25,0.63 3.41,0.71 v 0 c 3.52,0.23 6.8,-0.98 9.25,-3.12 2.44,-2.14 4.07,-5.22 4.3,-8.72 v 0 c 0.14,-2.12 -0.25,-4.2 -1.09,-6.07 h 0.01 l -0.01,-0.02 c -0.84,-1.86 -2.13,-3.53 -3.8,-4.82 -0.62,-0.48 -1.09,-1.08 -1.4,-1.74 L 285.14,312 c -2.09,-1.62 -2.48,-4.62 -0.86,-6.71 1.62,-2.09 4.62,-2.48 6.71,-0.86 l 46.08,35.62 c 0.25,0.11 0.5,0.21 0.76,0.3 0.69,0.25 1.4,0.45 2.1,0.59 3.65,0.7 7.25,-0.14 10.11,-2.08 2.85,-1.93 4.97,-4.95 5.67,-8.59 0.43,-2.21 0.29,-4.44 -0.34,-6.52 -0.64,-2.08 -1.78,-4 -3.36,-5.58 -0.09,-0.09 -0.18,-0.19 -0.27,-0.29 l -43.37,-31.83 c -2.13,-1.56 -2.59,-4.56 -1.03,-6.69 1.56,-2.13 4.56,-2.59 6.69,-1.03 l 41.67,30.59 c 0.08,0.04 0.16,0.08 0.24,0.12 0.61,0.32 1.28,0.61 2,0.86 0.7,0.24 1.4,0.42 2.12,0.53 3.67,0.61 7.25,-0.32 10.06,-2.33 2.8,-2 4.84,-5.07 5.45,-8.75 0.37,-2.22 0.18,-4.44 -0.51,-6.5 -0.57,-1.72 -1.5,-3.32 -2.74,-4.7 l -10.64,-7.94 -86.23,-62.64 c -5.34,-3.18 -11.31,-4.06 -16.99,-3.31 -4.46,0.59 -8.74,2.17 -12.41,4.42 -3.57,2.19 -6.51,5 -8.4,8.1 -1.68,2.76 -2.5,5.74 -2.12,8.67 v 0 c 0.01,0.06 0.01,0.11 0.02,0.17 1.18,12.26 -1.66,23.09 -6.93,30.67 -2.28,3.28 -5.04,5.99 -8.14,7.98 -3.2,2.05 -6.76,3.32 -10.56,3.69 -5.81,0.56 -12.04,-1.03 -18.2,-5.29 -1.19,-0.79 -2.01,-2.09 -2.13,-3.62 l -0.06,-0.79 c -1.67,-21.06 -4.83,-61.08 14.16,-75.37 0.15,-0.13 0.3,-0.25 0.47,-0.36 l 24.89,-16.6 -31.25,-7.62 z m 320.9,-46.34 c 0.05,-0.05 0.1,-0.11 0.15,-0.16 1.16,-1.17 1.75,-2.25 1.75,-3.19 0,-0.87 -0.51,-1.88 -1.55,-3 -0.06,-0.06 -0.12,-0.11 -0.18,-0.17 l -87.86,-87.86 c -0.15,-0.15 -0.29,-0.31 -0.42,-0.48 -0.98,-0.82 -1.86,-1.23 -2.63,-1.23 -0.94,0 -2.01,0.6 -3.19,1.75 -0.04,0.04 -0.09,0.08 -0.13,0.12 l -42.33,42.33 c -0.09,0.12 -0.19,0.23 -0.3,0.34 -1.16,1.17 -1.75,2.25 -1.75,3.19 0,0.77 0.4,1.66 1.23,2.63 0.17,0.13 0.33,0.27 0.48,0.42 l 3.47,3.47 c 0.17,0.15 0.33,0.31 0.48,0.48 l 83.91,83.91 c 0.06,0.06 0.12,0.12 0.17,0.18 1.12,1.04 2.13,1.55 3,1.55 0.88,0 1.88,-0.53 2.97,-1.55 0.06,-0.06 0.12,-0.13 0.18,-0.19 z m -138.3,-33.28 -49.08,3.34 -40.04,26.69 c -14.45,10.72 -12.09,45.76 -10.55,65.41 3.55,2.05 6.96,2.81 10.06,2.52 2.22,-0.21 4.34,-0.98 6.28,-2.23 2.03,-1.3 3.87,-3.13 5.44,-5.39 4.05,-5.83 6.22,-14.37 5.29,-24.23 -0.66,-5.19 0.68,-10.26 3.44,-14.8 2.68,-4.4 6.74,-8.31 11.59,-11.29 4.75,-2.92 10.33,-4.97 16.16,-5.74 7.7,-1.01 15.85,0.21 23.2,4.61 0.18,0.1 0.36,0.21 0.54,0.34 l 71.05,51.61 c 0.48,0.16 0.95,0.4 1.38,0.72 l 6.1,4.56 14.8,-20.25 0.09,-0.12 z m -154.37,146.3 21.73,-21.34 c 0.94,-1.46 1.59,-3.08 1.9,-4.76 0.41,-2.15 0.3,-4.39 -0.36,-6.53 -1.1,-3.55 -3.54,-6.31 -6.59,-7.92 -3.05,-1.61 -6.72,-2.05 -10.28,-0.95 -0.65,0.2 -1.33,0.48 -2.02,0.82 -0.7,0.35 -1.33,0.72 -1.88,1.12 -0.11,0.08 -0.22,0.15 -0.34,0.22 l -21.22,20.84 c -1.05,1.54 -1.76,3.26 -2.1,5.06 -0.41,2.15 -0.3,4.39 0.36,6.53 1.1,3.55 3.54,6.31 6.59,7.92 3.05,1.61 6.72,2.05 10.28,0.95 0.65,-0.2 1.33,-0.48 2.02,-0.82 0.7,-0.35 1.33,-0.72 1.88,-1.12 z m 32.08,-18.09 -2.97,2.92 c -0.24,0.33 -0.48,0.65 -0.74,0.97 -0.43,0.53 -0.95,0.95 -1.52,1.25 l -21.44,21.06 c -0.09,0.15 -0.19,0.3 -0.3,0.44 -1.36,1.78 -2.23,3.84 -2.58,5.97 -0.35,2.15 -0.19,4.39 0.53,6.52 v 0 c 1.19,3.51 3.69,6.22 6.78,7.75 3.1,1.53 6.78,1.89 10.31,0.69 h 0.01 c 0.66,-0.22 1.33,-0.51 1.99,-0.86 v -0.01 c 0.26,-0.14 0.52,-0.28 0.75,-0.42 l 29.45,-28.92 c 0.9,-1.49 1.5,-3.12 1.78,-4.8 0.35,-2.15 0.19,-4.39 -0.53,-6.52 v 0 c -1.19,-3.51 -3.69,-6.22 -6.78,-7.75 -3.1,-1.53 -6.78,-1.89 -10.31,-0.69 h -0.01 c -0.66,0.22 -1.33,0.51 -1.99,0.86 v 0.01 c -0.72,0.38 -1.34,0.77 -1.85,1.16 -0.19,0.14 -0.38,0.26 -0.58,0.37 z m 20.67,30.36 -14.06,13.81 c -0.23,0.5 -0.54,0.98 -0.95,1.39 -1.48,1.51 -2.53,3.33 -3.12,5.3 -0.59,1.98 -0.69,4.09 -0.27,6.16 0.7,3.44 2.74,6.27 5.46,8.07 2.72,1.8 6.12,2.56 9.56,1.86 1.14,-0.23 2.25,-0.63 3.29,-1.16 0.52,-0.27 1.03,-0.57 1.51,-0.92 l 18.84,-18.5 c 0.36,-0.38 0.73,-0.75 1.11,-1.1 0.59,-0.96 1.05,-1.99 1.36,-3.06 0.58,-1.98 0.69,-4.09 0.27,-6.16 -0.7,-3.44 -2.74,-6.27 -5.46,-8.07 -2.72,-1.8 -6.12,-2.56 -9.56,-1.86 -1.14,0.23 -2.25,0.63 -3.29,1.16 -1.03,0.53 -1.99,1.21 -2.86,2.01 -0.53,0.51 -1.16,0.87 -1.83,1.07 z m 24.82,24.94 -14.34,14.08 c -0.71,1.41 -1.08,2.95 -1.1,4.47 -0.02,1.65 0.36,3.31 1.15,4.83 1.3,2.51 3.48,4.25 5.96,5.04 2.49,0.79 5.28,0.63 7.8,-0.67 0.29,-0.15 0.57,-0.31 0.84,-0.48 l 0.09,-0.09 17.03,-16.73 c 0.05,-0.08 0.1,-0.15 0.16,-0.23 0.97,-1.32 1.58,-2.84 1.81,-4.41 0.06,-0.4 0.09,-0.8 0.1,-1.2 0,-0.08 0,-0.16 0,-0.24 0,-1.12 -0.19,-2.25 -0.58,-3.34 -0.92,-2.57 -2.79,-4.52 -5.07,-5.6 -2.28,-1.08 -4.98,-1.28 -7.56,-0.36 -0.78,0.28 -1.5,0.64 -2.15,1.07 -0.14,0.09 -0.28,0.19 -0.42,0.29 -0.63,0.87 -1.34,1.7 -2.1,2.48 -0.47,0.49 -1.02,0.86 -1.62,1.09 z m 105.28,-1.76 v 0 z m -13.55,11.84 z"
       id="path4"
       style="fill:#444444" /></g></svg>
