<?xml version="1.0" encoding="UTF-8" standalone="no"?>
<svg
   version="1.1"
   x="0px"
   y="0px"
   viewBox="0 0 84 84"
   enable-background="new 0 0 100 100"
   xml:space="preserve"
   id="svg20"
   sodipodi:docname="fire_splinker.svg"
   width="84"
   height="84"
   inkscape:version="1.1.2 (0a00cf5339, 2022-02-04)"
   xmlns:inkscape="http://www.inkscape.org/namespaces/inkscape"
   xmlns:sodipodi="http://sodipodi.sourceforge.net/DTD/sodipodi-0.dtd"
   xmlns="http://www.w3.org/2000/svg"
   xmlns:svg="http://www.w3.org/2000/svg"><defs
     id="defs24" /><sodipodi:namedview
     id="namedview22"
     pagecolor="#ffffff"
     bordercolor="#666666"
     borderopacity="1.0"
     inkscape:pageshadow="2"
     inkscape:pageopacity="0.0"
     inkscape:pagecheckerboard="0"
     showgrid="false"
     fit-margin-top="0"
     fit-margin-left="0"
     fit-margin-right="0"
     fit-margin-bottom="0"
     inkscape:zoom="6.088"
     inkscape:cx="41.885677"
     inkscape:cy="54.45138"
     inkscape:window-width="1850"
     inkscape:window-height="1025"
     inkscape:window-x="1990"
     inkscape:window-y="27"
     inkscape:window-maximized="1"
     inkscape:current-layer="svg20" /><path
     d="m 45,63 v 3 c 0,1.657 -1.343,3 -3,3 -1.657,0 -3,-1.343 -3,-3 v -3 c 0,-1.657 1.343,-3 3,-3 1.657,0 3,1.343 3,3 z"
     id="path2"
     style="fill:#474747" /><path
     d="m 45,78 v 3 c 0,1.657 -1.343,3 -3,3 -1.657,0 -3,-1.343 -3,-3 v -3 c 0,-1.657 1.343,-3 3,-3 1.657,0 3,1.343 3,3 z"
     id="path4"
     style="fill:#474747" /><path
     d="m 22.351,76.578 -1.778,2.965 c -0.85,1.419 -2.698,1.883 -4.115,1.03 -1.421,-0.851 -1.882,-2.694 -1.03,-4.115 l 1.778,-2.965 c 0.851,-1.425 2.694,-1.884 4.115,-1.03 1.421,0.851 1.882,2.694 1.03,4.115 z"
     id="path6"
     style="fill:#474747" /><path
     d="m 29.572,64.544 -1.8,3 c -0.854,1.423 -2.699,1.879 -4.116,1.028 -1.421,-0.853 -1.881,-2.695 -1.028,-4.116 l 1.8,-3 c 0.853,-1.424 2.692,-1.882 4.116,-1.028 1.421,0.852 1.881,2.695 1.028,4.116 z"
     id="path8"
     style="fill:#474747" /><path
     d="m 68.572,76.458 c 0.853,1.421 0.391,3.264 -1.03,4.115 -1.402,0.844 -3.256,0.404 -4.115,-1.03 l -1.778,-2.965 c -0.853,-1.421 -0.391,-3.264 1.03,-4.115 1.418,-0.854 3.264,-0.393 4.115,1.03 z"
     id="path10"
     style="fill:#474747" /><path
     d="m 60.344,68.572 c -1.417,0.85 -3.262,0.395 -4.116,-1.028 l -1.8,-3 c -0.853,-1.421 -0.393,-3.264 1.028,-4.116 1.419,-0.853 3.264,-0.393 4.116,1.028 l 1.8,3 c 0.853,1.421 0.393,3.264 -1.028,4.116 z"
     id="path12"
     style="fill:#474747" /><path
     d="m 51,42 c 1.513,0 2.789,-1.126 2.977,-2.628 L 56.648,18 H 84 V 12 H 69 L 73.5,6 H 84 V 0 H 0 V 6 H 12 L 7.5,12 H 0 v 6 h 27.352 l 2.672,21.372 C 30.211,40.874 31.487,42 33,42 h 6 v 6 h -6 c -1.657,0 -3,1.343 -3,3 0,1.657 1.343,3 3,3 h 18 c 1.657,0 3,-1.343 3,-3 0,-1.657 -1.343,-3 -3,-3 H 45 V 42 Z M 25.5,12 H 15 L 19.5,6 H 30 Z m 30,-6 H 66 l -4.5,6 H 54 51 Z M 33,12 37.5,6 H 48 l -4.5,6 z m 9,12 c -1.657,0 -3,1.343 -3,3 v 9 h -3.352 l -2.25,-18 h 17.203 l -2.25,18 H 45 v -9 c 0,-1.657 -1.343,-3 -3,-3 z"
     id="path14"
     style="fill:#474747" /></svg>
