<?xml version="1.0" encoding="UTF-8" standalone="no"?>
<svg
   version="1.1"
   x="0px"
   y="0px"
   viewBox="0 0 84 84"
   enable-background="new 0 0 100 100"
   xml:space="preserve"
   id="svg10"
   sodipodi:docname="firealarm.svg"
   width="84"
   height="84"
   inkscape:version="1.1.2 (0a00cf5339, 2022-02-04)"
   xmlns:inkscape="http://www.inkscape.org/namespaces/inkscape"
   xmlns:sodipodi="http://sodipodi.sourceforge.net/DTD/sodipodi-0.dtd"
   xmlns="http://www.w3.org/2000/svg"
   xmlns:svg="http://www.w3.org/2000/svg"><defs
     id="defs14" /><sodipodi:namedview
     id="namedview12"
     pagecolor="#ffffff"
     bordercolor="#666666"
     borderopacity="1.0"
     inkscape:pageshadow="2"
     inkscape:pageopacity="0.0"
     inkscape:pagecheckerboard="0"
     showgrid="false"
     fit-margin-top="0"
     fit-margin-left="0"
     fit-margin-right="0"
     fit-margin-bottom="0"
     inkscape:zoom="6.088"
     inkscape:cx="41.885677"
     inkscape:cy="54.45138"
     inkscape:window-width="1850"
     inkscape:window-height="1025"
     inkscape:window-x="1990"
     inkscape:window-y="27"
     inkscape:window-maximized="1"
     inkscape:current-layer="svg10" /><path
     d="m 48,54 c 0,3.314 -2.686,6 -6,6 -3.314,0 -6,-2.686 -6,-6 0,-3.314 2.686,-6 6,-6 3.314,0 6,2.686 6,6 z"
     id="path2"
     style="fill:#4c4c4c" /><path
     d="m 0,3 v 78 c 0,1.657 1.343,3 3,3 h 78 c 1.657,0 3,-1.343 3,-3 V 3 C 84,1.343 82.657,0 81,0 H 3 C 1.343,0 0,1.343 0,3 Z M 21,9 H 63 V 24 H 21 Z M 9,75 V 57 h 12 v 6.827 c 0,0.802 0.969,1.203 1.536,0.636 L 33,54 22.536,43.536 C 21.969,42.969 21,43.371 21,44.173 V 51 H 9 V 33 H 75 V 51 H 63 V 44.173 C 63,43.371 62.031,42.97 61.464,43.537 L 51,54 61.464,64.464 C 62.031,65.03 63,64.629 63,63.827 V 57 h 12 v 18 z"
     id="path4"
     style="fill:#4c4c4c" /></svg>
