<?xml version="1.0" encoding="UTF-8" standalone="no"?>
<svg
   version="1.1"
   x="0px"
   y="0px"
   viewBox="0 0 84 84"
   enable-background="new 0 0 100 100"
   xml:space="preserve"
   id="svg14"
   sodipodi:docname="fire_alarm.svg"
   width="84"
   height="84"
   inkscape:version="1.1.2 (0a00cf5339, 2022-02-04)"
   xmlns:inkscape="http://www.inkscape.org/namespaces/inkscape"
   xmlns:sodipodi="http://sodipodi.sourceforge.net/DTD/sodipodi-0.dtd"
   xmlns="http://www.w3.org/2000/svg"
   xmlns:svg="http://www.w3.org/2000/svg"><defs
     id="defs18" /><sodipodi:namedview
     id="namedview16"
     pagecolor="#ffffff"
     bordercolor="#666666"
     borderopacity="1.0"
     inkscape:pageshadow="2"
     inkscape:pageopacity="0.0"
     inkscape:pagecheckerboard="0"
     showgrid="false"
     fit-margin-top="0"
     fit-margin-left="0"
     fit-margin-right="0"
     fit-margin-bottom="0"
     inkscape:zoom="6.088"
     inkscape:cx="41.885677"
     inkscape:cy="54.45138"
     inkscape:window-width="1850"
     inkscape:window-height="1025"
     inkscape:window-x="1990"
     inkscape:window-y="27"
     inkscape:window-maximized="1"
     inkscape:current-layer="svg14" /><path
     d="M 81,0 H 3 C 1.342,0 0,1.343 0,3 v 78 c 0,1.658 1.342,3 3,3 h 78 c 1.658,0 3,-1.342 3,-3 V 3 C 84,1.343 82.658,0 81,0 Z M 78,78 H 6 V 6 h 72 z"
     id="path2"
     style="fill:#484848" /><path
     d="m 12,72 h 60 c 1.658,0 3,-1.342 3,-3 V 27 c 0,-1.657 -1.342,-3 -3,-3 H 12 c -1.658,0 -3,1.343 -3,3 v 42 c 0,1.658 1.342,3 3,3 z M 69,30 V 45 H 58.242 l 0.879,-0.879 c 1.172,-1.172 1.172,-3.07 0,-4.242 -1.172,-1.172 -3.07,-1.172 -4.242,0 l -5.996,5.996 c -1.172,1.167 -1.172,3.083 0,4.25 l 5.996,5.996 c 1.172,1.172 3.07,1.172 4.242,0 1.172,-1.172 1.172,-3.07 0,-4.242 L 58.242,51 H 69 V 66 H 15 V 51 h 10.758 l -0.879,0.879 c -1.172,1.172 -1.172,3.07 0,4.242 1.172,1.172 3.07,1.172 4.242,0 l 5.996,-5.996 c 1.173,-1.169 1.168,-3.085 0,-4.25 l -5.996,-5.996 c -1.172,-1.172 -3.07,-1.172 -4.242,0 -1.172,1.172 -1.172,3.07 0,4.242 L 25.758,45 H 15 V 30 Z"
     id="path4"
     style="fill:#484848" /><path
     d="m 39,48 c 0,-1.657 1.343,-3 3,-3 1.657,0 3,1.343 3,3 0,1.657 -1.343,3 -3,3 -1.657,0 -3,-1.343 -3,-3 z"
     id="path6"
     style="fill:#484848" /><path
     d="m 24,15 c 0,-1.657 1.342,-3 3,-3 h 30 c 1.658,0 3,1.343 3,3 0,1.657 -1.342,3 -3,3 H 27 c -1.658,0 -3,-1.343 -3,-3 z"
     id="path8"
     style="fill:#484848" /></svg>
