<?xml version="1.0" encoding="UTF-8" standalone="no"?>
<svg
   viewBox="0 0 44.000023 37.999615"
   version="1.1"
   xml:space="preserve"
   x="0px"
   y="0px"
   fill-rule="evenodd"
   clip-rule="evenodd"
   stroke-linejoin="round"
   stroke-miterlimit="2"
   id="svg38"
   sodipodi:docname="fire-alarm.svg"
   width="44.000023"
   height="37.999615"
   inkscape:version="1.1.2 (0a00cf5339, 2022-02-04)"
   xmlns:inkscape="http://www.inkscape.org/namespaces/inkscape"
   xmlns:sodipodi="http://sodipodi.sourceforge.net/DTD/sodipodi-0.dtd"
   xmlns="http://www.w3.org/2000/svg"
   xmlns:svg="http://www.w3.org/2000/svg"><defs
     id="defs42" /><sodipodi:namedview
     id="namedview40"
     pagecolor="#ffffff"
     bordercolor="#666666"
     borderopacity="1.0"
     inkscape:pageshadow="2"
     inkscape:pageopacity="0.0"
     inkscape:pagecheckerboard="0"
     showgrid="false"
     fit-margin-top="0"
     fit-margin-left="0"
     fit-margin-right="0"
     fit-margin-bottom="0"
     inkscape:zoom="12.683333"
     inkscape:cx="21.997372"
     inkscape:cy="12.733246"
     inkscape:window-width="1850"
     inkscape:window-height="1025"
     inkscape:window-x="1990"
     inkscape:window-y="27"
     inkscape:window-maximized="1"
     inkscape:current-layer="svg38" /><g
     transform="translate(-146.00007,-77.0004)"
     id="g32"
     style="fill:#4b4b4b"><g
       transform="scale(1.5)"
       id="g30"
       style="fill:#4b4b4b"><g
         transform="matrix(0.666667,0,0,0.8,0,-12.8)"
         id="g4"
         style="fill:#4b4b4b"><path
           d="m 190,83.5 v -1.25 c 0,-1.151 -1.119,-2.083 -2.5,-2.083 h -39 c -1.381,0 -2.5,0.932 -2.5,2.083 0,4.88 0,22.62 0,27.5 0,1.151 1.119,2.083 2.5,2.083 h 1.5 c 0.552,0 1,-0.373 1,-0.833 0,-0.46 -0.448,-0.833 -1,-0.833 h -1.5 c -0.276,0 -0.5,-0.187 -0.5,-0.417 0,-4.88 0,-22.62 0,-27.5 0,-0.23 0.224,-0.417 0.5,-0.417 0,0 39,0 39,0 0.276,0 0.5,0.187 0.5,0.417 v 1.25 c 0,0.46 0.448,0.833 1,0.833 0.552,0 1,-0.373 1,-0.833 z m -34,28.333 h 31.5 c 1.381,0 2.5,-0.932 2.5,-2.083 0,-4.07 0,-23.75 0,-23.75 0,-0.46 -0.448,-0.833 -1,-0.833 -0.552,0 -1,0.373 -1,0.833 0,0 0,19.68 0,23.75 0,0.23 -0.224,0.417 -0.5,0.417 0,0 -31.5,0 -31.5,0 -0.552,0 -1,0.373 -1,0.833 0,0.46 0.448,0.833 1,0.833 z"
           id="path2"
           style="fill:#4b4b4b" /></g><g
         transform="matrix(0.666667,0,0,0.666667,92.6667,56)"
         id="g8"
         style="fill:#4b4b4b"><circle
           cx="14"
           cy="30"
           r="1"
           id="circle6"
           style="fill:#4b4b4b" /></g><g
         transform="matrix(0.8,0,0,0.727273,-22.8,-4.48485)"
         id="g12"
         style="fill:#4b4b4b"><path
           d="m 158.5,95.083 h -1.25 c -0.553,0 -1.082,0.242 -1.473,0.672 -0.391,0.429 -0.61,1.012 -0.61,1.62 v 8.25 c 0,0.608 0.219,1.191 0.61,1.62 0.391,0.43 0.92,0.672 1.473,0.672 4.268,0 18.232,0 22.5,0 0.553,0 1.082,-0.242 1.473,-0.672 0.391,-0.429 0.61,-1.012 0.61,-1.62 v -8.25 c 0,-0.608 -0.219,-1.191 -0.61,-1.62 -0.391,-0.43 -0.92,-0.672 -1.473,-0.672 -3.331,0 -18.75,0 -18.75,0 -0.46,0 -0.833,0.411 -0.833,0.917 0,0.506 0.373,0.917 0.833,0.917 h 18.75 c 0.111,0 0.216,0.048 0.295,0.134 0.078,0.086 0.122,0.202 0.122,0.324 0,0 0,8.25 0,8.25 0,0.122 -0.044,0.238 -0.122,0.324 -0.079,0.086 -0.184,0.134 -0.295,0.134 h -22.5 c -0.111,0 -0.216,-0.048 -0.295,-0.134 -0.078,-0.086 -0.122,-0.202 -0.122,-0.324 0,0 0,-8.25 0,-8.25 0,-0.122 0.044,-0.238 0.122,-0.324 0.079,-0.086 0.184,-0.134 0.295,-0.134 h 1.25 c 0.46,0 0.833,-0.411 0.833,-0.917 0,-0.506 -0.373,-0.917 -0.833,-0.917 z"
           id="path10"
           style="fill:#4b4b4b" /></g><g
         transform="matrix(0.8,0,0,0.8,-22.8,-11.8667)"
         id="g16"
         style="fill:#4b4b4b"><path
           d="m 168.5,98.167 c -1.84,0 -3.333,1.493 -3.333,3.333 0,1.84 1.493,3.333 3.333,3.333 1.84,0 3.333,-1.493 3.333,-3.333 0,-1.84 -1.493,-3.333 -3.333,-3.333 z m 0,1.666 c 0.92,0 1.667,0.747 1.667,1.667 0,0.92 -0.747,1.667 -1.667,1.667 -0.92,0 -1.667,-0.747 -1.667,-1.667 0,-0.92 0.747,-1.667 1.667,-1.667 z"
           id="path14"
           style="fill:#4b4b4b" /></g><g
         transform="matrix(0.933333,0,0,0.933333,-44.3333,-23.4667)"
         id="g20"
         style="fill:#4b4b4b"><path
           d="m 167.129,87.997 c -0.161,-0.129 -0.344,-0.297 -0.556,-0.506 -0.254,-0.25 -0.652,-0.275 -0.935,-0.059 -0.933,0.713 -1.352,1.579 -1.352,3.068 0,1.774 1.44,3.214 3.214,3.214 1.774,0 3.214,-1.44 3.214,-3.214 0,-2.175 -0.409,-3.385 -0.812,-4.441 -0.35,-0.916 -0.707,-1.696 -0.688,-3.049 0.004,-0.26 -0.134,-0.501 -0.359,-0.63 -0.225,-0.129 -0.503,-0.126 -0.725,0.009 -0.502,0.304 -0.826,0.807 -0.996,1.446 -0.194,0.734 -0.177,1.672 -0.114,2.563 0.042,0.58 0.101,1.138 0.109,1.583 z m 1.306,-1.771 c 0.395,1.023 0.851,2.116 0.851,4.274 0,0.986 -0.8,1.786 -1.786,1.786 -0.986,0 -1.786,-0.8 -1.786,-1.786 0,-0.66 0.107,-1.134 0.377,-1.513 0.434,0.367 0.768,0.559 1.008,0.633 0.35,0.108 0.624,0.055 0.84,-0.061 0.204,-0.109 0.377,-0.292 0.486,-0.568 0.08,-0.203 0.127,-0.488 0.133,-0.835 0.008,-0.511 -0.075,-1.209 -0.123,-1.93 z"
           id="path18"
           style="fill:#4b4b4b" /></g><g
         transform="scale(0.666667)"
         id="g24"
         style="fill:#4b4b4b"><path
           d="M 159.382,103 H 157 c -0.552,0 -1,0.448 -1,1 0,0.552 0.448,1 1,1 h 2.382 l -0.276,0.553 c -0.247,0.493 -0.047,1.095 0.447,1.341 0.493,0.247 1.095,0.047 1.341,-0.447 l 1,-2 c 0.141,-0.281 0.141,-0.613 0,-0.894 l -1,-2 c -0.246,-0.494 -0.848,-0.694 -1.341,-0.447 -0.494,0.246 -0.694,0.848 -0.447,1.341 z"
           id="path22"
           style="fill:#4b4b4b" /></g><g
         transform="scale(0.666667)"
         id="g28"
         style="fill:#4b4b4b"><path
           d="M 176.618,105 H 179 c 0.552,0 1,-0.448 1,-1 0,-0.552 -0.448,-1 -1,-1 h -2.382 l 0.276,-0.553 c 0.247,-0.493 0.047,-1.095 -0.447,-1.341 -0.493,-0.247 -1.095,-0.047 -1.341,0.447 l -1,2 c -0.141,0.281 -0.141,0.613 0,0.894 l 1,2 c 0.246,0.494 0.848,0.694 1.341,0.447 0.494,-0.246 0.694,-0.848 0.447,-1.341 z"
           id="path26"
           style="fill:#4b4b4b" /></g></g></g></svg>
