<?xml version="1.0" encoding="UTF-8" standalone="no"?>
<svg
   version="1.1"
   x="0px"
   y="0px"
   viewBox="0 0 90.004807 87.327393"
   enable-background="new 0 0 100 100"
   xml:space="preserve"
   id="svg8"
   sodipodi:docname="first-calendar.svg"
   width="90.004807"
   height="87.327393"
   inkscape:version="1.1.2 (0a00cf5339, 2022-02-04)"
   xmlns:inkscape="http://www.inkscape.org/namespaces/inkscape"
   xmlns:sodipodi="http://sodipodi.sourceforge.net/DTD/sodipodi-0.dtd"
   xmlns="http://www.w3.org/2000/svg"
   xmlns:svg="http://www.w3.org/2000/svg"><defs
     id="defs12" /><sodipodi:namedview
     id="namedview10"
     pagecolor="#ffffff"
     bordercolor="#666666"
     borderopacity="1.0"
     inkscape:pageshadow="2"
     inkscape:pageopacity="0.0"
     inkscape:pagecheckerboard="0"
     showgrid="false"
     fit-margin-top="0"
     fit-margin-left="0"
     fit-margin-right="0"
     fit-margin-bottom="0"
     inkscape:zoom="6.088"
     inkscape:cx="45.00657"
     inkscape:cy="56.011827"
     inkscape:window-width="1920"
     inkscape:window-height="1052"
     inkscape:window-x="3840"
     inkscape:window-y="0"
     inkscape:window-maximized="1"
     inkscape:current-layer="svg8" /><path
     fill-rule="evenodd"
     clip-rule="evenodd"
     d="m 76.372847,6.1293912 c 0.232,0.133 0.383,0.35 0.449,0.648 l 13.15,59.9999998 c 0.066,0.268 0.033,0.518 -0.1,0.75 -0.168,0.201 -0.367,0.334 -0.602,0.4 l -65.148,19.4 c -0.135,0 -0.334,-0.066 -0.602,-0.199 l -0.299,-0.301 -20.2500004,-7.1 c -0.467,-0.133 -0.668,-0.434 -0.6,-0.9 0,-0.467 0.215,-0.783 0.648,-0.949 l 17.5000004,-5.15 -0.35,-2.25 -18.9490004,5.25 c -0.301,0.1 -0.584,0.033 -0.85,-0.201 -0.301,-0.232 -0.418,-0.516 -0.352,-0.85 l 5,-53.85 c 0,-0.467 0.25,-0.75 0.75,-0.85 l 17.2010004,-4.35 c -0.367,-0.834 -0.885,-1.467 -1.551,-1.9 -1.299,-1.133 -2.549,-1.5 -3.75,-1.1 -1.133,0.434 -2.016,1.365 -2.65,2.799 -0.066,0.066 -0.148,0.35 -0.25,0.85 -0.033,0.234 -0.184,0.418 -0.449,0.551 -0.234,0.166 -0.467,0.217 -0.699,0.15 -0.234,-0.033 -0.434,-0.184 -0.602,-0.451 -0.133,-0.199 -0.184,-0.432 -0.148,-0.699 l 0.35,-1.199 c 0.934,-1.967 2.217,-3.25 3.85,-3.852 1.9,-0.566 3.75,-0.115 5.551,1.352 0.932,0.699 1.715,1.699 2.35,3 l 14.9,-3.301 c -0.4,-0.867 -1.051,-1.666 -1.951,-2.3999998 -1.133,-0.865 -2.299,-1.15 -3.5,-0.85 -1.266,0.334 -2.166,1.217 -2.699,2.6499998 l -0.15,0.549 c -0.033,0.234 -0.15,0.451 -0.35,0.65 -0.168,0.201 -0.385,0.301 -0.65,0.301 h -0.051 c -0.6,0 -0.898,-0.316 -0.898,-0.951 0,-0.365 0.082,-0.799 0.25,-1.299 0.766,-1.9999998 2.133,-3.2679998 4.1,-3.8009998 1.799,-0.434 3.516,-0.033 5.15,1.201 1.166,0.934 2.033,2.016 2.6,3.2499998 l 0.4,-0.102 h 0.049 l 11.701,-2.9999998 c -0.5,-0.666 -1.084,-1.232 -1.75,-1.699 -1.102,-1 -2.201,-1.367 -3.301,-1.1 -1.367,0.299 -2.35,1.184 -2.949,2.65 l -0.051,0.049 c -0.066,0.135 -0.1,0.385 -0.1,0.75 0,0.268 -0.1,0.5 -0.301,0.701 -0.166,0.166 -0.383,0.25 -0.65,0.25 -0.299,0 -0.533,-0.084 -0.699,-0.25 -0.199,-0.201 -0.301,-0.434 -0.301,-0.701 0,-0.566 0.102,-1.082 0.301,-1.549 0.867,-2.102 2.283,-3.367 4.25,-3.801 1.699,-0.467 3.383,0.018 5.051,1.449 0.965,0.701 1.799,1.617 2.5,2.75 l 12.398,-2.898 c -0.434,-0.566 -0.883,-1.018 -1.35,-1.352 l -0.1,-0.1 c -1.234,-1.1 -2.367,-1.449 -3.4,-1.049 -1.232,0.299 -2.117,1.133 -2.65,2.5 -0.066,0.266 -0.232,0.449 -0.5,0.549 -0.232,0.1 -0.482,0.1 -0.75,0 -0.266,-0.033 -0.467,-0.184 -0.6,-0.449 -0.066,-0.234 -0.066,-0.484 0,-0.75 0.768,-2.1 2.1,-3.35000002 4,-3.75000002 1.701,-0.566 3.416,-0.066 5.15,1.50000002 0.934,0.666 1.75,1.6 2.449,2.799 0.168,0.102 0.268,0.25 0.301,0.451 l 0.699,2.199 4.051,-1.15 c 0.268,-0.03 0.536,0.003 0.803,0.105 z m -4.451,2.949 c -0.033,1.4999998 -0.299,2.8829998 -0.799,4.1499998 -0.635,2.166 -1.967,3.449 -4,3.85 l -0.201,0.051 h -0.1 c -0.5,0 -0.834,-0.234 -1,-0.701 l -0.65,-2.1 c -0.166,-0.6 0.033,-1.016 0.6,-1.25 0.635,-0.166 1.066,0.051 1.301,0.65 l 0.4,1.25 c 0.832,-0.4 1.434,-1.184 1.799,-2.35 0.367,-0.934 0.584,-1.951 0.65,-3.0509998 l -12.1,2.8009998 -0.65,0.25 c 0,1.066 -0.184,2.299 -0.549,3.699 -0.801,2.199 -2.201,3.518 -4.201,3.949 l -0.199,0.051 h -0.1 c -0.5,0 -0.818,-0.266 -0.951,-0.801 l -0.549,-2.1 c -0.068,-0.232 -0.035,-0.482 0.1,-0.75 0.166,-0.232 0.383,-0.365 0.65,-0.4 0.266,-0.066 0.516,-0.049 0.75,0.051 0.199,0.166 0.332,0.383 0.398,0.65 l 0.301,1.1 c 0.9,-0.4 1.533,-1.184 1.9,-2.35 0.266,-0.834 0.416,-1.666 0.449,-2.5 l -12.199,2.799 c 0.1,1.4 -0.117,2.668 -0.65,3.801 -0.699,2.1 -1.984,3.416 -3.85,3.949 l -0.25,0.051 h -0.5 c -0.566,0 -0.885,-0.283 -0.951,-0.85 l -0.25,-2.35 c -0.033,-0.268 0.033,-0.518 0.201,-0.75 0.166,-0.201 0.383,-0.316 0.65,-0.352 0.266,-0.033 0.516,0.035 0.75,0.201 0.199,0.166 0.316,0.383 0.35,0.65 l 0.15,1.25 c 0.898,-0.467 1.516,-1.301 1.85,-2.5 l 0.049,-0.102 c 0.334,-0.766 0.484,-1.615 0.451,-2.549 l -14.551,3.75 c 0,1.4 -0.25,2.633 -0.75,3.699 -0.9,2.168 -2.184,3.434 -3.85,3.801 h -0.65 c -0.5,0 -0.799,-0.25 -0.9,-0.75 l -0.398,-2.1 c -0.035,-0.268 0.016,-0.518 0.148,-0.75 0.168,-0.201 0.367,-0.334 0.602,-0.4 0.266,-0.033 0.516,0.016 0.75,0.15 0.232,0.166 0.365,0.383 0.398,0.648 l 0.201,1.051 c 0.766,-0.367 1.4,-1.184 1.9,-2.449 0.332,-0.701 0.533,-1.5 0.6,-2.4 l -10.9,2.6 1.85,10.051 61.775,-15.602 -2.125,-9.5999998 z m -2.4,-1.699 -0.25,-0.951 -12.699,2.951 0.1,0.7989998 0.15,0.4 0.4,-0.1 h 0.049 l 12.352,-2.8999998 z m -14.899,2.449 -12.051,3.1499998 0.15,0.4 c 0.1,0.1 0.15,0.25 0.15,0.449 v 0.199 l 12.148,-2.799 -0.148,-0.201 z m -3.351,29.0509998 c 0.4,1.398 1.201,2 2.4,1.799 l 3.801,-0.949 c 1.332,-0.4 1.816,-1.268 1.449,-2.6 l -1,-3.9 c -0.133,-0.6 -0.383,-1 -0.75,-1.201 -0.166,-0.1 -0.4,-0.148 -0.699,-0.148 l -4.65,0.898 c -1.301,0.367 -1.801,1.217 -1.5,2.551 z m 18.451,-10.451 -4,0.951 c -1.301,0.332 -1.834,1.166 -1.6,2.5 l 1.199,3.549 c 0.133,0.768 0.383,1.301 0.75,1.6 0.367,0.268 0.949,0.334 1.75,0.201 l 3.551,-1.201 c 0.732,-0.1 1.232,-0.332 1.5,-0.699 0.266,-0.367 0.316,-0.883 0.148,-1.551 l -1.148,-3.648 c -0.201,-0.867 -0.5,-1.418 -0.9,-1.65 -0.301,-0.203 -0.717,-0.218 -1.25,-0.052 z m -1.701,14.701 c -0.232,0.332 -0.266,0.949 -0.1,1.85 l 0.801,3.65 c 0.199,0.732 0.5,1.199 0.9,1.398 0.432,0.234 0.982,0.25 1.648,0.051 l 3.551,-0.85 c 0.834,-0.201 1.367,-0.5 1.6,-0.9 0.201,-0.434 0.217,-0.949 0.051,-1.551 l -0.9,-3.699 c -0.199,-0.766 -0.518,-1.266 -0.949,-1.5 -0.168,-0.1 -0.4,-0.15 -0.701,-0.15 -0.299,0 -0.6,0.051 -0.9,0.15 l -3.75,0.801 c -0.634,0.133 -1.05,0.383 -1.251,0.75 z m -5.25,7.148 -1.148,-3.75 c -0.334,-1.432 -1.201,-1.982 -2.602,-1.648 l -3.449,1.199 h -0.1 c -0.801,0.1 -1.316,0.35 -1.551,0.75 -0.299,0.334 -0.367,0.834 -0.199,1.5 l 1.049,3.949 c 0.334,1.234 1.168,1.734 2.5,1.5 l 3.801,-1.049 c 1.367,-0.4 1.933,-1.216 1.699,-2.451 z m -17.399,-1.75 -3.852,1.051 c -0.699,0.166 -1.184,0.4 -1.449,0.699 -0.199,0.4 -0.199,0.951 0,1.65 l 0.9,3.801 c 0.299,1.367 1.15,1.9 2.549,1.6 l 3.852,-1.15 c 0.699,-0.166 1.115,-0.416 1.25,-0.75 0.232,-0.332 0.215,-0.783 -0.051,-1.35 v -0.051 l -1,-4 c -0.166,-0.666 -0.4,-1.115 -0.699,-1.35 -0.268,-0.166 -0.551,-0.25 -0.852,-0.25 z m 0,14.102 c -0.768,0.199 -1.285,0.5 -1.551,0.898 -0.199,0.434 -0.217,0.951 -0.051,1.551 l 0.9,3.801 c 0.301,1.332 1.217,1.85 2.75,1.549 l 3.5,-1 c 0.701,-0.166 1.166,-0.449 1.4,-0.85 0.199,-0.367 0.232,-0.85 0.1,-1.449 l -0.949,-3.9 c -0.234,-1.1 -0.801,-1.65 -1.701,-1.65 l -0.75,0.051 z m -19.451,-45.451 0.201,1.15 14.75,-3.85 v -0.451 l -0.15,-0.398 -14.951,3.299 z m -1.85,0.701 -0.25,-0.451 -16.9000004,4.25 -4.85,51.801 17.8010004,-4.951 -8.4,-45.75 c -0.135,-0.6 0.1,-0.982 0.699,-1.148 l 12.051,-2.9 z m 13.75,18.5 c -0.734,0.199 -1.184,0.467 -1.35,0.799 -0.234,0.434 -0.268,1 -0.1,1.701 l 0.949,3.699 c 0.266,0.734 0.6,1.199 1,1.4 0.367,0.166 0.816,0.15 1.35,-0.051 l 3.9,-0.65 c 1.367,-0.365 1.916,-1.215 1.65,-2.549 l -1.051,-3.701 v -0.049 c -0.133,-0.701 -0.416,-1.184 -0.85,-1.451 -0.133,-0.1 -0.316,-0.148 -0.551,-0.148 -0.133,0 -0.434,0.066 -0.898,0.199 z m -11,18.75 0.6,4.049 c 0.467,1.234 1.367,1.668 2.701,1.301 l 3.699,-0.9 c 1.4,-0.434 1.9,-1.283 1.5,-2.551 l -0.949,-3.699 c -0.168,-0.801 -0.467,-1.301 -0.9,-1.5 -0.168,-0.133 -0.434,-0.199 -0.801,-0.199 -0.367,0 -0.633,0.033 -0.799,0.1 l -3.701,1.15 c -0.699,0.133 -1.15,0.383 -1.35,0.75 -0.234,0.298 -0.234,0.798 0,1.499 z m -6,19.549 -14.3010004,4.25 16.3010004,5.65 z"
     id="path2"
     style="fill:#bebebe" /></svg>
