<?xml version="1.0" encoding="UTF-8" standalone="no"?>
<svg
   version="1.1"
   x="0px"
   y="0px"
   viewBox="0 0 82.292206 61.490234"
   xml:space="preserve"
   id="svg899"
   sodipodi:docname="first-floor-white.svg"
   width="82.292206"
   height="61.490234"
   inkscape:version="1.2.2 (b0a8486541, 2022-12-01)"
   xmlns:inkscape="http://www.inkscape.org/namespaces/inkscape"
   xmlns:sodipodi="http://sodipodi.sourceforge.net/DTD/sodipodi-0.dtd"
   xmlns="http://www.w3.org/2000/svg"
   xmlns:svg="http://www.w3.org/2000/svg"><defs
     id="defs903" /><sodipodi:namedview
     id="namedview901"
     pagecolor="#ffffff"
     bordercolor="#000000"
     borderopacity="0.25"
     inkscape:showpageshadow="2"
     inkscape:pageopacity="0.0"
     inkscape:pagecheckerboard="0"
     inkscape:deskcolor="#d1d1d1"
     showgrid="false"
     inkscape:zoom="7.144"
     inkscape:cx="42.343225"
     inkscape:cy="29.465286"
     inkscape:window-width="1920"
     inkscape:window-height="1044"
     inkscape:window-x="3840"
     inkscape:window-y="0"
     inkscape:window-maximized="1"
     inkscape:current-layer="svg899" /><path
     id="path879"
     style="fill:#ffffff"
     d="m 32.292205,0 v 58.990235 c 0,1.399994 1.100003,2.5 2.5,2.5 h 45 c 1.399997,0 2.5,-1.100006 2.5,-2.5 V 0.517578 c -1.666682,-0.0177 -3.333357,-0.03917 -5,-0.05859 v 56.03125 h -40 V 0.021488 c -1.666589,-0.006 -3.333353,-0.01247 -5,-0.02148 z" /><path
     d="m 52.292205,41.491016 h -10 v 10 h 10 z m -2.5,7.5 h -5 v -5 h 5 z"
     id="path881"
     style="fill:#ffffff" /><path
     d="m 72.292205,41.491016 h -10 v 10 h 10 z m -2.5,7.5 h -5 v -5 h 5 z"
     id="path883"
     style="fill:#ffffff" /><path
     d="m 72.292205,21.491016 h -10 v 10 h 10 z m -2.5,7.5 h -5 v -5 h 5 z"
     id="path885"
     style="fill:#ffffff" /><path
     d="m 52.292205,21.491016 h -10 v 10 h 10 z m -2.5,7.5 h -5 v -5 h 5 z"
     id="path887"
     style="fill:#ffffff" /><path
     d="m 52.292205,1.491016 h -10 v 10 h 10 z m -2.5,7.5 h -5 v -5 h 5 z"
     id="path889"
     style="fill:#ffffff" /><path
     d="m 72.292205,1.491016 h -10 v 10 h 10 z m -2.5,7.5 h -5 v -5 h 5 z"
     id="path891"
     style="fill:#ffffff" /><path
     d="M 31.344184,47.874597 20.776276,38.354978 a 2.587404,2.3307448 0 1 0 -3.659604,3.293696 L 23.36368,47.26733 H 2.5874042 a 2.5874042,2.330745 0 0 0 0,4.66149 H 23.305897 l -6.189225,5.583956 a 2.587404,2.3307448 0 0 0 3.659604,3.293694 l 10.567908,-9.519617 a 2.5681429,2.3133944 0 0 0 0.757602,-1.648293 0.40769269,0.36725135 0 0 0 0,-0.05783 0.45263519,0.40773576 0 0 0 0,-0.05783 2.5906142,2.3336365 0 0 0 -0.757602,-1.648293 z"
     id="path1146"
     style="stroke-width:0.304681;fill:#ffffff" /></svg>
