<?xml version="1.0" encoding="UTF-8" standalone="no"?>
<svg
   version="1.1"
   viewBox="-5 -10 73.002907 100.01843"
   id="svg261"
   sodipodi:docname="flame.svg"
   width="73.002907"
   height="100.01843"
   inkscape:version="1.2.2 (b0a8486541, 2022-12-01)"
   xmlns:inkscape="http://www.inkscape.org/namespaces/inkscape"
   xmlns:sodipodi="http://sodipodi.sourceforge.net/DTD/sodipodi-0.dtd"
   xmlns="http://www.w3.org/2000/svg"
   xmlns:svg="http://www.w3.org/2000/svg">
  <defs
     id="defs265" />
  <sodipodi:namedview
     id="namedview263"
     pagecolor="#ffffff"
     bordercolor="#000000"
     borderopacity="0.25"
     inkscape:showpageshadow="2"
     inkscape:pageopacity="0.0"
     inkscape:pagecheckerboard="0"
     inkscape:deskcolor="#d1d1d1"
     showgrid="false"
     showguides="true"
     inkscape:zoom="6.4222222"
     inkscape:cx="36.513841"
     inkscape:cy="55.821799"
     inkscape:window-width="1864"
     inkscape:window-height="1012"
     inkscape:window-x="1976"
     inkscape:window-y="32"
     inkscape:window-maximized="1"
     inkscape:current-layer="svg261" />
  <path
     d="m 41.347698,90.018429 c -0.42188,0 -0.82812,-0.17188 -1.125,-0.5 -0.42188,-0.46875 -0.5,-1.1562 -0.21875,-1.7031 9.0312,-17.359 7.9531,-32.109 -3.3438,-44.984 -3.0156,7.2031 -7.4844,14.125 -13.297,20.609 -3.9531,4.4062 -5.9844,10.469 -5.5938,16.641 l 0.53125,8.3281 c 0.03125,0.53125 -0.20312,1.0312 -0.64062,1.3281 -0.42188,0.29688 -0.98438,0.35938 -1.4688,0.15625 -2.7344,-1.1562 -5.7031,-3.1094 -9.0625003,-5.9688 -7.35939995,-6.2344 -11.641,-15 -12.094,-24.672 -0.4375,-9.7969 3.2812,-19.484 10.219,-26.547 13.0160003,-13.25 19.3440003,-26.3589996 19.8910003,-41.2499996 0.01563,-0.5625 0.34375,-1.0625 0.84375,-1.2969 0.5,-0.2500004 1.0938,-0.2031204 1.5469,0.125 15.547,11.094 27.297,24.1409996 34.922,38.7499996 5.2344,10.047 6.8438,21.281 4.4844,31.625 -3.1406,13.828 -12.047,24.203 -25.062,29.234 -0.15625,0.09375 -0.34375,0.125 -0.53125,0.125 z m -13.328,-95.6249996 c -1.25,14.391 -8,27.6409996 -20.5940003,40.4529996 -6.3594,6.4688 -9.7656,15.312 -9.3594,24.281 0.40625,8.8125 4.3125,16.797 11.016,22.484 2.1562003,1.8281 4.1719003,3.2812 6.0156003,4.3438 l -0.35938,-5.6875 c -0.45312,-6.9844 1.875,-13.859 6.3594,-18.859 6.1719,-6.875 10.766,-14.25 13.609,-21.922 0.1875,-0.48438 0.60938,-0.84375 1.1094,-0.95312 0.51562,-0.10938 1.0312,0.0625 1.4062,0.4375 12.703,13.219 15.141,28.828 7.2656,46.469 10.031,-5.0938 16.906,-13.984 19.5,-25.438 2.1875,-9.6406 0.6875,-20.141 -4.2188,-29.547 -7.0156,-13.484 -17.688,-25.6089996 -31.75,-36.0619996 z"
     id="path255"
     style="fill:#666666" />
</svg>
