<?xml version="1.0" encoding="UTF-8" standalone="no"?>
<svg
   data-name="Layer 2"
   viewBox="0 0 110 109.78"
   x="0px"
   y="0px"
   version="1.1"
   id="svg445"
   sodipodi:docname="form-intercom.svg"
   width="110"
   height="109.78"
   inkscape:version="1.2.2 (b0a8486541, 2022-12-01)"
   xmlns:inkscape="http://www.inkscape.org/namespaces/inkscape"
   xmlns:sodipodi="http://sodipodi.sourceforge.net/DTD/sodipodi-0.dtd"
   xmlns="http://www.w3.org/2000/svg"
   xmlns:svg="http://www.w3.org/2000/svg">
  <defs
     id="defs449" />
  <sodipodi:namedview
     id="namedview447"
     pagecolor="#ffffff"
     bordercolor="#000000"
     borderopacity="0.25"
     inkscape:showpageshadow="2"
     inkscape:pageopacity="0.0"
     inkscape:pagecheckerboard="0"
     inkscape:deskcolor="#d1d1d1"
     showgrid="false"
     inkscape:zoom="5.41875"
     inkscape:cx="55.086505"
     inkscape:cy="71.141869"
     inkscape:window-width="1864"
     inkscape:window-height="1012"
     inkscape:window-x="1976"
     inkscape:window-y="32"
     inkscape:window-maximized="1"
     inkscape:current-layer="svg445" />
  <path
     d="M 104.33,0 H 5.67 C 2.54,0 0,2.54 0,5.67 v 98.44 c 0,3.13 2.54,5.67 5.67,5.67 h 98.66 c 3.13,0 5.67,-2.54 5.67,-5.67 V 5.67 C 110,2.54 107.46,0 104.33,0 Z M 107,104.11 c 0,1.47 -1.2,2.67 -2.67,2.67 H 5.67 C 4.2,106.78 3,105.58 3,104.11 V 5.67 C 3,4.2 4.2,3 5.67,3 h 98.66 C 105.8,3 107,4.2 107,5.67 Z"
     id="path427"
     style="fill:#666666" />
  <path
     d="m 13.66,63.44 h 82.68 c 0.83,0 1.5,-0.67 1.5,-1.5 V 13.63 c 0,-0.83 -0.67,-1.5 -1.5,-1.5 H 13.66 c -0.83,0 -1.5,0.67 -1.5,1.5 v 48.31 c 0,0.83 0.67,1.5 1.5,1.5 z m 25.49,-2.88 c 0,-8.69 7.09,-15.82 15.85,-15.82 8.76,0 15.85,7.12 15.85,15.82 H 39.14 Z m 6.11,-28.62 c 0,-5.36 4.37,-9.72 9.74,-9.72 5.37,0 9.74,4.36 9.74,9.72 0,5.36 -4.37,9.72 -9.74,9.72 -5.37,0 -9.74,-4.36 -9.74,-9.72 z M 15.16,15.13 h 79.68 v 45.31 h -21 C 73.79,52.38 68.62,45.52 61.43,42.9 72.66,36.3 67.87,19.22 54.99,19.22 42.11,19.22 37.32,36.3 48.55,42.9 41.36,45.52 36.19,52.38 36.14,60.44 H 15.16 Z"
     id="path429"
     style="fill:#666666" />
  <path
     d="m 55,72.57 c -6.93,0 -12.56,5.62 -12.56,12.54 0,6.92 5.63,12.54 12.56,12.54 6.93,0 12.56,-5.62 12.56,-12.54 0,-6.92 -5.63,-12.54 -12.56,-12.54 z m 0,22.08 c -5.27,0 -9.56,-4.28 -9.56,-9.54 0,-5.26 4.29,-9.54 9.56,-9.54 5.27,0 9.56,4.28 9.56,9.54 0,5.26 -4.29,9.54 -9.56,9.54 z"
     id="path431"
     style="fill:#666666" />
  <path
     d="M 93.07,72.57 H 82.2 c -2.85,0 -5.16,2.32 -5.16,5.2 0,2.88 2.32,5.16 5.16,5.16 h 10.87 c 2.85,0 5.16,-2.32 5.16,-5.2 0,-2.88 -2.32,-5.16 -5.16,-5.16 z m 0,7.36 H 82.2 c -1.19,0 -2.16,-0.97 -2.16,-2.2 0,-1.23 0.97,-2.16 2.16,-2.16 h 10.87 c 1.19,0 2.16,0.97 2.16,2.2 0,1.23 -0.97,2.16 -2.16,2.16 z"
     id="path433"
     style="fill:#666666" />
  <path
     d="M 93.05,87.29 H 82.23 c -2.86,0 -5.19,2.32 -5.19,5.18 0,2.86 2.33,5.18 5.19,5.18 h 10.82 c 2.86,0 5.19,-2.32 5.19,-5.18 0,-2.86 -2.33,-5.18 -5.19,-5.18 z m 0,7.36 H 82.23 c -1.21,0 -2.19,-0.98 -2.19,-2.18 0,-1.2 0.98,-2.18 2.19,-2.18 h 10.82 c 1.21,0 2.19,0.98 2.19,2.18 0,1.2 -0.98,2.18 -2.19,2.18 z"
     id="path435"
     style="fill:#666666" />
  <path
     d="M 27.8,72.57 H 16.93 c -2.85,0 -5.16,2.32 -5.16,5.2 0,2.88 2.32,5.16 5.16,5.16 H 27.8 c 2.85,0 5.16,-2.32 5.16,-5.2 0,-2.88 -2.32,-5.16 -5.16,-5.16 z m 0,7.36 H 16.93 c -1.19,0 -2.16,-0.97 -2.16,-2.2 0,-1.23 0.97,-2.16 2.16,-2.16 H 27.8 c 1.19,0 2.16,0.97 2.16,2.2 0,1.23 -0.97,2.16 -2.16,2.16 z"
     id="path437"
     style="fill:#666666" />
  <path
     d="M 27.77,87.29 H 16.95 c -2.86,0 -5.19,2.32 -5.19,5.18 0,2.86 2.33,5.18 5.19,5.18 h 10.82 c 2.86,0 5.19,-2.32 5.19,-5.18 0,-2.86 -2.33,-5.18 -5.19,-5.18 z m 0,7.36 H 16.95 c -1.21,0 -2.19,-0.98 -2.19,-2.18 0,-1.2 0.98,-2.18 2.19,-2.18 h 10.82 c 1.21,0 2.19,0.98 2.19,2.18 0,1.2 -0.98,2.18 -2.19,2.18 z"
     id="path439"
     style="fill:#666666" />
</svg>
