<?xml version="1.0" encoding="UTF-8" standalone="no"?>
<svg
   version="1.1"
   viewBox="-5 -10 84.375 84.375"
   id="svg210"
   sodipodi:docname="form-reception.svg"
   width="84.375"
   height="84.375"
   inkscape:version="1.2.2 (b0a8486541, 2022-12-01)"
   xmlns:inkscape="http://www.inkscape.org/namespaces/inkscape"
   xmlns:sodipodi="http://sodipodi.sourceforge.net/DTD/sodipodi-0.dtd"
   xmlns="http://www.w3.org/2000/svg"
   xmlns:svg="http://www.w3.org/2000/svg">
  <defs
     id="defs214" />
  <sodipodi:namedview
     id="namedview212"
     pagecolor="#ffffff"
     bordercolor="#000000"
     borderopacity="0.25"
     inkscape:showpageshadow="2"
     inkscape:pageopacity="0.0"
     inkscape:pagecheckerboard="0"
     inkscape:deskcolor="#d1d1d1"
     showgrid="false"
     inkscape:zoom="6.4222222"
     inkscape:cx="42.275087"
     inkscape:cy="49.904844"
     inkscape:window-width="1920"
     inkscape:window-height="1044"
     inkscape:window-x="3840"
     inkscape:window-y="0"
     inkscape:window-maximized="1"
     inkscape:current-layer="svg210" />
  <path
     d="M 77.8145,30.6255 H 54.3765 V 22.813 c 0,-6.0312 -4.9062,-10.938 -10.938,-10.938 h -12.5 c -6.0312,0 -10.938,4.9062 -10.938,10.938 v 7.8125 H -3.4375 C -4.30078,30.6255 -5,31.32472 -5,32.188 v 6.25 c 0,0.86328 0.69922,1.5625 1.5625,1.5625 H 1.25 v 32.812 c 0,0.86328 0.69922,1.5625 1.5625,1.5625 h 68.75 c 0.86328,0 1.5625,-0.69922 1.5625,-1.5625 v -32.812 h 4.6875 c 0.86328,0 1.5625,-0.69922 1.5625,-1.5625 v -6.25 c 0,-0.86328 -0.69922,-1.5625 -1.5625,-1.5625 z M 23.1265,22.813 c 0,-4.3086 3.5039,-7.8125 7.8125,-7.8125 h 12.5 c 4.3086,0 7.8125,3.5039 7.8125,7.8125 v 7.8125 h -28.125 z m 46.875,48.438 H 4.3765 v -31.25 h 65.625 z m 6.25,-34.375 h -78.125 v -3.125 h 78.125 z M 37.1895,10.688 c 5.7031,0 10.344,-4.6406 10.344,-10.344 0,-5.7034 -4.6406,-10.344 -10.344,-10.344 -5.7034,0 -10.344,4.6406 -10.344,10.344 0,5.7034 4.6406,10.344 10.344,10.344 z m 0,-17.562 c 3.9805,0 7.2188,3.2383 7.2188,7.2188 0,3.9805 -3.2383,7.2188 -7.2188,7.2188 -3.9805,0 -7.2188,-3.2383 -7.2188,-7.2188 0,-3.9805 3.2383,-7.2188 7.2188,-7.2188 z"
     id="path204"
     style="fill:#6a6a6a" />
</svg>
