<?xml version="1.0" encoding="UTF-8" standalone="no"?>
<svg
   version="1.1"
   viewBox="-5 -10 79.976624 59.476601"
   id="svg242"
   sodipodi:docname="form-video-security.svg"
   width="79.976624"
   height="59.476601"
   inkscape:version="1.2.2 (b0a8486541, 2022-12-01)"
   xmlns:inkscape="http://www.inkscape.org/namespaces/inkscape"
   xmlns:sodipodi="http://sodipodi.sourceforge.net/DTD/sodipodi-0.dtd"
   xmlns="http://www.w3.org/2000/svg"
   xmlns:svg="http://www.w3.org/2000/svg">
  <defs
     id="defs246" />
  <sodipodi:namedview
     id="namedview244"
     pagecolor="#ffffff"
     bordercolor="#000000"
     borderopacity="0.25"
     inkscape:showpageshadow="2"
     inkscape:pageopacity="0.0"
     inkscape:pagecheckerboard="0"
     inkscape:deskcolor="#d1d1d1"
     showgrid="false"
     inkscape:zoom="6.4222222"
     inkscape:cx="40.095156"
     inkscape:cy="37.448097"
     inkscape:window-width="1920"
     inkscape:window-height="1044"
     inkscape:window-x="3840"
     inkscape:window-y="0"
     inkscape:window-maximized="1"
     inkscape:current-layer="svg242" />
  <path
     d="M 71.4221,-10 H -1.4219 C -3.3907,-10 -5,-8.3984 -5,-6.4219 v 6.2305 c 0,3.9492 3.2109,7.1484 7.1484,7.1484 h 0.12891 v 9.8086 c 0,18.039 14.68,32.711 32.711,32.711 18.031,0 32.711,-14.68 32.711,-32.711 V 6.957 h 0.12891 c 3.9492,0 7.1484,-3.2109 7.1484,-7.1484 v -6.2305 c 0,-1.9688 -1.6016,-3.5781 -3.5781,-3.5781 z m -6.0938,26.77 c 0,16.719 -13.609,30.328 -30.328,30.328 -16.719,0 -30.328,-13.609 -30.328,-30.328 V 6.9614 h 60.66 V 16.77 Z m 7.293,-16.973 c 0,2.6289 -2.1406,4.7695 -4.7695,4.7695 H 2.1488 c -2.6289,0 -4.7695,-2.1406 -4.7695,-4.7695 v -6.2305 c 0,-0.66016 0.53906,-1.1914 1.1914,-1.1914 h 72.852 c 0.66016,0 1.1914,0.53125 1.1914,1.1914 V -0.203 Z M 35.0003,43.52 c 8.7695,0 15.91,-7.1406 15.91,-15.91 0,-8.7695 -7.1406,-15.91 -15.91,-15.91 -8.7694,0 -15.91,7.1406 -15.91,15.91 0,8.7695 7.1406,15.91 15.91,15.91 z m 0,-29.441 c 7.4609,0 13.531,6.0703 13.531,13.531 0,7.4609 -6.0703,13.531 -13.531,13.531 -7.4607,0 -13.531,-6.0703 -13.531,-13.531 0,-7.4609 6.0703,-13.531 13.531,-13.531 z m 0,21.262 c 4.2617,0 7.7305,-3.4688 7.7305,-7.7305 0,-4.2617 -3.4688,-7.7305 -7.7305,-7.7305 -4.2617,0 -7.7305,3.4688 -7.7305,7.7305 0,4.2617 3.4688,7.7305 7.7305,7.7305 z m 0,-13.082 c 2.9492,0 5.3516,2.3984 5.3516,5.3516 0,2.9492 -2.3984,5.3516 -5.3516,5.3516 -2.9492,0 -5.3516,-2.3984 -5.3516,-5.3516 0,-2.9492 2.3984,-5.3516 5.3516,-5.3516 z m 18.84,-4.6211 c 0,-1.3086 1.0586,-2.3594 2.3594,-2.3594 1.3008,0 2.3594,1.0586 2.3594,2.3594 0,1.3008 -1.0586,2.3594 -2.3594,2.3594 -1.3008,0 -2.3594,-1.0586 -2.3594,-2.3594 z"
     id="path236"
     style="fill:#6a6a6a" />
</svg>
