<?xml version="1.0" encoding="UTF-8" standalone="no"?>
<svg
   version="1.1"
   x="0px"
   y="0px"
   viewBox="0 0 597.8222 893.16888"
   xml:space="preserve"
   id="svg1146"
   sodipodi:docname="form-wardrobe.svg"
   width="597.8222"
   height="893.16888"
   inkscape:version="1.2.2 (b0a8486541, 2022-12-01)"
   xmlns:inkscape="http://www.inkscape.org/namespaces/inkscape"
   xmlns:sodipodi="http://sodipodi.sourceforge.net/DTD/sodipodi-0.dtd"
   xmlns="http://www.w3.org/2000/svg"
   xmlns:svg="http://www.w3.org/2000/svg"><defs
     id="defs1150" /><sodipodi:namedview
     id="namedview1148"
     pagecolor="#ffffff"
     bordercolor="#000000"
     borderopacity="0.25"
     inkscape:showpageshadow="2"
     inkscape:pageopacity="0.0"
     inkscape:pagecheckerboard="0"
     inkscape:deskcolor="#d1d1d1"
     showgrid="false"
     inkscape:zoom="0.69765625"
     inkscape:cx="298.85778"
     inkscape:cy="460.82867"
     inkscape:window-width="1920"
     inkscape:window-height="1044"
     inkscape:window-x="3840"
     inkscape:window-y="0"
     inkscape:window-maximized="1"
     inkscape:current-layer="svg1146" /><g
     id="g1140"
     transform="translate(-213.09333,-65.421111)"
     style="fill:#6a6a6a"><g
       id="g1096"
       style="fill:#6a6a6a"><g
         id="g1094"
         style="fill:#6a6a6a"><path
           d="m 780.84,95.95 c 0,5.2 0,10.4 0,15.59 0,14.4 0,28.81 0,43.21 0,21.94 0,43.89 0,65.83 0,27.48 0,54.96 0,82.43 0,31.31 0,62.63 0,93.94 0,33.37 0,66.73 0,100.1 0,33.63 0,67.26 0,100.89 0,32.26 0,64.52 0,96.77 0,28.78 0,57.55 0,86.33 0,23.67 0,47.35 0,71.02 0,16.78 0,33.56 0,50.35 0,8.1 0.05,16.21 0,24.31 0,0.46 0,0.92 0,1.38 0,0.33 -0.26,2.44 -0.01,0.65 0.29,-2.05 -0.3,0.53 -0.32,0.51 0.41,0.33 0.31,-2.69 0.16,-0.75 -0.13,1.65 1.24,-1.29 0.05,-0.1 -0.94,0.94 1.44,-0.15 0.1,-0.05 -1.94,0.15 1.08,0.25 0.75,-0.16 0.02,0.03 -2.55,0.62 -0.51,0.32 1.81,-0.26 -0.32,0.01 -0.62,0.01 -0.05,0 -0.1,0 -0.15,0 -2.68,0.01 -5.37,0 -8.05,0 -15.73,0 -31.46,0 -47.18,0 -25.98,0 -51.95,0 -77.93,0 -31.93,0 -63.87,0 -95.8,0 -33.6,0 -67.21,0 -100.81,0 -31.12,0 -62.24,0 -93.37,0 -24.03,0 -48.06,0 -72.09,0 -12.81,0 -25.62,0 -38.43,0 -0.95,0 -1.9,0 -2.85,0 -1.12,0 -2.23,-0.25 -0.17,0.04 -1.05,-0.15 -1.34,0.12 -0.58,-0.13 1.84,-0.6 -0.95,-0.08 -0.43,-0.41 0.11,-0.07 1.92,1.65 0.64,0.37 -1.28,-1.28 0.44,0.52 0.37,0.64 -0.33,0.52 0.19,-2.27 -0.41,-0.43 -0.33,1.01 0.51,0.3 -0.13,-0.58 0.23,0.31 0.05,3.43 0.04,0.09 0,-1.43 0,-2.85 0,-4.28 0,-10.18 0,-20.36 0,-30.55 0,-18.57 0,-37.14 0,-55.72 0,-24.99 0,-49.97 0,-74.96 0,-29.69 0,-59.37 0,-89.06 0,-32.6 0,-65.2 0,-97.79 0,-33.72 0,-67.45 0,-101.17 0,-33.22 0,-66.45 0,-99.67 0,-30.6 0,-61.2 0,-91.8 0,-26.36 0,-52.72 0,-79.08 0,-20.33 0,-40.66 0,-60.99 0,-12.52 0,-25.03 0,-37.55 0,-2.78 -0.03,-5.55 0,-8.33 0,-0.41 0,-0.82 0,-1.23 0,-0.22 0.03,-0.53 0.03,-0.67 -0.05,-1.77 -0.03,0.51 -0.07,0.76 0.15,-1.05 -0.12,-1.34 0.13,-0.58 0.6,1.84 0.08,-0.95 0.41,-0.43 0.07,0.11 -1.65,1.92 -0.37,0.64 1.28,-1.28 -0.52,0.44 -0.64,0.37 0.36,-0.22 0.71,-0.43 1.07,-0.65 -0.43,0.16 -0.85,0.32 -1.28,0.48 -0.02,-0.03 2.55,-0.62 0.51,-0.32 -1.81,0.26 0.31,-0.01 0.61,-0.01 0.01,0 0.01,0 0.02,0 0.07,0 0.15,0 0.22,0 9.25,-0.02 18.49,0 27.74,0 21.56,0 43.13,0 64.69,0 29.59,0 59.19,0 88.78,0 33.33,0 66.66,0 100,0 32.94,0 65.87,0 98.81,0 27.91,0 55.82,0 83.73,0 18.76,0 37.52,0 56.28,0 4.48,0 8.97,0 13.45,0 0.95,0 1.9,0 2.85,0 0.33,0 0.69,0.04 1.02,0.03 1.77,-0.05 -0.51,-0.03 -0.76,-0.07 1.05,0.15 1.34,-0.12 0.58,0.13 -1.84,0.6 0.95,0.08 0.43,0.41 -0.11,0.07 -1.92,-1.65 -0.64,-0.37 1.28,1.28 -0.44,-0.52 -0.37,-0.64 0.33,-0.52 -0.19,2.27 0.41,0.43 0.33,-1.01 -0.51,-0.3 0.13,0.58 -0.17,-0.22 -0.18,-3.49 -0.04,-0.08 0.33,7.83 6.66,15.37 15,15 7.84,-0.35 15.36,-6.6 15,-15 -0.76,-17.89 -14.5,-30.31 -32.1,-30.4 -4.14,-0.02 -8.27,0 -12.41,0 -18.2,0 -36.41,0 -54.61,0 -27.94,0 -55.89,0 -83.83,0 -32.98,0 -65.96,0 -98.93,0 -33.87,0 -67.74,0 -101.61,0 -30,0 -59.99,0 -89.99,0 -21.95,0 -43.91,0 -65.86,0 -9.24,0 -18.54,-0.29 -27.78,0 -17.25,0.54 -30.16,13.68 -30.6,30.89 -0.06,2.28 0,4.57 0,6.85 0,11.81 0,23.62 0,35.42 0,20.05 0,40.11 0,60.16 0,26.4 0,52.79 0,79.19 0,30.72 0,61.43 0,92.15 0,33.48 0,66.95 0,100.43 0,34.06 0,68.12 0,102.19 0,33.12 0,66.25 0,99.37 0,30.01 0,60.03 0,90.04 0,25.34 0,50.68 0,76.02 0,18.57 0,37.14 0,55.71 0,10.12 0,20.25 0,30.37 0,2.17 -0.03,4.28 0.22,6.44 1.94,16.85 15.45,27.71 32.08,27.77 12.01,0.05 24.03,0 36.04,0 23.71,0 47.43,0 71.14,0 31.18,0 62.36,0 93.54,0 34.07,0 68.15,0 102.22,0 32.34,0 64.68,0 97.01,0 26.45,0 52.91,0 79.36,0 15.88,0 31.76,0 47.64,0 2.65,0 5.31,0.09 7.95,0 17.32,-0.57 30.12,-13.76 30.52,-31 0.17,-7.21 0,-14.45 0,-21.67 0,-16.34 0,-32.68 0,-49.02 0,-23.45 0,-46.9 0,-70.36 0,-28.93 0,-57.87 0,-86.8 0,-32.29 0,-64.57 0,-96.86 0,-34.1 0,-68.19 0,-102.29 0,-33.89 0,-67.77 0,-101.66 0,-31.67 0,-63.33 0,-95 0,-27.89 0,-55.79 0,-83.68 0,-22 0,-44.01 0,-66.01 0,-14.47 0,-28.94 0,-43.4 0,-4.95 0,-9.9 0,-14.86 0,-7.85 -6.9,-15.36 -15,-15 -8.13,0.37 -15,6.6 -15,15.01 z"
           id="path1092"
           style="fill:#6a6a6a" /></g></g><g
       id="g1102"
       style="fill:#6a6a6a"><g
         id="g1100"
         style="fill:#6a6a6a"><path
           d="m 228.11,218.61 c 18.86,0 37.71,0 56.57,0 45.27,0 90.54,0 135.81,0 54.58,0 109.15,0 163.73,0 47.19,0 94.38,0 141.57,0 22.99,0 46.09,0.64 69.07,0 0.32,-0.01 0.65,0 0.97,0 7.85,0 15.36,-6.9 15,-15 -0.36,-8.13 -6.59,-15 -15,-15 -18.86,0 -37.71,0 -56.57,0 -45.27,0 -90.54,0 -135.81,0 -54.58,0 -109.15,0 -163.73,0 -47.19,0 -94.38,0 -141.57,0 -22.99,0 -46.09,-0.64 -69.07,0 -0.32,0.01 -0.65,0 -0.97,0 -7.85,0 -15.36,6.9 -15,15 0.36,8.13 6.59,15 15,15 z"
           id="path1098"
           style="fill:#6a6a6a" /></g></g><g
       id="g1108"
       style="fill:#6a6a6a"><g
         id="g1106"
         style="fill:#6a6a6a"><path
           d="m 504.4,233.12 c -40.37,27.61 -80.74,55.22 -121.1,82.83 -7.14,4.88 -14.27,9.76 -21.41,14.64 -3.96,2.71 -7.61,5.53 -9.87,9.96 -7.48,14.63 3.56,30.97 19.37,31.56 13.6,0.51 27.32,0 40.92,0 60.3,0 120.6,0 180.91,0 18.71,0 37.41,0 56.12,0 1.09,0 2.18,0.04 3.27,0 16.06,-0.62 27.36,-17.82 18.93,-32.47 -3.74,-6.49 -12.22,-10.94 -18.31,-15.1 -43.43,-29.7 -86.86,-59.41 -130.29,-89.11 -1.13,-0.77 -2.26,-1.55 -3.39,-2.32 -6.69,-4.58 -16.64,-1.26 -20.52,5.38 -4.34,7.42 -1.32,15.94 5.38,20.52 38.64,26.43 77.27,52.85 115.91,79.28 7.99,5.47 15.99,10.93 23.98,16.4 1.41,0.97 2.91,2.32 4.46,3.05 -6.39,-2.99 -5.24,-17.56 3.88,-15.64 -0.21,-0.04 -0.45,0.02 -0.67,0 -4.64,-0.52 -9.63,0 -14.29,0 -9.79,0 -19.58,0 -29.37,0 -58.35,0 -116.7,0 -175.05,0 -18.82,0 -37.64,0 -56.46,0 -1.59,0 -3.34,-0.2 -4.92,0 -0.18,0.02 -0.38,-0.04 -0.56,0 6.92,-1.46 9.78,8.19 7.02,12.68 -0.32,0.51 -3.71,3.26 -3.08,2.93 5.09,-2.69 9.81,-6.71 14.55,-9.95 42.21,-28.87 84.42,-57.74 126.62,-86.61 1.04,-0.71 2.08,-1.42 3.12,-2.13 6.68,-4.57 9.68,-13.18 5.38,-20.52 -3.87,-6.61 -13.81,-9.97 -20.53,-5.38 z"
           id="path1104"
           style="fill:#6a6a6a" /></g></g><g
       id="g1114"
       style="fill:#6a6a6a"><g
         id="g1112"
         style="fill:#6a6a6a"><path
           d="m 527.55,246.08 c 0,-14.15 0,-28.31 0,-42.46 0,-7.85 -6.9,-15.36 -15,-15 -8.13,0.36 -15,6.59 -15,15 0,14.15 0,28.31 0,42.46 0,7.85 6.9,15.36 15,15 8.13,-0.37 15,-6.6 15,-15 z"
           id="path1110"
           style="fill:#6a6a6a" /></g></g><g
       id="g1120"
       style="fill:#6a6a6a"><g
         id="g1118"
         style="fill:#6a6a6a"><path
           d="m 228.11,690.28 c 18.86,0 37.71,0 56.57,0 45.27,0 90.54,0 135.81,0 54.58,0 109.15,0 163.73,0 47.19,0 94.38,0 141.57,0 22.99,0 46.09,0.64 69.07,0 0.32,-0.01 0.65,0 0.97,0 7.85,0 15.36,-6.9 15,-15 -0.36,-8.13 -6.59,-15 -15,-15 -18.86,0 -37.71,0 -56.57,0 -45.27,0 -90.54,0 -135.81,0 -54.58,0 -109.15,0 -163.73,0 -47.19,0 -94.38,0 -141.57,0 -22.99,0 -46.09,-0.64 -69.07,0 -0.32,0.01 -0.65,0 -0.97,0 -7.85,0 -15.36,6.9 -15,15 0.36,8.13 6.59,15 15,15 z"
           id="path1116"
           style="fill:#6a6a6a" /></g></g><g
       id="g1126"
       style="fill:#6a6a6a"><g
         id="g1124"
         style="fill:#6a6a6a"><path
           d="m 496.98,675.28 c 0,30.3 0,60.6 0,90.9 0,48.08 0,96.16 0,144.24 0,11.04 0,22.09 0,33.13 0,7.85 6.9,15.36 15,15 8.13,-0.36 15,-6.59 15,-15 0,-30.3 0,-60.6 0,-90.9 0,-48.08 0,-96.16 0,-144.24 0,-11.04 0,-22.09 0,-33.13 0,-7.85 -6.9,-15.36 -15,-15 -8.13,0.36 -15,6.59 -15,15 z"
           id="path1122"
           style="fill:#6a6a6a" /></g></g><g
       id="g1132"
       style="fill:#6a6a6a"><g
         id="g1130"
         style="fill:#6a6a6a"><path
           d="m 565.83,784.41 c 0,16.67 0,33.34 0,50 0,7.85 6.9,15.36 15,15 8.13,-0.36 15,-6.59 15,-15 0,-16.67 0,-33.34 0,-50 0,-7.85 -6.9,-15.36 -15,-15 -8.13,0.36 -15,6.59 -15,15 z"
           id="path1128"
           style="fill:#6a6a6a" /></g></g><g
       id="g1138"
       style="fill:#6a6a6a"><g
         id="g1136"
         style="fill:#6a6a6a"><path
           d="m 428.12,784.41 c 0,16.67 0,33.34 0,50 0,7.85 6.9,15.36 15,15 8.13,-0.36 15,-6.59 15,-15 0,-16.67 0,-33.34 0,-50 0,-7.85 -6.9,-15.36 -15,-15 -8.13,0.36 -15,6.59 -15,15 z"
           id="path1134"
           style="fill:#6a6a6a" /></g></g></g></svg>
