<?xml version="1.0" encoding="UTF-8" standalone="no"?>
<svg
   viewBox="0 0 32 32"
   x="0px"
   y="0px"
   version="1.1"
   id="svg290"
   sodipodi:docname="form-video-security2.svg"
   width="32"
   height="32"
   inkscape:version="1.2.2 (b0a8486541, 2022-12-01)"
   xmlns:inkscape="http://www.inkscape.org/namespaces/inkscape"
   xmlns:sodipodi="http://sodipodi.sourceforge.net/DTD/sodipodi-0.dtd"
   xmlns="http://www.w3.org/2000/svg"
   xmlns:svg="http://www.w3.org/2000/svg"
   xmlns:rdf="http://www.w3.org/1999/02/22-rdf-syntax-ns#"
   xmlns:cc="http://creativecommons.org/ns#"
   xmlns:dc="http://purl.org/dc/elements/1.1/">
  <defs
     id="defs294" />
  <sodipodi:namedview
     id="namedview292"
     pagecolor="#ffffff"
     bordercolor="#000000"
     borderopacity="0.25"
     inkscape:showpageshadow="2"
     inkscape:pageopacity="0.0"
     inkscape:pagecheckerboard="0"
     inkscape:deskcolor="#d1d1d1"
     showgrid="false"
     inkscape:zoom="21.675"
     inkscape:cx="16.032295"
     inkscape:cy="16.355248"
     inkscape:window-width="1920"
     inkscape:window-height="1044"
     inkscape:window-x="3840"
     inkscape:window-y="0"
     inkscape:window-maximized="1"
     inkscape:current-layer="svg290" />
  <title
     id="title268">Security Camera 2</title>
  <g
     data-name="065 Security Camera 2"
     id="g284"
     style="fill:#6a6a6a">
    <g
       id="g282"
       style="fill:#6a6a6a">
      <path
         d="M 14,0 V 2 H 30 V 8 H 2 V 2 H 4 V 0 H 0 v 10 h 2 v 8 a 14,14 0 0 0 28,0 v -8 h 2 V 0 Z M 28,18 A 12,12 0 0 1 4,18 v -8 h 24 z"
         id="path270"
         style="fill:#6a6a6a" />
      <path
         d="m 16,28 a 8,8 0 1 0 -8,-8 8.009,8.009 0 0 0 8,8 z m 0,-14 a 6,6 0 1 1 -6,6 6.006,6.006 0 0 1 6,-6 z"
         id="path272"
         style="fill:#6a6a6a" />
      <path
         d="m 16,24 a 4,4 0 1 0 -4,-4 4,4 0 0 0 4,4 z m 0,-6 a 2,2 0 1 1 -2,2 2,2 0 0 1 2,-2 z"
         id="path274"
         style="fill:#6a6a6a" />
      <rect
         x="6"
         y="12"
         width="2"
         height="2"
         id="rect276"
         style="fill:#6a6a6a" />
      <rect
         x="6"
         width="2"
         height="2"
         id="rect278"
         y="0"
         style="fill:#6a6a6a" />
      <rect
         x="10"
         width="2"
         height="2"
         id="rect280"
         y="0"
         style="fill:#6a6a6a" />
    </g>
  </g>
  <metadata
     id="metadata312">
    <rdf:RDF>
      <cc:Work
         rdf:about="">
        <dc:title>Security Camera 2</dc:title>
      </cc:Work>
    </rdf:RDF>
  </metadata>
</svg>
