<?xml version="1.0" encoding="UTF-8" standalone="no"?>
<svg
   data-name="Layer 1"
   viewBox="0 0 57.420948 89.999191"
   x="0px"
   y="0px"
   version="1.1"
   id="svg890"
   sodipodi:docname="form-lightning.svg"
   width="57.420948"
   height="89.999191"
   inkscape:version="1.2.2 (b0a8486541, 2022-12-01)"
   xmlns:inkscape="http://www.inkscape.org/namespaces/inkscape"
   xmlns:sodipodi="http://sodipodi.sourceforge.net/DTD/sodipodi-0.dtd"
   xmlns="http://www.w3.org/2000/svg"
   xmlns:svg="http://www.w3.org/2000/svg"
   xmlns:rdf="http://www.w3.org/1999/02/22-rdf-syntax-ns#"
   xmlns:cc="http://creativecommons.org/ns#"
   xmlns:dc="http://purl.org/dc/elements/1.1/">
  <defs
     id="defs894" />
  <sodipodi:namedview
     id="namedview892"
     pagecolor="#ffffff"
     bordercolor="#000000"
     borderopacity="0.25"
     inkscape:showpageshadow="2"
     inkscape:pageopacity="0.0"
     inkscape:pagecheckerboard="0"
     inkscape:deskcolor="#d1d1d1"
     showgrid="false"
     inkscape:zoom="7.144"
     inkscape:cx="28.765398"
     inkscape:cy="35.484323"
     inkscape:window-width="1864"
     inkscape:window-height="1012"
     inkscape:window-x="1976"
     inkscape:window-y="32"
     inkscape:window-maximized="1"
     inkscape:current-layer="svg890" />
  <title
     id="title882">a</title>
  <path
     d="m 57.166395,26.283 a 1.976,1.976 0 0 0 -1.739,-1 l -23.9,0.266 8.53,-22.8859999 A 1.972,1.972 0 0 0 38.210395,9.2533782e-8 h -21.472 A 1.971,1.971 0 0 0 14.890395,1.2840001 c -2.5,6.7 -5.2370003,15.0819999 -7.8850003,23.1849999 -2.328,7.121 -4.734,14.484 -6.88700002,20.413 a 1.972,1.972 0 0 0 1.85100002,2.645 l 21.6860003,0.023 -7.7,40.105 a 1.972,1.972 0 0 0 3.614,1.409 l 37.557,-60.774 a 1.974,1.974 0 0 0 0.04,-2.007 z m -35.316,51.588 6.129,-31.919 a 1.973,1.973 0 0 0 -1.935,-2.344 L 4.7693947,43.586 c 1.918,-5.45 3.981,-11.76 5.9850003,-17.892 2.468,-7.553 5.016,-15.346 7.358,-21.7499999 h 17.262 L 26.831395,26.863 a 1.972,1.972 0 0 0 1.87,2.66 l 23.186,-0.258 z"
     id="path884"
     style="fill:#666666" />
  <metadata
     id="metadata912">
    <rdf:RDF>
      <cc:Work
         rdf:about="">
        <dc:title>a</dc:title>
      </cc:Work>
    </rdf:RDF>
  </metadata>
</svg>
