<?xml version="1.0" encoding="UTF-8" standalone="no"?>
<svg
   version="1.1"
   x="0px"
   y="0px"
   viewBox="0 0 80 80"
   xml:space="preserve"
   id="svg1330"
   sodipodi:docname="form-floorboards.svg"
   width="80"
   height="80"
   inkscape:version="1.2.2 (b0a8486541, 2022-12-01)"
   xmlns:inkscape="http://www.inkscape.org/namespaces/inkscape"
   xmlns:sodipodi="http://sodipodi.sourceforge.net/DTD/sodipodi-0.dtd"
   xmlns="http://www.w3.org/2000/svg"
   xmlns:svg="http://www.w3.org/2000/svg"><defs
     id="defs1334" /><sodipodi:namedview
     id="namedview1332"
     pagecolor="#ffffff"
     bordercolor="#000000"
     borderopacity="0.25"
     inkscape:showpageshadow="2"
     inkscape:pageopacity="0.0"
     inkscape:pagecheckerboard="0"
     inkscape:deskcolor="#d1d1d1"
     showgrid="false"
     inkscape:zoom="7.144"
     inkscape:cx="40.103583"
     inkscape:cy="52.701568"
     inkscape:window-width="1920"
     inkscape:window-height="1044"
     inkscape:window-x="3840"
     inkscape:window-y="0"
     inkscape:window-maximized="1"
     inkscape:current-layer="svg1330" /><path
     d="m 1,80 h 78 c 0.552734,0 1,-0.447754 1,-1 V 1 C 80,0.447754 79.552734,0 79,0 H 1 C 0.447266,0 0,0.447754 0,1 v 78 c 0,0.552246 0.447266,1 1,1 z M 58.155273,78 H 40.640625 V 2 H 58.155273 Z M 38.640625,39 H 21.125 V 2 H 38.640625 Z M 21.125,41 H 38.640625 V 78 H 21.125 Z M 60.155273,78 V 22 H 78 V 78 Z M 78,20 H 60.155273 V 2 H 78 Z M 2,2 H 19.125 V 78 H 2 Z"
     id="path1324"
     style="fill:#6a6a6a" /></svg>
