<?xml version="1.0" encoding="UTF-8" standalone="no"?>
<svg
   viewBox="0 0 74 94"
   x="0px"
   y="0px"
   version="1.1"
   id="svg1524"
   sodipodi:docname="form-shower2.svg"
   width="74"
   height="94"
   inkscape:version="1.2.2 (b0a8486541, 2022-12-01)"
   xmlns:inkscape="http://www.inkscape.org/namespaces/inkscape"
   xmlns:sodipodi="http://sodipodi.sourceforge.net/DTD/sodipodi-0.dtd"
   xmlns="http://www.w3.org/2000/svg"
   xmlns:svg="http://www.w3.org/2000/svg"
   xmlns:rdf="http://www.w3.org/1999/02/22-rdf-syntax-ns#"
   xmlns:cc="http://creativecommons.org/ns#"
   xmlns:dc="http://purl.org/dc/elements/1.1/">
  <defs
     id="defs1528" />
  <sodipodi:namedview
     id="namedview1526"
     pagecolor="#ffffff"
     bordercolor="#000000"
     borderopacity="0.25"
     inkscape:showpageshadow="2"
     inkscape:pageopacity="0.0"
     inkscape:pagecheckerboard="0"
     inkscape:deskcolor="#d1d1d1"
     showgrid="false"
     inkscape:zoom="7.144"
     inkscape:cx="37.024076"
     inkscape:cy="59.700448"
     inkscape:window-width="1920"
     inkscape:window-height="1044"
     inkscape:window-x="3840"
     inkscape:window-y="0"
     inkscape:window-maximized="1"
     inkscape:current-layer="svg1524" />
  <title
     id="title1496">Shower</title>
  <g
     data-name="Layer 9"
     id="g1518"
     transform="translate(-13,-3)"
     style="fill:#6a6a6a">
    <path
       d="M 80.05,23 H 77 V 19 A 6,6 0 0 0 71,13 H 67 V 9 A 6,6 0 0 0 61,3 H 19 a 6,6 0 0 0 -6,6 v 86 a 2,2 0 0 0 4,0 V 82 h 6 v 3 a 2,2 0 0 0 4,0 V 65 a 2,2 0 0 0 -4,0 v 3 H 17 V 9 a 2,2 0 0 1 2,-2 h 42 a 2,2 0 0 1 2,2 v 4 h -4 a 6,6 0 0 0 -6,6 v 4 h -3 a 7,7 0 0 0 -7,7 v 5 a 2,2 0 0 0 2,2 h 40 a 2,2 0 0 0 2,-2 V 30 A 7,7 0 0 0 80.05,23 Z M 23,72 v 6 H 17 V 72 Z M 57,19 a 2,2 0 0 1 2,-2 h 12 a 2,2 0 0 1 2,2 v 4 H 57 Z M 83,33 H 47 v -3 a 3,3 0 0 1 3,-3 h 30.1 a 3,3 0 0 1 2.9,3 z"
       id="path1498"
       style="fill:#6a6a6a" />
    <path
       d="m 50,38 a 2,2 0 0 0 -2,2 v 10 a 2,2 0 0 0 4,0 V 40 a 2,2 0 0 0 -2,-2 z"
       id="path1500"
       style="fill:#6a6a6a" />
    <path
       d="m 65,43 a 2,2 0 0 0 -2,2 v 10 a 2,2 0 0 0 4,0 V 45 a 2,2 0 0 0 -2,-2 z"
       id="path1502"
       style="fill:#6a6a6a" />
    <path
       d="m 80,38 a 2,2 0 0 0 -2,2 v 10 a 2,2 0 0 0 4,0 V 40 a 2,2 0 0 0 -2,-2 z"
       id="path1504"
       style="fill:#6a6a6a" />
    <path
       d="m 50,58 a 2,2 0 0 0 -2,2 v 10 a 2,2 0 0 0 4,0 V 60 a 2,2 0 0 0 -2,-2 z"
       id="path1506"
       style="fill:#6a6a6a" />
    <path
       d="m 80,58 a 2,2 0 0 0 -2,2 v 10 a 2,2 0 0 0 4,0 V 60 a 2,2 0 0 0 -2,-2 z"
       id="path1508"
       style="fill:#6a6a6a" />
    <path
       d="m 65,63 a 2,2 0 0 0 -2,2 v 10 a 2,2 0 0 0 4,0 V 65 a 2,2 0 0 0 -2,-2 z"
       id="path1510"
       style="fill:#6a6a6a" />
    <path
       d="m 50,78 a 2,2 0 0 0 -2,2 v 10 a 2,2 0 0 0 4,0 V 80 a 2,2 0 0 0 -2,-2 z"
       id="path1512"
       style="fill:#6a6a6a" />
    <path
       d="m 80,78 a 2,2 0 0 0 -2,2 v 10 a 2,2 0 0 0 4,0 V 80 a 2,2 0 0 0 -2,-2 z"
       id="path1514"
       style="fill:#6a6a6a" />
    <path
       d="m 65,83 a 2,2 0 0 0 -2,2 v 10 a 2,2 0 0 0 4,0 V 85 a 2,2 0 0 0 -2,-2 z"
       id="path1516"
       style="fill:#6a6a6a" />
  </g>
  <metadata
     id="metadata1546">
    <rdf:RDF>
      <cc:Work
         rdf:about="">
        <dc:title>Shower</dc:title>
      </cc:Work>
    </rdf:RDF>
  </metadata>
</svg>
