<?xml version="1.0" encoding="UTF-8" standalone="no"?>
<svg
   data-name="Layer 1"
   viewBox="0 0 46 44"
   x="0px"
   y="0px"
   version="1.1"
   id="svg358"
   sodipodi:docname="form-alarm.svg"
   width="46"
   height="44"
   inkscape:version="1.2.2 (b0a8486541, 2022-12-01)"
   xmlns:inkscape="http://www.inkscape.org/namespaces/inkscape"
   xmlns:sodipodi="http://sodipodi.sourceforge.net/DTD/sodipodi-0.dtd"
   xmlns="http://www.w3.org/2000/svg"
   xmlns:svg="http://www.w3.org/2000/svg">
  <defs
     id="defs362" />
  <sodipodi:namedview
     id="namedview360"
     pagecolor="#ffffff"
     bordercolor="#000000"
     borderopacity="0.25"
     inkscape:showpageshadow="2"
     inkscape:pageopacity="0.0"
     inkscape:pagecheckerboard="0"
     inkscape:deskcolor="#d1d1d1"
     showgrid="false"
     inkscape:zoom="10.8375"
     inkscape:cx="23.944637"
     inkscape:cy="23.944637"
     inkscape:window-width="1920"
     inkscape:window-height="1044"
     inkscape:window-x="3840"
     inkscape:window-y="0"
     inkscape:window-maximized="1"
     inkscape:current-layer="svg358" />
  <path
     id="path334"
     d="M 3,0 A 3,3 0 0 0 0,3 v 38 a 3,3 0 0 0 3,3 h 40 a 3,3 0 0 0 3,-3 v -3 h -2 v 3 a 1,1 0 0 1 -1,1 H 3 A 1,1 0 0 1 2,41 V 3 A 1,1 0 0 1 3,2 H 6.0273438 C 6.3186276,1.8897929 6.6736782,1.8242187 7.09375,1.8242188 h 2.125 2.658203 2.158203 c 0.595122,-0.00413 1.190002,-0.00741 1.783203,0.044922 0.179203,0.019163 0.358663,0.045302 0.53711,0.070312 C 16.467337,1.9551369 16.572437,1.9766801 16.673828,2 H 32 v 0.042969 c 0.666658,-0.00443 1.333341,-0.00601 2,-0.00781 V 2 h 2 v 0.03125 c 0.381377,-3.962e-4 0.762719,-0.00171 1.144531,-0.00195 0.285264,-0.00107 0.570618,0.016445 0.855469,0.037109 V 2 h 5 a 1,1 0 0 1 1,1 v 29 h 2 V 3 A 3,3 0 0 0 43,0 Z m 2,16 a 1,1 0 0 0 -1,1 v 18 a 1,1 0 0 0 1,1 h 36 a 1,1 0 0 0 1,-1 V 17 a 1,1 0 0 0 -1,-1 h -5.427734 c -0.197412,0.03851 -0.415143,0.06055 -0.654297,0.06055 h -4.021485 -2.24414 c -0.239155,0 -0.456886,-0.02204 -0.654297,-0.06055 H 16.164062 c -0.506834,0.02886 -1.014226,0.05477 -1.521484,0.06641 C 14.146167,16.063871 13.649388,16.05006 13.15625,16 Z m 1,2 H 40 V 34 H 6 Z"
     style="fill:#6a6a6a" />
  <path
     d="m 23,33 a 7,7 0 1 0 -7,-7 7,7 0 0 0 7,7 z m 0,-12 a 5,5 0 1 1 -5,5 5,5 0 0 1 5,-5 z"
     id="path336"
     style="fill:#6a6a6a" />
  <path
     d="M 10,29 A 1,1 0 0 0 10.55,29.89 0.91,0.91 0 0 0 11,30 1,1 0 0 0 11.6,29.8 l 4,-3 a 1,1 0 0 0 0,-1.6 l -4,-3 A 1,1 0 0 0 10.55,22.11 1,1 0 0 0 10,23 v 2 H 7 v 2 h 3 z m 2,-4 1.33,1 -1.33,1 z"
     id="path338"
     style="fill:#6a6a6a" />
  <path
     d="M 34.4,29.8 A 1,1 0 0 0 35,30 0.91,0.91 0 0 0 35.45,29.89 1,1 0 0 0 36,29 v -2 h 3 V 25 H 36 V 23 A 1,1 0 0 0 35.45,22.11 1,1 0 0 0 34.4,22.2 l -4,3 a 1,1 0 0 0 0,1.6 z M 34,25 v 2 l -1.33,-1 z"
     id="path340"
     style="fill:#6a6a6a" />
  <path
     d="m 23,29 a 3,3 0 1 0 -3,-3 3,3 0 0 0 3,3 z m 0,-4 a 1,1 0 1 1 -1,1 1,1 0 0 1 1,-1 z"
     id="path342"
     style="fill:#6a6a6a" />
  <path
     id="rect344"
     d="M 4,4 V 6 H 6 V 4.9785156 C 5.4949101,4.7545583 5.207483,4.3876026 5.1386719,4 Z"
     style="fill:#6a6a6a" />
  <path
     id="rect346"
     d="M 41.400391,4 C 41.222393,4.4321921 40.752962,4.7982355 40,4.9023438 V 6 h 2 V 4 Z"
     style="fill:#6a6a6a" />
  <rect
     x="4"
     y="38"
     width="2"
     height="2"
     id="rect348"
     style="fill:#6a6a6a" />
  <rect
     x="40"
     y="38"
     width="2"
     height="2"
     id="rect350"
     style="fill:#6a6a6a" />
  <rect
     x="44"
     y="34"
     width="2"
     height="2"
     id="rect352"
     style="fill:#6a6a6a" />
</svg>
