<?xml version="1.0" encoding="UTF-8" standalone="no"?>
<svg
   viewBox="0 0 56 32"
   x="0px"
   y="0px"
   version="1.1"
   id="svg1290"
   sodipodi:docname="form-furniture.svg"
   width="56"
   height="32"
   inkscape:version="1.2.2 (b0a8486541, 2022-12-01)"
   xmlns:inkscape="http://www.inkscape.org/namespaces/inkscape"
   xmlns:sodipodi="http://sodipodi.sourceforge.net/DTD/sodipodi-0.dtd"
   xmlns="http://www.w3.org/2000/svg"
   xmlns:svg="http://www.w3.org/2000/svg">
  <defs
     id="defs1294" />
  <sodipodi:namedview
     id="namedview1292"
     pagecolor="#ffffff"
     bordercolor="#000000"
     borderopacity="0.25"
     inkscape:showpageshadow="2"
     inkscape:pageopacity="0.0"
     inkscape:pagecheckerboard="0"
     inkscape:deskcolor="#d1d1d1"
     showgrid="false"
     inkscape:zoom="11.1625"
     inkscape:cx="27.995521"
     inkscape:cy="31.220605"
     inkscape:window-width="1920"
     inkscape:window-height="1044"
     inkscape:window-x="3840"
     inkscape:window-y="0"
     inkscape:window-maximized="1"
     inkscape:current-layer="svg1290" />
  <g
     data-name="Layer 22"
     id="g1284"
     transform="translate(-4,-16)"
     style="fill:#6a6a6a">
    <path
       d="M 36,46 H 33 V 28 h 16 a 1,1 0 0 0 1,-1 v -3 h 1 a 1,1 0 0 0 0,-2 H 13 a 1,1 0 0 0 0,2 h 1 v 3 a 1,1 0 0 0 1,1 h 16 v 18 h -3 a 1,1 0 0 0 0,2 h 8 a 1,1 0 0 0 0,-2 z M 16,24 h 32 v 2 H 16 Z"
       id="path1278"
       style="fill:#6a6a6a" />
    <path
       d="M 19,32 H 6 V 17 a 1,1 0 0 0 -2,0 v 30 a 1,1 0 0 0 2,0 v -9 h 14 v 9 a 1,1 0 0 0 2,0 V 35 A 3,3 0 0 0 19,32 Z M 6,34 h 13 a 1,1 0 0 1 1,1 v 1 H 6 Z"
       id="path1280"
       style="fill:#6a6a6a" />
    <path
       d="m 59,16 a 1,1 0 0 0 -1,1 V 32 H 45 a 3,3 0 0 0 -3,3 v 12 a 1,1 0 0 0 2,0 v -9 h 14 v 9 a 1,1 0 0 0 2,0 V 17 A 1,1 0 0 0 59,16 Z M 44,35 a 1,1 0 0 1 1,-1 h 13 v 2 H 44 Z"
       id="path1282"
       style="fill:#6a6a6a" />
  </g>
</svg>
