<?xml version="1.0" encoding="UTF-8" standalone="no"?>
<svg
   version="1.1"
   viewBox="-5 -10 80 80.005203"
   id="svg1059"
   sodipodi:docname="form-tree.svg"
   width="80"
   height="80.005203"
   inkscape:version="1.2.2 (b0a8486541, 2022-12-01)"
   xmlns:inkscape="http://www.inkscape.org/namespaces/inkscape"
   xmlns:sodipodi="http://sodipodi.sourceforge.net/DTD/sodipodi-0.dtd"
   xmlns="http://www.w3.org/2000/svg"
   xmlns:svg="http://www.w3.org/2000/svg">
  <defs
     id="defs1063" />
  <sodipodi:namedview
     id="namedview1061"
     pagecolor="#ffffff"
     bordercolor="#000000"
     borderopacity="0.25"
     inkscape:showpageshadow="2"
     inkscape:pageopacity="0.0"
     inkscape:pagecheckerboard="0"
     inkscape:deskcolor="#d1d1d1"
     showgrid="false"
     inkscape:zoom="6.4222222"
     inkscape:cx="40.095156"
     inkscape:cy="47.724913"
     inkscape:window-width="1920"
     inkscape:window-height="1044"
     inkscape:window-x="3840"
     inkscape:window-y="0"
     inkscape:window-maximized="1"
     inkscape:current-layer="svg1059" />
  <path
     d="m 74.999614,51.62273 c 0,-0.5 -0.36719,-0.92188 -0.85938,-0.99219 -4.1953,-0.58984 -7.5781,0.20312 -10.055,2.3516 -1.5391,1.3359 -2.5,3.0078 -3.1016,4.5781 -0.60156,-1.5703 -1.5625,-3.2422 -3.1016,-4.5781 -2.4766,-2.1523 -5.8594,-2.9453 -10.055,-2.3516 -0.49219,0.07031 -0.85938,0.49219 -0.85938,0.99219 0,7.3906 5.75,13.461 13.012,13.98 l 0.0039,2.4023 h -23.984 v -26.93 c 1.6211,0.875 3.3984,1.3281 5.1992,1.3281 1.4414,0 2.8945,-0.28516 4.293,-0.86328 3.5195,-1.457 5.9688,-4.4766 6.6719,-8.1719 3.6953,-0.70312 6.7148,-3.1523 8.1719,-6.6719 1.457,-3.5156 1.0508,-7.3867 -1.0625,-10.492 2.1133,-3.1094 2.5195,-6.9766002 1.0625,-10.4920002 -1.457,-3.5195 -4.4766,-5.96879997 -8.1719,-6.67189997 -0.70312,-3.69530003 -3.1523,-6.71480003 -6.6719,-8.17190003 -3.5156,-1.4608998 -7.3828,-1.0585998 -10.492,1.0586 -3.1094,-2.1132998 -6.9766,-2.5155998 -10.492,-1.0625 -3.5195,1.457 -5.9688,4.4766 -6.6719,8.17190003 -3.6953,0.70312 -6.7148,3.15229997 -8.1719,6.67189997 -1.457,3.5156 -1.0508,7.3867002 1.0625,10.4920002 -2.1133,3.1094 -2.5195,6.9766 -1.0625,10.492 1.457,3.5195 4.4766,5.9688 8.1719,6.6719 0.70312,3.6953 3.1523,6.7148 6.6719,8.1719 3.1484,1.3047 6.5781,1.1055 9.4922,-0.46875 v 26.938 h -23.988 V 65.599 c 7.2656,-0.51172 13.016,-6.5859 13.016,-13.98 0,-0.5 -0.36719,-0.92188 -0.85938,-0.99219 -4.1953,-0.58984 -7.5781,0.20312 -10.055,2.3516 -1.5391,1.3359 -2.5,3.0078 -3.1016,4.5781 -0.60156,-1.5703 -1.5625,-3.2422 -3.1016,-4.5781 -2.4727,-2.1445 -5.8555,-2.9375 -10.051,-2.3477 -0.49219,0.07031 -0.85938,0.49219 -0.85938,0.99219 0,7.3906 5.75,13.461 13.012,13.98 v 2.4023 h -12.012 c -0.55469,0 -1,0.44531 -1,1 0,0.55469 0.44531,1 1,1 h 78 c 0.55469,0 1,-0.44531 1,-1 0,-0.55469 -0.44531,-1 -1,-1 h -12.016 V 65.599 c 7.2617,-0.51172 13.016,-6.5859 13.016,-13.977 z m -13.016,11.102 c 0.0039,-0.03906 0.0078,-0.07813 0.0078,-0.11719 v -0.14453 c 0.03516,-0.86719 0.375,-5.3359 3.4219,-7.9766 1.8477,-1.6016 4.3789,-2.2617 7.5586,-1.9766 -0.42969,5.8828 -5.1172,10.602 -10.984,11.086 l -0.0078,-0.87109 z m -36.711,-23.035 c -3.0781,-1.2773 -5.1641,-4.0117 -5.5703,-7.3203 -0.05469,-0.45312 -0.41406,-0.8125 -0.87109,-0.87109 -3.3086,-0.40625 -6.0469,-2.4883 -7.3203,-5.5703 -1.2734,-3.0781 -0.8125,-6.4844 1.2422,-9.1133 0.28125,-0.35938 0.28125,-0.86719 0,-1.2305 -2.0508,-2.625 -2.5156,-6.0352002 -1.2422,-9.1133002 1.2773,-3.0781 4.0117,-5.1641 7.3203,-5.57029997 0.45312,-0.05469 0.8125,-0.41406 0.87109,-0.87109 0.40625,-3.30860003 2.4883,-6.04690003 5.5703,-7.32030003 3.0781,-1.2734 6.4844,-0.8125 9.1133,1.2422 0.35938,0.28125 0.86719,0.28125 1.2305,0 2.6289,-2.0508 6.0352,-2.5117 9.1133,-1.2422 3.0781,1.2773 5.1641,4.0117 5.5703,7.32030003 0.05469,0.45312 0.41406,0.8125 0.87109,0.87109 3.3086,0.40624997 6.0469,2.48829997 7.3203,5.57029997 1.2734,3.0781 0.8125,6.4844002 -1.2422,9.1133002 -0.28125,0.35938 -0.28125,0.86719 0,1.2305 2.0508,2.625 2.5156,6.0352 1.2422,9.1133 -1.2773,3.0781 -4.0117,5.1641 -7.3203,5.5703 -0.45312,0.05469 -0.8125,0.41406 -0.87109,0.87109 -0.40625,3.3086 -2.4883,6.0469 -5.5703,7.3203 -3.0781,1.2734 -6.4844,0.8125 -9.1133,-1.2422 -0.18359,-0.13672 -0.39844,-0.20703 -0.61719,-0.20703 -0.21875,0 -0.43359,0.07031 -0.61719,0.21094 -2.625,2.0508 -6.0312,2.5156 -9.1094,1.2383 z m -15.262,23.035 c 0.0039,-0.03906 0.0078,-0.07813 0.0078,-0.11719 v -0.14453 c 0.03516,-0.86719 0.375,-5.3359 3.4219,-7.9766 1.8477,-1.6016 4.3867,-2.2617 7.5586,-1.9766 -0.42969,5.8828 -5.1172,10.602 -10.984,11.086 z m -12.98,-10.219 c 3.1719,-0.28516 5.7109,0.375 7.5586,1.9766 3.0469,2.6406 3.3828,7.1094 3.4219,7.9766 v 0.14453 0.98438 c -5.8672,-0.48047 -10.551,-5.1992 -10.98,-11.082 z m 51.973,0 c 3.1758,-0.28516 5.7109,0.375 7.5586,1.9766 3.0469,2.6406 3.3828,7.1094 3.4219,7.9766 v 0.14453 0.98828 c -5.8672,-0.48438 -10.551,-5.2031 -10.98,-11.086 z"
     id="path1053"
     style="fill:#6a6a6a" />
</svg>
