<?xml version="1.0" encoding="UTF-8" standalone="no"?>
<svg
   version="1.1"
   viewBox="-5 -10 84.370697 74.219681"
   id="svg1420"
   sodipodi:docname="form-shower.svg"
   width="84.370697"
   height="74.219681"
   inkscape:version="1.2.2 (b0a8486541, 2022-12-01)"
   xmlns:inkscape="http://www.inkscape.org/namespaces/inkscape"
   xmlns:sodipodi="http://sodipodi.sourceforge.net/DTD/sodipodi-0.dtd"
   xmlns="http://www.w3.org/2000/svg"
   xmlns:svg="http://www.w3.org/2000/svg">
  <defs
     id="defs1424" />
  <sodipodi:namedview
     id="namedview1422"
     pagecolor="#ffffff"
     bordercolor="#000000"
     borderopacity="0.25"
     inkscape:showpageshadow="2"
     inkscape:pageopacity="0.0"
     inkscape:pagecheckerboard="0"
     inkscape:deskcolor="#d1d1d1"
     showgrid="false"
     inkscape:zoom="6.6148148"
     inkscape:cx="42.253639"
     inkscape:cy="44.823628"
     inkscape:window-width="1920"
     inkscape:window-height="1044"
     inkscape:window-x="3840"
     inkscape:window-y="0"
     inkscape:window-maximized="1"
     inkscape:current-layer="svg1420" />
  <g
     id="g1414"
     transform="translate(-12.8124,-22.89002)"
     style="fill:#6a6a6a">
    <path
       d="m 87.5,43.359 h -6.0664 l -2.9531,-5.9062 c -0.26562,-0.53125 -0.80469,-0.86328 -1.3984,-0.86328 h -12.059 c -0.79688,-9.4648 -8.7422,-16.93 -18.41,-16.93 h -25.625 c -0.51562,-3.8125 -3.7539,-6.7695 -7.707,-6.7695 H 9.3749 c -0.86328,0 -1.5625,0.69922 -1.5625,1.5625 v 23.699 c 0,0.86328 0.69922,1.5625 1.5625,1.5625 h 3.9062 c 3.9531,0 7.1914,-2.9609 7.707,-6.7734 h 25.625 c 2.3242,0 4.2734,1.543 4.9414,3.6484 h -11.711 c -0.59375,0 -1.1328,0.33594 -1.3984,0.86328 l -2.9531,5.9062 h -6.0664 c -2.5859,0 -4.6875,2.1016 -4.6875,4.6875 v 0.51953 c 0,2.5859 2.1016,4.6875 4.6875,4.6875 h 58.07 c 2.5859,0 4.6875,-2.1016 4.6875,-4.6875 V 48.046 c 0,-2.5859 -2.1016,-4.6875 -4.6875,-4.6875 z M 17.969,31.902 c 0,2.5859 -2.1016,4.6875 -4.6875,4.6875 h -2.3438 v -20.574 h 2.3438 c 2.5859,0 4.6875,2.1016 4.6875,4.6875 z M 46.617,29.8161 H 21.094 v -7.0312 h 25.523 c 7.9453,0 14.5,6.0625 15.281,13.805 h -7.0977 c -0.73438,-3.8516 -4.125,-6.7734 -8.1836,-6.7734 z m -5.8086,9.8984 h 35.312 l 1.8203,3.6445 h -38.957 l 1.8203,-3.6445 z m 48.254,8.8516 c 0,0.86328 -0.70312,1.5625 -1.5625,1.5625 h -58.07 c -0.85938,0 -1.5625,-0.69922 -1.5625,-1.5625 v -0.51953 c 0,-0.86328 0.70312,-1.5625 1.5625,-1.5625 h 58.07 c 0.85938,0 1.5625,0.69922 1.5625,1.5625 z"
       id="path1382"
       style="fill:#6a6a6a" />
    <path
       d="m 33.07,56.902 c -0.86328,0 -1.5625,0.69922 -1.5625,1.5625 v 3.3828 c 0,0.86328 0.69922,1.5625 1.5625,1.5625 0.86328,0 1.5625,-0.69922 1.5625,-1.5625 v -3.3828 c 0,-0.86328 -0.69922,-1.5625 -1.5625,-1.5625 z"
       id="path1384"
       style="fill:#6a6a6a" />
    <path
       d="m 33.07,67.059 c -0.86328,0 -1.5625,0.69922 -1.5625,1.5625 v 6.7695 c 0,0.86328 0.69922,1.5625 1.5625,1.5625 0.86328,0 1.5625,-0.69922 1.5625,-1.5625 v -6.7695 c 0,-0.86328 -0.69922,-1.5625 -1.5625,-1.5625 z"
       id="path1386"
       style="fill:#6a6a6a" />
    <path
       d="m 33.07,80.598 c -0.86328,0 -1.5625,0.69922 -1.5625,1.5625 v 3.3867 c 0,0.86328 0.69922,1.5625 1.5625,1.5625 0.86328,0 1.5625,-0.69922 1.5625,-1.5625 v -3.3867 c 0,-0.86328 -0.69922,-1.5625 -1.5625,-1.5625 z"
       id="path1388"
       style="fill:#6a6a6a" />
    <path
       d="m 45.766,56.902 c -0.86328,0 -1.5625,0.69922 -1.5625,1.5625 v 3.3828 c 0,0.86328 0.69922,1.5625 1.5625,1.5625 0.86328,0 1.5625,-0.69922 1.5625,-1.5625 v -3.3828 c 0,-0.86328 -0.69922,-1.5625 -1.5625,-1.5625 z"
       id="path1390"
       style="fill:#6a6a6a" />
    <path
       d="m 45.766,67.059 c -0.86328,0 -1.5625,0.69922 -1.5625,1.5625 v 6.7695 c 0,0.86328 0.69922,1.5625 1.5625,1.5625 0.86328,0 1.5625,-0.69922 1.5625,-1.5625 v -6.7695 c 0,-0.86328 -0.69922,-1.5625 -1.5625,-1.5625 z"
       id="path1392"
       style="fill:#6a6a6a" />
    <path
       d="m 45.766,80.598 c -0.86328,0 -1.5625,0.69922 -1.5625,1.5625 v 3.3867 c 0,0.86328 0.69922,1.5625 1.5625,1.5625 0.86328,0 1.5625,-0.69922 1.5625,-1.5625 v -3.3867 c 0,-0.86328 -0.69922,-1.5625 -1.5625,-1.5625 z"
       id="path1394"
       style="fill:#6a6a6a" />
    <path
       d="m 58.461,56.902 c -0.86328,0 -1.5625,0.69922 -1.5625,1.5625 v 3.3828 c 0,0.86328 0.69922,1.5625 1.5625,1.5625 0.86328,0 1.5625,-0.69922 1.5625,-1.5625 v -3.3828 c 0,-0.86328 -0.69922,-1.5625 -1.5625,-1.5625 z"
       id="path1396"
       style="fill:#6a6a6a" />
    <path
       d="m 58.461,67.059 c -0.86328,0 -1.5625,0.69922 -1.5625,1.5625 v 6.7695 c 0,0.86328 0.69922,1.5625 1.5625,1.5625 0.86328,0 1.5625,-0.69922 1.5625,-1.5625 v -6.7695 c 0,-0.86328 -0.69922,-1.5625 -1.5625,-1.5625 z"
       id="path1398"
       style="fill:#6a6a6a" />
    <path
       d="m 58.461,80.598 c -0.86328,0 -1.5625,0.69922 -1.5625,1.5625 v 3.3867 c 0,0.86328 0.69922,1.5625 1.5625,1.5625 0.86328,0 1.5625,-0.69922 1.5625,-1.5625 v -3.3867 c 0,-0.86328 -0.69922,-1.5625 -1.5625,-1.5625 z"
       id="path1400"
       style="fill:#6a6a6a" />
    <path
       d="m 71.156,56.902 c -0.86328,0 -1.5625,0.69922 -1.5625,1.5625 v 3.3828 c 0,0.86328 0.69922,1.5625 1.5625,1.5625 0.86328,0 1.5625,-0.69922 1.5625,-1.5625 v -3.3828 c 0,-0.86328 -0.69922,-1.5625 -1.5625,-1.5625 z"
       id="path1402"
       style="fill:#6a6a6a" />
    <path
       d="m 71.156,67.059 c -0.86328,0 -1.5625,0.69922 -1.5625,1.5625 v 6.7695 c 0,0.86328 0.69922,1.5625 1.5625,1.5625 0.86328,0 1.5625,-0.69922 1.5625,-1.5625 v -6.7695 c 0,-0.86328 -0.69922,-1.5625 -1.5625,-1.5625 z"
       id="path1404"
       style="fill:#6a6a6a" />
    <path
       d="m 71.156,80.598 c -0.86328,0 -1.5625,0.69922 -1.5625,1.5625 v 3.3867 c 0,0.86328 0.69922,1.5625 1.5625,1.5625 0.86328,0 1.5625,-0.69922 1.5625,-1.5625 v -3.3867 c 0,-0.86328 -0.69922,-1.5625 -1.5625,-1.5625 z"
       id="path1406"
       style="fill:#6a6a6a" />
    <path
       d="m 83.852,56.902 c -0.86328,0 -1.5625,0.69922 -1.5625,1.5625 v 3.3828 c 0,0.86328 0.69922,1.5625 1.5625,1.5625 0.86328,0 1.5625,-0.69922 1.5625,-1.5625 v -3.3828 c 0,-0.86328 -0.69922,-1.5625 -1.5625,-1.5625 z"
       id="path1408"
       style="fill:#6a6a6a" />
    <path
       d="m 83.852,67.059 c -0.86328,0 -1.5625,0.69922 -1.5625,1.5625 v 6.7695 c 0,0.86328 0.69922,1.5625 1.5625,1.5625 0.86328,0 1.5625,-0.69922 1.5625,-1.5625 v -6.7695 c 0,-0.86328 -0.69922,-1.5625 -1.5625,-1.5625 z"
       id="path1410"
       style="fill:#6a6a6a" />
    <path
       d="m 83.852,80.598 c -0.86328,0 -1.5625,0.69922 -1.5625,1.5625 v 3.3867 c 0,0.86328 0.69922,1.5625 1.5625,1.5625 0.86328,0 1.5625,-0.69922 1.5625,-1.5625 v -3.3867 c 0,-0.86328 -0.69922,-1.5625 -1.5625,-1.5625 z"
       id="path1412"
       style="fill:#6a6a6a" />
  </g>
</svg>
