<?xml version="1.0" encoding="UTF-8" standalone="no"?>
<svg
   version="1.1"
   viewBox="-5 -10 84.375504 71.875099"
   id="svg743"
   sodipodi:docname="form-jacuzzi.svg"
   width="84.375504"
   height="71.875099"
   inkscape:version="1.2.2 (b0a8486541, 2022-12-01)"
   xmlns:inkscape="http://www.inkscape.org/namespaces/inkscape"
   xmlns:sodipodi="http://sodipodi.sourceforge.net/DTD/sodipodi-0.dtd"
   xmlns="http://www.w3.org/2000/svg"
   xmlns:svg="http://www.w3.org/2000/svg">
  <defs
     id="defs747" />
  <sodipodi:namedview
     id="namedview745"
     pagecolor="#ffffff"
     bordercolor="#000000"
     borderopacity="0.25"
     inkscape:showpageshadow="2"
     inkscape:pageopacity="0.0"
     inkscape:pagecheckerboard="0"
     inkscape:deskcolor="#d1d1d1"
     showgrid="false"
     inkscape:zoom="6.4222222"
     inkscape:cx="42.275087"
     inkscape:cy="43.520761"
     inkscape:window-width="1920"
     inkscape:window-height="1044"
     inkscape:window-x="3840"
     inkscape:window-y="0"
     inkscape:window-maximized="1"
     inkscape:current-layer="svg743" />
  <g
     id="g737"
     transform="translate(-12.8125,-24.0625)"
     style="fill:#6a6a6a">
    <path
       d="m 92.188,42.969 c 0,-3.0156 -2.4531,-5.4688 -5.4688,-5.4688 h -46.375 c -0.64062,-1.8125 -2.3594,-3.125 -4.4062,-3.125 H 25 c -2.0312,0 -3.75,1.3125 -4.4062,3.125 h -7.3125 c -1.4688,0 -2.8438,0.5625 -3.875,1.5938 -1.0312,1.0313 -1.5938,2.4062 -1.5938,3.875 0,2.75 2.0469,5 4.6875,5.3906 v 21.953 c 0,4.3125 3.5,7.8125 7.8125,7.8125 v 3.125 c 0,2.5781 2.1094,4.6875 4.6875,4.6875 h 9.375 c 2.5781,0 4.6875,-2.1094 4.6875,-4.6875 v -3.125 h 21.875 v 3.125 c 0,2.5781 2.1094,4.6875 4.6875,4.6875 H 75 c 2.5781,0 4.6875,-2.1094 4.6875,-4.6875 v -3.125 c 4.3125,0 7.8125,-3.5 7.8125,-7.8125 v -21.953 c 1.1719,-0.17188 2.25,-0.67188 3.0938,-1.5156 1.0312,-1.0312 1.5938,-2.4062 1.5938,-3.875 z M 25,37.5002 h 10.938 c 0.85938,0 1.5625,0.70312 1.5625,1.5625 v 17.188 h -14.062 v -17.188 c 0,-0.85938 0.70312,-1.5625 1.5625,-1.5625 z M 10.938,42.969 c 0,-0.625 0.25,-1.2188 0.6875,-1.6562 0.4375,-0.4374 1.0312,-0.6875 1.6562,-0.6875 h 7.0312 v 4.6875 h -7.0312 c -1.2969,0 -2.3438,-1.0469 -2.3438,-2.3438 z m 25,38.281 c 0,0.85938 -0.70312,1.5625 -1.5625,1.5625 h -9.375 c -0.85938,0 -1.5625,-0.70312 -1.5625,-1.5625 v -3.125 h 12.5 z m 40.625,0 c 0,0.85938 -0.70312,1.5625 -1.5625,1.5625 h -9.375 c -0.85938,0 -1.5625,-0.70312 -1.5625,-1.5625 v -3.125 h 12.5 z m 7.8125,-10.938 c 0,2.5781 -2.1094,4.6875 -4.6875,4.6875 H 20.313 c -2.5781,0 -4.6875,-2.1094 -4.6875,-4.6875 V 48.437 h 4.6875 v 9.375 c 0,0.85938 0.70312,1.5625 1.5625,1.5625 h 17.188 c 0.85938,0 1.5625,-0.70312 1.5625,-1.5625 v -9.375 h 43.75 z m 4,-25.688 c -0.4375,0.4375 -1.0312,0.6875 -1.6562,0.6875 H 40.6253 V 40.624 h 46.094 c 1.2969,0 2.3438,1.0469 2.3438,2.3438 0,0.625 -0.25,1.2188 -0.6875,1.6562 z"
       id="path729"
       style="fill:#6a6a6a" />
    <path
       d="m 47.438,28.125 c 0,0.85938 0.70312,1.5625 1.5625,1.5625 0.85938,0 1.5625,-0.70312 1.5625,-1.5625 0,-0.39062 0.125,-0.53125 0.5625,-1 0.57812,-0.59375 1.4375,-1.5 1.4375,-3.1719 0,-1.6719 -0.85938,-2.5781 -1.4375,-3.1719 -0.45312,-0.46875 -0.5625,-0.60938 -0.5625,-1 0,-0.39062 0.09375,-0.5 0.5625,-1 0.57812,-0.59375 1.4375,-1.5 1.4375,-3.1562 0,-0.85938 -0.70312,-1.5625 -1.5625,-1.5625 -0.85938,0 -1.5625,0.70312 -1.5625,1.5625 0,0.375 -0.09375,0.5 -0.5625,1 -0.57812,0.59375 -1.4375,1.5 -1.4375,3.1562 0,1.6562 0.85938,2.5781 1.4375,3.1719 0.45312,0.46875 0.5625,0.60938 0.5625,1 0,0.39062 -0.125,0.53125 -0.5625,1 -0.57812,0.59375 -1.4375,1.5 -1.4375,3.1719 z"
       id="path731"
       style="fill:#6a6a6a" />
    <path
       d="m 33.375,28.125 c 0,0.85938 0.70312,1.5625 1.5625,1.5625 0.85938,0 1.5625,-0.70312 1.5625,-1.5625 0,-0.39062 0.125,-0.53125 0.5625,-1 0.57812,-0.59375 1.4375,-1.5 1.4375,-3.1719 0,-1.6719 -0.85938,-2.5781 -1.4375,-3.1719 -0.45312,-0.46875 -0.5625,-0.60938 -0.5625,-1 0,-0.39062 0.09375,-0.5 0.5625,-1 0.57812,-0.59375 1.4375,-1.5 1.4375,-3.1562 0,-0.85938 -0.70312,-1.5625 -1.5625,-1.5625 -0.85938,0 -1.5625,0.70312 -1.5625,1.5625 0,0.375 -0.09375,0.5 -0.5625,1 -0.57812,0.59375 -1.4375,1.5 -1.4375,3.1562 0,1.6562 0.85938,2.5781 1.4375,3.1719 0.45312,0.46875 0.5625,0.60938 0.5625,1 0,0.39062 -0.125,0.53125 -0.5625,1 -0.57812,0.59375 -1.4375,1.5 -1.4375,3.1719 z"
       id="path733"
       style="fill:#6a6a6a" />
    <path
       d="m 61.5,28.125 c 0,0.85938 0.70312,1.5625 1.5625,1.5625 0.85938,0 1.5625,-0.70312 1.5625,-1.5625 0,-0.39062 0.125,-0.53125 0.5625,-1 0.57812,-0.59375 1.4375,-1.5 1.4375,-3.1719 0,-1.6719 -0.85938,-2.5781 -1.4375,-3.1719 -0.45312,-0.46875 -0.5625,-0.60938 -0.5625,-1 0,-0.39062 0.09375,-0.5 0.5625,-1 0.57812,-0.59375 1.4375,-1.5 1.4375,-3.1562 0,-0.85938 -0.70312,-1.5625 -1.5625,-1.5625 -0.85938,0 -1.5625,0.70312 -1.5625,1.5625 0,0.375 -0.09375,0.5 -0.5625,1 -0.57812,0.59375 -1.4375,1.5 -1.4375,3.1562 0,1.6562 0.85938,2.5781 1.4375,3.1719 0.45312,0.46875 0.5625,0.60938 0.5625,1 0,0.39062 -0.125,0.53125 -0.5625,1 -0.57812,0.59375 -1.4375,1.5 -1.4375,3.1719 z"
       id="path735"
       style="fill:#6a6a6a" />
  </g>
</svg>
