<?xml version="1.0" encoding="UTF-8" standalone="no"?>
<svg
   version="1.1"
   x="0px"
   y="0px"
   viewBox="0 0 92 84.099998"
   enable-background="new 0 0 100 100"
   xml:space="preserve"
   id="svg1063"
   sodipodi:docname="form-ppool.svg"
   width="92"
   height="84.099998"
   inkscape:version="1.2.2 (b0a8486541, 2022-12-01)"
   xmlns:inkscape="http://www.inkscape.org/namespaces/inkscape"
   xmlns:sodipodi="http://sodipodi.sourceforge.net/DTD/sodipodi-0.dtd"
   xmlns="http://www.w3.org/2000/svg"
   xmlns:svg="http://www.w3.org/2000/svg"><defs
     id="defs1067" /><sodipodi:namedview
     id="namedview1065"
     pagecolor="#ffffff"
     bordercolor="#000000"
     borderopacity="0.25"
     inkscape:showpageshadow="2"
     inkscape:pageopacity="0.0"
     inkscape:pagecheckerboard="0"
     inkscape:deskcolor="#d1d1d1"
     showgrid="false"
     inkscape:zoom="7.144"
     inkscape:cx="45.982643"
     inkscape:cy="54.801232"
     inkscape:window-width="1920"
     inkscape:window-height="1044"
     inkscape:window-x="3840"
     inkscape:window-y="0"
     inkscape:window-maximized="1"
     inkscape:current-layer="svg1063" /><g
     id="g1057"
     transform="translate(-4,-7.9)"
     style="fill:#6a6a6a"><path
       d="m 11.5,92 h 77 C 92.8,92 96,88.7 96,84.3 V 42 c 0,-4.5 -3.3,-8 -7.5,-8 H 57 V 17.5 c 0,-3.1 2.6,-5.6 5.7,-5.6 3.1,0 5.7,2.5 5.7,5.6 0,1.1 0.9,2 2,2 1.1,0 2,-0.9 2,-2 0,-5.3 -4.4,-9.6 -9.7,-9.6 -5.3,0 -9.7,4.3 -9.7,9.6 V 23 H 30 v -5.5 c 0,-3.1 2.7,-5.6 5.9,-5.6 3.2,0 5.9,2.6 5.9,5.6 0,1.1 0.9,2 2,2 1.1,0 2,-0.9 2,-2 0,-5.2 -4.5,-9.6 -9.9,-9.6 -5.3,0 -9.9,4.4 -9.9,9.6 V 34 H 11.5 C 7.3,34 4,37.5 4,42 V 84.2 C 4,88.7 7.2,92 11.5,92 Z M 53,27 V 40 H 30 V 27 Z M 8,42 c 0,-2 1.3,-4 3.5,-4 H 26 v 12 c 0,1.1 0.9,2 2,2 1.1,0 2,-0.9 2,-2 v -6 h 23 v 6 c 0,1.1 0.9,2 2,2 1.1,0 2,-0.9 2,-2 V 38 h 31.5 c 2.2,0 3.5,2.1 3.5,4 v 42.2 c 0,2.2 -1.4,3.7 -3.5,3.7 h -77 C 9.4,88 8,86.5 8,84.3 Z"
       id="path1051"
       style="fill:#6a6a6a" /><path
       d="m 17.3,71.6 c 2.6,0 3.8,0.9 5.3,2 1.7,1.2 3.8,2.8 7.7,2.8 3.9,0 6,-1.5 7.7,-2.8 1.5,-1.1 2.7,-2 5.3,-2 2.6,0 3.8,0.9 5.3,2 1.7,1.2 3.8,2.8 7.7,2.8 3.9,0 6,-1.5 7.7,-2.8 1.5,-1.1 2.7,-2 5.3,-2 2.6,0 3.8,0.9 5.3,2 1.7,1.2 3.8,2.8 7.7,2.8 1.1,0 2,-0.9 2,-2 0,-1.1 -0.9,-2 -2,-2 -2.6,0 -3.8,-0.9 -5.3,-2 -1.7,-1.2 -3.8,-2.8 -7.7,-2.8 -3.9,0 -6,1.5 -7.7,2.8 -1.5,1.1 -2.7,2 -5.3,2 -2.6,0 -3.8,-0.9 -5.3,-2 -1.7,-1.2 -3.8,-2.8 -7.7,-2.8 -3.9,0 -6,1.5 -7.7,2.8 -1.5,1.1 -2.7,2 -5.3,2 -2.6,0 -3.8,-0.9 -5.3,-2 -1.7,-1.2 -3.8,-2.8 -7.7,-2.8 -1.1,0 -2,0.9 -2,2 0,1.1 0.9,2 2,2 z"
       id="path1053"
       style="fill:#6a6a6a" /><path
       d="m 17.3,54.8 c 2.6,0 3.8,0.9 5.3,2 1.7,1.2 3.8,2.8 7.7,2.8 3.9,0 6,-1.5 7.7,-2.8 1.5,-1.1 2.7,-2 5.3,-2 2.6,0 3.8,0.9 5.3,2 1.7,1.2 3.8,2.8 7.7,2.8 3.9,0 6,-1.5 7.7,-2.8 1.5,-1.1 2.7,-2 5.3,-2 2.6,0 3.8,0.9 5.3,2 1.7,1.2 3.8,2.8 7.7,2.8 1.1,0 2,-0.9 2,-2 0,-1.1 -0.9,-2 -2,-2 -2.6,0 -3.8,-0.9 -5.3,-2 -1.7,-1.2 -3.8,-2.8 -7.7,-2.8 -3.9,0 -6,1.5 -7.7,2.8 -1.5,1.1 -2.7,2 -5.3,2 -2.6,0 -3.8,-0.9 -5.3,-2 -1.7,-1.2 -3.8,-2.8 -7.7,-2.8 -3.9,0 -6,1.5 -7.7,2.8 -1.5,1.1 -2.7,2 -5.3,2 -2.6,0 -3.8,-0.9 -5.3,-2 -1.7,-1.2 -3.8,-2.8 -7.7,-2.8 -1.1,0 -2,0.9 -2,2 0,1.1 0.9,2 2,2 z"
       id="path1055"
       style="fill:#6a6a6a" /></g></svg>
