<?xml version="1.0" encoding="UTF-8" standalone="no"?>
<svg
   viewBox="0 0 64 88"
   x="0px"
   y="0px"
   version="1.1"
   id="svg1832"
   sodipodi:docname="form-locker.svg"
   width="64"
   height="88"
   inkscape:version="1.2.2 (b0a8486541, 2022-12-01)"
   xmlns:inkscape="http://www.inkscape.org/namespaces/inkscape"
   xmlns:sodipodi="http://sodipodi.sourceforge.net/DTD/sodipodi-0.dtd"
   xmlns="http://www.w3.org/2000/svg"
   xmlns:svg="http://www.w3.org/2000/svg"
   xmlns:rdf="http://www.w3.org/1999/02/22-rdf-syntax-ns#"
   xmlns:cc="http://creativecommons.org/ns#"
   xmlns:dc="http://purl.org/dc/elements/1.1/">
  <defs
     id="defs1836" />
  <sodipodi:namedview
     id="namedview1834"
     pagecolor="#ffffff"
     bordercolor="#000000"
     borderopacity="0.25"
     inkscape:showpageshadow="2"
     inkscape:pageopacity="0.0"
     inkscape:pagecheckerboard="0"
     inkscape:deskcolor="#d1d1d1"
     showgrid="false"
     inkscape:zoom="7.4416667"
     inkscape:cx="32.049272"
     inkscape:cy="47.234043"
     inkscape:window-width="1920"
     inkscape:window-height="1044"
     inkscape:window-x="3840"
     inkscape:window-y="0"
     inkscape:window-maximized="1"
     inkscape:current-layer="svg1832" />
  <title
     id="title1814">Artboard 21</title>
  <g
     id="g1826"
     transform="translate(-16,-3.9999996)"
     style="fill:#6a6a6a">
    <path
       d="M 78,4 H 18 a 1.9988,1.9988 0 0 0 -2,2 v 84 a 1.9988,1.9988 0 0 0 2,2 h 60 a 1.9988,1.9988 0 0 0 2,-2 V 6 A 1.9988,1.9988 0 0 0 78,4 Z M 76,88 H 20 V 8 h 56 z"
       id="path1816"
       style="fill:#6a6a6a" />
    <path
       d="m 26,84 h 44 a 1.9988,1.9988 0 0 0 2,-2 V 14 A 1.9988,1.9988 0 0 0 70,12 H 26 a 1.9988,1.9988 0 0 0 -2,2 v 68 a 1.9988,1.9988 0 0 0 2,2 z M 28,16 H 68 V 80 H 28 Z"
       id="path1818"
       style="fill:#6a6a6a" />
    <path
       d="m 38,28 h 20 a 2,2 0 0 0 0,-4 H 38 a 2,2 0 0 0 0,4 z"
       id="path1820"
       style="fill:#6a6a6a" />
    <path
       d="M 58,32 H 38 a 2,2 0 0 0 0,4 h 20 a 2,2 0 0 0 0,-4 z"
       id="path1822"
       style="fill:#6a6a6a" />
    <path
       d="m 62,48 a 1.9988,1.9988 0 0 0 -2,2 v 4 a 2,2 0 0 0 4,0 v -4 a 1.9988,1.9988 0 0 0 -2,-2 z"
       id="path1824"
       style="fill:#6a6a6a" />
  </g>
  <metadata
     id="metadata1854">
    <rdf:RDF>
      <cc:Work
         rdf:about="">
        <dc:title>Artboard 21</dc:title>
      </cc:Work>
    </rdf:RDF>
  </metadata>
</svg>
