<?xml version="1.0" encoding="UTF-8" standalone="no"?>
<svg
   version="1.1"
   x="0px"
   y="0px"
   viewBox="0 0 24 23.959999"
   xml:space="preserve"
   id="svg817"
   sodipodi:docname="form-golf.svg"
   width="24"
   height="23.959999"
   inkscape:version="1.2.2 (b0a8486541, 2022-12-01)"
   xmlns:inkscape="http://www.inkscape.org/namespaces/inkscape"
   xmlns:sodipodi="http://sodipodi.sourceforge.net/DTD/sodipodi-0.dtd"
   xmlns="http://www.w3.org/2000/svg"
   xmlns:svg="http://www.w3.org/2000/svg"><defs
     id="defs821" /><sodipodi:namedview
     id="namedview819"
     pagecolor="#ffffff"
     bordercolor="#000000"
     borderopacity="0.25"
     inkscape:showpageshadow="2"
     inkscape:pageopacity="0.0"
     inkscape:pagecheckerboard="0"
     inkscape:deskcolor="#d1d1d1"
     showgrid="false"
     inkscape:zoom="28.9"
     inkscape:cx="12.024221"
     inkscape:cy="19.013841"
     inkscape:window-width="1920"
     inkscape:window-height="1044"
     inkscape:window-x="3840"
     inkscape:window-y="0"
     inkscape:window-maximized="1"
     inkscape:current-layer="svg817" /><g
     id="g811"
     transform="translate(0,-0.04)"
     style="fill:#6a6a6a"><path
       d="M 5.5,24 C 2.833,24 0,23.124 0,21.5 0,20.625 0.836,19.89 2.355,19.431 l 0.479,-0.145 0.29,0.957 -0.479,0.145 C 1.509,20.731 1,21.194 1,21.5 1,22.111 2.753,23 5.5,23 8.247,23 10,22.111 10,21.5 10,21.194 9.491,20.731 8.355,20.388 l -0.479,-0.145 0.29,-0.957 0.479,0.145 C 10.164,19.89 11,20.625 11,21.5 11,23.124 8.167,24 5.5,24 Z"
       id="path805"
       style="fill:#6a6a6a" /><path
       d="M 6,21.5 H 5 V 0.498 L 5.7,0.04 16,4.542 V 5.458 L 6,9.829 Z M 6,1.262 V 8.738 L 14.552,5 Z"
       id="path807"
       style="fill:#6a6a6a" /><path
       d="m 22,22.5 c -1.103,0 -2,-0.897 -2,-2 0,-1.103 0.897,-2 2,-2 1.103,0 2,0.897 2,2 0,1.103 -0.897,2 -2,2 z m 0,-3 c -0.552,0 -1,0.448 -1,1 0,0.552 0.448,1 1,1 0.552,0 1,-0.448 1,-1 0,-0.552 -0.448,-1 -1,-1 z"
       id="path809"
       style="fill:#6a6a6a" /></g></svg>
