<?xml version="1.0" encoding="UTF-8" standalone="no"?>
<svg
   version="1.1"
   viewBox="-5 -10 93.749496 87.498497"
   id="svg459"
   sodipodi:docname="full-reform.svg"
   width="93.749496"
   height="87.498497"
   inkscape:version="1.2.2 (b0a8486541, 2022-12-01)"
   xmlns:inkscape="http://www.inkscape.org/namespaces/inkscape"
   xmlns:sodipodi="http://sodipodi.sourceforge.net/DTD/sodipodi-0.dtd"
   xmlns="http://www.w3.org/2000/svg"
   xmlns:svg="http://www.w3.org/2000/svg">
  <defs
     id="defs463" />
  <sodipodi:namedview
     id="namedview461"
     pagecolor="#ffffff"
     bordercolor="#000000"
     borderopacity="0.25"
     inkscape:showpageshadow="2"
     inkscape:pageopacity="0.0"
     inkscape:pagecheckerboard="0"
     inkscape:deskcolor="#d1d1d1"
     showgrid="false"
     inkscape:zoom="6.4222222"
     inkscape:cx="47.024221"
     inkscape:cy="51.461938"
     inkscape:window-width="1920"
     inkscape:window-height="1044"
     inkscape:window-x="3840"
     inkscape:window-y="0"
     inkscape:window-maximized="1"
     inkscape:current-layer="svg459" />
  <g
     id="g453"
     transform="translate(-8.1255,-16.2505)"
     style="fill:#555555">
    <path
       d="m 95.312,25 h -7.8125 c -0.85938,0 -1.5625,0.70312 -1.5625,1.5625 0,0.85938 0.70312,1.5625 1.5625,1.5625 h 6.25 v 62.5 h -76.562 c -6.0312,0 -10.938,-4.9062 -10.938,-10.938 0,-6.0318 4.9062,-10.938 10.938,-10.938 0.85938,0 1.5625,-0.70312 1.5625,-1.5625 v -39.062 h 46.875 c 0.85938,0 1.5625,-0.70312 1.5625,-1.5625 0,-0.85938 -0.70312,-1.5625 -1.5625,-1.5625 H 18.75 v -14.062 c 0,-0.85938 -0.70312,-1.5625 -1.5625,-1.5625 -7.75,0 -14.062,6.3125 -14.062,14.062 v 56.25 c 0,7.75 6.3125,14.062 14.062,14.062 h 78.125 c 0.85938,0 1.5625,-0.70312 1.5625,-1.5625 v -65.625 c 0,-0.85938 -0.70312,-1.5625 -1.5625,-1.5625 z M 6.25,23.4375 c 0,-5.5 4.0781,-10.062 9.375,-10.828 v 53.094 c -3.7812,0.42188 -7.1094,2.3438 -9.375,5.1406 z"
       id="path447"
       style="fill:#555555" />
    <path
       d="m 75.312,55.625 c 0.29688,0.39062 0.76562,0.625 1.25,0.625 0.48438,0 0.95312,-0.23438 1.25,-0.625 l 4.6875,-6.25 c 0.20312,-0.26562 0.3125,-0.59375 0.3125,-0.9375 V 9.3755 c 0,-1.7188 -1.4062,-3.125 -3.125,-3.125 h -6.25 c -1.7188,0 -3.125,1.4062 -3.125,3.125 v 39.062 c 0,0.34375 0.10938,0.67188 0.3125,0.9375 z m 4.375,-7.7031 -3.125,4.1719 -3.125,-4.1719 v -30.734 h 6.25 z m -6.25,-38.547 h 6.25 v 4.6875 h -6.25 z"
       id="path449"
       style="fill:#555555" />
    <path
       d="m 29.688,84.375 c 0,0.85938 0.70312,1.5625 1.5625,1.5625 0.85938,0 1.5625,-0.70312 1.5625,-1.5625 v -4.6875 h 43.75 c 0.85938,0 1.5625,-0.70312 1.5625,-1.5625 V 60.937 c 0,-0.85938 -0.70312,-1.5625 -1.5625,-1.5625 -0.85938,0 -1.5625,0.70312 -1.5625,1.5625 v 3.125 h -14.062 c -0.85938,0 -1.5625,0.70312 -1.5625,1.5625 0,0.85938 0.70312,1.5625 1.5625,1.5625 h 14.062 v 9.375 H 53.1255 V 65.624 c 0,-0.85938 -0.70312,-1.5625 -1.5625,-1.5625 H 32.813 V 56.249 h 29.688 c 0.85938,0 1.5625,-0.70312 1.5625,-1.5625 0,-0.85938 -0.70312,-1.5625 -1.5625,-1.5625 h -6.25 v -18.75 c 0,-0.85938 -0.70312,-1.5625 -1.5625,-1.5625 h -29.688 c -0.85938,0 -1.5625,0.70312 -1.5625,1.5625 0,0.85938 0.70312,1.5625 1.5625,1.5625 H 29.688 Z M 50,67.187 v 9.375 H 32.812 v -9.375 z m 3.125,-31.25 V 53.125 H 32.813 V 35.937 Z"
       id="path451"
       style="fill:#555555" />
  </g>
</svg>
