<?xml version="1.0" encoding="UTF-8" standalone="no"?>
<svg
   version="1.1"
   x="0px"
   y="0px"
   viewBox="-55 147 500.10001 299.89999"
   xml:space="preserve"
   id="svg8"
   sodipodi:docname="furniture.svg"
   width="500.10001"
   height="299.89999"
   inkscape:version="1.1.2 (0a00cf5339, 2022-02-04)"
   xmlns:inkscape="http://www.inkscape.org/namespaces/inkscape"
   xmlns:sodipodi="http://sodipodi.sourceforge.net/DTD/sodipodi-0.dtd"
   xmlns="http://www.w3.org/2000/svg"
   xmlns:svg="http://www.w3.org/2000/svg"><defs
     id="defs12" /><sodipodi:namedview
     id="namedview10"
     pagecolor="#ffffff"
     bordercolor="#666666"
     borderopacity="1.0"
     inkscape:pageshadow="2"
     inkscape:pageopacity="0.0"
     inkscape:pagecheckerboard="0"
     showgrid="false"
     fit-margin-top="0"
     fit-margin-left="0"
     fit-margin-right="0"
     fit-margin-bottom="0"
     inkscape:zoom="1.2176"
     inkscape:cx="249.67148"
     inkscape:cy="212.30289"
     inkscape:window-width="1850"
     inkscape:window-height="1025"
     inkscape:window-x="1990"
     inkscape:window-y="27"
     inkscape:window-maximized="1"
     inkscape:current-layer="svg8" /><path
     d="M 435.9,428.9 H 382.3 V 235.2 h 29.9 c 2.6,0 5.1,-1.1 6.9,-3.1 1.7,-2 2.5,-4.6 2.1,-7.2 l -10.8,-70.3 c -0.7,-4.4 -4.5,-7.6 -8.9,-7.6 h -56.4 c -4.5,0 -8.3,3.2 -8.9,7.6 l -10.8,70.3 c -0.4,2.6 0.4,5.2 2.1,7.2 1.7,2 4.2,3.1 6.9,3.1 h 29.9 v 193.7 h -49.8 c 3.4,-5.6 5.3,-12.1 5.3,-19 V 388 c 0,-7 4,-13.2 10.1,-15.9 11.8,-5.1 13.6,-13.1 13.6,-17.3 0,-22 -17.8,-40 -39.8,-40.5 -2.2,-22.7 -17.7,-42.2 -39.9,-49.5 l -3.6,-1.2 c -68.6,-22.6 -144,-22.2 -212.3,1 -22,7.5 -37.3,27 -39.4,49.7 -22,0.6 -39.8,18.5 -39.8,40.5 0,4.3 1.8,12.2 13.6,17.3 6.1,2.7 10.1,8.9 10.1,15.9 v 21.9 c 0,6.9 1.9,13.4 5.3,19 h -43.6 c -5,0 -9.1,4 -9.1,9 0,5 4.1,9 9.1,9 H 436 c 5,0 9.1,-4 9.1,-9 -0.1,-5 -4.2,-9 -9.2,-9 z M 53.7,281.6 c 64.6,-21.9 136,-22.3 200.8,-0.9 l 3.6,1.2 c 15.9,5.2 26.8,19.6 27.6,36 -14.1,6.4 -24,20.5 -24,36.9 0,0.3 0,14.7 0.1,24.6 H 50.3 c 0,-9.9 0.1,-24.3 0.1,-24.6 0,-16.4 -9.8,-30.5 -24,-36.9 0.7,-16.5 11.5,-31 27.3,-36.3 z m 248,106.4 v 21.9 c 0,10.5 -8.6,19 -19.1,19 h -253 c -10.5,0 -19.1,-8.5 -19.1,-19 V 388 c 0,-14.1 -8.2,-26.8 -20.9,-32.4 -1.5,-0.7 -2.3,-1.2 -2.7,-1.6 0.4,-12.1 10.4,-21.9 22.7,-21.9 12.5,0 22.7,10.1 22.7,22.6 0,0.6 -0.1,33.5 -0.1,33.5 0,2.4 0.9,4.7 2.6,6.4 1.7,1.7 4,2.6 6.4,2.6 h 229.7 c 2.4,0 4.7,-1 6.4,-2.6 1.7,-1.7 2.6,-4 2.6,-6.4 0,0 -0.1,-32.9 -0.1,-33.5 0,-12.5 10.2,-22.6 22.7,-22.6 12.3,0 22.3,9.7 22.7,21.9 -0.4,0.3 -1.2,0.9 -2.7,1.6 -12.6,5.6 -20.8,18.3 -20.8,32.4 z m 43.2,-170.8 8,-52.4 h 40.8 l 8,52.4 z"
     id="path2"
     style="fill:#464646" /></svg>
