<?xml version="1.0" encoding="UTF-8" standalone="no"?>
<svg
   version="1.1"
   x="0px"
   y="0px"
   viewBox="0 0 64 58.969673"
   enable-background="new 0 0 64 64"
   xml:space="preserve"
   id="svg18"
   sodipodi:docname="garage-white.svg"
   width="64"
   height="58.969673"
   inkscape:version="1.1.2 (0a00cf5339, 2022-02-04)"
   xmlns:inkscape="http://www.inkscape.org/namespaces/inkscape"
   xmlns:sodipodi="http://sodipodi.sourceforge.net/DTD/sodipodi-0.dtd"
   xmlns="http://www.w3.org/2000/svg"
   xmlns:svg="http://www.w3.org/2000/svg"><defs
     id="defs22"><filter
       style="color-interpolation-filters:sRGB;"
       inkscape:label="Colorize"
       id="filter1499"
       x="0"
       y="0"
       width="1"
       height="1"><feComposite
         in2="SourceGraphic"
         operator="arithmetic"
         k1="0"
         k2="1"
         result="composite1"
         id="feComposite1485" /><feColorMatrix
         in="composite1"
         values="1"
         type="saturate"
         result="colormatrix1"
         id="feColorMatrix1487" /><feFlood
         flood-opacity="1"
         flood-color="rgb(255,255,255)"
         result="flood1"
         id="feFlood1489" /><feBlend
         in="flood1"
         in2="colormatrix1"
         mode="screen"
         result="blend1"
         id="feBlend1491" /><feBlend
         in2="blend1"
         mode="multiply"
         result="blend2"
         id="feBlend1493" /><feColorMatrix
         in="blend2"
         values="1"
         type="saturate"
         result="colormatrix2"
         id="feColorMatrix1495" /><feComposite
         in="colormatrix2"
         in2="SourceGraphic"
         operator="in"
         k2="1"
         result="composite2"
         id="feComposite1497" /></filter></defs><sodipodi:namedview
     id="namedview20"
     pagecolor="#ffffff"
     bordercolor="#666666"
     borderopacity="1.0"
     inkscape:pageshadow="2"
     inkscape:pageopacity="0.0"
     inkscape:pagecheckerboard="0"
     showgrid="false"
     fit-margin-top="0"
     fit-margin-left="0"
     fit-margin-right="0"
     fit-margin-bottom="0"
     inkscape:zoom="9.5125"
     inkscape:cx="39.211564"
     inkscape:cy="36.53088"
     inkscape:window-width="1850"
     inkscape:window-height="1025"
     inkscape:window-x="1990"
     inkscape:window-y="27"
     inkscape:window-maximized="1"
     inkscape:current-layer="svg18" /><g
     id="g12"
     transform="translate(0,-4.1963281)"
     style="filter:url(#filter1499)"><rect
       x="10.754"
       y="25.372"
       width="42.659"
       height="2.4059999"
       id="rect2" /><rect
       x="10.754"
       y="29.308001"
       width="42.659"
       height="2.4059999"
       id="rect4" /><rect
       x="10.754"
       y="33.243"
       width="42.659"
       height="2.4059999"
       id="rect6" /><path
       id="path8"
       transform="translate(0,0.835)"
       d="m 38.105469,3.3613281 c 0.198705,0.00768 0.397032,0.00897 0.595703,0.019531 0.08845,-0.00248 0.175578,-0.012912 0.263672,-0.017578 -0.286484,-3.52e-4 -0.572892,-0.00171 -0.859375,-0.00195 z m 12.357422,2.3007813 c -0.08517,0.012579 -0.170742,0.024131 -0.25586,0.035156 -0.308067,0.027888 -0.411968,0.040421 -0.568359,0.070312 0.02084,-0.00181 0.04167,-0.00403 0.0625,-0.00586 0.144709,-0.012683 0.287022,-0.033201 0.43164,-0.046875 0.09586,-0.00906 0.193883,-0.00692 0.289063,-0.021484 0.01415,-0.00217 0.02192,-0.018524 0.0332,-0.027344 0.0027,-0.00108 0.0051,-0.00283 0.0078,-0.00391 z M 27.300781,6.8125 c -0.03647,0.00144 -0.07286,0.00227 -0.109375,0.00391 -0.186357,0.00837 -0.372489,0.023917 -0.558594,0.039063 0.228042,-0.012115 0.442509,-0.018885 0.669922,-0.029297 -6.1e-4,-0.00456 -0.0015,-0.00911 -0.002,-0.013672 z m -1.703125,0.083984 c -0.102526,0.00389 -0.203387,0.01475 -0.304687,0.023437 0.147117,-0.00758 0.29429,-0.013897 0.441406,-0.021484 -0.04558,-0.00125 -0.09113,-0.00134 -0.136719,-0.00195 z m 10.511719,0.5507812 c -0.04243,0.00284 -0.08452,0.00897 -0.126953,0.011719 0.04168,-3.109e-4 0.08333,-0.00147 0.125,-0.00195 -1.6e-5,-0.00331 0.0019,-0.00646 0.002,-0.00977 z M 17.867188,9.90625 c -0.06411,0.00401 -0.121516,0.011353 -0.185547,0.015625 h 0.138671 c 0.01528,-0.00623 0.03153,-0.00958 0.04688,-0.015625 z m -6.839844,2.066406 c -0.05861,0.0044 -0.117168,0.0094 -0.175782,0.01367 h 0.171876 c 9.99e-4,-0.0046 0.0027,-0.0091 0.0039,-0.01367 z m -8.6875002,1.5625 C 1.0478431,13.536172 0,14.583 0,15.875 c 0,1.292 1.0478438,2.339844 2.3398438,2.339844 H 3.8652344 V 62.330078 H 8.7695312 V 22.556641 H 55.730469 v 39.773437 h 4.904297 V 18.214844 h 1.02539 C 62.952156,18.214844 64,17.168 64,15.875 64,14.583 62.953156,13.535156 61.660156,13.535156 h -4.269531 c -3.292368,0.0265 -6.584767,0.05674 -9.876953,0.06836 -4.847749,0.01711 -9.69519,0 -14.542969,0 H 6.8066406 c -0.1560203,0 -0.2813861,-0.02821 -0.390625,-0.06836 z" /><path
       d="m 49.185,46.137 c -0.118,0.13 -0.246,0.318 -0.373,0.526 L 45.984,41.175 C 45.057,39.376 43.224,38.258 41.2,38.258 H 23.282 c -2.024,0 -3.857,1.118 -4.784,2.917 l -2.819,5.471 c -0.124,-0.2 -0.248,-0.382 -0.363,-0.508 -0.692,-0.762 -1.871,-0.818 -2.632,-0.125 -0.761,0.692 -0.818,1.871 -0.125,2.632 0.366,0.402 1.166,0.929 1.954,1.242 v 6.171 0.371 4.261 c 0,1.364 1.103,2.476 2.466,2.476 h 1.885 c 1.364,0 2.477,-1.113 2.477,-2.476 v -2.627 h 21.807 v 2.627 c 0,1.364 1.103,2.476 2.476,2.476 h 1.875 c 1.363,0 2.476,-1.113 2.476,-2.476 v -4.261 -0.371 -6.165 c 0.793,-0.312 1.6,-0.843 1.968,-1.248 0.692,-0.762 0.636,-1.94 -0.125,-2.632 -0.762,-0.694 -1.941,-0.638 -2.633,0.124 z M 19.969,55.16 c -1.229,0 -2.224,-0.996 -2.224,-2.225 0,-1.229 0.996,-2.224 2.224,-2.224 1.229,0 2.225,0.996 2.225,2.224 -10e-4,1.229 -0.997,2.225 -2.225,2.225 z m 17.944,0.822 H 26.584 c -0.451,0 -0.822,-0.371 -0.822,-0.822 0,-0.451 0.371,-0.822 0.822,-0.822 h 11.329 c 0.451,0 0.822,0.371 0.822,0.822 0,0.451 -0.371,0.822 -0.822,0.822 z m 0,-3.626 H 26.584 c -0.451,0 -0.822,-0.371 -0.822,-0.822 0,-0.451 0.371,-0.822 0.822,-0.822 h 11.329 c 0.451,0 0.822,0.371 0.822,0.822 0,0.451 -0.371,0.822 -0.822,0.822 z m 6.62,2.804 c -1.229,0 -2.225,-0.996 -2.225,-2.225 0,-1.229 0.996,-2.224 2.225,-2.224 1.229,0 2.224,0.996 2.224,2.224 0,1.229 -0.996,2.225 -2.224,2.225 z M 17.156,48.155 20.28,42.092 c 0.582,-1.129 1.732,-1.83 3.002,-1.83 H 41.2 c 1.27,0 2.42,0.701 3.002,1.83 l 3.124,6.063 z"
       id="path10" /></g></svg>
