<?xml version="1.0" encoding="UTF-8" standalone="no"?>
<svg
   version="1.1"
   x="0px"
   y="0px"
   viewBox="0 0 47.960999 18.826"
   enable-background="new 0 0 50 50"
   xml:space="preserve"
   id="svg46"
   sodipodi:docname="garden-flowers.svg"
   width="47.960999"
   height="18.826"
   inkscape:version="1.1.2 (0a00cf5339, 2022-02-04)"
   xmlns:inkscape="http://www.inkscape.org/namespaces/inkscape"
   xmlns:sodipodi="http://sodipodi.sourceforge.net/DTD/sodipodi-0.dtd"
   xmlns="http://www.w3.org/2000/svg"
   xmlns:svg="http://www.w3.org/2000/svg"><defs
     id="defs50" /><sodipodi:namedview
     id="namedview48"
     pagecolor="#ffffff"
     bordercolor="#666666"
     borderopacity="1.0"
     inkscape:pageshadow="2"
     inkscape:pageopacity="0.0"
     inkscape:pagecheckerboard="0"
     showgrid="false"
     fit-margin-top="0"
     fit-margin-left="0"
     fit-margin-right="0"
     fit-margin-bottom="0"
     inkscape:zoom="12.176"
     inkscape:cx="23.981603"
     inkscape:cy="15.645532"
     inkscape:window-width="1850"
     inkscape:window-height="1025"
     inkscape:window-x="1990"
     inkscape:window-y="27"
     inkscape:window-maximized="1"
     inkscape:current-layer="svg46" /><path
     d="m 29.385,8.927 c -0.093,-1.479 -0.548,-2.8 -1.23,-3.765 v 0 C 28.152,5.159 28.15,5.155 28.147,5.151 28.122,5.115 28.095,5.079 28.069,5.044 28.034,4.998 27.996,4.947 27.955,4.89 27.397,4.202 26.712,3.743 25.961,3.595 c 0.172,2.759 1.606,4.972 3.424,5.332 z"
     id="path2"
     style="fill:#4a4a4a" /><path
     d="m 17.072,6.935 c 0.179,0.633 0.292,1.31 0.331,2.017 2.46,-0.313 4.413,-3.01 4.599,-6.368 -2.75,0.21 -4.911,2.078 -4.93,4.351 z"
     id="path4"
     style="fill:#4a4a4a" /><path
     d="M 16.404,8.927 C 16.307,7.369 15.807,5.987 15.064,5.011 15.037,4.974 15.009,4.936 14.978,4.894 14.42,4.203 13.732,3.742 12.98,3.594 c 0.172,2.76 1.605,4.973 3.424,5.333 z"
     id="path6"
     style="fill:#4a4a4a" /><path
     d="m 15.883,4.444 c 0.005,0.007 0.01,0.013 0.015,0.019 0.06,0.074 0.104,0.145 0.136,0.214 0.129,0.189 0.25,0.389 0.364,0.597 0.324,-0.819 0.873,-1.553 1.59,-2.147 -0.131,-1.58 -1.621,-2.967 -3.339,-3.126 -0.593,1.758 0.876,3.95 1.234,4.443 z"
     id="path8"
     style="fill:#4a4a4a" /><path
     d="m 28.864,4.445 c 0.006,0.006 0.01,0.012 0.014,0.016 0.056,0.069 0.098,0.137 0.129,0.202 0.133,0.192 0.256,0.397 0.372,0.609 C 29.703,4.453 30.252,3.72 30.969,3.126 30.838,1.546 29.347,0.159 27.629,0 c -0.592,1.759 0.879,3.955 1.235,4.445 z"
     id="path10"
     style="fill:#4a4a4a" /><path
     d="m 47.961,2.584 c -2.752,0.211 -4.914,2.082 -4.93,4.357 0.179,0.631 0.292,1.306 0.33,2.011 2.462,-0.314 4.415,-3.01 4.6,-6.368 z"
     id="path12"
     style="fill:#4a4a4a" /><path
     d="m 41.847,4.451 c 0.003,0.004 0.006,0.008 0.01,0.012 0.03,0.038 0.079,0.109 0.122,0.191 0.135,0.196 0.261,0.404 0.379,0.622 C 42.681,4.456 43.23,3.722 43.947,3.128 43.817,1.547 42.326,0.16 40.609,0 c -0.592,1.762 0.887,3.966 1.238,4.451 z"
     id="path14"
     style="fill:#4a4a4a" /><rect
     x="10.649"
     y="9.9850006"
     width="26.663"
     height="3.9200001"
     id="rect16"
     style="fill:#4a4a4a" /><rect
     x="10.649"
     y="14.905001"
     width="26.663"
     height="3.921"
     id="rect18"
     style="fill:#4a4a4a" /><path
     d="M 42.363,8.927 C 42.264,7.352 41.756,5.957 41,4.979 40.983,4.957 40.967,4.934 40.949,4.91 40.388,4.211 39.697,3.744 38.939,3.594 c 0.173,2.76 1.606,4.973 3.424,5.333 z"
     id="path20"
     style="fill:#4a4a4a" /><path
     d="m 30.051,6.929 c 0.181,0.634 0.295,1.313 0.333,2.023 2.46,-0.314 4.413,-3.01 4.599,-6.369 -2.749,0.21 -4.908,2.075 -4.932,4.346 z"
     id="path22"
     style="fill:#4a4a4a" /><rect
     x="42.966999"
     y="9.9839993"
     width="4.3860002"
     height="3.921"
     id="rect24"
     style="fill:#4a4a4a" /><rect
     x="38.312"
     y="9.9850006"
     width="3.655"
     height="8.8409996"
     id="rect26"
     style="fill:#4a4a4a" /><rect
     x="42.966999"
     y="14.905001"
     width="4.3860002"
     height="3.921"
     id="rect28"
     style="fill:#4a4a4a" /><polygon
     points="10.669,25.589 7.014,25.589 7.014,34.43 10.669,34.43 10.669,30.014 10.668,30.009 10.669,30.004 "
     id="polygon30"
     transform="translate(-1.019,-15.604)"
     style="fill:#4a4a4a" /><path
     d="M 4.092,6.933 C 4.271,7.566 4.385,8.244 4.424,8.952 6.884,8.638 8.837,5.942 9.022,2.584 6.272,2.794 4.112,4.662 4.092,6.933 Z"
     id="path32"
     style="fill:#4a4a4a" /><path
     d="M 3.424,8.927 C 3.328,7.377 2.832,6.003 2.096,5.028 2.064,4.986 2.032,4.943 1.996,4.893 1.438,4.203 0.751,3.743 0,3.595 0.172,6.354 1.606,8.567 3.424,8.927 Z"
     id="path34"
     style="fill:#4a4a4a" /><path
     d="m 2.902,4.444 c 0.005,0.007 0.01,0.013 0.015,0.019 0.048,0.059 0.081,0.116 0.11,0.172 0.14,0.201 0.269,0.416 0.391,0.639 C 3.741,4.455 4.29,3.721 5.007,3.127 4.877,1.547 3.386,0.16 1.668,0.001 1.075,1.759 2.544,3.951 2.902,4.444 Z"
     id="path36"
     style="fill:#4a4a4a" /><rect
     x="0.60799998"
     y="14.905001"
     width="4.3860002"
     height="3.921"
     id="rect38"
     style="fill:#4a4a4a" /><rect
     x="0.60799998"
     y="9.9850006"
     width="4.3860002"
     height="3.9200001"
     id="rect40"
     style="fill:#4a4a4a" /></svg>
