<?xml version="1.0" encoding="UTF-8" standalone="no"?>
<svg
   data-name="Layer 52"
   viewBox="0 0 82.164909 81.695557"
   x="0px"
   y="0px"
   version="1.1"
   id="svg12"
   sodipodi:docname="garden-views.svg"
   width="82.164909"
   height="81.695557"
   inkscape:version="1.1.2 (0a00cf5339, 2022-02-04)"
   xmlns:inkscape="http://www.inkscape.org/namespaces/inkscape"
   xmlns:sodipodi="http://sodipodi.sourceforge.net/DTD/sodipodi-0.dtd"
   xmlns="http://www.w3.org/2000/svg"
   xmlns:svg="http://www.w3.org/2000/svg">
  <defs
     id="defs16" />
  <sodipodi:namedview
     id="namedview14"
     pagecolor="#ffffff"
     bordercolor="#666666"
     borderopacity="1.0"
     inkscape:pageshadow="2"
     inkscape:pageopacity="0.0"
     inkscape:pagecheckerboard="0"
     showgrid="false"
     fit-margin-top="0"
     fit-margin-left="0"
     fit-margin-right="0"
     fit-margin-bottom="0"
     inkscape:zoom="6.088"
     inkscape:cx="41.064389"
     inkscape:cy="53.137319"
     inkscape:window-width="1850"
     inkscape:window-height="1025"
     inkscape:window-x="1990"
     inkscape:window-y="27"
     inkscape:window-maximized="1"
     inkscape:current-layer="svg12" />
  <path
     d="m 30.31491,42.955556 a 10.22,10.22 0 0 0 1.58,0.12 10.44,10.44 0 0 0 5.88,-19.07 9.89,9.89 0 0 0 -6.73,-14.08 c 0,-0.12 0,-0.23 0,-0.35 a 9.89,9.89 0 0 0 -19.77,0 c 0,0.11 0,0.23 0,0.35 a 9.87,9.87 0 0 0 -6.7099998,14.08 10.44,10.44 0 0 0 5.8799998,19.07 10.22,10.22 0 0 0 1.58,-0.12 10.43,10.43 0 0 0 3.67,3.82 85.22,85.22 0 0 1 -3.81,33.62 1,1 0 0 0 0.14,0.89 1,1 0 0 0 0.81,0.41 h 16.66 a 1,1 0 0 0 0.81,-0.41 1,1 0 0 0 0.14,-0.89 85.19,85.19 0 0 1 -3.81,-33.61 10.49,10.49 0 0 0 3.68,-3.83 z m -2.15,36.74 h -14 c 9.3,-30.83 -1.23,-53.17 -1.33,-53.4 a 1,1 0 0 0 -1.34,-0.46 1,1 0 0 0 -0.47,1.33 c 0.06,0.12 3,6.42 4.35,16.88 a 8.31,8.31 0 0 1 -1.92,-2.64 1,1 0 0 0 -0.91,-0.58 h -0.24 a 7.65,7.65 0 0 1 -1.89,0.22 8.44,8.44 0 0 1 -4.0599998,-15.84 1,1 0 0 0 0.49,-0.63 1,1 0 0 0 -0.13,-0.79 7.89,7.89 0 0 1 5.7299998,-12.07 1,1 0 0 0 0.88,-1.12 7.88,7.88 0 1 1 15.7,-1.05 7.71,7.71 0 0 1 -0.07,1.05 1,1 0 0 0 0.87,1.12 7.89,7.89 0 0 1 5.73,12.07 1,1 0 0 0 0.36,1.42 8.44,8.44 0 0 1 -4.05,15.84 7.65,7.65 0 0 1 -1.89,-0.22 1,1 0 0 0 -1.15,0.55 8.38,8.38 0 0 1 -1.93,2.65 c 1.33,-10.47 4.29,-16.77 4.35,-16.89 a 1,1 0 0 0 -0.47,-1.33 1,1 0 0 0 -1.34,0.46 c -0.07,0.26 -10.6,22.6 -1.27,53.43 z"
     id="path2"
     style="fill:#494949" />
  <path
     d="m 81.16491,44.925556 h -4.1 v -3.48 a 1,1 0 0 0 -1,-1 h -4.9 a 1,1 0 0 0 -1,1 v 3.48 h -22.81 v -3.48 a 1,1 0 0 0 -1,-1 h -4.89 a 1,1 0 0 0 -1,1 v 3.48 h -4.11 a 1,1 0 0 0 -1,1 v 12.49 a 1,1 0 0 0 1,1 h 4.11 v 4 h -4.11 a 1,1 0 0 0 -1,1 v 5.43 a 1,1 0 0 0 1,1 h 1.46 v 9.85 a 1,1 0 0 0 1,1 h 5.35 a 1,1 0 0 0 1,-1 v -9.83 h 27.46 v 9.83 a 1,1 0 0 0 1,1 h 5.3 a 1,1 0 0 0 1,-1 v -9.83 h 1.24 a 1,1 0 0 0 1,-1 v -5.43 a 1,1 0 0 0 -1,-1 h -4.1 v -4 h 4.1 a 1,1 0 0 0 1,-1 v -12.51 a 1,1 0 0 0 -1,-1 z m -9,-2.48 h 2.9 v 2.48 h -2.9 z m -29.71,0 h 2.89 v 2.48 h -2.88 z m 0.71,37.25 h -3.3 v -8.83 h 3.3 z m 34.81,0 h -3.3 v -8.83 h 3.3 z m 2.19,-14.26 v 3.43 h -42.81 v -3.43 z m -37.7,-2 v -4 h 2.89 v 4 z m 4.89,0 v -4 h 22.81 v 4 z m 24.82,0 v -4 h 2.89 v 4 z m 8,-6 h -42.82 v -10.51 h 42.81 z"
     id="path4"
     style="fill:#494949" />
  <path
     d="m 26.94491,21.695556 a 1,1 0 0 0 -1.36,0.39 l -4.66,8.35 -4.16,-8.31 a 1,1 0 0 0 -1.34,-0.43 1,1 0 0 0 -0.44,1.34 l 5,10 a 1,1 0 0 0 0.87,0.55 v 0 a 1,1 0 0 0 0.87,-0.52 l 5.58,-10 a 1,1 0 0 0 -0.36,-1.37 z"
     id="path6"
     style="fill:#494949" />
</svg>
