<?xml version="1.0" encoding="UTF-8" standalone="no"?>
<svg
   version="1.1"
   x="0px"
   y="0px"
   viewBox="0 0 97.941002 80.6716"
   enable-background="new 0 0 100 100"
   xml:space="preserve"
   id="svg8"
   sodipodi:docname="garden-flowers2.svg"
   width="97.941002"
   height="80.6716"
   inkscape:version="1.1.2 (0a00cf5339, 2022-02-04)"
   xmlns:inkscape="http://www.inkscape.org/namespaces/inkscape"
   xmlns:sodipodi="http://sodipodi.sourceforge.net/DTD/sodipodi-0.dtd"
   xmlns="http://www.w3.org/2000/svg"
   xmlns:svg="http://www.w3.org/2000/svg"><defs
     id="defs12" /><sodipodi:namedview
     id="namedview10"
     pagecolor="#ffffff"
     bordercolor="#666666"
     borderopacity="1.0"
     inkscape:pageshadow="2"
     inkscape:pageopacity="0.0"
     inkscape:pagecheckerboard="0"
     showgrid="false"
     fit-margin-top="0"
     fit-margin-left="0"
     fit-margin-right="0"
     fit-margin-bottom="0"
     inkscape:zoom="6.088"
     inkscape:cx="48.948752"
     inkscape:cy="52.808804"
     inkscape:window-width="1850"
     inkscape:window-height="1025"
     inkscape:window-x="1990"
     inkscape:window-y="27"
     inkscape:window-maximized="1"
     inkscape:current-layer="svg8" /><path
     d="M 95.941,33.526597 H 81.677 c -1.104,0 -2,0.896 -2,2 v 6.872 H 67.099 c 0.346,-8.367 5.64,-15.04 12.117,-15.04 1.104,0 2,-0.896 2,-2 0,-1.104 -0.896,-2 -2,-2 -3.821,0 -7.332,1.652 -10.101,4.397 1.545,-5.069 3.681,-7.955 5.384,-7.955 1.104,0 2,-0.896 2,-2 0,-1.104 -0.896,-2 -2,-2 -4.685,0 -8.007,5.632 -9.823,13.131 -2.01,-5.137 -5.133,-8.322 -8.769,-8.322 -1.104,0 -2,0.896 -2,2 0,1.104 0.896,2 2,2 1.707,0 3.516,2.042 4.888,5.434 -2.2,-1.655 -4.833,-2.625 -7.663,-2.625 -1.104,0 -2,0.896 -2,2 0,1.104 0.896,2 2,2 5.233,0 9.524,4.853 9.896,10.98 H 33.577 c -0.006,-1.929 -0.03,-3.776 -0.075,-5.538 0.045,-0.167 0.078,-0.34 0.078,-0.521 0,-3 2.535,-7.173 5.031,-7.173 1.042,0 1.855,0.193 2.464,0.434 -1.267,0.983 -2.098,2.503 -2.098,4.227 0,2.96 2.409,5.369 5.369,5.369 2.96,0 5.368,-2.409 5.368,-5.369 0,-2.405 -1.6,-4.421 -3.783,-5.102 -1.014,-2.114 -3.822,-3.559 -7.32,-3.559 -2.198,0 -4.089,1.111 -5.57,2.719 -0.375,-4.515 -0.956,-8.361 -1.776,-11.673 0.102,-5.17 3.354,-9.3380001 7.346,-9.3380001 1.313,0 2.491,1.418 2.959,3.3020001 -2.589,0.917 -4.451,3.383 -4.451,6.283 0,3.679 2.993,6.672 6.671,6.672 3.678,0 6.671,-2.993 6.671,-6.672 0,-3.034 -2.039,-5.597 -4.816,-6.402 -0.661,-4.1480001 -3.514,-7.1820001 -7.034,-7.1820001 -4.104,0 -7.696,2.627 -9.691,6.541 -1.242,-2.648 -2.759,-4.853 -4.592,-6.759 -0.037,-0.038 -0.075,-0.074 -0.114,-0.109 -2.89,-2.56700003 -6.186,-3.24200003 -8.818,-1.81000003 -2.376,1.29400003 -3.629,4.03200003 -3.52,7.49200003 -2.714,0.846 -4.69,3.3810001 -4.69,6.3700001 0,3.679 2.993,6.672 6.671,6.672 3.678,0 6.671,-2.993 6.671,-6.672 0,-2.974 -1.958,-5.4980001 -4.651,-6.3550001 -0.093,-1.953 0.418,-3.441 1.432,-3.993 1.056,-0.577 2.658,-0.103 4.192,1.236 3.046,3.196 5.118,7.6340001 6.4,14.1620001 -1.16,-0.713 -2.439,-1.13 -3.768,-1.13 -2.726,0 -4.944,2.233 -5.56,5.327 -2.061,0.75 -3.545,2.711 -3.545,5.028 0,2.961 2.409,5.37 5.369,5.37 2.96,0 5.368,-2.409 5.368,-5.37 0,-2.146 -1.273,-3.987 -3.097,-4.846 0.332,-0.914 0.916,-1.509 1.464,-1.509 2.498,0 4.95,3.548 4.95,7.164 0,0.237 0.048,0.46 0.124,0.671 0.238,3.573 0.358,7.569 0.372,12.045 H 18.265 v -6.872 c 0,-1.104 -0.896,-2 -2,-2 H 2 c -1.104,0 -2,0.896 -2,2 v 43.143 c 0,1.104 0.896,2 2,2 h 14.265 65.412 14.264 c 1.104,0 2,-0.896 2,-2 v -43.145 c 0,-1.105 -0.896,-2 -2,-2 z m -51.596,1.669 c -0.755,0 -1.369,-0.614 -1.369,-1.369 0,-0.689 0.514,-1.255 1.177,-1.349 0.064,0.006 0.125,0.019 0.191,0.019 0.066,0 0.127,-0.013 0.191,-0.019 0.664,0.094 1.178,0.66 1.178,1.349 10e-4,0.755 -0.613,1.369 -1.368,1.369 z m -0.555,-16.066 c -1.473,0 -2.671,-1.199 -2.671,-2.672 0,-1.305 0.943,-2.39 2.183,-2.621 0.157,0.04 0.319,0.067 0.489,0.067 0.17,0 0.332,-0.027 0.489,-0.067 1.239,0.231 2.182,1.316 2.182,2.621 -0.001,1.473 -1.2,2.672 -2.672,2.672 z m -29.934,-1.86 c -1.473,0 -2.671,-1.199 -2.671,-2.672 0,-1.472 1.198,-2.67 2.671,-2.67 1.473,0 2.671,1.198 2.671,2.67 0,1.473 -1.198,2.672 -2.671,2.672 z m 6.54,12.972 c -0.755,0 -1.369,-0.614 -1.369,-1.37 0,-0.635 0.437,-1.165 1.025,-1.319 0.112,0.02 0.226,0.035 0.344,0.035 0.118,0 0.232,-0.015 0.344,-0.035 0.587,0.154 1.024,0.684 1.024,1.319 0,0.756 -0.613,1.37 -1.368,1.37 z m 59.281,16.157 v 13.136 H 18.265 v -13.136 z M 4,37.526597 h 10.265 v 6.872 17.136 15.136 H 4 Z m 14.265,26.007 h 61.412 v 13.136 H 18.265 Z m 75.676,13.136 H 83.677 v -15.136 -17.135 -6.872 h 10.264 z"
     id="path2"
     style="fill:#494949" /></svg>
