<?xml version="1.0" encoding="UTF-8" standalone="no"?>
<svg
   xml:space="preserve"
   version="1.1"
   style="image-rendering:optimizeQuality;shape-rendering:geometricPrecision;text-rendering:geometricPrecision"
   viewBox="0 0 7.9588996 7.0936036"
   x="0px"
   y="0px"
   fill-rule="evenodd"
   clip-rule="evenodd"
   id="svg14"
   sodipodi:docname="garden.svg"
   width="7.9589"
   height="7.0936036"
   inkscape:version="1.1.2 (0a00cf5339, 2022-02-04)"
   xmlns:inkscape="http://www.inkscape.org/namespaces/inkscape"
   xmlns:sodipodi="http://sodipodi.sourceforge.net/DTD/sodipodi-0.dtd"
   xmlns="http://www.w3.org/2000/svg"
   xmlns:svg="http://www.w3.org/2000/svg"><sodipodi:namedview
     id="namedview16"
     pagecolor="#ffffff"
     bordercolor="#666666"
     borderopacity="1.0"
     inkscape:pageshadow="2"
     inkscape:pageopacity="0.0"
     inkscape:pagecheckerboard="0"
     showgrid="false"
     fit-margin-top="0"
     fit-margin-left="0"
     fit-margin-right="0"
     fit-margin-bottom="0"
     inkscape:zoom="71.906078"
     inkscape:cx="3.9774107"
     inkscape:cy="4.6101805"
     inkscape:window-width="1850"
     inkscape:window-height="1025"
     inkscape:window-x="1990"
     inkscape:window-y="27"
     inkscape:window-maximized="1"
     inkscape:current-layer="svg14" /><defs
     id="defs4"><style
       type="text/css"
       id="style2">
   
    .fil0 {fill:black;fill-rule:nonzero}
   
  </style></defs><g
     id="g8"
     transform="translate(-0.2539,-0.68659654)"
     style="fill:#494949"><path
       class="fil0"
       d="m 2.3345,0.6866 c 0.1284,-3e-4 0.2492,0.0189 0.3617,0.054 0.3432,0.1073 0.5988,0.3628 0.767,0.6837 0.1616,0.3085 0.2425,0.6785 0.2425,1.0313 0,0.1611 -0.0169,0.3201 -0.0505,0.4694 C 3.8055,3.0135 3.9343,3.1432 4.0304,3.3009 4.1489,3.4956 4.219,3.7336 4.219,3.9894 4.219,4.3128 4.107,4.6077 3.926,4.8228 3.7384,5.0459 3.4771,5.184 3.1872,5.184 H 2.4054 l 4e-4,2.4268 c 0,0.0935 -0.0759,0.1694 -0.1694,0.1694 C 2.1429,7.7802 2.067,7.7043 2.067,7.6108 V 5.184 H 1.4636 C 1.1227,5.184 0.8161,5.0147 0.5964,4.7413 0.3848,4.4782 0.2539,4.1168 0.2539,3.7202 0.2539,3.4099 0.3338,3.1214 0.4694,2.885 0.5914,2.6723 0.7593,2.5006 0.9562,2.3907 0.9652,2.0274 1.0741,1.6254 1.2796,1.3058 1.5045,0.9562 1.8438,0.7018 2.2953,0.6875 2.306,0.6874 2.3257,0.6884 2.3345,0.6866 Z M 3.6834,6.1462 C 3.5899,6.1462 3.514,6.0703 3.514,5.9768 3.514,5.8833 3.5899,5.8074 3.6834,5.8074 H 3.8242 V 5.7073 H 3.6834 C 3.5899,5.7073 3.514,5.6314 3.514,5.5379 3.514,5.4444 3.5899,5.3685 3.6834,5.3685 H 3.8242 V 5.1157 c 0,-0.0935 0.0759,-0.1694 0.1694,-0.1694 h 0.4457 c 0.0935,0 0.1694,0.0759 0.1694,0.1694 V 5.3685 H 6.9938 V 5.1157 c 0,-0.0935 0.0759,-0.1694 0.1694,-0.1694 h 0.4456 c 0.0935,0 0.1694,0.0759 0.1694,0.1694 v 0.2528 h 0.1409 c 0.0935,0 0.1694,0.0759 0.1694,0.1694 0,0.0935 -0.0759,0.1694 -0.1694,0.1694 H 7.7782 v 0.1001 h 0.1409 c 0.0935,0 0.1694,0.0759 0.1694,0.1694 0,0.0935 -0.0759,0.1694 -0.1694,0.1694 H 7.7782 v 0.1715 h 0.2652 c 0.0935,0 0.1694,0.0759 0.1694,0.1694 v 0.4215 c 0,0.0935 -0.0759,0.1694 -0.1694,0.1694 H 7.7782 v 0.5328 c 0,0.0935 -0.0759,0.1694 -0.1694,0.1694 H 7.1632 C 7.0697,7.7802 6.9938,7.7043 6.9938,7.6108 V 7.078 H 4.6087 v 0.5328 c 0,0.0935 -0.0759,0.1694 -0.1694,0.1694 H 3.9936 C 3.9001,7.7802 3.8242,7.7043 3.8242,7.6108 V 7.078 H 3.5591 C 3.4656,7.078 3.3897,7.0021 3.3897,6.9086 V 6.4871 c 0,-0.0935 0.0759,-0.1694 0.1694,-0.1694 H 3.8242 V 6.1462 Z M 4.163,5.8074 H 4.2699 V 5.7073 H 4.163 Z m 0.4457,0 H 6.9938 V 5.7073 H 4.6087 Z m 2.7239,0 H 7.4394 V 5.7073 H 7.3326 Z M 7.4394,6.1462 H 7.3326 v 0.1715 h 0.1068 z m -0.4456,0 H 4.6087 v 0.1715 h 2.3851 z m -2.7239,0 H 4.163 V 6.3177 H 4.2699 Z M 4.163,5.3685 H 4.2699 V 5.2851 H 4.163 Z m 3.1696,0 H 7.4394 V 5.2851 H 7.3326 Z M 4.163,7.078 V 7.4414 H 4.2699 V 7.078 Z m 3.1696,0 V 7.4414 H 7.4394 V 7.078 Z M 7.874,6.6565 H 3.7285 V 6.7392 H 7.874 Z M 2.4053,4.1508 2.717,3.9352 C 2.7937,3.8823 2.8989,3.9015 2.9518,3.9782 3.0047,4.0549 2.9855,4.1601 2.9088,4.213 L 2.4054,4.5613 V 4.8452 H 3.1872 C 3.3734,4.8452 3.5436,4.7537 3.668,4.6058 3.799,4.4501 3.8802,4.2321 3.8802,3.9894 3.8802,3.7966 3.8289,3.6196 3.742,3.4769 3.657,3.3375 3.5387,3.2307 3.4028,3.1756 3.3156,3.1468 3.2673,3.053 3.2947,2.9649 3.3428,2.8111 3.3669,2.6363 3.3669,2.4556 3.3669,2.1526 3.2993,1.8383 3.1642,1.5805 3.0356,1.3352 2.8455,1.1415 2.5956,1.0634 2.5163,1.0387 2.4292,1.0251 2.3345,1.0251 L 2.3059,1.0249 C 1.9817,1.0351 1.7328,1.226 1.564,1.4884 1.3852,1.7664 1.2944,2.1222 1.2944,2.4396 l 2e-4,0.0453 C 1.2989,2.5543 1.2597,2.6221 1.1921,2.6509 1.0197,2.7245 0.8699,2.8669 0.7632,3.053 0.6559,3.2401 0.5927,3.4704 0.5927,3.7202 c 0,0.3183 0.1021,0.6045 0.2669,0.8095 0.1565,0.1948 0.3704,0.3155 0.604,0.3155 H 2.067 V 3.519 L 1.6926,3.0829 C 1.632,3.0121 1.6403,2.9054 1.7111,2.8448 1.7819,2.7842 1.8886,2.7925 1.9492,2.8633 l 0.4155,0.484 c 0.0272,0.0318 0.0406,0.0709 0.0405,0.1098 z"
       id="path6"
       style="fill:#494949" /></g></svg>
