<?xml version="1.0" encoding="UTF-8" standalone="no"?>
<svg
   data-name="Layer 1"
   viewBox="0 0 466 385.20053"
   x="0px"
   y="0px"
   version="1.1"
   id="svg48"
   sodipodi:docname="gas-pipe.svg"
   width="466"
   height="385.20053"
   inkscape:version="1.2.2 (b0a8486541, 2022-12-01)"
   xmlns:inkscape="http://www.inkscape.org/namespaces/inkscape"
   xmlns:sodipodi="http://sodipodi.sourceforge.net/DTD/sodipodi-0.dtd"
   xmlns="http://www.w3.org/2000/svg"
   xmlns:svg="http://www.w3.org/2000/svg"
   xmlns:rdf="http://www.w3.org/1999/02/22-rdf-syntax-ns#"
   xmlns:cc="http://creativecommons.org/ns#"
   xmlns:dc="http://purl.org/dc/elements/1.1/">
  <defs
     id="defs52" />
  <sodipodi:namedview
     id="namedview50"
     pagecolor="#ffffff"
     bordercolor="#000000"
     borderopacity="0.25"
     inkscape:showpageshadow="2"
     inkscape:pageopacity="0.0"
     inkscape:pagecheckerboard="0"
     inkscape:deskcolor="#d1d1d1"
     showgrid="false"
     inkscape:zoom="1.3546875"
     inkscape:cx="233.63322"
     inkscape:cy="257.2549"
     inkscape:window-width="1864"
     inkscape:window-height="1012"
     inkscape:window-x="1976"
     inkscape:window-y="32"
     inkscape:window-maximized="1"
     inkscape:current-layer="svg48" />
  <title
     id="title2">3977 - Gas</title>
  <g
     data-name="Layer_1"
     id="g42"
     transform="translate(-23,-63.4)"
     style="fill:#666666">
    <g
       data-name=" 486181296"
       id="g40"
       style="fill:#666666">
      <g
         data-name=" 251331336"
         id="g6"
         style="fill:#666666">
        <path
           d="m 418.76,400.47 h -80.11 a 8,8 0 0 1 -6.95,-12 87.11,87.11 0 0 0 0,-85.85 8,8 0 0 1 6.95,-11.95 h 80.11 a 8,8 0 0 1 8,8 v 93.75 a 8,8 0 0 1 -8,8.05 z m -67.35,-16 h 59.35 v -77.75 h -59.35 a 103.23,103.23 0 0 1 0,77.75 z m -178.06,16 H 93.24 a 8,8 0 0 1 -8,-8 v -93.75 a 8,8 0 0 1 8,-8 h 80.11 a 8,8 0 0 1 7,11.95 87.11,87.11 0 0 0 0,85.85 8,8 0 0 1 -7,12 z m -72.11,-16 h 59.35 a 103.23,103.23 0 0 1 0,-77.75 h -59.35 z"
           id="path4"
           style="fill:#666666" />
      </g>
      <g
         data-name=" 251330976"
         id="g10"
         style="fill:#666666">
        <path
           d="M 256,448.6 A 103,103 0 0 1 193.17,264 v -75.78 a 8,8 0 0 1 8,-8 h 109.66 a 8,8 0 0 1 8,8 V 264 A 103,103 0 0 1 256,448.6 Z M 209.17,196.22 V 268 a 8,8 0 0 1 -3.38,6.53 87,87 0 1 0 100.42,0 8,8 0 0 1 -3.38,-6.53 v -71.78 z"
           id="path8"
           style="fill:#666666" />
      </g>
      <g
         data-name=" 251330952"
         id="g14"
         style="fill:#666666">
        <path
           d="m 256,448.6 a 102.26,102.26 0 0 1 -73.22,-30.6 8,8 0 0 1 -2.3,-5.1 204.13,204.13 0 0 1 3.43,-50.23 8,8 0 0 1 12.73,-4.9 c 9.33,7.14 15.61,18.52 19.46,27.66 a 54.74,54.74 0 0 0 2.16,-6.56 C 191.77,343.1 198.7,306.77 199.02,305.2 a 8,8 0 0 1 15.84,1.41 c 0.17,8.07 2.84,13.56 8.15,16.74 -1.16,-21.29 6.91,-31.07 14.15,-39.85 5.22,-6.32 9.73,-11.79 10.89,-22.27 a 8,8 0 0 1 15.9,0 c 1.16,10.48 5.67,16 10.89,22.27 7.25,8.79 15.33,18.58 14.14,39.93 4.1,-2.54 8,-7.43 8.16,-16.82 A 8,8 0 0 1 313,305.24 c 0.32,1.57 7.25,37.91 -19.24,73.67 a 54.74,54.74 0 0 0 2.16,6.56 c 3.85,-9.14 10.13,-20.52 19.46,-27.66 a 8,8 0 0 1 12.73,4.9 204.13,204.13 0 0 1 3.43,50.23 8,8 0 0 1 -2.3,5.1 A 102.26,102.26 0 0 1 256,448.6 Z m -59.72,-39.73 a 87,87 0 0 0 119.44,0 175,175 0 0 0 -0.84,-25.83 88.68,88.68 0 0 0 -8.35,20.67 8,8 0 0 1 -11,5.46 c -13.11,-5.69 -17.56,-26.59 -18.32,-30.72 a 8,8 0 0 1 1.61,-6.43 87.5,87.5 0 0 0 16.87,-34.18 36.07,36.07 0 0 1 -16.12,4.37 8,8 0 0 1 -7.87,-9.44 c 4.18,-22.79 -1.75,-30 -9.24,-39 a 100.88,100.88 0 0 1 -6.5,-8.49 100.88,100.88 0 0 1 -6.5,8.49 c -7.49,9.08 -13.41,16.25 -9.24,39 a 8,8 0 0 1 -7.87,9.44 36.07,36.07 0 0 1 -16.12,-4.37 87.5,87.5 0 0 0 16.91,34.16 8,8 0 0 1 1.61,6.43 c -0.76,4.13 -5.21,25 -18.32,30.72 a 8,8 0 0 1 -11,-5.47 88.82,88.82 0 0 0 -8.31,-20.68 175,175 0 0 0 -0.84,25.87 z m 127.26,3.54 z"
           id="path12"
           style="fill:#666666" />
      </g>
      <g
         data-name=" 251330904"
         id="g18"
         style="fill:#666666">
        <path
           d="m 256,448.6 a 103.5,103.5 0 0 1 -26.48,-3.44 8,8 0 0 1 -5.77,-9.43 c 8.3,-38.3 26.19,-54.47 26.95,-55.14 a 8,8 0 0 1 10.6,0 c 0.76,0.67 18.65,16.84 26.95,55.14 a 8,8 0 0 1 -5.77,9.43 103.5,103.5 0 0 1 -26.48,3.44 z m -14.7,-17.24 a 87.93,87.93 0 0 0 29.4,0 C 266.32,415.54 260.29,405 256,399 c -4.29,6 -10.32,16.54 -14.7,32.36 z"
           id="path16"
           style="fill:#666666" />
      </g>
      <g
         data-name=" 251330880"
         id="g22"
         style="fill:#666666">
        <path
           d="m 283.84,196.22 h -55.68 a 8,8 0 0 1 -8,-8 v -69.48 a 8,8 0 0 1 8,-8 h 55.68 a 8,8 0 0 1 8,8 v 69.48 a 8,8 0 0 1 -8,8 z m -47.68,-16 h 39.68 v -53.48 h -39.68 z"
           id="path20"
           style="fill:#666666" />
      </g>
      <g
         data-name=" 251331456"
         id="g26"
         style="fill:#666666">
        <path
           d="M 416.74,126.74 H 256 a 8,8 0 0 1 -8,-8 V 71.4 a 8,8 0 0 1 8,-8 h 160.74 a 31.67,31.67 0 1 1 0,63.34 z M 264,110.74 h 152.74 a 15.67,15.67 0 1 0 0,-31.34 H 264 Z"
           id="path24"
           style="fill:#666666" />
      </g>
      <g
         data-name=" 251331264"
         id="g30"
         style="fill:#666666">
        <path
           d="M 256,126.74 H 95.26 a 31.67,31.67 0 0 1 0,-63.34 H 256 a 8,8 0 0 1 8,8 v 47.34 a 8,8 0 0 1 -8,8 z M 95.26,79.4 a 15.67,15.67 0 0 0 0,31.34 H 248 V 79.4 Z"
           id="path28"
           style="fill:#666666" />
      </g>
      <g
         data-name=" 486185304"
         id="g34"
         style="fill:#666666">
        <path
           d="M 93.24,423.93 H 31 a 8,8 0 0 1 -8,-8 V 275.25 a 8,8 0 0 1 8,-8 h 62.24 a 8,8 0 0 1 8,8 v 140.68 a 8,8 0 0 1 -8,8 z M 39,407.93 H 85.24 V 283.25 H 39 Z"
           id="path32"
           style="fill:#666666" />
      </g>
      <g
         data-name=" 486181488"
         id="g38"
         style="fill:#666666">
        <path
           d="m 481,423.93 h -62.24 a 8,8 0 0 1 -8,-8 V 275.25 a 8,8 0 0 1 8,-8 H 481 a 8,8 0 0 1 8,8 v 140.68 a 8,8 0 0 1 -8,8 z m -54.24,-16 H 473 V 283.25 h -46.24 z"
           id="path36"
           style="fill:#666666" />
      </g>
    </g>
  </g>
  <metadata
     id="metadata228">
    <rdf:RDF>
      <cc:Work
         rdf:about="">
        <dc:title>3977 - Gas</dc:title>
      </cc:Work>
    </rdf:RDF>
  </metadata>
</svg>
