<?xml version="1.0" encoding="UTF-8" standalone="no"?>
<svg
   version="1.1"
   x="0px"
   y="0px"
   viewBox="0 0 507.90967 440.29999"
   enable-background="new 0 0 512 512"
   xml:space="preserve"
   id="svg8"
   sodipodi:docname="golf.svg"
   width="507.90967"
   height="440.29999"
   inkscape:version="1.1.2 (0a00cf5339, 2022-02-04)"
   xmlns:inkscape="http://www.inkscape.org/namespaces/inkscape"
   xmlns:sodipodi="http://sodipodi.sourceforge.net/DTD/sodipodi-0.dtd"
   xmlns="http://www.w3.org/2000/svg"
   xmlns:svg="http://www.w3.org/2000/svg"><defs
     id="defs12" /><sodipodi:namedview
     id="namedview10"
     pagecolor="#ffffff"
     bordercolor="#666666"
     borderopacity="1.0"
     inkscape:pageshadow="2"
     inkscape:pageopacity="0.0"
     inkscape:pagecheckerboard="0"
     showgrid="false"
     fit-margin-top="0"
     fit-margin-left="0"
     fit-margin-right="0"
     fit-margin-bottom="0"
     inkscape:zoom="1.1890625"
     inkscape:cx="253.9816"
     inkscape:cy="283.83706"
     inkscape:window-width="1850"
     inkscape:window-height="1025"
     inkscape:window-x="1990"
     inkscape:window-y="27"
     inkscape:window-maximized="1"
     inkscape:current-layer="svg8" /><path
     d="M 405.9,265.4 337.8,28.2 h 67.6 c 7.8,0 14.1,-6.3 14.1,-14.1 C 419.5,6.3 413.2,0 405.4,0 H 53.6 C 45.8,0 39.5,6.3 39.5,14.1 V 190.7 C 16.6,197.9 0,219.3 0,244.5 v 133.3 c 0,7.8 6.3,14.1 14.1,14.1 h 25 c 6.4,27.7 31.2,48.4 60.8,48.4 29.6,0 54.4,-20.7 60.8,-48.4 h 179.9 c 6.4,27.7 31.2,48.4 60.8,48.4 29.6,0 54.4,-20.7 60.8,-48.4 h 31.6 c 7.8,0 14.1,-6.3 14.1,-14.1 0.8,-60.8 -48.2,-108 -102,-112.4 z M 308.4,28.2 369.3,240.2 309,191.9 322,175 c 4.8,-6.2 3.6,-15 -2.6,-19.8 -6.2,-4.8 -15,-3.6 -19.8,2.6 l -43,55.7 c -4.8,6.2 -3.6,15 2.6,19.8 6.2,4.8 15,3.6 19.8,-2.6 l 12.7,-16.4 63.2,50.7 H 155 v -62.7 c 0,-7.8 -6.3,-14.1 -14.1,-14.1 H 67.7 V 28.2 Z M 99.9,412 C 81,412 65.6,396.6 65.6,377.7 c 0,-18.9 15.4,-34.3 34.3,-34.3 18.9,0 34.3,15.4 34.3,34.3 -0.1,18.9 -15.4,34.3 -34.3,34.3 z m 301.5,0 c -18.9,0 -34.3,-15.4 -34.3,-34.3 0,-18.9 15.4,-34.3 34.3,-34.3 18.9,0 34.3,15.4 34.3,34.3 0,18.9 -15.4,34.3 -34.3,34.3 z m 77.2,-48.4 h -16.4 c -6.4,-27.7 -31.2,-48.4 -60.8,-48.4 -29.6,0 -54.4,20.7 -60.8,48.4 H 160.7 c -6.4,-27.7 -31.2,-48.4 -60.8,-48.4 -29.6,0 -54.4,20.7 -60.8,48.4 H 28.2 V 244.5 c 0,-15.5 12.6,-28.2 28.2,-28.2 h 70.4 V 279 c 0,7.8 6.3,14.1 14.1,14.1 h 254.3 c 37.1,0.1 75.4,25.5 83.4,70.5 z"
     id="path2"
     style="fill:#494949" /></svg>
