<?xml version="1.0" encoding="UTF-8" standalone="no"?>
<svg
   viewBox="0 0 30 31.66666"
   x="0px"
   y="0px"
   version="1.1"
   id="svg826"
   sodipodi:docname="noun-construction-4623065.svg"
   width="30"
   height="31.66666"
   xmlns:inkscape="http://www.inkscape.org/namespaces/inkscape"
   xmlns:sodipodi="http://sodipodi.sourceforge.net/DTD/sodipodi-0.dtd"
   xmlns="http://www.w3.org/2000/svg"
   xmlns:svg="http://www.w3.org/2000/svg">
  <defs
     id="defs830" />
  <sodipodi:namedview
     id="namedview828"
     pagecolor="#ffffff"
     bordercolor="#000000"
     borderopacity="0.25"
     inkscape:showpageshadow="2"
     inkscape:pageopacity="0.0"
     inkscape:pagecheckerboard="0"
     inkscape:deskcolor="#d1d1d1"
     showgrid="false" />
  <title
     id="title818">Монтажная область 33</title>
  <path
     d="m 25.67978,14.16666 a 2.47074,2.47074 0 0 0 0.15355,-0.83333 2.49591,2.49591 0 0 0 -1.66666,-2.34645 V 6.66666 h 2.5 V 0 H 0 V 31.66666 H 11.66667 V 25 h -5 V 6.66666 H 22.5 v 4.32022 a 2.49591,2.49591 0 0 0 -1.66667,2.34645 2.47054,2.47054 0 0 0 0.15361,0.83333 H 16.66667 V 20 H 30 V 14.16666 Z M 25,5 H 21.66667 V 1.66666 H 25 Z M 16.66667,1.66666 H 20 V 5 H 16.66667 Z M 15,5 H 11.66667 V 1.66666 H 15 Z M 1.66667,1.66666 H 5 V 5 H 1.66667 Z m 0,15 H 5 V 20 H 1.66667 Z M 5,15 H 1.66667 V 11.66666 H 5 Z M 1.66667,21.66666 H 5 V 25 H 1.66667 Z m 0,5 H 5 V 30 H 1.66667 Z M 10,30 H 6.66667 V 26.66666 H 10 Z M 5,10 H 1.66667 V 6.66666 H 5 Z M 6.66667,1.66666 H 10 V 5 H 6.66667 Z M 22.5,13.33333 A 0.83334,0.83334 0 1 1 23.33333,14.16666 0.83441,0.83441 0 0 1 22.5,13.33333 Z m 5.83333,5 h -10 v -2.5 h 10 z"
     id="path820"
     style="fill:#ffffff" />
</svg>
