<?xml version="1.0" encoding="UTF-8" standalone="no"?>
<svg
   version="1.1"
   viewBox="-5 -10 87.4851 34.37508"
   id="svg781"
   sodipodi:docname="gym-form.svg"
   width="87.4851"
   height="34.37508"
   inkscape:version="1.2.2 (b0a8486541, 2022-12-01)"
   xmlns:inkscape="http://www.inkscape.org/namespaces/inkscape"
   xmlns:sodipodi="http://sodipodi.sourceforge.net/DTD/sodipodi-0.dtd"
   xmlns="http://www.w3.org/2000/svg"
   xmlns:svg="http://www.w3.org/2000/svg">
  <defs
     id="defs785" />
  <sodipodi:namedview
     id="namedview783"
     pagecolor="#ffffff"
     bordercolor="#000000"
     borderopacity="0.25"
     inkscape:showpageshadow="2"
     inkscape:pageopacity="0.0"
     inkscape:pagecheckerboard="0"
     inkscape:deskcolor="#d1d1d1"
     showgrid="false"
     inkscape:zoom="6.4222222"
     inkscape:cx="43.83218"
     inkscape:cy="24.83564"
     inkscape:window-width="1920"
     inkscape:window-height="1044"
     inkscape:window-x="3840"
     inkscape:window-y="0"
     inkscape:window-maximized="1"
     inkscape:current-layer="svg781" />
  <path
     d="m 80.9455,5.6250597 h -3.125 v -6.24999996 c 0,-2.58590004 -2.1016,-4.68750004 -4.6875,-4.68750004 -1.1797,0.03906 -3.625,-0.17578 -4.6875,0.28906 0.14453,-2.6797 -1.9883,-4.9843997 -4.6875,-4.9766 h -3.125 c -2.5859,0 -4.6875,2.1016 -4.6875,4.6875 v 10.941 h -34.383 v -10.941 c 0,-2.5859 -2.1016,-4.6875 -4.6875,-4.6875 H 13.75 c -2.5859,0 -4.6875,2.1016 -4.6875,4.6875 v 0.28906 C 8.57031,-5.1992003 8.0508,-5.3124803 7.5,-5.3124803 H 4.375 c -2.5859,0 -4.6875,2.1016 -4.6875,4.68750004 V 5.6250197 h -3.125 c -0.86328,0 -1.5625,0.69922 -1.5625,1.5625 0,0.86328 0.69922,1.5625 1.5625,1.5625 h 3.125 V 15.00002 c 0,2.5859 2.1016,4.6875 4.6875,4.6875 1.1797,-0.03906 3.625,0.17578 4.6875,-0.28906 -0.14453,2.6797 1.9883,4.9844 4.6875,4.9766 h 3.125 c 2.5859,0 4.6875,-2.1016 4.6875,-4.6875 V 8.7465597 h 34.383 V 19.68756 c 0,2.5859 2.1016,4.6875 4.6875,4.6875 h 3.125 c 2.5859,0 4.6875,-2.1016 4.6875,-4.6875 V 19.3985 c 0.49219,0.17578 1.0117,0.28906 1.5625,0.28906 h 3.125 c 2.5859,0 4.6875,-2.1016 4.6875,-4.6875 V 8.7500597 h 3.125 c 2.0234,-0.02344 2.082,-3.0898 0,-3.125 z M 7.4885,16.56606 h -3.125 c -0.86328,0 -1.5625,-0.69922 -1.5625,-1.5625 V -0.62544026 c 0,-0.86328004 0.70312,-1.56250004 1.5625,-1.56250004 h 3.125 c 0.86328,0 1.5625,0.69922 1.5625,1.56250004 V 15.00356 c 0,0.86328 -0.70312,1.5625 -1.5625,1.5625 z m 10.941,3.125 c 0,0.86328 -0.70312,1.5625 -1.5625,1.5625 h -3.125 c -0.86328,0 -1.5625,-0.69922 -1.5625,-1.5625 V -5.3169403 c 0,-0.86328 0.70313,-1.5625 1.5625,-1.5625 h 3.125 c 0.86328,0 1.5625,0.69922 1.5625,1.5625 z m 46.887,0 c 0,0.86328 -0.70312,1.5625 -1.5625,1.5625 h -3.125 c -0.86328,0 -1.5625,-0.69922 -1.5625,-1.5625 V -5.3169403 c 0,-0.86328 0.70312,-1.5625 1.5625,-1.5625 h 3.125 c 0.86328,0 1.5625,0.69922 1.5625,1.5625 z m 9.3789,-4.6875 c 0,0.86328 -0.70313,1.5625 -1.5625,1.5625 h -3.125 c -0.86328,0 -1.5625,-0.69922 -1.5625,-1.5625 V -0.62544026 c 0,-0.86328004 0.70312,-1.56250004 1.5625,-1.56250004 h 3.125 c 0.86328,0 1.5625,0.69922 1.5625,1.56250004 z"
     id="path775"
     style="fill:#6a6a6a" />
</svg>
