<?xml version="1.0" encoding="UTF-8" standalone="no"?>
<svg
   viewBox="0 0 96 53"
   version="1.1"
   x="0px"
   y="0px"
   id="svg16"
   sodipodi:docname="gym.svg"
   width="96"
   height="53"
   inkscape:version="1.1.2 (0a00cf5339, 2022-02-04)"
   xmlns:inkscape="http://www.inkscape.org/namespaces/inkscape"
   xmlns:sodipodi="http://sodipodi.sourceforge.net/DTD/sodipodi-0.dtd"
   xmlns="http://www.w3.org/2000/svg"
   xmlns:svg="http://www.w3.org/2000/svg"
   xmlns:rdf="http://www.w3.org/1999/02/22-rdf-syntax-ns#"
   xmlns:cc="http://creativecommons.org/ns#"
   xmlns:dc="http://purl.org/dc/elements/1.1/">
  <defs
     id="defs20" />
  <sodipodi:namedview
     id="namedview18"
     pagecolor="#ffffff"
     bordercolor="#666666"
     borderopacity="1.0"
     inkscape:pageshadow="2"
     inkscape:pageopacity="0.0"
     inkscape:pagecheckerboard="0"
     showgrid="false"
     fit-margin-top="0"
     fit-margin-left="0"
     fit-margin-right="0"
     fit-margin-bottom="0"
     inkscape:zoom="8.1223888"
     inkscape:cx="42.598305"
     inkscape:cy="33.179894"
     inkscape:window-width="1850"
     inkscape:window-height="1025"
     inkscape:window-x="1990"
     inkscape:window-y="27"
     inkscape:window-maximized="1"
     inkscape:current-layer="svg16" />
  <title
     id="title2">gym, workout, weights, athlete, sports, press</title>
  <desc
     id="desc4">Created with Sketch.</desc>
  <g
     stroke="none"
     stroke-width="1"
     fill="none"
     fill-rule="evenodd"
     id="g10"
     style="fill:#464646">
    <g
       transform="translate(-288,-331)"
       fill="#000000"
       fill-rule="nonzero"
       id="g8"
       style="fill:#464646">
      <path
         d="M 296,372.82843 V 380 h 33 v -34 h -2 v 9 c 0,1.10457 -0.89543,2 -2,2 -1.10457,0 -2,-0.89543 -2,-2 v -9 h -2 v 6 c 0,1.10457 -0.89543,2 -2,2 -1.10457,0 -2,-0.89543 -2,-2 v -6 h -3 c -1.10457,0 -2,-0.89543 -2,-2 0,-1.10457 0.89543,-2 2,-2 h 3 v -6 c 0,-1.10457 0.89543,-2 2,-2 1.10457,0 2,0.89543 2,2 v 6 h 2 v -9 c 0,-1.10457 0.89543,-2 2,-2 1.10457,0 2,0.89543 2,2 v 9 h 2 v -2 c 0,-1.10457 0.89543,-2 2,-2 1.10457,0 2,0.89543 2,2 v 2 h 30 v -2 c 0,-1.10457 0.89543,-2 2,-2 1.10457,0 2,0.89543 2,2 v 2 h 2 v -9 c 0,-1.10457 0.89543,-2 2,-2 1.10457,0 2,0.89543 2,2 v 9 h 2 v -6 c 0,-1.10457 0.89543,-2 2,-2 1.10457,0 2,0.89543 2,2 v 6 h 3 c 1.10457,0 2,0.89543 2,2 0,1.10457 -0.89543,2 -2,2 h -3 v 6 c 0,1.10457 -0.89543,2 -2,2 -1.10457,0 -2,-0.89543 -2,-2 v -6 h -2 v 9 c 0,1.10457 -0.89543,2 -2,2 -1.10457,0 -2,-0.89543 -2,-2 v -9 h -2 v 34 h 15 c 1.10457,0 2,0.89543 2,2 0,1.10457 -0.89543,2 -2,2 h -92 c -1.10457,0 -2,-0.89543 -2,-2 0,-1.10457 0.89543,-2 2,-2 h 2 v -20 c 0,-1.10457 0.89543,-2 2,-2 1.10457,0 2,0.89543 2,2 v 7.17157 l 5.67157,-5.67157 -5.08578,-5.08579 c -0.78105,-0.78104 -0.78105,-2.04738 0,-2.82842 0.78104,-0.78105 2.04738,-0.78105 2.82842,0 l 5.08579,5.08578 1.17157,-1.17157 -3.08578,-3.08579 c -0.78105,-0.78104 -0.78105,-2.04738 0,-2.82842 0.78104,-0.78105 2.04738,-0.78105 2.82842,0 l 3.08579,3.08578 2.08579,-2.08578 c 0.78104,-0.78105 2.04738,-0.78105 2.82842,0 0.78105,0.78104 0.78105,2.04738 0,2.82842 l -2.08578,2.08579 3.08578,3.08579 c 0.78105,0.78104 0.78105,2.04738 0,2.82842 -0.78104,0.78105 -2.04738,0.78105 -2.82842,0 L 308.5,360.32843 307.32843,361.5 l 5.08578,5.08579 c 0.78105,0.78104 0.78105,2.04738 0,2.82842 -0.78104,0.78105 -2.04738,0.78105 -2.82842,0 L 304.5,364.32843 Z M 359,368 h 4 v -22 h -30 v 22 h 4 v -4 c 0,-2.20914 1.79086,-4 4,-4 h 14 c 2.20914,0 4,1.79086 4,4 z m -26,4 v 8 h 30 v -8 z"
         id="path6"
         style="fill:#464646" />
    </g>
  </g>
  <metadata
     id="metadata22">
    <rdf:RDF>
      <cc:Work
         rdf:about="">
        <dc:title>gym, workout, weights, athlete, sports, press</dc:title>
      </cc:Work>
    </rdf:RDF>
  </metadata>
</svg>
