<?xml version="1.0" encoding="UTF-8" standalone="no"?>
<svg
   version="1.1"
   x="0px"
   y="0px"
   viewBox="0 0 84.983833 74.675003"
   xml:space="preserve"
   id="svg8"
   sodipodi:docname="h_actualmente.svg"
   width="84.983833"
   height="74.675003"
   inkscape:version="1.1.2 (0a00cf5339, 2022-02-04)"
   xmlns:inkscape="http://www.inkscape.org/namespaces/inkscape"
   xmlns:sodipodi="http://sodipodi.sourceforge.net/DTD/sodipodi-0.dtd"
   xmlns="http://www.w3.org/2000/svg"
   xmlns:svg="http://www.w3.org/2000/svg"><defs
     id="defs12" /><sodipodi:namedview
     id="namedview10"
     pagecolor="#ffffff"
     bordercolor="#666666"
     borderopacity="1.0"
     inkscape:pageshadow="2"
     inkscape:pageopacity="0.0"
     inkscape:pagecheckerboard="0"
     showgrid="false"
     fit-margin-top="0"
     fit-margin-left="0"
     fit-margin-right="0"
     fit-margin-bottom="0"
     inkscape:zoom="6.088"
     inkscape:cx="42.378449"
     inkscape:cy="49.852168"
     inkscape:window-width="1850"
     inkscape:window-height="1025"
     inkscape:window-x="1990"
     inkscape:window-y="27"
     inkscape:window-maximized="1"
     inkscape:current-layer="svg8" /><path
     d="m 3.1080435,38.275 h 7.8999995 v 36.4 h 63 v -36.4 h 7.9 c 2.7,0 4.1,-3.3 2.2,-5.3 l -39.4,-32 c -1.2,-1.3 -3.3,-1.3 -4.5,0 l -39.39999953,32 c -1.8,2 -0.4,5.3 2.30000003,5.3 z m 28.9999995,27.7 v -3.5 c 0,-4.4 2.8,-8.2 6.7,-9.7 1.2,-0.5 2.4,-0.7 3.7,-0.7 1.3,0 2.6,0.3 3.7,0.7 3.9,1.5 6.7,5.3 6.7,9.7 v 3.5 3 h -20.8 z m 3.7,-24.1 c 0.1,-1.1 0.4,-2.1 0.9,-3 1.2,-2 3.4,-3.4 5.9,-3.4 2.5,0 4.7,1.4 5.9,3.4 0.5,0.9 0.8,1.9 0.9,3 0,0.1 0,0.2 0,0.3 0,3.7 -3,6.7 -6.7,6.7 -3.7,0 -6.7,-3 -6.7,-6.7 -0.2,-0.1 -0.2,-0.2 -0.2,-0.3 z m 31.6,16.7 v 7.5 h -12.5 v -3.5 c 0,-5.1 -3.1,-9.4 -7.4,-11.3 2.1,-2.4 5.2,-4 8.6,-4 6.2,-0.1 11.3,5 11.3,11.3 z m -11.3,-28 c 4.3,0 7.7,3.5 7.7,7.7 0,4.2 -3.5,7.7 -7.7,7.7 -1.9,0 -3.7,-0.7 -5.1,-1.9 0.1,-0.6 0.2,-1.2 0.2,-1.9 0,-2.4 -1,-4.6 -2.6,-6.2 1,-3.1 4,-5.4 7.5,-5.4 z m -27.2,0 c 3.5,0 6.4,2.3 7.4,5.5 -1.6,1.6 -2.6,3.8 -2.6,6.2 0,0.7 0.1,1.3 0.2,1.9 -1.4,1.2 -3.1,1.9 -5.1,1.9 -4.3,0 -7.7,-3.5 -7.7,-7.7 0,-4.2 3.6,-7.8 7.8,-7.8 z m -11.3,28 c 0,-6.3 5.1,-11.4 11.4,-11.4 3.5,0 6.5,1.5 8.6,4 -4.4,1.9 -7.4,6.3 -7.4,11.3 v 3.5 h -12.6 z"
     id="path2"
     style="fill:#aaaaaa" /></svg>
