<?xml version="1.0" encoding="UTF-8" standalone="no"?>
<svg
   version="1.1"
   viewBox="-5 -10 83.318512 38.472534"
   id="svg360"
   sodipodi:docname="happy-zone.svg"
   width="83.318512"
   height="38.472534"
   inkscape:version="1.2.2 (b0a8486541, 2022-12-01)"
   xmlns:inkscape="http://www.inkscape.org/namespaces/inkscape"
   xmlns:sodipodi="http://sodipodi.sourceforge.net/DTD/sodipodi-0.dtd"
   xmlns="http://www.w3.org/2000/svg"
   xmlns:svg="http://www.w3.org/2000/svg">
  <defs
     id="defs364" />
  <sodipodi:namedview
     id="namedview362"
     pagecolor="#ffffff"
     bordercolor="#000000"
     borderopacity="0.25"
     inkscape:showpageshadow="2"
     inkscape:pageopacity="0.0"
     inkscape:pagecheckerboard="0"
     inkscape:deskcolor="#d1d1d1"
     showgrid="false"
     inkscape:zoom="6.4222222"
     inkscape:cx="41.652249"
     inkscape:cy="26.548443"
     inkscape:window-width="1920"
     inkscape:window-height="1044"
     inkscape:window-x="3840"
     inkscape:window-y="0"
     inkscape:window-maximized="1"
     inkscape:current-layer="svg360" />
  <g
     id="g354"
     transform="translate(-13.340722,-41.180186)"
     style="fill:#6a6a6a">
    <path
       d="M 70.102,41.602 H 29.899 c -2.207,0 -4,-1.793 -4,-4 v -0.92187 c 0,-2.207 1.793,-4 4,-4 h 40.203 c 1.0586,0 2.0781,0.42187 2.8281,1.1719 0.75,0.75003 1.1719,1.7656 1.1719,2.8281 V 37.602 c 0,1.0586 -0.42187,2.0781 -1.1719,2.8281 -0.75003,0.75 -1.7695,1.1719 -2.8281,1.1719 z m -40.199,-6 h -0.0039 c -0.55078,0 -1,0.44531 -1,1 v 0.92188 -0.0039 c 0,0.26562 0.10547,0.51953 0.29297,0.70703 0.1875,0.1875 0.44531,0.29297 0.70703,0.29297 h 40.203 c 0.26172,0 0.51953,-0.10547 0.70703,-0.29297 0.1875,-0.1875 0.29297,-0.44141 0.29297,-0.70703 V 36.5981 36.602 c 0,-0.26562 -0.10547,-0.51953 -0.29297,-0.70703 C 70.62163,35.70747 70.36382,35.602 70.1021,35.602 Z"
       id="path336"
       style="fill:#6a6a6a" />
    <path
       d="M 56.211,69.641 H 43.789 c -0.82812,0 -1.5,-0.67188 -1.5,-1.5 0.01172,-4.0898 3.3242,-7.3984 7.4102,-7.4102 h 0.60156 c 4.0859,0.01172 7.3984,3.3203 7.4102,7.4102 0,0.39844 -0.16016,0.77734 -0.44141,1.0586 -0.28125,0.28126 -0.66016,0.44141 -1.0586,0.44141 z m -10.66,-3 h 8.8984 c -0.63672,-1.7422 -2.293,-2.9023 -4.1484,-2.9102 h -0.60156 c -1.8555,0.0078 -3.5117,1.168 -4.1484,2.9102 z"
       id="path338"
       style="fill:#6a6a6a" />
    <path
       d="m 50,63.73 c -0.82812,0 -1.5,-0.67188 -1.5,-1.5 V 40.101 c 0,-0.82812 0.67188,-1.5 1.5,-1.5 0.82812,0 1.5,0.67188 1.5,1.5 V 62.23 c 0,0.82812 -0.67188,1.5 -1.5,1.5 z"
       id="path340"
       style="fill:#6a6a6a" />
    <path
       d="M 80.879,53.25 H 66.941 c -0.82812,0 -1.5,-0.67188 -1.5,-1.5 0,-0.82812 0.67188,-1.5 1.5,-1.5 h 13.938 c 1.5703,-0.0078 2.9492,-1.043 3.3906,-2.5508 l 4.4414,-15.43 c 0.10937,-0.38281 0.36719,-0.70703 0.71484,-0.89844 0.35156,-0.19531 0.76172,-0.24219 1.1445,-0.13281 0.79688,0.23047 1.2578,1.0625 1.0312,1.8633 l -4.4531,15.43 c -0.8125,2.7852 -3.3633,4.707 -6.2695,4.7188 z"
       id="path342"
       style="fill:#6a6a6a" />
    <path
       d="m 66.941,69.641 c -0.12891,0.01563 -0.25391,0.01563 -0.38281,0 -0.80078,-0.21094 -1.2812,-1.0273 -1.0781,-1.832 l 4.25,-16.398 c 0.24219,-0.75781 1.0352,-1.1953 1.8047,-0.99609 0.76953,0.19922 1.25,0.96484 1.0938,1.7461 l -4.2383,16.398 c -0.19141,0.64453 -0.78125,1.082 -1.4492,1.082 z"
       id="path344"
       style="fill:#6a6a6a" />
    <path
       d="m 85.281,69.641 c -0.68359,0 -1.2773,-0.46094 -1.4531,-1.1211 l -4.25,-16.398 c -0.20703,-0.80469 0.27734,-1.625 1.082,-1.832 0.80469,-0.20703 1.6211,0.27734 1.8281,1.082 l 4.2383,16.398 h 0.0039 c 0.20703,0.80078 -0.26953,1.6211 -1.0703,1.832 -0.125,0.02734 -0.25391,0.03906 -0.37891,0.03906 z"
       id="path346"
       style="fill:#6a6a6a" />
    <path
       d="M 33.059,53.25 H 19.121 c -2.9062,-0.01172 -5.457,-1.9336 -6.2695,-4.7188 l -4.4531,-15.43 c -0.22656,-0.80078 0.23437,-1.6328 1.0312,-1.8633 0.79687,-0.22656 1.6328,0.23438 1.8594,1.0312 l 4.4414,15.43 c 0.44141,1.5078 1.8203,2.543 3.3906,2.5508 h 13.938 c 0.82812,0 1.5,0.67188 1.5,1.5 0,0.82812 -0.67188,1.5 -1.5,1.5 z"
       id="path348"
       style="fill:#6a6a6a" />
    <path
       d="m 33.059,69.641 c -0.67969,-0.0039 -1.2734,-0.46484 -1.4492,-1.1211 l -4.2383,-16.398 c -0.15625,-0.78125 0.32422,-1.5469 1.0938,-1.7461 0.76953,-0.20312 1.5625,0.23828 1.8047,0.99609 l 4.25,16.398 c 0.20312,0.80469 -0.27734,1.6211 -1.0781,1.832 -0.125,0.02734 -0.25391,0.03906 -0.38281,0.03906 z"
       id="path350"
       style="fill:#6a6a6a" />
    <path
       d="m 14.719,69.641 c -0.125,0.01172 -0.25391,0.01172 -0.37891,0 -0.80078,-0.21094 -1.2773,-1.0312 -1.0703,-1.832 l 4.2383,-16.398 h 0.0039 c 0.09766,-0.38672 0.34766,-0.71484 0.69141,-0.91797 0.33984,-0.20313 0.75,-0.26172 1.1367,-0.16406 0.80469,0.20703 1.2891,1.0273 1.082,1.832 l -4.25,16.398 c -0.19141,0.64453 -0.78125,1.0859 -1.4531,1.082 z"
       id="path352"
       style="fill:#6a6a6a" />
  </g>
</svg>
