<?xml version="1.0" encoding="UTF-8" standalone="no"?>
<svg
   version="1.1"
   x="0px"
   y="0px"
   viewBox="0 0 42.215427 36.900002"
   xml:space="preserve"
   id="svg38"
   sodipodi:docname="heating.svg"
   width="42.215427"
   height="36.900002"
   inkscape:version="1.1.2 (0a00cf5339, 2022-02-04)"
   xmlns:inkscape="http://www.inkscape.org/namespaces/inkscape"
   xmlns:sodipodi="http://sodipodi.sourceforge.net/DTD/sodipodi-0.dtd"
   xmlns="http://www.w3.org/2000/svg"
   xmlns:svg="http://www.w3.org/2000/svg"><defs
     id="defs42" /><sodipodi:namedview
     id="namedview40"
     pagecolor="#ffffff"
     bordercolor="#666666"
     borderopacity="1.0"
     inkscape:pageshadow="2"
     inkscape:pageopacity="0.0"
     inkscape:pagecheckerboard="0"
     showgrid="false"
     fit-margin-top="0"
     fit-margin-left="0"
     fit-margin-right="0"
     fit-margin-bottom="0"
     inkscape:zoom="16.454054"
     inkscape:cx="21.514455"
     inkscape:cy="23.094612"
     inkscape:window-width="1920"
     inkscape:window-height="1052"
     inkscape:window-x="3840"
     inkscape:window-y="0"
     inkscape:window-maximized="1"
     inkscape:current-layer="svg38" /><style
     type="text/css"
     id="style2">
	.st0{fill-rule:evenodd;clip-rule:evenodd;}
</style><path
     class="st0"
     d="m 1,0 c 0.6,0 1,0.4 1,1 v 34.9 c 0,0.6 -0.4,1 -1,1 -0.6,0 -1,-0.4 -1,-1 V 1 C 0,0.4 0.4,0 1,0 Z"
     id="path4"
     style="fill:#494949" /><path
     class="st0"
     d="m 9,0 c 0.6,0 1,0.4 1,1 v 34.9 c 0,0.6 -0.4,1 -1,1 -0.6,0 -1,-0.4 -1,-1 V 1 C 8,0.4 8.5,0 9,0 Z"
     id="path6"
     style="fill:#494949" /><path
     class="st0"
     d="m 17.1,0 c 0.6,0 1,0.4 1,1 v 34.9 c 0,0.6 -0.4,1 -1,1 -0.6,0 -1,-0.4 -1,-1 V 1 c 0,-0.6 0.4,-1 1,-1 z"
     id="path8"
     style="fill:#494949" /><path
     class="st0"
     d="m 25.1,0 c 0.6,0 1,0.4 1,1 v 34.9 c 0,0.6 -0.4,1 -1,1 -0.6,0 -1,-0.4 -1,-1 V 1 c 0,-0.6 0.5,-1 1,-1 z"
     id="path10"
     style="fill:#494949" /><path
     class="st0"
     d="m 33.2,0 c 0.6,0 1,0.4 1,1 v 34.9 c 0,0.6 -0.4,1 -1,1 -0.6,0 -1,-0.4 -1,-1 V 1 c 0,-0.6 0.4,-1 1,-1 z"
     id="path12"
     style="fill:#494949" /><path
     class="st0"
     d="M 0,1 C 0,0.4 0.4,0 1,0 h 32.2 c 0.6,0 1,0.4 1,1 0,0.6 -0.4,1 -1,1 H 1 C 0.4,2 0,1.6 0,1 Z"
     id="path14"
     style="fill:#494949" /><path
     class="st0"
     d="m 0,35.9 c 0,-0.6 0.4,-1 1,-1 h 32.2 c 0.6,0 1,0.4 1,1 0,0.6 -0.4,1 -1,1 H 1 c -0.6,0 -1,-0.5 -1,-1 z"
     id="path16"
     style="fill:#494949" /><path
     class="st0"
     d="M 0,5 C 0,4.4 0.4,4 1,4 h 32.2 c 0.6,0 1,0.4 1,1 0,0.6 -0.4,1 -1,1 H 1 C 0.4,6 0,5.6 0,5 Z"
     id="path18"
     style="fill:#494949" /><path
     class="st0"
     d="M 0,9 C 0,8.4 0.4,8 1,8 h 32.2 c 0.6,0 1,0.4 1,1 0,0.6 -0.4,1 -1,1 H 1 C 0.4,10 0,9.6 0,9 Z"
     id="path20"
     style="fill:#494949" /><path
     class="st0"
     d="m 36.5,26.8 c 0.6,0 1,0.4 1,1 v 5.4 c 0,0.6 -0.4,1 -1,1 -0.6,0 -1,-0.4 -1,-1 v -5.4 c 0,-0.5 0.5,-1 1,-1 z"
     id="path22"
     style="fill:#494949" /><path
     class="st0"
     d="m 41.2,27.5 c 0.6,0 1,0.4 1,1 v 4 c 0,0.6 -0.4,1 -1,1 -0.6,0 -1,-0.4 -1,-1 v -4 c 0,-0.6 0.5,-1 1,-1 z"
     id="path24"
     style="fill:#494949" /><path
     class="st0"
     d="m 35.5,27.7 c 0.1,-0.5 0.6,-0.9 1.1,-0.8 l 4.7,0.7 c 0.5,0.1 0.9,0.6 0.8,1.1 -0.1,0.5 -0.6,0.9 -1.1,0.8 l -4.7,-0.7 c -0.5,-0.1 -0.8,-0.6 -0.8,-1.1 z"
     id="path26"
     style="fill:#494949" /><path
     class="st0"
     d="m 42.2,32.4 c 0.1,0.5 -0.3,1.1 -0.8,1.1 l -4.7,0.7 c -0.5,0.1 -1.1,-0.3 -1.1,-0.8 -0.1,-0.5 0.3,-1.1 0.8,-1.1 l 4.7,-0.7 c 0.5,-0.2 1,0.2 1.1,0.8 z"
     id="path28"
     style="fill:#494949" /><path
     class="st0"
     d="m 32.2,30.5 c 0,-0.6 0.4,-1 1,-1 h 3.4 c 0.6,0 1,0.4 1,1 0,0.6 -0.4,1 -1,1 h -3.4 c -0.6,0 -1,-0.4 -1,-1 z"
     id="path30"
     style="fill:#494949" /><path
     class="st0"
     d="m 32.2,7 c 0,-0.6 0.4,-1 1,-1 h 3.4 c 0.6,0 1,0.4 1,1 0,0.6 -0.4,1 -1,1 h -3.4 c -0.6,0 -1,-0.4 -1,-1 z"
     id="path32"
     style="fill:#494949" /></svg>
