<?xml version="1.0" encoding="UTF-8" standalone="no"?>
<svg
   version="1.1"
   x="0px"
   y="0px"
   viewBox="0 0 90 89.849998"
   xml:space="preserve"
   id="svg476"
   sodipodi:docname="heating4.svg"
   width="90"
   height="89.849998"
   inkscape:version="1.2.2 (b0a8486541, 2022-12-01)"
   xmlns:inkscape="http://www.inkscape.org/namespaces/inkscape"
   xmlns:sodipodi="http://sodipodi.sourceforge.net/DTD/sodipodi-0.dtd"
   xmlns="http://www.w3.org/2000/svg"
   xmlns:svg="http://www.w3.org/2000/svg"><defs
     id="defs480" /><sodipodi:namedview
     id="namedview478"
     pagecolor="#ffffff"
     bordercolor="#000000"
     borderopacity="0.25"
     inkscape:showpageshadow="2"
     inkscape:pageopacity="0.0"
     inkscape:pagecheckerboard="0"
     inkscape:deskcolor="#d1d1d1"
     showgrid="false"
     inkscape:zoom="6.936"
     inkscape:cx="45.054787"
     inkscape:cy="57.598039"
     inkscape:window-width="1920"
     inkscape:window-height="1044"
     inkscape:window-x="3840"
     inkscape:window-y="0"
     inkscape:window-maximized="1"
     inkscape:current-layer="svg476" /><g
     id="g470"
     transform="translate(-5,-5.05)"
     style="fill:#6a6a6a"><path
       d="M 93,90.9 H 87 V 50.6 c 0.3,0 0.6,0.1 0.9,0.1 1,0 2.1,-0.2 3.1,-0.7 2.5,-1.2 4,-3.6 4,-6.4 0,-2.2 -1,-4.2 -2.7,-5.6 L 51.2,5.5 C 50.5,4.9 49.4,4.9 48.7,5.5 L 29,21.2 v -6.4 c 0,-3.3 -2.7,-6 -6,-6 h -4 c -3.3,0 -6,2.7 -6,6 v 19 L 7.7,38 C 6,39.4 5,41.4 5,43.6 c 0,2.7 1.5,5.2 4,6.4 1.3,0.6 2.7,0.8 4,0.6 V 90.9 H 7 c -1.1,0 -2,0.9 -2,2 0,1.1 0.9,2 2,2 h 86 c 1.1,0 2,-0.9 2,-2 0,-1.1 -0.9,-2 -2,-2 z M 17,14.8 c 0,-1.1 0.9,-2 2,-2 h 4 c 1.1,0 2,0.9 2,2 v 9.5 l -8,6.3 z M 83,90.9 H 17 V 48.7 L 50,22.6 83,48.7 Z M 51.2,18.5 c -0.7,-0.6 -1.8,-0.6 -2.5,0 L 14,46 c -1,0.8 -2.2,0.9 -3.3,0.4 C 9.7,45.8 9,44.8 9,43.6 c 0,-1 0.4,-1.8 1.2,-2.4 L 50,9.7 89.8,41.2 c 0.8,0.6 1.2,1.5 1.2,2.4 0,1.2 -0.7,2.3 -1.8,2.8 -1.1,0.5 -2.3,0.4 -3.3,-0.4 z"
       id="path450"
       style="fill:#6a6a6a" /><path
       d="m 38,60.9 c 0,6.6 5.4,12 12,12 6.6,0 12,-5.4 12,-12 0,-6.6 -5.4,-12 -12,-12 -6.6,0 -12,5.4 -12,12 z m 20,0 c 0,4.4 -3.6,8 -8,8 -4.4,0 -8,-3.6 -8,-8 0,-4.4 3.6,-8 8,-8 4.4,0 8,3.6 8,8 z"
       id="path452"
       style="fill:#6a6a6a" /><path
       d="m 48,36.9 v 6 c 0,1.1 0.9,2 2,2 1.1,0 2,-0.9 2,-2 v -6 c 0,-1.1 -0.9,-2 -2,-2 -1.1,0 -2,0.9 -2,2 z"
       id="path454"
       style="fill:#6a6a6a" /><path
       d="m 50,76.9 c -1.1,0 -2,0.9 -2,2 v 6 c 0,1.1 0.9,2 2,2 1.1,0 2,-0.9 2,-2 v -6 c 0,-1.1 -0.9,-2 -2,-2 z"
       id="path456"
       style="fill:#6a6a6a" /><path
       d="m 35.9,49.6 c 0.4,0.4 0.9,0.6 1.4,0.6 0.5,0 1,-0.2 1.4,-0.6 0.8,-0.8 0.8,-2 0,-2.8 l -4.2,-4.2 c -0.8,-0.8 -2,-0.8 -2.8,0 -0.8,0.8 -0.8,2 0,2.8 z"
       id="path458"
       style="fill:#6a6a6a" /><path
       d="m 64.1,72.2 c -0.8,-0.8 -2,-0.8 -2.8,0 -0.8,0.8 -0.8,2 0,2.8 l 4.2,4.2 c 0.4,0.4 0.9,0.6 1.4,0.6 0.5,0 1,-0.2 1.4,-0.6 0.8,-0.8 0.8,-2 0,-2.8 z"
       id="path460"
       style="fill:#6a6a6a" /><path
       d="m 62.7,50.2 c 0.5,0 1,-0.2 1.4,-0.6 l 4.2,-4.2 c 0.8,-0.8 0.8,-2 0,-2.8 -0.8,-0.8 -2,-0.8 -2.8,0 l -4.2,4.2 c -0.8,0.8 -0.8,2 0,2.8 0.4,0.4 0.9,0.6 1.4,0.6 z"
       id="path462"
       style="fill:#6a6a6a" /><path
       d="m 35.9,72.2 -4.2,4.2 c -0.8,0.8 -0.8,2 0,2.8 0.4,0.4 0.9,0.6 1.4,0.6 0.5,0 1,-0.2 1.4,-0.6 L 38.7,75 c 0.8,-0.8 0.8,-2.1 0,-2.8 -0.8,-0.8 -2.1,-0.8 -2.8,0 z"
       id="path464"
       style="fill:#6a6a6a" /><path
       d="m 66,60.9 c 0,1.1 0.9,2 2,2 h 6 c 1.1,0 2,-0.9 2,-2 0,-1.1 -0.9,-2 -2,-2 h -6 c -1.1,0 -2,0.9 -2,2 z"
       id="path466"
       style="fill:#6a6a6a" /><path
       d="m 34,60.9 c 0,-1.1 -0.9,-2 -2,-2 h -6 c -1.1,0 -2,0.9 -2,2 0,1.1 0.9,2 2,2 h 6 c 1.1,0 2,-0.9 2,-2 z"
       id="path468"
       style="fill:#6a6a6a" /></g></svg>
