<?xml version="1.0" encoding="UTF-8" standalone="no"?>
<svg
   version="1.1"
   x="0px"
   y="0px"
   viewBox="0 0 30 22"
   xml:space="preserve"
   id="svg12"
   sodipodi:docname="heating3.svg"
   width="30"
   height="22"
   inkscape:version="1.1.2 (0a00cf5339, 2022-02-04)"
   xmlns:inkscape="http://www.inkscape.org/namespaces/inkscape"
   xmlns:sodipodi="http://sodipodi.sourceforge.net/DTD/sodipodi-0.dtd"
   xmlns="http://www.w3.org/2000/svg"
   xmlns:svg="http://www.w3.org/2000/svg"><defs
     id="defs16" /><sodipodi:namedview
     id="namedview14"
     pagecolor="#ffffff"
     bordercolor="#666666"
     borderopacity="1.0"
     inkscape:pageshadow="2"
     inkscape:pageopacity="0.0"
     inkscape:pagecheckerboard="0"
     showgrid="false"
     fit-margin-top="0"
     fit-margin-left="0"
     fit-margin-right="0"
     fit-margin-bottom="0"
     inkscape:zoom="19.025"
     inkscape:cx="14.980289"
     inkscape:cy="10.775296"
     inkscape:window-width="1920"
     inkscape:window-height="1052"
     inkscape:window-x="0"
     inkscape:window-y="0"
     inkscape:window-maximized="1"
     inkscape:current-layer="svg12" /><g
     id="g6"
     transform="translate(-1,-5)"
     style="fill:#616161"><title
       id="title2">Artboard 78</title><path
       d="M 29.5,21 H 29 V 11 h 0.5 C 30.3,11 31,10.3 31,9.5 31,8.7 30.3,8 29.5,8 H 29 V 7 C 29,5.9 28.1,5 27,5 25.9,5 25,5.9 25,7 V 8 H 24 V 7 C 24,5.9 23.1,5 22,5 20.9,5 20,5.9 20,7 V 8 H 19 V 7 C 19,5.9 18.1,5 17,5 15.9,5 15,5.9 15,7 V 8 H 14 V 7 C 14,5.9 13.1,5 12,5 10.9,5 10,5.9 10,7 V 8 H 9 V 7 C 9,5.9 8.1,5 7,5 5.9,5 5,5.9 5,7 V 8 H 3.9 C 3.7,7.4 3.2,7 2.5,7 1.7,7 1,7.7 1,8.5 v 2 C 1,11.3 1.7,12 2.5,12 3.2,12 3.7,11.6 3.9,11 H 5 v 14 c 0,1.1 0.9,2 2,2 1.1,0 2,-0.9 2,-2 v -1 h 1 v 1 c 0,1.1 0.9,2 2,2 1.1,0 2,-0.9 2,-2 v -1 h 1 v 1 c 0,1.1 0.9,2 2,2 1.1,0 2,-0.9 2,-2 v -1 h 1 v 1 c 0,1.1 0.9,2 2,2 1.1,0 2,-0.9 2,-2 v -1 h 1 v 1 c 0,1.1 0.9,2 2,2 1.1,0 2,-0.9 2,-2 v -1 h 0.5 C 30.3,24 31,23.3 31,22.5 31,21.7 30.3,21 29.5,21 Z m 0,-12 C 29.8,9 30,9.2 30,9.5 30,9.8 29.8,10 29.5,10 H 29 V 9 Z M 24,11 h 1 v 10 h -1 z m 1,-2 v 1 H 24 V 9 Z m -6,2 h 1 v 10 h -1 z m 1,-2 v 1 H 19 V 9 Z m -6,2 h 1 v 10 h -1 z m 1,-2 v 1 H 14 V 9 Z m -6,2 h 1 V 21 H 9 Z m 1,-2 v 1 H 9 V 9 Z M 2.5,11 C 2.2,11 2,10.8 2,10.5 v -2 C 2,8.2 2.2,8 2.5,8 2.8,8 3,8.2 3,8.5 v 2 C 3,10.8 2.8,11 2.5,11 Z M 4,10 V 9 h 1 v 1 z M 8,25 C 8,25.6 7.6,26 7,26 6.4,26 6,25.6 6,25 V 10.5 8.5 7 C 6,6.4 6.4,6 7,6 7.6,6 8,6.4 8,7 v 1.5 2 11 2 z m 1,-2 v -1 h 1 v 1 z m 4,2 c 0,0.6 -0.4,1 -1,1 -0.6,0 -1,-0.4 -1,-1 v -1.5 -2 -11 -2 V 7 c 0,-0.6 0.4,-1 1,-1 0.6,0 1,0.4 1,1 v 1.5 2 11 2 z m 1,-2 v -1 h 1 v 1 z m 4,2 c 0,0.6 -0.4,1 -1,1 -0.6,0 -1,-0.4 -1,-1 v -1.5 -2 -11 -2 V 7 c 0,-0.6 0.4,-1 1,-1 0.6,0 1,0.4 1,1 v 1.5 2 11 2 z m 1,-2 v -1 h 1 v 1 z m 4,2 c 0,0.6 -0.4,1 -1,1 -0.6,0 -1,-0.4 -1,-1 v -1.5 -2 -11 -2 V 7 c 0,-0.6 0.4,-1 1,-1 0.6,0 1,0.4 1,1 v 1.5 2 11 2 z m 1,-2 v -1 h 1 v 1 z m 4,2 c 0,0.6 -0.4,1 -1,1 -0.6,0 -1,-0.4 -1,-1 v -1.5 -2 -11 -2 V 7 c 0,-0.6 0.4,-1 1,-1 0.6,0 1,0.4 1,1 v 1.5 2 11 2 z m 1.5,-2 H 29 v -1 h 0.5 c 0.3,0 0.5,0.2 0.5,0.5 0,0.3 -0.2,0.5 -0.5,0.5 z"
       id="path4"
       style="fill:#616161" /></g></svg>
