<?xml version="1.0" encoding="UTF-8" standalone="no"?>
<svg
   data-name="Layer 2"
   viewBox="0 0 44 47.00774"
   x="0px"
   y="0px"
   version="1.1"
   id="svg30"
   sodipodi:docname="heating2.svg"
   width="44"
   height="47.00774"
   inkscape:version="1.1.2 (0a00cf5339, 2022-02-04)"
   xmlns:inkscape="http://www.inkscape.org/namespaces/inkscape"
   xmlns:sodipodi="http://sodipodi.sourceforge.net/DTD/sodipodi-0.dtd"
   xmlns="http://www.w3.org/2000/svg"
   xmlns:svg="http://www.w3.org/2000/svg">
  <defs
     id="defs34" />
  <sodipodi:namedview
     id="namedview32"
     pagecolor="#ffffff"
     bordercolor="#666666"
     borderopacity="1.0"
     inkscape:pageshadow="2"
     inkscape:pageopacity="0.0"
     inkscape:pagecheckerboard="0"
     showgrid="false"
     fit-margin-top="0"
     fit-margin-left="0"
     fit-margin-right="0"
     fit-margin-bottom="0"
     inkscape:zoom="9.5125"
     inkscape:cx="21.971091"
     inkscape:cy="16.136662"
     inkscape:window-width="1850"
     inkscape:window-height="1025"
     inkscape:window-x="1990"
     inkscape:window-y="27"
     inkscape:window-maximized="1"
     inkscape:current-layer="svg30" />
  <path
     d="M 40.64014,42.007741 H 3.35986 A 3.3642,3.3642 0 0 1 0,38.647391 v -19.2793 a 3.3642,3.3642 0 0 1 3.35986,-3.36035 H 40.64014 A 3.3642,3.3642 0 0 1 44,19.368091 v 19.2793 a 3.3642,3.3642 0 0 1 -3.35986,3.36035 z m -37.28028,-24 A 1.3616,1.3616 0 0 0 2,19.368091 v 19.2793 a 1.3616,1.3616 0 0 0 1.35986,1.36035 H 40.64014 A 1.3616,1.3616 0 0 0 42,38.647391 v -19.2793 a 1.3616,1.3616 0 0 0 -1.35986,-1.36035 z"
     id="path2"
     style="fill:#4c4c4c" />
  <path
     d="m 14.11914,14.007741 a 1.00021,1.00021 0 0 1 -0.81738,-1.5752 c 0.13281,-0.18847 0.27441,-0.36621 0.416,-0.543 a 2.64825,2.64825 0 0 0 0.0015,-3.7568395 4.612,4.612 0 0 1 -10e-4,-6.24707 3.21872,3.21872 0 0 0 0.68945,-1.14941003 1,1 0 1 1 1.92481,0.54300003 5.02244,5.02244 0 0 1 -1.05176,1.8545 2.61666,2.61666 0 0 0 -0.78076,1.87402 2.58312,2.58312 0 0 0 0.78076,1.875 4.621,4.621 0 0 1 -0.0024,6.2578095 c -0.11576,0.14453 -0.23197,0.28809 -0.33988,0.44239 a 1.00057,1.00057 0 0 1 -0.81934,0.4248 z"
     id="path4"
     style="fill:#4c4c4c" />
  <path
     d="m 29.11914,14.007741 a 1.00021,1.00021 0 0 1 -0.81738,-1.5752 c 0.13281,-0.18847 0.27441,-0.36621 0.416,-0.543 a 2.64825,2.64825 0 0 0 0.0015,-3.7568395 4.612,4.612 0 0 1 -10e-4,-6.24707 3.21872,3.21872 0 0 0 0.68945,-1.14941003 1,1 0 1 1 1.92481,0.54300003 5.02244,5.02244 0 0 1 -1.05176,1.8545 2.61666,2.61666 0 0 0 -0.78076,1.87402 2.58312,2.58312 0 0 0 0.78076,1.875 4.621,4.621 0 0 1 -0.0024,6.2578095 c -0.11576,0.14453 -0.23197,0.28809 -0.33988,0.44239 a 1.00057,1.00057 0 0 1 -0.81934,0.4248 z"
     id="path6"
     style="fill:#4c4c4c" />
  <path
     d="m 21.11914,14.007741 a 1.00021,1.00021 0 0 1 -0.81738,-1.5752 c 0.13281,-0.18847 0.27441,-0.36621 0.416,-0.543 a 2.64825,2.64825 0 0 0 0.0015,-3.7568395 4.612,4.612 0 0 1 -10e-4,-6.24707 3.21872,3.21872 0 0 0 0.68945,-1.14941003 1,1 0 1 1 1.92481,0.54300003 5.02244,5.02244 0 0 1 -1.05176,1.8545 2.61666,2.61666 0 0 0 -0.78076,1.87402 2.58312,2.58312 0 0 0 0.78076,1.875 4.621,4.621 0 0 1 -0.0024,6.2578095 c -0.11576,0.14453 -0.23197,0.28809 -0.33988,0.44239 a 1.00057,1.00057 0 0 1 -0.81934,0.4248 z"
     id="path8"
     style="fill:#4c4c4c" />
  <path
     d="m 19,38.007741 a 0.99974,0.99974 0 0 1 -1,-1 v -14 a 1,1 0 0 1 2,0 v 14 a 0.99974,0.99974 0 0 1 -1,1 z"
     id="path10"
     style="fill:#4c4c4c" />
  <path
     d="m 25,38.007741 a 0.99974,0.99974 0 0 1 -1,-1 v -14 a 1,1 0 0 1 2,0 v 14 a 0.99974,0.99974 0 0 1 -1,1 z"
     id="path12"
     style="fill:#4c4c4c" />
  <path
     d="m 13,38.007741 a 0.99974,0.99974 0 0 1 -1,-1 v -14 a 1,1 0 0 1 2,0 v 14 a 0.99974,0.99974 0 0 1 -1,1 z"
     id="path14"
     style="fill:#4c4c4c" />
  <path
     d="m 7,38.007741 a 0.99974,0.99974 0 0 1 -1,-1 v -14 a 1,1 0 0 1 2,0 v 14 a 0.99974,0.99974 0 0 1 -1,1 z"
     id="path16"
     style="fill:#4c4c4c" />
  <path
     d="m 31,38.007741 a 0.99974,0.99974 0 0 1 -1,-1 v -14 a 1,1 0 0 1 2,0 v 14 a 0.99974,0.99974 0 0 1 -1,1 z"
     id="path18"
     style="fill:#4c4c4c" />
  <path
     d="m 37,38.007741 a 0.99974,0.99974 0 0 1 -1,-1 v -14 a 1,1 0 0 1 2,0 v 14 a 0.99974,0.99974 0 0 1 -1,1 z"
     id="path20"
     style="fill:#4c4c4c" />
  <path
     d="m 6,47.007741 a 3.00328,3.00328 0 0 1 -3,-3 v -3 a 0.99974,0.99974 0 0 1 1,-1 h 4 a 0.99974,0.99974 0 0 1 1,1 v 3 a 3.00328,3.00328 0 0 1 -3,3 z m -1,-5 v 2 a 1,1 0 0 0 2,0 v -2 z"
     id="path22"
     style="fill:#4c4c4c" />
  <path
     d="m 38,47.007741 a 3.00328,3.00328 0 0 1 -3,-3 v -3 a 0.99974,0.99974 0 0 1 1,-1 h 4 a 0.99974,0.99974 0 0 1 1,1 v 3 a 3.00328,3.00328 0 0 1 -3,3 z m -1,-5 v 2 a 1,1 0 0 0 2,0 v -2 z"
     id="path24"
     style="fill:#4c4c4c" />
</svg>
