<?xml version="1.0" encoding="UTF-8" standalone="no"?>
<svg
   viewBox="0 0 58.005001 51"
   x="0px"
   y="0px"
   version="1.1"
   id="svg12"
   sodipodi:docname="highvoltage.svg"
   width="58.005001"
   height="51"
   inkscape:version="1.1.2 (0a00cf5339, 2022-02-04)"
   xmlns:inkscape="http://www.inkscape.org/namespaces/inkscape"
   xmlns:sodipodi="http://sodipodi.sourceforge.net/DTD/sodipodi-0.dtd"
   xmlns="http://www.w3.org/2000/svg"
   xmlns:svg="http://www.w3.org/2000/svg">
  <sodipodi:namedview
     id="namedview14"
     pagecolor="#ffffff"
     bordercolor="#666666"
     borderopacity="1.0"
     inkscape:pageshadow="2"
     inkscape:pageopacity="0.0"
     inkscape:pagecheckerboard="0"
     showgrid="false"
     fit-margin-top="0"
     fit-margin-left="0"
     fit-margin-right="0"
     fit-margin-bottom="0"
     inkscape:zoom="9.5125"
     inkscape:cx="29.014455"
     inkscape:cy="25.072273"
     inkscape:window-width="1850"
     inkscape:window-height="1025"
     inkscape:window-x="1990"
     inkscape:window-y="27"
     inkscape:window-maximized="1"
     inkscape:current-layer="svg12" />
  <defs
     id="defs4">
    <style
       id="style2">.cls-1{stroke-width:0px;}</style>
  </defs>
  <path
     class="cls-1"
     d="M 57.6175,46.62 31.5375,1.46 C 31.0075,0.54 30.0675,0 29.0075,0 v 0 c -1.06,0 -2,0.55 -2.53,1.46 l -26.08,45.16 c -0.53,0.92 -0.53,2.01 0,2.92 0.53,0.92 1.48,1.46 2.53,1.46 h 52.15 c 1.06,0 2,-0.55 2.53,-1.46 0.53,-0.91 0.53,-2.01 0,-2.92 z m -1.73,1.92 c -0.08,0.14 -0.32,0.46 -0.8,0.46 h -52.15 c -0.48,0 -0.72,-0.32 -0.8,-0.46 -0.08,-0.14 -0.24,-0.51 0,-0.92 l 26.07,-45.16 c 0.24,-0.42 0.64,-0.46 0.8,-0.46 0.16,0 0.56,0.04 0.8,0.46 l 26.07,45.16 c 0.24,0.42 0.08,0.78 0,0.92 z M 29.8775,6.57 c -0.36,-0.62 -1.38,-0.62 -1.73,0 L 5.6675,45.5 c -0.18,0.31 -0.18,0.69 0,1 0.18,0.31 0.51,0.5 0.87,0.5 h 44.95 c 0.36,0 0.69,-0.19 0.87,-0.5 0.18,-0.31 0.18,-0.69 0,-1 z M 8.2675,45 29.0075,9.07 49.7475,45 Z m 17.82,-22.45 -4,9.6 c -0.13,0.31 -0.09,0.66 0.09,0.94 0.18,0.28 0.5,0.45 0.83,0.45 h 2.72 l -2.09,8.36 c -0.11,0.46 0.1,0.93 0.52,1.14 0.14,0.07 0.3,0.11 0.45,0.11 0.29,0 0.58,-0.13 0.78,-0.37 l 10.4,-12.8 c 0.24,-0.3 0.29,-0.71 0.13,-1.06 -0.17,-0.35 -0.52,-0.57 -0.9,-0.57 h -3.18 l 2.48,-4.95 c 0.16,-0.31 0.14,-0.68 -0.04,-0.97 -0.18,-0.29 -0.5,-0.47 -0.85,-0.47 h -6.4 c -0.4,0 -0.77,0.24 -0.92,0.62 z m 5.71,1.38 -2.48,4.95 c -0.15,0.31 -0.14,0.68 0.04,0.97 0.18,0.29 0.5,0.47 0.85,0.47 h 2.7 l -6.24,7.68 1.31,-5.23 c 0.07,-0.3 0,-0.62 -0.18,-0.86 -0.18,-0.24 -0.48,-0.38 -0.79,-0.38 h -2.5 l 3.17,-7.6 z"
     id="path6"
     style="fill:#4b4b4b" />
</svg>
