<?xml version="1.0" encoding="UTF-8" standalone="no"?>
<svg
   version="1.1"
   viewBox="-5 -10 50.702667 74.4571"
   id="svg397"
   sodipodi:docname="high-temp.svg"
   width="50.702667"
   height="74.4571"
   inkscape:version="1.2.2 (b0a8486541, 2022-12-01)"
   xmlns:inkscape="http://www.inkscape.org/namespaces/inkscape"
   xmlns:sodipodi="http://sodipodi.sourceforge.net/DTD/sodipodi-0.dtd"
   xmlns="http://www.w3.org/2000/svg"
   xmlns:svg="http://www.w3.org/2000/svg">
  <defs
     id="defs401" />
  <sodipodi:namedview
     id="namedview399"
     pagecolor="#ffffff"
     bordercolor="#000000"
     borderopacity="0.25"
     inkscape:showpageshadow="2"
     inkscape:pageopacity="0.0"
     inkscape:pagecheckerboard="0"
     inkscape:deskcolor="#d1d1d1"
     showgrid="false"
     inkscape:zoom="6.4222222"
     inkscape:cx="24.83564"
     inkscape:cy="44.922145"
     inkscape:window-width="1920"
     inkscape:window-height="1044"
     inkscape:window-x="3840"
     inkscape:window-y="0"
     inkscape:window-maximized="1"
     inkscape:current-layer="svg397" />
  <g
     id="g391"
     transform="translate(-30.1442,-22.7689)"
     style="fill:#6a6a6a">
    <path
       d="M 43.238,65.105 V 18.933 c 0,-3.3906 -2.7734,-6.1641 -6.1641,-6.1641 -3.3907,0 -6.1641,2.7734 -6.1641,6.1641 v 46.172 c -3.4492,2.0898 -5.7656,5.8672 -5.7656,10.195 0,6.5859 5.3398,11.926 11.926,11.926 6.5859,0 11.926,-5.3398 11.926,-11.926 0.0039,-4.3281 -2.3086,-8.1055 -5.7578,-10.195 z m -6.1641,17.172 c -3.8516,0 -6.9766,-3.1211 -6.9766,-6.9766 0,-1.4219 0.42969,-2.7422 1.1602,-3.8477 0.98438,-1.4844 2.5195,-2.5664 4.3164,-2.9609 v -46.367 c 0,-0.82812 0.67188,-1.5 1.5,-1.5 0.82812,0 1.5,0.67188 1.5,1.5 v 46.371 c 1.7969,0.39453 3.332,1.4766 4.3164,2.9609 0.73047,1.1016 1.1602,2.4258 1.1602,3.8477 -0.0039,3.8516 -3.125,6.9727 -6.9766,6.9727 z"
       id="path385"
       style="fill:#6a6a6a" />
    <path
       d="m 37.074,71.328 c -1.8281,0 -3.3594,1.25 -3.8203,2.9336 -0.08984,0.33594 -0.15625,0.67969 -0.15625,1.0391 0,2.1914 1.7812,3.9766 3.9766,3.9766 2.1914,0 3.9766,-1.7812 3.9766,-3.9766 0,-0.36328 -0.0625,-0.70703 -0.15625,-1.0391 C 40.43346,72.578 38.9022,71.328 37.0741,71.328 Z m 1.9141,4.7266 c -0.35156,0 -0.63281,-0.24609 -0.71484,-0.57031 C 38.25763,75.4257 38.2381,75.3671 38.2381,75.3046 c 0,-0.64453 -0.52344,-1.1641 -1.1641,-1.1641 -0.41406,0 -0.75,-0.33594 -0.75,-0.75 0,-0.41406 0.33594,-0.75 0.75,-0.75 1.3672,0 2.4844,1.0352 2.6367,2.3633 0.01172,0.10156 0.03125,0.19922 0.03125,0.30469 -0.0039,0.41016 -0.33984,0.74609 -0.75391,0.74609 z"
       id="path387"
       style="fill:#6a6a6a" />
    <path
       d="m 72.016,29.73 c -0.13281,0.12109 -0.39062,0.31641 -0.58984,0.29297 -0.05469,-0.0078 -0.10156,-0.03516 -0.15234,-0.06641 -0.11719,-1.5039 -0.64063,-2.8906 -1.4609,-4.0547 0.02734,-0.01953 0.05469,-0.03125 0.07813,-0.05078 0.42188,-0.32812 0.93359,-0.96484 0.97656,-2.125 0.0078,-0.14453 0.01953,-0.53125 0.55859,-0.5625 0.54688,-0.01953 0.97656,-0.47266 0.96875,-1.0195 -0.01172,-0.54688 -0.45703,-0.98047 -1,-0.98047 h -0.01953 c -0.96875,0.01953 -2.4375,0.69531 -2.5078,2.4883 -0.0078,0.17578 -0.04297,0.49219 -0.21094,0.625 -0.07422,0.05859 -0.17188,0.07422 -0.26562,0.07813 -1.0703,-0.90234 -2.375,-1.5312 -3.8086,-1.7891 0.01172,-0.05078 0.03125,-0.10156 0.03516,-0.15625 0.06641,-0.53125 -0.02344,-1.3438 -0.8125,-2.1914 -0.09766,-0.10547 -0.35938,-0.39062 -0.0039,-0.79688 0.37109,-0.39844 0.35547,-1.0234 -0.03516,-1.4023 -0.39844,-0.38281 -1.0273,-0.37109 -1.4141,0.02734 -0.67187,0.69922 -1.2305,2.2148 -0.01562,3.5312 0.12109,0.12891 0.31641,0.37891 0.29297,0.58984 -0.01563,0.11719 -0.09766,0.22266 -0.18359,0.29688 -1.4375,0.11719 -2.7734,0.60547 -3.9023,1.3789 -0.03125,-0.04687 -0.05078,-0.09766 -0.08594,-0.14062 -0.32812,-0.42188 -0.96484,-0.93359 -2.1211,-0.97656 -0.14453,-0.0039 -0.53125,-0.01953 -0.5625,-0.55859 -0.01953,-0.54297 -0.47266,-0.96094 -1.0195,-0.96484 -0.55469,0.01172 -0.99219,0.46484 -0.98047,1.0195 0.01953,0.96875 0.69531,2.4375 2.4883,2.5078 0.17578,0.0078 0.49219,0.04297 0.625,0.21094 0.07031,0.08984 0.08594,0.21094 0.07813,0.32031 -0.91016,1.0469 -1.5625,2.3242 -1.8438,3.7383 -0.03516,-0.0078 -0.06641,-0.01953 -0.10156,-0.02344 -0.53516,-0.06641 -1.3438,0.02344 -2.1914,0.8125 -0.10547,0.09766 -0.38672,0.36328 -0.79688,0.0039 -0.39844,-0.37109 -1.0234,-0.35547 -1.4023,0.03516 -0.38281,0.39844 -0.37109,1.0312 0.02734,1.4141 0.39844,0.38281 1.0664,0.73047 1.8086,0.73047 0.55859,0 1.1562,-0.19531 1.7227,-0.71875 0.13281,-0.12109 0.39062,-0.32422 0.58984,-0.29297 0.07422,0.0078 0.14453,0.04687 0.20312,0.08984 0.08203,1.5 0.55859,2.8945 1.3438,4.0703 -0.0078,0.0039 -0.01172,0.0078 -0.01953,0.01172 -0.42188,0.32813 -0.93359,0.96484 -0.97656,2.125 -0.0078,0.14453 -0.01953,0.53125 -0.55859,0.5625 -0.54688,0.01953 -0.97656,0.47266 -0.96875,1.0195 0.01172,0.54688 0.45703,0.98047 1,0.98047 h 0.01953 c 0.97266,-0.01953 2.4375,-0.69531 2.5078,-2.4883 0.0078,-0.17578 0.04297,-0.49219 0.21094,-0.625 0.03516,-0.02734 0.07813,-0.03516 0.12109,-0.04687 1.082,0.98047 2.4219,1.6758 3.9102,1.9648 -0.05469,0.53125 0.05078,1.3164 0.8125,2.1445 0.09766,0.10547 0.35938,0.39062 0.0039,0.79688 -0.37109,0.39844 -0.35547,1.0234 0.03516,1.4023 0.19141,0.1875 0.44141,0.28125 0.69141,0.28125 0.26172,0 0.52344,-0.10156 0.72266,-0.30469 0.67187,-0.69922 1.2305,-2.2148 0.01172,-3.5312 -0.12109,-0.12891 -0.31641,-0.37891 -0.29297,-0.58984 0.0039,-0.02344 0.01953,-0.04297 0.02734,-0.06641 1.5469,-0.08594 2.9805,-0.59766 4.1797,-1.4297 0.33594,0.41406 0.96484,0.89844 2.0898,0.94141 0.14453,0.0039 0.53125,0.01953 0.5625,0.55859 0.01953,0.53906 0.46094,0.96484 1,0.96484 h 0.01953 c 0.55469,-0.01172 0.99219,-0.46484 0.98047,-1.0195 -0.01953,-0.96875 -0.69531,-2.4375 -2.4883,-2.5078 -0.17578,-0.0078 -0.49219,-0.04297 -0.625,-0.21094 -0.01953,-0.02344 -0.01953,-0.05469 -0.03125,-0.08203 0.96094,-1.1016 1.6289,-2.457 1.8945,-3.9531 0.0039,0 0.0039,0 0.0078,0.0039 0.08984,0.01172 0.18359,0.01562 0.28516,0.01562 0.51562,0 1.1992,-0.16797 1.9102,-0.82812 0.10547,-0.09766 0.38672,-0.36328 0.79687,-0.0039 0.39844,0.375 1.0234,0.35938 1.4023,-0.03516 0.38281,-0.39844 0.37109,-1.0312 -0.02344,-1.4141 -0.69531,-0.6875 -2.2109,-1.2461 -3.5273,-0.02734 z m -8.3438,7.0078 c -0.17578,0.01563 -0.35547,0.02734 -0.53516,0.02734 -0.10938,0 -0.21875,-0.01172 -0.32422,-0.01563 -1.4453,-0.07422 -2.7578,-0.64844 -3.7695,-1.5508 -0.15234,-0.13672 -0.30078,-0.28125 -0.44141,-0.43359 -1.0117,-1.0977 -1.6328,-2.5586 -1.6328,-4.168 0,-3.4023 2.7695,-6.1719 6.1719,-6.1719 3.2344,0 5.8906,2.5039 6.1445,5.6719 0.01172,0.16406 0.02344,0.32812 0.02344,0.49609 v 0.02734 c -0.0078,1.4766 -0.53125,2.832 -1.4062,3.8906 -0.17578,0.21094 -0.36719,0.40625 -0.56641,0.59375 -0.98438,0.91406 -2.2578,1.5117 -3.6641,1.6328 z"
       id="path389"
       style="fill:#6a6a6a" />
  </g>
</svg>
