<?xml version="1.0" encoding="UTF-8" standalone="no"?>
<svg
   data-name="Layer 1"
   viewBox="0 0 463.63718 470.30548"
   x="0px"
   y="0px"
   version="1.1"
   id="svg14"
   sodipodi:docname="home-discard.svg"
   width="463.63718"
   height="470.30548"
   inkscape:version="1.1.2 (0a00cf5339, 2022-02-04)"
   xmlns:inkscape="http://www.inkscape.org/namespaces/inkscape"
   xmlns:sodipodi="http://sodipodi.sourceforge.net/DTD/sodipodi-0.dtd"
   xmlns="http://www.w3.org/2000/svg"
   xmlns:svg="http://www.w3.org/2000/svg"
   xmlns:rdf="http://www.w3.org/1999/02/22-rdf-syntax-ns#"
   xmlns:cc="http://creativecommons.org/ns#"
   xmlns:dc="http://purl.org/dc/elements/1.1/">
  <defs
     id="defs18" />
  <sodipodi:namedview
     id="namedview16"
     pagecolor="#ffffff"
     bordercolor="#666666"
     borderopacity="1.0"
     inkscape:pageshadow="2"
     inkscape:pageopacity="0.0"
     inkscape:pagecheckerboard="0"
     showgrid="false"
     fit-margin-top="0"
     fit-margin-left="0"
     fit-margin-right="0"
     fit-margin-bottom="0"
     inkscape:zoom="1.1890625"
     inkscape:cx="231.27464"
     inkscape:cy="298.97503"
     inkscape:window-width="1850"
     inkscape:window-height="1025"
     inkscape:window-x="1990"
     inkscape:window-y="27"
     inkscape:window-maximized="1"
     inkscape:current-layer="svg14" />
  <title
     id="title2">Home</title>
  <g
     data-name="Group"
     id="g8"
     transform="translate(-24.261814,-20.99451)"
     style="fill:#414141">
    <path
       id="path4"
       style="fill:#414141"
       transform="translate(24.261814,20.99451)"
       d="M 265.37109,0.00585938 A 7.352,7.352 0 0 0 257.73828,7.5957031 V 60.458984 L 217.39453,25.369141 a 8.127,8.127 0 0 0 -10.56055,-0.04883 L 2.8105469,200.15625 a 7.991,7.991 0 0 0 5.1640625,14.07422 8.231,8.231 0 0 0 5.3007816,-1.92578 l 35.46289,-30.3086 v 244.23829 a 7.638,7.638 0 0 0 7.800781,7.77148 H 263.52148 c 21.137,23 51.00055,36.29883 84.06055,36.29883 63.92,0 116.05469,-51.94328 116.05469,-115.86328 0,-55.732 -39.90039,-102.34372 -91.90039,-113.38672 v -59.64844 l 35.16992,30.8457 a 8.006,8.006 0 0 0 10.54687,-12.04687 L 336.73828,129.60547 V 7.5957031 c 0,-4.419 -3.81442,-7.58984372 -8.23242,-7.58984372 z m 8.36719,15.99999962 h 47 v 99.621091 l -47,-41.187497 z m -61.74023,25.966797 110.38476,96.496094 a 8.511,8.511 0 0 0 2.03321,1.68359 l 31.32226,27.27539 v 71.41602 c -3,-0.177 -5.37144,-0.27344 -8.02344,-0.27344 -63.92,0 -115.98828,51.8886 -115.98828,115.8086 0,1.252 -0.039,2.62695 0,3.62695 H 64.738281 V 168.2832 Z M 347.58203,254.57031 a 100.036,100.036 0 0 1 99.92383,99.92188 99.923,99.923 0 1 1 -99.92383,-99.92188 z M 64.738281,374.00586 H 233.34961 a 114.957,114.957 0 0 0 17.45898,44 H 64.738281 Z" />
    <path
       id="path6"
       style="fill:#414141"
       transform="translate(24.261814,20.99451)"
       d="m 396.71875,319.08984 c -0.12956,0.005 -0.25948,0.0103 -0.38867,0.0195 0.0274,0.0121 0.0546,0.025 0.082,0.0371 0.18817,-7.9e-4 0.37628,0.003 0.56445,0.002 -0.0864,-0.017 -0.17193,-0.0392 -0.25781,-0.0586 z m -23.58008,14.4668 c -0.4221,0.0284 -0.84469,0.0489 -1.26758,0.0664 -0.0298,0.10674 -0.0583,0.21228 -0.0879,0.31836 0.45164,-0.12938 0.90323,-0.25774 1.35547,-0.38477 z m -0.85742,4.08203 c 0.002,0.0273 0.0107,0.0611 0.0117,0.0879 0.0538,-0.0134 0.109,-0.0263 0.1582,-0.0449 -0.056,-0.0167 -0.11408,-0.0258 -0.16992,-0.043 z m -78.12305,41.6543 c 0.002,0.009 0.004,0.0181 0.006,0.0273 a 25.73,25.73 0 0 0 1.14453,0.20703 c 0.0153,-0.0649 0.0278,-0.12619 0.043,-0.1914 -0.3978,-0.0143 -0.79561,-0.0282 -1.19336,-0.043 z m 107.51563,6.89062 c -0.13309,0.079 -0.26553,0.15895 -0.39844,0.23829 0.13107,0.15919 0.30127,0.25601 0.51367,0.2832 a 25.726,25.726 0 0 0 -0.11523,-0.52149 z" />
  </g>
  <metadata
     id="metadata20">
    <rdf:RDF>
      <cc:Work
         rdf:about="">
        <dc:title>Home</dc:title>
      </cc:Work>
    </rdf:RDF>
  </metadata>
  <path
     d="m 428.4777,272.03869 c 3.96919,3.97899 7.69282,8.16012 11.07821,12.60939 6.8756,9.03444 12.39857,19.00926 16.36376,29.54374 4.87883,12.96298 7.37475,26.7381 7.37475,40.52873 0,12.82702 -2.15763,25.64627 -6.38855,37.80882 -3.68738,10.59258 -8.94063,20.67234 -15.55861,29.84276 -7.42711,10.28965 -16.55296,19.43298 -26.9226,26.98297 -10.07991,7.34024 -21.33522,13.15338 -33.25483,17.17133 -13.94438,4.70186 -28.75021,6.94009 -43.5158,6.602 -15.29688,-0.34978 -30.50528,-3.46997 -44.61466,-9.18609 -14.63288,-5.92964 -28.00157,-14.62603 -39.22472,-25.45967 -11.21903,-10.82967 -20.23221,-23.73821 -26.37111,-37.86312 -5.92154,-13.61969 -9.154,-28.30018 -9.51632,-43.06627 -0.35389,-14.24916 1.96447,-28.54502 6.83935,-42.00151 4.16233,-11.50583 10.18062,-22.36656 17.78067,-32.09271 7.82157,-10.01374 17.29763,-18.82662 27.95718,-25.99591 9.50422,-6.38834 19.94246,-11.4593 30.92009,-15.01857 13.52973,-4.38718 27.84041,-6.46211 42.10682,-6.13572 13.30027,0.30748 26.53611,2.70059 39.04349,7.08382 10.91321,3.82753 21.2466,9.16266 30.60602,15.79573 4.61312,3.27179 8.94461,6.86618 13.06269,10.69369 1.12661,1.07195 1.12366,1.06914 2.23417,2.15659 z m -13.09088,28.12922 -131.30033,126.74686 c 6.20334,4.53076 12.98634,8.31556 20.17192,11.22601 10.78033,4.36759 22.39793,6.74573 34.08397,7.01386 11.28759,0.26085 22.60733,-1.44556 33.26691,-5.03995 9.08957,-3.06588 17.66804,-7.49948 25.35673,-13.09512 8.24418,-6.00358 15.46601,-13.3204 21.25867,-21.56995 4.9514,-7.04504 8.85215,-14.7699 11.5573,-22.87178 3.22849,-9.67566 4.75012,-19.86811 4.50047,-30.02939 -0.24184,-9.81161 -2.13743,-19.57668 -5.60745,-28.80156 -3.02323,-8.03574 -7.23393,-15.64411 -12.47907,-22.52977 -0.26542,-0.35401 -0.53529,-0.7038 -0.80956,-1.04935 z m -18.28397,-17.64919 c -0.35833,-0.26086 -0.72108,-0.52046 -1.08234,-0.7814 -7.13322,-5.05926 -15.01524,-9.12769 -23.33992,-12.04588 -9.55658,-3.34953 -19.67276,-5.17593 -29.83715,-5.40907 -10.5267,-0.24542 -21.08968,1.22425 -31.10913,4.3443 -8.39325,2.61132 -16.39605,6.37664 -23.69427,11.15225 -8.54617,5.59553 -16.13016,12.56665 -22.3456,20.5248 -5.80076,7.41796 -10.38986,15.70235 -13.566,24.47659 -3.72364,10.28567 -5.49479,21.21636 -5.22508,32.10824 0.27723,11.28045 2.7454,22.49871 7.27006,32.90483 3.01113,6.93234 6.9359,13.47991 11.6297,19.47176 z"
     id="path2"
     style="stroke-width:3.95503;fill:#555555" />
</svg>
