<?xml version="1.0" encoding="UTF-8" standalone="no"?>
<svg
   xml:space="preserve"
   version="1.1"
   style="image-rendering:optimizeQuality;shape-rendering:geometricPrecision;text-rendering:geometricPrecision"
   viewBox="0 0 438.13843 423"
   x="0px"
   y="0px"
   fill-rule="evenodd"
   clip-rule="evenodd"
   id="svg18"
   sodipodi:docname="home-question.svg"
   width="438.13843"
   height="423"
   inkscape:version="1.2.2 (b0a8486541, 2022-12-01)"
   xmlns:inkscape="http://www.inkscape.org/namespaces/inkscape"
   xmlns:sodipodi="http://sodipodi.sourceforge.net/DTD/sodipodi-0.dtd"
   xmlns="http://www.w3.org/2000/svg"
   xmlns:svg="http://www.w3.org/2000/svg"><sodipodi:namedview
     id="namedview20"
     pagecolor="#ffffff"
     bordercolor="#000000"
     borderopacity="0.25"
     inkscape:showpageshadow="2"
     inkscape:pageopacity="0.0"
     inkscape:pagecheckerboard="0"
     inkscape:deskcolor="#d1d1d1"
     showgrid="false"
     inkscape:zoom="1.5394799"
     inkscape:cx="218.9051"
     inkscape:cy="250.73403"
     inkscape:window-width="1920"
     inkscape:window-height="1044"
     inkscape:window-x="0"
     inkscape:window-y="0"
     inkscape:window-maximized="1"
     inkscape:current-layer="svg18" /><defs
     id="defs4"><style
       type="text/css"
       id="style2">
   
    .fil1 {fill:black}
    .fil0 {fill:black;fill-rule:nonzero}
   
  </style></defs><g
     id="g12"
     style="fill:#6a6a6a"><path
       class="fil0"
       d="m 435,196 c 4,4 4,10 1,14 -4,4 -11,4 -15,0 l -31,-29 v 232 c 0,6 -5,10 -10,10 H 58 c -6,0 -10,-4 -10,-10 V 181 l -31,29 c -4,4 -11,4 -14,0 -4,-4 -4,-10 0,-14 C 73,131 143,67 212,3 c 4,-4 10,-4 14,0 70,64 139,128 209,193 z M 68,163 V 403 H 370 V 163 L 219,24 Z"
       id="path6"
       style="fill:#6a6a6a" /><path
       class="fil0"
       d="m 169,240 c 0,5 -4,9 -9,9 -5,0 -8,-4 -8,-9 0,-37 30,-67 67,-67 37,0 68,30 68,67 0,34 -26,63 -59,67 v 16 c 0,4 -4,8 -9,8 -4,0 -8,-4 -8,-8 v -23 c -1,-5 3,-9 8,-9 28,0 51,-23 51,-51 0,-27 -23,-50 -51,-50 -28,0 -50,23 -50,50 z"
       id="path8"
       style="fill:#6a6a6a" /><path
       class="fil1"
       d="m 219,343 c 6,0 11,4 11,10 0,6 -5,11 -11,11 -6,0 -11,-5 -11,-11 0,-6 5,-10 11,-10 z"
       id="path10"
       style="fill:#6a6a6a" /></g></svg>
