<?xml version="1.0" encoding="UTF-8" standalone="no"?>
<svg
   version="1.1"
   x="0px"
   y="0px"
   viewBox="0 0 77.999962 90.000122"
   id="svg10"
   sodipodi:docname="house_size.svg"
   width="77.999962"
   height="90.000122"
   inkscape:version="1.1.2 (0a00cf5339, 2022-02-04)"
   xmlns:inkscape="http://www.inkscape.org/namespaces/inkscape"
   xmlns:sodipodi="http://sodipodi.sourceforge.net/DTD/sodipodi-0.dtd"
   xmlns="http://www.w3.org/2000/svg"
   xmlns:svg="http://www.w3.org/2000/svg">
  <defs
     id="defs14">
    <filter
       style="color-interpolation-filters:sRGB;"
       inkscape:label="Colorize"
       id="filter245"
       x="0"
       y="0"
       width="1"
       height="1">
      <feComposite
         in2="SourceGraphic"
         operator="arithmetic"
         k1="0"
         k2="1"
         result="composite1"
         id="feComposite231" />
      <feColorMatrix
         in="composite1"
         values="1"
         type="saturate"
         result="colormatrix1"
         id="feColorMatrix233" />
      <feFlood
         flood-opacity="1"
         flood-color="rgb(102,102,102)"
         result="flood1"
         id="feFlood235" />
      <feBlend
         in="flood1"
         in2="colormatrix1"
         mode="screen"
         result="blend1"
         id="feBlend237" />
      <feBlend
         in2="blend1"
         mode="multiply"
         result="blend2"
         id="feBlend239" />
      <feColorMatrix
         in="blend2"
         values="1"
         type="saturate"
         result="colormatrix2"
         id="feColorMatrix241" />
      <feComposite
         in="colormatrix2"
         in2="SourceGraphic"
         operator="in"
         k2="1"
         result="composite2"
         id="feComposite243" />
    </filter>
  </defs>
  <sodipodi:namedview
     id="namedview12"
     pagecolor="#ffffff"
     bordercolor="#666666"
     borderopacity="1.0"
     inkscape:pageshadow="2"
     inkscape:pageopacity="0.0"
     inkscape:pagecheckerboard="0"
     showgrid="false"
     fit-margin-top="0"
     fit-margin-left="0"
     fit-margin-right="0"
     fit-margin-bottom="0"
     inkscape:zoom="6.088"
     inkscape:cx="38.929041"
     inkscape:cy="57.243758"
     inkscape:window-width="1850"
     inkscape:window-height="1025"
     inkscape:window-x="1990"
     inkscape:window-y="27"
     inkscape:window-maximized="1"
     inkscape:current-layer="svg10" />
  <g
     transform="translate(-11,-957.63548)"
     id="g4"
     style="filter:url(#filter245)">
    <path
       style="color:#000000;text-indent:0;text-transform:none;direction:ltr;baseline-shift:baseline;enable-background:accumulate"
       d="m 34.820006,957.64242 a 3.0012457,2.989951 0 0 0 -2.031891,0.99655 l -10.128191,10.9932 H 14.000946 A 3.0012457,2.989951 0 0 0 11,972.62182 v 47.83448 a 3.0012457,2.989951 0 0 0 3.000946,2.9896 h 48.015129 a 3.0012457,2.989951 0 0 0 3.000946,-2.9896 v -47.83448 a 3.0012457,2.989951 0 0 0 -3.000946,-2.98965 h -25.00788 a 3.0012457,2.989951 0 1 0 0,5.9793 H 59.01513 v 17.93792 H 48.011662 a 3.0012457,2.989951 0 0 0 -0.312598,0 3.0050132,2.9937043 0 1 0 0.312598,5.9793 H 59.01513 v 17.93791 H 41.009456 v -10.962 a 3.0012457,2.989951 0 0 0 -3.032205,-3.052 3.0012457,2.989951 0 0 0 -2.969686,3.052 v 10.962 H 17.001891 v -17.93791 h 11.003467 a 3.0012457,2.989951 0 1 0 0,-5.9793 H 17.001891 v -17.93792 h 7.002207 a 3.0012457,2.989951 0 0 0 2.219449,-0.99655 l 11.003467,-11.95861 a 3.0012457,2.989951 0 0 0 -2.407008,-5.01389 z m 45.82694,11.98975 a 3.0012457,2.989951 0 0 0 -1.938111,1.05883 l -5.001576,5.97931 a 3.0078166,2.9964972 0 0 0 4.313859,4.17305 v 31.39134 a 3.0012457,2.989951 0 0 0 -2.344488,-0.7786 3.0012457,2.989951 0 0 0 -1.969371,4.9205 l 5.001576,5.9793 a 3.0012457,2.989951 0 0 0 4.626458,0 l 5.001576,-5.9793 a 3.0078006,2.9964812 0 0 0 -4.313859,-4.1419 v -31.42248 a 3.0078166,2.9964972 0 0 0 4.313859,-4.14191 L 83.335293,970.691 a 3.0012457,2.989951 0 0 0 -2.688347,-1.05883 z m -60.737889,61.75493 a 3.0012457,2.989951 0 0 0 -1.813071,0.7164 l -6.001891,4.9827 a 3.0012457,2.989951 0 0 0 0,4.5779 l 6.001891,4.9827 a 3.0012457,2.989951 0 1 0 4.18882,-4.2664 H 34.00725 a 3.0012457,2.989951 0 1 0 0,-5.9793 H 22.222286 a 3.0012457,2.989951 0 0 0 -2.313229,-5.014 z m 35.792528,0 a 3.0012457,2.989951 0 0 0 -1.90685,5.014 h -9.784333 a 3.0012457,2.989951 0 0 0 -0.312599,0 3.0050132,2.9937043 0 1 0 0.312599,5.9793 h 9.721813 a 3.0012457,2.989951 0 1 0 4.18882,4.2664 l 6.001891,-4.9827 a 3.0012457,2.989951 0 0 0 0,-4.5779 l -6.001891,-4.9827 a 3.0012457,2.989951 0 0 0 -2.21945,-0.7164 z"
       fill="#000000"
       fill-opacity="1"
       stroke="none"
       marker="none"
       visibility="visible"
       display="inline"
       overflow="visible"
       id="path2" />
  </g>
</svg>
