<?xml version="1.0" encoding="UTF-8" standalone="no"?>
<svg
   version="1.1"
   x="0px"
   y="0px"
   viewBox="0 0 57.321274 48"
   xml:space="preserve"
   id="svg16"
   sodipodi:docname="house-wind2.svg"
   width="57.321274"
   height="48"
   inkscape:version="1.2.2 (b0a8486541, 2022-12-01)"
   xmlns:inkscape="http://www.inkscape.org/namespaces/inkscape"
   xmlns:sodipodi="http://sodipodi.sourceforge.net/DTD/sodipodi-0.dtd"
   xmlns="http://www.w3.org/2000/svg"
   xmlns:svg="http://www.w3.org/2000/svg"><defs
     id="defs20" /><sodipodi:namedview
     id="namedview18"
     pagecolor="#ffffff"
     bordercolor="#000000"
     borderopacity="0.25"
     inkscape:showpageshadow="2"
     inkscape:pageopacity="0.0"
     inkscape:pagecheckerboard="0"
     inkscape:deskcolor="#d1d1d1"
     showgrid="false"
     inkscape:zoom="11.56"
     inkscape:cx="28.589965"
     inkscape:cy="24.697232"
     inkscape:window-width="1920"
     inkscape:window-height="1044"
     inkscape:window-x="3840"
     inkscape:window-y="0"
     inkscape:window-maximized="1"
     inkscape:current-layer="svg16" /><path
     id="path2"
     style="fill:#6a6a6a"
     d="M 27.568359,0 C 27.369633,1.2209939e-4 27.171853,0.05957053 27.001953,0.17773438 L 5.3320312,15.158203 c -0.3603408,0.249023 -0.5165988,0.701661 -0.3867187,1.119141 0.1308546,0.417454 0.5175894,0.703125 0.9550781,0.703125 h 4.4199214 v 5.849609 h 0.619141 1.380859 v -5.851562 h 30.5 v 6.351562 h 2 V 16.980469 H 49.25 c 0.4375,0 0.82424,-0.285671 0.955078,-0.703125 0.129883,-0.417969 -0.02637,-0.870118 -0.386719,-1.119141 L 44.458984,11.455078 V 1.5761719 c 0,-0.5522326 -0.447287,-1.00000003 -1,-1.00000002 h -6.798828 c -0.552729,0 -1,0.44776742 -1,1.00000002 V 5.375 L 28.138672,0.17773438 C 27.966797,0.05908473 27.767089,-1.220994e-4 27.568359,0 Z m 0.002,2.2167969 18.472657,12.7636721 h -2.21875 c -0.0017,0 -0.0022,-0.002 -0.0039,-0.002 H 11.324219 c -0.0017,0 -0.0042,0.002 -0.0059,0.002 H 9.1054688 Z m 10.089844,0.359375 h 4.798828 V 10.072266 L 37.660156,6.7558594 Z M 10.320312,25.625 v 0.08789 c 0.02002,-0.02833 0.04157,-0.05609 0.0625,-0.08398 z m 32.5,11.589844 V 46 h -30.5 v -8.115234 c -0.664154,0.01896 -1.32919,0.02582 -1.99414,0.01758 h -0.0059 V 47 c 0,0.55222 0.447271,1 1,1 h 32.5 c 0.552713,0 1,-0.44778 1,-1 v -9.785156 h -0.421874 z m 9.101563,0.333984 c 0.02063,0.004 0.04159,0.0098 0.0625,0.01172 0.0041,3.82e-4 0.0052,5e-6 0.01172,-0.002 0.0012,-0.002 0.0028,-0.0038 0.0039,-0.0059 -0.02606,-0.0013 -0.0519,-0.0029 -0.07813,-0.0039 z" /><polygon
     fill="#000000"
     points="0,9 0,11 16.2,11 14.6,12.6 16,14 20,10 16,6 14.6,7.4 16.2,9 "
     id="polygon542"
     transform="matrix(2.8505838,0,0,1.4185416,-0.03551407,16.132623)"
     style="fill:#6a6a6a" /></svg>
