<?xml version="1.0" encoding="UTF-8" standalone="no"?>
<svg
   data-name="Capa 1"
   viewBox="0 0 95.120003 86.389999"
   x="0px"
   y="0px"
   version="1.1"
   id="svg10"
   sodipodi:docname="house-id.svg"
   width="95.120003"
   height="86.389999"
   inkscape:version="1.1.2 (0a00cf5339, 2022-02-04)"
   xmlns:inkscape="http://www.inkscape.org/namespaces/inkscape"
   xmlns:sodipodi="http://sodipodi.sourceforge.net/DTD/sodipodi-0.dtd"
   xmlns="http://www.w3.org/2000/svg"
   xmlns:svg="http://www.w3.org/2000/svg"
   xmlns:rdf="http://www.w3.org/1999/02/22-rdf-syntax-ns#"
   xmlns:cc="http://creativecommons.org/ns#"
   xmlns:dc="http://purl.org/dc/elements/1.1/">
  <defs
     id="defs14" />
  <sodipodi:namedview
     id="namedview12"
     pagecolor="#ffffff"
     bordercolor="#666666"
     borderopacity="1.0"
     inkscape:pageshadow="2"
     inkscape:pageopacity="0.0"
     inkscape:pagecheckerboard="0"
     showgrid="false"
     fit-margin-top="0"
     fit-margin-left="0"
     fit-margin-right="0"
     fit-margin-bottom="0"
     inkscape:zoom="5.5345455"
     inkscape:cx="47.519711"
     inkscape:cy="36.588371"
     inkscape:window-width="1850"
     inkscape:window-height="1025"
     inkscape:window-x="1990"
     inkscape:window-y="27"
     inkscape:window-maximized="1"
     inkscape:current-layer="svg10" />
  <title
     id="title2">Mesa de trabajo 1 copia 140</title>
  <path
     id="path4"
     d="M 39.419922,0 C 38.282215,0 37.359375,0.92284022 37.359375,2.0605469 V 16.349609 H 2.0605469 C 0.92284021,16.349609 0,17.272449 0,18.410156 v 65.919922 c 0,1.137707 0.92284022,2.060547 2.0605469,2.060547 H 93.060547 c 1.137707,0 2.058594,-0.92284 2.058594,-2.060547 V 18.410156 c 5.3e-5,-1.129942 -0.909175,-2.049577 -2.039063,-2.060547 H 65.349609 v 4.111329 H 91.029297 V 82.269531 H 4.109375 V 20.460938 h 33.25 v 5.599609 h -5.589844 v 4.119141 h 31.59961 V 26.060547 H 57.779297 V 2.0605469 C 57.779297,0.92284021 56.85841,0 55.720703,0 Z m 2.060547,4.0898438 H 53.660156 V 26.089844 H 41.480469 Z m 7.089843,36.4609372 v 4.138672 h 33.619141 l 0.03125,-4.138672 z m 0,12.919922 v 4.138672 h 33.619141 l 0.03125,-4.138672 z M 26.123047,54.84375 c -0.01177,0.0038 -0.02338,0.008 -0.03516,0.01172 0.03453,0.07295 0.07211,0.143672 0.103515,0.21875 0.01695,4.65e-4 0.03384,0.0014 0.05078,0.002 -0.01805,-0.05726 -0.03619,-0.114985 -0.05469,-0.171875 -0.022,-0.0194 -0.04239,-0.04116 -0.06445,-0.06055 z m 5.556641,8.638672 c -0.09197,0.0063 -0.183668,0.01054 -0.275391,0.01563 0.07821,0.01561 0.17982,0.03699 0.287109,0.05859 -0.004,-0.02473 -0.0076,-0.04951 -0.01172,-0.07422 z m 2.595703,2.777344 c 0.0023,0.0225 0.0037,0.04081 0.0059,0.0625 0.0052,1.7e-5 0.01043,-2.6e-5 0.01563,0 -0.0041,-0.02094 -0.01,-0.04151 -0.01367,-0.0625 -0.0026,2.34e-4 -0.0052,-2.34e-4 -0.0078,0 z m 14.294921,0.130859 V 70.5 h 33.650391 v -4.109375 z m -10.568359,1.285156 c 1.44e-4,0.02218 2.04e-4,0.05146 0,0.07031 0.0035,6.8e-4 0.0063,0.0013 0.0098,0.002 -0.004,-0.02588 -0.0042,-0.04557 -0.0078,-0.07031 0,0 -0.002,-0.002 -0.002,-0.002 z m -25.048828,0.08789 c -0.0305,0.03782 -0.06133,0.07543 -0.0918,0.113281 5.5e-5,0.01368 0.0019,0.02734 0.002,0.04102 0.03064,-0.05101 0.05915,-0.103318 0.08984,-0.154297 z m 25,0.248047 c -0.008,0.02305 -0.03048,0.07252 -0.04102,0.09961 0.0066,0.0018 0.01294,0.0041 0.01953,0.0059 0.01291,-0.03934 0.02276,-0.07845 0.02148,-0.105469 z m -10.695313,2.30664 c -0.0056,0.038 -0.01161,0.07537 -0.01758,0.113282 0.09635,-1.14e-4 0.192708,2.21e-4 0.289063,0 -0.03516,-0.02888 -0.07388,-0.06436 -0.109375,-0.09375 -0.054,-0.0068 -0.108138,-0.01271 -0.16211,-0.01953 z"
     style="fill:#545454" />
  <metadata
     id="metadata16">
    <rdf:RDF>
      <cc:Work
         rdf:about="">
        <dc:title>Mesa de trabajo 1 copia 140</dc:title>
      </cc:Work>
    </rdf:RDF>
  </metadata>
  <path
     class="st0"
     d="m 39.190534,54.862858 v 13.949097 h -9.141251 v -8.416776 h -6.85081 v 8.416776 H 14.057221 V 54.862858 h 1.188942 v 12.812923 h 6.763727 v -8.416777 h 9.228335 v 8.416777 h 6.763728 V 54.862858 Z M 10.851324,52.934388 26.623877,41.75214 42.396432,52.934388 41.690767,53.844289 26.623877,43.162728 11.557349,53.844289 Z"
     id="path4-3"
     style="clip-rule:evenodd;fill-rule:evenodd;stroke-width:0.351773;fill:#545454" />
</svg>
