<?xml version="1.0" encoding="UTF-8" standalone="no"?>
<svg
   version="1.1"
   x="0px"
   y="0px"
   viewBox="0 0 57.321274 48"
   xml:space="preserve"
   id="svg16"
   sodipodi:docname="house-wind.svg"
   width="57.321274"
   height="48"
   inkscape:version="1.2.2 (b0a8486541, 2022-12-01)"
   xmlns:inkscape="http://www.inkscape.org/namespaces/inkscape"
   xmlns:sodipodi="http://sodipodi.sourceforge.net/DTD/sodipodi-0.dtd"
   xmlns="http://www.w3.org/2000/svg"
   xmlns:svg="http://www.w3.org/2000/svg"><defs
     id="defs20" /><sodipodi:namedview
     id="namedview18"
     pagecolor="#ffffff"
     bordercolor="#000000"
     borderopacity="0.25"
     inkscape:showpageshadow="2"
     inkscape:pageopacity="0.0"
     inkscape:pagecheckerboard="0"
     inkscape:deskcolor="#d1d1d1"
     showgrid="false"
     inkscape:zoom="11.56"
     inkscape:cx="28.589965"
     inkscape:cy="24.697232"
     inkscape:window-width="1920"
     inkscape:window-height="1044"
     inkscape:window-x="3840"
     inkscape:window-y="0"
     inkscape:window-maximized="1"
     inkscape:current-layer="svg16" /><path
     id="path2"
     d="M 27.568722,1.8846455e-7 C 27.369991,1.2228846e-4 27.172216,0.05957019 27.002316,0.17773459 L 5.332394,15.158203 c -0.3603428,0.249023 -0.5165993,0.701661 -0.3867187,1.119141 0.1308551,0.417459 0.5175869,0.703125 0.9550781,0.703125 h 4.4199216 v 5.849609 h 0.619141 1.380859 v -5.851562 h 30.5 v 6.351562 h 2 v -6.349609 h 4.429687 c 0.4375,0 0.82424,-0.285666 0.955078,-0.703125 0.129883,-0.417969 -0.02637,-0.870118 -0.386718,-1.119141 L 44.459347,11.455078 V 1.5761721 c 0,-0.5522351 -0.447287,-1.00000001 -1,-1.00000001 h -6.798828 c -0.552734,0 -1,0.44776491 -1,1.00000001 V 5.3750002 L 28.139034,0.17773459 C 27.967159,0.05908439 27.767452,-1.2191154e-4 27.568722,1.8846455e-7 Z M 27.570722,2.2167971 46.043378,14.980469 h -2.21875 c -0.0017,0 -0.0022,-0.002 -0.0039,-0.002 H 11.324581 c -0.0017,0 -0.0042,0.002 -0.0059,0.002 H 9.1057904 Z m 10.089844,0.359375 h 4.798828 V 10.072266 L 37.660519,6.7558592 Z M 10.320675,25.625 v 0.08789 c 0.02002,-0.02833 0.04157,-0.05609 0.0625,-0.08398 z m 32.5,11.589844 V 46 h -30.5 v -8.115234 c -0.664159,0.01896 -1.329186,0.02582 -1.994141,0.01758 h -0.0059 V 47 c 0,0.552225 0.447266,1 1,1 h 32.5 c 0.552713,0 1,-0.447775 1,-1 v -9.785156 h -0.421875 z m 9.101562,0.333984 c 0.02063,0.004 0.04159,0.0098 0.0625,0.01172 0.0041,3.82e-4 0.0052,-2.3e-4 0.01172,-0.002 0.0012,-0.002 0.0028,-0.0038 0.0039,-0.0059 -0.02606,-0.0013 -0.0519,-0.0029 -0.07813,-0.0039 z"
     style="fill:#6a6a6a" /><path
     d="m 27.571773,12.979187 c 2.142579,0 3.885743,-1.743164 3.885743,-3.8857418 0,-2.142578 -1.743164,-3.885742 -3.885743,-3.885742 -2.142578,0 -3.885742,1.743164 -3.885742,3.885742 0,2.1425778 1.743164,3.8857418 3.885742,3.8857418 z m 0,-5.7714838 c 1.04004,0 1.885743,0.845703 1.885743,1.885742 0,1.0400388 -0.845703,1.8857418 -1.885743,1.8857418 -1.040039,0 -1.885742,-0.845703 -1.885742,-1.8857418 0,-1.040039 0.845703,-1.885742 1.885742,-1.885742 z"
     id="path4"
     style="fill:#6a6a6a" /><path
     d="m 0.32984904,34.995963 c -0.3830748,-0.08548 -0.4401791,-0.24131 -0.1308608,-0.346514 0.3116937,-0.105861 0.87321906,-0.122299 1.25628786,-0.03617 10.2573999,2.299995 18.5303219,1.135539 26.7983709,-0.02893 8.78701,-1.237459 17.57402,-2.474211 28.737776,0.02893 0.383076,0.08614 0.44018,0.241311 0.13086,0.347171 -0.311695,0.105861 -0.873217,0.121642 -1.256289,0.03551 -10.257401,-2.29932 -18.530321,-1.135537 -26.79837,0.02959 -8.787011,1.236803 -17.574021,2.473538 -28.73777496,-0.02959 z m 0,-4.586187 c -0.3830748,-0.08613 -0.4401791,-0.241311 -0.1308608,-0.347171 0.3116937,-0.105203 0.87321906,-0.121642 1.25628786,-0.03551 10.2573999,2.299995 18.5303219,1.135539 26.7983709,-0.02893 8.78701,-1.237459 17.57402,-2.474211 28.737776,0.02893 0.383076,0.08614 0.44018,0.241311 0.13086,0.347171 -0.311695,0.105203 -0.873217,0.121641 -1.256289,0.03551 -10.257401,-2.299995 -18.530321,-1.135538 -26.79837,0.02893 -8.787011,1.237458 -17.574021,2.474211 -28.73777496,-0.02893 z m 0,-4.586187 c -0.3830748,-0.08613 -0.4401791,-0.241311 -0.1308608,-0.34717 0.3116937,-0.105862 0.87321906,-0.121642 1.25628786,-0.03551 10.2573999,2.299322 18.5303219,1.135538 26.7983709,-0.02959 8.78701,-1.236804 17.57402,-2.473538 28.737776,0.02959 0.383076,0.08548 0.44018,0.241311 0.13086,0.346514 -0.311695,0.105861 -0.873217,0.122298 -1.256289,0.03617 -10.257401,-2.299997 -18.530321,-1.13554 -26.79837,0.02893 -8.787011,1.23746 -17.574021,2.474212 -28.73777496,-0.02893"
     id="path446"
     style="stroke-width:0.320199;fill:#6a6a6a" /></svg>
