<?xml version="1.0" encoding="UTF-8" standalone="no"?>
<svg
   viewBox="0 0 60.970222 71.960938"
   x="0px"
   y="0px"
   version="1.1"
   id="svg214"
   sodipodi:docname="ice.svg"
   width="60.970222"
   height="71.960938"
   inkscape:version="1.2.2 (b0a8486541, 2022-12-01)"
   xmlns:inkscape="http://www.inkscape.org/namespaces/inkscape"
   xmlns:sodipodi="http://sodipodi.sourceforge.net/DTD/sodipodi-0.dtd"
   xmlns="http://www.w3.org/2000/svg"
   xmlns:svg="http://www.w3.org/2000/svg"
   xmlns:rdf="http://www.w3.org/1999/02/22-rdf-syntax-ns#"
   xmlns:cc="http://creativecommons.org/ns#"
   xmlns:dc="http://purl.org/dc/elements/1.1/">
  <defs
     id="defs218" />
  <sodipodi:namedview
     id="namedview216"
     pagecolor="#ffffff"
     bordercolor="#000000"
     borderopacity="0.25"
     inkscape:showpageshadow="2"
     inkscape:pageopacity="0.0"
     inkscape:pagecheckerboard="0"
     inkscape:deskcolor="#d1d1d1"
     showgrid="false"
     inkscape:zoom="6.936"
     inkscape:cx="30.637255"
     inkscape:cy="48.65917"
     inkscape:window-width="1864"
     inkscape:window-height="1012"
     inkscape:window-x="1976"
     inkscape:window-y="32"
     inkscape:window-maximized="1"
     inkscape:current-layer="svg214" />
  <title
     id="title206">Creator Icon_44</title>
  <path
     d="m 60.772119,16.55664 a 1.24783,1.24783 0 0 0 -1.72656,-0.377 l -11.965,7.67358 0.24817,-8.03784 a 1.2488,1.2488 0 0 0 -1.21094,-1.28711 c -0.0127,-10e-4 -0.02539,-10e-4 -0.03906,-10e-4 a 1.24943,1.24943 0 0 0 -1.248,1.21191 l -0.301,9.74988 -12.79472,8.20577 V 18.49475 l 8.04395,-5.51721 a 1.25035,1.25035 0 1 0 -1.41406,-2.0625 l -6.62989,4.54785 V 1.25 a 1.25,1.25 0 0 0 -2.5,0 v 14.21289 l -6.62988,-4.54785 a 1.25035,1.25035 0 0 0 -1.41406,2.0625 l 8.04394,5.51721 v 15.20008 l -12.79468,-8.20569 -0.301,-9.74988 a 1.24943,1.24943 0 0 0 -1.248,-1.21191 c -0.01367,0 -0.02637,0 -0.03906,10e-4 a 1.2488,1.2488 0 0 0 -1.21101,1.28712 l 0.24817,8.03784 -11.9649997,-7.67358 a 1.2496243,1.2496243 0 0 0 -1.34961,2.10352 l 11.9648397,7.67334 -7.4072297,3.12646 a 1.2498633,1.2498633 0 1 0 0.97266,2.30273 l 8.9860797,-3.79272 13.0791,8.38794 -13.07808,8.38741 -8.9879997,-3.79419 a 1.2498633,1.2498633 0 1 0 -0.97266,2.30273 l 7.4089397,3.12793 -11.9656197,7.67383 a 1.2496243,1.2496243 0 1 0 1.34961,2.10352 l 11.9638697,-7.67285 -0.248,8.03418 a 1.24889,1.24889 0 0 0 1.21,1.28809 c 0.01367,0.001 0.02637,0.001 0.04,0.001 a 1.24926,1.24926 0 0 0 1.248,-1.21094 l 0.30188,-9.74878 12.7948,-8.20584 v 15.199 l -8.04492,5.51638 a 1.25035,1.25035 0 1 0 1.41406,2.0625 l 6.63086,-4.54717 v 14.21314 a 1.25,1.25 0 0 0 2.5,0 V 56.49805 l 6.62988,4.54785 a 1.25035,1.25035 0 0 0 1.41406,-2.0625 l -8.04394,-5.51721 v -15.1991 l 12.7948,8.20581 0.30188,9.74878 a 1.24926,1.24926 0 0 0 1.248,1.21094 c 0.01367,0 0.02637,0 0.04,-10e-4 a 1.24889,1.24889 0 0 0 1.21,-1.28809 l -0.248,-8.03418 11.96387,7.67285 a 1.2496243,1.2496243 0 1 0 1.34961,-2.10352 l -11.96558,-7.6738 7.40894,-3.12793 a 1.2498633,1.2498633 0 0 0 -0.97266,-2.30273 l -8.988,3.79419 -13.07816,-8.38745 13.0791,-8.38794 8.98608,3.79272 a 1.2498633,1.2498633 0 1 0 0.97266,-2.30273 l -7.40723,-3.12646 11.96484,-7.67334 a 1.249,1.249 0 0 0 0.37696,-1.72657 z"
     id="path208"
     style="fill:#666666" />
  <metadata
     id="metadata290">
    <rdf:RDF>
      <cc:Work
         rdf:about="">
        <dc:title>Creator Icon_44</dc:title>
      </cc:Work>
    </rdf:RDF>
  </metadata>
</svg>
