<?xml version="1.0" encoding="UTF-8" standalone="no"?>
<svg
   version="1.1"
   x="0px"
   y="0px"
   viewBox="0 0 62.000782 60.796131"
   enable-background="new 0 0 64 64"
   xml:space="preserve"
   id="svg1403"
   sodipodi:docname="noun-inauguration-4931485.svg"
   width="62.000782"
   height="60.796131"
   xmlns:inkscape="http://www.inkscape.org/namespaces/inkscape"
   xmlns:sodipodi="http://sodipodi.sourceforge.net/DTD/sodipodi-0.dtd"
   xmlns="http://www.w3.org/2000/svg"
   xmlns:svg="http://www.w3.org/2000/svg"><defs
     id="defs1407" /><sodipodi:namedview
     id="namedview1405"
     pagecolor="#ffffff"
     bordercolor="#000000"
     borderopacity="0.25"
     inkscape:showpageshadow="2"
     inkscape:pageopacity="0.0"
     inkscape:pagecheckerboard="0"
     inkscape:deskcolor="#d1d1d1"
     showgrid="false" /><g
     id="g1397"
     transform="translate(-0.99960925,-1.6018687)"
     style="fill:#ffffff"><g
       id="g1395"
       style="fill:#ffffff"><path
         d="M 20.342,48.384 C 19.692,48.1 19.004,47.956 18.3,47.956 c -2.033,0 -3.873,1.203 -4.688,3.065 -1.128,2.583 0.055,5.604 2.638,6.734 0.651,0.285 1.339,0.429 2.045,0.429 2.035,0 3.874,-1.204 4.685,-3.066 0.548,-1.251 0.575,-2.641 0.076,-3.913 -0.498,-1.271 -1.462,-2.273 -2.714,-2.821 z m 0.804,5.934 c -0.494,1.134 -1.613,1.867 -2.852,1.867 -0.428,0 -0.847,-0.088 -1.243,-0.261 -1.573,-0.688 -2.293,-2.529 -1.607,-4.101 0.496,-1.134 1.617,-1.866 2.855,-1.866 0.428,0 0.847,0.088 1.242,0.26 0.762,0.333 1.349,0.944 1.652,1.718 0.304,0.774 0.288,1.621 -0.047,2.383 z"
         id="path1387"
         style="fill:#ffffff" /><path
         d="m 31.998,37.46 c 0.552,0 1,-0.448 1,-1 v -0.01 c 0,-0.552 -0.448,-0.995 -1,-0.995 -0.552,0 -1,0.453 -1,1.005 0,0.552 0.448,1 1,1 z"
         id="path1389"
         style="fill:#ffffff" /><path
         d="m 45.704,58.185 c 0.706,0 1.395,-0.144 2.047,-0.429 2.58,-1.129 3.763,-4.15 2.637,-6.735 -0.814,-1.861 -2.655,-3.064 -4.688,-3.064 -0.705,0 -1.393,0.144 -2.046,0.428 -2.581,1.128 -3.764,4.149 -2.637,6.734 0.814,1.862 2.654,3.066 4.687,3.066 z m -1.25,-7.967 c 0.398,-0.173 0.817,-0.261 1.246,-0.261 1.239,0 2.36,0.732 2.855,1.864 0.686,1.575 -0.035,3.415 -1.605,4.103 -0.397,0.174 -0.816,0.262 -1.246,0.262 -1.238,0 -2.358,-0.733 -2.854,-1.867 -0.687,-1.575 0.034,-3.415 1.604,-4.101 z"
         id="path1391"
         style="fill:#ffffff" /><path
         d="m 59.737,19.894 3.166,-6.633 c 0.148,-0.31 0.126,-0.674 -0.057,-0.964 C 62.663,12.007 62.344,11.831 62,11.831 H 45.362 C 45.371,7.639 44.678,4.274 43.324,2.078 43.13,1.76 42.779,1.58 42.404,1.604 42.033,1.63 41.707,1.86 41.558,2.201 L 37.347,11.83 H 26.65 L 22.442,2.201 C 22.293,1.86 21.967,1.63 21.596,1.604 21.225,1.581 20.87,1.76 20.675,2.076 19.203,4.46 18.616,7.946 18.632,11.83 H 2 c -0.343,0 -0.663,0.176 -0.846,0.466 -0.183,0.291 -0.205,0.655 -0.057,0.964 l 3.166,6.633 -3.166,6.633 C 0.949,26.836 0.971,27.2 1.154,27.49 1.337,27.78 1.656,27.956 2,27.956 h 19.356 c 0.076,0.239 0.148,0.485 0.227,0.72 1.215,3.659 2.664,6.847 4.264,9.475 l -2.967,6.795 c -0.277,-0.156 -0.561,-0.297 -0.85,-0.422 -2.282,-0.998 -4.815,-1.048 -7.135,-0.138 -2.318,0.909 -4.145,2.666 -5.143,4.948 -0.999,2.283 -1.049,4.818 -0.139,7.139 0.909,2.319 2.667,4.146 4.95,5.144 1.212,0.529 2.476,0.78 3.721,0.78 3.596,0 7.031,-2.091 8.562,-5.592 0.72,-1.654 0.947,-3.462 0.658,-5.228 -0.339,-2.076 1.22,-5.214 2.926,-5.89 0.529,-0.208 1.05,-0.49 1.563,-0.804 0.521,0.321 1.046,0.594 1.575,0.803 1.707,0.675 3.267,3.814 2.93,5.89 -0.29,1.771 -0.063,3.58 0.659,5.23 1.485,3.397 4.842,5.592 8.551,5.592 1.287,0 2.542,-0.263 3.73,-0.782 4.71,-2.06 6.869,-7.569 4.811,-12.282 -1.486,-3.398 -4.842,-5.593 -8.55,-5.593 -1.288,0 -2.543,0.263 -3.73,0.782 -0.289,0.126 -0.571,0.267 -0.848,0.422 l -2.971,-6.8 c 1.727,-2.846 3.269,-6.342 4.493,-10.189 H 62 c 0.343,0 0.663,-0.176 0.846,-0.466 0.183,-0.291 0.205,-0.655 0.057,-0.964 z M 42.494,5.051 c 0.588,1.776 0.884,4.072 0.875,6.779 h -3.84 z M 3.585,25.957 6.273,20.324 c 0.13,-0.272 0.13,-0.589 0,-0.861 L 3.585,13.83 h 15.104 c 0.214,3.989 0.991,8.252 2.072,12.127 z m 26.108,17.869 c -2.6,1.03 -4.662,5.028 -4.165,8.073 0.227,1.386 0.048,2.807 -0.517,4.105 -1.62,3.701 -5.946,5.396 -9.648,3.779 -1.793,-0.784 -3.174,-2.219 -3.889,-4.041 -0.714,-1.822 -0.675,-3.813 0.11,-5.607 0.784,-1.793 2.219,-3.173 4.04,-3.887 1.822,-0.714 3.812,-0.675 5.607,0.11 0.523,0.226 1.024,0.519 1.49,0.869 0.245,0.184 0.56,0.245 0.855,0.168 0.296,-0.078 0.54,-0.287 0.663,-0.567 l 2.921,-6.69 c 0.982,1.356 2.009,2.512 3.067,3.437 -0.177,0.087 -0.355,0.18 -0.534,0.251 z m 10.73,3.57 c 0.293,0.077 0.611,0.015 0.855,-0.168 0.465,-0.35 0.965,-0.643 1.489,-0.871 0.935,-0.408 1.92,-0.615 2.931,-0.615 2.914,0 5.55,1.725 6.717,4.394 1.617,3.702 -0.079,8.03 -3.779,9.648 -0.934,0.408 -1.92,0.615 -2.93,0.615 -2.914,0 -5.551,-1.725 -6.718,-4.394 -0.566,-1.296 -0.745,-2.715 -0.517,-4.107 0.494,-3.045 -1.57,-7.043 -4.168,-8.072 C 30.28,42.237 26.234,36.338 23.48,28.047 20.558,19.25 19.836,10.134 21.507,5.055 L 39.76,46.829 c 0.123,0.28 0.367,0.489 0.663,0.567 z m -3.265,-11.519 -3.461,-7.92 h 6.847 c -0.966,2.92 -2.115,5.611 -3.386,7.92 z M 32.823,25.957 27.524,13.83 h 32.891 l -2.688,5.633 c -0.13,0.272 -0.13,0.589 0,0.861 l 2.688,5.633 z"
         id="path1393"
         style="fill:#ffffff" /></g></g></svg>
