<?xml version="1.0" encoding="UTF-8" standalone="no"?>
<svg
   version="1.1"
   x="0px"
   y="0px"
   viewBox="0 0 68.224007 53.442844"
   enable-background="new 0 0 100 100"
   xml:space="preserve"
   id="svg28"
   sodipodi:docname="jacuzzi3.svg"
   width="68.224007"
   height="53.442844"
   inkscape:version="1.1.2 (0a00cf5339, 2022-02-04)"
   xmlns:inkscape="http://www.inkscape.org/namespaces/inkscape"
   xmlns:sodipodi="http://sodipodi.sourceforge.net/DTD/sodipodi-0.dtd"
   xmlns="http://www.w3.org/2000/svg"
   xmlns:svg="http://www.w3.org/2000/svg"><defs
     id="defs32" /><sodipodi:namedview
     id="namedview30"
     pagecolor="#ffffff"
     bordercolor="#666666"
     borderopacity="1.0"
     inkscape:pageshadow="2"
     inkscape:pageopacity="0.0"
     inkscape:pagecheckerboard="0"
     showgrid="false"
     fit-margin-top="0"
     fit-margin-left="0"
     fit-margin-right="0"
     fit-margin-bottom="0"
     inkscape:zoom="6.088"
     inkscape:cx="33.015769"
     inkscape:cy="40.653745"
     inkscape:window-width="1850"
     inkscape:window-height="1025"
     inkscape:window-x="1990"
     inkscape:window-y="27"
     inkscape:window-maximized="1"
     inkscape:current-layer="svg28" /><path
     d="m 45.078,29.037844 h 10.24 c 0.414,0 0.75,-0.336 0.75,-0.75 0,-0.414 -0.336,-0.75 -0.75,-0.75 h -10.24 c -0.414,0 -0.75,0.336 -0.75,0.75 0,0.414 0.336,0.75 0.75,0.75 z"
     id="path2"
     style="fill:#5e5e5e" /><path
     d="m 23.125,29.037844 h 15.208 c 0.414,0 0.75,-0.336 0.75,-0.75 0,-0.414 -0.336,-0.75 -0.75,-0.75 H 23.125 c -0.414,0 -0.75,0.336 -0.75,0.75 0,0.414 0.336,0.75 0.75,0.75 z"
     id="path4"
     style="fill:#5e5e5e" /><path
     d="m 56.068,33.939844 c 0,-0.414 -0.336,-0.75 -0.75,-0.75 H 32.817 c -0.414,0 -0.75,0.336 -0.75,0.75 0,0.414 0.336,0.75 0.75,0.75 h 22.501 c 0.414,0 0.75,-0.336 0.75,-0.75 z"
     id="path6"
     style="fill:#5e5e5e" /><path
     d="m 10.068,34.689844 h 11.976 c 0.414,0 0.75,-0.336 0.75,-0.75 0,-0.414 -0.336,-0.75 -0.75,-0.75 H 10.068 c -0.414,0 -0.75,0.336 -0.75,0.75 0,0.414 0.336,0.75 0.75,0.75 z"
     id="path8"
     style="fill:#5e5e5e" /><path
     d="M 42.687,38.842844 H 10.068 c -0.414,0 -0.75,0.336 -0.75,0.75 0,0.414 0.336,0.75 0.75,0.75 h 32.619 c 0.414,0 0.75,-0.336 0.75,-0.75 0,-0.414 -0.336,-0.75 -0.75,-0.75 z"
     id="path10"
     style="fill:#5e5e5e" /><path
     d="m 42.188,44.496844 h -5.48 c -0.414,0 -0.75,0.336 -0.75,0.75 0,0.414 0.336,0.75 0.75,0.75 h 5.48 c 0.414,0 0.75,-0.336 0.75,-0.75 0,-0.414 -0.336,-0.75 -0.75,-0.75 z"
     id="path12"
     style="fill:#5e5e5e" /><path
     d="M 29.21,44.496844 H 10.068 c -0.414,0 -0.75,0.336 -0.75,0.75 0,0.414 0.336,0.75 0.75,0.75 H 29.21 c 0.414,0 0.75,-0.336 0.75,-0.75 0,-0.414 -0.336,-0.75 -0.75,-0.75 z"
     id="path14"
     style="fill:#5e5e5e" /><path
     d="m 25.881,3.2578436 c -0.287,-0.301 -0.762,-0.311 -1.06,-0.025 -1.105,1.055 -2.5,3.861 0.195,6.9930004 0.01,0.009 0.963,0.932 0.986,2.197 0.016,0.846 -0.39,1.69 -1.205,2.508 -0.292,0.293 -0.292,0.768 0.002,1.061 0.146,0.146 0.338,0.219 0.529,0.219 0.192,0 0.385,-0.074 0.531,-0.221 1.113,-1.117 1.666,-2.326 1.643,-3.594 -0.036,-1.911 -1.399,-3.2070004 -1.406,-3.2070004 -2.315,-2.697 -0.457,-4.659 -0.237,-4.874 0.297,-0.286 0.307,-0.758 0.022,-1.057 z"
     id="path16"
     style="fill:#5e5e5e" /><path
     d="m 31.867,0.3418436 c -0.287,-0.301 -0.761,-0.312 -1.06,-0.025 -1.105,1.055 -2.5,3.861 0.195,6.993 0.01,0.009 0.963,0.932 0.986,2.197 0.016,0.8460004 -0.39,1.6900004 -1.205,2.5080004 -0.292,0.293 -0.292,0.768 0.002,1.061 0.146,0.146 0.338,0.219 0.529,0.219 0.192,0 0.385,-0.074 0.531,-0.221 1.113,-1.117 1.666,-2.326 1.643,-3.5940004 -0.036,-1.911 -1.399,-3.207 -1.406,-3.207 -2.315,-2.697 -0.457,-4.659 -0.237,-4.874 0.297,-0.287 0.307,-0.759 0.022,-1.057 z"
     id="path18"
     style="fill:#5e5e5e" /><path
     d="m 37.853,3.4918436 c -0.286,-0.301 -0.761,-0.312 -1.06,-0.025 -1.105,1.055 -2.5,3.861 0.196,6.9930004 0.01,0.009 0.963,0.932 0.986,2.197 0.016,0.846 -0.39,1.69 -1.206,2.508 -0.292,0.293 -0.292,0.768 0.002,1.061 0.146,0.146 0.338,0.219 0.529,0.219 0.192,0 0.385,-0.074 0.531,-0.221 1.113,-1.117 1.666,-2.326 1.643,-3.595 -0.035,-1.91 -1.399,-3.2070004 -1.406,-3.2070004 -2.313,-2.695 -0.458,-4.657 -0.237,-4.874 0.297,-0.285 0.307,-0.758 0.022,-1.056 z"
     id="path20"
     style="fill:#5e5e5e" /><path
     d="m 67.476,47.576844 h -0.661 v -3.617 c 0,-0.414 -0.336,-0.75 -0.75,-0.75 h -0.747 v -3.617 c 0,-0.414 -0.336,-0.75 -0.75,-0.75 h -1.133 v -14.582 c 1.547,-0.395 2.7,-1.789 2.7,-3.458 0,-1.974 -1.606,-3.581 -3.581,-3.581 H 19.723 v -0.25 c 0,-0.414 -0.336,-0.75 -0.75,-0.75 H 8.505 c -0.199,0 -0.39,0.079 -0.53,0.22 -0.14,0.141 -0.22,0.332 -0.22,0.53 v 0.25 H 3.581 c -1.974,0 -3.581,1.606 -3.581,3.581 0,1.669 1.152,3.063 2.7,3.458 v 24.349 c 0,1.548 1.14,2.808 2.54,2.808 h 39.984 v 1.275 c 0,0.414 0.336,0.75 0.75,0.75 h 21.5 c 0.414,0 0.75,-0.336 0.75,-0.75 v -4.367 c 0.002,-0.413 -0.334,-0.749 -0.748,-0.749 z m -19.34,-2.867 h 0.746 v 0 h 15.686 0.747 v 2.867 H 48.136 Z m 15.682,-1.5 H 49.633 v -2.867 h 13.052 1.133 z m -1.264,-24.487 c 1.147,0 2.081,0.933 2.081,2.081 0,1.148 -0.933,2.081 -2.081,2.081 H 19.723 v -4.161 h 42.831 z m -53.298,-1 h 8.968 v 0.25 5.661 3.972 H 9.256 v -3.972 -5.661 z m -7.755,3.081 c 0,-1.147 0.933,-2.081 2.081,-2.081 h 4.174 v 4.161 H 3.582 c -1.148,0 -2.081,-0.933 -2.081,-2.08 z m 3.74,29.114 c -0.573,0 -1.04,-0.586 -1.04,-1.308 v -24.226 h 3.555 v 3.972 c 0,0.414 0.336,0.75 0.75,0.75 h 10.468 c 0.414,0 0.75,-0.336 0.75,-0.75 v -3.972 h 42.212 v 14.459 H 48.883 v 0 c -0.414,0 -0.75,0.336 -0.75,0.75 v 3.617 h -0.746 c -0.414,0 -0.75,0.336 -0.75,0.75 v 3.617 h -0.661 c -0.414,0 -0.75,0.336 -0.75,0.75 v 1.592 H 5.241 Z m 61.485,2.025 h -20 v -1.275 -1.592 h 0.661 18.678 0.661 z"
     id="path22"
     style="fill:#5e5e5e" /><path
     d="m 43.638782,0.8720506 c -0.286,-0.301 -0.761,-0.312 -1.06,-0.025 -1.105,1.055 -2.5,3.861 0.196,6.993 0.01,0.009 0.963,0.932 0.986,2.1970004 0.016,0.846 -0.39,1.69 -1.206,2.508 -0.292,0.293 -0.292,0.768 0.002,1.061 0.146,0.146 0.338,0.219 0.529,0.219 0.192,0 0.385,-0.074 0.531,-0.221 1.113,-1.117 1.666,-2.326 1.643,-3.595 -0.035,-1.9100004 -1.399,-3.2070004 -1.406,-3.2070004 -2.313,-2.695 -0.458,-4.657 -0.237,-4.874 0.297,-0.285 0.307,-0.758 0.022,-1.056 z"
     id="path20-3"
     style="fill:#5e5e5e" /><path
     d="m 49.763031,3.4359726 c -0.286,-0.301 -0.761,-0.312 -1.06,-0.025 -1.105,1.055 -2.5,3.861 0.196,6.9930004 0.01,0.009 0.963,0.932 0.986,2.197 0.016,0.846 -0.39,1.69 -1.206,2.508 -0.292,0.293 -0.292,0.768 0.002,1.061 0.146,0.146 0.338,0.219 0.529,0.219 0.192,0 0.385,-0.074 0.531,-0.221 1.113,-1.117 1.666,-2.326 1.643,-3.595 -0.035,-1.91 -1.399,-3.2070004 -1.406,-3.2070004 -2.313,-2.695 -0.458,-4.657 -0.237,-4.874 0.297,-0.285 0.307,-0.758 0.022,-1.056 z"
     id="path20-6"
     style="fill:#5e5e5e" /><path
     d="m 19.990025,0.2332066 c -0.286,-0.301 -0.761,-0.312 -1.06,-0.025 -1.105,1.055 -2.5,3.861 0.196,6.993 0.01,0.009 0.963,0.932 0.986,2.197 0.016,0.8460004 -0.39,1.6900004 -1.206,2.5080004 -0.292,0.293 -0.292,0.768 0.002,1.061 0.146,0.146 0.338,0.219 0.529,0.219 0.192,0 0.385,-0.074 0.531,-0.221 1.113,-1.117 1.666,-2.326 1.643,-3.5950004 -0.035,-1.91 -1.399,-3.207 -1.406,-3.207 -2.313,-2.695 -0.458,-4.657 -0.237,-4.874 0.297,-0.285 0.307,-0.758 0.022,-1.056 z"
     id="path20-7"
     style="fill:#5e5e5e" /></svg>
