<?xml version="1.0" encoding="UTF-8" standalone="no"?>
<svg
   data-name="Layer 46 copy"
   viewBox="0 0 82.5 82.510635"
   x="0px"
   y="0px"
   version="1.1"
   id="svg190"
   sodipodi:docname="jacuzzi.svg"
   width="82.5"
   height="82.510635"
   inkscape:version="1.1.2 (0a00cf5339, 2022-02-04)"
   xmlns:inkscape="http://www.inkscape.org/namespaces/inkscape"
   xmlns:sodipodi="http://sodipodi.sourceforge.net/DTD/sodipodi-0.dtd"
   xmlns="http://www.w3.org/2000/svg"
   xmlns:svg="http://www.w3.org/2000/svg">
  <defs
     id="defs194" />
  <sodipodi:namedview
     id="namedview192"
     pagecolor="#ffffff"
     bordercolor="#666666"
     borderopacity="1.0"
     inkscape:pageshadow="2"
     inkscape:pageopacity="0.0"
     inkscape:pagecheckerboard="0"
     showgrid="false"
     fit-margin-top="0"
     fit-margin-left="0"
     fit-margin-right="0"
     fit-margin-bottom="0"
     inkscape:zoom="6.088"
     inkscape:cx="41.228647"
     inkscape:cy="53.79435"
     inkscape:window-width="1850"
     inkscape:window-height="1025"
     inkscape:window-x="1990"
     inkscape:window-y="27"
     inkscape:window-maximized="1"
     inkscape:current-layer="svg190" />
  <path
     d="M 78.31,45.490632 H 77.5 v -34.23 a 11.24,11.24 0 0 0 -21.12,-5.38 l -1.5,-0.6 a 3.93,3.93 0 0 0 -3,0.06 3.85,3.85 0 0 0 -2.08,2.15 l -0.81,2.06 -0.49,-0.19 a 2.77,2.77 0 0 0 -3.6,1.56 l -1.73,4.34 a 2.78,2.78 0 0 0 1.57,3.6 l 17.24,6.81 v 0 a 2.79,2.79 0 0 0 1,0.19 2.87,2.87 0 0 0 1.11,-0.23 2.81,2.81 0 0 0 1.48,-1.53 l 1.72,-4.35 a 2.79,2.79 0 0 0 -1.57,-3.61 l -0.47,-0.17 0.81,-2.05 a 3.93,3.93 0 0 0 -2.21,-5.09 l -0.33,-0.13 a 3.74,3.74 0 0 1 6.48,2.56 v 34.23 h -3.55 a 9.36,9.36 0 0 0 0.11,-1.41 9.08,9.08 0 0 0 -15.07,-6.82 13,13 0 0 0 -11.87,-7.89 12.76,12.76 0 0 0 -6.06,1.52 9.07,9.07 0 0 0 -16.31,4.74 10.66,10.66 0 0 0 -11,9.86 H 4.19 a 4.2,4.2 0 0 0 -4.19,4.19 v 1.27 a 4.2,4.2 0 0 0 4.19,4.19 h 0.38 l 3.77,15.84 a 7.23,7.23 0 0 0 6.66,5.55 v 4.73 a 1.25,1.25 0 0 0 1.25,1.25 h 7.18 a 1.25,1.25 0 0 0 1.25,-1.25 v -4.7 h 33.14 v 4.7 a 1.25,1.25 0 0 0 1.25,1.25 h 7.18 a 1.25,1.25 0 0 0 1.25,-1.25 v -4.73 a 7.23,7.23 0 0 0 6.66,-5.55 l 3.77,-15.84 h 0.38 a 4.2,4.2 0 0 0 4.19,-4.19 v -1.27 a 4.2,4.2 0 0 0 -4.19,-4.19 z m -60.06,-7.23 a 1.24,1.24 0 0 0 1.45,-1.38 q 0,-0.3 0,-0.6 a 6.57,6.57 0 0 1 12.38,-3.07 1.2,1.2 0 0 0 0.8,0.62 1.26,1.26 0 0 0 1,-0.17 10.24,10.24 0 0 1 5.76,-1.76 10.42,10.42 0 0 1 10.11,8.12 1.25,1.25 0 0 0 2.26,0.42 6.58,6.58 0 0 1 11.9,5 H 8.75 a 8.16,8.16 0 0 1 9.5,-7.18 z m 53,9.75 h 7.06 a 1.69,1.69 0 0 1 1.69,1.69 v 1.27 a 1.69,1.69 0 0 1 -1.69,1.69 H 4.19 a 1.69,1.69 0 0 1 -1.69,-1.69 v -1.29 a 1.69,1.69 0 0 1 1.69,-1.69 z m -5,-43 a 6.24,6.24 0 0 0 -5.16,2.73 l -2.36,-0.93 a 8.74,8.74 0 0 1 16.27,4.45 v 34.23 h -2.5 v -34.23 a 6.25,6.25 0 0 0 -6.25,-6.25 z m -9,16.11 a 1,1 0 0 0 -1,-0.86 1,1 0 0 0 -0.62,0.23 l -1.86,-0.73 a 1,1 0 1 0 -0.71,-0.28 l -3.6,-1.42 a 1,1 0 0 0 -0.71,-0.3 v 0 l -1.86,-0.74 a 1,1 0 0 0 0.36,-0.76 1,1 0 0 0 -1,-1 1,1 0 0 0 -0.43,0.1 l 1.43,-3.52 a 0.29,0.29 0 0 1 0.37,-0.16 l 5.18,2 c 0,0 0,0 0,0 a 1,1 0 0 0 1.75,0.65 l 5.89,2.32 a 1,1 0 0 0 0.81,0.61 1.07,1.07 0 0 0 0.31,-0.06 l 1.74,0.68 a 1,1 0 1 0 1.45,0.88 0.88,0.88 0 0 0 -0.07,-0.33 l 0.14,0.06 a 0.28,0.28 0 0 1 0.16,0.14 0.28,0.28 0 0 1 0,0.22 l -1.57,4 a 1,1 0 0 0 -0.56,0.51 z m -5.95,-10.66 0.81,-2.05 a 1.43,1.43 0 0 1 1.85,-0.8 l 9,3.54 a 1.43,1.43 0 0 1 0.8,1.85 l -0.81,2.05 z m -33.8,69.55 v -3.45 h 4.68 v 3.45 z m 42.82,-3.45 H 65 v 3.45 h -4.68 z m 9.32,-3.24 a 1,1 0 0 0 -1.89,0.44 0.93,0.93 0 0 0 0,0.24 4.17,4.17 0 0 1 -0.71,0.06 h -2.4 a 0.94,0.94 0 0 0 0.06,-0.3 1,1 0 0 0 -2,0 0.94,0.94 0 0 0 0.06,0.3 h -3.07 a 0.94,0.94 0 0 0 0.06,-0.3 1,1 0 0 0 -2,0 0.94,0.94 0 0 0 0.06,0.3 h -3.12 a 0.94,0.94 0 0 0 0.06,-0.3 1,1 0 0 0 -2,0 0.94,0.94 0 0 0 0.06,0.3 h -3.12 a 0.94,0.94 0 0 0 0.06,-0.3 1,1 0 0 0 -2,0 0.94,0.94 0 0 0 0.06,0.3 h -3.12 a 0.94,0.94 0 0 0 0.06,-0.3 1,1 0 0 0 -2,0 0.94,0.94 0 0 0 0.06,0.3 h -3.12 a 0.94,0.94 0 0 0 0.06,-0.3 1,1 0 0 0 -2,0 0.94,0.94 0 0 0 0.06,0.3 h -3.12 a 0.94,0.94 0 0 0 0.06,-0.3 1,1 0 0 0 -2,0 0.94,0.94 0 0 0 0.06,0.3 h -3.12 a 0.94,0.94 0 0 0 0.06,-0.3 1,1 0 0 0 -2,0 0.94,0.94 0 0 0 0.06,0.3 h -3.12 a 0.94,0.94 0 0 0 0.06,-0.3 1,1 0 0 0 -2,0 0.94,0.94 0 0 0 0.06,0.3 h -3.12 a 0.94,0.94 0 0 0 0.06,-0.3 1,1 0 0 0 -2,0 0.94,0.94 0 0 0 0.06,0.3 h -2.4 a 4.17,4.17 0 0 1 -0.71,-0.06 0.93,0.93 0 0 0 0.05,-0.24 1,1 0 0 0 -1.89,-0.44 4.76,4.76 0 0 1 -1.23,-1.14 1,1 0 0 0 -0.38,-1.92 1,1 0 0 0 -0.48,0.14 v 0 l -1.4,-5.87 a 1,1 0 0 0 0.38,-0.77 1,1 0 0 0 -0.79,-1 l -0.77,-3.23 a 1,1 0 0 0 0.56,0.19 1,1 0 0 0 0,-2 1,1 0 0 0 -0.86,0.53 l -0.75,-3.15 h 68.22 l -0.75,3.16 a 1,1 0 0 0 -0.86,-0.53 1,1 0 0 0 0,2 1,1 0 0 0 0.56,-0.19 l -0.77,3.23 a 1,1 0 0 0 -0.79,1 1,1 0 0 0 0.38,0.77 l -1.4,5.87 v 0 a 1,1 0 0 0 -0.48,-0.15 1,1 0 0 0 -0.38,1.92 4.76,4.76 0 0 1 -1.23,1.14 z"
     id="path2"
     style="fill:#494949" />
  <circle
     cx="71.25"
     cy="61.260632"
     r="1"
     id="circle4"
     style="fill:#494949" />
  <circle
     cx="71.25"
     cy="66.260635"
     r="1"
     id="circle6"
     style="fill:#494949" />
  <circle
     cx="68.75"
     cy="58.760632"
     r="1"
     id="circle8"
     style="fill:#494949" />
  <circle
     cx="71.25"
     cy="56.260632"
     r="1"
     id="circle10"
     style="fill:#494949" />
  <circle
     cx="68.75"
     cy="63.760632"
     r="1"
     id="circle12"
     style="fill:#494949" />
  <circle
     cx="68.75"
     cy="68.760635"
     r="1"
     id="circle14"
     style="fill:#494949" />
  <circle
     cx="66.25"
     cy="71.260635"
     r="1"
     id="circle16"
     style="fill:#494949" />
  <circle
     cx="63.75"
     cy="58.760632"
     r="1"
     id="circle18"
     style="fill:#494949" />
  <circle
     cx="66.25"
     cy="56.260632"
     r="1"
     id="circle20"
     style="fill:#494949" />
  <circle
     cx="63.75"
     cy="63.760632"
     r="1"
     id="circle22"
     style="fill:#494949" />
  <circle
     cx="66.25"
     cy="61.260632"
     r="1"
     id="circle24"
     style="fill:#494949" />
  <circle
     cx="63.75"
     cy="68.760635"
     r="1"
     id="circle26"
     style="fill:#494949" />
  <circle
     cx="61.25"
     cy="71.260635"
     r="1"
     id="circle28"
     style="fill:#494949" />
  <circle
     cx="66.25"
     cy="66.260635"
     r="1"
     id="circle30"
     style="fill:#494949" />
  <circle
     cx="58.75"
     cy="58.760632"
     r="1"
     id="circle32"
     style="fill:#494949" />
  <circle
     cx="61.25"
     cy="56.260632"
     r="1"
     id="circle34"
     style="fill:#494949" />
  <circle
     cx="58.75"
     cy="63.760632"
     r="1"
     id="circle36"
     style="fill:#494949" />
  <circle
     cx="61.25"
     cy="61.260632"
     r="1"
     id="circle38"
     style="fill:#494949" />
  <circle
     cx="58.75"
     cy="68.760635"
     r="1"
     id="circle40"
     style="fill:#494949" />
  <circle
     cx="56.25"
     cy="71.260635"
     r="1"
     id="circle42"
     style="fill:#494949" />
  <circle
     cx="61.25"
     cy="66.260635"
     r="1"
     id="circle44"
     style="fill:#494949" />
  <circle
     cx="53.75"
     cy="58.760632"
     r="1"
     id="circle46"
     style="fill:#494949" />
  <circle
     cx="56.25"
     cy="56.260632"
     r="1"
     id="circle48"
     style="fill:#494949" />
  <circle
     cx="53.75"
     cy="63.760632"
     r="1"
     id="circle50"
     style="fill:#494949" />
  <circle
     cx="56.25"
     cy="61.260632"
     r="1"
     id="circle52"
     style="fill:#494949" />
  <circle
     cx="53.75"
     cy="68.760635"
     r="1"
     id="circle54"
     style="fill:#494949" />
  <circle
     cx="51.25"
     cy="71.260635"
     r="1"
     id="circle56"
     style="fill:#494949" />
  <circle
     cx="56.25"
     cy="66.260635"
     r="1"
     id="circle58"
     style="fill:#494949" />
  <circle
     cx="48.75"
     cy="58.760632"
     r="1"
     id="circle60"
     style="fill:#494949" />
  <circle
     cx="51.25"
     cy="56.260632"
     r="1"
     id="circle62"
     style="fill:#494949" />
  <circle
     cx="48.75"
     cy="63.760632"
     r="1"
     id="circle64"
     style="fill:#494949" />
  <circle
     cx="51.25"
     cy="61.260632"
     r="1"
     id="circle66"
     style="fill:#494949" />
  <circle
     cx="48.75"
     cy="68.760635"
     r="1"
     id="circle68"
     style="fill:#494949" />
  <circle
     cx="46.25"
     cy="71.260635"
     r="1"
     id="circle70"
     style="fill:#494949" />
  <circle
     cx="51.25"
     cy="66.260635"
     r="1"
     id="circle72"
     style="fill:#494949" />
  <circle
     cx="43.75"
     cy="58.760632"
     r="1"
     id="circle74"
     style="fill:#494949" />
  <circle
     cx="46.25"
     cy="56.260632"
     r="1"
     id="circle76"
     style="fill:#494949" />
  <circle
     cx="43.75"
     cy="63.760632"
     r="1"
     id="circle78"
     style="fill:#494949" />
  <circle
     cx="46.25"
     cy="61.260632"
     r="1"
     id="circle80"
     style="fill:#494949" />
  <circle
     cx="43.75"
     cy="68.760635"
     r="1"
     id="circle82"
     style="fill:#494949" />
  <circle
     cx="41.25"
     cy="71.260635"
     r="1"
     id="circle84"
     style="fill:#494949" />
  <circle
     cx="46.25"
     cy="66.260635"
     r="1"
     id="circle86"
     style="fill:#494949" />
  <circle
     cx="38.75"
     cy="58.760632"
     r="1"
     id="circle88"
     style="fill:#494949" />
  <circle
     cx="41.25"
     cy="56.260632"
     r="1"
     id="circle90"
     style="fill:#494949" />
  <circle
     cx="38.75"
     cy="63.760632"
     r="1"
     id="circle92"
     style="fill:#494949" />
  <circle
     cx="41.25"
     cy="61.260632"
     r="1"
     id="circle94"
     style="fill:#494949" />
  <circle
     cx="38.75"
     cy="68.760635"
     r="1"
     id="circle96"
     style="fill:#494949" />
  <circle
     cx="36.25"
     cy="71.260635"
     r="1"
     id="circle98"
     style="fill:#494949" />
  <circle
     cx="41.25"
     cy="66.260635"
     r="1"
     id="circle100"
     style="fill:#494949" />
  <circle
     cx="33.75"
     cy="58.760632"
     r="1"
     id="circle102"
     style="fill:#494949" />
  <circle
     cx="36.25"
     cy="56.260632"
     r="1"
     id="circle104"
     style="fill:#494949" />
  <circle
     cx="33.75"
     cy="63.760632"
     r="1"
     id="circle106"
     style="fill:#494949" />
  <circle
     cx="36.25"
     cy="61.260632"
     r="1"
     id="circle108"
     style="fill:#494949" />
  <circle
     cx="33.75"
     cy="68.760635"
     r="1"
     id="circle110"
     style="fill:#494949" />
  <circle
     cx="31.25"
     cy="71.260635"
     r="1"
     id="circle112"
     style="fill:#494949" />
  <circle
     cx="36.25"
     cy="66.260635"
     r="1"
     id="circle114"
     style="fill:#494949" />
  <circle
     cx="28.75"
     cy="58.760632"
     r="1"
     id="circle116"
     style="fill:#494949" />
  <circle
     cx="31.25"
     cy="56.260632"
     r="1"
     id="circle118"
     style="fill:#494949" />
  <circle
     cx="28.75"
     cy="63.760632"
     r="1"
     id="circle120"
     style="fill:#494949" />
  <circle
     cx="31.25"
     cy="61.260632"
     r="1"
     id="circle122"
     style="fill:#494949" />
  <circle
     cx="28.75"
     cy="68.760635"
     r="1"
     id="circle124"
     style="fill:#494949" />
  <circle
     cx="26.25"
     cy="71.260635"
     r="1"
     id="circle126"
     style="fill:#494949" />
  <circle
     cx="31.25"
     cy="66.260635"
     r="1"
     id="circle128"
     style="fill:#494949" />
  <circle
     cx="23.75"
     cy="58.760632"
     r="1"
     id="circle130"
     style="fill:#494949" />
  <circle
     cx="26.25"
     cy="56.260632"
     r="1"
     id="circle132"
     style="fill:#494949" />
  <circle
     cx="23.75"
     cy="63.760632"
     r="1"
     id="circle134"
     style="fill:#494949" />
  <circle
     cx="26.25"
     cy="61.260632"
     r="1"
     id="circle136"
     style="fill:#494949" />
  <circle
     cx="23.75"
     cy="68.760635"
     r="1"
     id="circle138"
     style="fill:#494949" />
  <circle
     cx="21.25"
     cy="71.260635"
     r="1"
     id="circle140"
     style="fill:#494949" />
  <circle
     cx="26.25"
     cy="66.260635"
     r="1"
     id="circle142"
     style="fill:#494949" />
  <circle
     cx="18.75"
     cy="58.760632"
     r="1"
     id="circle144"
     style="fill:#494949" />
  <circle
     cx="21.25"
     cy="56.260632"
     r="1"
     id="circle146"
     style="fill:#494949" />
  <circle
     cx="18.75"
     cy="63.760632"
     r="1"
     id="circle148"
     style="fill:#494949" />
  <circle
     cx="21.25"
     cy="61.260632"
     r="1"
     id="circle150"
     style="fill:#494949" />
  <circle
     cx="18.75"
     cy="68.760635"
     r="1"
     id="circle152"
     style="fill:#494949" />
  <circle
     cx="16.25"
     cy="71.260635"
     r="1"
     id="circle154"
     style="fill:#494949" />
  <circle
     cx="21.25"
     cy="66.260635"
     r="1"
     id="circle156"
     style="fill:#494949" />
  <circle
     cx="13.75"
     cy="58.760632"
     r="1"
     id="circle158"
     style="fill:#494949" />
  <circle
     cx="16.25"
     cy="56.260632"
     r="1"
     id="circle160"
     style="fill:#494949" />
  <circle
     cx="13.75"
     cy="63.760632"
     r="1"
     id="circle162"
     style="fill:#494949" />
  <circle
     cx="11.25"
     cy="66.260635"
     r="1"
     id="circle164"
     style="fill:#494949" />
  <circle
     cx="16.25"
     cy="61.260632"
     r="1"
     id="circle166"
     style="fill:#494949" />
  <circle
     cx="13.75"
     cy="68.760635"
     r="1"
     id="circle168"
     style="fill:#494949" />
  <circle
     cx="16.25"
     cy="66.260635"
     r="1"
     id="circle170"
     style="fill:#494949" />
  <circle
     cx="11.25"
     cy="56.260632"
     r="1"
     id="circle172"
     style="fill:#494949" />
  <circle
     cx="11.25"
     cy="61.260632"
     r="1"
     id="circle174"
     style="fill:#494949" />
  <circle
     cx="61.25"
     cy="21.260632"
     r="1"
     id="circle176"
     style="fill:#494949" />
  <circle
     cx="58.75"
     cy="18.760632"
     r="1"
     id="circle178"
     style="fill:#494949" />
  <circle
     cx="56.25"
     cy="16.260632"
     r="1"
     id="circle180"
     style="fill:#494949" />
  <circle
     cx="51.25"
     cy="16.260632"
     r="1"
     id="circle182"
     style="fill:#494949" />
  <circle
     cx="48.75"
     cy="13.760632"
     r="1"
     id="circle184"
     style="fill:#494949" />
</svg>
