<?xml version="1.0" encoding="UTF-8" standalone="no"?>
<svg
   viewBox="0 0 23.104074 40.412716"
   fill="none"
   x="0px"
   y="0px"
   version="1.1"
   id="svg8"
   sodipodi:docname="jubilados.svg"
   width="23.104074"
   height="40.412716"
   inkscape:version="1.1.2 (0a00cf5339, 2022-02-04)"
   xmlns:inkscape="http://www.inkscape.org/namespaces/inkscape"
   xmlns:sodipodi="http://sodipodi.sourceforge.net/DTD/sodipodi-0.dtd"
   xmlns="http://www.w3.org/2000/svg"
   xmlns:svg="http://www.w3.org/2000/svg">
  <defs
     id="defs12" />
  <sodipodi:namedview
     id="namedview10"
     pagecolor="#ffffff"
     bordercolor="#666666"
     borderopacity="1.0"
     inkscape:pageshadow="2"
     inkscape:pageopacity="0.0"
     inkscape:pagecheckerboard="0"
     showgrid="false"
     fit-margin-top="0"
     fit-margin-left="0"
     fit-margin-right="0"
     fit-margin-bottom="0"
     inkscape:zoom="12.683333"
     inkscape:cx="11.984231"
     inkscape:cy="25.978975"
     inkscape:window-width="1850"
     inkscape:window-height="1025"
     inkscape:window-x="1990"
     inkscape:window-y="27"
     inkscape:window-maximized="1"
     inkscape:current-layer="svg8" />
  <path
     fill-rule="evenodd"
     clip-rule="evenodd"
     d="M 2.4700856,27.2985 0.01788564,39.3532 c -0.0972,0.4782 0.2115,0.9444 0.6898,1.0416 0.47719996,0.0973 0.94439996,-0.2115 1.04159996,-0.6897 l 2.4352,-11.9725 c -0.1935,0.011 -0.39,0.004 -0.5885,-0.0251 -0.413,-0.0581 -0.793,-0.2015 -1.1259,-0.409 z M 16.624186,9.5483 H 8.5776856 c -2.4773,0 -4.5767,1.8207 -4.9276,4.2729 -0.5554,3.8939 -1.5329,10.7343 -1.5329,10.7343 -0.1493,1.0427 0.5765,2.0112 1.6202,2.1605 1.0436,0.1484 2.0121,-0.5774 2.1605,-1.6211 l 1.5339,-10.7333 c 0.0521,-0.4161 0.2085,-0.8602 0.3769,-0.7018 v 24.5726 c 0,1.0326 0.8372,1.8697 1.8698,1.8697 10e-4,0 0.002,0 0.003,0 0.4953004,0 0.9715004,-0.1965 1.3214004,-0.5474 0.3509,-0.3509 0.5474,-0.8261 0.5474,-1.3223 0,-3.6774 0,-11.4973 0,-11.4973 h 2.1013 v 11.4992 c 0,1.0317 0.8361,1.8678 1.8668,1.8678 0.002,0 0.003,0 0.004,0 0.4952,0 0.9704,-0.1965 1.3203,-0.5474 0.3509,-0.3499 0.5474,-0.8251 0.5474,-1.3204 V 13.6568 c 0.0973,-0.2446 0.2737,0.1494 0.38,0.7048 l 1.5339,10.7333 c 0.1484,1.0437 1.1168,1.7695 2.1605,1.6211 1.0437,-0.1493 1.7695,-1.1178 1.6201,-2.1605 0,0 -0.9775,-6.8404 -1.5329,-10.7343 -0.3509,-2.4522 -2.4502,-4.2729 -4.9275,-4.2729 z M 12.600886,0 c 2.1084,0 3.8198,1.71136 3.8198,3.81972 0,2.10737 -1.7114,3.81868 -3.8198,3.81868 -2.1083,0 -3.8197004,-1.71131 -3.8197004,-3.81868 C 8.7811856,1.71136 10.492586,0 12.600886,0 Z m 1.4698,2.32593 c 0.5564,0 1.0075,0.45216 1.0075,1.00757 0,0.55642 -0.4511,1.00855 -1.0075,1.00855 -0.5554,0 -1.0076,-0.45213 -1.0076,-1.00855 0,-0.55541 0.4522,-1.00757 1.0076,-1.00757 z m -2.9395,0 c 0.5554,0 1.0076,0.45216 1.0076,1.00757 0,0.55642 -0.4522,1.00855 -1.0076,1.00855 -0.5564,0 -1.0076,-0.45213 -1.0076,-1.00855 0,-0.55541 0.4512,-1.00757 1.0076,-1.00757 z"
     fill="#000000"
     id="path2"
     style="fill:#a4a4a4" />
</svg>
