<?xml version="1.0" encoding="UTF-8" standalone="no"?>
<svg
   viewBox="0 0 94 94"
   x="0px"
   y="0px"
   version="1.1"
   id="svg8"
   sodipodi:docname="key-board.svg"
   width="94"
   height="94"
   inkscape:version="1.1.2 (0a00cf5339, 2022-02-04)"
   xmlns:inkscape="http://www.inkscape.org/namespaces/inkscape"
   xmlns:sodipodi="http://sodipodi.sourceforge.net/DTD/sodipodi-0.dtd"
   xmlns="http://www.w3.org/2000/svg"
   xmlns:svg="http://www.w3.org/2000/svg">
  <defs
     id="defs12" />
  <sodipodi:namedview
     id="namedview10"
     pagecolor="#ffffff"
     bordercolor="#666666"
     borderopacity="1.0"
     inkscape:pageshadow="2"
     inkscape:pageopacity="0.0"
     inkscape:pagecheckerboard="0"
     showgrid="false"
     fit-margin-top="0"
     fit-margin-left="0"
     fit-margin-right="0"
     fit-margin-bottom="0"
     inkscape:zoom="6.088"
     inkscape:cx="46.977661"
     inkscape:cy="59.543364"
     inkscape:window-width="1850"
     inkscape:window-height="1025"
     inkscape:window-x="1990"
     inkscape:window-y="27"
     inkscape:window-maximized="1"
     inkscape:current-layer="svg8" />
  <path
     d="m 13,0 3,4 V 16.999 L 90,17 94,19.999971 90,22.999941 77,22.999 v 5.001382 h 7 c 2.688755,0 4.881818,2.122307 4.99538,4.783111 L 89,33.000382 v 44 c 0,2.688755 -2.122307,4.881818 -4.78311,4.995381 L 84,82.000382 H 26 c -2.688755,0 -4.881818,-2.122306 -4.995381,-4.78311 L 21,77.000382 v -44 c 0,-2.688754 2.122307,-4.881818 4.78311,-4.99538 L 26,28.000382 h 7 V 22.999 H 16 V 94 H 10 V 22.999 L 0,22.999941 V 17 L 10,16.999 V 4 Z M 84,32.000382 H 26 c -0.512836,0 -0.935507,0.386041 -0.993272,0.883379 L 25,33.000382 v 44 c 0,0.512836 0.38604,0.935508 0.883379,0.993273 L 26,78.000382 h 58 c 0.512836,0 0.935507,-0.38604 0.993272,-0.883379 L 85,77.000382 v -44 c 0,-0.552284 -0.447715,-1 -1,-1 z M 66,43 c 6.627417,0 12,5.372583 12,12 0,6.627417 -5.372583,12 -12,12 -4.842526,0 -9.015104,-2.868392 -10.911372,-6.998816 L 52,60 49.5,58 47,60 H 44 L 41.5,58 39,60 H 36.833333 L 32,55 36.833333,50 55.088169,49.999816 C 56.984223,45.868855 61.157083,43 66,43 Z m 4,9 c -1.656854,0 -3,1.343146 -3,3 0,1.656854 1.343146,3 3,3 1.656854,0 3,-1.343146 3,-3 0,-1.656854 -1.343146,-3 -3,-3 z M 73,22.999 H 37 v 5.001382 h 36 z"
     fill-rule="evenodd"
     id="path2"
     style="fill:#484848" />
</svg>
