<?xml version="1.0" encoding="UTF-8" standalone="no"?>
<svg
   version="1.1"
   viewBox="-5 -10 97.136963 99.003998"
   id="svg8"
   sodipodi:docname="kitchen.svg"
   width="97.136963"
   height="99.003998"
   inkscape:version="1.2.2 (b0a8486541, 2022-12-01)"
   xmlns:inkscape="http://www.inkscape.org/namespaces/inkscape"
   xmlns:sodipodi="http://sodipodi.sourceforge.net/DTD/sodipodi-0.dtd"
   xmlns="http://www.w3.org/2000/svg"
   xmlns:svg="http://www.w3.org/2000/svg">
  <defs
     id="defs12" />
  <sodipodi:namedview
     id="namedview10"
     pagecolor="#ffffff"
     bordercolor="#000000"
     borderopacity="0.25"
     inkscape:showpageshadow="2"
     inkscape:pageopacity="0.0"
     inkscape:pagecheckerboard="0"
     inkscape:deskcolor="#d1d1d1"
     showgrid="false"
     inkscape:zoom="6.4222222"
     inkscape:cx="48.737024"
     inkscape:cy="57.223183"
     inkscape:window-width="1920"
     inkscape:window-height="1044"
     inkscape:window-x="3840"
     inkscape:window-y="0"
     inkscape:window-maximized="1"
     inkscape:current-layer="svg8" />
  <path
     d="m 58.5026,10.8628 h -2.043 c -1.4219,-0.0078 -1.4219,-2.168 0,-2.1758 h 2.043 c 1.4219,0.0039 1.4219,2.168 0,2.1758 z m -16.023,17.598 v -37.371 c 0,-0.60156 0.48828,-1.0898 1.0898,-1.0898 h 42.84 c 0.60156,0 1.0898,0.48828 1.0898,1.0898 l -0.0039,37.371 c 0,0.60156 -0.48828,1.0898 -1.0898,1.0898 l -42.836,-0.0039 c -0.60156,0 -1.0898,-0.48828 -1.0898,-1.0859 z m 23.598,-1.0898 h 19.242 V -7.824 h -19.242 z m -21.418,0 h 19.242 V -7.824 h -19.242 z m 47.477,9.7148 v 5.3906 c 0,0.60156 -0.48828,1.0898 -1.0898,1.0898 h -3.5547 v 44.348 c 0,0.60156 -0.48828,1.0898 -1.0898,1.0898 L 0.7343,89.0001 c -0.60156,0 -1.0898,-0.48828 -1.0898,-1.0898 V 43.5623 H -3.9102 C -4.51176,43.5623 -5,43.07402 -5,42.4725 v -5.3906 c 0,-0.60156 0.48828,-1.0898 1.0898,-1.0898 H 5.5273 V 34.496 L 4,31.9921 C 3.6875,31.48038 3.84766,30.8085 4.36328,30.496 4.875,30.1835 5.54298,30.34366 5.85938,30.85928 l 1.3672,2.2422 h 2.6836 v -1.7383 c 0,-0.60156 0.48828,-1.0898 1.0898,-1.0898 0.60156,0 1.0898,0.48828 1.0898,1.0898 v 1.7383 h 2.6484 l 1.4062,-2.3047 c 0.74219,-1.2109 2.5938,-0.08594 1.8555,1.1328 l -1.6406,2.6914 v 1.3711 h 9.6758 v -1.4961 l -1.5273,-2.5039 c -0.3125,-0.51172 -0.15234,-1.1836 0.36328,-1.4961 0.51172,-0.3125 1.1797,-0.15234 1.4961,0.36328 l 1.3672,2.2422 h 2.6836 v -1.7383 c 0,-0.60156 0.48828,-1.0898 1.0898,-1.0898 0.60152,0 1.0898,0.48828 1.0898,1.0898 v 1.7383 h 2.6484 l 1.4062,-2.3047 c 0.74609,-1.2109 2.5938,-0.08594 1.8555,1.1328 l -1.6406,2.6914 v 1.3711 l 54.184,0.0039 c 0.60156,0 1.0859,0.48828 1.0859,1.0898 z m -63.93,-1.0898 h 6.4766 v -0.71484 h -6.4766 z m -20.504,0 h 6.4766 V 35.28116 H 7.7026 Z m 34.777,7.5664 h -40.66 v 43.262 h 40.66 z m 42.84,22.719 h -40.66 v 20.543 h 40.664 z m 0,-22.719 h -40.66 v 20.543 h 40.664 z m 4.6406,-5.3906 h -92.781 v 3.2148 h 92.781 z m -84.875,44.301 v -24.004 c 0,-0.60156 0.48828,-1.0898 1.0898,-1.0898 h 31.957 c 0.60156,0 1.0898,0.48828 1.0898,1.0898 v 24.004 c 0,0.60156 -0.48828,1.0898 -1.0898,1.0898 H 6.171 c -0.60156,0 -1.0859,-0.48828 -1.0859,-1.0898 z M 7.261,81.3869 H 37.042 V 59.5549 H 7.261 Z m 7.9102,-29.84 v -2.3008 c 0,-1.3398 1.0898,-2.4336 2.4336,-2.4336 h 2.3008 c 1.3438,0 2.4336,1.0898 2.4336,2.4336 v 2.3008 c 0,1.3398 -1.0898,2.4336 -2.4336,2.4336 h -2.3008 c -1.3398,0 -2.4336,-1.0938 -2.4336,-2.4336 z m 2.1758,0 c 0,0.14062 0.11719,0.25781 0.25781,0.25781 h 2.3008 c 0.14062,0 0.25781,-0.11719 0.25781,-0.25781 v -2.3008 c 0,-0.14062 -0.11719,-0.25781 -0.25781,-0.25781 h -2.3008 c -0.14062,0 -0.25781,0.11719 -0.25781,0.25781 z M 73.718,8.6879 h -2.043 c -1.4219,0.0078 -1.4219,2.168 0,2.1758 h 2.043 c 1.4219,-0.0078 1.4219,-2.1719 0,-2.1758 z m -48.457,42.859 v -2.3008 c 0,-1.3398 1.0898,-2.4336 2.4336,-2.4336 h 2.3008 c 1.3438,0 2.4336,1.0898 2.4336,2.4336 v 2.3008 c 0,1.3398 -1.0898,2.4336 -2.4336,2.4336 h -2.3008 c -1.3438,0 -2.4336,-1.0938 -2.4336,-2.4336 z m 2.1758,0 c 0,0.14062 0.11719,0.25781 0.25781,0.25781 h 2.3008 c 0.14062,0 0.25781,-0.11719 0.25781,-0.25781 v -2.3008 c 0,-0.14062 -0.11719,-0.25781 -0.25781,-0.25781 h -2.3008 c -0.14062,0 -0.25781,0.11719 -0.25781,0.25781 z m 33.441,26.094 h 3.0234 v 1.2344 c 0,0.60156 0.48828,1.0898 1.0898,1.0898 0.60152,0 1.0898,-0.48828 1.0898,-1.0898 v -1.2344 h 3.2227 c 1.4219,-0.0039 1.4258,-2.168 0,-2.1758 h -8.4258 c -1.4219,0.0039 -1.4258,2.1719 0,2.1758 z M 8.0418,18.0279 v -4.3555 c 0.04297,-0.35547 0.19922,-0.70703 0.50781,-0.89844 l 9.043,-9.0078 v -11.621 c 0,-0.60156 0.48828,-1.0898 1.0898,-1.0898 h 6.9414 c 0.60156,0 1.0898,0.48828 1.0898,1.0898 v 11.617 l 9.043,9.0078 c 0.3125,0.1875 0.46484,0.54297 0.50781,0.89844 v 4.3555 c 0,0.60156 -0.48828,1.0898 -1.0898,1.0898 l -26.047,0.0039 c -0.60156,0 -1.0859,-0.48828 -1.0859,-1.0898 z m 11.727,-14.898 h 4.7656 v -9.8945 h -4.7656 z m -7.9453,9.4531 h 20.652 L 25.1708,5.3057 h -6.043 z M 10.218,16.9424 H 34.085 V 14.8213 H 10.218 Z m -5.1328,34.605 v -2.3008 c 0,-1.3398 1.0898,-2.4336 2.4336,-2.4336 h 2.3008 c 1.3438,0 2.4336,1.0898 2.4336,2.4336 v 2.3008 c 0,1.3398 -1.0898,2.4336 -2.4336,2.4336 H 7.5188 c -1.3438,0 -2.4336,-1.0938 -2.4336,-2.4336 z m 2.1758,0 c 0,0.14062 0.11719,0.25781 0.25781,0.25781 h 2.3008 c 0.14062,0 0.25781,-0.11719 0.25781,-0.25781 v -2.3008 c 0,-0.14062 -0.11719,-0.25781 -0.25781,-0.25781 h -2.3008 c -0.14062,0 -0.25781,0.11719 -0.25781,0.25781 z m 53.617,3.375 h 3.0234 v 1.2344 c 0,0.60156 0.48828,1.0898 1.0898,1.0898 0.60152,0 1.0898,-0.48828 1.0898,-1.0898 v -1.2344 h 3.2227 c 1.4219,-0.0039 1.4258,-2.168 0,-2.1758 h -8.4258 c -1.4219,0.0078 -1.4258,2.1719 0,2.1758 z"
     id="path2"
     style="fill:#555555" />
</svg>
