<?xml version="1.0" encoding="UTF-8" standalone="no"?>
<svg
   xml:space="preserve"
   version="1.1"
   style="image-rendering:optimizeQuality;shape-rendering:geometricPrecision;text-rendering:geometricPrecision"
   viewBox="0 0 881.72873 883.06252"
   x="0px"
   y="0px"
   fill-rule="evenodd"
   clip-rule="evenodd"
   id="svg14"
   sodipodi:docname="list-card-area.svg"
   width="881.72876"
   height="883.0625"
   inkscape:version="1.1.2 (0a00cf5339, 2022-02-04)"
   xmlns:inkscape="http://www.inkscape.org/namespaces/inkscape"
   xmlns:sodipodi="http://sodipodi.sourceforge.net/DTD/sodipodi-0.dtd"
   xmlns="http://www.w3.org/2000/svg"
   xmlns:svg="http://www.w3.org/2000/svg"><sodipodi:namedview
     id="namedview16"
     pagecolor="#ffffff"
     bordercolor="#666666"
     borderopacity="1.0"
     inkscape:pageshadow="2"
     inkscape:pageopacity="0.0"
     inkscape:pagecheckerboard="0"
     showgrid="false"
     fit-margin-top="0"
     fit-margin-left="0"
     fit-margin-right="0"
     fit-margin-bottom="0"
     inkscape:zoom="0.67436143"
     inkscape:cx="447.83107"
     inkscape:cy="429.29501"
     inkscape:window-width="1850"
     inkscape:window-height="1025"
     inkscape:window-x="1990"
     inkscape:window-y="27"
     inkscape:window-maximized="1"
     inkscape:current-layer="svg14" /><defs
     id="defs4"><style
       type="text/css"
       id="style2">
   
    .fil0 {fill:black;fill-rule:nonzero}
   
  </style></defs><g
     id="g8"
     transform="translate(-3.58,-16.8)"
     style="fill:#4a4a4a"><path
       class="fil0"
       d="m 212.89,843.82 v 54.8 h 190.89 v -54.8 z m 657.64,-30.04 -75.77,-75.9 C 780.99,724.4 761.6,720.22 744.31,725.29 l -37.24,-37.38 c 60.44,-76.25 55.42,-187.86 -15.01,-258.43 -75.86,-76.04 -199.48,-76.23 -275.55,-0.35 -76,75.9 -76.22,199.54 -0.35,275.56 70.42,70.55 182.04,75.85 258.49,15.57 l 36.58,36.77 c -6.32,18.33 -1.6,38.45 11.9,52.3 l 76.01,75.68 c 19.66,19.82 51.51,19.76 71.32,0.08 19.81,-19.64 19.76,-51.48 0.08,-71.31 z M 554.36,707.32 v 0 c -77.43,0 -140.2,-62.77 -140.2,-140.2 0,-77.44 62.77,-140.21 140.2,-140.21 77.44,0 140.21,62.77 140.21,140.21 0,77.44 -62.77,140.2 -140.21,140.2 z M 830.62,226.1 v 190.88 h 54.59 V 226.1 Z M 885.3,144.56 H 830.55 V 71.57 H 757.56 V 16.82 H 885.3 Z M 212.68,16.8 V 71.61 H 403.77 V 16.8 Z m 272.57,0 v 0 54.81 H 676.13 V 16.8 Z M 58.33,144.56 H 3.59 V 16.82 H 131.33 V 71.57 H 58.34 v 72.99 z M 3.59,226.1 V 416.98 H 58.4 V 226.1 Z m 0,272.36 v 0 190.89 H 58.4 V 498.46 Z M 131.32,898.53 H 3.58 V 770.8 h 54.74 v 72.99 h 72.99 v 54.74 z"
       id="path6"
       style="fill:#4a4a4a" /></g></svg>
