<?xml version="1.0" encoding="UTF-8" standalone="no"?>
<svg
   version="1.1"
   x="0px"
   y="0px"
   viewBox="0 0 61.998001 62"
   enable-background="new 0 0 64 64"
   xml:space="preserve"
   id="svg34"
   sodipodi:docname="list-showe-box.svg"
   width="61.998001"
   height="62"
   inkscape:version="1.1.2 (0a00cf5339, 2022-02-04)"
   xmlns:inkscape="http://www.inkscape.org/namespaces/inkscape"
   xmlns:sodipodi="http://sodipodi.sourceforge.net/DTD/sodipodi-0.dtd"
   xmlns="http://www.w3.org/2000/svg"
   xmlns:svg="http://www.w3.org/2000/svg"><defs
     id="defs38" /><sodipodi:namedview
     id="namedview36"
     pagecolor="#ffffff"
     bordercolor="#666666"
     borderopacity="1.0"
     inkscape:pageshadow="2"
     inkscape:pageopacity="0.0"
     inkscape:pagecheckerboard="0"
     showgrid="false"
     fit-margin-top="0"
     fit-margin-left="0"
     fit-margin-right="0"
     fit-margin-bottom="0"
     inkscape:zoom="9.5125"
     inkscape:cx="30.906702"
     inkscape:cy="30.538765"
     inkscape:window-width="1850"
     inkscape:window-height="1025"
     inkscape:window-x="1990"
     inkscape:window-y="27"
     inkscape:window-maximized="1"
     inkscape:current-layer="svg34" /><g
     id="g28"
     transform="translate(-1.001,-1)"
     style="fill:#4a4a4a"><g
       id="g26"
       style="fill:#4a4a4a"><path
         d="M 61.999,1 H 2.001 c -0.553,0 -1,0.448 -1,1 v 60 c 0,0.553 0.447,1 1,1 h 59.998 c 0.553,0 1,-0.447 1,-1 V 2 c 0,-0.552 -0.447,-1 -1,-1 z M 17.607,55.313 c 0.178,0.948 0.671,1.807 1.437,2.42 0.185,0.148 0.405,0.22 0.624,0.22 0.294,0 0.584,-0.128 0.781,-0.375 0.346,-0.431 0.276,-1.061 -0.155,-1.405 -0.489,-0.393 -0.771,-0.981 -0.771,-1.616 0.009,-1.771 1.456,-3.211 3.227,-3.211 0.896,0 1.758,0.378 2.364,1.036 0.189,0.205 0.455,0.322 0.734,0.322 h 0.001 c 0.278,0 0.545,-0.116 0.734,-0.321 0.676,-0.731 1.64,-1.106 2.647,-1.014 0.758,0.066 1.448,0.386 1.975,0.898 -0.605,0.935 -0.614,1.972 -0.614,2.373 0,0.553 0.447,1 1,1 0.553,0 1,-0.447 1,-1 0,-0.775 0.167,-1.259 0.534,-1.567 1.002,-0.744 2.348,-0.831 3.427,-0.262 V 61 H 9.504 c 0.064,-0.669 0.326,-1.308 0.781,-1.824 0.642,-0.728 1.566,-1.114 2.538,-1.091 0.465,0.029 0.842,-0.261 0.983,-0.68 0.289,-0.856 0.905,-1.533 1.735,-1.904 0.654,-0.293 1.382,-0.35 2.066,-0.188 z M 44.7,11.46 v 3.473 c 0,1.696 -1.378,3.075 -3.072,3.075 -1.696,0 -3.076,-1.379 -3.076,-3.075 V 11.46 Z m -6.148,7.482 c 0.856,0.659 1.915,1.066 3.076,1.066 1.156,0 2.218,-0.396 3.072,-1.051 V 61 h -6.148 z m 8.148,0 c 0.856,0.658 1.914,1.065 3.075,1.065 1.159,0 2.221,-0.4 3.076,-1.057 V 61 H 46.7 Z m 6.152,-4.009 c 0,1.696 -1.38,3.075 -3.076,3.075 -1.695,0 -3.075,-1.379 -3.075,-3.075 V 11.46 h 6.151 z m 2,-3.473 h 6.147 v 3.473 c 0,1.696 -1.38,3.075 -3.075,3.075 -1.694,0 -3.072,-1.379 -3.072,-3.075 z M 60.999,3 V 9.46 H 3.001 V 3 Z M 3.001,16.479 H 3.89 c 1.915,0 4.046,0.272 5.716,2.097 -2.14,1.388 -3.146,4.105 -2.269,6.615 l 0.845,2.412 c 0.087,0.25 0.271,0.456 0.51,0.57 0.137,0.066 0.285,0.099 0.434,0.099 0.111,0 0.224,-0.019 0.33,-0.056 l 8.795,-3.08 c 0.521,-0.183 0.796,-0.753 0.613,-1.274 L 18.02,21.45 c -0.793,-2.265 -2.945,-3.787 -5.354,-3.787 -0.375,0 -0.745,0.049 -1.111,0.123 C 9.31,14.872 6.304,14.479 3.891,14.479 h -0.89 v -3.02 h 33.551 v 39.207 c -1.253,-0.374 -2.622,-0.276 -3.812,0.306 -0.868,-0.915 -2.042,-1.484 -3.336,-1.597 -1.292,-0.109 -2.544,0.244 -3.556,0.99 -0.891,-0.657 -1.979,-1.021 -3.1,-1.021 -2.433,0 -4.487,1.678 -5.065,3.937 -0.99,-0.155 -2.025,-0.025 -2.959,0.395 -1.106,0.495 -2.004,1.362 -2.539,2.433 -1.308,0.13 -2.52,0.745 -3.401,1.745 C 8.003,58.74 7.554,59.846 7.486,61 H 3.001 Z m 8.467,3.388 c 0.387,-0.135 0.79,-0.204 1.197,-0.204 1.561,0 2.954,0.983 3.467,2.448 L 16.646,23.579 9.739,25.998 9.225,24.53 C 8.56,22.627 9.566,20.535 11.468,19.867 Z M 54.852,61 V 18.943 c 0.855,0.658 1.912,1.065 3.072,1.065 1.157,0 2.221,-0.396 3.075,-1.051 V 61 Z"
         id="path2"
         style="fill:#4a4a4a" /><path
         d="m 18.43,29.64 c -0.18,0.18 -0.29,0.44 -0.29,0.71 0,0.26 0.11,0.52 0.29,0.7 0.19,0.19 0.45,0.3 0.71,0.3 0.26,0 0.521,-0.11 0.71,-0.3 0.19,-0.19 0.29,-0.44 0.29,-0.7 0,-0.27 -0.1,-0.53 -0.29,-0.71 -0.371,-0.37 -1.04,-0.37 -1.42,0 z"
         id="path4"
         style="fill:#4a4a4a" /><path
         d="m 14.87,30.89 c -0.19,0.19 -0.29,0.44 -0.29,0.71 0,0.26 0.1,0.51 0.29,0.7 0.18,0.19 0.439,0.3 0.71,0.3 0.26,0 0.52,-0.11 0.71,-0.3 0.18,-0.19 0.29,-0.45 0.29,-0.7 0,-0.27 -0.11,-0.52 -0.3,-0.71 -0.37,-0.37 -1.03,-0.38 -1.41,0 z"
         id="path6"
         style="fill:#4a4a4a" /><path
         d="m 18.2,28.67 c 0.26,0 0.52,-0.11 0.71,-0.29 0.189,-0.19 0.29,-0.45 0.29,-0.71 0,-0.26 -0.101,-0.52 -0.29,-0.71 -0.37,-0.37 -1.04,-0.37 -1.41,0 -0.19,0.19 -0.3,0.45 -0.3,0.71 0,0.26 0.109,0.52 0.3,0.71 0.189,0.18 0.439,0.29 0.7,0.29 z"
         id="path8"
         style="fill:#4a4a4a" /><path
         d="m 14.64,29.92 c 0.26,0 0.521,-0.11 0.71,-0.29 0.181,-0.19 0.29,-0.45 0.29,-0.71 0,-0.26 -0.109,-0.52 -0.29,-0.71 -0.38,-0.37 -1.05,-0.37 -1.42,0 -0.18,0.19 -0.29,0.44 -0.29,0.71 0,0.26 0.11,0.52 0.29,0.71 0.19,0.18 0.45,0.29 0.71,0.29 z"
         id="path10"
         style="fill:#4a4a4a" /><path
         d="m 19.37,32.31 c -0.181,0.19 -0.29,0.45 -0.29,0.709 0,0.261 0.109,0.521 0.29,0.71 0.189,0.181 0.439,0.29 0.71,0.29 0.26,0 0.52,-0.109 0.71,-0.29 0.18,-0.189 0.29,-0.449 0.29,-0.71 0,-0.26 -0.11,-0.52 -0.29,-0.709 -0.38,-0.37 -1.05,-0.37 -1.42,0 z"
         id="path12"
         style="fill:#4a4a4a" /><path
         d="m 17.22,34.97 c 0.18,-0.18 0.29,-0.439 0.29,-0.7 0,-0.27 -0.11,-0.52 -0.29,-0.71 -0.38,-0.37 -1.05,-0.37 -1.42,0 -0.18,0.181 -0.29,0.44 -0.29,0.71 0,0.261 0.11,0.521 0.29,0.7 0.19,0.19 0.45,0.3 0.71,0.3 0.26,0 0.52,-0.11 0.71,-0.3 z"
         id="path14"
         style="fill:#4a4a4a" /><path
         d="m 11.28,32.14 c -0.181,0.19 -0.29,0.45 -0.29,0.71 0,0.26 0.109,0.521 0.29,0.71 0.189,0.181 0.439,0.29 0.71,0.29 0.26,0 0.52,-0.109 0.71,-0.29 0.18,-0.189 0.29,-0.45 0.29,-0.71 0,-0.26 -0.11,-0.52 -0.29,-0.71 -0.381,-0.37 -1.051,-0.37 -1.42,0 z"
         id="path16"
         style="fill:#4a4a4a" /><path
         d="m 11.05,31.18 c 0.26,0 0.52,-0.11 0.71,-0.3 0.19,-0.18 0.29,-0.44 0.29,-0.7 0,-0.27 -0.1,-0.53 -0.29,-0.71 -0.38,-0.38 -1.05,-0.37 -1.42,0 -0.18,0.18 -0.29,0.44 -0.29,0.71 0,0.26 0.11,0.52 0.3,0.7 0.18,0.19 0.44,0.3 0.7,0.3 z"
         id="path18"
         style="fill:#4a4a4a" /><path
         d="m 12.22,34.81 c -0.189,0.19 -0.29,0.45 -0.29,0.71 0,0.271 0.101,0.53 0.29,0.71 0.18,0.19 0.44,0.29 0.71,0.29 0.26,0 0.521,-0.1 0.71,-0.29 0.18,-0.189 0.29,-0.439 0.29,-0.71 0,-0.26 -0.11,-0.52 -0.3,-0.71 -0.37,-0.371 -1.04,-0.36 -1.41,0 z"
         id="path20"
         style="fill:#4a4a4a" /><path
         d="m 28.953,44.326 c 1.844,0 3.344,-1.502 3.344,-3.348 0,-1.845 -1.5,-3.345 -3.344,-3.345 -1.846,0 -3.348,1.5 -3.348,3.345 0,1.846 1.502,3.348 3.348,3.348 z m 0,-4.692 c 0.741,0 1.344,0.604 1.344,1.345 0,0.743 -0.603,1.348 -1.344,1.348 -0.743,0 -1.348,-0.604 -1.348,-1.348 0,-0.742 0.605,-1.345 1.348,-1.345 z"
         id="path22"
         style="fill:#4a4a4a" /><path
         d="m 18.215,41.942 c -1.665,0 -3.02,1.354 -3.02,3.02 0,1.664 1.354,3.019 3.02,3.019 1.664,0 3.019,-1.354 3.019,-3.019 -0.001,-1.665 -1.355,-3.02 -3.019,-3.02 z m 0,4.038 c -0.563,0 -1.02,-0.457 -1.02,-1.019 0,-0.563 0.457,-1.02 1.02,-1.02 0.562,0 1.019,0.457 1.019,1.02 -0.001,0.562 -0.458,1.019 -1.019,1.019 z"
         id="path24"
         style="fill:#4a4a4a" /></g></g></svg>
