<?xml version="1.0" encoding="UTF-8" standalone="no"?>
<svg
   viewBox="0 0 60 52.028362"
   x="0px"
   y="0px"
   version="1.1"
   id="svg22"
   sodipodi:docname="list-bath-card.svg"
   width="60"
   height="52.028362"
   inkscape:version="1.1.2 (0a00cf5339, 2022-02-04)"
   xmlns:inkscape="http://www.inkscape.org/namespaces/inkscape"
   xmlns:sodipodi="http://sodipodi.sourceforge.net/DTD/sodipodi-0.dtd"
   xmlns="http://www.w3.org/2000/svg"
   xmlns:svg="http://www.w3.org/2000/svg"
   xmlns:rdf="http://www.w3.org/1999/02/22-rdf-syntax-ns#"
   xmlns:cc="http://creativecommons.org/ns#"
   xmlns:dc="http://purl.org/dc/elements/1.1/">
  <defs
     id="defs26" />
  <sodipodi:namedview
     id="namedview24"
     pagecolor="#ffffff"
     bordercolor="#666666"
     borderopacity="1.0"
     inkscape:pageshadow="2"
     inkscape:pageopacity="0.0"
     inkscape:pagecheckerboard="0"
     showgrid="false"
     fit-margin-top="0"
     fit-margin-left="0"
     fit-margin-right="0"
     fit-margin-bottom="0"
     inkscape:zoom="10.146667"
     inkscape:cx="29.960578"
     inkscape:cy="21.583443"
     inkscape:window-width="1920"
     inkscape:window-height="1052"
     inkscape:window-x="3840"
     inkscape:window-y="0"
     inkscape:window-maximized="1"
     inkscape:current-layer="svg22" />
  <title
     id="title2">Bathroom Objects - Outline - 072 - Bath tuib with duck</title>
  <g
     data-name="01-Toilet Front"
     id="g16"
     transform="translate(0,-7.9955965)"
     style="fill:#4e4e4e">
    <path
       d="m 57,30 c 1,-4.81 0.23,-9.15 -2.24,-12.23 A 9.94,9.94 0 0 0 47,14 a 13,13 0 0 0 -6.13,1.5 1,1 0 0 0 -0.27,-0.3 6.9,6.9 0 0 0 -7.27,-0.62 7.84,7.84 0 0 0 -4.23,6 6.92,6.92 0 0 0 -5.82,0.77 7.37,7.37 0 0 0 -1.23,-2 A 6.54,6.54 0 0 1 26,18 v 0 a 1,1 0 0 0 0.41,-0.1 v 0 a 0.94,0.94 0 0 0 0.11,-0.09 1,1 0 0 0 0.17,-0.13 2.41,2.41 0 0 0 0.2,-0.32 1,1 0 0 0 0,-0.21 A 0.94,0.94 0 0 0 27,17 c 0,0 0,0 0,0 a 3.05,3.05 0 0 0 -0.09,-0.39 v 0 a 3.86,3.86 0 0 1 0,-3.11 A 1,1 0 0 0 26.46,12.16 1,1 0 0 0 26,12 v 0 A 11.14,11.14 0 0 1 22,11.34 5.23,5.23 0 0 0 21.7,10.75 6.46,6.46 0 0 0 16.17,8 c -3.32,0 -5.56,0.91 -6.68,2.71 -1.12,1.8 -1,4.22 0.28,7 a 6.62,6.62 0 0 1 -3.78,0.5 C 6,16.4 5.63,14 3,14 1.63,14 0,14.65 0,17.72 0,24.1 2.56,27.93 5.33,30 H 3 a 3,3 0 0 0 0,6 v 0 c 0.27,7.28 3.39,15 8.06,17.29 A 4,4 0 1 0 17.43,54 H 42.56 A 4,4 0 0 0 42,56 4,4 0 1 0 48.92,53.29 C 53.59,51 56.71,43.28 57,36 v 0 a 3,3 0 0 0 0,-6 z M 29.55,22.89 A 1,1 0 0 0 31,22 a 6.07,6.07 0 0 1 3.22,-5.63 4.85,4.85 0 0 1 4.9,0.25 9,9 0 0 0 -3.07,4.06 1.0008621,1.0008621 0 0 0 1.9,0.63 C 38.82,18.7 42.44,16 47,16 a 7.85,7.85 0 0 1 6.22,3 C 55.34,21.66 56,25.49 55,29.78 A 1,1 0 0 0 55,30 H 22.14 A 7.11,7.11 0 0 0 24,24.93 9.57,9.57 0 0 0 23.88,23.51 C 25.06,22 27.73,22 29.55,22.89 Z M 24.67,14 a 5.79,5.79 0 0 0 0,2.17 8.7,8.7 0 0 0 -2.8,1 10.09,10.09 0 0 0 0.61,-3.53 12.84,12.84 0 0 0 2.19,0.36 z M 2,17.72 C 2,16.25 2.31,16 3,16 c 0.69,0 1,0.45 1,3 v 0.68 l 0.63,0.25 c 2.12,0.85 6.07,0.33 7.2,-1.37 l 0.32,-0.48 -0.26,-0.52 c -1.21,-2.43 -1.47,-4.54 -0.7,-5.79 0.77,-1.25 2.4,-1.77 5,-1.77 A 4.53,4.53 0 0 1 20,11.8 c 0.91,1.47 0.6,3.8 -0.87,6.76 l -0.45,0.89 0.89,0.45 c 1.18,0.59 2.45,2.42 2.45,5 C 22,29.51 18.46,30 16.93,30 H 10.48 C 7.83,30 2,26.91 2,17.72 Z M 16,56 a 2,2 0 1 1 -2,-2 2,2 0 0 1 2,2 z m 32,0 a 2,2 0 1 1 -2,-2 2,2 0 0 1 2,2 z M 46,52 H 14 C 9.55,52 5.35,44.36 5,36 h 50 c -0.35,8.36 -4.55,16 -9,16 z M 57,34 H 3 a 1,1 0 0 1 0,-2 h 54 a 1,1 0 0 1 0,2 z"
       id="path4"
       style="fill:#4e4e4e" />
    <path
       d="m 44.2,21.17 a 5.14,5.14 0 0 1 4.36,0.72 4.27,4.27 0 0 1 1.44,3.3 1,1 0 1 0 2,0 6.28,6.28 0 0 0 -2.18,-4.85 c -1,-0.86 -2.94,-1.75 -6,-1.13 a 1.0188351,1.0188351 0 1 0 0.39,2 z"
       id="path6"
       style="fill:#4e4e4e" />
    <path
       d="m 39,29 a 1,1 0 0 0 1,-1 2.82,2.82 0 0 1 1.43,-1.75 2.3,2.3 0 0 1 2.12,-0.36 1,1 0 1 0 0.89,-1.79 4.17,4.17 0 0 0 -4.07,0.45 c -1.1,0.68 -2.38,2 -2.38,3.45 A 1,1 0 0 0 39,29 Z"
       id="path8"
       style="fill:#4e4e4e" />
    <path
       d="m 27.71,26.71 a 1.28,1.28 0 0 1 1.26,0.16 c 0.26,0.19 0.3,0.36 0.14,0.68 a 1,1 0 0 0 1.79,0.89 2.41,2.41 0 0 0 -0.76,-3.2 3.14,3.14 0 0 0 -3.84,0 1,1 0 0 0 1.41,1.41 z"
       id="path10"
       style="fill:#4e4e4e" />
    <path
       d="m 19,27 a 1,1 0 0 0 -1,-1 h -8 a 1,1 0 0 1 0,-2 h 8 a 1,1 0 0 0 0,-2 h -8 a 3,3 0 0 0 0,6 h 8 a 1,1 0 0 0 1,-1 z"
       id="path12"
       style="fill:#4e4e4e" />
    <path
       d="m 16.29,13.71 a 1.15,1.15 0 0 0 0.33,0.21 0.94,0.94 0 0 0 0.76,0 1.15,1.15 0 0 0 0.33,-0.21 1.17,1.17 0 0 0 0.21,-0.33 0.94,0.94 0 0 0 0,-0.76 1,1 0 0 0 -0.21,-0.33 1,1 0 0 0 -1.09,-0.21 0.9,0.9 0 0 0 -0.54,0.54 0.95,0.95 0 0 0 0,0.76 1.16,1.16 0 0 0 0.21,0.33 z"
       id="path14"
       style="fill:#4e4e4e" />
  </g>
  <metadata
     id="metadata28">
    <rdf:RDF>
      <cc:Work
         rdf:about="">
        <dc:title>Bathroom Objects - Outline - 072 - Bath tuib with duck</dc:title>
      </cc:Work>
    </rdf:RDF>
  </metadata>
</svg>
