<?xml version="1.0" encoding="UTF-8" standalone="no"?>
<svg
   version="1.1"
   x="0px"
   y="0px"
   viewBox="0 0 86.82 100"
   xml:space="preserve"
   id="svg837"
   sodipodi:docname="noun-shop-6301898.svg"
   width="86.82"
   height="100"
   xmlns:inkscape="http://www.inkscape.org/namespaces/inkscape"
   xmlns:sodipodi="http://sodipodi.sourceforge.net/DTD/sodipodi-0.dtd"
   xmlns="http://www.w3.org/2000/svg"
   xmlns:svg="http://www.w3.org/2000/svg"><defs
     id="defs841" /><sodipodi:namedview
     id="namedview839"
     pagecolor="#ffffff"
     bordercolor="#000000"
     borderopacity="0.25"
     inkscape:showpageshadow="2"
     inkscape:pageopacity="0.0"
     inkscape:pagecheckerboard="0"
     inkscape:deskcolor="#d1d1d1"
     showgrid="false" /><g
     id="g831"
     transform="translate(-6.59)"
     style="fill:#6a6a6a"><path
       d="M 93.28,28.92 84.24,7.56 V 1.6 C 84.24,0.72 83.52,0 82.64,0 H 17.36 c -0.88,0 -1.6,0.72 -1.6,1.6 V 7.56 L 6.72,28.92 c -0.08,0.19 -0.13,0.4 -0.13,0.63 v 11.26 c 0,0.88 0.72,1.6 1.6,1.6 h 7.57 v 46.77 h -4.61 c -0.88,0 -1.6,0.72 -1.6,1.6 v 7.62 c 0,0.88 0.72,1.6 1.6,1.6 h 77.7 c 0.88,0 1.6,-0.72 1.6,-1.6 v -7.62 c 0,-0.88 -0.72,-1.6 -1.6,-1.6 H 84.24 V 42.41 h 7.57 c 0.88,0 1.6,-0.72 1.6,-1.6 V 29.55 c 0,-0.23 -0.05,-0.44 -0.13,-0.63 z M 81.04,84.74 H 46.4 V 46.38 H 81.03 V 84.74 Z M 25.17,39.21 v -8.06 h 15.21 v 8.06 z M 18.42,9.48 h 8.86 L 22.34,27.94 H 10.61 Z M 59.49,27.94 57.99,9.48 H 69.4 l 4.94,18.46 z m -3.21,0 H 43.72 l 1.5,-18.46 h 9.56 z m -15.77,0 H 25.66 L 30.6,9.48 h 11.41 z m 3.08,11.27 v -8.06 h 12.83 v 8.06 z m 16.03,-8.06 h 15.21 v 8.06 H 59.62 Z M 77.66,27.94 72.72,9.48 h 8.86 L 89.4,27.94 Z M 18.96,3.2 H 81.03 V 6.28 H 70.63 56.26 43.74 29.37 18.96 Z M 9.79,31.15 h 12.18 v 8.06 H 17.36 9.79 Z m 9.17,11.26 h 4.61 18.41 1.21 V 89.18 H 18.96 Z M 87.25,96.8 h -74.5 v -4.42 h 4.61 65.28 4.61 z M 46.4,89.18 v -1.24 h 34.63 v 1.24 z m 34.64,-46 H 46.4 v -0.77 h 11.61 18.41 4.61 v 0.77 z m 1.6,-3.97 h -4.61 v -8.06 h 12.18 v 8.06 z"
       id="path823"
       style="fill:#6a6a6a" /><path
       d="m 40.32,60.66 c -0.88,0 -1.6,0.72 -1.6,1.6 v 7.08 c 0,0.88 0.72,1.6 1.6,1.6 0.88,0 1.6,-0.72 1.6,-1.6 v -7.08 c 0.01,-0.89 -0.71,-1.6 -1.6,-1.6 z"
       id="path825"
       style="fill:#6a6a6a" /><path
       d="m 51.67,58.84 c 0.41,0 0.82,-0.16 1.13,-0.47 l 5,-5 c 0.63,-0.63 0.63,-1.64 0,-2.26 -0.63,-0.62 -1.64,-0.63 -2.26,0 l -5,5 c -0.63,0.63 -0.63,1.64 0,2.26 0.31,0.32 0.72,0.47 1.13,0.47 z"
       id="path827"
       style="fill:#6a6a6a" /><path
       d="m 49.84,65.74 c 0.31,0.31 0.72,0.47 1.13,0.47 0.41,0 0.82,-0.16 1.13,-0.47 L 65.17,52.67 c 0.63,-0.63 0.63,-1.64 0,-2.26 -0.63,-0.63 -1.64,-0.63 -2.26,0 L 49.84,63.48 c -0.63,0.62 -0.63,1.64 0,2.26 z"
       id="path829"
       style="fill:#6a6a6a" /></g></svg>
