<?xml version="1.0" encoding="UTF-8" standalone="no"?>
<svg
   data-name="Layer 3"
   viewBox="0 0 504.00082 485.14099"
   x="0px"
   y="0px"
   version="1.1"
   id="svg22"
   sodipodi:docname="lockers3.svg"
   width="504.00082"
   height="485.14099"
   inkscape:version="1.1.2 (0a00cf5339, 2022-02-04)"
   xmlns:inkscape="http://www.inkscape.org/namespaces/inkscape"
   xmlns:sodipodi="http://sodipodi.sourceforge.net/DTD/sodipodi-0.dtd"
   xmlns="http://www.w3.org/2000/svg"
   xmlns:svg="http://www.w3.org/2000/svg">
  <defs
     id="defs26" />
  <sodipodi:namedview
     id="namedview24"
     pagecolor="#ffffff"
     bordercolor="#666666"
     borderopacity="1.0"
     inkscape:pageshadow="2"
     inkscape:pageopacity="0.0"
     inkscape:pagecheckerboard="0"
     showgrid="false"
     fit-margin-top="0"
     fit-margin-left="0"
     fit-margin-right="0"
     fit-margin-bottom="0"
     inkscape:zoom="1.1890625"
     inkscape:cx="251.45861"
     inkscape:cy="196.37319"
     inkscape:window-width="1850"
     inkscape:window-height="1025"
     inkscape:window-x="1990"
     inkscape:window-y="27"
     inkscape:window-maximized="1"
     inkscape:current-layer="svg22" />
  <path
     d="m 170.00082,92.881 h 36.675 c 3.313,0 6,-2.687 6,-6 0,-3.313 -2.687,-6 -6,-6 h -36.675 c -3.313,0 -6,2.687 -6,6 0,3.313 2.687,6 6,6 z"
     id="path2"
     style="fill:#5e5e5e" />
  <path
     d="m 170.00082,120.386 h 36.675 c 3.313,0 6,-2.687 6,-6 0,-3.313 -2.687,-6 -6,-6 h -36.675 c -3.313,0 -6,2.687 -6,6 0,3.313 2.687,6 6,6 z"
     id="path4"
     style="fill:#5e5e5e" />
  <path
     d="m 170.00082,353.4 h 36.675 c 3.313,0 6,-2.687 6,-6 0,-3.313 -2.687,-6 -6,-6 h -36.675 c -3.313,0 -6,2.687 -6,6 0,3.313 2.687,6 6,6 z"
     id="path6"
     style="fill:#5e5e5e" />
  <path
     d="m 170.00082,380.906 h 36.675 c 3.313,0 6,-2.687 6,-6 0,-3.313 -2.687,-6 -6,-6 h -36.675 c -3.313,0 -6,2.687 -6,6 0,3.313 2.687,6 6,6 z"
     id="path8"
     style="fill:#5e5e5e" />
  <path
     d="m 383.35382,432.647 h 25.865 c 2.458,0.004 58.311,-15.694 60.515,-16.042 2.621,-0.704 4.443,-3.081 4.443,-5.795 V 47.705 c 0,-2.714 -1.822,-5.09 -4.443,-5.794 -2.203,-0.354 -58.208,-16.081 -60.515,-16.034 v -0.008 h -25.865 c -3.313,0 -6,2.687 -6,6 v 9.836 h -40.958 c -9.925,0 -18,8.075 -18,18 V 398.81 c 0,9.925 8.075,18 18,18 h 40.958 v 9.837 c 0,3.313 2.687,6 6,6 z m 31.865,-392.954 46.958,12.613 V 406.21 l -46.958,12.613 z m -84.823,182.632 h 46.958 v 13.865 h -46.958 z m 18.22,-13.875 -16.345,-38.249 10.243,-4.377 16.345,38.249 z m -18.22,66.136 h 13.562 v 37.677 h -13.562 z m 19.562,-12 h -19.562 V 248.19 h 46.958 v 64.073 h -21.396 v -43.677 c 0,-3.313 -2.687,-6 -6,-6 z m 27.396,-128.334 h -46.958 v -13.866 h 46.958 z m 0,12 v 64.073 h -5.485 c 0.959,-1.595 1.17,-3.609 0.383,-5.451 l -21.061,-49.283 c -1.303,-3.047 -4.827,-4.459 -7.875,-3.16 l -12.92,5.521 v -11.701 h 46.958 z m -40.987,64.073 h -5.971 v -13.974 z m -5.971,113.938 h 46.958 v 13.866 h -46.958 z m 58.958,-286.394 h 13.865 v 382.778 h -13.865 z m -52.958,15.836 h 40.958 v 54.681 h -46.958 V 59.705 c 0,-3.309 2.691,-6 6,-6 z m 0,351.105 c -3.309,0 -6,-2.691 -6,-6 v -48.681 h 46.958 v 54.681 z"
     id="path10"
     style="fill:#5e5e5e" />
  <path
     d="m 81.662823,249.747 c -14.799,0 -26.838,12.039 -26.838,26.838 0,7.291 2.903,14.118 8.057,19.148 v 12.013 c 0,10.356 8.425,18.781 18.781,18.781 10.356,0 18.779997,-8.425 18.779997,-18.781 v -12.012 c 5.154,-5.031 8.058,-11.857 8.058,-19.149 0,-14.799 -12.038997,-26.838 -26.837997,-26.838 z m 9.089,38.542 c -1.497,1.165 -2.355,2.97 -2.314,4.866 l 0.006,0.158 v 14.433 c 0,3.739 -3.042,6.781 -6.78,6.781 -3.738,0 -6.781,-3.042 -6.781,-6.781 v -14.441 c 0.004,-0.1 0.007,-0.2 0.007,-0.281 0,-1.851 -0.854,-3.599 -2.315,-4.735 -3.653,-2.843 -5.748,-7.108 -5.748,-11.703 0,-8.182 6.656,-14.838 14.838,-14.838 8.182,0 14.838,6.656 14.838,14.838 0,4.595 -2.096,8.861 -5.749,11.704 z"
     id="path12"
     style="fill:#5e5e5e" />
  <circle
     cx="497.99881"
     cy="70.759003"
     r="6"
     id="circle14"
     style="fill:#5e5e5e" />
  <path
     d="m 485.87582,0 h -179.178 c -4.664,0 -8.908,1.786 -12.123,4.691 C 291.35982,1.786 287.11582,0 282.45182,0 h -179.178 C 93.280823,0 85.150823,8.13 85.150823,18.124 v 107.951 c -1.293,-0.079 -2.592,-0.132 -3.904,-0.132 -34.945,0 -63.375,28.43 -63.375,63.374 v 27.805 c -4.884,0.24 -9.5350003,2.37 -12.8710003,5.972 -3.543,3.826 -5.34600003,9.001 -4.94600003,14.201 L 8.0928227,341.857 c 0.747,9.725 8.9720003,17.342 18.7250003,17.342 h 58.334 l 0.057,107.819 c 0,9.993 8.13,18.123 18.122997,18.123 h 31.136 c 9.993,0 18.123,-8.13 18.123,-18.123 v -8.503 h 80.603 v 8.503 c 0,9.993 8.131,18.123 18.124,18.123 h 31.136 c 4.664,0 8.908,-1.786 12.123,-4.69 3.215,2.905 7.459,4.69 12.123,4.69 h 31.136 c 9.993,0 18.124,-8.13 18.124,-18.123 v -8.503 h 80.658 v 8.503 c 0,9.993 8.131,18.123 18.124,18.123 h 31.136 c 9.993,0 18.123,-8.13 18.123,-18.123 V 94.759 c 0,-3.313 -2.687,-6 -6,-6 -3.313,0 -6,2.687 -6,6 v 351.756 h -191.424 V 18.124 c 0,-3.376 2.747,-6.124 6.123,-6.124 h 179.178 c 3.376,0 6.123,2.747 6.123,6.124 v 28.635 c 0,3.313 2.687,6 6,6 3.313,0 6,-2.687 6,-6 V 18.124 c 0,-9.993 -8.13,-18.124 -18.123,-18.124 z M 81.246823,137.943 c 28.326997,0 51.372997,23.046 51.372997,51.374 v 27.757 h -13.562 v -27.757 c 0,-2.606 -0.265,-5.152 -0.77,-7.611 -3.532,-17.215 -18.798997,-30.202 -37.041997,-30.202 -18.243,0 -33.512,12.987 -37.044,30.202 -0.504,2.459 -0.77,5.005 -0.77,7.611 v 27.757 h -13.562 v -27.757 c 0,-28.328 23.047,-51.374 51.375,-51.374 z m 45.725997,221.256 h 9.536 c 9.753,0 17.978,-7.617 18.725,-17.342 l 8.038,-104.563 c 0.399,-5.199 -1.403,-10.375 -4.946,-14.2 -3.526,-3.807 -8.518,-5.995 -13.705,-6.016 v -27.761 c 0,-16.986 -6.73,-32.42 -17.647,-43.811 V 59.705 c 0,-3.309 2.691,-6 6,-6 h 119.781 c 3.309,0 6,2.691 6,6 V 398.81 c 0,3.309 -2.691,6 -6,6 h -119.781 c -3.309,0 -6,-2.691 -6,-6 V 359.199 Z M 55.433823,189.317 c 0,-14.233 11.58,-25.812 25.813,-25.812 1.327,0 2.631,0.101 3.904,0.295 v 53.274 h -29.718 v -27.757 z m 41.718,-20.308 c 6.024997,4.729 9.906997,12.072 9.906997,20.308 v 27.757 h -9.906997 z m -77.094,171.928 -8.038,-104.562 c -0.146,-1.905 0.488,-3.726 1.786,-5.127 1.298,-1.401 3.064,-2.173 4.975,-2.173 H 144.54682 c 1.91,0 3.677,0.772 4.975,2.173 1.298,1.401 1.933,3.223 1.786,5.127 l -8.038,104.562 c -0.27,3.512 -3.239,6.262 -6.76,6.262 H 26.816823 c -3.521,0 -6.49,-2.75 -6.76,-6.262 z m 94.914997,18.262 v 39.611 c 0,9.925 8.075,18 18,18 h 119.781 c 9.925,0 18,-8.075 18,-18 V 59.705 c 0,-9.925 -8.075,-18 -18,-18 h -119.781 c -9.925,0 -18,8.075 -18,18 v 75.996 c -5.443,-3.436 -11.434,-6.078 -17.820997,-7.735 V 18.124 c 0,-3.376 2.747,-6.124 6.122997,-6.124 h 179.178 c 3.376,0 6.123,2.747 6.123,6.124 V 446.515 H 97.150823 v -87.316 h 17.820997 z m 25.617,107.819 c 0,3.376 -2.747,6.123 -6.123,6.123 h -31.136 c -3.375997,0 -6.122997,-2.747 -6.122997,-6.123 v -8.503 h 43.381997 z m 141.862,6.123 h -31.136 c -3.377,0 -6.124,-2.747 -6.124,-6.123 v -8.503 h 43.383 v 8.503 c 0,3.376 -2.747,6.123 -6.123,6.123 z m 203.424,0 h -31.136 c -3.377,0 -6.124,-2.747 -6.124,-6.123 v -8.503 h 43.383 v 8.503 c 0,3.376 -2.747,6.123 -6.123,6.123 z m -141.918,-14.626 v 8.503 c 0,3.376 -2.747,6.123 -6.124,6.123 h -31.136 c -3.376,0 -6.123,-2.747 -6.123,-6.123 v -8.503 z"
     id="path16"
     style="fill:#5e5e5e" />
</svg>
