<?xml version="1.0" encoding="UTF-8" standalone="no"?>
<svg
   version="1.1"
   x="0px"
   y="0px"
   viewBox="0 0 61.299999 79.949997"
   xml:space="preserve"
   id="svg8"
   sodipodi:docname="locker.svg"
   width="61.299999"
   height="79.949997"
   inkscape:version="1.1.2 (0a00cf5339, 2022-02-04)"
   xmlns:inkscape="http://www.inkscape.org/namespaces/inkscape"
   xmlns:sodipodi="http://sodipodi.sourceforge.net/DTD/sodipodi-0.dtd"
   xmlns="http://www.w3.org/2000/svg"
   xmlns:svg="http://www.w3.org/2000/svg"><defs
     id="defs12" /><sodipodi:namedview
     id="namedview10"
     pagecolor="#ffffff"
     bordercolor="#666666"
     borderopacity="1.0"
     inkscape:pageshadow="2"
     inkscape:pageopacity="0.0"
     inkscape:pagecheckerboard="0"
     showgrid="false"
     fit-margin-top="0"
     fit-margin-left="0"
     fit-margin-right="0"
     fit-margin-bottom="0"
     inkscape:zoom="6.088"
     inkscape:cx="30.716163"
     inkscape:cy="52.480289"
     inkscape:window-width="1850"
     inkscape:window-height="1025"
     inkscape:window-x="1990"
     inkscape:window-y="27"
     inkscape:window-maximized="1"
     inkscape:current-layer="svg8" /><path
     d="m 1,72.65 h 6.5 9.8 29 l 13.5,7.2 c 0.1,0.1 0.3,0.1 0.5,0.1 0.2,0 0.4,0 0.5,-0.1 0.3,-0.2 0.5,-0.5 0.5,-0.8 V 0.95 c 0,-0.3 -0.2,-0.7 -0.5,-0.8 -0.3,-0.2 -0.7,-0.2 -1,0 L 46.3,7.35 H 1 c -0.5,0 -1,0.4 -1,1 v 63.3 c 0.1,0.5 0.5,1 1,1 z M 47.6,8.85 59.4,2.55 v 74.7 L 47.6,70.95 Z M 17.3,70.65 H 7.5 c -0.8,0 -1.5,-0.7 -1.5,-1.5 0,-0.8 0.7,-1.5 1.5,-1.5 h 9.8 c 0.8,0 1.5,0.7 1.5,1.5 0,0.8 -0.7,1.5 -1.5,1.5 z m 0,-5 H 7.5 c -0.8,0 -1.5,-0.7 -1.5,-1.5 0,-0.8 0.7,-1.5 1.5,-1.5 h 9.8 c 0.8,0 1.5,0.7 1.5,1.5 0,0.9 -0.7,1.5 -1.5,1.5 z m 0,-4.9 H 7.5 c -0.8,0 -1.5,-0.7 -1.5,-1.5 0,-0.8 0.7,-1.5 1.5,-1.5 h 9.8 c 0.8,0 1.5,0.7 1.5,1.5 0,0.8 -0.7,1.5 -1.5,1.5 z m 7.5,-51.5 h 20.8 v 8.5 H 24.8 Z m 0,10.5 h 7.7 c -0.1,0.5 0.1,1 0.6,1.1 0.5,0.2 1.1,-0.1 1.3,-0.6 0.1,-0.3 0.4,-0.6 0.8,-0.6 0.5,0 0.8,0.4 0.8,0.8 0,0.4 -0.4,0.8 -0.8,0.8 -0.5,0 -1,0.4 -1,1 v 1.5 l -7.4,3.3 c -0.9,0.4 -1.3,1.3 -1.1,2.2 0.2,0.9 1,1.6 1.9,1.6 h 15.3 c 0.9,0 1.7,-0.6 1.9,-1.6 0.2,-0.9 -0.3,-1.8 -1.1,-2.2 l -7.4,-3.3 v -0.7 c 1.1,-0.4 1.8,-1.4 1.8,-2.6 0,-0.3 -0.1,-0.6 -0.1,-0.8 h 7.7 v 50.9 H 24.8 Z m 18,9.2 H 27.6 l 7.6,-3.4 c 0,0 0,0 0,0 z M 2,9.25 h 20.8 v 29.7 h -2.7 c 0.4,-0.6 0.6,-1.2 0.6,-2 0,-1 -0.4,-1.8 -1,-2.5 0.6,-0.6 1,-1.5 1,-2.5 0,-1 -0.4,-1.8 -1,-2.5 0.6,-0.6 1,-1.5 1,-2.5 0,-1.9 -1.6,-3.5 -3.5,-3.5 H 7.4 c -1.9,0 -3.5,1.6 -3.5,3.5 0,1 0.4,1.8 1,2.5 -0.6,0.6 -1,1.5 -1,2.5 0,1 0.4,1.8 1,2.5 -0.6,0.6 -1,1.5 -1,2.5 0,0.7 0.2,1.4 0.6,2 H 1.8 V 9.25 Z m 15.3,24.3 H 7.5 c -0.8,0 -1.5,-0.7 -1.5,-1.5 0,-0.8 0.7,-1.5 1.5,-1.5 h 9.8 c 0.8,0 1.5,0.7 1.5,1.5 0,0.8 -0.7,1.5 -1.5,1.5 z m 1.5,3.5 c 0,0.8 -0.7,1.5 -1.5,1.5 H 7.5 c -0.8,0 -1.5,-0.7 -1.5,-1.5 0,-0.8 0.7,-1.5 1.5,-1.5 h 9.8 c 0.8,0 1.5,0.6 1.5,1.5 z m -1.5,-8.5 H 7.5 c -0.8,0 -1.5,-0.7 -1.5,-1.5 0,-0.8 0.7,-1.5 1.5,-1.5 h 9.8 c 0.8,0 1.5,0.7 1.5,1.5 0,0.8 -0.7,1.5 -1.5,1.5 z M 2,40.95 h 20.8 v 29.7 h -2.4 c 0.2,-0.5 0.3,-1 0.3,-1.5 0,-1 -0.4,-1.8 -1,-2.5 0.6,-0.6 1,-1.5 1,-2.5 0,-1 -0.4,-1.8 -1,-2.5 0.6,-0.6 1,-1.5 1,-2.5 0,-1.9 -1.6,-3.5 -3.5,-3.5 H 7.4 c -1.9,0 -3.5,1.6 -3.5,3.5 0,1 0.4,1.8 1,2.5 -0.6,0.6 -1,1.5 -1,2.5 0,1 0.4,1.8 1,2.5 -0.6,0.6 -1,1.5 -1,2.5 0,0.5 0.1,1 0.3,1.5 H 1.8 v -29.7 z"
     id="path2"
     style="fill:#464646" /></svg>
