<?xml version="1.0" encoding="UTF-8" standalone="no"?>
<svg
   version="1.1"
   x="0px"
   y="0px"
   viewBox="0 0 80 51.900002"
   xml:space="preserve"
   id="svg66"
   sodipodi:docname="noun-distance-4613703.svg"
   width="80"
   height="51.900002"
   inkscape:version="1.1.2 (0a00cf5339, 2022-02-04)"
   xmlns:inkscape="http://www.inkscape.org/namespaces/inkscape"
   xmlns:sodipodi="http://sodipodi.sourceforge.net/DTD/sodipodi-0.dtd"
   xmlns="http://www.w3.org/2000/svg"
   xmlns:svg="http://www.w3.org/2000/svg"><defs
     id="defs70"><filter
       style="color-interpolation-filters:sRGB;"
       inkscape:label="Colorize"
       id="filter246"
       x="0"
       y="0"
       width="1"
       height="1"><feComposite
         in2="SourceGraphic"
         operator="arithmetic"
         k1="0"
         k2="1"
         result="composite1"
         id="feComposite232" /><feColorMatrix
         in="composite1"
         values="1"
         type="saturate"
         result="colormatrix1"
         id="feColorMatrix234" /><feFlood
         flood-opacity="1"
         flood-color="rgb(58,59,60)"
         result="flood1"
         id="feFlood236" /><feBlend
         in="flood1"
         in2="colormatrix1"
         mode="screen"
         result="blend1"
         id="feBlend238" /><feBlend
         in2="blend1"
         mode="multiply"
         result="blend2"
         id="feBlend240" /><feColorMatrix
         in="blend2"
         values="1"
         type="saturate"
         result="colormatrix2"
         id="feColorMatrix242" /><feComposite
         in="colormatrix2"
         in2="SourceGraphic"
         operator="in"
         k2="1"
         result="fbSourceGraphic"
         id="feComposite244" /><feColorMatrix
         result="fbSourceGraphicAlpha"
         in="fbSourceGraphic"
         values="0 0 0 -1 0 0 0 0 -1 0 0 0 0 -1 0 0 0 0 1 0"
         id="feColorMatrix266" /><feComposite
         in2="fbSourceGraphic"
         id="feComposite268"
         operator="arithmetic"
         k1="0"
         k2="1"
         result="composite1"
         in="fbSourceGraphic" /><feColorMatrix
         id="feColorMatrix270"
         in="composite1"
         values="1"
         type="saturate"
         result="colormatrix1" /><feFlood
         id="feFlood272"
         flood-opacity="1"
         flood-color="rgb(179,59,60)"
         result="flood1" /><feBlend
         in2="colormatrix1"
         id="feBlend274"
         in="flood1"
         mode="screen"
         result="blend1" /><feBlend
         in2="blend1"
         id="feBlend276"
         mode="multiply"
         result="blend2" /><feColorMatrix
         id="feColorMatrix278"
         in="blend2"
         values="1"
         type="saturate"
         result="colormatrix2" /><feComposite
         in2="fbSourceGraphic"
         id="feComposite280"
         in="colormatrix2"
         operator="in"
         k2="1"
         result="fbSourceGraphic" /><feColorMatrix
         result="fbSourceGraphicAlpha"
         in="fbSourceGraphic"
         values="0 0 0 -1 0 0 0 0 -1 0 0 0 0 -1 0 0 0 0 1 0"
         id="feColorMatrix300" /><feComposite
         in2="fbSourceGraphic"
         id="feComposite302"
         operator="arithmetic"
         k1="0"
         k2="1"
         result="composite1"
         in="fbSourceGraphic" /><feColorMatrix
         id="feColorMatrix304"
         in="composite1"
         values="1"
         type="saturate"
         result="colormatrix1" /><feFlood
         id="feFlood306"
         flood-opacity="1"
         flood-color="rgb(64,64,64)"
         result="flood1" /><feBlend
         in2="colormatrix1"
         id="feBlend308"
         in="flood1"
         mode="screen"
         result="blend1" /><feBlend
         in2="blend1"
         id="feBlend310"
         mode="multiply"
         result="blend2" /><feColorMatrix
         id="feColorMatrix312"
         in="blend2"
         values="1"
         type="saturate"
         result="colormatrix2" /><feComposite
         in2="fbSourceGraphic"
         id="feComposite314"
         in="colormatrix2"
         operator="in"
         k2="1"
         result="fbSourceGraphic" /><feColorMatrix
         result="fbSourceGraphicAlpha"
         in="fbSourceGraphic"
         values="0 0 0 -1 0 0 0 0 -1 0 0 0 0 -1 0 0 0 0 1 0"
         id="feColorMatrix334" /><feComposite
         in2="fbSourceGraphic"
         id="feComposite336"
         operator="arithmetic"
         k1="0"
         k2="1"
         result="composite1"
         in="fbSourceGraphic" /><feColorMatrix
         id="feColorMatrix338"
         in="composite1"
         values="1"
         type="saturate"
         result="colormatrix1" /><feFlood
         id="feFlood340"
         flood-opacity="1"
         flood-color="rgb(64,64,64)"
         result="flood1" /><feBlend
         in2="colormatrix1"
         id="feBlend342"
         in="flood1"
         mode="screen"
         result="blend1" /><feBlend
         in2="blend1"
         id="feBlend344"
         mode="multiply"
         result="blend2" /><feColorMatrix
         id="feColorMatrix346"
         in="blend2"
         values="1"
         type="saturate"
         result="colormatrix2" /><feComposite
         in2="fbSourceGraphic"
         id="feComposite348"
         in="colormatrix2"
         operator="in"
         k2="1"
         result="fbSourceGraphic" /><feColorMatrix
         result="fbSourceGraphicAlpha"
         in="fbSourceGraphic"
         values="0 0 0 -1 0 0 0 0 -1 0 0 0 0 -1 0 0 0 0 1 0"
         id="feColorMatrix368" /><feComposite
         in2="fbSourceGraphic"
         id="feComposite370"
         operator="arithmetic"
         k1="0"
         k2="1"
         result="composite1"
         in="fbSourceGraphic" /><feColorMatrix
         id="feColorMatrix372"
         in="composite1"
         values="1"
         type="saturate"
         result="colormatrix1" /><feFlood
         id="feFlood374"
         flood-opacity="1"
         flood-color="rgb(64,64,64)"
         result="flood1" /><feBlend
         in2="colormatrix1"
         id="feBlend376"
         in="flood1"
         mode="screen"
         result="blend1" /><feBlend
         in2="blend1"
         id="feBlend378"
         mode="multiply"
         result="blend2" /><feColorMatrix
         id="feColorMatrix380"
         in="blend2"
         values="1"
         type="saturate"
         result="colormatrix2" /><feComposite
         in2="fbSourceGraphic"
         id="feComposite382"
         in="colormatrix2"
         operator="in"
         k2="1"
         result="fbSourceGraphic" /><feColorMatrix
         result="fbSourceGraphicAlpha"
         in="fbSourceGraphic"
         values="0 0 0 -1 0 0 0 0 -1 0 0 0 0 -1 0 0 0 0 1 0"
         id="feColorMatrix402" /><feComposite
         in2="fbSourceGraphic"
         id="feComposite404"
         operator="arithmetic"
         k1="0"
         k2="1"
         result="composite1"
         in="fbSourceGraphic" /><feColorMatrix
         id="feColorMatrix406"
         in="composite1"
         values="1"
         type="saturate"
         result="colormatrix1" /><feFlood
         id="feFlood408"
         flood-opacity="1"
         flood-color="rgb(58,59,60)"
         result="flood1" /><feBlend
         in2="colormatrix1"
         id="feBlend410"
         in="flood1"
         mode="screen"
         result="blend1" /><feBlend
         in2="blend1"
         id="feBlend412"
         mode="multiply"
         result="blend2" /><feColorMatrix
         id="feColorMatrix414"
         in="blend2"
         values="1"
         type="saturate"
         result="colormatrix2" /><feComposite
         in2="fbSourceGraphic"
         id="feComposite416"
         in="colormatrix2"
         operator="in"
         k2="1"
         result="composite2" /></filter></defs><sodipodi:namedview
     id="namedview68"
     pagecolor="#ffffff"
     bordercolor="#666666"
     borderopacity="1.0"
     inkscape:pageshadow="2"
     inkscape:pageopacity="0.0"
     inkscape:pagecheckerboard="0"
     showgrid="false"
     fit-margin-top="0"
     fit-margin-left="0"
     fit-margin-right="0"
     fit-margin-bottom="0"
     inkscape:zoom="6.088"
     inkscape:cx="39.914586"
     inkscape:cy="38.518397"
     inkscape:window-width="1850"
     inkscape:window-height="1025"
     inkscape:window-x="1990"
     inkscape:window-y="27"
     inkscape:window-maximized="1"
     inkscape:current-layer="svg66" /><g
     id="g60"
     transform="translate(-10,-24)"
     style="filter:url(#filter246)"><path
       d="m 25.6,43 c 0,-0.4 -0.3,-0.7 -0.7,-0.7 H 22 c -0.4,0 -0.7,0.3 -0.7,0.7 0,0.4 0.3,0.7 0.7,0.7 h 2.9 c 0.4,0 0.7,-0.3 0.7,-0.7 z"
       id="path2" /><path
       d="m 26.7,66.1 c 0,-0.8 0.1,-1.7 0.4,-2.5 0.1,-0.4 0,-0.8 -0.4,-0.9 -0.4,-0.1 -0.8,0 -0.9,0.4 -0.4,0.9 -0.5,1.9 -0.5,3.1 H 26 Z"
       id="path4" /><path
       d="m 36.6,58.4 c 0,-0.4 -0.3,-0.7 -0.7,-0.7 h -2.2 c -0.3,0 -0.5,0 -0.8,0 -0.4,0 -0.7,0.4 -0.6,0.8 0,0.4 0.3,0.7 0.7,0.7 0,0 0,0 0.1,0 0.2,0 0.4,0 0.7,0 H 36 c 0.2,-0.1 0.6,-0.4 0.6,-0.8 z"
       id="path6" /><path
       d="m 31.9,74.3 c -0.8,-0.2 -1.6,-0.6 -2.3,-1.1 -0.3,-0.2 -0.8,-0.2 -1,0.2 -0.2,0.3 -0.2,0.8 0.2,1 0.9,0.6 1.8,1.1 2.8,1.3 0.1,0 0.1,0 0.2,0 0.3,0 0.6,-0.2 0.7,-0.5 0,-0.4 -0.2,-0.8 -0.6,-0.9 z"
       id="path8" /><path
       d="m 30.5,59.8 c 0.4,-0.2 0.5,-0.6 0.3,-1 -0.2,-0.4 -0.6,-0.5 -1,-0.3 -0.9,0.5 -1.8,1.1 -2.5,1.9 -0.3,0.3 -0.2,0.7 0.1,1 0.1,0.1 0.3,0.2 0.5,0.2 0.2,0 0.4,-0.1 0.5,-0.2 0.7,-0.7 1.4,-1.2 2.1,-1.6 z"
       id="path10" /><path
       d="m 19.1,42.2 h -2.9 c -0.4,0 -0.7,0.3 -0.7,0.7 0,0.4 0.3,0.7 0.7,0.7 h 2.9 c 0.4,0 0.7,-0.3 0.7,-0.7 0,-0.4 -0.3,-0.7 -0.7,-0.7 z"
       id="path12" /><path
       d="m 39.2,43.7 h 2.9 c 0.4,0 0.7,-0.3 0.7,-0.7 0,-0.4 -0.3,-0.7 -0.7,-0.7 h -2.9 c -0.4,0 -0.7,0.3 -0.7,0.7 0,0.4 0.3,0.7 0.7,0.7 z"
       id="path14" /><path
       d="m 45,43.7 h 2.9 c 0.4,0 0.7,-0.3 0.7,-0.7 0,-0.4 -0.3,-0.7 -0.7,-0.7 H 45 c -0.4,0 -0.7,0.3 -0.7,0.7 0,0.4 0.3,0.7 0.7,0.7 z"
       id="path16" /><path
       d="m 50.7,43.7 h 0.5 c 0.7,0 1.4,0.1 2.1,0.3 0.1,0 0.1,0 0.2,0 0.3,0 0.6,-0.2 0.7,-0.5 0.1,-0.4 -0.1,-0.8 -0.5,-0.9 -0.8,-0.3 -1.7,-0.4 -2.5,-0.4 h -0.5 c -0.4,0 -0.7,0.3 -0.7,0.7 0,0.4 0.3,0.8 0.7,0.8 z"
       id="path18" /><path
       d="m 57.3,47.2 c 0.1,0.2 0.4,0.4 0.6,0.4 0.1,0 0.2,0 0.4,-0.1 0.3,-0.2 0.5,-0.6 0.3,-1 -0.5,-0.9 -1.2,-1.7 -2,-2.4 -0.3,-0.2 -0.8,-0.2 -1,0.1 -0.2,0.3 -0.2,0.8 0.1,1 0.6,0.5 1.2,1.2 1.6,2 z"
       id="path20" /><path
       d="m 58.2,49.6 c 0.1,0.3 0.1,0.7 0.1,1.1 0,0.5 -0.1,1 -0.2,1.5 -0.1,0.4 0.2,0.8 0.5,0.9 0.1,0 0.1,0 0.2,0 0.3,0 0.6,-0.2 0.7,-0.6 0.1,-0.6 0.2,-1.2 0.2,-1.8 0,-0.4 0,-0.9 -0.1,-1.3 -0.1,-0.4 -0.4,-0.7 -0.8,-0.6 -0.4,0 -0.7,0.4 -0.6,0.8 z"
       id="path22" /><path
       d="m 27.8,43.7 h 2.9 c 0.4,0 0.7,-0.3 0.7,-0.7 0,-0.4 -0.3,-0.7 -0.7,-0.7 h -2.9 c -0.4,0 -0.7,0.3 -0.7,0.7 0,0.4 0.3,0.7 0.7,0.7 z"
       id="path24" /><path
       d="m 33.5,43.7 h 2.9 c 0.4,0 0.7,-0.3 0.7,-0.7 0,-0.4 -0.3,-0.7 -0.7,-0.7 h -2.9 c -0.4,0 -0.7,0.3 -0.7,0.7 0,0.4 0.3,0.7 0.7,0.7 z"
       id="path26" /><path
       d="m 26.8,68.9 c -0.1,-0.4 -0.5,-0.6 -0.8,-0.6 -0.4,0.1 -0.6,0.5 -0.6,0.8 0.2,1 0.6,2 1.2,2.9 0.1,0.2 0.4,0.3 0.6,0.3 0.1,0 0.3,0 0.4,-0.1 0.3,-0.2 0.4,-0.7 0.2,-1 -0.5,-0.6 -0.8,-1.5 -1,-2.3 z"
       id="path28" /><path
       d="m 60.4,74.5 h -2.9 c -0.4,0 -0.7,0.3 -0.7,0.7 0,0.4 0.3,0.7 0.7,0.7 h 2.9 c 0.4,0 0.7,-0.3 0.7,-0.7 0,-0.4 -0.3,-0.7 -0.7,-0.7 z"
       id="path30" /><path
       d="m 58.3,55.4 c 0.2,-0.3 0.1,-0.8 -0.2,-1 -0.3,-0.2 -0.8,-0.1 -1,0.2 -0.5,0.7 -1.1,1.3 -1.8,1.8 -0.3,0.2 -0.4,0.7 -0.2,1 0.1,0.2 0.4,0.3 0.6,0.3 0.1,0 0.3,0 0.4,-0.1 0.8,-0.6 1.6,-1.4 2.2,-2.2 z"
       id="path32" /><path
       d="m 66.2,74.5 h -2.9 c -0.4,0 -0.7,0.3 -0.7,0.7 0,0.4 0.3,0.7 0.7,0.7 h 2.9 c 0.4,0 0.7,-0.3 0.7,-0.7 0,-0.4 -0.3,-0.7 -0.7,-0.7 z"
       id="path34" /><path
       d="m 37.4,74.5 h -2.9 c -0.4,0 -0.7,0.3 -0.7,0.7 0,0.4 0.3,0.7 0.7,0.7 h 2.9 c 0.4,0 0.7,-0.3 0.7,-0.7 0.1,-0.4 -0.3,-0.7 -0.7,-0.7 z"
       id="path36" /><path
       d="M 71.9,74.5 H 69 c -0.4,0 -0.7,0.3 -0.7,0.7 0,0.4 0.3,0.7 0.7,0.7 h 2.9 c 0.4,0 0.7,-0.3 0.7,-0.7 0,-0.4 -0.3,-0.7 -0.7,-0.7 z"
       id="path38" /><path
       d="m 83.4,74.5 h -2.9 c -0.4,0 -0.7,0.3 -0.7,0.7 0,0.4 0.3,0.7 0.7,0.7 h 2.9 c 0.4,0 0.7,-0.3 0.7,-0.7 0,-0.4 -0.3,-0.7 -0.7,-0.7 z"
       id="path40" /><path
       d="m 54.7,74.5 h -2.9 c -0.4,0 -0.7,0.3 -0.7,0.7 0,0.4 0.3,0.7 0.7,0.7 h 2.9 c 0.4,0 0.7,-0.3 0.7,-0.7 0,-0.4 -0.3,-0.7 -0.7,-0.7 z"
       id="path42" /><path
       d="m 77.6,74.5 h -2.9 c -0.4,0 -0.7,0.3 -0.7,0.7 0,0.4 0.3,0.7 0.7,0.7 h 2.9 c 0.4,0 0.7,-0.3 0.7,-0.7 0.1,-0.4 -0.3,-0.7 -0.7,-0.7 z"
       id="path44" /><path
       d="M 48.9,74.5 H 46 c -0.4,0 -0.7,0.3 -0.7,0.7 0,0.4 0.3,0.7 0.7,0.7 h 2.9 c 0.4,0 0.7,-0.3 0.7,-0.7 0,-0.4 -0.3,-0.7 -0.7,-0.7 z"
       id="path46" /><path
       d="M 48,58.4 C 48,58 47.7,57.7 47.3,57.7 h -2.9 c -0.4,0 -0.7,0.3 -0.7,0.7 0,0.4 0.3,0.7 0.7,0.7 h 2.9 c 0.4,0 0.7,-0.3 0.7,-0.7 z"
       id="path48" /><path
       d="M 42.3,58.4 C 42.3,58 42,57.7 41.6,57.7 h -2.9 c -0.4,0 -0.7,0.3 -0.7,0.7 0,0.4 0.3,0.7 0.7,0.7 h 2.9 c 0.4,0 0.7,-0.3 0.7,-0.7 z"
       id="path50" /><path
       d="m 43.2,74.5 h -2.9 c -0.4,0 -0.7,0.3 -0.7,0.7 0,0.4 0.3,0.7 0.7,0.7 h 2.9 c 0.4,0 0.7,-0.3 0.7,-0.7 0,-0.4 -0.3,-0.7 -0.7,-0.7 z"
       id="path52" /><path
       d="m 53.2,58.9 c 0.4,-0.1 0.6,-0.5 0.5,-0.9 -0.1,-0.4 -0.5,-0.6 -0.9,-0.5 -0.5,0.1 -1.1,0.2 -1.6,0.2 h -1.1 c -0.4,0 -0.7,0.3 -0.7,0.7 0,0.4 0.3,0.7 0.7,0.7 h 1.1 c 0.7,0 1.4,-0.1 2,-0.2 z"
       id="path54" /><path
       d="m 83.7,56.1 c -3.4,0 -6.3,2.8 -6.3,6.3 0,3.2 5.1,9.6 5.7,10.3 0.1,0.2 0.3,0.3 0.5,0.3 0.2,0 0.4,-0.1 0.6,-0.3 C 84.9,72 90,65.6 90,62.4 90,58.9 87.2,56.1 83.7,56.1 Z m 0,9.8 c -1.9,0 -3.5,-1.6 -3.5,-3.5 0,-1.9 1.6,-3.5 3.5,-3.5 1.9,0 3.5,1.6 3.5,3.5 0,1.9 -1.6,3.5 -3.5,3.5 z"
       id="path56" /><path
       d="m 16.3,40.9 c 0.2,0 0.4,-0.1 0.6,-0.3 0.6,-0.7 5.7,-7.1 5.7,-10.3 0,-3.4 -2.8,-6.3 -6.3,-6.3 -3.5,0 -6.3,2.8 -6.3,6.3 0,3.2 5.1,9.6 5.7,10.3 0.2,0.2 0.4,0.3 0.6,0.3 z M 12.8,30.4 c 0,-1.9 1.6,-3.5 3.5,-3.5 1.9,0 3.5,1.6 3.5,3.5 0,1.9 -1.6,3.5 -3.5,3.5 -1.9,-0.1 -3.5,-1.6 -3.5,-3.5 z"
       id="path58" /></g></svg>
