<?xml version="1.0" encoding="UTF-8" standalone="no"?>
<svg
   version="1.1"
   x="0px"
   y="0px"
   viewBox="0 0 98.057999 98.471001"
   enable-background="new 0 0 100 100"
   xml:space="preserve"
   id="svg10"
   sodipodi:docname="mochileros.svg"
   width="98.057999"
   height="98.471001"
   inkscape:version="1.1.2 (0a00cf5339, 2022-02-04)"
   xmlns:inkscape="http://www.inkscape.org/namespaces/inkscape"
   xmlns:sodipodi="http://sodipodi.sourceforge.net/DTD/sodipodi-0.dtd"
   xmlns="http://www.w3.org/2000/svg"
   xmlns:svg="http://www.w3.org/2000/svg"><defs
     id="defs14" /><sodipodi:namedview
     id="namedview12"
     pagecolor="#ffffff"
     bordercolor="#666666"
     borderopacity="1.0"
     inkscape:pageshadow="2"
     inkscape:pageopacity="0.0"
     inkscape:pagecheckerboard="0"
     showgrid="false"
     fit-margin-top="0"
     fit-margin-left="0"
     fit-margin-right="0"
     fit-margin-bottom="0"
     inkscape:zoom="6.088"
     inkscape:cx="48.784494"
     inkscape:cy="61.514455"
     inkscape:window-width="1850"
     inkscape:window-height="1025"
     inkscape:window-x="1990"
     inkscape:window-y="27"
     inkscape:window-maximized="1"
     inkscape:current-layer="svg10" /><circle
     cx="48.874001"
     cy="7.1859999"
     r="7.1859999"
     id="circle2"
     style="fill:#a5a5a5" /><path
     id="path4"
     d="m 15.210938,8.7285156 c -0.239538,0.1001257 -0.447933,0.1870589 -0.775391,0.1582032 -0.0084,-0.00153 -0.07256,-0.016496 -0.103516,-0.023438 -0.248959,0.3512346 -0.633549,0.4317104 -0.935547,0.2363282 -2.475734,1.2292166 -2.635034,5.0995456 0.769532,6.1933596 l 24.320312,8.236328 -0.0059,57.496094 h -7.263672 v 11.71289 H 0 v 5.732422 H 36.949219 V 86.759766 H 98.058594 V 81.025391 H 85.435547 v -0.07031 H 72.970703 v 0.07031 H 59.259766 l 0.01953,-53.777344 3.039062,-0.0625 v 22.642578 c 0,4.556 6.473985,4.556 6.458985,0 v -23.125 c -0.003,-7.028 -4.44275,-10.357422 -11.46875,-10.357422 l -16.523438,-0.0098 -0.002,-0.01758 L 16.478516,8.9101562 C 16.0249,8.7855054 15.608756,8.7396504 15.210938,8.7285156 Z M 46.978516,51.251953 h 3.794922 l -0.01172,29.773438 h -3.789063 z m 25.992187,27.632813 v 0.01367 h 7.072266 3.720703 1.671875 v -0.01367 h -3.820313 z"
     style="fill:#a5a5a5" /><path
     id="path258"
     style="fill:#a5a5a5"
     d="m 15.396484,5.8613281 c -0.02327,0.00889 -0.04708,0.016469 -0.07031,0.025391 0.01452,0.059364 0.02689,0.1151771 0.03711,0.1660156 0.0151,-0.00383 0.03054,-0.00636 0.04492,-0.00977 -0.0024,-0.060695 -0.0058,-0.1210181 -0.01172,-0.1816407 z m -0.144531,2.8515625 c -0.257627,0.1073267 -0.470181,0.2043377 -0.816406,0.1738282 -0.0084,-0.00153 -0.0746,-0.016865 -0.103516,-0.023438 -0.322464,0.454937 -0.871449,0.4528507 -1.173828,-0.00977 -0.0097,0.00296 -0.01964,0.00477 -0.0293,0.00781 0.02954,0.1177823 0.05689,0.2364514 0.07617,0.3574219 0.02965,0.2392106 0.04348,0.4797111 0.0332,0.7207031 -0.0012,0.00917 -0.01214,0.031656 -0.0039,0.027344 0.0036,-0.0019 0.0062,-0.00397 0.0098,-0.00586 3.32e-4,0.014815 0.0015,0.030031 0.002,0.044921 -0.0011,0.107137 -0.0032,0.215204 -0.0078,0.322266 l 0.0293,-0.01563 c 0.07856,0.789108 0.420148,1.33598 1.810547,-0.921875 l 0.333984,-0.1699219 c -0.005,-0.1136234 -0.0068,-0.2280848 -0.0078,-0.3417969 0.0016,-0.011869 0.0028,-0.025971 0.0039,-0.039062 0.003,-0.00527 0.0048,-0.010332 0.0078,-0.015625 -0.0018,-0.01884 -0.0024,-0.037775 -0.0039,-0.056641 2.99e-4,-0.011317 -1.25e-4,-0.024993 0,-0.037109 -0.05278,-0.00337 -0.105364,-0.00954 -0.160156,-0.017578 z" /><g
     id="g20"
     transform="matrix(0.37989308,0,0,0.42330708,62.523643,42.32831)"
     style="fill:#a5a5a5"><path
       d="m 85.625,61.25 v 9.375 c 0,0.32031 -0.03906,0.61719 -0.11328,0.89844 -1.5195,-1.3516 -3.4141,-2.2695 -5.5117,-2.6055 v -11.418 h 1.875 c 2.0625,0 3.75,1.6875 3.75,3.75 z"
       id="path2"
       style="fill:#a5a5a5" /><path
       d="m 20,57.5 v 11.418 c -2.1016,0.33594 -3.9922,1.2578 -5.5117,2.6055 -0.07422,-0.28125 -0.11328,-0.58203 -0.11328,-0.89844 v -9.375 c 0,-2.0625 1.6875,-3.75 3.75,-3.75 z"
       id="path4-6"
       style="fill:#a5a5a5" /><path
       d="M 68.75,40.625 H 55.625 c 0,3.0938 -2.5312,5.625 -5.625,5.625 -3.0938,0 -5.625,-2.5312 -5.625,-5.625 H 31.25 c -2.7383,0 -5.2891,-0.75 -7.5,-2.0234 v 30.148 h 9.375 v -9.375 c 0,-3.1016 2.5234,-5.625 5.625,-5.625 h 22.5 c 3.1016,0 5.625,2.5234 5.625,5.625 v 9.375 h 9.375 v -30.148 c -2.2109,1.2734 -4.7617,2.0234 -7.5,2.0234 z"
       id="path6"
       style="fill:#a5a5a5" /><path
       d="m 61.25,57.5 h -22.5 c -1.0352,0 -1.875,0.83984 -1.875,1.875 v 9.375 h 26.25 v -9.375 c 0,-1.0352 -0.83984,-1.875 -1.875,-1.875 z"
       id="path8"
       style="fill:#a5a5a5" /><path
       d="m 72.5,16.25 h -15 c 0,-4.1445 -3.3555,-7.5 -7.5,-7.5 -4.1445,0 -7.5,3.3555 -7.5,7.5 h -15 c -4.1445,0 -7.5,3.3555 -7.5,7.5 v 1.875 c 0,6.207 5.043,11.25 11.25,11.25 h 13.461 c 0.76953,-2.1758 2.8516,-3.75 5.2891,-3.75 2.4375,0 4.5195,1.5742 5.2891,3.75 h 13.461 c 6.207,0 11.25,-5.043 11.25,-11.25 V 23.75 c 0,-4.1445 -3.3555,-7.5 -7.5,-7.5 z m -26.25,0 c 0,-2.0625 1.6875,-3.75 3.75,-3.75 2.0625,0 3.75,1.6875 3.75,3.75 z"
       id="path10"
       style="fill:#a5a5a5" /><path
       d="m 51.875,40.625 c 0,1.0312 -0.84375,1.875 -1.875,1.875 -1.03125,0 -1.875,-0.84375 -1.875,-1.875 V 38.75 c 0,-1.0312 0.84375,-1.875 1.875,-1.875 1.03125,0 1.875,0.84375 1.875,1.875 z"
       id="path12"
       style="fill:#a5a5a5" /><path
       d="m 31.25,72.5 h 37.5 v 18.75 h -37.5 z"
       id="path14"
       style="fill:#a5a5a5" /><path
       d="m 27.5,72.5 h -5.625 c -4.1406,0 -7.5,3.3594 -7.5,7.5 v 3.75 c 0,4.1406 3.3594,7.5 7.5,7.5 H 27.5 Z"
       id="path16"
       style="fill:#a5a5a5" /><path
       d="M 78.125,72.5 H 72.5 v 18.75 h 5.625 c 4.1406,0 7.5,-3.3594 7.5,-7.5 V 80 c 0,-4.1406 -3.3594,-7.5 -7.5,-7.5 z"
       id="path18"
       style="fill:#a5a5a5" /></g><g
     transform="matrix(0.13659399,0,0,0.1362493,4.6902024,-126.39433)"
     id="g6"
     style="fill:#a5a5a5"><path
       d="m 78.967141,1027.7383 c 3.345945,0 6.062244,2.793 6.062244,6.125 0,3.3319 -2.716299,6.0937 -6.062244,6.0937 -3.364016,0 -6.093779,-2.7618 -6.093779,-6.0937 0,-3.332 2.729763,-6.125 6.093779,-6.125 z m 0,4.25 c -1.065827,0 -1.875118,0.8393 -1.875118,1.875 0,1.0357 0.809291,1.8438 1.875118,1.8438 1.008071,0 1.812401,-0.8081 1.812401,-1.8438 0,-1.0357 -0.80433,-1.875 -1.812401,-1.875 z"
       style="color:#000000;text-indent:0;text-transform:none;direction:ltr;baseline-shift:baseline;enable-background:accumulate;fill:#a5a5a5"
       fill="#000000"
       fill-opacity="1"
       fill-rule="evenodd"
       stroke="none"
       marker="none"
       visibility="visible"
       display="inline"
       overflow="visible"
       id="path2-7" /><path
       d="m 47.21702,958.36334 c 0.832393,0.0113 1.713614,0.0674 2.656204,0.18751 1.007398,0.12738 1.86711,1.07528 1.875012,2.09374 l 0.03118,8.65626 10.000027,23.40624 h 5.0625 c 0.903544,-2.72296 3.452244,-4.71877 6.468662,-4.71877 h 10.875117 c 3.736772,0 6.812362,3.09586 6.812362,6.84376 v 44.71872 c 0,3.7479 -3.07559,6.8125 -6.812362,6.8125 H 73.310605 c -3.713032,0 -6.740788,-3.0007 -6.812362,-6.6875 -1.298977,1.014 -2.850804,1.9375 -4.843807,1.9375 -8.627705,0 -33.093637,0.062 -33.093637,0.062 -3.765473,-0.011 -6.703229,-0.7942 -8.812559,-2.1875 -2.108976,-1.3932 -3.350197,-3.4949 -3.53126,-5.625 -0.164408,-1.9419 0.537521,-3.8096 1.812403,-5.2813 -0.786969,-0.3403 -1.504488,-0.7429 -2.124921,-1.2187 -2.037402,-1.5616 -3.01252,-3.847 -3.0313,-6 -0.01488,-1.6148 0.437599,-3.2097 1.250079,-4.5625 -1.33937,-0.4644 -2.47748,-1.2444 -3.312638,-2.25 -1.3801181,-1.6624 -1.9449211,-3.8084 -1.7812201,-5.9063 0.20374,-2.609 1.6859051,-5.1853 4.2190161,-6.7811 -0.09744,-0.1085 -0.190985,-0.2312 -0.281339,-0.3438 -1.375157,-1.70882 -2.110748,-3.83275 -2.25,-6.00001 -0.139252,-2.16727 0.335197,-4.42297 1.718504,-6.25001 1.383307,-1.82703 3.734646,-3.00802 6.562559,-3.03123 h 18.31259 c -0.908469,-2.78943 -1.97348,-5.39691 -2.468693,-7.9375 -0.380091,-2.15773 -0.870945,-5.18581 -0.593787,-8.31253 0.279885,-3.15577 1.45109,-6.58931 4.437496,-8.93749 2.276787,-1.79773 4.926082,-2.73622 8.531291,-2.68749 z m 36.968703,33.875 H 73.310606 c -1.497402,0 -2.56252,1.14562 -2.56252,2.59374 v 44.71872 c 0,1.4481 1.065118,2.5625 2.56252,2.5625 h 10.875117 c 1.443898,0 2.56252,-1.1144 2.56252,-2.5625 v -44.71872 c 0,-1.44812 -1.118622,-2.59374 -2.56252,-2.59374 z"
       style="color:#000000;text-indent:0;text-transform:none;direction:ltr;baseline-shift:baseline;enable-background:accumulate;fill:#a5a5a5"
       fill="#000000"
       fill-opacity="1"
       fill-rule="evenodd"
       stroke="none"
       marker="none"
       visibility="visible"
       display="inline"
       overflow="visible"
       id="path4-5" /></g><path
     style="fill:#a5a5a5;fill-rule:evenodd"
     id="path3150"
     d="m 16.13243,14.897562 c -0.0021,-0.05493 -0.0042,-0.109866 -0.0064,-0.164799 0,0 -2.158424,1.099772 -2.158424,1.099772 v 0 c -0.0021,0.0571 -0.0042,0.114192 -0.0064,0.171288 0,0 2.171159,-1.106261 2.171159,-1.106261 z" /><path
     style="fill:#a5a5a5;fill-rule:evenodd"
     id="path3152"
     d="m 14.106882,10.090345 c 0.230978,0.587114 0.361754,1.2066 0.536063,1.811291 0,0 2.099676,-1.149715 2.099676,-1.149715 v 0 C 16.549888,10.1601 16.397959,9.5542961 16.257583,8.9481469 c 0,0 -2.150701,1.1421981 -2.150701,1.1421981 z" /><path
     style="fill:#a5a5a5;fill-rule:evenodd"
     id="path3154"
     d="m 14.609323,9.2617982 c 0.337393,0.7572018 0.420978,1.5901298 0.501067,2.4059838 0.0099,0.136858 0.01988,0.273716 0.02982,0.410574 0,0 2.095159,-1.092213 2.095159,-1.092213 v 0 c -0.01548,-0.135507 -0.03096,-0.271014 -0.04644,-0.406521 -0.104848,-0.8474337 -0.18949,-1.7064828 -0.46514,-2.5195983 0,0 -2.114464,1.2017745 -2.114464,1.2017745 z" /><path
     style="fill:#a5a5a5;fill-rule:evenodd"
     id="path3156"
     d="m 13.530856,9.8966352 c 0.117988,0.5743188 0.185965,1.1556448 0.242661,1.7386368 0,0 2.093188,-1.09194 2.093188,-1.09194 v 0 c -0.0571,-0.600223 -0.140171,-1.1978153 -0.184904,-1.7991354 0,0 -2.150945,1.1524386 -2.150945,1.1524386 z" /><path
     style="fill:#a5a5a5;fill-rule:evenodd"
     id="path3158"
     d="m 13.842419,9.611792 c 0.269537,0.908252 0.40689,1.846973 0.514413,2.785971 0.03274,0.292224 0.05086,0.58562 0.06593,0.879156 0,0 2.135005,-1.110062 2.135005,-1.110062 v 0 c -0.03305,-0.29001 -0.06837,-0.579764 -0.113521,-0.868198 -0.147101,-0.945284 -0.319476,-1.8863191 -0.469005,-2.8311561 0,0 -2.13282,1.1442891 -2.13282,1.1442891 z" /><path
     style="fill:#a5a5a5;fill-rule:evenodd"
     id="path3160"
     d="m 14.541105,15.588429 c -0.130476,0.140251 -0.279845,0.256101 -0.415935,0.391121 0,0 2.232049,-0.917566 2.232049,-0.917566 v 0 c 0.147274,-0.133283 0.294822,-0.266371 0.435842,-0.406344 0,0 -2.251956,0.932789 -2.251956,0.932789 z" /><circle
     id="path3162"
     style="fill:#a5a5a5;stroke:#000000"
     cx="14.643946"
     cy="15.24721"
     r="0.08204665" /><circle
     id="path3164"
     style="fill:#a5a5a5;stroke:#000000"
     cx="14.643946"
     cy="15.24721"
     r="0.08204665" /><path
     style="fill:#a5a5a5;fill-rule:evenodd"
     id="path3168"
     d="m 13.405534,9.4694584 c 0.106531,0.1924902 0.161423,0.4052305 0.219981,0.6153866 0,0 2.109959,-1.1481329 2.109959,-1.1481329 v 0 c -0.06234,-0.2249958 -0.122186,-0.4515284 -0.21327,-0.6671654 0,0 -2.11667,1.1999117 -2.11667,1.1999117 z" /></svg>
