<?xml version="1.0" encoding="UTF-8" standalone="no"?>
<svg
   version="1.1"
   viewBox="-5 -10 94.985046 88.910454"
   id="svg10793"
   sodipodi:docname="noun-car-parking-7149351.svg"
   width="94.985046"
   height="88.910454"
   xmlns:inkscape="http://www.inkscape.org/namespaces/inkscape"
   xmlns:sodipodi="http://sodipodi.sourceforge.net/DTD/sodipodi-0.dtd"
   xmlns="http://www.w3.org/2000/svg"
   xmlns:svg="http://www.w3.org/2000/svg">
  <defs
     id="defs10797" />
  <sodipodi:namedview
     id="namedview10795"
     pagecolor="#ffffff"
     bordercolor="#000000"
     borderopacity="0.25"
     inkscape:showpageshadow="2"
     inkscape:pageopacity="0.0"
     inkscape:pagecheckerboard="0"
     inkscape:deskcolor="#d1d1d1"
     showgrid="false" />
  <path
     id="path10787"
     d="m 65.738281,-10 c -1.635125,0.00108 -3.121996,0.6688717 -4.199219,1.7460938 -1.074208,1.0741934 -1.746093,2.5664346 -1.746093,4.203125 V 14.242188 c 0,1.589888 0.636762,3.039086 1.660156,4.109374 l 0.08594,0.09375 c 1.078094,1.078124 2.566432,1.746094 4.203126,1.746094 h 5.300781 v 57.21875 c 0,0.828114 0.671886,1.5 1.5,1.5 h 4.695312 c 0.828124,0 1.5,-0.671886 1.5,-1.5 V 66.625 c 0,-0.828114 -0.671876,-1.5 -1.5,-1.5 -0.828114,0 -1.5,0.671886 -1.5,1.5 v 9.285156 h -1.695312 v -55.71875 h 1.695312 V 55.5625 c 0,0.828114 0.671886,1.5 1.5,1.5 0.828124,0 1.5,-0.671886 1.5,-1.5 V 20.191406 h 5.296875 c 1.636694,0 3.125031,-0.668 4.203125,-1.746094 1.078124,-1.078088 1.746094,-2.566436 1.746094,-4.203124 V -4.0507812 c 0,-1.6366904 -0.671912,-3.1250316 -1.753906,-4.203125 C 87.15236,-9.3281202 85.664038,-10 84.03125,-10 H 65.742188 Z m 0,3 H 84.03125 c 0.812494,0 1.550787,0.3320305 2.082031,0.8671875 0.53516,0.535097 0.867188,1.2734461 0.867188,2.0820313 V 14.242188 c 0,0.808594 -0.332028,1.546871 -0.867188,2.082031 -0.535094,0.535154 -1.273447,0.867187 -2.082031,0.867187 H 65.738281 c -0.808594,0 -1.546877,-0.332033 -2.082031,-0.867187 l -0.06641,-0.05859 C 63.093758,15.734427 62.789062,15.023432 62.789062,14.242188 V -4.0507812 c 10e-7,-0.8085952 0.332034,-1.5468743 0.867188,-2.0820313 C 64.19136,-6.6679695 64.929697,-7 65.738281,-7 Z m 8.869141,2.9746094 c -0.664544,-0.036132 -1.328153,0.029298 -1.966797,0.1894531 -1.238194,0.3124982 -2.38282,0.9765667 -3.277344,1.9570313 -0.285144,0.2733982 -0.464843,0.6601599 -0.464843,1.08593745 V 12.722656 c 0,0.828114 0.67188,1.5 1.5,1.5 0.828114,0 1.5,-0.671886 1.5,-1.5 V 8.7734375 c 0.246084,0.09375 0.49219,0.1718756 0.75,0.234375 1.273388,0.3203182 2.644505,0.2578145 3.933593,-0.2265625 1.285194,-0.484397 2.359381,-1.3437941 3.109375,-2.4296875 0.750004,-1.0858934 1.179688,-2.3945334 1.179688,-3.765625 0,-1.3710916 -0.429688,-2.67973154 -1.179688,-3.765625 -0.749994,-1.0819934 -1.820281,-1.9453105 -3.109375,-2.4296875 -0.644544,-0.2421838 -1.310065,-0.3798837 -1.974609,-0.4160156 z m -0.16211,2.9902344 c 0.364261,0.019046 0.728527,0.0937631 1.082032,0.22656245 0.707004,0.26559838 1.292965,0.73828854 1.703125,1.328125 0.406234,0.58979645 0.640625,1.30860105 0.640625,2.06640625 0,0.7577952 -0.234381,1.4765693 -0.640625,2.0664063 -0.4101,0.5898164 -0.996101,1.0625062 -1.703125,1.328125 -0.7032,0.2656182 -1.460942,0.3007788 -2.160156,0.125 -0.53521,-0.1328194 -1.039066,-0.3906287 -1.46875,-0.7539063 v -5.52734375 c 0.425794,-0.36718778 0.92969,-0.62109703 1.46875,-0.75390625 0.349644,-0.0878944 0.713869,-0.124515 1.078124,-0.1054687 z M 54.136719,42.25 c 0.07459,-0.04871 -0.158954,0.08251 -0.238281,0.123047 -0.04387,0.02675 -0.08042,0.05999 -0.121094,0.08984 0.121131,-0.06896 0.242719,-0.136717 0.359375,-0.212891 z m 23.097656,17.230469 c -0.828114,0 -1.5,0.671886 -1.5,1.5 v 0.222656 c 0,0.828114 0.671886,1.5 1.5,1.5 0.828114,0 1.5,-0.671886 1.5,-1.5 v -0.222656 c 0,-0.828114 -0.671886,-1.5 -1.5,-1.5 z M 54,78.75 c -0.003,-2.96e-4 -0.03472,0.0063 -0.04492,0.0078 -0.0094,0.0122 -0.0181,0.02483 -0.02734,0.03711 C 53.964352,78.774786 54.00412,78.7504 54,78.75 Z m -0.105469,0.08984 -0.002,0.002 c 0.0019,-3.04e-4 0.004,3.07e-4 0.0059,0 -0.0013,-7.75e-4 -0.0025,-0.0012 -0.0039,-0.002 z"
     style="fill:#6a6a6a" />
  <path
     d="M 52.494741,29.570613 H 41.458049 c -0.60125,-3.239787 -3.819189,-5.724026 -7.698503,-5.724026 -3.879314,0 -7.097253,2.484239 -7.699755,5.724026 h -11.03544 c -0.691436,0 -1.252603,0.489849 -1.252603,1.093414 0,0.603564 0.561167,1.093414 1.252603,1.093414 h 11.03544 c 0.316909,1.704633 1.354065,3.197145 2.835895,4.231514 -6.155295,1.785547 -10.610807,6.850242 -10.610807,12.813726 v 7.434126 c 0,5.342423 3.518564,10.078001 9.027515,12.275764 v 4.376939 c -0.0012,3.102016 2.89101,5.627804 6.447152,5.627804 3.556142,0 6.447152,-2.525788 6.447152,-5.627804 v -4.376939 c 5.508951,-2.19667 9.027515,-6.932248 9.027515,-12.275764 v -7.434126 c 0,-5.964576 -4.456765,-11.028179 -10.610807,-12.813726 1.481831,-1.034369 2.518987,-2.526881 2.835895,-4.231514 h 11.036692 c 0.69269,0 1.252604,-0.48985 1.252604,-1.093414 0,-0.603565 -0.561167,-1.093414 -1.253856,-1.093414 z M 33.759546,71.374037 29.817602,69.487898 v -2.95878 l 3.340694,1.598571 c 0.06013,0.02844 0.124008,0.04483 0.186638,0.06451 0.03256,0.01093 0.06263,0.02516 0.09645,0.0339 0.103966,0.02296 0.210437,0.03608 0.316909,0.03608 0,0 0,0 0.0012,0 0.0012,0 0,0 0.0012,0 0.105218,0 0.21169,-0.01312 0.316908,-0.03608 0.03257,-0.0088 0.06263,-0.02297 0.0952,-0.0328 0.06389,-0.01968 0.127766,-0.03608 0.189144,-0.06561 l 3.339441,-1.598571 v 2.95878 z m 0,-5.452859 -3.900608,-1.866458 c 0.209185,-1.726501 1.867632,-3.081241 3.900608,-3.081241 2.032976,0 3.691424,1.35474 3.900608,3.081241 z m 0,10.409307 c -2.173267,0 -3.941944,-1.543902 -3.941944,-3.440975 v -0.907535 l 3.340694,1.598573 c 0.06013,0.02844 0.124008,0.04483 0.186638,0.06451 0.03256,0.01094 0.06263,0.02515 0.09645,0.0339 0.103966,0.02297 0.210437,0.03608 0.316909,0.03608 0,0 0,0 0.0012,0 0.0012,0 0,0 0.0012,0 0.105218,0 0.21169,-0.01312 0.316908,-0.03608 0.03257,-0.0088 0.06263,-0.02296 0.0952,-0.0328 0.06389,-0.01968 0.127766,-0.03608 0.189144,-0.06561 l 3.339441,-1.598573 v 0.907535 c -0.0012,1.897073 -1.769929,3.440975 -3.941944,3.440975 z m 12.96946,-27.527804 v 7.434126 c 0,4.13092 -2.508966,7.832128 -6.522308,9.826516 V 64.41336 c 0,-3.10311 -2.892262,-5.626712 -6.447152,-5.626712 -3.55489,0 -6.447152,2.524695 -6.447152,5.626712 v 1.649963 c -4.013342,-1.995482 -6.522307,-5.695596 -6.522307,-9.826516 v -7.434126 c 0,-6.242304 5.818344,-11.321215 12.969459,-11.321215 7.151115,0 12.96946,5.078911 12.96946,11.321215 z M 33.759546,35.294638 c -2.92483,0 -5.304777,-2.077489 -5.304777,-4.630611 0,-2.553123 2.379947,-4.630611 5.304777,-4.630611 2.92483,0 5.304777,2.077488 5.304777,4.630611 -0.0012,2.553122 -2.379947,4.630611 -5.304777,4.630611 z"
     id="path11409"
     style="fill:#6a6a6a;stroke-width:1.17031" />
  <path
     d="m 33.759546,56.512347 c 0.691437,0 1.252604,-0.488756 1.252604,-1.093415 v -8.325258 c 0,-0.603565 -0.561167,-1.093415 -1.252604,-1.093415 -0.691437,0 -1.252603,0.48985 -1.252603,1.093415 v 8.325258 c 0,0.604659 0.559914,1.093415 1.252603,1.093415 z"
     id="path11411"
     style="fill:#6a6a6a;stroke-width:1.17031" />
</svg>
