<?xml version="1.0" encoding="UTF-8" standalone="no"?>
<svg
   viewBox="0 0 14.835659 14.820333"
   version="1.1"
   x="0px"
   y="0px"
   id="svg10"
   sodipodi:docname="mountain.svg"
   width="14.835658"
   height="14.820333"
   inkscape:version="1.1.2 (0a00cf5339, 2022-02-04)"
   xmlns:inkscape="http://www.inkscape.org/namespaces/inkscape"
   xmlns:sodipodi="http://sodipodi.sourceforge.net/DTD/sodipodi-0.dtd"
   xmlns="http://www.w3.org/2000/svg"
   xmlns:svg="http://www.w3.org/2000/svg">
  <defs
     id="defs14" />
  <sodipodi:namedview
     id="namedview12"
     pagecolor="#ffffff"
     bordercolor="#666666"
     borderopacity="1.0"
     inkscape:pageshadow="2"
     inkscape:pageopacity="0.0"
     inkscape:pagecheckerboard="0"
     showgrid="false"
     fit-margin-top="0"
     fit-margin-left="0"
     fit-margin-right="0"
     fit-margin-bottom="0"
     inkscape:zoom="35.952754"
     inkscape:cx="7.3985988"
     inkscape:cy="7.2456202"
     inkscape:window-width="1850"
     inkscape:window-height="1025"
     inkscape:window-x="1990"
     inkscape:window-y="27"
     inkscape:window-maximized="1"
     inkscape:current-layer="svg10" />
  <g
     transform="translate(-1.0572633,-281.12171)"
     id="g4"
     style="fill:#4c4c4c">
    <path
       style="color:#000000;font-style:normal;font-variant:normal;font-weight:normal;font-stretch:normal;font-size:medium;line-height:normal;font-family:sans-serif;font-variant-ligatures:normal;font-variant-position:normal;font-variant-caps:normal;font-variant-numeric:normal;font-variant-alternates:normal;font-feature-settings:normal;text-indent:0;text-align:start;text-decoration:none;text-decoration-line:none;text-decoration-style:solid;text-decoration-color:#000000;letter-spacing:normal;word-spacing:normal;text-transform:none;writing-mode:lr-tb;direction:ltr;text-orientation:mixed;dominant-baseline:auto;baseline-shift:baseline;text-anchor:start;white-space:normal;shape-padding:0;clip-rule:nonzero;display:inline;overflow:visible;visibility:visible;opacity:1;isolation:auto;mix-blend-mode:normal;color-interpolation:sRGB;color-interpolation-filters:linearRGB;solid-color:#000000;solid-opacity:1;vector-effect:none;fill:#4c4c4c;fill-opacity:1;fill-rule:nonzero;stroke:none;stroke-width:0.529167;stroke-linecap:butt;stroke-linejoin:round;stroke-miterlimit:4;stroke-dasharray:none;stroke-dashoffset:0;stroke-opacity:1;color-rendering:auto;image-rendering:auto;shape-rendering:auto;text-rendering:auto;enable-background:accumulate"
       d="m 4.2286863,281.12176 a 0.26460982,0.26460982 0 0 0 -0.259932,0.26768 v 0.26562 h -0.265617 a 0.26460982,0.26460982 0 0 0 -0.02532,0 0.26460982,0.26460982 0 0 0 0.02532,0.5271 h 0.265617 v 0.26562 a 0.2648415,0.2648415 0 1 0 0.529683,0 v -0.26562 h 0.263552 a 0.26460982,0.26460982 0 1 0 0,-0.5271 h -0.263552 v -0.26562 a 0.26460982,0.26460982 0 0 0 -0.269751,-0.26768 z m 8.4666667,0 a 0.26460982,0.26460982 0 0 0 -0.259416,0.26768 v 0.26562 h -0.266133 a 0.26460982,0.26460982 0 0 0 -0.02532,0 0.26460982,0.26460982 0 0 0 0.02532,0.5271 h 0.266133 v 0.26562 a 0.2646485,0.2646485 0 1 0 0.529167,0 v -0.26562 h 0.263552 a 0.26460982,0.26460982 0 1 0 0,-0.5271 h -0.263552 v -0.26562 a 0.26460982,0.26460982 0 0 0 -0.269751,-0.26768 z m -4.2322987,1.05678 a 0.26460982,0.26460982 0 0 0 -0.02739,0.002 0.26460982,0.26460982 0 0 0 -0.234611,0.26765 v 0.26355 h -0.263548 a 0.26484267,0.26484267 0 1 0 0,0.52968 h 0.263548 v 0.26562 a 0.264843,0.264843 0 1 0 0.529686,0 v -0.26562 h 0.265615 a 0.26484267,0.26484267 0 1 0 0,-0.52968 h -0.265615 v -0.26355 a 0.26460982,0.26460982 0 0 0 -0.267685,-0.26924 z m -2.646349,2.11719 a 0.26460982,0.26460982 0 0 0 -0.259935,0.26923 v 0.26407 h -0.265615 a 0.26464501,0.26464501 0 1 0 0,0.52916 h 0.265615 v 0.26562 a 0.264648,0.264648 0 1 0 0.529167,0 v -0.26562 h 0.263552 a 0.26464501,0.26464501 0 1 0 0,-0.52916 h -0.263552 v -0.26407 a 0.26460982,0.26460982 0 0 0 -0.269232,-0.26923 z m 5.2906327,0 a 0.26460982,0.26460982 0 0 0 -0.259417,0.26923 v 0.26407 h -0.263548 a 0.26464501,0.26464501 0 1 0 0,0.52916 h 0.263548 v 0.26562 a 0.2646485,0.2646485 0 0 0 0.529167,0 v -0.26562 h 0.263549 a 0.26464501,0.26464501 0 1 0 0,-0.52916 h -0.263549 v -0.26407 a 0.26460982,0.26460982 0 0 0 -0.26975,-0.26923 z m -0.804604,2.1208 a 0.26460977,0.26460977 0 0 0 -0.212905,0.13074 l -2.4628997,4.18786 -1.579748,-2.60346 a 0.26460977,0.26460977 0 0 0 -0.453202,0 l -4.4979174,7.40782 a 0.26460977,0.26460977 0 0 0 0.2263428,0.40255 H 15.626958 a 0.26460977,0.26460977 0 0 0 0.228409,-0.40049 l -5.308203,-8.99428 a 0.26460977,0.26460977 0 0 0 -0.24443,-0.13074 z m 0.01603,0.78703 1.434539,2.43086 -0.376206,0.3762 -0.871265,-0.87126 a 0.26460977,0.26460977 0 0 0 -0.216524,-0.076 0.26460977,0.26460977 0 0 0 -0.158128,0.076 l -0.8712647,0.87126 -0.372589,-0.37258 z m -4.4984327,1.57613 1.465543,2.41174 -0.406694,0.40669 -0.871265,-0.87074 a 0.26460977,0.26460977 0 0 0 -0.191201,-0.0786 0.26460977,0.26460977 0 0 0 -0.18397,0.0786 l -0.870746,0.87074 -0.406178,-0.40617 z m 4.4979167,0.92191 0.871265,0.87126 a 0.26460977,0.26460977 0 0 0 0.375169,0 l 0.467156,-0.46715 3.132624,5.30717 H 5.4906383 l 3.118673,-5.30304 0.463021,0.46302 a 0.26460977,0.26460977 0 0 0 0.375171,0 z m -4.4979167,1.58802 0.871265,0.87126 a 0.26460977,0.26460977 0 0 0 0.0677,0.0491 l -1.884124,3.20291 H 1.7931771 l 2.2799642,-3.75533 0.50333,0.50333 a 0.26460977,0.26460977 0 0 0 0.373102,0 z"
       id="path2" />
  </g>
</svg>
