<?xml version="1.0" encoding="UTF-8" standalone="no"?>
<svg
   version="1.1"
   viewBox="-5 -10 78.32 97.164352"
   id="svg1359"
   sodipodi:docname="noun-factory-6701071.svg"
   width="78.32"
   height="97.164352"
   xmlns:inkscape="http://www.inkscape.org/namespaces/inkscape"
   xmlns:sodipodi="http://sodipodi.sourceforge.net/DTD/sodipodi-0.dtd"
   xmlns="http://www.w3.org/2000/svg"
   xmlns:svg="http://www.w3.org/2000/svg">
  <defs
     id="defs1363" />
  <sodipodi:namedview
     id="namedview1361"
     pagecolor="#ffffff"
     bordercolor="#000000"
     borderopacity="0.25"
     inkscape:showpageshadow="2"
     inkscape:pageopacity="0.0"
     inkscape:pagecheckerboard="0"
     inkscape:deskcolor="#d1d1d1"
     showgrid="false" />
  <path
     d="m 40.757213,39.698928 h 9.6016 l 1.7891,-17.367 c 0,-0.05078 0.03125,-0.11719 0.03125,-0.14844 l 0.46484,-4.3906 v -0.16797 l 0.69531,-6.707 c 0.08594,-0.60938 0.57812,-1.043 1.125,-1.043 h 1.1562 c -0.49609,-0.74609 -1.1914,-1.3281 -2.0195,-1.707 -1.125,-0.51562 -2.5156,-0.63281 -3.9062,-0.31641 l -9.4219,2.1055 c -0.11719,0.03125 -0.23047,0.05078 -0.34766,0.05078 -1.3906,0 -2.6328,-0.54688 -3.5273,-1.4414 -0.49609,-0.51563 -0.89453,-1.1562 -1.1562,-1.8516 h -0.05078 c -0.54688,0.16797 -1.125,0.26172 -1.7383,0.26172 -1.6211,0 -3.0625,-0.63281 -4.1367,-1.707 -1.0742,-1.0742 -1.707,-2.5156 -1.707,-4.1367 0,-0.42969 0.03125,-0.84375 0.11719,-1.2422 0.11719,-0.42969 0.23047,-0.84375 0.39844,-1.2109 0.26172,-0.54688 0.95703,-0.80859 1.5039,-0.54688 0.57812,0.26172 0.84375,0.92578 0.57812,1.5039 -0.11719,0.23047 -0.19922,0.46484 -0.26172,0.72656 -0.05078,0.26172 -0.08594,0.51563 -0.08594,0.77734 0,0.98047 0.39844,1.875 1.0742,2.5469 0.63281,0.63281 1.5352,1.043 2.5156,1.043 0.37891,0 0.74609,-0.05078 1.0742,-0.16797 0.31641,-0.08594 0.63281,-0.23047 0.89453,-0.39844 0.19922,-0.14844 0.42969,-0.23047 0.69531,-0.23047 0.63281,0 1.125,0.49609 1.125,1.125 0,0.77734 0.28516,1.4414 0.77734,1.9375 0.46484,0.46484 1.0742,0.74609 1.8203,0.77734 l 9.3359,-2.1367 c 1.9062,-0.42969 3.7891,-0.23047 5.3477,0.49609 1.6211,0.72656 2.8945,1.9688 3.5586,3.6094 0,0.05078 0.03125,0.11719 0.03125,0.14844 h 4.043 c -0.51562,-2.2227 -1.9688,-3.957 -3.7578,-5.1797 -2.3359,-1.5898 -5.2305,-2.2852 -7.5156,-1.9883 -1.2109,0.16797 -2.4297,0.39844 -3.6094,0.69531 -1.1562,0.28516 -2.2852,0.60938 -3.3281,0.95703 -0.31641,0.42969 -0.89453,0.60938 -1.3906,0.37891 -0.57812,-0.26172 -0.80859,-0.95703 -0.54687,-1.5039 0.08594,-0.23047 0.16797,-0.49609 0.23047,-0.72656 0.05078,-0.26172 0.08594,-0.51562 0.08594,-0.77734 0,-0.98047 -0.39844,-1.875 -1.043,-2.5469 -0.66406,-0.63281 -1.5586,-1.043 -2.5469,-1.043 -0.37891,0 -0.72656,0.050781 -1.0742,0.14844 -0.31641,0.11719 -0.63281,0.26172 -0.92578,0.46484 -0.05078,0.03125 -0.08594,0.05078 -0.14844,0.08594 h -0.03125 c -0.06641,0.03516 -0.16016,0.06641 -0.27734,0.06641 l -0.03125,0.03125 h -0.03125 c -0.16797,0.03125 -0.37891,0 -0.54688,-0.08594 h -0.05469 l -0.03125,-0.03125 h -0.03125 l -0.03125,-0.03125 h -0.03125 l -0.0625,-0.0625 h -0.03125 v -0.03125 h -0.03125 c -0.14844,-0.11719 -0.23047,-0.23047 -0.31641,-0.37891 v -0.019532 c -0.05078,-0.085937 -0.08594,-0.19922 -0.08594,-0.28516 l -0.03125,-0.03125 v -0.03125 c -0.03125,-0.19922 0,-0.37891 0.08594,-0.54688 V -2.64843 c 0.11719,-0.23047 0.19922,-0.49609 0.26172,-0.74609 0.05078,-0.23047 0.08594,-0.49609 0.08594,-0.74609 0,-1.0117 -0.39844,-1.9062 -1.0742,-2.5469 -0.63281,-0.63281 -1.5352,-1.043 -2.5156,-1.043 -0.37891,0 -0.74609,0.050782 -1.0742,0.14844 -0.34766,0.11719 -0.66406,0.26172 -0.95703,0.46484 -0.51562,0.34766 -1.2109,0.23047 -1.5898,-0.28516 -0.34766,-0.51563 -0.19922,-1.2422 0.31641,-1.5898 0.46484,-0.31641 1.0117,-0.57812 1.5586,-0.74609 0.5469,-0.16797 1.125,-0.26172 1.7383,-0.26172 1.6211,0 3.0625,0.66406 4.1367,1.707 1.0742,1.0742 1.707,2.5469 1.707,4.1562 v 0.11719 c 0.37891,-0.050781 0.72656,-0.11719 1.0938,-0.11719 1.6211,0 3.0625,0.66406 4.1367,1.7383 1.0742,1.043 1.707,2.5156 1.707,4.1367 v 0.05078 c 0.72656,-0.19922 1.4219,-0.39844 2.1367,-0.57812 1.2734,-0.31641 2.5703,-0.54688 3.8438,-0.72656 2.8008,-0.37891 6.3047,0.46484 9.1055,2.3359 2.3672,1.6211 4.2539,3.9883 4.8008,7.0508 h 1.5586 c 0.60938,0 1.125,0.49609 1.125,1.0938 l 0.66406,6.3047 c 0.08594,0.16797 0.14844,0.34766 0.14844,0.54688 0,0.11719 -0.03125,0.23047 -0.05078,0.31641 l 0.37891,3.7578 c 0.08594,0.14844 0.11719,0.31641 0.11719,0.49609 0,0.05078 0,0.14844 -0.03125,0.23047 l 1.7695,17.086 h 2.0859 c 0.63281,0 1.125,0.49609 1.125,1.125 v 45.18 c 0,0.63281 -0.49609,1.1562 -1.125,1.1562 h -76.07 c -0.63281,0 -1.125,-0.51562 -1.125,-1.1562 v -61.105 c 0,-0.60938 0.49609,-1.125 1.125,-1.125 0.14844,0 0.31641,0.03125 0.42969,0.08594 l 20.18,7.1367 v -6.0938 c 0,-0.60938 0.51562,-1.125 1.125,-1.125 0.16797,0 0.31641,0.03125 0.46484,0.08594 l 21.672,7.6836 c 0.46484,0.16797 0.74609,0.60938 0.74609,1.0742 l 0.0039,7.0742 z m -37.863,-0.03125 h 21.652 c 0.63281,0 1.125,0.51562 1.125,1.1562 v 3.9883 c 0,0.63281 -0.49609,1.125 -1.125,1.125 l -21.652,0.0039 c -0.63281,0 -1.125,-0.49609 -1.125,-1.125 v -3.9883 c 0,-0.63281 0.48438,-1.1602 1.125,-1.1602 z m 20.527,2.2852 h -19.402 v 1.7383 h 19.398 z m 31.125,-20.727 h 11.391 l -0.23047,-2.2852 h -10.93 z m 11.621,2.2852 h -11.852 l -1.6719,16.191 h 15.199 z m -11.156,-6.8203 h 10.465 l -0.46484,-4.5391 h -9.5039 z m -23.906,48.008 h 7.1367 c 0.60938,0 1.125,0.49609 1.125,1.125 v 13.242 c 0,0.63281 -0.51562,1.125 -1.125,1.125 h -7.1367 c -0.63281,0 -1.1562,-0.49609 -1.1562,-1.125 l -0.0039,-13.238 c 0,-0.63281 0.52734,-1.1289 1.1602,-1.1289 z m 5.9766,2.2656 h -4.8516 v 10.977 h 4.8516 z m 7.2852,-2.2656 h 7.1367 c 0.63281,0 1.125,0.49609 1.125,1.125 v 13.242 c 0,0.63281 -0.49609,1.125 -1.125,1.125 h -7.1367 c -0.63281,0 -1.125,-0.49609 -1.125,-1.125 v -13.238 c 0,-0.63281 0.49609,-1.1289 1.125,-1.1289 z m 6.0117,2.2656 h -4.8828 v 10.977 h 4.8828 z m 7.2617,-2.2656 h 7.1367 c 0.63281,0 1.125,0.49609 1.125,1.125 v 13.242 c 0,0.63281 -0.49609,1.125 -1.125,1.125 l -7.1367,0.0039 c -0.63281,0 -1.125,-0.49609 -1.125,-1.125 v -13.242 c 0,-0.63281 0.48438,-1.1289 1.125,-1.1289 z m 6.0117,2.2656 h -4.8828 v 10.977 h 4.8828 z m -32.547,-15.062 h 7.1367 c 0.60938,0 1.125,0.49609 1.125,1.125 v 5.6641 c 0,0.63281 -0.51562,1.125 -1.125,1.125 h -7.1367 c -0.63281,0 -1.1562,-0.49609 -1.1562,-1.125 v -5.6641 c -0.0039,-0.63281 0.52344,-1.125 1.1562,-1.125 z m 5.9766,2.25 h -4.8516 v 3.4102 h 4.8516 z m 7.2852,-2.25 h 7.1367 c 0.63281,0 1.125,0.49609 1.125,1.125 v 5.6641 c 0,0.63281 -0.49609,1.125 -1.125,1.125 h -7.1367 c -0.63281,0 -1.125,-0.49609 -1.125,-1.125 v -5.6641 c 0,-0.63281 0.49609,-1.125 1.125,-1.125 z m 6.0117,2.25 h -4.8828 v 3.4102 h 4.8828 z m 7.2617,-2.25 h 7.1367 c 0.63281,0 1.125,0.49609 1.125,1.125 v 5.6641 c 0,0.63281 -0.49609,1.125 -1.125,1.125 h -7.1367 c -0.63281,0 -1.125,-0.49609 -1.125,-1.125 v -5.6641 c 0,-0.63281 0.48438,-1.125 1.125,-1.125 z m 6.0117,2.25 h -4.8828 v 3.4102 h 4.8828 z m -60.758,-2.25 h 21.852 c 0.60938,0 1.125,0.49609 1.125,1.125 v 31.852 h 45.211 v -42.926 h -31.449 c -0.63281,0 -1.125,-0.49609 -1.125,-1.125 v -7.3984 l -19.484,-6.9062 v 6.0938 c 0,0.11719 -0.03125,0.26172 -0.08594,0.37891 -0.19922,0.57812 -0.84375,0.89453 -1.4414,0.69531 l -20.23,-7.168 v 58.359 h 4.5039 v -31.855 c 0,-0.63281 0.48438,-1.125 1.125,-1.125 z m 20.695,2.25 h -19.57 v 30.727 h 19.57 z"
     id="path1353"
     style="fill:#6a6a6a" />
</svg>
