<?xml version="1.0" encoding="UTF-8" standalone="no"?>
<svg
   data-name="Layer 1"
   viewBox="0 0 75 82.505669"
   x="0px"
   y="0px"
   version="1.1"
   id="svg268"
   sodipodi:docname="nirvana.svg"
   width="75"
   height="82.505669"
   inkscape:version="1.2.2 (b0a8486541, 2022-12-01)"
   xmlns:inkscape="http://www.inkscape.org/namespaces/inkscape"
   xmlns:sodipodi="http://sodipodi.sourceforge.net/DTD/sodipodi-0.dtd"
   xmlns="http://www.w3.org/2000/svg"
   xmlns:svg="http://www.w3.org/2000/svg">
  <defs
     id="defs272" />
  <sodipodi:namedview
     id="namedview270"
     pagecolor="#ffffff"
     bordercolor="#000000"
     borderopacity="0.25"
     inkscape:showpageshadow="2"
     inkscape:pageopacity="0.0"
     inkscape:pagecheckerboard="0"
     inkscape:deskcolor="#d1d1d1"
     showgrid="false"
     inkscape:zoom="6.512"
     inkscape:cx="37.62285"
     inkscape:cy="53.746929"
     inkscape:window-width="1920"
     inkscape:window-height="1044"
     inkscape:window-x="0"
     inkscape:window-y="0"
     inkscape:window-maximized="1"
     inkscape:current-layer="svg268" />
  <path
     d="m 72.079,49.829 -11.608,-8.278 -6,-11.988 A 9.334,9.334 0 0 0 46.079,24.381 H 28.918 a 9.333,9.333 0 0 0 -8.392,5.183 l -6,11.987 -11.589,8.268 a 6.76,6.76 0 0 0 -2.1,8.744 6.449,6.449 0 0 0 7.257,3.106 7.547,7.547 0 0 0 4.906,7.832 l 5.3,1.929 a 7.5,7.5 0 0 0 -0.9,3.515 7.781,7.781 0 0 0 0.452,2.6 7.613,7.613 0 0 0 7.134,4.955 7.535,7.535 0 0 0 2.561,-0.449 l 9.953,-3.631 9.954,3.623 a 7.528,7.528 0 0 0 9.245,-10.6 l 5.312,-1.934 a 7.588,7.588 0 0 0 4.96,-7.1 c 0,-0.244 -0.039,-0.486 -0.062,-0.729 a 6.466,6.466 0 0 0 7.354,-3.287 6.713,6.713 0 0 0 -2.184,-8.564 z m -47.713,7.728 -6.2,-2.255 C 18.09,55.274 18.01,55.267 17.934,55.242 l 5.551,-3.962 a 6.446,6.446 0 0 0 0.879,-0.753 z m 1.9,20.968 a 3.843,3.843 0 0 1 -4.889,-2.255 3.979,3.979 0 0 1 -0.228,-1.325 3.766,3.766 0 0 1 0.725,-2.212 l 10.148,3.693 z m 27.351,-2.28 a 3.808,3.808 0 0 1 -4.88,2.275 L 14.28,65.978 a 3.8064631,3.8064631 0 1 1 2.606,-7.153 l 34.457,12.54 a 3.813,3.813 0 0 1 2.276,4.88 z m 7.11,-10.262 -6.816,2.481 a 7.537,7.537 0 0 0 -1.287,-0.622 v 0 l -9.644,-3.511 15.127,-5.51 a 3.84,3.84 0 0 1 4.893,2.255 3.979,3.979 0 0 1 0.228,1.325 3.825,3.825 0 0 1 -2.499,3.582 z M 50.634,57.551 v -7.023 a 6.507,6.507 0 0 0 0.874,0.749 l 5.55,3.961 c -0.077,0.025 -0.155,0.031 -0.231,0.058 z M 70.957,56.619 A 2.876,2.876 0 0 1 66.826,57.6 L 53.688,48.225 a 2.819,2.819 0 0 1 -0.88,-1.029 l -2.372,-4.739 a 1.875,1.875 0 0 0 -3.552,0.838 V 58.919 L 37.5,62.337 28.115,58.922 V 43.295 A 1.875,1.875 0 0 0 24.563,42.457 L 22.2,47.19 a 2.828,2.828 0 0 1 -0.886,1.036 l -13.14,9.375 a 2.815,2.815 0 0 1 -4.089,-0.9 2.984,2.984 0 0 1 1.031,-3.826 l 11.971,-8.544 a 1.875,1.875 0 0 0 0.588,-0.687 l 6.206,-12.4 a 5.6,5.6 0 0 1 5.037,-3.111 h 17.164 a 5.6,5.6 0 0 1 5.037,3.11 l 6.206,12.4 a 1.875,1.875 0 0 0 0.588,0.687 L 69.9,52.882 a 3,3 0 0 1 1.057,3.738 z"
     id="path252"
     style="fill:#6a6a6a" />
  <path
     d="M 49.688,12.189 A 12.188,12.188 0 1 0 37.5,24.376 12.2,12.2 0 0 0 49.688,12.189 Z M 37.5,20.626 a 8.438,8.438 0 1 1 8.438,-8.437 8.447,8.447 0 0 1 -8.438,8.437 z"
     id="path254"
     style="fill:#6a6a6a" />
  <path
     d="m 7.5,18.751 h 1.875 v 1.875 a 1.875,1.875 0 0 0 3.75,0 V 18.751 H 15 a 1.875,1.875 0 0 0 0,-3.75 h -1.875 v -1.875 a 1.875,1.875 0 0 0 -3.75,0 v 1.875 H 7.5 a 1.875,1.875 0 0 0 0,3.75 z"
     id="path256"
     style="fill:#6a6a6a" />
  <path
     d="m 65.625,30.001 a 1.875,1.875 0 0 0 0,3.75 H 67.5 v 1.875 a 1.875,1.875 0 0 0 3.75,0 v -1.875 h 1.875 a 1.875,1.875 0 0 0 0,-3.75 H 71.25 v -1.875 a 1.875,1.875 0 0 0 -3.75,0 v 1.875 z"
     id="path258"
     style="fill:#6a6a6a" />
  <circle
     cx="63.75"
     cy="15.001"
     r="1.875"
     id="circle260"
     style="fill:#6a6a6a" />
  <circle
     cx="1.875"
     cy="31.875999"
     r="1.875"
     id="circle262"
     style="fill:#6a6a6a" />
</svg>
