<?xml version="1.0" encoding="UTF-8" standalone="no"?>
<svg
   viewBox="0 0 66.720001 93.304176"
   fill="none"
   x="0px"
   y="0px"
   version="1.1"
   id="svg8"
   sodipodi:docname="no-place.svg"
   width="66.720001"
   height="93.304176"
   inkscape:version="1.1.2 (0a00cf5339, 2022-02-04)"
   xmlns:inkscape="http://www.inkscape.org/namespaces/inkscape"
   xmlns:sodipodi="http://sodipodi.sourceforge.net/DTD/sodipodi-0.dtd"
   xmlns="http://www.w3.org/2000/svg"
   xmlns:svg="http://www.w3.org/2000/svg">
  <defs
     id="defs12" />
  <sodipodi:namedview
     id="namedview10"
     pagecolor="#ffffff"
     bordercolor="#666666"
     borderopacity="1.0"
     inkscape:pageshadow="2"
     inkscape:pageopacity="0.0"
     inkscape:pagecheckerboard="0"
     showgrid="false"
     inkscape:zoom="4.75625"
     inkscape:cx="33.009198"
     inkscape:cy="63.495401"
     inkscape:window-width="1654"
     inkscape:window-height="1078"
     inkscape:window-x="1983"
     inkscape:window-y="44"
     inkscape:window-maximized="0"
     inkscape:current-layer="svg8"
     fit-margin-top="0"
     fit-margin-left="0"
     fit-margin-right="0"
     fit-margin-bottom="0" />
  <path
     fill-rule="evenodd"
     clip-rule="evenodd"
     d="M 13.3064,13.3065 C 18.6249,7.9879 25.8384,5 33.36,5 40.8815,5 48.095,7.9879 53.4135,13.3065 58.732,18.625 61.72,25.8385 61.72,33.36 c 0,2.7671 -1.1018,6.7202 -3.146,11.5284 -2.0146,4.7382 -4.8293,10.0474 -8.001,15.436 -5.2804,8.9711 -11.4741,18.0342 -16.41,24.8394 -0.3973,0.548 -1.2101,0.548 -1.6074,0 C 27.6201,78.3621 21.427,69.2997 16.147,60.3282 12.9753,54.9391 10.1606,49.6289 8.146,44.8899 6.1017,40.0809 5,36.1272 5,33.36 5,25.8385 7.9879,18.625 13.3064,13.3065 Z M 33.36,0 C 24.5123,0 16.0271,3.5147 9.7709,9.7709 3.5147,16.0271 0,24.5124 0,33.36 c 0,3.8179 1.4432,8.5428 3.5445,13.486 2.1311,5.0132 5.0626,10.5287 8.2934,16.0183 6.464,10.9832 14.2361,22.0475 19.521,29.1045 l 0.4004,0.534 c 0.8001,1.069 2.4023,1.068 3.202,0 l 0.4002,-0.535 C 40.646,84.9068 48.418,73.8426 54.882,62.8606 58.1128,57.3717 61.0442,51.8572 63.1753,46.8448 65.2767,41.9023 66.72,37.1779 66.72,33.36 66.72,24.5124 63.2053,16.0271 56.949,9.7709 50.6928,3.5147 42.2076,0 33.36,0 Z M 19.69,32.02 c 0,-7.2018 5.8382,-13.04 13.04,-13.04 7.2018,0 13.04,5.8382 13.04,13.04 0,7.2018 -5.8382,13.04 -13.04,13.04 -7.2018,0 -13.04,-5.8382 -13.04,-13.04 z M 32.73,13.98 c -9.9632,0 -18.04,8.0768 -18.04,18.04 0,9.9632 8.0768,18.04 18.04,18.04 9.9632,0 18.04,-8.0768 18.04,-18.04 0,-9.9632 -8.0768,-18.04 -18.04,-18.04 z"
     fill="#000000"
     id="path2" />
  <g
     transform="matrix(1.3929318,0,0,1.3511878,-35.744728,-1311.3876)"
     id="g4">
    <path
       style="color:#000000;text-indent:0;text-transform:none;direction:ltr;baseline-shift:baseline;enable-background:accumulate"
       d="m 79.754241,970.6088 a 2.000005,2.000005 0 0 1 1.3934,3.43406 l -59.48003,59.47994 a 2.000005,2.000005 0 1 1 -2.8284,-2.8284 l 59.48003,-59.47998 a 2.000005,2.000005 0 0 1 1.435,-0.60562 z"
       fill="#000000"
       fill-opacity="1"
       fill-rule="evenodd"
       stroke="none"
       marker="none"
       visibility="visible"
       display="inline"
       overflow="visible"
       id="path2-6" />
  </g>
</svg>
