<?xml version="1.0" encoding="UTF-8" standalone="no"?>
<svg
   data-name="Layer 2"
   viewBox="0 0 88 71.029755"
   x="0px"
   y="0px"
   version="1.1"
   id="svg12"
   sodipodi:docname="no-smoking.svg"
   width="88"
   height="71.029755"
   inkscape:version="1.2.2 (b0a8486541, 2022-12-01)"
   xmlns:inkscape="http://www.inkscape.org/namespaces/inkscape"
   xmlns:sodipodi="http://sodipodi.sourceforge.net/DTD/sodipodi-0.dtd"
   xmlns="http://www.w3.org/2000/svg"
   xmlns:svg="http://www.w3.org/2000/svg">
  <defs
     id="defs16" />
  <sodipodi:namedview
     id="namedview14"
     pagecolor="#ffffff"
     bordercolor="#000000"
     borderopacity="0.25"
     inkscape:showpageshadow="2"
     inkscape:pageopacity="0.0"
     inkscape:pagecheckerboard="0"
     inkscape:deskcolor="#d1d1d1"
     showgrid="false"
     inkscape:zoom="6.512"
     inkscape:cx="44.072482"
     inkscape:cy="48.065111"
     inkscape:window-width="1860"
     inkscape:window-height="1012"
     inkscape:window-x="0"
     inkscape:window-y="0"
     inkscape:window-maximized="1"
     inkscape:current-layer="svg12" />
  <path
     d="M 86.5,26.880688 H 54.305 L 78.625,2.5616883 A 1.5011884,1.5011884 0 0 0 76.5,0.44068835 L 50.06,26.880688 H 17.533 a 1.5,1.5 0 0 0 0,3 h 29.53 l -11.288,11.288 H 17.533 a 1.5,1.5 0 1 0 0,3 h 15.242 l -24.319,24.319 a 1.5,1.5 0 0 0 2.121,2.121 l 26.44,-26.44 H 86.5 a 1.5,1.5 0 0 0 1.5,-1.5 v -14.288 a 1.5,1.5 0 0 0 -1.5,-1.5 z m -35.195,3 h 12.144 v 11.288 H 40.017 Z M 85,41.168688 H 66.449 v -11.288 H 85 Z"
     id="path2"
     style="fill:#666666" />
  <path
     d="m 9.517,44.168688 a 1.5,1.5 0 0 0 1.5,-1.5 v -14.288 a 1.5,1.5 0 0 0 -3,0 v 14.288 a 1.5,1.5 0 0 0 1.5,1.5 z"
     id="path4"
     style="fill:#666666" />
  <path
     d="m 1.5,26.880688 a 1.5,1.5 0 0 0 -1.5,1.5 v 14.288 a 1.5,1.5 0 1 0 3,0 v -14.288 a 1.5,1.5 0 0 0 -1.5,-1.5 z"
     id="path6"
     style="fill:#666666" />
</svg>
