<?xml version="1.0" encoding="UTF-8" standalone="no"?>
<svg
   xml:space="preserve"
   style="image-rendering:optimizeQuality;shape-rendering:geometricPrecision;text-rendering:geometricPrecision"
   viewBox="0 0 16 16"
   x="0px"
   y="0px"
   fill-rule="evenodd"
   clip-rule="evenodd"
   version="1.1"
   id="svg85"
   sodipodi:docname="noun-distance-2614636_croped.svg"
   inkscape:version="1.1.2 (0a00cf5339, 2022-02-04)"
   width="16"
   height="16"
   xmlns:inkscape="http://www.inkscape.org/namespaces/inkscape"
   xmlns:sodipodi="http://sodipodi.sourceforge.net/DTD/sodipodi-0.dtd"
   xmlns="http://www.w3.org/2000/svg"
   xmlns:svg="http://www.w3.org/2000/svg"><sodipodi:namedview
     id="namedview87"
     pagecolor="#ffffff"
     bordercolor="#666666"
     borderopacity="1.0"
     inkscape:pageshadow="2"
     inkscape:pageopacity="0.0"
     inkscape:pagecheckerboard="0"
     showgrid="false"
     inkscape:zoom="22.412131"
     inkscape:cx="6.9158974"
     inkscape:cy="16.263514"
     inkscape:window-width="1850"
     inkscape:window-height="1025"
     inkscape:window-x="1990"
     inkscape:window-y="27"
     inkscape:window-maximized="1"
     inkscape:current-layer="svg85"
     units="px"
     objecttolerance="20"
     guidetolerance="20"
     gridtolerance="10" /><defs
     id="defs67"><style
       type="text/css"
       id="style65">
   
    .fil2 {fill:none}
    .fil0 {fill:black}
    .fil1 {fill:black;fill-rule:nonzero}
   
  </style></defs><rect
     class="fil2"
     width="6.8266602"
     height="6.8266602"
     id="rect79"
     x="0"
     y="0" /><g
     id="g77"
     style="image-rendering:optimizeQuality;shape-rendering:geometricPrecision;text-rendering:geometricPrecision"
     transform="matrix(3.0180721,0,0,3.1203648,-2.7899563,-2.6688923)"
     clip-path="none"><g
       id="g75"><path
         class="fil0"
         d="m 5.33508,0.863232 c 0.308315,0 0.558252,0.249941 0.558252,0.558256 0,0.308315 -0.421142,0.878232 -0.558252,1.07663 C 5.217631,2.33524 4.776824,1.729799 4.776824,1.421488 c 0,-0.308315 0.249937,-0.558256 0.558256,-0.558256 z m 0,0.288217 c 0.127114,0 0.230161,0.103047 0.230161,0.230165 0,0.127114 -0.103047,0.230165 -0.230161,0.230165 -0.127118,0 -0.230165,-0.103051 -0.230165,-0.230165 0,-0.127118 0.103047,-0.230165 0.230165,-0.230165 z"
         id="path69" /><path
         class="fil1"
         d="M 5.19669,2.61695 C 5.266304,2.601722 5.283178,2.510753 5.22356,2.471592 5.205568,2.45995 5.184316,2.456076 5.163351,2.460462 5.124698,2.468732 5.086245,2.480092 5.047945,2.490017 5.034142,2.493597 5.020307,2.497087 5.006429,2.50036 4.968945,2.50944 4.943527,2.543155 4.945043,2.581667 4.947423,2.632037 4.994472,2.667494 5.043531,2.655998 5.087106,2.645711 5.130031,2.633376 5.173405,2.622407 5.181165,2.620497 5.188877,2.618627 5.196689,2.616947 Z M 1.74289,5.80354 C 1.706788,5.80547 1.676886,5.830662 1.668803,5.865882 1.657338,5.917685 1.697937,5.965768 1.750858,5.963343 l 0.00128,-6.3e-5 0.0043,-2.165e-4 0.00431,-2.126e-4 0.00435,-2.205e-4 0.00435,-2.165e-4 0.00432,-2.205e-4 0.00432,-2.165e-4 0.00437,-2.205e-4 0.00437,-2.244e-4 0.00434,-2.244e-4 0.00434,-2.205e-4 0.00438,-2.244e-4 0.00435,-2.244e-4 0.00439,-2.244e-4 0.00439,-2.323e-4 0.00432,-2.244e-4 0.00439,-2.284e-4 0.0044,-2.322e-4 0.00433,-2.284e-4 0.0044,-2.283e-4 0.00441,-2.363e-4 0.00437,-2.322e-4 0.00437,-2.323e-4 0.00441,-2.323e-4 0.00438,-2.362e-4 0.00437,-2.323e-4 0.00441,-2.402e-4 0.00438,-2.362e-4 0.00441,-2.362e-4 0.00438,-2.402e-4 0.00438,-2.362e-4 0.00437,-2.401e-4 0.00438,-2.363e-4 0.00441,-2.441e-4 0.00441,-2.401e-4 0.00438,-2.441e-4 0.00433,-2.402e-4 0.00168,-9.05e-5 c 0.062795,-0.00383 0.096905,-0.07413 0.061039,-0.125878 -0.01611,-0.022689 -0.042079,-0.035366 -0.069898,-0.033878 l -0.0016,9.05e-5 -0.00441,2.402e-4 -0.00437,2.441e-4 -0.00434,2.401e-4 -0.00433,2.363e-4 -0.00438,2.362e-4 -0.00437,2.401e-4 -0.00438,2.363e-4 -0.00438,2.401e-4 -0.00434,2.362e-4 -0.00438,2.363e-4 -0.00434,2.322e-4 -0.00437,2.323e-4 -0.00438,2.362e-4 -0.00434,2.323e-4 -0.00437,2.323e-4 -0.00437,2.323e-4 -0.00433,2.283e-4 -0.00434,2.284e-4 -0.0044,2.283e-4 -0.00433,2.323e-4 -0.00433,2.205e-4 -0.00439,2.323e-4 -0.00433,2.244e-4 -0.00432,2.244e-4 -0.00435,2.244e-4 -0.00432,2.244e-4 -0.00435,2.205e-4 -0.00434,2.244e-4 -0.0043,2.165e-4 -0.0043,2.205e-4 -0.00434,2.165e-4 -0.00433,2.205e-4 -0.00429,2.165e-4 -0.00428,2.126e-4 -0.00432,2.126e-4 -0.00431,2.166e-4 z M 2.380142,5.765505 C 2.308603,5.770965 2.279504,5.859536 2.333977,5.906312 2.35017,5.919895 2.370193,5.926564 2.391316,5.925111 2.423781,5.922871 2.456599,5.920801 2.488985,5.917671 l 0.00304,-3.268e-4 0.00588,-6.693e-4 0.00591,-6.85e-4 0.00591,-6.89e-4 0.00588,-6.929e-4 0.00587,-7.008e-4 0.0059,-7.086e-4 0.00588,-7.166e-4 0.00587,-7.205e-4 0.00589,-7.283e-4 0.0059,-7.362e-4 0.0042,-5.355e-4 C 2.592024,5.9049315 2.62045,5.8759425 2.62456,5.8389625 2.62993,5.7873795 2.586304,5.7447185 2.534887,5.7510455 l -0.00398,5.04e-4 -0.00567,7.126e-4 -0.00568,7.047e-4 -0.0057,6.969e-4 -0.0057,6.929e-4 -0.00569,6.85e-4 -0.00571,6.772e-4 -0.00571,6.771e-4 -0.00569,6.654e-4 -0.00569,6.535e-4 -0.00572,6.536e-4 c -0.027193,0.00272 -0.054854,0.00437 -0.082134,0.00631 z M 2.991111,5.659662 C 2.928016,5.679851 2.914792,5.762957 2.968946,5.801406 c 0.020591,0.014413 0.045992,0.018374 0.07,0.010941 l 0.00431,-0.00134 0.00496,-0.00157 0.00489,-0.00156 0.00493,-0.00159 0.00488,-0.00159 0.00488,-0.00161 0.00485,-0.00162 0.00483,-0.00163 0.00481,-0.00164 0.00479,-0.00165 0.00476,-0.00166 0.00476,-0.00168 0.00476,-0.0017 0.0047,-0.0017 0.0047,-0.00172 0.00467,-0.00172 0.00463,-0.00173 0.00467,-0.00176 0.00461,-0.00177 0.00458,-0.00177 0.00456,-0.00179 0.00455,-0.0018 0.00455,-0.00183 0.00452,-0.00183 0.00448,-0.00184 0.00445,-0.00185 0.00443,-0.00187 0.00442,-0.00189 0.00443,-0.00191 0.00439,-0.00192 0.00433,-0.00193 0.00431,-0.00193 0.00433,-0.00197 0.00429,-0.00197 0.00262,-0.00122 C 3.257647,5.723988 3.260312,5.640803 3.203096,5.609256 3.180513,5.596803 3.153903,5.596173 3.130561,5.606956 l -0.00189,8.819e-4 -0.00357,0.00165 -0.00359,0.00163 -0.00366,0.00164 -0.00369,0.00163 -0.00368,0.00161 -0.0037,0.0016 -0.00376,0.0016 -0.0038,0.0016 -0.00383,0.00159 -0.00386,0.00159 -0.00387,0.00157 -0.00388,0.00156 -0.00394,0.00156 -0.00398,0.00156 -0.004,0.00155 -0.00402,0.00154 -0.00402,0.00152 -0.0041,0.00153 -0.00411,0.00152 -0.00412,0.0015 -0.00417,0.00151 -0.00415,0.00148 -0.00421,0.00148 -0.00424,0.00148 -0.00427,0.00147 -0.00428,0.00146 -0.00432,0.00145 -0.00433,0.00144 -0.00436,0.00143 -0.00439,0.00143 -0.00439,0.00141 -0.00446,0.00142 -0.00444,0.0014 z M 3.281154,5.336138 C 3.308142,5.40017 3.397197,5.402414 3.427422,5.339678 3.437052,5.318906 3.437682,5.29615 3.428992,5.274938 3.4280629,5.272588 3.427022,5.270238 3.426032,5.267908 3.401067,5.210266 3.367882,5.159341 3.322571,5.115605 3.295792,5.089952 3.25511,5.085889 3.223874,5.105925 3.180425,5.134208 3.174366,5.194815 3.21165,5.230909 3.242969,5.261531 3.264233,5.295618 3.281079,5.335921 Z M 2.809717,5.0205786 c 0.05137,0.025248 0.111142,-0.0095 0.115311,-0.066465 0.00184,-0.032614 -0.015098,-0.062315 -0.04439,-0.076961 l -0.00175,-8.622e-4 -0.00362,-0.0018 -0.00367,-0.00182 -0.00369,-0.00185 -0.00366,-0.00184 -0.0037,-0.00187 -0.0037,-0.00187 -0.00372,-0.00189 -0.00372,-0.0019 -0.00373,-0.00192 -0.00376,-0.00194 -0.00376,-0.00195 -0.00378,-0.00196 -0.00377,-0.00198 -0.00378,-0.00198 -0.00381,-0.00202 -0.00384,-0.00204 -0.0038,-0.00203 -0.00383,-0.00206 -0.00387,-0.00209 -0.00387,-0.0021 -0.00387,-0.00211 -0.00387,-0.00212 -0.00387,-0.00213 -0.00394,-0.00218 -0.00392,-0.00218 -0.00392,-0.00219 -0.00397,-0.00223 -0.00396,-0.00224 -0.00393,-0.00223 -0.00398,-0.00227 -0.00401,-0.0023 -0.004,-0.00231 -0.0034,-0.00199 -0.00338,-0.00202 -0.00326,-0.002 c -0.044646,-0.027504 -0.102693,-0.00571 -0.118512,0.044244 -0.010807,0.035051 0.00322,0.072378 0.034299,0.091803 l 0.00457,0.0028 0.00476,0.00285 0.00478,0.0028 0.00433,0.0025 0.00429,0.00246 0.0043,0.00246 0.00432,0.00245 0.00426,0.00241 0.00423,0.00237 0.00426,0.00238 0.00423,0.00235 0.00418,0.00231 0.00423,0.00233 0.0042,0.0023 0.00418,0.00228 0.00415,0.00225 0.00412,0.00222 0.00415,0.00222 0.00414,0.00222 0.00408,0.00216 0.00408,0.00216 0.0041,0.00216 0.00407,0.00213 0.00404,0.00211 0.00404,0.00209 0.00401,0.00207 0.00401,0.00207 0.004,0.00204 0.00398,0.00203 0.00396,0.00201 0.00393,0.00198 0.00396,0.00199 0.0039,0.00195 0.0039,0.00195 0.00393,0.00194 z M 2.342359,4.5299406 c 0.024512,0.057035 0.101846,0.065496 0.138346,0.015311 0.016551,-0.023315 0.019783,-0.052091 0.00867,-0.078461 l -0.00174,-0.00404 -0.00215,-0.00502 -0.00213,-0.00504 -0.0021,-0.00502 -0.00209,-0.00507 -0.00209,-0.00509 -0.00205,-0.00506 -0.00205,-0.00513 -0.00204,-0.00514 -0.00201,-0.00513 -0.00201,-0.00518 -0.002,-0.0052 -0.00197,-0.0052 -0.00196,-0.00522 -0.00195,-0.00524 -0.00193,-0.00525 -0.00192,-0.00527 -0.0019,-0.00529 -0.00189,-0.00532 -0.00188,-0.00532 -0.00186,-0.00534 -0.00185,-0.00535 -0.00183,-0.00535 -0.00181,-0.00538 -0.00181,-0.00542 -0.00178,-0.00539 -0.00178,-0.00543 -9.134e-4,-0.00281 c -0.01837,-0.056004 -0.087575,-0.073831 -0.130913,-0.033827 -0.022535,0.021524 -0.030913,0.053091 -0.021386,0.082866 l 0.00107,0.00329 0.00193,0.0059 0.00196,0.00591 0.00196,0.00586 0.00198,0.00586 0.00201,0.00588 0.00202,0.00584 0.00204,0.00583 0.00205,0.00582 0.00207,0.0058 0.00209,0.00581 0.00211,0.00578 0.00212,0.00578 0.00215,0.00576 0.00215,0.00574 0.00218,0.00575 0.00219,0.00572 0.00221,0.0057 0.00224,0.00572 0.00225,0.00567 0.00226,0.00565 0.00231,0.00569 0.0023,0.00562 0.00232,0.00561 0.00235,0.00563 0.00236,0.00557 0.00237,0.00557 z M 2.17993,3.8897946 c 0.00567,0.043327 0.043677,0.073776 0.087197,0.06976 0.044835,-0.00448 0.077087,-0.044748 0.071583,-0.089476 l -4.094e-4,-0.0033 -6.93e-4,-0.00564 -6.811e-4,-0.0056 -6.693e-4,-0.00561 -6.614e-4,-0.00564 -6.456e-4,-0.00557 -6.339e-4,-0.00559 -6.26e-4,-0.00558 -6.102e-4,-0.00557 -6.024e-4,-0.00558 -5.866e-4,-0.00552 -5.787e-4,-0.00554 -5.709e-4,-0.00555 -5.551e-4,-0.00551 -5.433e-4,-0.0055 -5.315e-4,-0.00549 -5.236e-4,-0.00547 -5.079e-4,-0.00546 -5e-4,-0.00547 -4.921e-4,-0.00543 -4.764e-4,-0.00542 -4.685e-4,-0.00543 -4.567e-4,-0.00539 -4.41e-4,-0.00538 -4.37e-4,-0.00539 -4.252e-4,-0.00534 -4.094e-4,-0.00533 -4.016e-4,-0.00534 -2.638e-4,-0.00353 c -0.00229,-0.029984 -0.020622,-0.055732 -0.048209,-0.067693 -0.055327,-0.023504 -0.11548,0.019461 -0.111366,0.079346 l 2.796e-4,0.00378 4.252e-4,0.00559 4.33e-4,0.00564 4.488e-4,0.00565 4.528e-4,0.00563 4.724e-4,0.00568 4.804e-4,0.0057 4.921e-4,0.00568 5e-4,0.00572 5.157e-4,0.00574 5.237e-4,0.00572 5.393e-4,0.00576 5.473e-4,0.00578 5.63e-4,0.00578 5.748e-4,0.0058 5.866e-4,0.00581 5.945e-4,0.00579 6.023e-4,0.00583 6.26e-4,0.00587 6.339e-4,0.00582 6.417e-4,0.00586 6.575e-4,0.00587 6.653e-4,0.00588 6.851e-4,0.00592 6.929e-4,0.00587 7.008e-4,0.00591 7.204e-4,0.00594 7.323e-4,0.00593 z m 0.118362,-0.684559 c -0.056988,0.037303 -0.044886,0.1235 0.020221,0.143705 0.02289,0.00685 0.046602,0.00348 0.066724,-0.00939 l 7.559e-4,-5.039e-4 0.00193,-0.00122 0.00198,-0.00118 0.00204,-0.00116 0.00207,-0.00111 0.00215,-0.00109 0.00215,-0.00104 0.00221,-0.00101 0.00231,-9.961e-4 0.00233,-9.488e-4 0.00234,-8.937e-4 0.00245,-8.78e-4 0.00253,-8.543e-4 0.00257,-8.071e-4 0.00266,-7.834e-4 0.00267,-7.323e-4 0.00276,-7.008e-4 0.00285,-6.693e-4 0.00286,-6.221e-4 0.00295,-5.826e-4 0.00307,-5.512e-4 0.00309,-5.118e-4 0.00314,-4.607e-4 0.00325,-4.291e-4 0.00328,-3.819e-4 0.00336,-3.386e-4 0.00344,-3.031e-4 0.00346,-2.52e-4 0.00354,-2.086e-4 0.00363,-1.654e-4 0.00371,-1.181e-4 0.00372,-7.87e-5 0.00377,-2.76e-5 0.00388,1.57e-5 0.00393,5.91e-5 0.00398,1.063e-4 0.00394,1.496e-4 c 0.068028,0.0026 0.108091,-0.07463 0.066701,-0.128882 C 2.5440401,3.1706098 2.52267,3.1594995 2.498859,3.158409 l -0.00564,-2.126e-4 -0.00576,-1.535e-4 -0.00574,-9.06e-5 -0.00571,-2.36e-5 -0.00576,4.33e-5 -0.00574,1.181e-4 -0.00568,1.89e-4 -0.0057,2.598e-4 -0.00572,3.347e-4 -0.00572,4.173e-4 -0.00568,4.921e-4 -0.00568,5.748e-4 -0.0057,6.654e-4 -0.00565,7.441e-4 -0.00568,8.386e-4 -0.00566,9.291e-4 -0.0056,0.00102 -0.00564,0.00112 -0.00565,0.00122 -0.00559,0.00132 -0.00559,0.00142 -0.00559,0.00154 -0.00553,0.00163 -0.00553,0.00174 -0.00548,0.00185 -0.00549,0.00196 -0.0055,0.00211 -0.00543,0.00221 -0.00536,0.00231 -0.00537,0.00245 -0.00534,0.00258 -0.00526,0.00269 -0.00524,0.00282 -0.00517,0.00294 -0.00513,0.00307 -0.00509,0.00321 z m 0.683575,0.075976 c -0.036449,-0.010705 -0.074819,0.00511 -0.093114,0.038402 -0.024252,0.04487 -0.00137,0.10022 0.047429,0.114937 l 0.0053,0.00158 0.00602,0.00179 0.00602,0.00177 0.006,0.00175 0.00601,0.00174 0.00603,0.00172 0.00602,0.0017 0.00598,0.00167 0.00602,0.00167 0.006,0.00164 0.006,0.00161 0.00603,0.0016 0.00598,0.00156 0.006,0.00155 0.00599,0.00151 0.00598,0.00149 0.00601,0.00147 0.00597,0.00143 0.00598,0.00141 0.006,0.00138 0.00596,0.00134 0.00596,0.00131 0.00596,0.00128 0.00596,0.00124 0.00594,0.0012 0.00595,0.00117 0.00596,0.00114 0.00263,4.843e-4 c 0.029138,0.0052 0.058059,-0.00571 0.076673,-0.028677 0.03774,-0.047673 0.011543,-0.11765 -0.048193,-0.128764 l -0.00163,-3.032e-4 -0.00498,-9.488e-4 -0.00504,-9.921e-4 -0.00508,-0.00103 -0.0051,-0.00106 -0.00513,-0.0011 -0.00518,-0.00114 -0.00522,-0.00117 -0.00521,-0.0012 -0.00526,-0.00124 -0.00531,-0.00127 -0.0053,-0.0013 -0.00536,-0.00133 -0.00538,-0.00136 -0.00539,-0.00139 -0.00544,-0.00142 -0.00543,-0.00144 -0.00548,-0.00148 -0.0055,-0.0015 -0.00551,-0.00152 -0.00557,-0.00156 -0.00556,-0.00157 -0.00557,-0.00159 -0.0056,-0.00162 -0.00564,-0.00165 -0.00565,-0.00166 -0.00565,-0.00168 z m 0.495539,-0.095724 c -0.041205,0.049543 -0.010606,0.124205 0.053417,0.131028 0.02676,0.00243 0.051756,-0.00772 0.069173,-0.028209 l 6.024e-4,-7.126e-4 0.00279,-0.00335 0.00277,-0.00339 0.00274,-0.00341 0.00267,-0.00339 0.00266,-0.00342 0.0026,-0.00342 0.00255,-0.00341 0.0025,-0.00341 0.00249,-0.00344 0.00246,-0.00346 0.00236,-0.00339 0.00237,-0.00345 0.00233,-0.00346 0.00225,-0.00341 0.00226,-0.00349 0.00219,-0.00344 0.00215,-0.00344 0.00213,-0.00348 0.0021,-0.0035 0.00204,-0.00347 0.00198,-0.00342 0.00197,-0.00347 0.00194,-0.0035 0.00191,-0.0035 0.00185,-0.00346 0.00181,-0.00345 0.00179,-0.00347 0.00175,-0.00348 0.00173,-0.00351 0.00168,-0.00348 0.00162,-0.00343 0.00163,-0.00351 0.00158,-0.00348 0.00152,-0.0034 0.00154,-0.00351 0.00149,-0.00349 0.00143,-0.00342 0.00141,-0.00344 0.00139,-0.00347 0.00136,-0.00346 0.00133,-0.00345 0.0013,-0.00344 0.00124,-0.00338 0.00125,-0.00346 0.00122,-0.00346 0.00116,-0.00335 0.00116,-0.00343 9.488e-4,-0.00287 C 3.7112532,3.062593 3.6578082,3.005357 3.5963912,3.020325 3.5696042,3.027305 3.5485722,3.04666 3.5399192,3.073042 l -6.102e-4,0.00185 -8.071e-4,0.00238 -8.504e-4,0.00246 -8.307e-4,0.00236 -8.504e-4,0.00235 -8.976e-4,0.00243 -8.937e-4,0.00238 -9.056e-4,0.00236 -9.252e-4,0.00235 -9.448e-4,0.00235 -9.725e-4,0.00237 -10e-4,0.00239 -9.882e-4,0.00232 -0.00101,0.0023 -0.00107,0.00241 -0.00106,0.00233 -0.00107,0.0023 -0.00113,0.00239 -0.00112,0.00233 -0.00113,0.0023 -0.00117,0.00232 -0.0012,0.00233 -0.00123,0.00235 -0.00125,0.00234 -0.00125,0.00229 -0.00128,0.00229 -0.00131,0.00232 -0.00137,0.00237 -0.00136,0.00231 -0.00137,0.00228 -0.0014,0.0023 -0.00146,0.00233 -0.00148,0.00233 -0.00148,0.00228 -0.00155,0.00235 -0.00154,0.0023 -0.00158,0.0023 -0.00165,0.00237 -0.00162,0.00229 -0.00167,0.00231 -0.00172,0.00233 -0.00175,0.00233 -0.00177,0.00232 -0.00179,0.00231 -0.00185,0.00233 -0.00186,0.00232 -0.00191,0.00233 -0.00196,0.00236 z m 0.249087,-0.590799 c -0.022689,0.017071 -0.034469,0.044063 -0.031693,0.072295 0.00659,0.061843 0.077618,0.092909 0.127488,0.055862 0.035169,-0.026567 0.077201,-0.04435 0.118972,-0.057642 0.068803,-0.022016 0.076232,-0.115488 0.01163,-0.148087 -0.018756,-0.00912 -0.039307,-0.010831 -0.059268,-0.00465 -0.058965,0.018516 -0.11763,0.044835 -0.1671293,0.082225 z m 0.673736,-0.124079 c -0.058496,-0.00491 -0.102008,0.051461 -0.082429,0.10685 0.01089,0.029378 0.036799,0.049638 0.068098,0.052504 0.049441,0.00429 0.099028,0.011244 0.1475,0.021953 l 1.57e-5,3.9e-6 c 0.064327,0.014559 0.117661,-0.050508 0.090724,-0.11085 -0.010646,-0.023169 -0.030311,-0.039323 -0.055157,-0.045146 -0.011528,-0.00264 -0.023161,-0.00495 -0.034776,-0.00718 -0.044287,-0.00827 -0.089091,-0.01424 -0.1339763,-0.018134 z m 0.168752,0.025315 -0.035583,0.155992"
         id="path71" /><path
         class="fil0"
         d="m 1.49159,4.19524 c 0.308315,0 0.558252,0.249941 0.558252,0.558256 0,0.308315 -0.421142,0.878232 -0.558252,1.07663 C 1.374141,5.667248 0.933334,5.061807 0.933334,4.753496 0.933334,4.445181 1.183271,4.19524 1.49159,4.19524 Z m 0,0.288217 c 0.127114,0 0.230161,0.103047 0.230161,0.230165 0,0.127114 -0.103047,0.230165 -0.230161,0.230165 -0.127118,0 -0.230165,-0.103051 -0.230165,-0.230165 0,-0.127118 0.103047,-0.230165 0.230165,-0.230165 z"
         id="path73" /></g></g></svg>
