<?xml version="1.0" encoding="UTF-8" standalone="no"?>
<svg
   version="1.1"
   x="0px"
   y="0px"
   viewBox="0 0 103.56571 33.419998"
   xml:space="preserve"
   id="svg22"
   sodipodi:docname="noun-distance-line_ok.svg"
   width="103.56571"
   height="33.419998"
   inkscape:version="1.1.2 (0a00cf5339, 2022-02-04)"
   xmlns:inkscape="http://www.inkscape.org/namespaces/inkscape"
   xmlns:sodipodi="http://sodipodi.sourceforge.net/DTD/sodipodi-0.dtd"
   xmlns="http://www.w3.org/2000/svg"
   xmlns:svg="http://www.w3.org/2000/svg"><defs
     id="defs26" /><sodipodi:namedview
     id="namedview24"
     pagecolor="#ffffff"
     bordercolor="#666666"
     borderopacity="1.0"
     inkscape:pageshadow="2"
     inkscape:pageopacity="0.0"
     inkscape:pagecheckerboard="0"
     showgrid="false"
     units="px"
     fit-margin-top="0"
     fit-margin-left="0"
     fit-margin-right="0"
     fit-margin-bottom="0"
     inkscape:zoom="6.088"
     inkscape:cx="70.466491"
     inkscape:cy="6.652431"
     inkscape:window-width="1850"
     inkscape:window-height="1025"
     inkscape:window-x="1990"
     inkscape:window-y="27"
     inkscape:window-maximized="1"
     inkscape:current-layer="svg22" /><path
     d="m 11.23,33.42 c 0.33,0 0.64,-0.17 0.82,-0.44 C 12.08,32.94 14.66,29 17.2,24.43 20.68,18.18 22.44,13.74 22.44,11.22 22.44,5.0399996 17.41,0 11.22,0 5.0299999,0 0,5.0299996 0,11.22 c 0,2.51 1.76,6.96 5.2399999,13.21 2.55,4.58 5.1300001,8.51 5.1500001,8.55 0.2,0.27 0.51,0.44 0.84,0.44 z M 5.2899999,11.22 c 0,-3.2800004 2.67,-5.9400004 5.9400001,-5.9400004 3.28,0 5.94,2.67 5.94,5.9400004 0,3.27 -2.67,5.94 -5.94,5.94 -3.2800001,0 -5.9400001,-2.67 -5.9400001,-5.94 z"
     id="path2"
     style="fill:#4d4d4d" /><path
     d="m -18.828123,45.967794 c -6.19,0 -11.22,5.029999 -11.22,11.22 0,2.51 1.76,6.96 5.24,13.21 2.55,4.58 5.13,8.51 5.15,8.55 0.18,0.28 0.49,0.44 0.82,0.44 0.33,0 0.64,-0.17 0.82,-0.44 0.03,-0.04 2.61,-3.98 5.15,-8.55 3.4800003,-6.25 5.2400003,-10.69 5.2400003,-13.21 0.02,-6.190001 -5.0100003,-11.22 -11.2000003,-11.22 z m 0,17.16 c -3.28,0 -5.94,-2.67 -5.94,-5.94 0,-3.270001 2.67,-5.940001 5.94,-5.940001 3.28,0 5.94,2.67 5.94,5.940001 0,3.27 -2.66,5.94 -5.94,5.94 z"
     id="path4"
     style="fill:#4d4d4d" /><g
     id="g423"
     transform="matrix(0.06935639,0,0,0.0646864,-2.3863292,46.728405)"
     style="fill:#4d4d4d"><g
       id="g421"
       style="fill:#4d4d4d"><g
         id="g389"
         style="fill:#4d4d4d"><g
           id="g379"
           style="fill:#4d4d4d"><path
             d="M 342.113,313.549 H 171.174 c -40.384,0 -72.019,-31.622 -72.019,-71.994 V 70.72 C 99.155,31.725 131.462,0 171.174,0 h 170.939 c 39.001,0 70.731,31.725 70.731,70.72 v 170.835 c 0.001,39.697 -31.73,71.994 -70.731,71.994 z M 171.174,14.544 c -32.229,0 -57.475,24.675 -57.475,56.176 v 170.835 c 0,32.215 25.245,57.451 57.475,57.451 h 170.939 c 31.507,0 56.187,-25.236 56.187,-57.451 V 70.72 c 0,-30.976 -25.205,-56.176 -56.187,-56.176 H 171.174 Z"
             id="path377"
             style="fill:#4d4d4d" /></g><g
           id="g383"
           style="fill:#4d4d4d"><path
             d="m 256.618,481.866 c -4.017,0 -7.271,-3.255 -7.271,-7.272 V 306.277 c 0,-4.018 3.255,-7.271 7.271,-7.271 4.018,0 7.272,3.254 7.272,7.271 v 168.316 c 0.001,4.018 -3.254,7.273 -7.272,7.273 z"
             id="path381"
             style="fill:#4d4d4d" /></g><g
           id="g387"
           style="fill:#4d4d4d"><path
             d="m 256.633,512 c -41.428,0 -73.882,-17.645 -73.882,-40.168 0,-14.409 13.422,-27.294 35.903,-34.466 3.833,-1.222 7.918,0.892 9.14,4.718 1.219,3.827 -0.893,7.918 -4.718,9.14 -15.661,4.994 -25.78,13.083 -25.78,20.608 0,11.85 25.92,25.624 59.337,25.624 33.443,0 59.383,-13.774 59.383,-25.624 0,-7.118 -8.024,-14.113 -22.02,-19.188 -3.773,-1.371 -5.724,-5.542 -4.355,-9.317 1.37,-3.775 5.542,-5.722 9.317,-4.355 20.379,7.393 31.602,19.063 31.602,32.861 0,22.522 -32.473,40.167 -73.927,40.167 z"
             id="path385"
             style="fill:#4d4d4d" /></g></g><g
         id="g419"
         style="fill:#4d4d4d"><g
           id="g393"
           style="fill:#4d4d4d"><path
             d="m 351.565,187.957 c -1.25,0 -2.492,-0.471 -3.451,-1.425 l -78.928,-78.926 c -0.907,-0.914 -1.421,-2.149 -1.421,-3.444 0,-1.288 0.514,-2.525 1.421,-3.439 11.461,-11.457 26.701,-17.772 42.911,-17.772 16.206,0 31.442,6.315 42.905,17.772 11.461,11.464 17.772,26.697 17.772,42.904 0,16.211 -6.312,31.445 -17.772,42.905 -0.954,0.954 -2.196,1.425 -3.437,1.425 z m -71.885,-83.632 71.722,71.728 c 7.54,-9.108 11.641,-20.45 11.641,-32.426 0,-13.605 -5.303,-26.402 -14.928,-36.021 -9.611,-9.625 -22.41,-14.925 -36.017,-14.925 -11.976,0.001 -23.317,4.105 -32.418,11.644 z"
             id="path391"
             style="fill:#4d4d4d" /></g><g
           id="g397"
           style="fill:#4d4d4d"><path
             d="m 336.382,172.781 c -1.295,0 -2.532,-0.516 -3.437,-1.428 l -48.577,-48.571 c -1.898,-1.901 -1.898,-4.98 0,-6.879 14.708,-14.702 32.893,-23.484 48.65,-23.484 8.95,0 16.549,2.869 21.984,8.304 7.727,7.729 10.178,19.555 6.904,33.297 -3.072,12.905 -10.914,26.171 -22.086,37.334 -0.909,0.912 -2.145,1.427 -3.438,1.427 z m -41.59,-53.339 41.486,41.491 c 16.951,-19.024 22.471,-42.699 11.836,-53.327 -3.561,-3.569 -8.782,-5.456 -15.096,-5.456 -11.854,0 -26.164,6.536 -38.226,17.292 z"
             id="path395"
             style="fill:#4d4d4d" /></g><g
           id="g401"
           style="fill:#4d4d4d"><path
             d="m 321.2,157.601 c -1.246,0 -2.486,-0.476 -3.436,-1.425 l -18.22,-18.213 c -0.909,-0.914 -1.421,-2.149 -1.421,-3.438 0,-1.292 0.512,-2.532 1.421,-3.444 15.147,-15.145 37.056,-32.825 48.948,-32.825 3.342,0 5.381,1.34 6.51,2.467 4.379,4.382 2.928,12.238 -4.437,24.021 -5.918,9.474 -15.126,20.643 -25.921,31.432 -0.95,0.949 -2.192,1.425 -3.444,1.425 z m -11.295,-23.047 11.259,11.264 c 7.873,-8.2 14.755,-16.563 19.628,-23.876 4.983,-7.482 6.553,-11.899 6.882,-13.893 -5.461,0.821 -19.737,9.161 -37.769,26.505 z"
             id="path399"
             style="fill:#4d4d4d" /></g><g
           id="g405"
           style="fill:#4d4d4d"><path
             d="m 290.064,236.574 h -0.005 -136.242 c -1.965,0 -3.742,-1.187 -4.492,-3.004 -0.753,-1.818 -0.334,-3.913 1.058,-5.303 l 24.327,-24.322 c 0.914,-0.919 2.149,-1.435 3.439,-1.435 h 87.578 c 1.287,0 2.528,0.516 3.441,1.435 l 24.15,24.143 c 0.989,0.895 1.609,2.183 1.609,3.617 0.002,2.689 -2.174,4.869 -4.863,4.869 z M 165.563,226.848 H 278.31 l -14.597,-14.601 h -83.549 z"
             id="path403"
             style="fill:#4d4d4d" /></g><g
           id="g409"
           style="fill:#4d4d4d"><path
             d="m 248.345,212.247 c -1.244,0 -2.492,-0.474 -3.439,-1.428 -1.898,-1.901 -1.898,-4.98 0,-6.874 l 63.75,-63.758 c 1.901,-1.9 4.979,-1.9 6.882,0 1.898,1.901 1.898,4.98 0,6.884 l -63.755,63.748 c -0.945,0.954 -2.192,1.428 -3.438,1.428 z"
             id="path407"
             style="fill:#4d4d4d" /></g><g
           id="g413"
           style="fill:#4d4d4d"><path
             d="M 358.177,236.574 H 144.089 c -2.685,0 -4.865,-2.181 -4.865,-4.869 0,-2.685 2.181,-4.857 4.865,-4.857 h 214.088 c 2.685,0 4.865,2.173 4.865,4.857 0,2.689 -2.181,4.869 -4.865,4.869 z"
             id="path411"
             style="fill:#4d4d4d" /></g><g
           id="g417"
           style="fill:#4d4d4d"><path
             d="m 187.881,124.666 c -13.417,0 -24.329,-10.917 -24.329,-24.332 0,-13.414 10.912,-24.326 24.329,-24.326 13.413,0 24.33,10.912 24.33,24.326 0,13.415 -10.917,24.332 -24.33,24.332 z m 0,-38.928 c -8.053,0 -14.599,6.55 -14.599,14.596 0,8.051 6.546,14.597 14.599,14.597 8.044,0 14.597,-6.546 14.597,-14.597 0,-8.046 -6.553,-14.596 -14.597,-14.596 z"
             id="path415"
             style="fill:#4d4d4d" /></g></g></g></g><path
     d="m 20.95,33.42 c 0.85,0 1.53,-0.69 1.53,-1.53 0,-0.84 -0.69,-1.53 -1.53,-1.53 h -3.52 c -0.85,0 -1.53,0.69 -1.53,1.53 0,0.84 0.69,1.53 1.53,1.53 z"
     id="path6"
     style="fill:#4d4d4d" /><path
     d="m 30.28,30.35 h -3.52 c -0.85,0 -1.53,0.69 -1.53,1.53 0,0.84 0.69,1.53 1.53,1.53 h 3.52 c 0.85,0 1.53,-0.69 1.53,-1.53 0,-0.84 -0.69,-1.53 -1.53,-1.53 z"
     id="path8"
     style="fill:#4d4d4d" /><path
     d="m 39.61,30.35 h -3.52 c -0.85,0 -1.53,0.69 -1.53,1.53 0,0.84 0.69,1.53 1.53,1.53 h 3.52 c 0.85,0 1.53,-0.69 1.53,-1.53 0,-0.84 -0.69,-1.53 -1.53,-1.53 z"
     id="path10"
     style="fill:#4d4d4d" /><path
     d="m 43.88,31.89 c 0,0.85 0.69,1.53 1.53,1.53 h 3.52 c 0.85,0 1.53,-0.69 1.53,-1.53 0,-0.84 -0.69,-1.53 -1.53,-1.53 h -3.52 c -0.84,-0.01 -1.53,0.68 -1.53,1.53 z"
     id="path12"
     style="fill:#4d4d4d" /><path
     d="m 58.27,33.42 c 0.85,0 1.53,-0.69 1.53,-1.53 0,-0.84 -0.69,-1.53 -1.53,-1.53 h -3.52 c -0.85,0 -1.53,0.69 -1.53,1.53 0,0.84 0.69,1.53 1.53,1.53 z"
     id="path14"
     style="fill:#4d4d4d" /><path
     d="m 67.6,33.42 c 0.85,0 1.53,-0.69 1.53,-1.53 0,-0.84 -0.69,-1.53 -1.53,-1.53 h -3.52 c -0.85,0 -1.53,0.69 -1.53,1.53 0,0.84 0.69,1.53 1.53,1.53 z"
     id="path16"
     style="fill:#4d4d4d" /><g
     id="g879"
     transform="matrix(1.471337,0,0,1.4935447,68.48997,-2.3700566)"
     style="fill:#4d4d4d"><path
       style="color:#000000;font-style:normal;font-variant:normal;font-weight:normal;font-stretch:normal;font-size:medium;line-height:normal;font-family:sans-serif;font-variant-ligatures:normal;font-variant-position:normal;font-variant-caps:normal;font-variant-numeric:normal;font-variant-alternates:normal;font-feature-settings:normal;text-indent:0;text-align:start;text-decoration:none;text-decoration-line:none;text-decoration-style:solid;text-decoration-color:#000000;letter-spacing:normal;word-spacing:normal;text-transform:none;writing-mode:lr-tb;direction:ltr;text-orientation:mixed;dominant-baseline:auto;baseline-shift:baseline;text-anchor:start;white-space:normal;shape-padding:0;clip-rule:nonzero;display:inline;overflow:visible;visibility:visible;opacity:1;isolation:auto;mix-blend-mode:normal;color-interpolation:sRGB;color-interpolation-filters:linearRGB;solid-color:#000000;solid-opacity:1;vector-effect:none;fill:#4d4d4d;fill-opacity:1;fill-rule:evenodd;stroke:none;stroke-width:4;stroke-linecap:round;stroke-linejoin:round;stroke-miterlimit:4;stroke-dasharray:none;stroke-dashoffset:8;stroke-opacity:1;paint-order:stroke fill markers;color-rendering:auto;image-rendering:auto;shape-rendering:auto;text-rendering:auto;enable-background:accumulate"
       d="m 75.996094,6.0019531 c -1.639782,4e-7 -2.671856,0.7197045 -3.601563,1.2910157 C 71.464824,7.8642799 70.755859,8.4375 70.755859,8.4375 a 2.0002,2.0002 0 1 0 2.486329,3.130859 c 0,0 0.550432,-0.436545 1.248046,-0.865234 0.697618,-0.428688 1.654932,-0.701172 1.50586,-0.701172 -0.149065,0 0.134385,0.0625 0.761718,0.5625 0.627323,0.5 1.600449,1.439454 3.240235,1.439453 1.639782,0 2.620725,-0.939453 3.248047,-1.439453 0.627322,-0.5 0.901029,-0.5625 0.751953,-0.5625 -0.149065,0 0.816058,0.272484 1.513672,0.701172 0.697614,0.428689 1.240234,0.865234 1.240234,0.865234 A 2.0014381,2.0014381 0 1 0 89.246094,8.4375 c 0,0 -0.708965,-0.5732201 -1.638672,-1.1445312 -0.929711,-0.5713112 -1.969589,-1.2910157 -3.609375,-1.2910157 -1.639782,0 -2.620725,0.9316409 -3.248047,1.4316407 -0.42559,0.3392111 -0.673174,0.472016 -0.751953,0.5273437 0.03704,0.026062 0.04781,0.041016 0,0.041016 -0.04794,0 -0.03734,-0.01479 0,-0.041016 C 79.919616,7.9057485 79.670242,7.7732132 79.244141,7.4335938 78.616818,6.9335936 77.635876,6.0019531 75.996094,6.0019531 Z M 60,14.003906 c -1.639782,10e-7 -2.679668,0.719705 -3.609375,1.291016 -0.929707,0.571311 -1.638672,1.144531 -1.638672,1.144531 a 2.0002,2.0002 0 1 0 2.494141,3.123047 c 0,0 0.54262,-0.428733 1.240234,-0.857422 0.697618,-0.428689 1.662744,-0.708985 1.513672,-0.708984 -0.149065,0 0.126584,0.07031 0.753906,0.570312 0.627322,0.5 1.608265,1.431641 3.248047,1.431641 1.639782,-1e-6 2.618772,-0.931641 3.246094,-1.431641 0.627322,-0.5 0.902978,-0.570312 0.753906,-0.570312 -0.149064,0 0.816058,0.280295 1.513672,0.708984 0.697614,0.428689 1.240234,0.857422 1.240234,0.857422 a 2.0002,2.0002 0 1 0 2.486329,-3.123047 c 0,0 -0.708961,-0.57322 -1.638672,-1.144531 -0.929707,-0.571311 -1.961781,-1.291016 -3.601563,-1.291016 -1.639786,0 -2.620721,0.931641 -3.248047,1.431641 -0.426312,0.339787 -0.675621,0.468537 -0.753906,0.521484 0.03802,0.02554 0.05016,0.03906 0.002,0.03906 -0.04777,0 -0.03887,-0.0141 -0.002,-0.03906 -0.07955,-0.05345 -0.327493,-0.183174 -0.751953,-0.521484 -0.627322,-0.5 -1.608265,-1.431641 -3.248047,-1.431641 z m -36.076172,4 a 2.0002,2.0002 0 0 0 -0.818359,0.207032 L 7.109375,26.212891 A 2.0002,2.0002 0 0 0 6.0019531,28 v 4 a 2.0002,2.0002 0 0 0 2,2.001953 H 21.998047 V 48 H 8 c -1.1045243,1.1e-4 -1.9998904,0.895475 -2,2 v 21.917969 a 2.0023089,2.0023089 0 0 0 2.7109375,1.953125 c 0,0 1.2508267,-0.475238 2.8339845,-0.953125 1.583157,-0.477891 3.561874,-0.914063 4.451172,-0.914063 0.889298,0 1.980154,0.363265 3.292968,0.863282 1.312816,0.499996 2.849546,1.136718 4.708985,1.136718 1.859439,0 3.398122,-0.636722 4.710937,-1.136718 C 30.0218,72.367186 31.110702,72.003906 32,72.003906 c 0.889298,0 1.97234,0.363265 3.285156,0.863282 1.312816,0.499996 2.85736,1.136718 4.716797,1.136718 1.859441,0 3.398122,-0.636722 4.710938,-1.136718 1.312815,-0.500002 2.393903,-0.863282 3.283203,-0.863282 0.889296,0 1.980154,0.363265 3.292968,0.863282 1.312819,0.499996 2.849548,1.136718 4.708985,1.136718 1.859441,0 3.398122,-0.636722 4.710937,-1.136718 1.312816,-0.500002 2.403669,-0.863282 3.292969,-0.863282 0.889297,0 1.970388,0.363265 3.283203,0.863282 1.312819,0.499996 2.859313,1.136718 4.71875,1.136718 1.859441,0 3.396169,-0.636722 4.708985,-1.136718 1.312815,-0.500002 2.395856,-0.863282 3.285156,-0.863282 0.889296,0 2.875827,0.436172 4.458984,0.914063 1.583157,0.477887 2.833985,0.953125 2.833985,0.953125 a 2.0009988,2.0009988 0 0 0 1.417968,-3.742188 c 0,0 -1.371907,-0.518904 -3.101562,-1.041015 -1.729659,-0.522112 -3.749938,-1.085938 -5.609375,-1.085938 -1.859441,0 -3.398122,0.628905 -4.710938,1.128906 -1.312815,0.499998 -2.393903,0.871094 -3.283203,0.871094 -0.650216,0 -1.448757,-0.235017 -2.322265,-0.537109 -0.274532,-1.658923 -0.701373,-3.292274 -1.289063,-4.873047 -0.276737,-0.776829 -1.001868,-1.304197 -1.826172,-1.328125 -1.430729,-0.04222 -2.441446,1.388173 -1.923828,2.722656 0.258165,0.694416 0.472584,1.402333 0.660156,2.117188 -0.416208,-0.06375 -0.847749,-0.101563 -1.300781,-0.101563 -1.859441,0 -3.398122,0.628905 -4.710937,1.128906 -1.312816,0.499998 -2.403669,0.871094 -3.292969,0.871094 -0.889297,0 -1.970388,-0.371107 -3.283203,-0.871094 -1.312819,-0.500001 -2.859313,-1.128906 -4.71875,-1.128906 -1.859441,0 -3.396169,0.628905 -4.708985,1.128906 -1.312815,0.499998 -2.395856,0.871094 -3.285156,0.871094 -0.889296,0 -1.9782,-0.371107 -3.291015,-0.871094 C 35.398122,68.630858 33.859439,68.001953 32,68.001953 c -1.859439,0 -3.396168,0.628905 -4.708984,1.128906 -1.312816,0.499998 -2.403672,0.871094 -3.292969,0.871094 -0.889298,0 -1.972341,-0.371107 -3.285156,-0.871094 -1.312816,-0.500001 -2.857358,-1.12891 -4.716797,-1.128906 -1.859439,0 -3.871905,0.563826 -5.601563,1.085938 C 10.239556,69.134671 10.148592,69.170441 10,69.216797 V 52 h 24 c 2.704518,0.03813 2.704518,-4.03812 0,-4 H 25.998047 V 34.001953 H 40.001953 A 2.0002,2.0002 0 0 0 42.003906,32 V 28 A 2.0002,2.0002 0 0 0 40.896484,26.212891 L 24.892578,18.210938 a 2.0002,2.0002 0 0 0 -0.96875,-0.207032 z m 0.07422,4.230469 14.003906,7.005859 V 30 h -28 V 29.232422 Z M 40.085938,48 c -2.704519,-0.03813 -2.704519,4.03812 0,4 8.268517,0 14.164083,2.117185 18.236328,5.296875 2.112559,1.73472 4.656446,-1.523885 2.460937,-3.152344 C 55.907238,50.337277 49.044003,48 40.085938,48 Z m 23.636718,10 a 2,2 0 0 0 -2,2 2,2 0 0 0 2,2 2,2 0 0 0 2,-2 2,2 0 0 0 -2,-2 z M 15.996094,75.996094 c -1.859439,0 -3.871905,0.56383 -5.601563,1.085937 -1.7296579,0.522112 -3.1093747,1.048828 -3.1093748,1.048828 a 2.0023089,2.0023089 0 0 0 1.4257813,3.742188 c 0,0 1.2508268,-0.48305 2.8339845,-0.960938 1.583157,-0.477887 3.561874,-0.914062 4.451172,-0.914062 0.889298,0 1.980153,0.371107 3.292968,0.871094 1.312816,0.500001 2.849546,1.128906 4.708985,1.128906 1.859439,0 3.398122,-0.628905 4.710937,-1.128906 C 30.0218,80.369143 31.110702,79.998047 32,79.998047 c 0.889298,0 1.97234,0.371107 3.285156,0.871094 1.312816,0.500001 2.85736,1.128906 4.716797,1.128906 1.859441,0 3.398122,-0.628905 4.710938,-1.128906 1.312815,-0.499998 2.393903,-0.871094 3.283203,-0.871094 0.889296,0 1.980153,0.371107 3.292968,0.871094 1.312819,0.500001 2.849548,1.128906 4.708985,1.128906 1.859441,0 3.398122,-0.628905 4.710937,-1.128906 1.312816,-0.499998 2.403669,-0.871094 3.292969,-0.871094 0.889297,0 1.970388,0.371107 3.283203,0.871094 1.312819,0.500001 2.859313,1.128906 4.71875,1.128906 1.859441,0 3.396169,-0.628905 4.708985,-1.128906 1.312815,-0.499998 2.395856,-0.871094 3.285156,-0.871094 0.889296,0 2.875827,0.436175 4.458984,0.914062 1.583157,0.477888 2.833985,0.960938 2.833985,0.960938 a 2.0009988,2.0009988 0 0 0 1.417968,-3.742188 c 0,0 -1.371907,-0.526716 -3.101562,-1.048828 -1.729659,-0.522107 -3.749938,-1.085937 -5.609375,-1.085937 -1.859441,0 -3.398122,0.636721 -4.710938,1.136718 -1.312815,0.500002 -2.393903,0.863282 -3.283203,0.863282 -0.889296,0 -1.980153,-0.363265 -3.292968,-0.863282 -1.312819,-0.499997 -2.849548,-1.136718 -4.708985,-1.136718 -1.859441,0 -3.398122,0.636721 -4.710937,1.136718 -1.312816,0.500002 -2.403669,0.863282 -3.292969,0.863282 -0.889297,0 -1.970388,-0.363265 -3.283203,-0.863282 -1.312819,-0.499997 -2.859313,-1.136718 -4.71875,-1.136718 -1.859441,0 -3.396169,0.636721 -4.708985,1.136718 -1.312815,0.500002 -2.395856,0.863282 -3.285156,0.863282 -0.889296,0 -1.978199,-0.363265 -3.291015,-0.863282 C 35.398122,76.632815 33.859439,75.996094 32,75.996094 c -1.859439,0 -3.396168,0.636721 -4.708984,1.136718 -1.312816,0.500002 -2.403672,0.863282 -3.292969,0.863282 -0.889298,0 -1.972341,-0.363265 -3.285156,-0.863282 -1.312816,-0.499997 -2.857358,-1.136718 -4.716797,-1.136718 z m 0,8.001953 c -1.859439,0 -3.871905,0.563826 -5.601563,1.085937 -1.7296579,0.522108 -3.1093747,1.048828 -3.1093748,1.048828 a 2.0002,2.0002 0 1 0 1.4257813,3.734376 c 0,0 1.2508268,-0.475238 2.8339845,-0.953126 C 13.128079,88.436171 15.106796,88 15.996094,88 c 0.889298,0 1.980153,0.371104 3.292968,0.871094 C 20.601878,89.371091 22.138608,90 23.998047,90 25.857486,90 27.396169,89.371091 28.708984,88.871094 30.0218,88.371092 31.110702,88 32,88 c 0.889298,0 1.97234,0.371104 3.285156,0.871094 C 36.597972,89.371091 38.142516,90 40.001953,90 41.861394,90 43.400075,89.371091 44.712891,88.871094 46.025706,88.371092 47.106794,88 47.996094,88 c 0.889296,0 1.980153,0.371104 3.292968,0.871094 C 52.601881,89.371091 54.13861,90 55.998047,90 57.857488,90 59.396169,89.371091 60.708984,88.871094 62.0218,88.371092 63.112653,88 64.001953,88 c 0.889297,0 1.970388,0.371104 3.283203,0.871094 C 68.597975,89.371091 70.144469,90 72.003906,90 73.863347,90 75.400075,89.371091 76.712891,88.871094 78.025706,88.371092 79.108747,88 79.998047,88 c 0.889296,0 2.875827,0.436171 4.458984,0.914062 1.583157,0.477888 2.833985,0.953126 2.833985,0.953126 a 2.0002,2.0002 0 1 0 1.417968,-3.734376 c 0,0 -1.371907,-0.52672 -3.101562,-1.048828 -1.729659,-0.522111 -3.749938,-1.085937 -5.609375,-1.085937 -1.859441,0 -3.398122,0.630858 -4.710938,1.130859 -1.312815,0.499998 -2.393903,0.869141 -3.283203,0.869141 -0.889296,0 -1.980153,-0.369155 -3.292968,-0.869141 -1.312819,-0.500001 -2.849548,-1.130859 -4.708985,-1.130859 -1.859441,0 -3.398122,0.630858 -4.710937,1.130859 -1.312816,0.499998 -2.403669,0.869141 -3.292969,0.869141 -0.889297,0 -1.970388,-0.369155 -3.283203,-0.869141 -1.312819,-0.500001 -2.859313,-1.130859 -4.71875,-1.130859 -1.859441,0 -3.396169,0.630858 -4.708985,1.130859 -1.312815,0.499998 -2.395856,0.869141 -3.285156,0.869141 -0.889296,0 -1.978199,-0.369155 -3.291015,-0.869141 C 35.398122,84.628905 33.859439,83.998047 32,83.998047 c -1.859439,0 -3.396168,0.630858 -4.708984,1.130859 -1.312816,0.499998 -2.403672,0.869141 -3.292969,0.869141 -0.889298,0 -1.972341,-0.369155 -3.285156,-0.869141 -1.312816,-0.500001 -2.857358,-1.130859 -4.716797,-1.130859 z"
       transform="scale(0.26458332)"
       id="path877" /></g></svg>
