<?xml version="1.0" encoding="UTF-8" standalone="no"?>
<svg
   version="1.1"
   viewBox="-5 -10 93.593895 95.480652"
   id="svg6159"
   sodipodi:docname="noun-office-desk-7341136.svg"
   width="93.593895"
   height="95.480652"
   inkscape:export-filename="office-desk.svg"
   inkscape:export-xdpi="96"
   inkscape:export-ydpi="96"
   xmlns:inkscape="http://www.inkscape.org/namespaces/inkscape"
   xmlns:sodipodi="http://sodipodi.sourceforge.net/DTD/sodipodi-0.dtd"
   xmlns="http://www.w3.org/2000/svg"
   xmlns:svg="http://www.w3.org/2000/svg">
  <defs
     id="defs6163" />
  <sodipodi:namedview
     id="namedview6161"
     pagecolor="#ffffff"
     bordercolor="#000000"
     borderopacity="0.25"
     inkscape:showpageshadow="2"
     inkscape:pageopacity="0.0"
     inkscape:pagecheckerboard="0"
     inkscape:deskcolor="#d1d1d1"
     showgrid="false" />
  <path
     d="m 84.319,33.8828 h -5.1367 c 0.77344,-1.0312 1.2734,-2.2578 1.3945,-3.6211 h 2.9102 c 1.5898,0 2.8945,-1.2891 2.8945,-2.8789 v -8.0156 c 0,-1.5898 -1.3047,-2.8789 -2.8945,-2.8789 h -2.8477 v -2.1367 c 0,-0.78906 -0.63672,-1.4258 -1.4258,-1.4258 h -19.109 c -0.78906,0 -1.4258,0.63672 -1.4258,1.4258 v 15.273 c 0,1.6055 0.5625,3.0625 1.4531,4.2578 h -27.844 v -3.7578 h 10.969 c 3.1211,0 5.668,-2.5469 5.668,-5.668 v -26.879 c 0,-3.1211 -2.5469,-5.668 -5.668,-5.668 l -38.906,0.00391 c -3.1211,0 -5.668,2.5469 -5.668,5.668 v 26.879 c 0,3.1211 2.5469,5.668 5.668,5.668 h 10.969 v 3.7578 L -0.7422,33.8824 C -3.0899,33.8824 -5,35.7926 -5,38.1402 v 8.1055 c 0,2.3477 1.9102,4.2578 4.2578,4.2578 h 1.1211 v 33.547 c 0,0.78906 0.63672,1.4258 1.4258,1.4258 h 7.3477 c 0.78906,0 1.4258,-0.63672 1.4258,-1.4258 v -33.562 h 30.242 v 12.773 0.01563 0.01563 14.184 c 0,0.78906 0.63672,1.4258 1.4258,1.4258 h 30.758 v 5.1523 c 0,0.78906 0.63672,1.4258 1.4258,1.4258 h 7.3633 c 0.78906,0 1.4258,-0.63672 1.4258,-1.4258 l -0.0039,-33.566 h 1.1211 c 2.3477,0 4.2578,-1.9102 4.2578,-4.2578 v -8.1055 c -0.03125,-2.332 -1.9414,-4.2422 -4.2734,-4.2422 z m -0.78906,-14.5 -0.0625,8.0469 h -2.8477 v -8.0938 z m -22.016,-3.6055 h 16.273 v 3.4531 h -16.273 z m 0,13.848 v -7.5625 h 16.273 v 7.5625 c 0,2.3477 -1.9102,4.2578 -4.2578,4.2578 h -7.7734 c -2.332,0 -4.2422,-1.9102 -4.2422,-4.2578 z m -60,-5.168 v -26.879 c 0,-1.5625 1.2734,-2.832 2.832,-2.832 h 38.91 c 1.5625,0 2.832,1.2734 2.832,2.832 v 26.879 c 0,1.5625 -1.2734,2.832 -2.832,2.832 h -12.363 -0.03125 -0.03125 -14.062 -0.03125 -0.03125 l -12.355,0.0039 c -1.5625,0 -2.8359,-1.2734 -2.8359,-2.8359 z m 16.637,5.668 h 11.289 v 3.7578 h -11.289 z m -10.41,52.5 h -4.5273 v -32.137 h 4.5156 l -0.0039,32.137 z m 65.258,-32.137 v 11.363 h -29.348 v -11.363 z m -29.348,25.559 v -11.363 h 29.348 v 11.363 z m 36.711,6.5781 h -4.5156 l 0.0039,-19.348 v -0.01563 -0.01563 -12.773 h 4.5156 z m 5.3633,-36.395 c 0,0.78906 -0.63672,1.4258 -1.4258,1.4258 h -85.043 c -0.77344,0 -1.4062,-0.63672 -1.4062,-1.4258 v -8.1055 c 0,-0.78906 0.63672,-1.4258 1.4258,-1.4258 h 85.047 c 0.78906,0 1.4258,0.63672 1.4258,1.4258 l -0.0078,8.1055 z"
     id="path6143"
     style="fill:#666666" />
  <path
     d="m 60.104,68.6998 h -3.5625 c -0.78906,0 -1.4258,0.63672 -1.4258,1.4258 0,0.78906 0.63672,1.4258 1.4258,1.4258 h 3.5625 c 0.78906,0 1.4258,-0.63672 1.4258,-1.4258 0,-0.78906 -0.63672,-1.4258 -1.4258,-1.4258 z"
     id="path6145"
     style="fill:#666666" />
  <path
     d="m 56.546,57.5938 h 3.5625 c 0.78906,0 1.4258,-0.63672 1.4258,-1.4258 0,-0.78908 -0.63672,-1.4258 -1.4258,-1.4258 H 56.546 c -0.78906,0 -1.4258,0.63672 -1.4258,1.4258 0,0.78908 0.65234,1.4258 1.4258,1.4258 z"
     id="path6147"
     style="fill:#666666" />
  <path
     d="m 68.604,-1.4062 h 0.62109 c 0.78906,0 1.4258,-0.63672 1.4258,-1.4258 0,-0.78516 -0.63672,-1.4062 -1.4258,-1.4062 H 68.604 c -1.2422,0 -2.2422,-1.0156 -2.2422,-2.2422 V -8.5742 C 66.3618,-9.36326 65.72508,-10 64.936,-10 c -0.78906,0 -1.4258,0.63672 -1.4258,1.4258 v 2.0898 c 0.01953,2.8047 2.293,5.0781 5.0938,5.0781 z"
     id="path6151"
     style="fill:#666666" />
  <path
     d="m 73.667,-1.4062 h 1.0156 c 1.2422,0 2.2422,1.0156 2.2422,2.2422 0,1.2266 -1.0156,2.2422 -2.2422,2.2422 h -1.3477 c -2.8047,0 -5.0742,2.2734 -5.0742,5.0742 v 0.80469 c 0,0.78906 0.63672,1.4258 1.4258,1.4258 0.78906,0 1.4258,-0.63672 1.4258,-1.4258 V 8.1524 c 0,-1.2422 1.0156,-2.2422 2.2422,-2.2422 h 1.3477 c 2.8047,0 5.0742,-2.2734 5.0742,-5.0742 0,-2.8047 -2.2734,-5.0742 -5.0742,-5.0742 h -1.0156 c -0.78906,0 -1.4258,0.63672 -1.4258,1.4258 -0.0039,0.78516 0.61719,1.4062 1.4062,1.4062 z"
     id="path6153"
     style="fill:#666666" />
</svg>
