<?xml version="1.0" encoding="UTF-8" standalone="no"?>
<svg
   version="1.1"
   x="0px"
   y="0px"
   viewBox="0 0 102 32"
   enable-background="new 0 0 110 110"
   xml:space="preserve"
   id="svg5591"
   sodipodi:docname="noun-office-workplace-4406132.svg"
   width="102"
   height="32"
   xmlns:inkscape="http://www.inkscape.org/namespaces/inkscape"
   xmlns:sodipodi="http://sodipodi.sourceforge.net/DTD/sodipodi-0.dtd"
   xmlns="http://www.w3.org/2000/svg"
   xmlns:svg="http://www.w3.org/2000/svg"><defs
     id="defs5595" /><sodipodi:namedview
     id="namedview5593"
     pagecolor="#ffffff"
     bordercolor="#000000"
     borderopacity="0.25"
     inkscape:showpageshadow="2"
     inkscape:pageopacity="0.0"
     inkscape:pagecheckerboard="0"
     inkscape:deskcolor="#d1d1d1"
     showgrid="false" /><g
     id="g5585"
     transform="translate(-4,-39)"
     style="fill:#666666"><path
       d="m 105,51 h -1 -14 -6 v -2 h 6 V 39 H 76 v 10 h 6 v 2 H 76 62 56 v -2 h 6 V 39 H 48 v 10 h 6 v 2 H 48 34 28 v -2 h 6 V 39 H 20 v 10 h 6 v 2 H 20 6 5 c -0.552,0 -1,0.448 -1,1 0,0.552 0.448,1 1,1 h 1 v 4 6 2 6 h 14 v -6 -2 -6 -4 h 14 v 4 6 2 6 h 14 v -6 -2 -6 -4 h 14 v 4 6 2 6 h 14 v -6 -2 -6 -4 h 14 v 4 6 2 6 h 14 v -6 -2 -6 -4 h 1 c 0.553,0 1,-0.448 1,-1 0,-0.552 -0.447,-1 -1,-1 z M 18,69 H 8 v -4 h 10 z m 0,-6 H 8 v -4 h 10 z m 0,-6 H 8 v -4 h 10 z m 4,-10 v -6 h 10 v 6 z M 46,69 H 36 v -4 h 10 z m 0,-6 H 36 v -4 h 10 z m 0,-6 H 36 v -4 h 10 z m 4,-10 v -6 h 10 v 6 z M 74,69 H 64 v -4 h 10 z m 0,-6 H 64 v -4 h 10 z m 0,-6 H 64 v -4 h 10 z m 4,-10 v -6 h 10 v 6 z m 24,22 H 92 v -4 h 10 z m 0,-6 H 92 v -4 h 10 z m 0,-6 H 92 v -4 h 10 z"
       id="path5553"
       style="fill:#666666" /><path
       d="m 12,62 h 2 c 0.552,0 1,-0.447 1,-1 0,-0.553 -0.448,-1 -1,-1 h -2 c -0.552,0 -1,0.447 -1,1 0,0.553 0.448,1 1,1 z"
       id="path5555"
       style="fill:#666666" /><path
       d="m 31,61 c 0.552,0 1,-0.447 1,-1 0,-0.553 -0.448,-1 -1,-1 h -8 c -0.552,0 -1,0.447 -1,1 0,0.553 0.448,1 1,1 h 3 v 6 h -1 c -1.654,0 -3,1.346 -3,3 0,0.553 0.448,1 1,1 0.552,0 1,-0.447 1,-1 0,-0.552 0.449,-1 1,-1 h 4 c 0.551,0 1,0.448 1,1 0,0.553 0.448,1 1,1 0.552,0 1,-0.447 1,-1 0,-1.654 -1.346,-3 -3,-3 h -1 v -6 z"
       id="path5557"
       style="fill:#666666" /><path
       d="m 12,68 h 2 c 0.552,0 1,-0.447 1,-1 0,-0.553 -0.448,-1 -1,-1 h -2 c -0.552,0 -1,0.447 -1,1 0,0.553 0.448,1 1,1 z"
       id="path5559"
       style="fill:#666666" /><path
       d="m 12,56 h 2 c 0.552,0 1,-0.448 1,-1 0,-0.552 -0.448,-1 -1,-1 h -2 c -0.552,0 -1,0.448 -1,1 0,0.552 0.448,1 1,1 z"
       id="path5561"
       style="fill:#666666" /><path
       d="m 96,62 h 2 c 0.553,0 1,-0.447 1,-1 0,-0.553 -0.447,-1 -1,-1 h -2 c -0.553,0 -1,0.447 -1,1 0,0.553 0.447,1 1,1 z"
       id="path5563"
       style="fill:#666666" /><path
       d="m 96,68 h 2 c 0.553,0 1,-0.447 1,-1 0,-0.553 -0.447,-1 -1,-1 h -2 c -0.553,0 -1,0.447 -1,1 0,0.553 0.447,1 1,1 z"
       id="path5565"
       style="fill:#666666" /><path
       d="m 96,56 h 2 c 0.553,0 1,-0.448 1,-1 0,-0.552 -0.447,-1 -1,-1 h -2 c -0.553,0 -1,0.448 -1,1 0,0.552 0.447,1 1,1 z"
       id="path5567"
       style="fill:#666666" /><path
       d="m 68,62 h 2 c 0.553,0 1,-0.447 1,-1 0,-0.553 -0.447,-1 -1,-1 h -2 c -0.553,0 -1,0.447 -1,1 0,0.553 0.447,1 1,1 z"
       id="path5569"
       style="fill:#666666" /><path
       d="m 68,68 h 2 c 0.553,0 1,-0.447 1,-1 0,-0.553 -0.447,-1 -1,-1 h -2 c -0.553,0 -1,0.447 -1,1 0,0.553 0.447,1 1,1 z"
       id="path5571"
       style="fill:#666666" /><path
       d="m 68,56 h 2 c 0.553,0 1,-0.448 1,-1 0,-0.552 -0.447,-1 -1,-1 h -2 c -0.553,0 -1,0.448 -1,1 0,0.552 0.447,1 1,1 z"
       id="path5573"
       style="fill:#666666" /><path
       d="m 40,62 h 2 c 0.552,0 1,-0.447 1,-1 0,-0.553 -0.448,-1 -1,-1 h -2 c -0.552,0 -1,0.447 -1,1 0,0.553 0.448,1 1,1 z"
       id="path5575"
       style="fill:#666666" /><path
       d="m 40,68 h 2 c 0.552,0 1,-0.447 1,-1 0,-0.553 -0.448,-1 -1,-1 h -2 c -0.552,0 -1,0.447 -1,1 0,0.553 0.448,1 1,1 z"
       id="path5577"
       style="fill:#666666" /><path
       d="m 40,56 h 2 c 0.552,0 1,-0.448 1,-1 0,-0.552 -0.448,-1 -1,-1 h -2 c -0.552,0 -1,0.448 -1,1 0,0.552 0.448,1 1,1 z"
       id="path5579"
       style="fill:#666666" /><path
       d="m 59,61 c 0.553,0 1,-0.447 1,-1 0,-0.553 -0.447,-1 -1,-1 h -8 c -0.552,0 -1,0.447 -1,1 0,0.553 0.448,1 1,1 h 3 v 6 h -1 c -1.654,0 -3,1.346 -3,3 0,0.553 0.448,1 1,1 0.552,0 1,-0.447 1,-1 0,-0.552 0.449,-1 1,-1 h 4 c 0.552,0 1,0.448 1,1 0,0.553 0.447,1 1,1 0.553,0 1,-0.447 1,-1 0,-1.654 -1.346,-3 -3,-3 h -1 v -6 z"
       id="path5581"
       style="fill:#666666" /><path
       d="m 87,61 c 0.553,0 1,-0.447 1,-1 0,-0.553 -0.447,-1 -1,-1 h -8 c -0.553,0 -1,0.447 -1,1 0,0.553 0.447,1 1,1 h 3 v 6 h -1 c -1.654,0 -3,1.346 -3,3 0,0.553 0.447,1 1,1 0.553,0 1,-0.447 1,-1 0,-0.552 0.448,-1 1,-1 h 4 c 0.552,0 1,0.448 1,1 0,0.553 0.447,1 1,1 0.553,0 1,-0.447 1,-1 0,-1.654 -1.346,-3 -3,-3 h -1 v -6 z"
       id="path5583"
       style="fill:#666666" /></g></svg>
