<?xml version="1.0" encoding="UTF-8" standalone="no"?>
<svg
   viewBox="-25.6 -51.2 485.9706 446.1527"
   x="0px"
   y="0px"
   version="1.1"
   id="svg1096"
   sodipodi:docname="older-ok.svg"
   width="485.97061"
   height="446.15271"
   inkscape:version="1.2.2 (b0a8486541, 2022-12-01)"
   xmlns:inkscape="http://www.inkscape.org/namespaces/inkscape"
   xmlns:sodipodi="http://sodipodi.sourceforge.net/DTD/sodipodi-0.dtd"
   xmlns="http://www.w3.org/2000/svg"
   xmlns:svg="http://www.w3.org/2000/svg">
  <defs
     id="defs1100" />
  <sodipodi:namedview
     id="namedview1098"
     pagecolor="#ffffff"
     bordercolor="#000000"
     borderopacity="0.25"
     inkscape:showpageshadow="2"
     inkscape:pageopacity="0.0"
     inkscape:pagecheckerboard="0"
     inkscape:deskcolor="#d1d1d1"
     showgrid="false"
     inkscape:zoom="1.177662"
     inkscape:cx="241.15578"
     inkscape:cy="269.1774"
     inkscape:window-width="1920"
     inkscape:window-height="1044"
     inkscape:window-x="0"
     inkscape:window-y="0"
     inkscape:window-maximized="1"
     inkscape:current-layer="svg1096" />
  <g
     id="g1090"
     transform="translate(-40.4543,-76.6341)"
     style="fill:#6a6a6a">
    <path
       d="m 483.528,303.248 a 15.3771,15.3771 0 0 0 -0.3457,-11.767 c -13.16,-29.39 -26.9014,-73.0782 -38.6084,-111.9385 -11.6616,-38.7089 -37.1519,-47.08 -50.356,-50.9163 a 49.5446,49.5446 0 0 0 3.43,-26.3249 h 13.8242 a 6,6 0 0 0 0,-12 H 398.1442 V 62.1982 A 36.8057,36.8057 0 0 0 361.38,25.4341 h -26.04 a 36.8057,36.8057 0 0 0 -36.7646,36.7641 v 28.1031 h -13.3287 a 6,6 0 0 0 0,12 h 13.0372 a 49.3879,49.3879 0 0 0 2.9516,25.1129 c -11.9888,2.9541 -33.4722,11.5323 -44.5268,35.9569 a 67.18,67.18 0 0 0 -5.461,20.6929 l -1.9184,18.2505 a 82.9832,82.9832 0 0 0 -42.7847,-38.2 49.8135,49.8135 0 0 0 5.7373,-21.2462 A 31.79,31.79 0 0 0 201.2751,82.39 h -0.001 a 32.0118,32.0118 0 0 0 -9.46,0.6734 5.965,5.965 0 0 1 -5.76,-1.97 31.7914,31.7914 0 0 0 -47.793,-5e-4 5.9671,5.9671 0 0 1 -5.7607,1.9707 31.8061,31.8061 0 0 0 -38.6941,28.8464 31.718,31.718 0 0 0 18.2266,30.9583 49.826,49.826 0 0 0 4.9023,19.6174 c -13.8,4.3753 -41.6631,16.8041 -50.12,47.3388 -8.5937,31.0264 -18.4609,53.8316 -35.1943,81.3369 a 14.5892,14.5892 0 0 0 -1.2095,12.7483 25.5169,25.5169 0 0 0 -15.5571,23.4119 v 9.2446 a 6,6 0 0 0 12,0 v -9.2446 a 13.4641,13.4641 0 0 1 13.2832,-13.42 c 0.0478,-5e-4 0.0937,-5e-4 0.1406,-5e-4 a 13.4222,13.4222 0 0 1 13.418,13.42 V 465.58 a 6,6 0 0 0 12,0 V 327.3213 a 25.5379,25.5379 0 0 0 -0.9722,-6.9807 14.6247,14.6247 0 0 0 14.3061,-6.7381 c 5.8467,-9.2712 11.1216,-18.5238 15.8111,-27.6727 l -6.9946,90.2841 a 6,6 0 0 0 5.9824,6.4633 h 18.9873 l 3.0234,77.2344 a 12.1082,12.1082 0 0 0 12.1337,11.6684 h 64.3682 a 12.1081,12.1081 0 0 0 12.1338,-11.668 l 3.0234,-77.2349 h 19.4766 a 6.0012,6.0012 0 0 0 5.9658,-6.643 l -4.57,-42.4014 h 54.6665 l -8.3426,123.6485 a 13.4036,13.4036 0 0 0 13.373,14.3052 h 36.3526 A 13.4216,13.4216 0 0 0 337.8,458.9927 l 7.1133,-117.59 a 2.4889,2.4889 0 0 1 4.9687,-9e-4 l 7.125,117.5918 a 13.4214,13.4214 0 0 0 13.3789,12.5932 h 36.3057 a 13.4054,13.4054 0 0 0 13.3681,-14.3847 L 405.5641,259.7944 c 4.2608,11.929 7.4219,20.2873 7.4737,20.4244 5.9316,16.3061 11.7871,29.4287 15.6552,37.5659 a 15.31,15.31 0 0 0 8.9375,7.9731 15.32,15.32 0 0 0 11.9571,-0.8271 l 0.5356,-0.2705 a 25.8655,25.8655 0 0 0 -0.1391,2.6611 V 465.58 a 6,6 0 0 0 12,0 V 327.3213 a 13.4215,13.4215 0 0 1 13.5566,-13.42 13.4643,13.4643 0 0 1 13.2842,13.42 v 9.2446 a 6,6 0 0 0 12,0 v -9.2446 A 25.5239,25.5239 0 0 0 483.528,303.248 Z M 364.8854,158.5459 a 16.5259,16.5259 0 1 1 -33.0517,0 16.7729,16.7729 0 0 1 0.1074,-1.8356 50.0212,50.0212 0 0 0 32.812,-0.2586 16.814,16.814 0 0 1 0.1323,2.0942 z m -16.92,-11.1963 a 38.2214,38.2214 0 0 1 -38.1777,-38.1782 q 0,-1.0705 0.0645,-2.125 a 5.0522,5.0522 0 0 1 5.0438,-4.7451 h 66.14 a 5.0522,5.0522 0 0 1 5.0438,4.7451 q 0.0636,1.0545 0.0645,2.125 A 38.2216,38.2216 0 0 1 347.9655,147.35 Z M 310.5749,62.1982 A 24.7925,24.7925 0 0 1 335.34,37.4341 h 26.04 a 24.7926,24.7926 0 0 1 24.7646,24.7641 V 90.3013 H 310.5749 Z M 105.779,112.7148 a 19.8077,19.8077 0 0 1 24.0957,-17.9428 17.9624,17.9624 0 0 0 17.4033,-5.7613 19.7914,19.7914 0 0 1 29.76,5e-4 17.9635,17.9635 0 0 0 17.4033,5.7608 19.9541,19.9541 0 0 1 5.9131,-0.4175 h -0.001 a 19.8032,19.8032 0 0 1 12.8955,33.2627 19.7917,19.7917 0 0 1 -27.9858,0.9419 c 11.7739,-6.3662 12.8545,-16.6864 12.9038,-17.2505 a 6.0002121,6.0002121 0 0 0 -11.9551,-1.042 c -0.007,0.0844 -1.1592,8.4206 -16.18,10.6741 a 18.3463,18.3463 0 0 0 -3.479,0.4426 19.9906,19.9906 0 0 1 -8.791,0 17.2289,17.2289 0 0 0 -17.0986,5.4858 19.8014,19.8014 0 0 1 -34.8838,-14.1543 z m 19.7558,33.1841 a 31.7513,31.7513 0 0 0 24.294,-11.2842 5.2786,5.2786 0 0 1 5.2715,-1.53 32.0756,32.0756 0 0 0 14.1132,0 5.281,5.281 0 0 1 5.2725,1.5307 31.7509,31.7509 0 0 0 24.294,11.2835 c 0.4019,0 0.8023,-0.0161 1.2027,-0.0314 a 38.1685,38.1685 0 0 1 -75.65,0 c 0.3999,0.0153 0.8003,0.0314 1.2021,0.0314 z m 36.6231,45.0293 a 49.94,49.94 0 0 0 16.1924,-2.6963 16.5265,16.5265 0 0 1 -32.3858,0 49.9408,49.9408 0 0 0 16.1934,2.6963 z M 127.83,459.4424 124.8251,382.6772 h 29.333 V 459.58 h -26.1848 a 0.1429,0.1429 0 0 1 -0.1433,-0.1376 z m 111.13,-137.81 h -26.624 a 2.727,2.727 0 0 1 -2.2812,-1.2173 2.6021,2.6021 0 0 1 -0.2647,-2.49 c 7.3526,-18.086 17.2832,-54.5015 1.167,-95.1817 a 6,6 0 1 0 -11.1562,4.42 c 14.5722,36.7837 5.5488,69.8222 -1.128,86.2421 a 14.7187,14.7187 0 0 0 13.6631,20.2266 h 3.9649 l 3.9931,37.0444 h -35.61 a 6,6 0 1 0 0,12 h 10.806 l -3.0049,76.7657 a 0.1428,0.1428 0 0 1 -0.1435,0.1372 h -26.1837 v -82.9022 a 6,6 0 0 0 -6,-6 h -59.8467 l 9.1548,-118.16 a 205.37,205.37 0 0 0 7.977,-27.8565 6,6 0 1 0 -11.7519,-2.4238 c -5.332,25.8511 -18.0606,55.2315 -36.8115,84.9649 a 2.7222,2.7222 0 0 1 -3.1133,1.1416 l -22.3555,-6.9522 a 2.697,2.697 0 0 1 -1.751,-1.65 2.6379,2.6379 0 0 1 0.2129,-2.3428 c 17.1319,-28.1606 27.709,-52.6049 36.5069,-84.3706 7.3261,-26.4541 33.3,-36.5722 44.1269,-39.6948 a 6.1727,6.1727 0 0 0 0.5869,-0.2026 l 0.5733,-0.232 a 50.5874,50.5874 0 0 0 10.1181,9.2091 c -0.0923,0.936 -0.1533,1.8763 -0.1533,2.8212 a 28.5259,28.5259 0 1 0 57.0518,0 c 0,-0.9443 -0.0611,-1.8847 -0.1534,-2.821 a 50.5855,50.5855 0 0 0 8.9473,-7.8581 c 13.04,4.7085 29.6187,14.5283 40.01,34.97 13.5457,26.6456 13.366,64.4474 -0.5272,112.4132 z m 205.22,-7.414 a 3.43,3.43 0 0 1 -4.6485,-1.586 c -3.7558,-7.9023 -9.4453,-20.6523 -15.2441,-36.5918 -0.1348,-0.3569 -13.6309,-36.0381 -22.4736,-65.3735 a 5.9953,5.9953 0 0 0 -11.2012,-0.7509 c -0.0161,0.036 -0.0352,0.0708 -0.0508,0.1072 -0.0508,0.1168 -0.0933,0.2366 -0.1362,0.3565 -0.023,0.0629 -0.0484,0.1244 -0.0689,0.1882 -0.0346,0.1083 -0.0625,0.2189 -0.0908,0.3293 -0.02,0.0763 -0.0425,0.1515 -0.06,0.2288 -0.0239,0.1113 -0.04,0.2242 -0.0586,0.3371 -0.0122,0.0777 -0.0273,0.1543 -0.0366,0.2328 -0.0146,0.1222 -0.021,0.2456 -0.0278,0.3692 -0.004,0.0706 -0.0108,0.14 -0.0122,0.2115 -0.003,0.1291 0.003,0.259 0.009,0.3891 0.002,0.0578 0,0.1145 0.004,0.1726 l 0.007,0.0925 10e-4,0.01 3.29,44.81 H 378.028 a 6,6 0 0 0 0,12 h 16.2344 l 13.8281,188.329 a 1.4045,1.4045 0 0 1 -1.3994,1.5068 h -36.3057 a 1.4049,1.4049 0 0 1 -1.4,-1.3183 L 361.86,340.6758 a 14.4894,14.4894 0 0 0 -28.9258,0.001 l -7.1132,117.5909 a 1.4054,1.4054 0 0 1 -1.4,1.3183 h -36.353 a 1.4031,1.4031 0 0 1 -1.4,-1.498 L 299.3746,269.7515 H 352.99 a 6,6 0 0 0 0,-12 h -52.8062 l 3.0327,-44.9483 a 6,6 0 0 0 -11.9727,-0.8076 l -7.397,109.6372 h -32.4233 c 11.1758,-40.062 12.0293,-70.3125 7.2192,-93.1356 l 4.5386,-43.1764 a 55.2463,55.2463 0 0 1 4.46,-17.0024 c 10.021,-22.14 30.84,-28.2935 39.5688,-29.9295 a 50.5728,50.5728 0 0 0 13.5532,12.914 28.5256,28.5256 0 1 0 55.1866,-0.0241 c -0.0357,-0.1357 -0.0816,-0.2657 -0.1255,-0.3967 a 50.5943,50.5943 0 0 0 12.1782,-11.5036 c 0.0884,0.0262 0.1738,0.0572 0.2647,0.0795 l 1.4023,0.3447 0.0752,0.0215 c 11.6084,3.3467 33.2158,9.5767 43.3389,43.18 11.8163,39.2258 25.7089,83.3708 39.1474,113.3811 a 3.4275,3.4275 0 0 1 -1.5859,4.4653 c -7.5713,3.8257 -18.794,9.4951 -26.4658,13.3682 z"
       id="path1084"
       style="fill:#6a6a6a" />
    <path
       d="m 354.7438,123.34 a 11.2811,11.2811 0 0 1 -12.5273,0.1636 5,5 0 0 0 -5.8916,8.08 21.9134,21.9134 0 0 0 12.124,3.7476 21.4436,21.4436 0 0 0 11.6641,-3.5547 5.0001132,5.0001132 0 1 0 -5.3692,-8.4366 z"
       id="path1086"
       style="fill:#6a6a6a" />
    <path
       d="m 150.1227,163.8174 a 21.9141,21.9141 0 0 0 12.124,3.7475 21.4432,21.4432 0 0 0 11.6641,-3.5546 5.0000864,5.0000864 0 1 0 -5.3691,-8.4366 11.2811,11.2811 0 0 1 -12.5274,0.1636 5,5 0 0 0 -5.8916,8.08 z"
       id="path1088"
       style="fill:#6a6a6a" />
  </g>
</svg>
