<?xml version="1.0" encoding="UTF-8" standalone="no"?>
<svg
   viewBox="-25.6 -51.2 318.66155 367.22506"
   x="0px"
   y="0px"
   version="1.1"
   id="svg1078"
   sodipodi:docname="older-no.svg"
   inkscape:version="1.2.2 (b0a8486541, 2022-12-01)"
   width="318.66156"
   height="367.22507"
   xmlns:inkscape="http://www.inkscape.org/namespaces/inkscape"
   xmlns:sodipodi="http://sodipodi.sourceforge.net/DTD/sodipodi-0.dtd"
   xmlns="http://www.w3.org/2000/svg"
   xmlns:svg="http://www.w3.org/2000/svg">
  <defs
     id="defs1082" />
  <sodipodi:namedview
     id="namedview1080"
     pagecolor="#ffffff"
     bordercolor="#000000"
     borderopacity="0.25"
     inkscape:showpageshadow="2"
     inkscape:pageopacity="0.0"
     inkscape:pagecheckerboard="0"
     inkscape:deskcolor="#d1d1d1"
     showgrid="false"
     inkscape:zoom="1.177662"
     inkscape:cx="-135.86241"
     inkscape:cy="206.34104"
     inkscape:window-width="1920"
     inkscape:window-height="1044"
     inkscape:window-x="0"
     inkscape:window-y="0"
     inkscape:window-maximized="1"
     inkscape:current-layer="svg1078" />
  <g
     id="g1072"
     transform="translate(-227.00203,-185.18532)"
     style="fill:#6a6a6a">
    <path
       id="path1068"
       d="m 349.72031,137.83711 a 30.9134,30.9134 0 0 0 -30.8789,30.87891 v 21.57812 h -9.63086 a 6,6 0 0 0 0,12 h 9.24414 a 40.8742,40.8742 0 0 0 1.13672,15.07227 c -10.40139,2.97779 -26.05817,10.45636 -34.50586,29.11914 a 55.466,55.466 0 0 0 -4.51172,17.08789 L 270.01328,364.05 a 19.6875,19.6875 0 0 0 19.58008,21.74609 h 16.60351 l -6.66406,98.76954 a 11.9864,11.9864 0 0 0 11.96094,12.79296 h 29.39648 a 12.0044,12.0044 0 0 0 11.96485,-11.26171 l 5.75195,-95.09571 a 0.8648,0.8648 0 0 1 1.72656,0 l 5.76172,95.09571 a 12.0044,12.0044 0 0 0 11.9668,11.26171 h 29.35937 a 11.9855,11.9855 0 0 0 11.95508,-12.86523 l -11.10937,-151.3125 c 1.9253,5.27239 3.18118,8.59156 3.20898,8.66406 4.8145,13.23439 9.56543,23.88048 12.70313,30.48047 a 13.52,13.52 0 0 0 7.89062,7.04102 13.5263,13.5263 0 0 0 10.56055,-0.73047 l 5.6914,-2.87305 c -0.008,0.2492 -0.0371,0.49364 -0.0371,0.74414 v 114.85156 a 6,6 0 0 0 12,0 V 376.50703 a 9.7056,9.7056 0 0 1 9.70117,-9.70508 c 0.0342,0 0.0694,9.6e-4 0.10351,0.002 a 9.7353,9.7353 0 0 1 9.60547,9.70312 v 7.47656 a 6,6 0 0 0 12,0 v -7.47656 a 21.7646,21.7646 0 0 0 -20.20508,-21.625 13.616,13.616 0 0 0 -1.16211,-4.78906 C 459.71294,326.38689 448.61295,291.09922 439.15586,259.70625 430.23887,230.10628 410.83409,221.85059 399.9625,218.4543 a 40.8291,40.8291 0 0 0 1.44531,-16.16016 h 9.88086 a 6,6 0 0 0 0,-12 h -9.63086 v -21.57812 a 30.9135,30.9135 0 0 0 -30.8789,-30.87891 z m 0,12 h 21.0586 a 18.9,18.9 0 0 1 18.8789,18.87891 v 21.57812 h -58.8164 v -21.57812 a 18.9,18.9 0 0 1 18.8789,-18.87891 z m -15.0664,52.45898 h 50.55468 a 4.4221,4.4221 0 0 1 4.44922,4.36329 v 0.0449 a 29.76,29.76 0 0 1 -29.72656,29.72656 29.76,29.76 0 0 1 -29.72656,-29.72656 v -0.0449 a 4.4221,4.4221 0 0 1 4.44922,-4.36329 z m -10.28125,26.21094 a 42.0576,42.0576 0 0 0 12.26171,12.79688 24.2158,24.2158 0 1 0 47.14063,-0.38672 42.0592,42.0592 0 0 0 11.10742,-11.46485 c 9.43449,2.7808 25.18941,8.50727 32.7832,33.71485 9.5674,31.75777 20.8164,67.5039 31.70899,91.83008 a 1.6239,1.6239 0 0 1 -0.75,2.11718 L 437.22227,367.925 a 1.6278,1.6278 0 0 1 -2.20704,-0.75 c -3.02639,-6.36519 -7.60942,-16.63957 -12.29101,-29.50586 -0.1094,-0.289 -11.00995,-29.10554 -18.14844,-52.79101 -0.019,-0.0635 -0.0449,-0.12325 -0.0664,-0.18555 -0.0386,-0.1148 -0.0757,-0.2307 -0.12109,-0.3418 -0.0366,-0.09 -0.0791,-0.17462 -0.11914,-0.26172 -0.04,-0.0871 -0.0801,-0.17797 -0.125,-0.26367 -0.0571,-0.1093 -0.12059,-0.21366 -0.18359,-0.31836 -0.0347,-0.0574 -0.0669,-0.11597 -0.10352,-0.17187 -0.08,-0.1228 -0.16601,-0.23977 -0.25391,-0.35547 -0.0264,-0.0342 -0.0517,-0.07 -0.0781,-0.10352 -0.1,-0.125 -0.2041,-0.24347 -0.3125,-0.35937 -0.021,-0.0225 -0.041,-0.0462 -0.0625,-0.0684 -0.1143,-0.1179 -0.23287,-0.23019 -0.35547,-0.33789 -0.021,-0.0185 -0.041,-0.0366 -0.0625,-0.0547 -0.123,-0.105 -0.25006,-0.20433 -0.38086,-0.29883 -0.0259,-0.019 -0.0517,-0.038 -0.0781,-0.0566 -0.1269,-0.0888 -0.25928,-0.1711 -0.39258,-0.25 -0.0342,-0.02 -0.0674,-0.043 -0.10156,-0.0625 -0.1293,-0.073 -0.26034,-0.13797 -0.39454,-0.20117 -0.042,-0.02 -0.0845,-0.0415 -0.12695,-0.0605 -0.1314,-0.0584 -0.26469,-0.1095 -0.40039,-0.1582 -0.0479,-0.0171 -0.0942,-0.0366 -0.14258,-0.0527 -0.1367,-0.0452 -0.27641,-0.0837 -0.41601,-0.11914 -0.0493,-0.0124 -0.0967,-0.0258 -0.14649,-0.0371 -0.145,-0.0329 -0.29205,-0.0579 -0.43945,-0.0801 -0.0464,-0.007 -0.0937,-0.0156 -0.14063,-0.0215 -0.15229,-0.019 -0.30508,-0.0298 -0.45898,-0.0371 -0.0459,-0.002 -0.0904,-0.007 -0.13672,-0.008 -0.145,-0.004 -0.2915,5.1e-4 -0.4375,0.008 -0.0493,0.002 -0.0972,0.001 -0.14648,0.004 l -0.0352,0.004 c -0.1206,0.01 -0.24218,0.0276 -0.36328,0.0449 -0.0844,0.0117 -0.17051,0.0212 -0.25391,0.0371 -0.0834,0.0159 -0.16409,0.0376 -0.24609,0.0566 -0.1211,0.0274 -0.24158,0.0532 -0.35938,0.0879 -0.0113,0.003 -0.022,0.004 -0.0332,0.008 -0.05,0.0151 -0.0986,0.0363 -0.14844,0.0527 -0.1318,0.0434 -0.26322,0.0882 -0.39062,0.14063 -0.0684,0.0276 -0.13252,0.0598 -0.19922,0.0898 -0.1114,0.05 -0.22278,0.0994 -0.33008,0.15625 -0.0826,0.0435 -0.16063,0.0918 -0.24023,0.13868 -0.0859,0.05 -0.17336,0.0998 -0.25586,0.15429 -0.09,0.0591 -0.17532,0.1238 -0.26172,0.1875 -0.0679,0.05 -0.13773,0.0996 -0.20313,0.15235 -0.0889,0.0713 -0.17185,0.14675 -0.25585,0.22265 -0.0586,0.0532 -0.11919,0.10446 -0.17579,0.16016 -0.0806,0.0786 -0.15672,0.16134 -0.23242,0.24414 -0.0546,0.06 -0.10951,0.11964 -0.16211,0.18164 -0.0683,0.081 -0.13131,0.1652 -0.19531,0.25 -0.0537,0.0711 -0.108,0.14134 -0.1582,0.21484 -0.0547,0.0793 -0.10595,0.16234 -0.15625,0.24414 -0.0523,0.0837 -0.10445,0.16556 -0.15235,0.25196 -0.0429,0.0774 -0.0815,0.15723 -0.12109,0.23633 -0.0468,0.0948 -0.0928,0.1899 -0.13477,0.2871 -0.0342,0.0788 -0.065,0.15829 -0.0957,0.23829 -0.0381,0.0991 -0.0762,0.19928 -0.10937,0.30078 -0.0283,0.0881 -0.0513,0.17798 -0.0762,0.26758 -0.0259,0.0953 -0.0527,0.18845 -0.0742,0.28515 -0.0234,0.1067 -0.0405,0.21582 -0.0586,0.32422 -0.0132,0.081 -0.0273,0.16214 -0.0371,0.24414 -0.0166,0.1333 -0.0239,0.26734 -0.0312,0.40234 -0.003,0.06 -0.009,0.11764 -0.01,0.17774 -0.004,0.1547 9.6e-4,0.3103 0.01,0.4668 0.002,0.0378 -4.4e-4,0.0754 0.002,0.11328 l 0.006,0.0625 c 0.002,0.0178 0.002,0.0348 0.004,0.0527 l 2.78125,37.85352 h -11.39453 a 6,6 0 0 0 0,12 h 12.27539 l 10.90234,148.34179 -29.34765,0.0117 -5.76172,-95.09375 a 12.8653,12.8653 0 0 0 -25.68359,0 l -5.73829,95.08203 -29.38476,0.0156 10.00976,-148.35742 h 40.72657 a 6,6 0 0 0 0,-12 h -39.91797 l 2.56445,-38.00391 a 6,6 0 0 0 -11.97266,-0.80859 l -5.91015,87.59179 H 289.5937 a 7.6886,7.6886 0 0 1 -7.64649,-8.49218 l 10.5625,-100.47266 a 43.5145,43.5145 0 0 1 3.50977,-13.39844 c 6.91309,-15.27388 20.26962,-20.88478 28.35352,-22.92578 z m 48.08593,17.99805 c 0,0.0423 0.008,0.0846 0.008,0.12695 a 12.2154,12.2154 0 0 1 -24.42969,0.0606 41.6728,41.6728 0 0 0 24.42187,-0.1875 z"
       style="fill:#6a6a6a" />
  </g>
  <g
     id="g526"
     transform="matrix(6.6607071,0,0,7.6757079,-199.30125,-251.37095)"
     style="fill:#6a6a6a">
    <path
       d="m 27.579,73.921 c -0.384,0 -0.768,-0.146 -1.061,-0.439 -0.586,-0.585 -0.586,-1.536 0,-2.121 L 71.36,26.518 c 0.586,-0.586 1.535,-0.586 2.121,0 0.586,0.585 0.586,1.536 0,2.121 L 28.639,73.481 c -0.293,0.293 -0.677,0.44 -1.06,0.44 z"
       id="path524"
       style="fill:#6a6a6a" />
  </g>
</svg>
