<?xml version="1.0" encoding="UTF-8" standalone="no"?>
<svg
   version="1.1"
   x="0px"
   y="0px"
   viewBox="0 0 85.144081 50.928001"
   enable-background="new 0 0 100 100"
   xml:space="preserve"
   id="svg14"
   sodipodi:docname="only_pool.svg"
   width="85.144081"
   height="50.928001"
   inkscape:version="1.1.2 (0a00cf5339, 2022-02-04)"
   xmlns:inkscape="http://www.inkscape.org/namespaces/inkscape"
   xmlns:sodipodi="http://sodipodi.sourceforge.net/DTD/sodipodi-0.dtd"
   xmlns="http://www.w3.org/2000/svg"
   xmlns:svg="http://www.w3.org/2000/svg"><defs
     id="defs18" /><sodipodi:namedview
     id="namedview16"
     pagecolor="#ffffff"
     bordercolor="#666666"
     borderopacity="1.0"
     inkscape:pageshadow="2"
     inkscape:pageopacity="0.0"
     inkscape:pagecheckerboard="0"
     showgrid="false"
     fit-margin-top="0"
     fit-margin-left="0"
     fit-margin-right="0"
     fit-margin-bottom="0"
     inkscape:zoom="6.088"
     inkscape:cx="42.542707"
     inkscape:cy="39.914586"
     inkscape:window-width="1920"
     inkscape:window-height="1052"
     inkscape:window-x="3840"
     inkscape:window-y="0"
     inkscape:window-maximized="1"
     inkscape:current-layer="svg14" /><g
     id="g8"
     transform="translate(-7.4281426,-22.5)"
     style="fill:#4a4a4a"><path
       d="m 25.837,58.501 c 1.488,1.378 3.175,2.94 6.455,2.94 3.28,0 4.967,-1.562 6.456,-2.94 1.396,-1.292 2.601,-2.408 5.097,-2.408 2.496,0 3.7,1.116 5.096,2.408 1.488,1.378 3.175,2.94 6.454,2.94 3.281,0 4.968,-1.562 6.458,-2.94 1.396,-1.292 2.602,-2.408 5.1,-2.408 2.498,0 3.704,1.116 5.1,2.408 1.489,1.378 3.177,2.94 6.458,2.94 0.552,0 1,-0.448 1,-1 0,-0.552 -0.448,-1 -1,-1 -2.498,0 -3.704,-1.116 -5.1,-2.408 -1.489,-1.378 -3.177,-2.94 -6.458,-2.94 -3.281,0 -4.969,1.562 -6.458,2.94 -1.396,1.292 -2.602,2.408 -5.099,2.408 -2.496,0 -3.7,-1.116 -5.095,-2.408 -1.488,-1.378 -3.175,-2.94 -6.455,-2.94 -3.28,0 -4.967,1.562 -6.456,2.94 -1.396,1.292 -2.601,2.408 -5.097,2.408 -2.496,0 -3.7,-1.116 -5.096,-2.408 -1.488,-1.378 -3.174,-2.94 -6.454,-2.94 -0.552,0 -1,0.448 -1,1 0,0.552 0.448,1 1,1 2.494,10e-4 3.699,1.116 5.094,2.408 z"
       id="path2"
       style="fill:#4a4a4a" /><path
       d="m 17.38,65.163 c 0,0.552 0.448,1 1,1 2.794,0 4.13,1.129 5.676,2.438 1.613,1.364 3.44,2.911 6.968,2.911 3.528,0 5.356,-1.546 6.969,-2.911 1.547,-1.308 2.883,-2.438 5.679,-2.438 2.794,0 4.13,1.129 5.676,2.438 1.613,1.364 3.44,2.911 6.968,2.911 3.529,0 5.358,-1.546 6.972,-2.91 1.547,-1.308 2.884,-2.438 5.681,-2.438 2.797,0 4.133,1.13 5.681,2.438 1.614,1.364 3.442,2.911 6.972,2.911 0.552,0 1,-0.448 1,-1 0,-0.552 -0.448,-1 -1,-1 -2.797,0 -4.133,-1.13 -5.681,-2.438 -1.614,-1.364 -3.442,-2.911 -6.972,-2.911 -3.53,0 -5.358,1.546 -6.972,2.911 -1.547,1.308 -2.884,2.438 -5.681,2.438 -2.794,0 -4.13,-1.129 -5.676,-2.438 -1.613,-1.364 -3.44,-2.911 -6.968,-2.911 -3.528,0 -5.357,1.546 -6.97,2.911 -1.546,1.308 -2.882,2.438 -5.678,2.438 -2.794,0 -4.13,-1.129 -5.676,-2.438 -1.613,-1.364 -3.44,-2.911 -6.968,-2.911 -0.552,-0.001 -1,0.447 -1,0.999 z"
       id="path4"
       style="fill:#4a4a4a" /><path
       d="m 8.135,73.383 c 0.098,0.03 0.196,0.044 0.293,0.044 0.428,0 0.824,-0.277 0.956,-0.708 L 23.091,27.968 h 23.681 v 0.964 H 24.74 c -0.018,0 -0.034,0.01 -0.052,0.011 -0.068,0.004 -0.129,0.022 -0.193,0.039 -0.063,0.016 -0.126,0.028 -0.184,0.056 -0.054,0.026 -0.099,0.064 -0.148,0.1 -0.055,0.04 -0.11,0.076 -0.156,0.126 -0.04,0.043 -0.066,0.095 -0.098,0.146 -0.038,0.06 -0.076,0.118 -0.101,0.186 -0.006,0.016 -0.019,0.028 -0.024,0.045 L 11.063,71.17 c -0.162,0.528 0.135,1.087 0.663,1.249 0.098,0.03 0.196,0.044 0.293,0.044 0.428,0 0.824,-0.277 0.956,-0.708 L 25.48,30.933 h 21.293 v 13.596 c -0.726,-0.307 -1.565,-0.505 -2.586,-0.505 -2.954,0 -4.451,1.587 -5.772,2.988 -1.194,1.267 -2.226,2.36 -4.316,2.36 -2.09,0 -3.121,-1.094 -4.315,-2.36 -1.32,-1.401 -2.817,-2.988 -5.77,-2.988 -0.552,0 -1,0.448 -1,1 0,0.552 0.448,1 1,1 2.09,0 3.121,1.094 4.315,2.36 1.32,1.401 2.817,2.988 5.77,2.988 2.953,0 4.451,-1.587 5.771,-2.988 1.194,-1.267 2.226,-2.36 4.317,-2.36 1.095,0 1.897,0.305 2.586,0.773 v 0.171 h 0.234 c 0.527,0.4 0.999,0.891 1.495,1.417 1.32,1.401 2.817,2.988 5.77,2.988 2.955,0 4.452,-1.587 5.774,-2.988 0.496,-0.526 0.968,-1.017 1.496,-1.417 h 0.14 v -0.102 c 0.711,-0.506 1.535,-0.841 2.682,-0.841 2.092,0 3.124,1.094 4.318,2.36 1.321,1.4 2.819,2.988 5.773,2.988 0.552,0 1,-0.448 1,-1 0,-0.552 -0.448,-1 -1,-1 -2.092,0 -3.124,-1.094 -4.318,-2.36 -1.321,-1.4 -2.819,-2.988 -5.773,-2.988 -1.065,0 -1.936,0.211 -2.682,0.541 V 30.933 H 74.52 l 12.504,40.824 c 0.132,0.43 0.528,0.708 0.956,0.708 0.097,0 0.196,-0.015 0.293,-0.044 0.528,-0.162 0.825,-0.721 0.663,-1.249 L 76.216,29.64 c -0.005,-0.017 -0.018,-0.028 -0.024,-0.045 -0.024,-0.067 -0.062,-0.124 -0.099,-0.183 -0.032,-0.052 -0.06,-0.105 -0.1,-0.149 -0.044,-0.048 -0.098,-0.083 -0.15,-0.122 -0.05,-0.037 -0.097,-0.076 -0.153,-0.103 -0.057,-0.027 -0.118,-0.039 -0.18,-0.055 -0.065,-0.017 -0.128,-0.036 -0.196,-0.04 -0.018,-0.001 -0.034,-0.011 -0.052,-0.011 H 61.682 V 27.968 H 76.909 L 90.616,72.72 c 0.132,0.43 0.528,0.708 0.956,0.708 0.097,0 0.196,-0.015 0.293,-0.044 0.528,-0.162 0.825,-0.721 0.663,-1.249 L 78.604,26.676 C 78.599,26.659 78.586,26.648 78.58,26.631 78.556,26.563 78.518,26.506 78.48,26.447 78.448,26.396 78.421,26.343 78.38,26.299 78.336,26.25 78.282,26.216 78.229,26.177 78.179,26.14 78.132,26.101 78.076,26.074 78.02,26.047 77.959,26.036 77.898,26.02 77.832,26.002 77.768,25.984 77.699,25.98 77.681,25.979 77.666,25.97 77.648,25.97 h -9.052 c -0.671,-2.027 -2.343,-3.47 -4.299,-3.47 -1.956,0 -3.628,1.443 -4.299,3.47 h -4.311 c -0.671,-2.027 -2.343,-3.47 -4.299,-3.47 -1.956,0 -3.628,1.443 -4.299,3.47 H 22.352 c -0.018,0 -0.033,0.009 -0.051,0.01 -0.07,0.004 -0.133,0.023 -0.199,0.04 -0.061,0.016 -0.122,0.027 -0.177,0.054 -0.057,0.027 -0.103,0.067 -0.154,0.104 -0.053,0.039 -0.106,0.073 -0.15,0.121 -0.04,0.044 -0.068,0.097 -0.1,0.148 -0.038,0.06 -0.075,0.117 -0.1,0.184 -0.006,0.016 -0.019,0.028 -0.024,0.045 L 7.472,72.134 c -0.161,0.529 0.135,1.088 0.663,1.249 z M 59.682,40.387 h -10.91 v -5.799 h 10.909 v 5.799 z m -1.092,6.625 c -1.195,1.267 -2.227,2.36 -4.319,2.36 -2.09,0 -3.121,-1.094 -4.315,-2.36 -0.37,-0.392 -0.758,-0.797 -1.184,-1.179 v -3.446 h 10.909 v 3.527 c -0.389,0.358 -0.747,0.734 -1.091,1.098 z m 1.092,-14.425 h -10.91 v -1.655 h 10.909 v 1.655 z m 0,-3.654 h -10.91 v -0.964 h 10.909 v 0.964 z m 4.615,-4.434 c 0.885,0 1.667,0.584 2.14,1.47 h -4.28 c 0.474,-0.887 1.255,-1.47 2.14,-1.47 z m -12.909,0 c 0.885,0 1.667,0.584 2.14,1.47 h -4.28 c 0.474,-0.887 1.255,-1.47 2.14,-1.47 z"
       id="path6"
       style="fill:#4a4a4a" /></g></svg>
