<?xml version="1.0" encoding="UTF-8" standalone="no"?>
<svg
   version="1.1"
   viewBox="-5 -10 55.580326 96.806778"
   id="svg42"
   sodipodi:docname="padel-racket-form.svg"
   width="55.580326"
   height="96.806778"
   inkscape:version="1.2.2 (b0a8486541, 2022-12-01)"
   xmlns:inkscape="http://www.inkscape.org/namespaces/inkscape"
   xmlns:sodipodi="http://sodipodi.sourceforge.net/DTD/sodipodi-0.dtd"
   xmlns="http://www.w3.org/2000/svg"
   xmlns:svg="http://www.w3.org/2000/svg">
  <defs
     id="defs46" />
  <sodipodi:namedview
     id="namedview44"
     pagecolor="#ffffff"
     bordercolor="#000000"
     borderopacity="0.25"
     inkscape:showpageshadow="2"
     inkscape:pageopacity="0.0"
     inkscape:pagecheckerboard="0"
     inkscape:deskcolor="#d1d1d1"
     showgrid="false"
     inkscape:zoom="6.4222222"
     inkscape:cx="27.794118"
     inkscape:cy="114.2128"
     inkscape:window-width="1864"
     inkscape:window-height="1012"
     inkscape:window-x="1976"
     inkscape:window-y="32"
     inkscape:window-maximized="1"
     inkscape:current-layer="svg42" />
  <g
     id="g36"
     transform="translate(-27.210406,-11.667571)"
     style="fill:#666666">
    <path
       d="M 77.574,30 C 78.50369,23.2227 76.4138,16.375 71.8552,11.277 66.3747,5.152 58.5462,1.6559 50.3322,1.6676 h -0.66406 c -8.2148,-0.011719 -16.043,3.4883 -21.516,9.6172 -4.5625,5.0977 -6.6523,11.938 -5.7266,18.715 1.5664,11.137 7.0781,21.344 15.539,28.758 2.4883,4.0391 4.3789,8.4219 5.6172,13 -0.67188,0.46484 -1.0781,1.2266 -1.0898,2.0469 v 17 c -0.08594,4.1484 3.2031,7.5781 7.3516,7.668 4.1484,0.08594 7.5781,-3.2031 7.668,-7.3516 0.0039,-0.10547 0.0039,-0.21094 0,-0.31641 v -17 c -0.01172,-0.82031 -0.41797,-1.582 -1.0938,-2.0469 1.2383,-4.5781 3.1289,-8.9609 5.6211,-13 8.4531,-7.4141 13.969,-17.621 15.535,-28.758 z M 25.726,29.54688 c -0.78906,-5.8242 1.0117,-11.699 4.9414,-16.074 4.8672,-5.4258 11.824,-8.5117 19.113,-8.4727 h 0.55078 c 7.2539,-0.011719 14.168,3.0664 19,8.4727 3.9219,4.375 5.7305,10.25 4.9375,16.074 -2.5039,18.035 -16.031,31.09 -23.926,31.09 H 49.6669 c -7.9102,0 -21.438,-13.059 -23.941,-31.09 z m 28.449,45.031 v 5.625 l -8.3516,5.2266 v -10.852 z m -4.1758,20.422 c -2.3047,-0.0039 -4.1719,-1.875 -4.1719,-4.1758 v -1.4648 l 8.3516,-5.2266 v 6.6914 c -0.0078,2.3047 -1.8711,4.1719 -4.1797,4.1758 z m 3.125,-23.758 h -6.25 c -0.70703,-3.0195 -1.7578,-5.9492 -3.125,-8.7305 1.8438,0.90234 3.8555,1.3984 5.9062,1.457 h 0.67578 c 2.0508,-0.05859 4.0625,-0.55469 5.9023,-1.4531 -1.3633,2.7812 -2.4062,5.7109 -3.1094,8.7266 z"
       id="path2"
       style="fill:#666666" />
    <path
       d="m 33.051,24.371 c -0.67188,0 -1.2148,0.54297 -1.2148,1.2148 0,0.67187 0.54297,1.2148 1.2148,1.2148 0.67183,0 1.2148,-0.54297 1.2148,-1.2148 C 34.2619,24.91392 33.71892,24.371 33.051,24.371 Z"
       id="path4"
       style="fill:#666666" />
    <path
       d="m 41.527,24.371 c -0.67188,0 -1.2148,0.54297 -1.2148,1.2148 0,0.67187 0.54297,1.2148 1.2148,1.2148 0.67183,0 1.2148,-0.54297 1.2148,-1.2148 C 42.7379,24.91392 42.19492,24.371 41.527,24.371 Z"
       id="path6"
       style="fill:#666666" />
    <path
       d="m 50,26.797 c 0.67188,0 1.2148,-0.54297 1.2148,-1.2148 0,-0.67183 -0.54297,-1.2148 -1.2148,-1.2148 -0.67183,0 -1.2148,0.54297 -1.2148,1.2148 0.0039,0.67188 0.54297,1.2109 1.2148,1.2148 z"
       id="path8"
       style="fill:#666666" />
    <path
       d="m 58.477,24.371 c -0.67187,0 -1.2148,0.54297 -1.2148,1.2148 0,0.67187 0.54297,1.2148 1.2148,1.2148 0.67188,0 1.2148,-0.54297 1.2148,-1.2148 0,-0.67188 -0.54297,-1.2148 -1.2148,-1.2148 z"
       id="path10"
       style="fill:#666666" />
    <path
       d="m 66.949,26.797 c 0.67188,0 1.2148,-0.54297 1.2148,-1.2148 0,-0.67183 -0.54297,-1.2148 -1.2148,-1.2148 -0.67183,0 -1.2148,0.54297 -1.2148,1.2148 0.0039,0.67188 0.54688,1.2148 1.2148,1.2148 z"
       id="path12"
       style="fill:#666666" />
    <path
       d="m 42.738,47.941 c 0,1.6211 -2.4258,1.6211 -2.4258,0 0,-1.6172 2.4258,-1.6172 2.4258,0"
       id="path14"
       style="fill:#666666" />
    <path
       d="m 51.215,47.941 c 0,-0.67188 -0.54297,-1.2148 -1.2148,-1.2148 -0.67183,0 -1.2148,0.54297 -1.2148,1.2148 0,0.67183 0.54297,1.2148 1.2148,1.2148 0.67188,0.0039 1.2148,-0.53906 1.2148,-1.2148 z"
       id="path16"
       style="fill:#666666" />
    <path
       d="m 58.477,46.73 c -0.67187,-0.0039 -1.2148,0.53906 -1.2188,1.2148 -0.0039,0.67188 0.53906,1.2148 1.2148,1.2188 0.67188,0.0039 1.2148,-0.53906 1.2188,-1.2148 V 47.941 c 0,-0.66797 -0.54297,-1.2109 -1.2148,-1.2109 z"
       id="path18"
       style="fill:#666666" />
    <path
       d="m 33.051,35.715 c -0.67188,-0.0039 -1.2148,0.53906 -1.2188,1.2148 -0.0039,0.67187 0.53906,1.2148 1.2148,1.2188 0.67188,0.0039 1.2148,-0.53906 1.2188,-1.2148 V 36.926 C 34.2619,36.25803 33.71892,35.7151 33.051,35.7151 Z"
       id="path20"
       style="fill:#666666" />
    <path
       d="m 41.527,35.715 c -0.67188,-0.0039 -1.2148,0.53906 -1.2188,1.2148 -0.0039,0.67187 0.53906,1.2148 1.2148,1.2188 0.67187,0.0039 1.2148,-0.53906 1.2188,-1.2148 V 36.926 C 42.7379,36.25803 42.19492,35.7151 41.527,35.7151 Z"
       id="path22"
       style="fill:#666666" />
    <path
       d="m 50,38.145 c 0.67188,0.0039 1.2148,-0.53906 1.2188,-1.2148 0.0039,-0.67188 -0.53906,-1.2148 -1.2148,-1.2188 -0.67188,-0.0039 -1.2148,0.53906 -1.2188,1.2148 v 0.0039 c 0,0.66797 0.54297,1.2109 1.2148,1.2148 z"
       id="path24"
       style="fill:#666666" />
    <path
       d="m 58.477,35.715 c -0.67187,-0.0039 -1.2148,0.53906 -1.2188,1.2148 -0.0039,0.67187 0.53906,1.2148 1.2148,1.2188 0.67188,0.0039 1.2148,-0.53906 1.2188,-1.2148 V 36.926 c 0,-0.66797 -0.54297,-1.2109 -1.2148,-1.2109 z"
       id="path26"
       style="fill:#666666" />
    <path
       d="m 66.949,38.145 c 0.67188,0.0039 1.2148,-0.53906 1.2188,-1.2148 0.0039,-0.67188 -0.53906,-1.2148 -1.2148,-1.2188 -0.67188,-0.0039 -1.2148,0.53906 -1.2188,1.2148 v 0.0039 c -0.0039,0.67187 0.53906,1.2148 1.2109,1.2148 h 0.0039 z"
       id="path28"
       style="fill:#666666" />
    <path
       d="m 41.609,13.027 c -0.67188,0 -1.2148,0.54297 -1.2148,1.2148 0,0.67187 0.54297,1.2148 1.2148,1.2148 0.67183,0 1.2148,-0.54297 1.2148,-1.2148 -0.0039,-0.67188 -0.54297,-1.2109 -1.2148,-1.2148 z"
       id="path30"
       style="fill:#666666" />
    <path
       d="m 50,15.453 c 0.67188,0 1.2148,-0.54297 1.2148,-1.2148 0,-0.67183 -0.54297,-1.2148 -1.2148,-1.2148 -0.67183,0 -1.2148,0.54297 -1.2148,1.2148 0.0039,0.67188 0.54297,1.2109 1.2148,1.2148 z"
       id="path32"
       style="fill:#666666" />
    <path
       d="m 58.391,15.453 c 0.67188,0 1.2148,-0.54297 1.2148,-1.2148 0,-0.67183 -0.54297,-1.2148 -1.2148,-1.2148 -0.67183,0 -1.2148,0.54297 -1.2148,1.2148 0,0.67183 0.54297,1.2148 1.2148,1.2148 z"
       id="path34"
       style="fill:#666666" />
  </g>
</svg>
