<?xml version="1.0" encoding="UTF-8" standalone="no"?>
<svg
   xml:space="preserve"
   version="1.1"
   style="image-rendering:optimizeQuality;shape-rendering:geometricPrecision;text-rendering:geometricPrecision"
   viewBox="0 0 721.90005 800.31071"
   x="0px"
   y="0px"
   fill-rule="evenodd"
   clip-rule="evenodd"
   id="svg14"
   sodipodi:docname="padel.svg"
   width="721.90002"
   height="800.31067"
   inkscape:version="1.1.2 (0a00cf5339, 2022-02-04)"
   xmlns:inkscape="http://www.inkscape.org/namespaces/inkscape"
   xmlns:sodipodi="http://sodipodi.sourceforge.net/DTD/sodipodi-0.dtd"
   xmlns="http://www.w3.org/2000/svg"
   xmlns:svg="http://www.w3.org/2000/svg"><sodipodi:namedview
     id="namedview16"
     pagecolor="#ffffff"
     bordercolor="#666666"
     borderopacity="1.0"
     inkscape:pageshadow="2"
     inkscape:pageopacity="0.0"
     inkscape:pagecheckerboard="0"
     showgrid="false"
     fit-margin-top="0"
     fit-margin-left="0"
     fit-margin-right="0"
     fit-margin-bottom="0"
     inkscape:zoom="0.71906081"
     inkscape:cx="360.19207"
     inkscape:cy="505.52053"
     inkscape:window-width="1850"
     inkscape:window-height="1025"
     inkscape:window-x="1990"
     inkscape:window-y="27"
     inkscape:window-maximized="1"
     inkscape:current-layer="svg14" /><defs
     id="defs4"><style
       type="text/css"
       id="style2">
   
    .fil0 {fill:black}
   
  </style></defs><g
     id="g8"
     transform="translate(-62.38,-23.179318)"
     style="fill:#484848"><path
       class="fil0"
       d="m 297.9,46.51 c 7.43,-7.42 15.95,-13.07 25.05,-16.95 -4.21,28.61 5.22,57.82 25.98,78.57 20.63,20.63 49.95,30.2 78.55,26.01 -3.88,9.09 -9.53,17.6 -16.94,25.01 -31.1,31.11 -81.53,31.11 -112.64,0 -31.11,-31.1 -31.11,-81.53 0,-112.64 z M 639.65,597.16 784.28,741.8 c -27.23,27.23 -54.47,54.46 -81.7,81.69 L 557.95,678.87 c -34.14,8.73 -70.55,1.17 -98.24,-20.75 -79.28,7.73 -175.07,-28.52 -231.08,-84.54 L 125.68,470.64 c -84.4,-84.41 -84.4,-221.33 0,-305.74 38.01,-38 86.7,-58.89 136.43,-62.65 0.17,14.98 2.92,28.26 9.66,41.76 -42.19,1.65 -83.9,18.59 -116.15,50.83 -67.91,67.91 -67.91,177.95 0,245.86 l 102.94,102.94 c 47.31,47.31 130.95,79.3 197.97,72.42 l 68.93,-68.93 29.94,29.94 -56.26,56.26 c 24.67,11.79 44.55,6.83 69.95,-3.2 L 702.58,763.62 724.4,741.8 590.9,608.3 C 606.83,568 605.41,545.23 574.53,512.81 585.45,436.52 559.41,352.75 504.43,297.78 468.89,262.24 429.9,219.1 392.67,186.6 c 13.15,-6.02 24.8,-15.2 33.76,-26.53 36.48,34.33 72.37,72.2 107.94,107.77 56.01,56.01 92.25,151.83 84.53,231.09 21.92,27.72 29.48,64.07 20.75,98.23 z m -257.21,-61.1 -24.76,24.74 -17.45,-17.45 -17.47,17.47 -24.75,-24.75 17.47,-17.47 -21.65,-21.64 -17.46,17.47 -24.75,-24.75 17.47,-17.47 -21.64,-21.64 -17.47,17.47 -24.75,-24.75 17.47,-17.46 -21.64,-21.65 -17.47,17.47 -24.75,-24.75 17.47,-17.47 -17.47,-17.46 24.75,-24.75 17.47,17.46 21.64,-21.64 -17.47,-17.47 24.75,-24.75 17.47,17.47 21.64,-21.64 -17.47,-17.46 24.75,-24.75 17.46,17.46 21.65,-21.64 -17.47,-17.47 24.75,-24.75 17.47,17.47 17.46,-17.46 24.75,24.75 -17.46,17.46 21.64,21.64 17.46,-17.45 24.75,24.74 -17.46,17.46 21.64,21.64 17.46,-17.46 24.74,24.75 -17.45,17.46 21.64,21.64 17.46,-17.46 24.75,24.75 -17.46,17.46 17.46,17.46 -24.76,24.74 -17.45,-17.45 -21.64,21.65 17.45,17.45 -24.74,24.75 -17.46,-17.46 -21.64,21.64 17.46,17.46 -24.75,24.75 -17.46,-17.46 -21.64,21.64 z M 225.8,379.43 l 21.65,21.65 21.64,-21.65 -21.64,-21.64 z m 46.4,46.4 21.63,21.63 21.65,-21.64 -21.64,-21.64 z m 46.38,46.38 21.65,21.65 21.64,-21.65 -21.64,-21.64 z m -46.38,-139.17 21.64,21.64 21.64,-21.63 -21.65,-21.65 z m 46.39,46.39 21.64,21.64 21.64,-21.64 -21.64,-21.64 z m 46.39,46.39 21.64,21.64 21.64,-21.63 -21.65,-21.65 z m -46.4,-139.17 21.65,21.65 21.64,-21.65 -21.64,-21.64 z m 46.4,46.4 21.63,21.63 21.65,-21.64 -21.64,-21.64 z m 46.38,46.38 21.65,21.65 21.64,-21.65 -21.64,-21.64 z M 349.84,23.3 c 21.82,-1.2 44.04,6.55 60.7,23.21 16.66,16.66 24.4,38.86 23.21,60.67 -23.65,7.24 -49.42,1 -67.15,-16.73 C 348.88,72.73 342.62,46.95 349.84,23.3 Z"
       id="path6"
       style="fill:#484848" /></g></svg>
