<?xml version="1.0" encoding="UTF-8" standalone="no"?>
<svg
   version="1.1"
   viewBox="-5 -10 84.375992 84.375504"
   id="svg213"
   sodipodi:docname="paint-int.svg"
   width="84.375992"
   height="84.375504"
   inkscape:version="1.2.2 (b0a8486541, 2022-12-01)"
   xmlns:inkscape="http://www.inkscape.org/namespaces/inkscape"
   xmlns:sodipodi="http://sodipodi.sourceforge.net/DTD/sodipodi-0.dtd"
   xmlns="http://www.w3.org/2000/svg"
   xmlns:svg="http://www.w3.org/2000/svg">
  <defs
     id="defs217">
    <rect
       x="5.5498824"
       y="14.771037"
       width="107.76113"
       height="97.001419"
       id="rect279" />
    <rect
       x="-13.781341"
       y="6.4658151"
       width="136.16965"
       height="111.06881"
       id="rect273" />
  </defs>
  <sodipodi:namedview
     id="namedview215"
     pagecolor="#ffffff"
     bordercolor="#000000"
     borderopacity="0.25"
     inkscape:showpageshadow="2"
     inkscape:pageopacity="0.0"
     inkscape:pagecheckerboard="0"
     inkscape:deskcolor="#d1d1d1"
     showgrid="false"
     inkscape:zoom="6.4222222"
     inkscape:cx="42.352941"
     inkscape:cy="44.610727"
     inkscape:window-width="1920"
     inkscape:window-height="1044"
     inkscape:window-x="3840"
     inkscape:window-y="0"
     inkscape:window-maximized="1"
     inkscape:current-layer="svg213" />
  <path
     d="m 71.5625,-10 h -59 C 8.2539,-10 4.75,-6.4961 4.75,-2.1875 V 3 H 3.0625 C -1.3828,3 -5,6.6172 -5,11.0625 v 9.75 c 0,4.4453 3.6172,8.0625 8.0625,8.0625 h 32.5 c 2.7227,0 4.9336,2.2148 4.9336,4.9375 V 35.5 h -8.1836 c -0.86328,0 -1.5625,0.69922 -1.5625,1.5625 v 26.375 c 0,6.0312 4.9062,10.938 10.938,10.938 h 0.74609 c 6.0312,0 10.938,-4.9062 10.938,-10.938 v -26.375 c 0,-0.86328 -0.69922,-1.5625 -1.5625,-1.5625 h -8.1875 v -1.6875 c 0,-4.4453 -3.6172,-8.0625 -8.0586,-8.0625 h -32.5 c -2.7227,0 -4.9375,-2.2148 -4.9375,-4.9375 v -9.75 c 0,-2.7227 2.2148,-4.9375 4.9375,-4.9375 h 1.6875 v 5.1875 c 0,4.3086 3.5039,7.8125 7.8125,7.8125 h 59 c 4.3086,0 7.8125,-3.5039 7.8125,-7.8125 v -13.5 c 0,-4.3086 -3.5039,-7.8125 -7.8125,-7.8125 z m -21.312,73.438 c 0,4.3086 -3.5039,7.8125 -7.8125,7.8125 h -0.74609 c -4.3086,0 -7.8125,-3.5039 -7.8125,-7.8125 V 38.626 h 16.371 z m 26,-52.125 c 0,2.5859 -2.1016,4.6875 -4.6875,4.6875 h -59 c -2.5859,0 -4.6875,-2.1016 -4.6875,-4.6875 v -13.5 c 0,-2.5859 2.1016,-4.6875 4.6875,-4.6875 h 59 c 2.5859,0 4.6875,2.1016 4.6875,4.6875 z"
     id="path207"
     style="fill:#555555" />
  <text
     x="-12.8125"
     y="104.6875"
     font-size="5px"
     font-weight="bold"
     font-family="'Arbeit Regular', Helvetica, Arial-Unicode, Arial, Sans-serif"
     fill="#000000"
     id="text211" />
  <text
     xml:space="preserve"
     transform="translate(-17.8125,-27.8125)"
     id="text271"
     style="white-space:pre;shape-inside:url(#rect273);fill:#555555" />
  <text
     xml:space="preserve"
     transform="translate(-17.8125,-27.8125)"
     id="text277"
     style="white-space:pre;shape-inside:url(#rect279);fill:#555555" />
</svg>
