<?xml version="1.0" encoding="UTF-8" standalone="no"?>
<svg
   version="1.1"
   viewBox="-5 -10 84.178429 84.180107"
   id="svg325"
   sodipodi:docname="noun-paint-6796399.svg"
   width="84.178429"
   height="84.180107"
   inkscape:version="1.2.2 (b0a8486541, 2022-12-01)"
   xmlns:inkscape="http://www.inkscape.org/namespaces/inkscape"
   xmlns:sodipodi="http://sodipodi.sourceforge.net/DTD/sodipodi-0.dtd"
   xmlns="http://www.w3.org/2000/svg"
   xmlns:svg="http://www.w3.org/2000/svg">
  <defs
     id="defs329" />
  <sodipodi:namedview
     id="namedview327"
     pagecolor="#ffffff"
     bordercolor="#000000"
     borderopacity="0.25"
     inkscape:showpageshadow="2"
     inkscape:pageopacity="0.0"
     inkscape:pagecheckerboard="0"
     inkscape:deskcolor="#d1d1d1"
     showgrid="false"
     inkscape:zoom="6.4222222"
     inkscape:cx="42.197232"
     inkscape:cy="49.749135"
     inkscape:window-width="1920"
     inkscape:window-height="1044"
     inkscape:window-x="3840"
     inkscape:window-y="0"
     inkscape:window-maximized="1"
     inkscape:current-layer="svg325" />
  <path
     d="m 56.467825,23.8792 18.902,-15.465 c 2.4219,-1.9805 3.8086,-4.9102 3.8086,-8.0352 0,-5.7227 -4.6562,-10.379 -10.379,-10.379 -3.125,0 -6.0547,1.3867 -8.0352,3.8086 l -15.465,18.902 c -0.71875,0.87891 -1.668,1.5312 -2.7422,1.8906 -2.1719,0.71875 -4.5117,0.16797 -6.1289,-1.4453 l -3.1992,-3.1992 c -2.9961,-3 -7.8789,-2.9961 -10.875,0 l -6.5,6.5 c -0.60938,0.60938 -0.60938,1.5977 0,2.2109 l 1.0586,1.0586 -20.559,20.559 c -1.8047,1.8047 -1.8047,4.7383 0,6.543 l 2.6406,2.6406 c 1.5039,1.5039 3.8281,1.793 5.6523,0.69531 l 3.418,-2.0508 -2.0508,3.4219 c -1.0938,1.8203 -0.80859,4.1445 0.69531,5.6523 l 15.641,15.641 c 0.90234,0.90234 2.0859,1.3516 3.2734,1.3516 1.1836,0 2.3672,-0.45312 3.2695,-1.3516 l 20.559,-20.559 1.0586,1.0586 c 0.30469,0.30469 0.70312,0.45703 1.1055,0.45703 0.39844,0 0.80078,-0.15234 1.1055,-0.45703 l 6.5,-6.5 c 3,-3 3,-7.875 0,-10.875 l -3.1992,-3.1992 c -1.6133,-1.6133 -2.168,-3.9609 -1.4492,-6.125 0.35938,-1.0742 1.0117,-2.0234 1.8906,-2.7422 z m -29.781,46.727 c -0.58594,0.58594 -1.5391,0.58594 -2.1211,0 l -15.641,-15.641 C 8.436445,54.47692 8.342695,53.723 8.698165,53.1293 l 5.2695,-8.7812 c 0.37109,-0.61328 0.27344,-1.4023 -0.23438,-1.9102 -0.50391,-0.50781 -1.2891,-0.60547 -1.9102,-0.23438 l -8.7812,5.2656 c -0.59375,0.35938 -1.3438,0.26562 -1.8359,-0.22656 l -2.6406,-2.6406 c -0.58594,-0.58594 -0.58594,-1.5352 0,-2.1211 l 20.559,-20.559 28.121,28.121 -20.559,20.559 z m 24.926,-44.977 c -1.0977,3.2969 -0.25391,6.8711 2.2031,9.3242 l 3.1992,3.1992 c 1.7773,1.7812 1.7773,4.6758 0,6.457 l -5.3945,5.3945 -32.449,-32.449 5.3945,-5.3945 c 1.7812,-1.7773 4.6797,-1.7773 6.457,0 l 3.1992,3.1992 c 2.4531,2.457 6.0312,3.3047 9.3242,2.2031 1.6367,-0.54297 3.0781,-1.5391 4.1719,-2.875 l 15.465,-18.902 c 1.3828,-1.6914 3.4297,-2.6602 5.6172,-2.6602 4,0 7.2539,3.2539 7.2539,7.2539 0,2.1875 -0.96875,4.2344 -2.6602,5.6172 l -18.906,15.469 c -1.332,1.0938 -2.3281,2.5352 -2.875,4.1719 z m 20.609,-28.68 c -1.8008,-1.8008 -4.7344,-1.8008 -6.543,0 -1.8047,1.8008 -1.8047,4.7383 0,6.543 0.90234,0.89844 2.0859,1.3516 3.2734,1.3516 1.1875,0 2.3711,-0.44922 3.2734,-1.3516 1.8008,-1.8047 1.8008,-4.7422 0,-6.543 z m -2.2109,4.332 c -0.58594,0.58594 -1.5391,0.58594 -2.1211,0 -0.58594,-0.58594 -0.58594,-1.5391 0,-2.1211 0.58594,-0.58594 1.5391,-0.58594 2.125,0 0.5859,0.58594 0.58594,1.5391 0,2.125 z"
     id="path319"
     style="fill:#555555" />
</svg>
