<?xml version="1.0" encoding="UTF-8" standalone="no"?>
<svg
   version="1.1"
   viewBox="-5 -10 89.464203 91.744545"
   id="svg6660"
   sodipodi:docname="noun-parking-7433223.svg"
   width="89.464203"
   height="91.744545"
   xmlns:inkscape="http://www.inkscape.org/namespaces/inkscape"
   xmlns:sodipodi="http://sodipodi.sourceforge.net/DTD/sodipodi-0.dtd"
   xmlns="http://www.w3.org/2000/svg"
   xmlns:svg="http://www.w3.org/2000/svg">
  <defs
     id="defs6664" />
  <sodipodi:namedview
     id="namedview6662"
     pagecolor="#ffffff"
     bordercolor="#000000"
     borderopacity="0.25"
     inkscape:showpageshadow="2"
     inkscape:pageopacity="0.0"
     inkscape:pagecheckerboard="0"
     inkscape:deskcolor="#d1d1d1"
     showgrid="false" />
  <path
     d="m 2.423896,30.923841 h 13.059 c 2.793,0 5.1133,-2.1836 5.2812,-4.9727 0.55859,-9.2695 0.53906,-19.0899996 -0.05859,-29.1909996 -0.14844,-2.5195 -1.7734,-4.6641 -4.1406,-5.4727 -5.0547,-1.7227004 -10.18,-1.7148004 -15.23,0.019532 -2.3203,0.79688 -3.9414,2.9023 -4.1289,5.3555 -0.75,9.8945 -0.76953,19.7729996 -0.058594,29.3549996 0.20313,2.7461 2.5234,4.8984 5.2773,4.8984 z m -2.3242,-34.0349996 c 0.09766,-1.3008 0.95312,-2.4102 2.1797,-2.832 2.2227,-0.76562 4.4648,-1.1445 6.7031,-1.1445 2.2227,0 4.4453,0.375 6.6484,1.1289 1.2461,0.42578 2.1016,1.5625 2.1797,2.8984 0.58984,9.9883 0.60938,19.6909996 0.05859,28.8439996 -0.07422,1.2578 -1.1211,2.2461 -2.3867,2.2461 h -13.059 c -1.2422,0 -2.2891,-0.97266 -2.3828,-2.2148 -0.69922,-9.4414 -0.67969,-19.1679996 0.05859,-28.9219996 z m 0.67578,4.09770001 V 6.5607414 c 0,0.80078 0.64844,1.4492 1.4492,1.4492 h 13.398 c 0.80078,0 1.4492,-0.64844 1.4492,-1.4492 V 0.98654141 c 0,-0.62891 -0.40234,-1.1836 -1,-1.3789 -4.6992,-1.53910001 -9.5078,-1.53910001 -14.293,-0.0039 -0.60156,0.19141 -1.0078,0.75 -1.0078,1.3828 z m 2.9023,1.08199999 c 3.5156,-0.94922 7.0391,-0.94922 10.496,-0.0039 v 3.0469 h -10.496 z m 11.004,17.0979996 h -11.699 c -0.80078,0 -1.4492,0.64844 -1.4492,1.4492 v 4.3867 c 0,0.80078 0.64844,1.4492 1.4492,1.4492 h 11.699 c 0.80078,0 1.4492,-0.64844 1.4492,-1.4492 v -4.3867 c 0,-0.80078 -0.64844,-1.4492 -1.4492,-1.4492 z m -1.4492,4.3867 h -8.7969 v -1.4883 h 8.7969 z m -12.398,-27.1719996 c -0.22266,-0.76953 0.21875,-1.5742 0.98828,-1.7969 l 1.5312,-0.44531 c 0.76953,-0.22266 1.5742,0.21875 1.7969,0.98828 0.22266,0.76953 -0.21875,1.5742 -0.98828,1.7969 l -1.5312,0.44531 c -0.13672,0.03906 -0.26953,0.05859 -0.40625,0.05859 -0.62891,0 -1.207,-0.41406 -1.3945,-1.0469 z m 11.488,-1.2539 c 0.22266,-0.76953 1.0273,-1.2109 1.7969,-0.98828 l 1.5312,0.44531 c 0.76953,0.22266 1.2109,1.0273 0.98828,1.7969 -0.18359,0.63281 -0.76172,1.0469 -1.3945,1.0469 -0.13281,0 -0.26953,-0.01953 -0.40625,-0.05859 l -1.5312,-0.44531 c -0.76953,-0.22266 -1.2109,-1.0273 -0.98828,-1.7969 z m 3.0508,45.4569996 h -13.059 c -2.793,0 -5.1133,2.1836 -5.2812,4.9727 -0.55859,9.2695 -0.53906,19.09 0.058594,29.191 0.14844,2.5195 1.7734,4.6641 4.1406,5.4727 2.5156,0.85938 5.0508,1.2891 7.5859,1.2891 2.5547,0 5.1094,-0.4375 7.6445,-1.3086 2.3203,-0.79688 3.9414,-2.9023 4.1289,-5.3555 0.75,-9.8945 0.76953,-19.773 0.05859,-29.355 -0.20312,-2.7461 -2.5234,-4.8984 -5.2773,-4.8984 z m 2.3242,34.035 c -0.09766,1.3008 -0.95312,2.4102 -2.1797,2.832 -4.4297,1.5234 -8.9219,1.5273 -13.352,0.01953 -1.2461,-0.42578 -2.1016,-1.5625 -2.1797,-2.8984 -0.58984,-9.9883 -0.60938,-19.691 -0.05859,-28.844 0.07422,-1.2578 1.1211,-2.2461 2.3867,-2.2461 h 13.059 c 1.2422,0 2.2891,0.97266 2.3828,2.2148 0.69922,9.4414 0.67969,19.168 -0.05859,28.922 z m -0.67578,-4.0977 v -5.5742 c 0,-0.80078 -0.64844,-1.4492 -1.4492,-1.4492 h -13.398 c -0.80078,0 -1.4492,0.64844 -1.4492,1.4492 v 5.5742 c 0,0.62891 0.40234,1.1836 1,1.3789 2.3516,0.76953 4.7305,1.1562 7.1172,1.1562 2.3867,0 4.7852,-0.38281 7.1758,-1.1523 0.60156,-0.19141 1.0078,-0.75 1.0078,-1.3828 z m -2.9023,-1.082 c -3.5156,0.94922 -7.0391,0.94922 -10.496,0.0039 v -3.0469 h 10.496 z m -11.004,-17.098 h 11.699 c 0.80078,0 1.4492,-0.64844 1.4492,-1.4492 v -4.3867 c 0,-0.80078 -0.64844,-1.4492 -1.4492,-1.4492 h -11.699 c -0.80078,0 -1.4492,0.64844 -1.4492,1.4492 v 4.3867 c 0,0.80078 0.64844,1.4492 1.4492,1.4492 z m 1.4531,-4.3867 h 8.7969 v 1.4883 h -8.7969 z m 12.395,27.176 c 0.22266,0.76953 -0.21875,1.5742 -0.98828,1.7969 l -1.5312,0.44531 c -0.13672,0.03906 -0.26953,0.05859 -0.40625,0.05859 -0.62891,0 -1.207,-0.41406 -1.3945,-1.0469 -0.22266,-0.76953 0.21875,-1.5742 0.98828,-1.7969 l 1.5312,-0.44531 c 0.76953,-0.22266 1.5742,0.21875 1.7969,0.98828 z m -11.488,1.2539 c -0.18359,0.63281 -0.76172,1.0469 -1.3945,1.0469 -0.13281,0 -0.26953,-0.01953 -0.40625,-0.05859 l -1.5312,-0.44531 c -0.76953,-0.22266 -1.2109,-1.0273 -0.98828,-1.7969 0.22266,-0.76953 1.0273,-1.2109 1.7969,-0.98828 l 1.5312,0.44531 c 0.76953,0.22266 1.2109,1.0273 0.98828,1.7969 z m 40.664,-35.801 h -13.059 c -2.793,0 -5.1133,2.1836 -5.2812,4.9727 -0.55859,9.2695 -0.53906,19.09 0.05859,29.191 0.14844,2.5195 1.7734,4.6641 4.1406,5.4727 2.5156,0.85938 5.0508,1.2891 7.5859,1.2891 2.5547,0 5.1094,-0.4375 7.6445,-1.3086 2.3203,-0.79688 3.9414,-2.9023 4.1289,-5.3555 0.75,-9.8945 0.76953,-19.773 0.05859,-29.355 -0.20312,-2.7461 -2.5234,-4.8984 -5.2773,-4.8984 z m 2.3242,34.039 c -0.09766,1.3008 -0.95312,2.4102 -2.1797,2.832 -4.4297,1.5234 -8.9219,1.5273 -13.352,0.01953 -1.2461,-0.42578 -2.1016,-1.5625 -2.1797,-2.8984 -0.58984,-9.9883 -0.60938,-19.691 -0.05859,-28.844 0.07422,-1.2578 1.1211,-2.2461 2.3867,-2.2461 h 13.059 c 1.2422,0 2.2891,0.97266 2.3828,2.2148 0.69922,9.4414 0.67969,19.168 -0.05859,28.922 z m -0.67578,-4.1016 v -5.5742 c 0,-0.80078 -0.64844,-1.4492 -1.4492,-1.4492 h -13.398 c -0.80078,0 -1.4492,0.64844 -1.4492,1.4492 v 5.5742 c 0,0.62891 0.40234,1.1836 1,1.3789 2.3516,0.76953 4.7305,1.1562 7.1172,1.1562 2.3867,0 4.7852,-0.38281 7.1758,-1.1523 0.60156,-0.19141 1.0078,-0.75 1.0078,-1.3828 z m -2.9023,-1.082 c -3.5156,0.94922 -7.0391,0.94922 -10.496,0.0039 v -3.0469 h 10.496 z m -11.004,-17.098 h 11.699 c 0.80078,0 1.4492,-0.64844 1.4492,-1.4492 v -4.3867 c 0,-0.80078 -0.64844,-1.4492 -1.4492,-1.4492 h -11.699 c -0.80078,0 -1.4492,0.64844 -1.4492,1.4492 v 4.3867 c 0,0.80078 0.64844,1.4492 1.4492,1.4492 z m 1.4531,-4.3867 h 8.7969 v 1.4883 h -8.7969 z m 12.395,27.176 c 0.22266,0.76953 -0.21875,1.5742 -0.98828,1.7969 l -1.5312,0.44531 c -0.13672,0.03906 -0.26953,0.05859 -0.40625,0.05859 -0.62891,0 -1.207,-0.41406 -1.3945,-1.0469 -0.22266,-0.76953 0.21875,-1.5742 0.98828,-1.7969 l 1.5312,-0.44531 c 0.76953,-0.22266 1.5742,0.21875 1.7969,0.98828 z m -11.488,1.2539 c -0.18359,0.63281 -0.76172,1.0469 -1.3945,1.0469 -0.13281,0 -0.26953,-0.01953 -0.40625,-0.05859 l -1.5312,-0.44531 c -0.76953,-0.22266 -1.2109,-1.0273 -0.98828,-1.7969 0.22266,-0.76953 1.0273,-1.2109 1.7969,-0.98828 l 1.5312,0.44531 c 0.76953,0.22266 1.2109,1.0273 0.98828,1.7969 z m 40.668,-35.801 h -13.059 c -2.793,0 -5.1133,2.1836 -5.2812,4.9727 -0.55859,9.2695 -0.53906,19.09 0.05859,29.191 0.14844,2.5195 1.7734,4.6641 4.1406,5.4727 2.5156,0.85938 5.0508,1.2891 7.5859,1.2891 2.5547,0 5.1094,-0.4375 7.6445,-1.3086 2.3203,-0.79688 3.9414,-2.9023 4.1289,-5.3555 0.75,-9.8945 0.76953,-19.773 0.05859,-29.355 -0.20312,-2.7461 -2.5234,-4.8984 -5.2773,-4.8984 z m 2.3203,34.039 c -0.09766,1.3008 -0.95312,2.4102 -2.1797,2.832 -4.4297,1.5234 -8.9219,1.5273 -13.352,0.01953 -1.2461,-0.42578 -2.1016,-1.5625 -2.1797,-2.8984 -0.58984,-9.9883 -0.60938,-19.691 -0.05859,-28.844 0.07422,-1.2578 1.1211,-2.2461 2.3867,-2.2461 h 13.059 c 1.2422,0 2.2891,0.97266 2.3828,2.2148 0.69922,9.4414 0.67969,19.168 -0.05859,28.922 z m -0.67578,-4.1016 v -5.5742 c 0,-0.80078 -0.64844,-1.4492 -1.4492,-1.4492 h -13.398 c -0.80078,0 -1.4492,0.64844 -1.4492,1.4492 v 5.5742 c 0,0.62891 0.40234,1.1836 1,1.3789 2.3516,0.76953 4.7305,1.1562 7.1172,1.1562 2.3867,0 4.7852,-0.38281 7.1758,-1.1523 0.60156,-0.19141 1.0078,-0.75 1.0078,-1.3828 z m -2.9023,-1.082 c -3.5156,0.94922 -7.0391,0.94922 -10.496,0.0039 v -3.0469 h 10.496 z m -11,-17.098 h 11.699 c 0.80078,0 1.4492,-0.64844 1.4492,-1.4492 v -4.3867 c 0,-0.80078 -0.64844,-1.4492 -1.4492,-1.4492 h -11.699 c -0.80078,0 -1.4492,0.64844 -1.4492,1.4492 v 4.3867 c 0,0.80078 0.64844,1.4492 1.4492,1.4492 z m 1.4492,-4.3867 h 8.7969 v 1.4883 h -8.7969 z m 12.395,27.176 c 0.22266,0.76953 -0.21875,1.5742 -0.98828,1.7969 l -1.5312,0.44531 c -0.13672,0.03906 -0.26953,0.05859 -0.40625,0.05859 -0.62891,0 -1.207,-0.41406 -1.3945,-1.0469 -0.22266,-0.76953 0.21875,-1.5742 0.98828,-1.7969 l 1.5312,-0.44531 c 0.76953,-0.22266 1.5742,0.21875 1.7969,0.98828 z m -11.488,1.2539 c -0.18359,0.63281 -0.76172,1.0469 -1.3945,1.0469 -0.13281,0 -0.26953,-0.01953 -0.40625,-0.05859 l -1.5312,-0.44531 c -0.76953,-0.22266 -1.2109,-1.0273 -0.98828,-1.7969 0.22266,-0.76953 1.0273,-1.2109 1.7969,-0.98828 l 1.5312,0.44531 c 0.76953,0.22266 1.2109,1.0273 0.98828,1.7969 z m -33.75,-45.461 h 13.059 c 2.793,0 5.1133,-2.1836 5.2812,-4.9727 0.55859,-9.2695 0.53906,-19.0899996 -0.05859,-29.1909996 -0.14844,-2.5195 -1.7734,-4.6641 -4.1406,-5.4727 -5.0547,-1.7227004 -10.18,-1.7148004 -15.23,0.019532 -2.3203,0.79688 -3.9414,2.9023 -4.1289,5.3555 -0.75,9.8945 -0.76953,19.7729996 -0.05859,29.3549996 0.20312,2.7461 2.5195,4.8984 5.2773,4.8984 z m -2.3242,-34.0349996 c 0.09766,-1.3008 0.95312,-2.4102 2.1797,-2.832 2.2227,-0.76562 4.4648,-1.1445 6.7031,-1.1445 2.2227,0 4.4453,0.375 6.6484,1.1289 1.2461,0.42578 2.1016,1.5625 2.1797,2.8984 0.58984,9.9883 0.60938,19.6909996 0.05859,28.8439996 -0.07422,1.2578 -1.1211,2.2461 -2.3867,2.2461 h -13.059 c -1.2422,0 -2.2891,-0.97266 -2.3828,-2.2148 -0.69922,-9.4414 -0.67969,-19.1679996 0.05859,-28.9219996 z m 0.67969,4.09770001 V 6.5599414 c 0,0.80078 0.64844,1.4492 1.4492,1.4492 h 13.398 c 0.80078,0 1.4492,-0.64844 1.4492,-1.4492 V 0.98574141 c 0,-0.62891 -0.40234,-1.1836 -1,-1.3789 -4.6992,-1.53910001 -9.5078,-1.53910001 -14.293,-0.0039 -0.60156,0.19141 -1.0078,0.75 -1.0078,1.3828 z m 2.9023,1.08199999 c 3.5156,-0.94922 7.0391,-0.94922 10.496,-0.0039 v 3.0469 h -10.496 z m 11,17.0979996 h -11.699 c -0.80078,0 -1.4492,0.64844 -1.4492,1.4492 v 4.3867 c 0,0.80078 0.64844,1.4492 1.4492,1.4492 h 11.699 c 0.80078,0 1.4492,-0.64844 1.4492,-1.4492 v -4.3867 c 0,-0.80078 -0.64844,-1.4492 -1.4492,-1.4492 z m -1.4492,4.3867 h -8.7969 v -1.4883 h 8.7969 z m -12.395,-27.1719996 c -0.22266,-0.76953 0.21875,-1.5742 0.98828,-1.7969 l 1.5312,-0.44531 c 0.76953,-0.22266 1.5742,0.21875 1.7969,0.98828 0.22266,0.76953 -0.21875,1.5742 -0.98828,1.7969 l -1.5312,0.44531 c -0.13672,0.03906 -0.27344,0.05859 -0.40625,0.05859 -0.62891,0 -1.207,-0.41406 -1.3945,-1.0469 z m 11.488,-1.2539 c 0.22266,-0.76953 1.0273,-1.2109 1.7969,-0.98828 l 1.5312,0.44531 c 0.76953,0.22266 1.2109,1.0273 0.98828,1.7969 -0.18359,0.63281 -0.76172,1.0469 -1.3945,1.0469 -0.13281,0 -0.26953,-0.01953 -0.40625,-0.05859 l -1.5312,-0.44531 c -0.76953,-0.22266 -1.2109,-1.0273 -0.98828,-1.7969 z m 20.934,35.7969996 h 13.059 c 2.793,0 5.1133,-2.1836 5.2812,-4.9727 0.55859,-9.2656 0.53906,-19.0859996 -0.05859,-29.1909996 -0.14844,-2.5195 -1.7734,-4.6641 -4.1406,-5.4727 -5.0547,-1.7227004 -10.18,-1.7148004 -15.23,0.019532 -2.3203,0.79688 -3.9414,2.9023 -4.1289,5.3555 -0.75,9.8945 -0.76953,19.7729996 -0.05859,29.3549996 0.20312,2.7461 2.5234,4.8984 5.2773,4.8984 z m -2.3242,-34.0349996 c 0.09766,-1.3008 0.95312,-2.4102 2.1797,-2.832 2.2227,-0.76562 4.4648,-1.1445 6.7031,-1.1445 2.2227,0 4.4453,0.375 6.6484,1.1289 1.2461,0.42578 2.1016,1.5625 2.1797,2.8984 0.58984,9.9883 0.60938,19.6909996 0.05859,28.8439996 -0.07422,1.2578 -1.1211,2.2461 -2.3867,2.2461 h -13.059 c -1.2422,0 -2.2891,-0.97266 -2.3828,-2.2148 -0.69922,-9.4414 -0.67969,-19.1679996 0.05859,-28.9219996 z m 0.67578,4.09770001 V 6.5604414 c 0,0.80078 0.64844,1.4492 1.4492,1.4492 h 13.398 c 0.80078,0 1.4492,-0.64844 1.4492,-1.4492 V 0.98624141 c 0,-0.62891 -0.40234,-1.1836 -1,-1.3789 -4.6992,-1.53910001 -9.5078,-1.53910001 -14.293,-0.0039 -0.60156,0.19141 -1.0078,0.75 -1.0078,1.3828 z m 2.9023,1.08199999 c 3.5156,-0.94922 7.0391,-0.94922 10.496,-0.0039 v 3.0469 h -10.496 z m 11.004,17.0979996 h -11.699 c -0.80078,0 -1.4492,0.64844 -1.4492,1.4492 v 4.3867 c 0,0.80078 0.64844,1.4492 1.4492,1.4492 h 11.699 c 0.80078,0 1.4492,-0.64844 1.4492,-1.4492 v -4.3867 c 0,-0.80078 -0.64844,-1.4492 -1.4492,-1.4492 z m -1.4531,4.3867 h -8.7969 v -1.4883 h 8.7969 z m -12.395,-27.1719996 c -0.22266,-0.76953 0.21875,-1.5742 0.98828,-1.7969 l 1.5312,-0.44531 c 0.76953,-0.22266 1.5742,0.21875 1.7969,0.98828 0.22266,0.76953 -0.21875,1.5742 -0.98828,1.7969 l -1.5312,0.44531 c -0.13672,0.03906 -0.27344,0.05859 -0.40625,0.05859 -0.62891,0 -1.207,-0.41406 -1.3945,-1.0469 z m 11.488,-1.2539 c 0.22266,-0.76953 1.0273,-1.2109 1.7969,-0.98828 l 1.5312,0.44531 c 0.76953,0.22266 1.2109,1.0273 0.98828,1.7969 -0.18359,0.63281 -0.76172,1.0469 -1.3945,1.0469 -0.13281,0 -0.26953,-0.01953 -0.40625,-0.05859 l -1.5312,-0.44531 c -0.76953,-0.22266 -1.2109,-1.0273 -0.98828,-1.7969 z m 9.0273,36.6289996 h -26.359 V -8.5489586 c 0,-0.80078 -0.64844,-1.4492 -1.4492,-1.4492 -0.80078,0 -1.4492,0.64844 -1.4492,1.4492 V 31.756041 h -27.926 l -0.0039,-40.3049996 c 0,-0.80078 -0.64844,-1.4492 -1.4492,-1.4492 -0.80078,0 -1.4492,0.64844 -1.4492,1.4492 V 31.756041 h -26.484 c -0.80078,0 -1.4492,0.64844 -1.4492,1.4492 v 5.3359 c 0,0.80078 0.64844,1.4492 1.4492,1.4492 h 26.484 v 40.305 c 0,0.80078 0.64844,1.4492 1.4492,1.4492 0.80078,0 1.4492,-0.64844 1.4492,-1.4492 v -40.305 h 27.926 v 40.305 c 0,0.80078 0.64844,1.4492 1.4492,1.4492 0.80078,0 1.4492,-0.64844 1.4492,-1.4492 v -40.305 h 26.359 c 0.80078,0 1.4492,-0.64844 1.4492,-1.4492 v -5.3359 c 0,-0.80078 -0.64844,-1.4492 -1.4492,-1.4492 z m -1.4492,5.3359 h -83.672 v -2.4336 h 83.672 z"
     id="path6654"
     style="fill:#666666" />
</svg>
