<?xml version="1.0" encoding="UTF-8" standalone="no"?>
<svg
   version="1.1"
   viewBox="-5 -10 92 92"
   id="svg1987"
   sodipodi:docname="noun-parking-7058952.svg"
   width="92"
   height="92"
   xmlns:inkscape="http://www.inkscape.org/namespaces/inkscape"
   xmlns:sodipodi="http://sodipodi.sourceforge.net/DTD/sodipodi-0.dtd"
   xmlns="http://www.w3.org/2000/svg"
   xmlns:svg="http://www.w3.org/2000/svg">
  <defs
     id="defs1991" />
  <sodipodi:namedview
     id="namedview1989"
     pagecolor="#ffffff"
     bordercolor="#000000"
     borderopacity="0.25"
     inkscape:showpageshadow="2"
     inkscape:pageopacity="0.0"
     inkscape:pagecheckerboard="0"
     inkscape:deskcolor="#d1d1d1"
     showgrid="false" />
  <path
     d="M 43.898,35.078 H 34.2496 V 18.719 h 9.7891 c 2.6602,0 4.6484,0.76953 6.0781,2.3594 1.5117,1.6797 2.2188,3.6797 2.2188,6.3008 0,2.4609 -0.73047,4.3516 -2.2188,5.7695 -1.3789,1.3203 -3.3516,1.9297 -6.2188,1.9297 z m -7.6367,-2 h 7.6484 c 2.3203,0 3.8594,-0.44141 4.8398,-1.3789 1.0898,-1.0391 1.6016,-2.4102 1.6016,-4.3203 0,-2.1211 -0.51953,-3.6484 -1.6992,-4.9609 -1.0508,-1.1602 -2.5117,-1.6992 -4.5898,-1.6992 H 36.273 v 12.359 z"
     id="path1977"
     style="fill:#0000e2" />
  <path
     d="M 74,82 H 8 C 0.8281,82 -5,76.1719 -5,69 V 3 c 0,-7.1719 5.8281,-13 13,-13 h 66 c 7.1719,0 13,5.8281 13,13 v 66 c 0,7.1719 -5.8281,13 -13,13 z M 8,-8 C 1.9297,-8 -3,-3.0703 -3,3 v 66 c 0,6.0703 4.9297,11 11,11 h 66 c 6.0703,0 11,-4.9297 11,-11 V 3 C 85,-3.0703 80.0703,-8 74,-8 Z"
     id="path1979"
     style="fill:#0000e2" />
  <path
     d="M 36.262,62.852 H 21.813 L 21.8091,9.149 h 22.102 c 4.3906,0 7.9688,0.69141 10.949,2.1211 3.3008,1.5781 5.7617,3.7109 7.5,6.5195 1.7891,2.8906 2.6602,6.0117 2.6602,9.5508 0,5.3203 -1.8906,9.4883 -5.7812,12.738 -3.6797,3.0781 -8.7617,4.5781 -15.539,4.5781 h -7.4414 v 18.191 z m -12.453,-2 H 34.258 V 42.661 h 9.4414 c 6.2812,0 10.949,-1.3398 14.25,-4.1094 3.4102,-2.8516 5.0703,-6.5195 5.0586,-11.211 0,-3.1602 -0.76953,-5.9414 -2.3594,-8.5 -1.5391,-2.4688 -3.7188,-4.3594 -6.6602,-5.7695 -2.6992,-1.3008 -6,-1.9297 -10.078,-1.9297 h -20.102 z"
     id="path1981"
     style="fill:#0000e2" />
</svg>
