<?xml version="1.0" encoding="UTF-8" standalone="no"?>
<svg
   data-name="Layer 38"
   viewBox="0 0 92 78.510002"
   x="0px"
   y="0px"
   version="1.1"
   id="svg2158"
   sodipodi:docname="noun-parking-barrier-4454404.svg"
   width="92"
   height="78.510002"
   xmlns:inkscape="http://www.inkscape.org/namespaces/inkscape"
   xmlns:sodipodi="http://sodipodi.sourceforge.net/DTD/sodipodi-0.dtd"
   xmlns="http://www.w3.org/2000/svg"
   xmlns:svg="http://www.w3.org/2000/svg">
  <defs
     id="defs2162" />
  <sodipodi:namedview
     id="namedview2160"
     pagecolor="#ffffff"
     bordercolor="#000000"
     borderopacity="0.25"
     inkscape:showpageshadow="2"
     inkscape:pageopacity="0.0"
     inkscape:pagecheckerboard="0"
     inkscape:deskcolor="#d1d1d1"
     showgrid="false" />
  <path
     d="M 25.75,66.56 H 23.2 a 1,1 0 0 0 -1,1 v 0 a 1,1 0 0 0 1,1 h 2.55 a 1,1 0 0 0 1,-1 v 0 a 1,1 0 0 0 -1,-1 z"
     id="path2144"
     style="fill:#666666" />
  <path
     d="m 18.5,11.16 a 7,7 0 0 0 -7,7 6.86,6.86 0 0 0 0.78,3.12 1,1 0 0 0 1.78,-0.9 5,5 0 1 1 6.8,2.13 1,1 0 0 0 -0.47,0.58 1,1 0 0 0 0.07,0.78 1,1 0 0 0 1.35,0.4 7,7 0 0 0 -3.31,-13.11 z"
     id="path2146"
     style="fill:#666666" />
  <path
     d="m 18,23.09 a 5,5 0 0 1 -1.62,-0.44 1.0022475,1.0022475 0 0 0 -0.84,1.82 7.14,7.14 0 0 0 2.27,0.61 h 0.09 a 1,1 0 0 0 1,-0.91 1,1 0 0 0 -0.9,-1.08 z"
     id="path2148"
     style="fill:#666666" />
  <path
     d="M 91,11.19 H 29.23 V 5.28 A 5.27,5.27 0 0 0 24,0 H 13 A 5.27,5.27 0 0 0 7.77,5.28 V 56.6 A 4.27,4.27 0 0 0 4,60.82 v 5.9 a 5.21,5.21 0 0 0 -4,5 v 5.79 a 1,1 0 0 0 1,1 h 35 a 1,1 0 0 0 1,-1 v -5.74 a 5.21,5.21 0 0 0 -4,-5 v -5.9 A 4.27,4.27 0 0 0 29.21,56.65 V 25.08 H 91 a 1,1 0 0 0 1,-1 V 12.19 a 1,1 0 0 0 -1,-1 z M 9.77,5.28 A 3.27,3.27 0 0 1 13,2 h 11 a 3.27,3.27 0 0 1 3.23,3.28 v 51.3 H 9.77 Z M 31,60.82 v 5.74 h -1.63 a 1,1 0 0 0 -1,1 v 0 a 1,1 0 0 0 1,1 h 2.42 A 3.21,3.21 0 0 1 35,71.77 v 4.79 H 2 v -4.79 a 3.21,3.21 0 0 1 3.21,-3.21 h 12 a 1,1 0 0 0 1,-1 v 0 a 1,1 0 0 0 -1,-1 H 6 v -5.74 a 2.27,2.27 0 0 1 2.27,-2.26 h 20.5 A 2.27,2.27 0 0 1 31,60.82 Z M 43.63,23.08 H 34.38 L 35.2,21.8 A 1,1 0 1 0 33.52,20.72 L 32,23.08 h -2.77 v -9.89 h 9.11 l -0.49,0.77 a 1,1 0 0 0 0.3,1.38 1.09,1.09 0 0 0 0.54,0.16 1,1 0 0 0 0.85,-0.47 l 1.18,-1.84 H 50 Z m 11.63,0 H 46 l 6.34,-9.89 h 9.26 z m 23.25,0 H 69.26 L 73,17.28 a 1,1 0 0 0 -0.3,-1.38 1,1 0 0 0 -1.38,0.31 l -4.43,6.87 H 57.64 L 64,13.19 h 9.25 l -0.32,0.5 a 1,1 0 0 0 0.81,1.59 1,1 0 0 0 0.84,-0.46 l 1,-1.58 h 9.25 z m 11.49,0 h -9.11 l 6.34,-9.89 H 90 Z"
     id="path2150"
     style="fill:#666666" />
  <path
     d="m 37.69,16.06 a 1,1 0 0 0 -1.38,0.3 l -1.12,1.76 a 1,1 0 0 0 0.3,1.38 1,1 0 0 0 0.54,0.16 1,1 0 0 0 0.84,-0.46 L 38,17.44 a 1,1 0 0 0 -0.31,-1.38 z"
     id="path2152"
     style="fill:#666666" />
</svg>
