<?xml version="1.0" encoding="UTF-8" standalone="no"?>
<svg
   data-name="Layer 1"
   viewBox="0 0 91.999939 56.523418"
   x="0px"
   y="0px"
   version="1.1"
   id="svg908"
   sodipodi:docname="noun-parking-lot-1468758.svg"
   width="91.999939"
   height="56.523418"
   xmlns:inkscape="http://www.inkscape.org/namespaces/inkscape"
   xmlns:sodipodi="http://sodipodi.sourceforge.net/DTD/sodipodi-0.dtd"
   xmlns="http://www.w3.org/2000/svg"
   xmlns:svg="http://www.w3.org/2000/svg">
  <defs
     id="defs912" />
  <sodipodi:namedview
     id="namedview910"
     pagecolor="#ffffff"
     bordercolor="#000000"
     borderopacity="0.25"
     inkscape:showpageshadow="2"
     inkscape:pageopacity="0.0"
     inkscape:pagecheckerboard="0"
     inkscape:deskcolor="#d1d1d1"
     showgrid="false" />
  <title
     id="title892">*Icons December (Outlined)</title>
  <path
     d="m 10.662536,30.12352 h 4.2744 a 1.00005,1.00005 0 0 0 1,-1 v -12.1499 a 1,1 0 0 0 -1,-1 h -4.2744 a 1,1 0 0 0 -1.0000001,1 v 12.1499 a 1.00005,1.00005 0 0 0 1.0000001,1 z m 1,-12.1499 h 2.2744 v 10.1499 h -2.2744 z"
     id="path894"
     style="fill:#666666" />
  <path
     d="M 90.999936,18.07274 H 21.773376 V 9.24842 l 3.729,-7.81775 A 0.99982,0.99982 0 0 0 24.600036,0 H 0.99993591 a 0.99982,0.99982 0 0 0 -0.90234,1.43067 L 3.8265959,9.24842 v 46.275 a 1,1 0 0 0 1,1 H 20.773376 a 1.00005,1.00005 0 0 0 1,-1 V 28.02391 h 69.22656 a 1.00005,1.00005 0 0 0 1,-1 v -7.95117 a 1,1 0 0 0 -1,-1 z M 19.773376,54.52342 H 5.8265959 v -44.501 H 19.773376 Z m 0.36914,-46.501 H 5.4574559 L 2.5849359,1.99998 H 23.015076 Z m 1.63086,18.00147 v -4.53532 l 4.532,4.53534 z m 7.3601,0 -5.94683,-5.95117 h 5.11729 l 5.94683,5.95117 z m 7.94532,0 -5.94686,-5.95115 h 5.11731 l 5.94714,5.95117 z m 7.94574,0 -5.94715,-5.95117 h 5.11762 l 5.94684,5.95117 z m 7.94537,0 -5.94684,-5.95117 h 5.11731 l 5.94715,5.95117 z m 7.94574,0 -5.94714,-5.95117 h 5.11761 l 5.94682,5.95119 z m 7.94537,0 -5.94683,-5.95117 h 5.11731 l 5.94714,5.95117 z m 7.94574,0 -5.94714,-5.95117 h 5.11761 l 5.94684,5.95117 z m 7.94538,0 -5.94684,-5.95117 h 5.11725 l 5.94684,5.95117 z m 5.2478,-2.69947 -3.24927,-3.25164 h 3.24927 z"
     id="path896"
     style="fill:#666666" />
</svg>
