<?xml version="1.0" encoding="UTF-8" standalone="no"?>
<svg
   viewBox="0 0 46 60"
   x="0px"
   y="0px"
   version="1.1"
   id="svg14"
   sodipodi:docname="noun-parking-5924289.svg"
   width="46"
   height="60"
   inkscape:version="0.0"
   xmlns:inkscape="http://www.inkscape.org/namespaces/inkscape"
   xmlns:sodipodi="http://sodipodi.sourceforge.net/DTD/sodipodi-0.dtd"
   xmlns="http://www.w3.org/2000/svg"
   xmlns:svg="http://www.w3.org/2000/svg">
  <defs
     id="defs18" />
  <sodipodi:namedview
     id="namedview16"
     pagecolor="#ffffff"
     bordercolor="#000000"
     borderopacity="0.25"
     inkscape:showpageshadow="2"
     inkscape:pageopacity="0.0"
     inkscape:pagecheckerboard="0"
     inkscape:deskcolor="#d1d1d1"
     showgrid="false"
     inkscape:zoom="11.1625"
     inkscape:cx="23.068309"
     inkscape:cy="30.951848"
     inkscape:window-width="1864"
     inkscape:window-height="1012"
     inkscape:window-x="1976"
     inkscape:window-y="32"
     inkscape:window-maximized="1"
     inkscape:current-layer="svg14" />
  <path
     d="m 45,20.43555 c 0.55273,0 1,-0.44775 1,-1 V 1 C 46,0.44775 45.55273,0 45,0 H 1 C 0.44775,0 0,0.44775 0,1 v 44 c 0,0.55225 0.44775,1 1,1 h 17.02979 v 13 c 0,0.55225 0.44775,1 1,1 0.55225,0 1,-0.44775 1,-1 V 46 h 5.93994 v 13 c 0,0.55225 0.44727,1 1,1 0.55273,0 1,-0.44775 1,-1 V 46 H 45 c 0.55273,0 1,-0.44775 1,-1 V 23 c 0,-0.55225 -0.44727,-1 -1,-1 -0.55273,0 -1,0.44775 -1,1 V 44 H 2 V 2 h 42 v 17.43555 c 0,0.55225 0.44727,1 1,1 z"
     id="path2"
     style="fill:#666666" />
  <path
     d="M 5,4 C 4.44775,4 4,4.44775 4,5 v 36 c 0,0.55225 0.44775,1 1,1 h 36 c 0.55273,0 1,-0.44775 1,-1 V 5 C 42,4.44775 41.55273,4 41,4 Z M 40,40 H 6 V 6 h 34 z"
     id="path4"
     style="fill:#666666" />
  <path
     d="m 13.30908,37 h 5.7207 c 0.55225,0 1,-0.44775 1,-1 v -7.1001 h 3.71094 c 5.48682,0 9.95068,-4.46387 9.95068,-9.9502 0,-5.48633 -4.46387,-9.94971 -9.95068,-9.94971 H 13.30908 c -0.55225,0 -1,0.44775 -1,1 v 26 c 0,0.55225 0.44775,1 1,1 z m 1,-26 h 9.43164 c 4.38428,0 7.95068,3.56641 7.95068,7.94971 0,4.38379 -3.56641,7.9502 -7.95068,7.9502 h -4.71094 c -0.55225,0 -1,0.44775 -1,1 v 7.1001 h -3.7207 z"
     id="path6"
     style="fill:#666666" />
  <path
     d="m 19.02979,23.17871 h 4.71143 c 2.33203,0 4.22852,-1.89697 4.22852,-4.229 0,-2.33154 -1.89648,-4.22852 -4.22852,-4.22852 h -4.71143 c -0.55225,0 -1,0.44775 -1,1 v 6.45752 c 0,0.55225 0.44775,1 1,1 z m 1,-6.45752 h 3.71143 c 1.22852,0 2.22852,0.99951 2.22852,2.22852 0,1.22901 -1,2.229 -2.22852,2.229 h -3.71143 z"
     id="path8"
     style="fill:#666666" />
</svg>
