<?xml version="1.0" encoding="UTF-8" standalone="no"?>
<svg
   version="1.1"
   x="0px"
   y="0px"
   viewBox="0 0 53.611 76.553001"
   enable-background="new 0 0 90 90"
   xml:space="preserve"
   id="svg280"
   sodipodi:docname="parking-price.svg"
   width="53.611"
   height="76.553001"
   inkscape:version="1.1.2 (0a00cf5339, 2022-02-04)"
   xmlns:inkscape="http://www.inkscape.org/namespaces/inkscape"
   xmlns:sodipodi="http://sodipodi.sourceforge.net/DTD/sodipodi-0.dtd"
   xmlns="http://www.w3.org/2000/svg"
   xmlns:svg="http://www.w3.org/2000/svg"><defs
     id="defs284" /><sodipodi:namedview
     id="namedview282"
     pagecolor="#ffffff"
     bordercolor="#666666"
     borderopacity="1.0"
     inkscape:pageshadow="2"
     inkscape:pageopacity="0.0"
     inkscape:pagecheckerboard="0"
     showgrid="false"
     fit-margin-top="0"
     fit-margin-left="0"
     fit-margin-right="0"
     fit-margin-bottom="0"
     inkscape:zoom="6.7644444"
     inkscape:cx="26.757556"
     inkscape:cy="49.597569"
     inkscape:window-width="1850"
     inkscape:window-height="1025"
     inkscape:window-x="1990"
     inkscape:window-y="27"
     inkscape:window-maximized="1"
     inkscape:current-layer="svg280" /><g
     id="g14"
     transform="translate(-18.195,-6.724)"><path
       d="m -243.806,-181.777 c 0.701,0 1.268,-0.568 1.268,-1.268 0,-0.701 -0.567,-1.268 -1.268,-1.268 h -3.87 c -0.7,0 -1.268,0.567 -1.268,1.268 v 7.716 c 0,0.7 0.568,1.268 1.268,1.268 0.701,0 1.269,-0.568 1.269,-1.268 v -2.59 h 2.601 c 0.701,0 1.268,-0.567 1.268,-1.268 0,-0.701 -0.567,-1.268 -1.268,-1.268 h -2.601 v -1.322 z"
       id="path2" /><path
       d="m -237.343,-184.313 c -0.7,0 -1.268,0.567 -1.268,1.268 v 7.716 c 0,0.7 0.568,1.268 1.268,1.268 0.701,0 1.268,-0.568 1.268,-1.268 v -7.716 c 0,-0.701 -0.567,-1.268 -1.268,-1.268 z"
       id="path4" /><path
       d="m -225.211,-184.313 c -0.701,0 -1.268,0.567 -1.268,1.268 v 3.847 l -3.378,-4.598 c -0.324,-0.442 -0.896,-0.625 -1.417,-0.454 -0.521,0.171 -0.873,0.657 -0.873,1.205 v 7.716 c 0,0.7 0.567,1.268 1.268,1.268 0.701,0 1.268,-0.568 1.268,-1.268 v -3.848 l 3.378,4.598 c 0.243,0.332 0.626,0.518 1.022,0.518 0.131,0 0.265,-0.021 0.395,-0.063 0.521,-0.17 0.873,-0.657 0.873,-1.205 v -7.716 c 0,-0.701 -0.568,-1.268 -1.268,-1.268 z"
       id="path6" /><path
       d="m -214.878,-181.777 c 0.701,0 1.269,-0.568 1.269,-1.268 0,-0.701 -0.568,-1.268 -1.269,-1.268 h -3.87 c -0.701,0 -1.269,0.567 -1.269,1.268 v 7.716 c 0,0.7 0.568,1.268 1.269,1.268 h 3.87 c 0.701,0 1.269,-0.568 1.269,-1.268 0,-0.701 -0.568,-1.269 -1.269,-1.269 h -2.602 v -1.321 h 2.602 c 0.701,0 1.269,-0.567 1.269,-1.268 0,-0.701 -0.568,-1.268 -1.269,-1.268 h -2.602 v -1.322 z"
       id="path8" /><path
       d="m -219.407,-231.714 v -0.672 c 0,-0.701 -0.567,-1.268 -1.268,-1.268 -0.701,0 -1.268,0.567 -1.268,1.268 v 0.672 c 0,0.701 0.567,1.269 1.268,1.269 0.701,0 1.268,-0.569 1.268,-1.269 z"
       id="path10" /><path
       d="m -193.133,-206.431 -5.896,-17.285 c -0.175,-0.514 -0.658,-0.859 -1.2,-0.859 -0.542,0 -1.025,0.345 -1.2,0.859 l -3.076,9.017 c -1.583,-0.969 -3.706,-2.166 -6.26,-3.381 -0.731,-1.683 -1.684,-3.224 -2.727,-4.438 v -18.104 c 0,-0.701 -0.568,-1.268 -1.269,-1.268 h -4.643 v -4.912 c 0.362,0.271 0.564,0.712 0.844,1.325 0.517,1.132 1.298,2.844 3.804,2.844 0.7,0 1.268,-0.568 1.268,-1.268 0,-0.701 -0.568,-1.268 -1.268,-1.268 -0.841,0 -1.004,-0.282 -1.497,-1.361 -0.568,-1.246 -1.427,-3.127 -4.419,-3.127 -0.701,0 -1.268,0.567 -1.268,1.268 v 6.499 h -4.41 c -0.701,0 -1.268,0.567 -1.268,1.268 v 6.878 h -20.725 c -0.701,0 -1.268,0.568 -1.268,1.269 v 12.146 c -1.263,0.604 -2.495,1.287 -3.693,2.044 -1.492,-4.672 -4.972,-8.978 -7.735,-8.978 -3.467,0 -7.892,6.374 -8.454,12.178 -0.496,5.116 2.115,8.677 7.166,9.854 v 1.465 c 0,0.701 0.567,1.269 1.268,1.269 0.7,0 1.268,-0.568 1.268,-1.269 v -1.464 c 5.051,-1.177 7.662,-4.741 7.166,-9.862 -0.018,-0.182 -0.05,-0.366 -0.076,-0.548 3.243,-2.173 6.758,-3.732 10.487,-4.646 l -3.083,9.039 c -1.075,-0.968 -2.187,-1.558 -3.203,-1.558 -3.467,0 -7.892,6.374 -8.454,12.178 -0.496,5.116 2.115,8.677 7.166,9.854 v 1.465 c 0,0.701 0.567,1.268 1.268,1.268 0.701,0 1.268,-0.567 1.268,-1.268 v -1.465 c 5.051,-1.177 7.662,-4.741 7.166,-9.862 -0.167,-1.724 -0.698,-3.519 -1.446,-5.187 h 0.85 v 2.017 c 0,0.701 0.568,1.268 1.268,1.268 0.701,0 1.269,-0.567 1.269,-1.268 v -2.017 h 4.692 c 0.409,0 0.793,-0.197 1.031,-0.53 0.238,-0.333 0.301,-0.76 0.168,-1.147 l -4.653,-13.642 c 4.138,-0.34 8.521,0.026 13.071,1.09 -0.763,1.307 -1.401,2.761 -1.839,4.244 -0.07,-0.012 -0.139,-0.033 -0.212,-0.033 -0.542,0 -1.025,0.345 -1.2,0.858 l -5.96,17.471 c -0.132,0.387 -0.069,0.814 0.169,1.147 0.238,0.333 0.622,0.53 1.031,0.53 h 4.692 v 2.017 c 0,0.701 0.567,1.268 1.268,1.268 0.701,0 1.268,-0.567 1.268,-1.268 v -2.017 h 4.692 c 0.006,0 0.011,0 0.017,0 0.701,0 1.268,-0.567 1.268,-1.268 0,-0.215 -0.054,-0.418 -0.148,-0.596 l -2.038,-5.972 c 0.544,0.213 1.125,0.393 1.743,0.537 v 1.474 c 0,0.701 0.568,1.268 1.268,1.268 0.701,0 1.268,-0.567 1.268,-1.268 v -1.464 c 5.067,-1.18 7.676,-4.76 7.162,-9.903 -0.056,-0.556 -0.156,-1.116 -0.278,-1.677 1.746,0.91 3.2,1.765 4.322,2.466 l -2.044,5.992 c -0.133,0.387 -0.069,0.814 0.168,1.147 0.238,0.333 0.623,0.53 1.031,0.53 h 4.692 v 2.017 c 0,0.701 0.568,1.268 1.269,1.268 0.7,0 1.268,-0.567 1.268,-1.268 v -2.017 h 4.692 c 0.005,0 0.011,0 0.017,0 0.701,0 1.269,-0.567 1.269,-1.268 -0.003,-0.215 -0.057,-0.417 -0.152,-0.595 z m -66.658,-1.413 v -2.903 c 0,-0.7 -0.568,-1.268 -1.268,-1.268 -0.701,0 -1.268,0.568 -1.268,1.268 v 2.903 c -3.433,-0.988 -4.997,-3.335 -4.642,-6.996 0.495,-5.106 4.377,-9.886 5.95,-9.886 1.544,0 5.392,4.958 5.869,9.878 0.356,3.666 -1.208,6.016 -4.641,7.004 z m 12.538,14.456 v -2.903 c 0,-0.7 -0.567,-1.268 -1.268,-1.268 -0.701,0 -1.268,0.568 -1.268,1.268 v 2.903 c -3.433,-0.988 -4.996,-3.335 -4.641,-6.995 0.494,-5.106 4.376,-9.886 5.95,-9.886 1.544,0 5.392,4.958 5.868,9.878 0.355,3.665 -1.208,6.016 -4.641,7.003 z m 9.106,-14.971 v -1.382 c 0,-0.701 -0.568,-1.268 -1.269,-1.268 -0.7,0 -1.268,0.567 -1.268,1.268 v 1.382 h -2.225 c -0.15,-0.234 -0.303,-0.464 -0.461,-0.686 l 3.954,-11.59 4.188,12.276 z m 0.397,-15.247 -0.466,-1.365 c -0.008,-0.024 -0.021,-0.044 -0.03,-0.067 -0.018,-0.042 -0.035,-0.084 -0.057,-0.125 -0.02,-0.036 -0.041,-0.07 -0.063,-0.103 -0.022,-0.034 -0.045,-0.067 -0.072,-0.098 -0.027,-0.033 -0.056,-0.064 -0.086,-0.094 -0.027,-0.028 -0.056,-0.054 -0.085,-0.079 -0.035,-0.029 -0.071,-0.054 -0.108,-0.078 -0.03,-0.021 -0.061,-0.04 -0.093,-0.058 -0.044,-0.024 -0.089,-0.043 -0.136,-0.062 -0.02,-0.008 -0.038,-0.02 -0.059,-0.027 -0.011,-0.004 -0.022,-0.004 -0.033,-0.008 -0.047,-0.015 -0.096,-0.025 -0.145,-0.034 -0.036,-0.006 -0.07,-0.014 -0.106,-0.018 -0.041,-0.004 -0.082,-0.004 -0.123,-0.004 -0.044,0 -0.087,0 -0.131,0.004 -0.033,0.003 -0.066,0.011 -0.099,0.017 -0.051,0.009 -0.102,0.02 -0.152,0.035 -0.01,0.003 -0.021,0.004 -0.031,0.008 -0.021,0.006 -0.037,0.018 -0.057,0.025 -0.048,0.02 -0.095,0.04 -0.14,0.064 -0.031,0.017 -0.061,0.036 -0.089,0.055 -0.039,0.025 -0.076,0.052 -0.111,0.081 -0.029,0.024 -0.056,0.05 -0.083,0.076 -0.031,0.031 -0.061,0.062 -0.089,0.096 -0.025,0.031 -0.048,0.063 -0.07,0.096 -0.023,0.034 -0.045,0.069 -0.065,0.105 -0.021,0.04 -0.039,0.081 -0.056,0.123 -0.009,0.023 -0.022,0.043 -0.031,0.067 l -0.642,1.88 c -1.995,0.395 -3.936,0.956 -5.817,1.68 v -9.796 h 3.718 c -0.007,0.051 -0.016,0.102 -0.016,0.154 v 0.672 c 0,0.701 0.567,1.268 1.268,1.268 0.701,0 1.268,-0.567 1.268,-1.268 v -0.672 c 0,-0.053 -0.009,-0.103 -0.016,-0.154 h 2.871 c -0.007,0.051 -0.016,0.102 -0.016,0.154 v 0.672 c 0,0.701 0.567,1.268 1.268,1.268 0.701,0 1.268,-0.567 1.268,-1.268 v -0.672 c 0,-0.053 -0.009,-0.103 -0.016,-0.154 h 2.871 c -0.007,0.051 -0.016,0.102 -0.016,0.154 v 0.672 c 0,0.701 0.567,1.268 1.268,1.268 0.701,0 1.268,-0.567 1.268,-1.268 v -0.672 c 0,-0.053 -0.009,-0.103 -0.016,-0.154 h 3.75 c 0.701,0 1.268,-0.568 1.268,-1.268 v -6.878 h 3.178 c -0.024,0.097 -0.04,0.196 -0.04,0.3 v 0.672 c 0,0.701 0.567,1.268 1.268,1.268 0.701,0 1.268,-0.567 1.268,-1.268 v -0.672 c 0,-0.104 -0.016,-0.203 -0.04,-0.3 h 3.417 v 14.695 c -0.59,-0.311 -1.177,-0.496 -1.736,-0.496 -0.011,0 -0.022,0 -0.034,0 -1.452,0 -3.062,1.141 -4.492,2.873 -5.38,-1.363 -10.571,-1.806 -15.454,-1.322 z m 13.128,25.236 v -1.383 c 0,-0.7 -0.567,-1.268 -1.268,-1.268 -0.701,0 -1.268,0.568 -1.268,1.268 v 1.383 h -2.92 l 4.188,-12.276 4.188,12.276 z m 8.07,-7.366 v -2.904 c 0,-0.7 -0.567,-1.268 -1.268,-1.268 -0.7,0 -1.268,0.568 -1.268,1.268 v 2.897 c -1.127,-0.327 -2.068,-0.795 -2.787,-1.414 -0.061,-0.052 -0.125,-0.095 -0.191,-0.134 l -1.691,-4.957 c 0.246,-5 4.283,-10.371 5.971,-10.371 0.003,0 0.005,0 0.009,0 1.538,0 5.373,4.932 5.864,9.845 0.368,3.686 -1.194,6.047 -4.639,7.038 z m 17.591,-1.368 v -1.382 c 0,-0.701 -0.568,-1.268 -1.268,-1.268 -0.701,0 -1.269,0.567 -1.269,1.268 v 1.382 h -2.919 l 4.188,-12.275 4.188,12.275 z"
       id="path12" /></g><path
     d="m -81.401,11.997 c -0.421,-0.038 -0.854,0.127 -1.132,0.488 -0.427,0.555 -0.324,1.35 0.23,1.777 l 0.119,0.092 c 0.229,0.176 0.501,0.264 0.774,0.264 0.272,0 0.544,-0.087 0.771,-0.262 l 0.118,-0.09 c 0.555,-0.426 0.66,-1.223 0.233,-1.779 -0.271,-0.355 -0.707,-0.523 -1.113,-0.49 z"
     id="path16" /><path
     d="m -81.393,6.355 c -0.042,-0.001 -0.083,10e-4 -0.125,0.004 -1.599,0.066 -3.144,0.834 -4.594,2.283 -0.495,0.495 -0.495,1.298 0,1.793 0.496,0.496 1.298,0.496 1.794,10e-4 0.995,-0.995 1.983,-1.516 2.939,-1.544 0.955,0.028 1.943,0.549 2.939,1.544 0.248,0.247 0.572,0.37 0.896,0.37 0.324,0 0.649,-0.123 0.896,-0.371 0.496,-0.495 0.496,-1.298 0,-1.793 -1.486,-1.486 -3.072,-2.256 -4.716,-2.286 V 6.355 c -0.008,0 -0.017,10e-4 -0.029,0 z"
     id="path18" /><path
     d="m -81.168,-0.234 c -0.041,-0.004 -0.082,-0.006 -0.124,-0.006 h -0.174 c -0.042,0 -0.083,0.002 -0.124,0.006 -3.343,0.112 -6.616,1.748 -9.734,4.865 -0.495,0.496 -0.495,1.298 0,1.794 0.496,0.495 1.298,0.495 1.794,0 2.688,-2.688 5.43,-4.075 8.151,-4.127 2.722,0.052 5.463,1.44 8.151,4.127 0.248,0.247 0.572,0.371 0.896,0.371 0.325,0 0.649,-0.124 0.896,-0.371 0.496,-0.496 0.496,-1.298 0,-1.794 -3.115,-3.117 -6.389,-4.752 -9.732,-4.865 z"
     id="path20" /><path
     d="m -81.393,-6.752 c -0.033,0 -0.063,0 -0.096,0.002 -5.126,0.107 -10.167,2.603 -14.984,7.42 -0.495,0.496 -0.495,1.298 0,1.793 0.496,0.495 1.298,0.495 1.794,0 4.356,-4.357 8.831,-6.604 13.301,-6.679 4.47,0.075 8.944,2.322 13.301,6.679 0.248,0.248 0.572,0.372 0.896,0.372 0.325,0 0.649,-0.124 0.896,-0.372 0.496,-0.496 0.496,-1.298 0,-1.793 -4.846,-4.847 -9.919,-7.344 -15.077,-7.423 v 0 c -0.013,0 -0.022,0 -0.031,0.001 z"
     id="path22" /><path
     d="m -94.406,28.651 c 0.7,0 1.269,-0.567 1.269,-1.268 0,-0.701 -0.568,-1.268 -1.269,-1.268 h -3.868 c -0.7,0 -1.269,0.566 -1.269,1.268 v 7.715 c 0,0.701 0.568,1.269 1.269,1.269 0.701,0 1.268,-0.567 1.268,-1.269 v -2.59 h 2.601 c 0.7,0 1.269,-0.566 1.269,-1.268 0,-0.7 -0.568,-1.269 -1.269,-1.269 h -2.601 V 28.65 h 2.6 z"
     id="path24" /><path
     d="m -64.482,28.651 c 0.7,0 1.269,-0.567 1.269,-1.268 0,-0.701 -0.568,-1.268 -1.269,-1.268 h -3.87 c -0.7,0 -1.269,0.566 -1.269,1.268 v 7.715 c 0,0.701 0.568,1.269 1.269,1.269 h 3.87 c 0.7,0 1.269,-0.567 1.269,-1.269 0,-0.699 -0.568,-1.268 -1.269,-1.268 h -2.603 v -1.322 h 2.603 c 0.7,0 1.269,-0.566 1.269,-1.268 0,-0.7 -0.568,-1.269 -1.269,-1.269 h -2.603 V 28.65 h 2.603 z"
     id="path26" /><path
     d="m -73.968,28.651 c 0.7,0 1.269,-0.567 1.269,-1.268 0,-0.701 -0.568,-1.268 -1.269,-1.268 h -3.87 c -0.7,0 -1.269,0.566 -1.269,1.268 v 7.715 c 0,0.701 0.568,1.269 1.269,1.269 h 3.87 c 0.7,0 1.269,-0.567 1.269,-1.269 0,-0.699 -0.568,-1.268 -1.269,-1.268 h -2.603 v -1.322 h 2.603 c 0.7,0 1.269,-0.566 1.269,-1.268 0,-0.7 -0.568,-1.269 -1.269,-1.269 h -2.603 V 28.65 h 2.603 z"
     id="path28" /><path
     d="m -85.044,32.101 c 1.239,-0.358 2.098,-0.926 2.505,-1.705 0.404,-0.775 0.335,-1.652 -0.191,-2.409 -1.014,-1.458 -3.449,-2.173 -6.22,-1.823 -0.017,0.003 -0.031,0.009 -0.048,0.012 -0.043,0.007 -0.084,0.018 -0.126,0.029 -0.04,0.011 -0.08,0.021 -0.118,0.037 -0.038,0.014 -0.074,0.031 -0.11,0.049 -0.038,0.02 -0.076,0.039 -0.111,0.061 -0.033,0.021 -0.063,0.045 -0.094,0.068 -0.034,0.025 -0.068,0.052 -0.099,0.082 -0.028,0.025 -0.054,0.055 -0.079,0.084 -0.028,0.031 -0.056,0.062 -0.08,0.096 -0.023,0.033 -0.043,0.066 -0.063,0.1 -0.021,0.037 -0.042,0.072 -0.06,0.11 -0.017,0.036 -0.03,0.073 -0.043,0.11 -0.014,0.041 -0.028,0.082 -0.038,0.125 -0.009,0.037 -0.015,0.074 -0.021,0.112 -0.007,0.046 -0.012,0.091 -0.014,0.138 0,0.016 -0.005,0.029 -0.005,0.046 v 7.716 c 0,0.7 0.568,1.268 1.269,1.268 0.701,0 1.268,-0.567 1.268,-1.268 v -1.821 l 3.242,2.783 c 0.24,0.206 0.534,0.306 0.826,0.306 0.357,0 0.712,-0.149 0.963,-0.441 0.456,-0.531 0.396,-1.332 -0.136,-1.789 z m -2.478,-2.138 V 28.62 c 1.394,0.016 2.309,0.414 2.618,0.705 -0.288,0.204 -1.073,0.52 -2.618,0.638 z"
     id="path30" /><path
     d="m -53.669,-9.636 -26.954,-20.042 c -0.449,-0.334 -1.064,-0.334 -1.514,0 l -26.953,20.042 c -0.562,0.417 -0.679,1.212 -0.261,1.774 0.42,0.562 1.212,0.68 1.775,0.261 l 5.062,-3.764 v 30.601 c 0,0.7 0.568,1.269 1.269,1.269 0.701,0 1.268,-0.568 1.268,-1.269 v -32.329 c 0,-0.05 -0.009,-0.098 -0.015,-0.147 l 18.612,-13.841 18.616,13.842 c -0.006,0.048 -0.015,0.096 -0.015,0.146 v 32.329 c 0,0.7 0.568,1.269 1.269,1.269 0.699,0 1.268,-0.568 1.268,-1.269 v -30.6 l 5.062,3.763 c 0.227,0.169 0.491,0.25 0.755,0.25 0.388,0 0.77,-0.177 1.019,-0.511 0.417,-0.562 0.3,-1.356 -0.263,-1.774 z"
     id="path32" /><g
     id="g48"
     transform="translate(-18.195,-6.724)"><path
       d="m 315.146,125.692 c 0.7,0 1.269,-0.567 1.269,-1.268 0,-0.701 -0.568,-1.269 -1.269,-1.269 h -3.868 c -0.7,0 -1.269,0.567 -1.269,1.269 v 7.715 c 0,0.701 0.568,1.27 1.269,1.27 0.699,0 1.268,-0.568 1.268,-1.27 v -2.59 h 2.601 c 0.7,0 1.269,-0.566 1.269,-1.268 0,-0.7 -0.568,-1.268 -1.269,-1.268 h -2.601 v -1.322 h 2.6 z"
       id="path34" /><path
       d="m 345.069,129.55 c 0.7,0 1.268,-0.566 1.268,-1.268 0,-0.7 -0.567,-1.268 -1.268,-1.268 h -2.603 v -1.322 h 2.603 c 0.7,0 1.268,-0.567 1.268,-1.268 0,-0.701 -0.567,-1.269 -1.268,-1.269 h -3.87 c -0.7,0 -1.269,0.567 -1.269,1.269 v 7.715 c 0,0.701 0.568,1.27 1.269,1.27 h 3.87 c 0.7,0 1.268,-0.568 1.268,-1.27 0,-0.699 -0.567,-1.268 -1.268,-1.268 h -2.603 v -1.322 h 2.603 z"
       id="path36" /><path
       d="m 335.583,125.692 c 0.7,0 1.269,-0.567 1.269,-1.268 0,-0.701 -0.568,-1.269 -1.269,-1.269 h -3.87 c -0.7,0 -1.269,0.567 -1.269,1.269 v 7.715 c 0,0.701 0.568,1.27 1.269,1.27 h 3.87 c 0.7,0 1.269,-0.568 1.269,-1.27 0,-0.699 -0.568,-1.268 -1.269,-1.268 h -2.603 v -1.322 h 2.603 c 0.7,0 1.269,-0.566 1.269,-1.268 0,-0.7 -0.568,-1.268 -1.269,-1.268 h -2.603 v -1.322 h 2.603 z"
       id="path38" /><path
       d="m 324.508,129.143 c 1.24,-0.359 2.098,-0.927 2.505,-1.706 0.405,-0.775 0.336,-1.653 -0.191,-2.41 -1.016,-1.457 -3.456,-2.172 -6.22,-1.82 -0.015,0.001 -0.03,0.007 -0.045,0.01 -0.045,0.007 -0.089,0.019 -0.132,0.03 -0.038,0.011 -0.076,0.021 -0.114,0.036 -0.039,0.014 -0.076,0.032 -0.113,0.051 -0.037,0.019 -0.073,0.037 -0.107,0.059 -0.035,0.021 -0.064,0.045 -0.096,0.068 -0.035,0.027 -0.068,0.052 -0.098,0.08 -0.028,0.027 -0.055,0.057 -0.081,0.086 -0.028,0.032 -0.055,0.062 -0.079,0.096 -0.023,0.033 -0.043,0.066 -0.062,0.102 -0.021,0.035 -0.043,0.07 -0.06,0.109 -0.017,0.035 -0.03,0.072 -0.043,0.109 -0.015,0.041 -0.028,0.082 -0.038,0.125 -0.01,0.037 -0.015,0.074 -0.021,0.113 -0.007,0.045 -0.012,0.09 -0.014,0.137 0,0.016 -0.005,0.03 -0.005,0.046 v 7.716 c 0,0.701 0.568,1.268 1.269,1.268 0.701,0 1.268,-0.566 1.268,-1.268 v -1.822 l 3.243,2.785 c 0.239,0.205 0.533,0.305 0.826,0.305 0.356,0 0.711,-0.149 0.962,-0.441 0.456,-0.531 0.396,-1.332 -0.137,-1.789 z m -2.479,-2.14 v -1.342 c 1.393,0.018 2.309,0.415 2.619,0.705 -0.287,0.205 -1.073,0.52 -2.619,0.637 z"
       id="path40" /><path
       d="m 314.923,117.689 h 26.504 c 2.021,0 3.664,-1.644 3.664,-3.664 V 71.262 c 0,-2.021 -1.644,-3.665 -3.664,-3.665 h -26.504 c -2.021,0 -3.666,1.644 -3.666,3.665 v 42.764 c 0,2.02 1.644,3.663 3.666,3.663 z m -1.13,-46.427 c 0,-0.623 0.508,-1.129 1.13,-1.129 h 26.504 c 0.622,0 1.128,0.506 1.128,1.129 v 42.764 c 0,0.622 -0.506,1.128 -1.128,1.128 h -26.504 c -0.622,0 -1.13,-0.506 -1.13,-1.128 z"
       id="path42" /><path
       d="m 316.285,109.831 h 23.604 c 0.7,0 1.268,-0.567 1.268,-1.268 v -35.85 c 0,-0.701 -0.567,-1.268 -1.268,-1.268 h -23.604 c -0.7,0 -1.269,0.566 -1.269,1.268 v 35.851 c 10e-4,0.7 0.569,1.267 1.269,1.267 z m 1.268,-35.85 h 21.068 v 33.314 h -21.068 z"
       id="path44" /><path
       d="m 328.174,110.458 c -1.095,0 -1.986,0.892 -1.986,1.987 0,1.097 0.892,1.988 1.986,1.988 1.097,0 1.988,-0.892 1.988,-1.988 0,-1.095 -0.891,-1.987 -1.988,-1.987 z m 0,2.536 c -0.302,0 -0.548,-0.245 -0.548,-0.549 0,-0.302 0.246,-0.548 0.548,-0.548 0.304,0 0.55,0.246 0.55,0.548 0,0.304 -0.246,0.549 -0.55,0.549 z"
       id="path46" /></g><g
     id="g86"
     transform="translate(-18.195,-6.724)"><path
       d="m -211.936,-104.74 h -74.016 c -0.701,0 -1.269,0.568 -1.269,1.269 v 26.064 c 0,0.7 0.567,1.269 1.269,1.269 h 74.016 c 0.7,0 1.268,-0.568 1.268,-1.269 v -26.064 c 0,-0.7 -0.567,-1.269 -1.268,-1.269 z m -1.268,26.066 h -71.479 v -23.528 h 71.479 z"
       id="path50" /><path
       d="m -281.234,-97.132 h 64.815 c 0.7,0 1.269,-0.567 1.269,-1.268 0,-0.701 -0.568,-1.269 -1.269,-1.269 h -64.815 c -0.701,0 -1.269,0.568 -1.269,1.269 0,0.701 0.567,1.268 1.269,1.268 z"
       id="path52" /><path
       d="m -281.234,-91.824 h 64.815 c 0.7,0 1.269,-0.567 1.269,-1.268 0,-0.701 -0.568,-1.269 -1.269,-1.269 h -64.815 c -0.701,0 -1.269,0.568 -1.269,1.269 0,0.701 0.567,1.268 1.269,1.268 z"
       id="path54" /><path
       d="m -281.234,-86.516 h 64.815 c 0.7,0 1.269,-0.568 1.269,-1.269 0,-0.701 -0.568,-1.268 -1.269,-1.268 h -64.815 c -0.701,0 -1.269,0.567 -1.269,1.268 0,0.701 0.567,1.269 1.269,1.269 z"
       id="path56" /><path
       d="m -216.419,-83.746 h -2.255 c -0.699,0 -1.268,0.568 -1.268,1.269 0,0.699 0.568,1.268 1.268,1.268 h 2.255 c 0.7,0 1.269,-0.568 1.269,-1.268 0,-0.7 -0.569,-1.269 -1.269,-1.269 z"
       id="path58" /><path
       d="m -223.816,-83.746 h -0.458 c -0.7,0 -1.269,0.568 -1.269,1.269 0,0.699 0.568,1.268 1.269,1.268 h 0.458 c 0.701,0 1.268,-0.568 1.268,-1.268 -0.001,-0.7 -0.567,-1.269 -1.268,-1.269 z"
       id="path60" /><path
       d="m -229.77,-83.746 h -0.457 c -0.701,0 -1.27,0.568 -1.27,1.269 0,0.699 0.568,1.268 1.27,1.268 h 0.457 c 0.701,0 1.268,-0.568 1.268,-1.268 0,-0.7 -0.566,-1.269 -1.268,-1.269 z"
       id="path62" /><path
       d="m -243.312,-115.347 c -0.494,0.496 -0.494,1.298 0,1.794 0.248,0.247 0.572,0.371 0.896,0.371 0.325,0 0.649,-0.124 0.897,-0.371 2.922,-2.923 1.255,-5.755 0.038,-7.822 -1.449,-2.464 -2.11,-3.846 -0.038,-5.916 0.495,-0.496 0.495,-1.298 0,-1.794 -0.495,-0.495 -1.298,-0.495 -1.794,0 -3.556,3.556 -1.705,6.701 -0.354,8.996 1.399,2.376 1.763,3.334 0.355,4.742 z"
       id="path64" /><path
       d="m -220.629,-115.862 c 1.398,2.376 1.762,3.334 0.354,4.742 -0.495,0.495 -0.495,1.298 0,1.793 0.247,0.248 0.571,0.372 0.896,0.372 0.325,0 0.649,-0.124 0.896,-0.372 2.923,-2.923 1.255,-5.754 0.038,-7.821 -1.449,-2.464 -2.109,-3.846 -0.038,-5.917 0.495,-0.495 0.495,-1.298 0,-1.793 -0.495,-0.495 -1.298,-0.495 -1.793,0 -3.555,3.555 -1.704,6.701 -0.353,8.996 z"
       id="path66" /><path
       d="m -254.451,-122.11 c -0.496,0.495 -0.496,1.298 0,1.793 0.248,0.248 0.572,0.371 0.896,0.371 0.324,0 0.648,-0.123 0.896,-0.371 2.922,-2.923 1.256,-5.755 0.039,-7.822 -1.45,-2.463 -2.111,-3.846 -0.039,-5.916 0.496,-0.495 0.496,-1.298 0,-1.793 -0.495,-0.496 -1.297,-0.496 -1.793,0 -3.557,3.555 -1.705,6.7 -0.354,8.995 1.4,2.377 1.763,3.334 0.355,4.743 z"
       id="path68" /><path
       d="m -264.745,-117.883 c -0.495,0.495 -0.495,1.298 0,1.793 0.248,0.248 0.572,0.372 0.897,0.372 0.324,0 0.648,-0.124 0.896,-0.372 2.922,-2.922 1.255,-5.754 0.038,-7.821 -1.45,-2.464 -2.11,-3.846 -0.038,-5.916 0.494,-0.496 0.494,-1.298 0,-1.794 -0.496,-0.495 -1.299,-0.495 -1.794,0 -3.556,3.556 -1.706,6.701 -0.354,8.996 1.399,2.375 1.763,3.333 0.355,4.742 z"
       id="path70" /><path
       d="m -279.928,-115.015 -1.096,1.097 c -0.496,0.495 -0.496,1.298 0,1.793 0.246,0.248 0.572,0.372 0.896,0.372 0.324,0 0.648,-0.124 0.896,-0.372 l 1.095,-1.095 1.097,1.097 c 0.248,0.248 0.572,0.371 0.896,0.371 0.324,0 0.649,-0.123 0.896,-0.371 0.496,-0.495 0.496,-1.298 0,-1.793 l -1.096,-1.097 1.096,-1.097 c 0.496,-0.495 0.496,-1.298 0,-1.793 -0.494,-0.495 -1.297,-0.495 -1.793,0 l -1.096,1.097 -1.096,-1.097 c -0.496,-0.495 -1.299,-0.495 -1.794,0 -0.495,0.495 -0.495,1.298 0,1.793 z"
       id="path72" /><path
       d="m -232.303,-121.864 -1.096,1.096 c -0.495,0.496 -0.495,1.298 0,1.794 0.248,0.247 0.572,0.371 0.896,0.371 0.325,0 0.649,-0.124 0.896,-0.371 l 1.096,-1.095 1.098,1.096 c 0.247,0.248 0.571,0.372 0.896,0.372 0.324,0 0.648,-0.124 0.896,-0.372 0.495,-0.495 0.495,-1.298 0,-1.793 l -1.097,-1.097 1.097,-1.096 c 0.495,-0.496 0.495,-1.298 0,-1.794 -0.495,-0.495 -1.299,-0.495 -1.793,0 l -1.098,1.097 -1.096,-1.097 c -0.495,-0.495 -1.297,-0.495 -1.793,0 -0.496,0.496 -0.496,1.298 0,1.794 z"
       id="path74" /><path
       d="m -252.297,-114.511 -1.096,-1.097 c -0.496,-0.495 -1.298,-0.495 -1.793,0 -0.496,0.495 -0.496,1.298 0,1.793 l 1.096,1.096 -1.096,1.096 c -0.496,0.495 -0.496,1.298 0,1.794 0.247,0.247 0.572,0.371 0.896,0.371 0.324,0 0.648,-0.124 0.896,-0.371 l 1.096,-1.096 1.097,1.097 c 0.247,0.248 0.571,0.372 0.896,0.372 0.325,0 0.649,-0.124 0.896,-0.372 0.495,-0.495 0.495,-1.298 0,-1.793 l -1.097,-1.097 1.097,-1.097 c 0.495,-0.495 0.495,-1.298 0,-1.793 -0.495,-0.495 -1.298,-0.495 -1.793,0 z"
       id="path76" /><path
       d="m -266.844,-108.306 c 0.699,0 1.268,-0.567 1.268,-1.268 v -0.458 c 0,-0.7 -0.568,-1.268 -1.268,-1.268 -0.701,0 -1.27,0.567 -1.27,1.268 v 0.458 c 10e-4,0.7 0.569,1.268 1.27,1.268 z"
       id="path78" /><path
       d="m -235.3,-109.379 c 0.7,0 1.269,-0.568 1.269,-1.268 v -0.458 c 0,-0.7 -0.568,-1.268 -1.269,-1.268 -0.701,0 -1.269,0.567 -1.269,1.268 v 0.458 c 10e-4,0.699 0.569,1.268 1.269,1.268 z"
       id="path80" /><path
       d="m -222.971,-128.907 c 0.7,0 1.268,-0.568 1.268,-1.269 v -0.457 c 0,-0.7 -0.567,-1.268 -1.268,-1.268 -0.701,0 -1.269,0.567 -1.269,1.268 v 0.457 c 0.001,0.701 0.568,1.269 1.269,1.269 z"
       id="path82" /><path
       d="m -272.922,-128.647 c 0.701,0 1.269,-0.568 1.269,-1.269 v -0.457 c 0,-0.7 -0.567,-1.269 -1.269,-1.269 -0.7,0 -1.268,0.568 -1.268,1.269 v 0.457 c 10e-4,0.701 0.568,1.269 1.268,1.269 z"
       id="path84" /></g><g
     id="g142"
     transform="translate(-18.195,-6.724)"
     style="fill:#5d5d5d"><path
       d="M 38.462,37.178 H 52.13 c 0.51,0 0.969,-0.305 1.168,-0.773 l 2.678,-6.342 c 0.164,-0.393 0.123,-0.84 -0.111,-1.195 -0.236,-0.354 -0.633,-0.566 -1.057,-0.566 H 35.786 c -0.426,0 -0.822,0.213 -1.057,0.566 -0.235,0.355 -0.278,0.803 -0.112,1.195 l 2.677,6.34 c 0.198,0.47 0.658,0.775 1.168,0.775 z m 14.434,-6.34 -1.607,3.803 H 39.303 l -1.606,-3.803 z"
       id="path88"
       style="fill:#5d5d5d" /><path
       d="m 54.637,57.193 c -0.129,-0.58 -0.645,-0.994 -1.238,-0.994 H 36.771 c -0.625,0 -1.157,0.457 -1.253,1.074 l -0.986,6.34 c -0.057,0.367 0.049,0.74 0.29,1.02 0.241,0.283 0.593,0.443 0.964,0.443 h 19.023 c 0.385,0 0.748,-0.174 0.988,-0.475 0.24,-0.299 0.332,-0.691 0.248,-1.068 z m -17.371,5.348 0.591,-3.805 h 14.524 l 0.846,3.805 z"
       id="path90"
       style="fill:#5d5d5d" /><path
       d="m 59.439,69.898 0.039,-0.449 c 0.232,0.256 0.562,0.418 0.936,0.418 0.699,0 1.268,-0.566 1.268,-1.268 v -7.326 c 0,-0.701 -0.568,-1.27 -1.268,-1.27 -0.043,0 -0.082,0.008 -0.123,0.014 l 0.422,-4.895 c 0.117,-1.357 0.172,-3.572 0.123,-4.939 L 60.324,36.109 61.48,36.64 c 0.17,0.078 0.35,0.115 0.527,0.115 0.48,0 0.939,-0.273 1.154,-0.738 0.291,-0.637 0.012,-1.391 -0.623,-1.682 l -2.316,-1.064 -0.033,-0.906 c 0.072,0.012 0.148,0.021 0.225,0.021 0.699,0 1.268,-0.566 1.268,-1.268 v -7.326 c 0,-0.701 -0.568,-1.27 -1.268,-1.27 -0.209,0 -0.402,0.057 -0.578,0.145 l -0.055,-1.553 c -0.096,-2.6 -3.508,-4.561 -7.941,-4.561 H 38.75 c -3.863,0 -7.823,1.324 -7.915,3.855 l -0.081,2.258 c -0.174,-0.088 -0.368,-0.145 -0.576,-0.145 -0.7,0 -1.268,0.568 -1.268,1.27 v 7.326 c 0,0.701 0.567,1.268 1.268,1.268 0.077,0 0.151,-0.01 0.224,-0.021 l -0.032,0.906 -2.315,1.064 c -0.636,0.293 -0.915,1.045 -0.622,1.682 0.214,0.465 0.673,0.738 1.153,0.738 0.177,0 0.356,-0.037 0.528,-0.115 l 1.152,-0.531 -0.51,14.076 c -0.05,1.365 0.005,3.58 0.122,4.938 l 0.422,4.895 c -0.041,-0.006 -0.08,-0.014 -0.122,-0.014 -0.7,0 -1.268,0.568 -1.268,1.27 V 68.6 c 0,0.701 0.567,1.268 1.268,1.268 0.372,0 0.703,-0.162 0.935,-0.418 l 0.039,0.449 c 0.169,1.957 1.903,3.547 3.865,3.547 h 9.863 c 0.146,0 0.284,-0.029 0.415,-0.074 0.131,0.045 0.269,0.074 0.416,0.074 h 9.863 c 1.961,-0.001 3.696,-1.591 3.865,-3.548 z M 58.301,50.277 c 0.023,0.621 0.021,1.451 0.002,2.285 l -2.227,-2.273 v -8.02 l 1.857,-2.104 z M 32.29,52.562 c -0.02,-0.834 -0.021,-1.664 10e-4,-2.285 l 0.366,-10.111 1.86,2.104 v 8.02 z M 55.574,70.91 H 50.97 c 0.025,-0.098 0.041,-0.197 0.041,-0.303 0,-0.699 -0.568,-1.268 -1.268,-1.268 h -8.895 c -0.701,0 -1.269,0.568 -1.269,1.268 0,0.105 0.017,0.205 0.041,0.303 h -4.604 c -0.656,0 -1.282,-0.574 -1.338,-1.229 l -1.182,-13.707 4.193,-4.281 c 0.232,-0.236 0.362,-0.555 0.362,-0.887 v -9.018 c 0,-0.311 -0.113,-0.609 -0.317,-0.84 L 33.031,36.76 c -0.073,-0.084 -0.157,-0.15 -0.244,-0.209 l 0.487,-13.416 0.087,-2.59 c 0.103,-0.254 0.914,-0.773 2.345,-1.117 -0.02,0.09 -0.032,0.182 -0.032,0.277 0,0.699 0.567,1.268 1.269,1.268 h 1.064 c 0.699,0 1.268,-0.568 1.268,-1.268 0,-0.225 -0.063,-0.434 -0.166,-0.615 h 12.373 c -0.104,0.182 -0.166,0.391 -0.166,0.615 0,0.699 0.566,1.268 1.268,1.268 h 1.064 c 0.701,0 1.268,-0.568 1.268,-1.268 0,-0.064 -0.01,-0.123 -0.018,-0.184 1.451,0.445 2.328,1.15 2.348,1.684 l 0.121,3.338 0.438,12.031 c -0.084,0.057 -0.176,0.105 -0.244,0.186 l -3.703,4.188 c -0.205,0.232 -0.318,0.529 -0.318,0.84 v 9.018 c 0,0.332 0.131,0.65 0.363,0.887 l 4.191,4.281 -1.182,13.707 c -0.057,0.655 -0.682,1.229 -1.338,1.229 z"
       id="path92"
       style="fill:#5d5d5d" /><path
       d="m 70.535,78.627 c -0.699,0 -1.268,0.566 -1.268,1.268 v 0.846 h -0.846 c -0.699,0 -1.268,0.568 -1.268,1.268 0,0.7 0.568,1.268 1.268,1.268 h 2.113 c 0.701,0 1.27,-0.568 1.27,-1.268 v -2.113 c 0.001,-0.703 -0.568,-1.269 -1.269,-1.269 z"
       id="path94"
       style="fill:#5d5d5d" /><path
       d="m 52.24,80.74 h -4.26 c -0.699,0 -1.268,0.568 -1.268,1.268 0,0.7 0.568,1.268 1.268,1.268 h 4.26 c 0.699,0 1.268,-0.568 1.268,-1.268 0,-0.7 -0.569,-1.268 -1.268,-1.268 z"
       id="path96"
       style="fill:#5d5d5d" /><path
       d="M 31.797,80.74 H 27.54 c -0.7,0 -1.269,0.568 -1.269,1.268 0,0.7 0.568,1.268 1.269,1.268 h 4.258 c 0.701,0 1.269,-0.568 1.269,-1.268 0,-0.7 -0.568,-1.268 -1.27,-1.268 z"
       id="path98"
       style="fill:#5d5d5d" /><path
       d="M 42.019,80.74 H 37.76 c -0.701,0 -1.269,0.568 -1.269,1.268 0,0.7 0.567,1.268 1.269,1.268 h 4.259 c 0.7,0 1.268,-0.568 1.268,-1.268 0,-0.7 -0.568,-1.268 -1.268,-1.268 z"
       id="path100"
       style="fill:#5d5d5d" /><path
       d="m 62.461,80.74 h -4.26 c -0.699,0 -1.268,0.568 -1.268,1.268 0,0.7 0.568,1.268 1.268,1.268 h 4.26 c 0.699,0 1.268,-0.568 1.268,-1.268 0,-0.7 -0.569,-1.268 -1.268,-1.268 z"
       id="path102"
       style="fill:#5d5d5d" /><path
       d="m 21.578,80.74 h -0.846 v -0.846 c 0,-0.701 -0.567,-1.268 -1.269,-1.268 -0.699,0 -1.268,0.566 -1.268,1.268 v 2.113 c 0,0.699 0.568,1.268 1.268,1.268 h 2.114 c 0.7,0 1.268,-0.568 1.268,-1.268 0,-0.7 -0.567,-1.267 -1.267,-1.267 z"
       id="path104"
       style="fill:#5d5d5d" /><path
       d="m 19.463,21.975 c 0.701,0 1.269,-0.568 1.269,-1.268 v -4.418 c 0,-0.699 -0.567,-1.268 -1.269,-1.268 -0.699,0 -1.268,0.568 -1.268,1.268 v 4.418 c 0.001,0.699 0.569,1.268 1.268,1.268 z"
       id="path106"
       style="fill:#5d5d5d" /><path
       d="m 19.463,53.777 c 0.701,0 1.269,-0.568 1.269,-1.27 v -4.416 c 0,-0.701 -0.567,-1.268 -1.269,-1.268 -0.699,0 -1.268,0.566 -1.268,1.268 v 4.416 c 0.001,0.702 0.569,1.27 1.268,1.27 z"
       id="path108"
       style="fill:#5d5d5d" /><path
       d="m 19.463,64.377 c 0.701,0 1.269,-0.566 1.269,-1.268 v -4.416 c 0,-0.701 -0.567,-1.27 -1.269,-1.27 -0.699,0 -1.268,0.568 -1.268,1.27 v 4.416 c 0.001,0.702 0.569,1.268 1.268,1.268 z"
       id="path110"
       style="fill:#5d5d5d" /><path
       d="m 19.463,43.176 c 0.701,0 1.269,-0.568 1.269,-1.268 v -4.416 c 0,-0.701 -0.567,-1.27 -1.269,-1.27 -0.699,0 -1.268,0.568 -1.268,1.27 v 4.416 c 0.001,0.699 0.569,1.268 1.268,1.268 z"
       id="path112"
       style="fill:#5d5d5d" /><path
       d="m 19.463,74.979 c 0.701,0 1.269,-0.568 1.269,-1.268 v -4.418 c 0,-0.699 -0.567,-1.268 -1.269,-1.268 -0.699,0 -1.268,0.568 -1.268,1.268 v 4.418 c 0.001,0.699 0.569,1.268 1.268,1.268 z"
       id="path114"
       style="fill:#5d5d5d" /><path
       d="m 19.463,32.576 c 0.701,0 1.269,-0.568 1.269,-1.268 V 26.89 c 0,-0.699 -0.567,-1.268 -1.269,-1.268 -0.699,0 -1.268,0.568 -1.268,1.268 v 4.418 c 0.001,0.7 0.569,1.268 1.268,1.268 z"
       id="path116"
       style="fill:#5d5d5d" /><path
       d="m 21.578,6.725 h -2.114 c -0.699,0 -1.268,0.568 -1.268,1.268 v 2.113 c 0,0.701 0.568,1.27 1.268,1.27 0.701,0 1.269,-0.568 1.269,-1.27 V 9.26 h 0.846 c 0.7,0 1.268,-0.566 1.268,-1.268 C 22.845,7.293 22.278,6.725 21.578,6.725 Z"
       id="path118"
       style="fill:#5d5d5d" /><path
       d="m 47.982,9.26 h 4.258 c 0.699,0 1.268,-0.566 1.268,-1.268 0,-0.699 -0.568,-1.268 -1.268,-1.268 h -4.258 c -0.701,0 -1.27,0.568 -1.27,1.268 10e-4,0.701 0.569,1.268 1.27,1.268 z"
       id="path120"
       style="fill:#5d5d5d" /><path
       d="m 62.461,6.725 h -4.26 c -0.699,0 -1.268,0.568 -1.268,1.268 0,0.701 0.568,1.268 1.268,1.268 h 4.26 c 0.701,0 1.268,-0.566 1.268,-1.268 0,-0.7 -0.567,-1.268 -1.268,-1.268 z"
       id="path122"
       style="fill:#5d5d5d" /><path
       d="m 37.76,9.26 h 4.259 c 0.7,0 1.268,-0.566 1.268,-1.268 0,-0.699 -0.567,-1.268 -1.268,-1.268 H 37.76 c -0.7,0 -1.269,0.568 -1.269,1.268 10e-4,0.701 0.569,1.268 1.269,1.268 z"
       id="path124"
       style="fill:#5d5d5d" /><path
       d="m 27.54,9.26 h 4.259 c 0.7,0 1.269,-0.566 1.269,-1.268 0,-0.699 -0.568,-1.268 -1.269,-1.268 H 27.54 c -0.7,0 -1.268,0.568 -1.268,1.268 0,0.701 0.567,1.268 1.268,1.268 z"
       id="path126"
       style="fill:#5d5d5d" /><path
       d="m 70.535,6.725 h -2.113 c -0.699,0 -1.268,0.568 -1.268,1.268 0,0.701 0.568,1.268 1.268,1.268 h 0.846 v 0.846 c 0,0.701 0.568,1.27 1.268,1.27 0.701,0 1.27,-0.568 1.27,-1.27 V 7.992 C 71.805,7.293 71.236,6.725 70.535,6.725 Z"
       id="path128"
       style="fill:#5d5d5d" /><path
       d="m 70.535,46.824 c -0.699,0 -1.268,0.568 -1.268,1.268 v 4.416 c 0,0.701 0.568,1.27 1.268,1.27 0.701,0 1.27,-0.568 1.27,-1.27 v -4.416 c 0,-0.699 -0.569,-1.268 -1.27,-1.268 z"
       id="path130"
       style="fill:#5d5d5d" /><path
       d="m 70.535,25.623 c -0.699,0 -1.268,0.568 -1.268,1.268 v 4.418 c 0,0.699 0.568,1.268 1.268,1.268 0.701,0 1.27,-0.568 1.27,-1.268 v -4.418 c 0,-0.7 -0.569,-1.268 -1.27,-1.268 z"
       id="path132"
       style="fill:#5d5d5d" /><path
       d="m 70.535,15.021 c -0.699,0 -1.268,0.568 -1.268,1.268 v 4.418 c 0,0.699 0.568,1.268 1.268,1.268 0.701,0 1.27,-0.568 1.27,-1.268 v -4.418 c 0,-0.699 -0.569,-1.268 -1.27,-1.268 z"
       id="path134"
       style="fill:#5d5d5d" /><path
       d="m 70.535,57.424 c -0.699,0 -1.268,0.568 -1.268,1.27 v 4.416 c 0,0.701 0.568,1.268 1.268,1.268 0.701,0 1.27,-0.566 1.27,-1.268 v -4.416 c 0,-0.702 -0.569,-1.27 -1.27,-1.27 z"
       id="path136"
       style="fill:#5d5d5d" /><path
       d="m 70.535,68.025 c -0.699,0 -1.268,0.568 -1.268,1.268 v 4.418 c 0,0.699 0.568,1.268 1.268,1.268 0.701,0 1.27,-0.568 1.27,-1.268 v -4.418 c 0,-0.699 -0.569,-1.268 -1.27,-1.268 z"
       id="path138"
       style="fill:#5d5d5d" /><path
       d="m 70.535,36.223 c -0.699,0 -1.268,0.568 -1.268,1.27 v 4.416 c 0,0.701 0.568,1.268 1.268,1.268 0.701,0 1.27,-0.566 1.27,-1.268 v -4.416 c 0,-0.702 -0.569,-1.27 -1.27,-1.27 z"
       id="path140"
       style="fill:#5d5d5d" /></g><path
     d="m -296.364,-26.439 -8.286,0.134 c -0.7,0.012 -1.259,0.588 -1.247,1.289 0.012,0.7 0.578,1.236 1.288,1.247 l 5.188,-0.084 -11.204,11.204 c -0.495,0.495 -0.495,1.299 0,1.793 0.248,0.248 0.572,0.372 0.896,0.372 0.324,0 0.649,-0.124 0.896,-0.372 l 11.115,-11.114 -0.164,4.907 c -0.023,0.7 0.525,1.286 1.226,1.31 0.015,0 0.028,10e-4 0.043,10e-4 0.681,0 1.244,-0.541 1.267,-1.227 l 0.271,-8.15 c 0.011,-0.347 -0.12,-0.684 -0.363,-0.931 -0.245,-0.247 -0.553,-0.367 -0.926,-0.379 z"
     id="path144" /><path
     d="m -315.511,-7.371 h -25.015 v -5.379 c 0,-0.7 -0.567,-1.268 -1.268,-1.268 h -21.236 c -0.701,0 -1.268,0.567 -1.268,1.268 v 31.976 c 0,0.701 0.567,1.269 1.268,1.269 h 6.375 c 0.701,0 1.268,-0.567 1.268,-1.269 0,-0.7 -0.567,-1.268 -1.268,-1.268 h -5.107 v -10.3 h 2.173 c 0.701,0 1.269,-0.568 1.269,-1.268 0,-0.701 -0.568,-1.27 -1.269,-1.27 h -2.173 v -16.602 h 18.7 v 5.378 2.597 c 0,0.7 0.567,1.269 1.268,1.269 0.701,0 1.268,-0.568 1.268,-1.269 v -1.327 h 23.747 v 22.793 h -23.747 v -2.174 c 0,-0.7 -0.567,-1.268 -1.268,-1.268 -0.701,0 -1.268,0.567 -1.268,1.268 v 2.174 h -5.343 c -0.701,0 -1.268,0.567 -1.268,1.268 0,0.701 0.567,1.269 1.268,1.269 h 32.895 c 0.699,0 1.268,-0.567 1.268,-1.269 V -6.104 c -10e-4,-0.699 -0.57,-1.267 -1.269,-1.267 z"
     id="path146" /><path
     d="m -343.062,10.468 c 0,0.701 0.567,1.269 1.268,1.269 0.701,0 1.268,-0.567 1.268,-1.269 V 1.812 c 0,-0.7 -0.567,-1.268 -1.268,-1.268 -0.701,0 -1.268,0.567 -1.268,1.268 v 3.309 h -11.275 c -0.701,0 -1.268,0.568 -1.268,1.27 0,0.699 0.567,1.268 1.268,1.268 h 11.275 z"
     id="path148" /><path
     d="m -307.618,17.959 h -2.111 c -0.7,0 -1.268,0.567 -1.268,1.268 0,0.701 0.567,1.269 1.268,1.269 h 2.111 c 0.701,0 1.268,-0.567 1.268,-1.269 -10e-4,-0.701 -0.567,-1.268 -1.268,-1.268 z"
     id="path150" /><path
     d="m -297.2,17.959 h -4.34 c -0.701,0 -1.27,0.567 -1.27,1.268 0,0.701 0.568,1.269 1.27,1.269 h 4.34 c 0.699,0 1.268,-0.567 1.268,-1.269 -10e-4,-0.701 -0.569,-1.268 -1.268,-1.268 z"
     id="path152" /><path
     d="m -289.015,15.845 c -0.7,0 -1.268,0.567 -1.268,1.268 v 0.846 h -0.844 c -0.7,0 -1.268,0.567 -1.268,1.268 0,0.701 0.567,1.269 1.268,1.269 h 2.111 c 0.701,0 1.268,-0.567 1.268,-1.269 v -2.113 c 10e-4,-0.701 -0.566,-1.269 -1.267,-1.269 z"
     id="path154" /><path
     d="m -289.015,-25.761 c -0.7,0 -1.268,0.567 -1.268,1.268 v 4.334 c 0,0.701 0.567,1.269 1.268,1.269 0.701,0 1.268,-0.567 1.268,-1.269 v -4.334 c 0,-0.701 -0.567,-1.268 -1.268,-1.268 z"
     id="path156" /><path
     d="m -289.015,5.443 c -0.7,0 -1.268,0.568 -1.268,1.269 v 4.334 c 0,0.7 0.567,1.269 1.268,1.269 0.701,0 1.268,-0.568 1.268,-1.269 V 6.712 c 0,-0.701 -0.567,-1.269 -1.268,-1.269 z"
     id="path158" /><path
     d="m -289.015,-15.36 c -0.7,0 -1.268,0.567 -1.268,1.269 v 4.334 c 0,0.7 0.567,1.269 1.268,1.269 0.701,0 1.268,-0.568 1.268,-1.269 v -4.334 c 0,-0.701 -0.567,-1.269 -1.268,-1.269 z"
     id="path160" /><path
     d="m -289.015,-4.957 c -0.7,0 -1.268,0.566 -1.268,1.268 v 4.334 c 0,0.701 0.567,1.268 1.268,1.268 0.701,0 1.268,-0.566 1.268,-1.268 V -3.69 c 0,-0.701 -0.567,-1.267 -1.268,-1.267 z"
     id="path162" /><path
     d="m -289.015,-33.943 h -2.113 c -0.701,0 -1.269,0.567 -1.269,1.269 0,0.7 0.567,1.268 1.269,1.268 h 0.846 v 0.846 c 0,0.7 0.567,1.269 1.268,1.269 0.701,0 1.268,-0.568 1.268,-1.269 v -2.113 c -0.001,-0.702 -0.568,-1.27 -1.269,-1.27 z"
     id="path164" /><path
     d="m -333.531,-31.407 h 4.417 c 0.701,0 1.269,-0.567 1.269,-1.268 0,-0.701 -0.568,-1.269 -1.269,-1.269 h -4.417 c -0.701,0 -1.268,0.567 -1.268,1.269 0,0.701 0.567,1.268 1.268,1.268 z"
     id="path166" /><path
     d="m -322.931,-31.407 h 4.417 c 0.7,0 1.269,-0.567 1.269,-1.268 0,-0.701 -0.568,-1.269 -1.269,-1.269 h -4.417 c -0.701,0 -1.268,0.567 -1.268,1.269 0.001,0.701 0.567,1.268 1.268,1.268 z"
     id="path168" /><path
     d="m -301.73,-31.407 h 4.418 c 0.7,0 1.268,-0.567 1.268,-1.268 0,-0.701 -0.567,-1.269 -1.268,-1.269 h -4.418 c -0.7,0 -1.268,0.567 -1.268,1.269 10e-4,0.701 0.568,1.268 1.268,1.268 z"
     id="path170" /><path
     d="m -354.733,-31.407 h 4.417 c 0.701,0 1.268,-0.567 1.268,-1.268 0,-0.701 -0.567,-1.269 -1.268,-1.269 h -4.417 c -0.701,0 -1.268,0.567 -1.268,1.269 0,0.701 0.567,1.268 1.268,1.268 z"
     id="path172" /><path
     d="m -344.132,-31.407 h 4.417 c 0.7,0 1.268,-0.567 1.268,-1.268 0,-0.701 -0.568,-1.269 -1.268,-1.269 h -4.417 c -0.701,0 -1.269,0.567 -1.269,1.269 0,0.701 0.568,1.268 1.269,1.268 z"
     id="path174" /><path
     d="m -306.645,-32.674 c 0,-0.701 -0.567,-1.269 -1.269,-1.269 h -4.417 c -0.7,0 -1.269,0.567 -1.269,1.269 0,0.7 0.568,1.268 1.269,1.268 h 4.417 c 0.702,-0.001 1.269,-0.568 1.269,-1.268 z"
     id="path176" /><path
     d="m -363.03,-29.292 c 0.701,0 1.268,-0.568 1.268,-1.269 v -0.846 h 0.846 c 0.7,0 1.268,-0.567 1.268,-1.268 0,-0.701 -0.568,-1.269 -1.268,-1.269 h -2.114 c -0.701,0 -1.268,0.567 -1.268,1.269 v 2.113 c -10e-4,0.701 0.567,1.27 1.268,1.27 z"
     id="path178" /><path
     d="m -363.03,-22.077 c 0.701,0 1.268,-0.567 1.268,-1.268 v -3.007 c 0,-0.701 -0.567,-1.269 -1.268,-1.269 -0.701,0 -1.268,0.567 -1.268,1.269 v 3.007 c -10e-4,0.701 0.567,1.268 1.268,1.268 z"
     id="path180" /><path
     d="m -363.03,-15.752 c 0.701,0 1.268,-0.568 1.268,-1.269 v -2.113 c 0,-0.701 -0.567,-1.269 -1.268,-1.269 -0.701,0 -1.268,0.567 -1.268,1.269 v 2.113 c -10e-4,0.7 0.567,1.269 1.268,1.269 z"
     id="path182" /><g
     id="g188"
     transform="translate(-18.195,-6.724)"><path
       d="m 160.744,271.663 c 0.702,0 1.269,-0.566 1.269,-1.268 v -0.668 c 0,-0.702 -0.566,-1.269 -1.269,-1.269 -0.693,0 -1.269,0.566 -1.269,1.269 v 0.668 c 0.001,0.702 0.576,1.268 1.269,1.268 z"
       id="path184" /><path
       d="m 187.163,241.516 h -73.982 c -0.702,0 -1.269,0.566 -1.269,1.268 v 52.764 c 0,0.702 0.566,1.268 1.269,1.268 h 73.982 c 0.702,0 1.269,-0.565 1.269,-1.268 v -52.764 c 0,-0.702 -0.567,-1.268 -1.269,-1.268 z m -1.267,52.762 h -71.447 v -23.697 h 3.246 v 7.88 3.575 8.159 c 0,0.701 0.566,1.268 1.269,1.268 h 7.313 2.553 7.094 2.68 2.52 1.767 2.528 2.68 4.929 7.693 8.725 2.57 0.431 0.863 1.817 5.377 0.879 c 0.702,0 1.269,-0.566 1.269,-1.268 v -0.287 -40.505 -1.269 c 0,-0.701 -0.566,-1.268 -1.269,-1.268 h -62.418 c -0.702,0 -1.269,0.566 -1.269,1.268 v 19.91 h -3.246 v -23.993 h 71.447 v 50.227 z m -62.85,-21.135 c 0.702,0 1.269,-0.566 1.269,-1.268 v -5.318 c 0,-0.701 -0.566,-1.268 -1.269,-1.268 -0.701,0 -1.268,0.566 -1.268,1.268 v 1.488 h -1.547 v -11.422 c 1.682,0.77 4.312,1.142 7.194,-1.563 0.693,0.828 3.179,3.491 6.806,3.711 0.16,0.009 0.321,0.017 0.482,0.017 2.35,0 4.649,-1.048 6.855,-3.127 1.26,0.473 3.086,0.423 4.692,-0.212 2.554,-1.015 3.94,-3.213 3.839,-6.045 h 30.012 v 33.065 l -1.098,-3.23 c -0.178,-0.516 -0.66,-0.854 -1.201,-0.854 -0.541,0 -1.031,0.338 -1.201,0.854 l -2.282,6.688 c -0.161,-0.093 -0.329,-0.178 -0.49,-0.263 -1.015,-0.549 -2.055,-1.09 -3.103,-1.589 -0.711,-1.648 -1.691,-3.297 -2.807,-4.616 v -17.965 c 0,-0.702 -0.566,-1.269 -1.269,-1.269 h -4.642 v -4.911 c 0.363,0.27 0.566,0.71 0.846,1.318 0.516,1.133 1.293,2.849 3.805,2.849 0.693,0 1.268,-0.566 1.268,-1.268 0,-0.702 -0.574,-1.269 -1.268,-1.269 -0.846,0 -1.006,-0.287 -1.506,-1.361 -0.566,-1.251 -1.42,-3.127 -4.412,-3.127 -0.702,0 -1.269,0.566 -1.269,1.268 v 6.501 h -4.413 c -0.701,0 -1.268,0.566 -1.268,1.269 v 6.873 h -20.722 c -0.702,0 -1.269,0.566 -1.269,1.268 v 12.149 c -1.539,0.735 -3.035,1.599 -4.473,2.562 -1.725,-3.821 -4.599,-6.958 -6.957,-6.958 -0.051,0 -0.102,0.009 -0.152,0.018 v -6.823 h 1.547 v 1.294 c 0.003,0.699 0.57,1.266 1.271,1.266 z m -2.815,-19.445 v -4.295 h 27.332 c 0,0.008 0,0.018 0,0.025 0.085,1.623 -0.532,2.79 -1.817,3.466 -1.505,0.795 -3.153,0.55 -3.415,0.355 -0.237,-0.279 -0.575,-0.439 -0.93,-0.447 -0.364,-0.034 -0.711,0.134 -0.956,0.396 -2.021,2.13 -4.05,3.146 -6.044,3.044 -3.01,-0.17 -5.107,-2.908 -5.124,-2.934 -0.042,-0.052 -0.085,-0.102 -0.136,-0.144 l -0.846,-0.829 c -0.244,-0.245 -0.592,-0.38 -0.938,-0.363 -0.347,0.017 -0.677,0.178 -0.904,0.439 -2.08,2.409 -4.041,2.874 -6.003,1.412 -0.066,-0.049 -0.142,-0.091 -0.219,-0.125 z m 59.409,35.229 h -3.652 l 1.826,-5.352 z m -6.147,-0.558 -0.186,0.558 h -1.277 c -0.059,-0.516 -0.135,-1.015 -0.229,-1.496 0.287,0.152 0.566,0.304 0.854,0.465 0.28,0.152 0.559,0.313 0.838,0.473 z m -28.98,-7.397 c 4.116,-0.338 8.471,0.018 12.984,1.064 -1.166,2.056 -2.062,4.498 -2.308,6.891 h -7.964 z m 0.033,7.955 h -5.081 l 2.545,-7.447 z m -0.871,-10.424 -0.465,-1.361 -0.033,-0.067 -0.06,-0.127 -0.06,-0.102 -0.076,-0.102 -0.084,-0.084 -0.085,-0.085 -0.102,-0.076 -0.11,-0.067 -0.109,-0.051 -0.076,-0.033 -0.042,-0.009 -0.118,-0.025 -0.127,-0.025 h -0.11 -0.136 l -0.109,0.017 -0.144,0.034 -0.034,0.009 -0.067,0.033 -0.118,0.06 -0.102,0.059 -0.102,0.076 -0.093,0.076 -0.085,0.093 -0.067,0.102 -0.067,0.102 -0.059,0.127 -0.026,0.067 -0.642,1.877 c -1.996,0.397 -3.94,0.955 -5.816,1.683 v -9.799 h 3.719 l -0.017,0.152 v 0.677 c 0,0.701 0.566,1.268 1.269,1.268 0.701,0 1.268,-0.566 1.268,-1.268 v -0.677 l -0.017,-0.152 h 2.866 l -0.009,0.152 v 0.677 c 0,0.701 0.566,1.268 1.269,1.268 0.693,0 1.268,-0.566 1.268,-1.268 v -0.677 l -0.017,-0.152 h 2.866 l -0.018,0.152 v 0.677 c 0,0.701 0.575,1.268 1.269,1.268 0.702,0 1.269,-0.566 1.269,-1.268 v -0.677 l -0.009,-0.152 h 3.745 c 0.701,0 1.268,-0.566 1.268,-1.269 v -6.873 h 3.18 c -0.025,0.094 -0.043,0.195 -0.043,0.297 v 0.668 c 0,0.701 0.575,1.268 1.269,1.268 0.702,0 1.269,-0.566 1.269,-1.268 v -0.668 c 0,-0.102 -0.009,-0.203 -0.035,-0.297 h 3.416 v 14.525 c -0.583,-0.313 -1.166,-0.49 -1.732,-0.49 h -0.034 c -1.563,0 -3.035,1.225 -3.991,2.257 -0.211,0.236 -0.414,0.481 -0.625,0.744 -5.346,-1.338 -10.495,-1.778 -15.339,-1.296 z m -4.464,3.322 -2.427,7.102 h -8.082 c -0.109,-0.71 -0.254,-1.429 -0.465,-2.139 3.373,-2.342 7.06,-4.007 10.974,-4.963 z m 22.294,-1.048 c 0.989,-1.074 1.758,-1.445 2.131,-1.445 h 0.008 c 0.998,0 3.458,2.442 4.92,6.138 0.482,1.2 0.778,2.366 0.914,3.457 h -11.734 c 0.38,-3.069 2.054,-6.298 3.761,-8.15 z M 120.4,279.923 c 1.454,0 4.946,4.389 5.749,9.004 h -5.918 v -8.979 c 0.059,-0.008 0.119,-0.025 0.169,-0.025 z"
       id="path186" /></g><g
     id="g202"
     transform="translate(-18.195,-6.724)"><path
       d="m 324.962,-67.165 h -2.651 c 0.525,-0.671 1.184,-1.104 1.829,-1.524 0.927,-0.606 2.08,-1.357 2.033,-2.744 0.032,-1.077 -0.252,-1.891 -0.87,-2.487 -1.035,-1 -2.713,-1.107 -5.092,-0.956 -0.698,0.045 -1.229,0.647 -1.185,1.346 0.046,0.7 0.646,1.237 1.347,1.186 2.372,-0.151 3.005,0.09 3.167,0.248 0.069,0.067 0.106,0.292 0.114,0.603 -0.084,0.147 -0.556,0.456 -0.9,0.681 -1.146,0.748 -2.86,1.879 -3.629,4.422 -0.002,0.005 -0.004,0.01 -0.005,0.015 -0.015,0.05 -0.035,0.089 -0.049,0.141 -0.004,0.013 -0.004,0.024 -0.007,0.038 -0.011,0.044 -0.018,0.089 -0.023,0.134 -0.005,0.043 -0.011,0.084 -0.013,0.127 0,0.013 -0.004,0.028 -0.004,0.041 0,0.026 0.006,0.05 0.007,0.074 0.003,0.047 0.007,0.093 0.015,0.138 0.006,0.039 0.016,0.075 0.026,0.113 0.011,0.042 0.022,0.081 0.037,0.121 0.014,0.039 0.031,0.075 0.05,0.112 0.018,0.036 0.036,0.07 0.058,0.105 0.021,0.034 0.044,0.067 0.069,0.099 0.024,0.033 0.049,0.066 0.077,0.096 0.027,0.03 0.057,0.057 0.086,0.083 0.031,0.028 0.062,0.055 0.096,0.079 0.034,0.024 0.069,0.046 0.105,0.067 0.034,0.021 0.067,0.04 0.103,0.057 0.043,0.02 0.088,0.036 0.132,0.051 0.023,0.009 0.043,0.021 0.066,0.026 0.01,0.002 0.021,0.002 0.03,0.004 0.101,0.026 0.203,0.043 0.311,0.043 h 4.67 c 0.7,0 1.269,-0.568 1.269,-1.269 0,-0.701 -0.569,-1.27 -1.269,-1.27 z"
       id="path190" /><path
       d="m 333.954,-71.061 c -0.7,0 -1.268,0.568 -1.268,1.268 v 0.174 l -1.452,0.008 1.262,-3.579 c 0.232,-0.661 -0.114,-1.384 -0.775,-1.617 -0.659,-0.23 -1.385,0.114 -1.618,0.774 l -1.858,5.274 c -0.137,0.388 -0.075,0.819 0.163,1.156 0.237,0.335 0.623,0.533 1.033,0.533 0.001,0 0.003,0 0.005,0 l 3.241,-0.016 v 1.149 c 0,0.7 0.567,1.269 1.268,1.269 0.701,0 1.269,-0.568 1.269,-1.269 v -3.857 c -10e-4,-0.698 -0.57,-1.267 -1.27,-1.267 z"
       id="path192" /><path
       d="m 354.893,-74.92 h -5.337 c -0.699,0 -1.268,0.568 -1.268,1.269 0,0.701 0.568,1.268 1.268,1.268 h 2.918 l -3.96,5.727 c -0.399,0.576 -0.255,1.367 0.321,1.766 0.22,0.151 0.471,0.225 0.721,0.225 0.401,0 0.797,-0.19 1.043,-0.547 l 5.337,-7.716 c 0.269,-0.389 0.3,-0.892 0.08,-1.31 -0.219,-0.419 -0.652,-0.682 -1.123,-0.682 z"
       id="path194" /><path
       d="m 345.189,-77.517 c -0.65,-0.271 -1.391,0.038 -1.658,0.685 l -5.469,13.184 c -0.269,0.647 0.039,1.389 0.686,1.658 0.159,0.065 0.323,0.096 0.485,0.096 0.498,0 0.97,-0.294 1.173,-0.781 l 5.469,-13.184 c 0.268,-0.648 -0.039,-1.39 -0.686,-1.658 z"
       id="path196" /><path
       d="m 339.144,-93.42 c -1.096,0 -1.987,0.892 -1.987,1.988 0,1.096 0.892,1.988 1.987,1.988 1.095,0 1.987,-0.892 1.987,-1.988 0,-1.096 -0.892,-1.988 -1.987,-1.988 z m 0,2.536 c -0.303,0 -0.549,-0.246 -0.549,-0.548 0,-0.303 0.246,-0.549 0.549,-0.549 0.303,0 0.549,0.246 0.549,0.549 -10e-4,0.302 -0.247,0.548 -0.549,0.548 z"
       id="path198" /><path
       d="m 358.193,-118.652 c -0.162,-0.076 -0.333,-0.125 -0.509,-0.16 1.275,-1.561 1.95,-3.602 1.858,-5.067 -0.094,-1.473 -0.886,-2.062 -1.35,-2.284 -0.62,-0.292 -1.336,-0.28 -2.133,0.026 v -6.478 c 0,-2.021 -1.645,-3.666 -3.665,-3.666 H 325.89 c -2.021,0 -3.665,1.646 -3.665,3.666 v 16.207 l -9.186,11.729 c -0.095,0.12 -0.167,0.258 -0.212,0.404 -0.149,0.479 -3.625,11.785 -3.07,24.083 l -4.026,9.226 c -0.279,0.643 0.014,1.391 0.655,1.67 0.166,0.072 0.337,0.105 0.507,0.105 0.488,0 0.955,-0.284 1.163,-0.762 l 4.145,-9.497 c 0.078,-0.179 0.114,-0.375 0.104,-0.57 -0.556,-11.043 2.4,-21.652 2.879,-23.285 l 7.042,-8.991 v 3.679 l -0.752,0.251 c -0.665,0.222 -1.023,0.938 -0.803,1.604 0.222,0.664 0.938,1.024 1.604,0.803 l 17.124,-5.7 c 0.552,1.659 1.23,3.946 -12.498,10.332 -0.325,0.151 -0.571,0.435 -0.677,0.777 -0.106,0.342 -0.062,0.715 0.123,1.022 0.897,1.503 1.496,2.95 1.865,4.333 0.014,0.139 0.043,0.271 0.097,0.393 0.606,2.536 0.446,4.832 -0.061,6.786 -0.071,0.145 -0.114,0.301 -0.127,0.468 -1.042,3.542 -3.157,5.867 -3.581,6.306 -0.486,0.506 -0.472,1.309 0.033,1.794 0.246,0.237 0.562,0.354 0.88,0.354 0.332,0 0.664,-0.129 0.913,-0.388 0.47,-0.487 2.705,-2.946 3.985,-6.704 h 14.706 c -2.309,3.844 -5.587,6.301 -8.034,7.704 -0.608,0.349 -0.817,1.123 -0.47,1.73 0.234,0.41 0.662,0.638 1.101,0.638 0.214,0 0.432,-0.053 0.631,-0.167 2.953,-1.692 7.018,-4.757 9.609,-9.742 0.027,-0.053 0.046,-0.108 0.064,-0.163 h 4.436 c 2.021,0 3.665,-1.643 3.665,-3.664 v -13.16 c 0.014,-0.009 0.028,-0.01 0.043,-0.02 2.286,-1.462 3.564,-4.515 3.439,-6.505 -0.094,-1.473 -0.886,-2.062 -1.35,-2.283 -0.032,-0.015 -0.066,-0.023 -0.1,-0.036 1.005,-1.469 1.53,-3.214 1.449,-4.513 -0.091,-1.475 -0.883,-2.064 -1.347,-2.285 z m -2.132,5.284 v -2.373 c 0.033,-0.02 0.066,-0.034 0.098,-0.058 0.411,-0.294 0.689,-0.426 0.856,-0.484 0.069,0.561 -0.238,1.821 -0.954,2.915 z m 0.097,-9.943 c 0.411,-0.294 0.689,-0.426 0.856,-0.483 0.069,0.562 -0.237,1.821 -0.954,2.914 v -2.373 c 0.034,-0.019 0.067,-0.034 0.098,-0.058 z m -14.361,10.823 c -0.119,-0.356 -0.221,-0.665 -0.246,-0.923 -0.035,-0.387 -0.246,-0.733 -0.569,-0.944 -0.323,-0.212 -0.726,-0.263 -1.094,-0.141 l -11.366,3.783 v -19.185 h 21.068 v 33.315 h -19.127 c -0.312,-0.984 -0.726,-1.995 -1.259,-3.028 13.466,-6.433 13.707,-9.529 12.593,-12.877 z m 11.727,22.636 c 0,0.622 -0.507,1.128 -1.129,1.128 H 331.01 c 0.286,-1.618 0.348,-3.405 0.048,-5.322 h 19.8 c 0.7,0 1.268,-0.567 1.268,-1.268 v -35.852 c 0,-0.7 -0.567,-1.269 -1.268,-1.269 h -23.604 c -0.7,0 -1.269,0.568 -1.269,1.269 v 21.296 l -1.223,0.407 v -23.153 c 0,-0.622 0.506,-1.129 1.129,-1.129 h 26.504 c 0.622,0 1.129,0.507 1.129,1.129 z m 2.537,-16.683 v -2.373 c 0.033,-0.021 0.066,-0.035 0.098,-0.058 0.411,-0.294 0.689,-0.427 0.856,-0.484 0.069,0.561 -0.238,1.821 -0.954,2.915 z"
       id="path200" /></g><path
     d="m 126.429,-113.219 c -0.344,-0.717 -0.887,-1.295 -1.561,-1.686 -0.097,-0.079 -0.202,-0.149 -0.324,-0.198 -0.572,-0.23 -0.782,-1.537 -0.77,-2.186 0.02,-0.698 -0.531,-1.281 -1.229,-1.302 -0.701,-0.046 -1.283,0.529 -1.305,1.229 -0.006,0.192 -0.014,1.155 0.306,2.177 -1.072,0.398 -1.948,1.247 -2.341,2.37 -0.197,0.563 -0.247,1.149 -0.183,1.725 -0.945,0.186 -1.978,0.603 -2.993,1.163 -1.243,-3.395 -2.932,-5.685 -5.023,-6.857 v -0.146 c 0.298,0.026 0.599,0.044 0.906,0.044 4.63,0 10.065,-2.792 10.338,-2.933 0.621,-0.323 0.863,-1.089 0.54,-1.709 -0.123,-0.239 -0.313,-0.421 -0.535,-0.537 -0.193,-0.212 -0.456,-0.364 -0.764,-0.405 -3.118,-0.418 -4.439,-3.506 -4.495,-3.637 -0.059,-0.143 -0.143,-0.266 -0.242,-0.372 -0.539,-3.391 -3.476,-5.993 -7.016,-5.993 -3.543,0 -6.48,2.605 -7.019,5.998 -0.098,0.105 -0.182,0.227 -0.24,0.367 -0.056,0.131 -1.377,3.219 -4.495,3.637 -0.309,0.041 -0.571,0.193 -0.766,0.407 -0.221,0.116 -0.41,0.297 -0.533,0.535 -0.323,0.62 -0.081,1.386 0.541,1.709 0.271,0.141 5.706,2.933 10.336,2.933 0.308,0 0.608,-0.018 0.907,-0.044 v 0.134 c -2.02,1.13 -3.508,3.224 -4.604,5.777 -0.029,0.041 -0.062,0.079 -0.087,0.125 l -6.174,10.981 -6.512,-14.229 c -0.085,-0.184 -0.211,-0.333 -0.357,-0.453 -0.941,-2.482 -2.141,-4.529 -3.659,-5.825 v -2.532 c 3.318,-0.601 5.847,-3.505 5.847,-6.994 0,-2.513 -1.312,-4.72 -3.285,-5.986 1.435,-0.676 2.744,-1.593 3.202,-2.789 0.25,-0.655 -0.079,-1.388 -0.732,-1.638 -0.653,-0.251 -1.388,0.078 -1.638,0.732 -0.347,0.908 -3.337,2.134 -5.81,2.668 -3.377,0.552 -5.966,3.482 -5.966,7.013 0,3.489 2.527,6.394 5.845,6.994 v 1.986 c -0.081,0.08 -0.154,0.171 -0.211,0.271 -1.771,1.346 -3.12,3.694 -4.149,6.562 l -7.321,15.557 -8.184,-3.6 c -0.001,0 -0.002,0 -0.002,-0.001 -0.273,-0.246 -0.566,-0.455 -0.875,-0.631 v -1.462 c 2.299,-0.569 4.011,-2.645 4.011,-5.117 0,-2.198 -1.351,-4.086 -3.265,-4.879 -0.152,-0.161 -0.345,-0.288 -0.572,-0.354 -1.198,-0.342 -3.344,-1.382 -3.122,-2.352 0.156,-0.682 -0.271,-1.362 -0.954,-1.519 -0.682,-0.16 -1.363,0.271 -1.518,0.954 -0.345,1.504 0.385,2.71 1.463,3.611 -1.549,0.921 -2.592,2.608 -2.592,4.537 0,2.473 1.713,4.548 4.013,5.117 v 1.462 c -1.016,0.582 -1.845,1.568 -2.519,2.815 -0.009,0.011 -0.021,0.02 -0.029,0.031 l -7.584,10.318 c -0.414,0.564 -0.293,1.358 0.271,1.773 0.226,0.166 0.489,0.246 0.751,0.246 0.389,0 0.773,-0.18 1.022,-0.517 l 3.391,-4.613 c -0.863,5.308 -0.745,10.822 -0.712,11.87 0.016,0.502 0.326,0.947 0.791,1.135 0.463,0.189 0.996,0.087 1.357,-0.263 0.008,-0.007 0.369,-0.334 0.939,-0.707 l 0.695,7.001 h -1.811 c -0.699,0 -1.268,0.568 -1.268,1.269 0,0.701 0.568,1.268 1.268,1.268 h 3.211 2.986 3.211 c 0.701,0 1.27,-0.567 1.27,-1.268 0,-0.701 -0.568,-1.269 -1.27,-1.269 H 65.42 l 0.694,-6.999 c 0.574,0.373 0.934,0.7 0.94,0.705 0.24,0.233 0.559,0.356 0.881,0.356 0.16,0 0.322,-0.03 0.477,-0.094 0.465,-0.188 0.775,-0.633 0.791,-1.135 0.045,-1.438 0.256,-11.285 -2.138,-17.47 l 5.429,2.388 c 0.166,0.073 0.339,0.106 0.509,0.106 0.08,0 0.157,-0.019 0.236,-0.033 0.108,0.028 0.219,0.049 0.329,0.049 0.475,0 0.932,-0.27 1.148,-0.729 l 3.055,-6.491 c -1.01,8.118 -0.847,16.127 -0.801,17.731 0.014,0.512 0.336,0.965 0.814,1.148 0.147,0.056 0.301,0.083 0.453,0.083 0.341,0 0.676,-0.138 0.92,-0.396 0.009,-0.009 0.291,-0.301 0.781,-0.706 l 1.477,11.484 h -2.781 c -0.699,0 -1.268,0.568 -1.268,1.269 0,0.701 0.568,1.268 1.268,1.268 h 4.223 5.897 4.222 c 0.7,0 1.269,-0.567 1.269,-1.268 0,-0.701 -0.568,-1.269 -1.269,-1.269 h -2.78 l 1.423,-11.069 c 0.193,0.176 0.301,0.286 0.306,0.291 0.353,0.372 0.893,0.494 1.373,0.312 0.478,-0.184 0.8,-0.637 0.813,-1.148 0.047,-1.616 0.212,-9.729 -0.82,-17.906 l 3.046,6.653 c 0.024,0.055 0.063,0.097 0.094,0.146 0.021,0.031 0.039,0.065 0.062,0.095 0.047,0.062 0.098,0.113 0.153,0.163 0.01,0.008 0.019,0.016 0.028,0.023 0.229,0.196 0.515,0.314 0.815,0.314 0.177,0 0.356,-0.037 0.527,-0.115 0.274,-0.125 0.478,-0.34 0.604,-0.591 l 2.871,-5.109 c -0.779,5.741 -0.636,11.087 -0.593,12.229 0.019,0.478 0.305,0.904 0.74,1.104 0.386,0.178 0.829,0.137 1.187,-0.083 -0.3,4.042 -0.197,7.253 -0.192,7.407 0.017,0.492 0.316,0.93 0.77,1.123 0.16,0.068 0.33,0.103 0.498,0.103 0.306,0 0.607,-0.111 0.845,-0.322 0.01,-0.009 0.483,-0.414 1.251,-0.861 l 0.596,7.243 h -1.711 c -0.7,0 -1.269,0.568 -1.269,1.269 0,0.701 0.568,1.268 1.269,1.268 h 9.706 c 0.7,0 1.269,-0.567 1.269,-1.268 0,-0.701 -0.568,-1.269 -1.269,-1.269 h -1.713 l 0.597,-7.243 c 0.772,0.447 1.244,0.854 1.253,0.861 0.365,0.328 0.892,0.413 1.343,0.22 0.452,-0.193 0.752,-0.631 0.769,-1.123 0.005,-0.151 0.107,-3.364 -0.193,-7.413 0.203,0.125 0.428,0.205 0.661,0.205 0.179,0 0.358,-0.037 0.526,-0.114 0.437,-0.199 0.723,-0.627 0.741,-1.105 0.007,-0.179 0.149,-4.221 -0.297,-9.214 0.03,-0.01 0.062,-0.016 0.091,-0.029 l 5.634,-2.489 c 0.641,-0.283 0.931,-1.032 0.647,-1.673 -0.284,-0.641 -1.03,-0.932 -1.673,-0.647 l -0.62,0.274 c 0.905,-1.489 1.605,-3.173 1.53,-4.536 1.239,-0.324 2.272,-1.236 2.708,-2.483 0.35,-0.982 0.29,-2.046 -0.163,-2.988 z m -66.644,3.833 c 0,-1.513 1.231,-2.744 2.745,-2.744 1.512,0 2.742,1.231 2.742,2.744 0,1.512 -1.23,2.741 -2.742,2.741 -1.513,0 -2.745,-1.229 -2.745,-2.741 z m 3.089,35.67 h -0.658 l -0.827,-8.021 c 0.213,-0.039 0.429,-0.075 0.651,-0.085 l 0.924,-0.002 c 0.242,0.011 0.476,0.048 0.707,0.091 z m 0.147,-10.642 -1.038,0.001 c -1.404,0.063 -2.649,0.525 -3.618,1.037 0.046,-5.207 0.73,-11.862 2.488,-15.297 0.018,-0.032 0.034,-0.064 0.049,-0.098 0.43,-0.814 0.922,-1.436 1.484,-1.801 0.049,0.005 0.094,0.015 0.145,0.015 0.049,0 0.096,-0.01 0.143,-0.015 2.912,1.894 3.965,10.687 4.021,17.201 -0.978,-0.513 -2.241,-0.979 -3.674,-1.043 z m 18.211,-45.588 c 0,-2.524 2.053,-4.578 4.578,-4.578 2.524,0 4.578,2.054 4.578,4.578 0,2.524 -2.054,4.578 -4.578,4.578 -2.526,0 -4.578,-2.053 -4.578,-4.578 z m 1.209,16.967 0.045,-0.094 c 0.045,-0.097 0.072,-0.197 0.093,-0.298 0.788,-2.22 1.762,-4.002 2.967,-5.052 5.021,4.375 6.076,21.422 6.069,30.418 -1.298,-0.876 -3.11,-1.814 -5.235,-2.135 -0.153,-0.066 -0.323,-0.103 -0.501,-0.103 l -0.199,0.002 c -0.051,0.002 -0.102,0.005 -0.153,0.008 -0.059,-0.003 -0.118,-0.007 -0.178,-0.01 H 85.21 c -0.169,0 -0.331,0.033 -0.479,0.094 -2.127,0.309 -3.95,1.255 -5.257,2.141 -0.004,-6.713 0.583,-17.904 2.967,-24.971 z m 5.202,39.263 h -3.667 l -1.674,-13.023 c 0.939,-0.471 2.035,-0.856 3.222,-0.951 1.419,0.115 2.709,0.638 3.758,1.227 z m 33.698,-33.992 c 0.247,0.721 -1.129,4.078 -3.808,6.354 -1.265,1.073 -3.131,2.153 -4.887,1.281 l -0.306,-0.246 c -0.648,-1.104 -0.378,-2.443 0.804,-3.982 2.251,-2.93 6.267,-4.62 7.051,-4.354 0.023,0.013 0.049,0.02 0.073,0.031 0.274,0.249 0.593,0.445 0.932,0.609 0.037,0.104 0.074,0.209 0.141,0.307 z m -2.932,-13.184 c -1.354,0.52 -2.959,1.025 -4.505,1.288 1.05,-0.762 1.888,-1.798 2.396,-3.008 0.549,0.613 1.247,1.227 2.109,1.72 z m -8.67,-9.043 c 2.523,0 4.577,2.053 4.577,4.577 0,2.524 -2.054,4.578 -4.577,4.578 -2.524,0 -4.579,-2.054 -4.579,-4.578 0,-2.524 2.054,-4.577 4.579,-4.577 z m -6.563,7.323 c 0.508,1.21 1.347,2.246 2.395,3.008 -1.546,-0.263 -3.15,-0.769 -4.504,-1.288 0.861,-0.493 1.559,-1.107 2.109,-1.72 z m 6.549,8.014 c 1.676,0.913 3.057,2.963 4.116,6.11 -0.761,0.585 -1.456,1.209 -2.018,1.822 -2.5,2.727 -3.044,5.61 -1.492,7.911 0.07,0.104 0.156,0.198 0.255,0.278 l 0.567,0.457 c 0.062,0.049 0.126,0.093 0.195,0.13 0.83,0.446 1.718,0.665 2.633,0.665 0.604,0 1.223,-0.104 1.843,-0.294 0.175,2.274 0.229,4.315 0.237,5.763 -1.488,-0.782 -3.688,-1.646 -6.255,-1.741 l -0.185,0.001 c -2.547,0.094 -4.737,0.961 -6.221,1.745 0.021,-7.006 1.145,-19.993 6.325,-22.847 z m 0.608,40.882 h -1.191 l -0.679,-8.24 c 0.392,-0.091 0.8,-0.155 1.223,-0.173 l 0.054,-10e-4 c 0.441,0.019 0.866,0.085 1.271,0.179 z m -0.542,-10.949 -0.157,0.001 c -1.771,0.072 -3.324,0.663 -4.476,1.271 0.018,-1.652 0.097,-4.026 0.353,-6.557 1.138,-0.501 2.574,-0.95 4.157,-1.009 l 0.093,-10e-4 c 1.615,0.06 3.076,0.516 4.225,1.021 -0.003,0.06 -0.007,0.118 -0.001,0.177 0.241,2.46 0.316,4.76 0.334,6.373 -1.16,-0.61 -2.729,-1.203 -4.528,-1.276 z m 14.41,-26.4 c -0.244,0.696 -1.035,1.098 -1.757,0.844 -0.348,-0.122 -0.627,-0.371 -0.786,-0.702 -0.16,-0.332 -0.181,-0.707 -0.06,-1.054 0.193,-0.553 0.718,-0.925 1.303,-0.925 0.155,0 0.309,0.026 0.454,0.077 0.348,0.122 0.628,0.372 0.787,0.704 0.161,0.333 0.182,0.707 0.059,1.056 z"
     id="path204" /><path
     d="m -165.367,34.027 h 13.678 c 0.701,0 1.269,-0.567 1.269,-1.268 0,-0.7 -0.567,-1.268 -1.269,-1.268 h -13.678 c -0.699,0 -1.268,0.568 -1.268,1.268 0.001,0.701 0.569,1.268 1.268,1.268 z"
     id="path206" /><path
     d="m -169.189,41.964 h 21.555 c 0.699,0 1.268,-0.566 1.268,-1.268 0,-0.7 -0.568,-1.268 -1.268,-1.268 h -21.555 c -0.7,0 -1.268,0.567 -1.268,1.268 0,0.701 0.568,1.268 1.268,1.268 z"
     id="path208" /><path
     d="m -147.634,45.762 h -21.555 c -0.7,0 -1.268,0.567 -1.268,1.269 0,0.7 0.567,1.269 1.268,1.269 h 21.555 c 0.699,0 1.268,-0.568 1.268,-1.269 -10e-4,-0.701 -0.569,-1.269 -1.268,-1.269 z"
     id="path210" /><path
     d="m -147.634,52.098 h -21.555 c -0.7,0 -1.268,0.566 -1.268,1.268 0,0.7 0.567,1.268 1.268,1.268 h 21.555 c 0.699,0 1.268,-0.567 1.268,-1.268 -10e-4,-0.701 -0.569,-1.268 -1.268,-1.268 z"
     id="path212" /><path
     d="m -112.505,100.682 -4.208,-9.641 c 0.582,-12.832 -3.045,-24.633 -3.201,-25.131 -0.036,-0.117 -0.089,-0.227 -0.156,-0.328 -1.271,-1.901 -7.736,-11.455 -10.269,-12.984 -2.108,-1.271 -8.301,-3.345 -10.484,-4.058 V 27.365 c 0,-0.7 -0.568,-1.269 -1.269,-1.269 h -32.872 c -0.7,0 -1.269,0.568 -1.269,1.269 v 13.103 c -0.939,-0.438 -1.773,-0.494 -2.485,-0.156 -0.474,0.224 -1.281,0.826 -1.376,2.336 -0.098,1.542 0.621,3.7 1.98,5.324 -0.209,0.035 -0.413,0.089 -0.604,0.18 -0.474,0.225 -1.281,0.826 -1.376,2.336 -0.094,1.471 0.566,3.494 1.807,5.089 -0.418,0.344 -0.855,0.955 -0.924,2.044 -0.119,1.881 0.985,4.666 2.979,6.292 v 10.985 c 0,0.701 0.568,1.268 1.269,1.268 h 11.101 c 0.016,0.018 0.021,0.041 0.037,0.059 l 4.94,5.15 c 0.729,2.232 5.538,15.377 19.142,20.99 0.158,0.064 0.322,0.096 0.483,0.096 0.498,0 0.971,-0.297 1.173,-0.785 0.267,-0.648 -0.041,-1.389 -0.688,-1.656 -13.429,-5.541 -17.732,-19.529 -17.773,-19.67 -0.059,-0.193 -0.162,-0.371 -0.302,-0.518 l -3.517,-3.666 h 7.87 c -1.409,1.391 -2.319,2.758 -2.378,2.846 -0.385,0.584 -0.223,1.371 0.361,1.758 0.215,0.141 0.457,0.209 0.697,0.209 0.412,0 0.816,-0.201 1.061,-0.57 0.019,-0.031 1.949,-2.934 4.347,-4.209 0.018,-0.01 0.032,-0.023 0.048,-0.033 h 6.269 c 0.7,0 1.269,-0.566 1.269,-1.268 v -6.143 c 1.178,0.625 2.483,1.283 3.945,1.98 -5.881,11.336 1.978,20.014 2.925,20.996 0.249,0.258 0.581,0.387 0.913,0.387 0.317,0 0.634,-0.117 0.88,-0.354 0.505,-0.486 0.52,-1.289 0.033,-1.793 -0.843,-0.875 -8.056,-8.844 -1.894,-19.154 0.185,-0.307 0.229,-0.68 0.124,-1.023 -0.106,-0.342 -0.353,-0.625 -0.678,-0.775 -2.805,-1.305 -5.03,-2.447 -6.799,-3.451 -0.027,-0.02 -0.058,-0.033 -0.086,-0.051 -7.25,-4.142 -6.649,-5.97 -6.181,-7.379 0.004,-0.009 0.006,-0.017 0.01,-0.025 l 17.926,5.968 c 0.664,0.221 1.382,-0.139 1.604,-0.804 0.221,-0.665 -0.139,-1.382 -0.803,-1.604 l -11.92,-3.968 v -6.495 c 2.908,0.965 7.618,2.621 9.174,3.559 1.566,0.945 6.526,7.831 9.365,12.064 0.444,1.506 3.612,12.709 3.023,24.379 -0.01,0.195 0.026,0.391 0.104,0.57 l 4.326,9.914 c 0.208,0.477 0.675,0.762 1.163,0.762 0.169,0 0.341,-0.035 0.506,-0.105 0.644,-0.281 0.937,-1.029 0.658,-1.672 z m -63.727,-49.476 v 2.893 c -1.019,-1.273 -1.438,-2.965 -1.322,-3.598 0.17,0.051 0.482,0.185 0.969,0.533 0.111,0.08 0.23,0.133 0.353,0.172 z m -1.322,-8.546 c 0.17,0.052 0.482,0.185 0.969,0.534 0.111,0.078 0.23,0.131 0.354,0.171 v 2.894 c -1.02,-1.274 -1.439,-2.965 -1.323,-3.599 z m 0.881,14.972 c 0.097,0.028 0.246,0.091 0.44,0.197 v 1.908 c -0.369,-0.875 -0.511,-1.704 -0.44,-2.105 z m 28.549,-2.355 c -0.365,-0.122 -0.77,-0.071 -1.093,0.142 -0.324,0.21 -0.533,0.558 -0.57,0.943 -0.026,0.275 -0.134,0.6 -0.259,0.977 -0.942,2.829 -0.945,5.485 6.685,10 v 6.291 h -30.334 V 28.633 h 30.334 v 28.229 z"
     id="path214" /><path
     d="m -156.326,58.724 -2.096,1.367 v -0.738 c 0,-0.7 -0.568,-1.268 -1.268,-1.268 h -9.73 c -0.701,0 -1.27,0.567 -1.27,1.268 V 68.5 c 0,0.701 0.568,1.268 1.27,1.268 h 9.73 c 0.699,0 1.268,-0.566 1.268,-1.268 v -5.38 l 3.483,-2.273 c 0.586,-0.383 0.751,-1.168 0.368,-1.754 -0.382,-0.588 -1.167,-0.752 -1.755,-0.369 z m -4.632,8.507 h -7.194 v -6.61 h 7.194 v 1.127 l -2.374,1.549 -1.482,-1.74 c -0.454,-0.533 -1.254,-0.598 -1.789,-0.145 -0.533,0.455 -0.596,1.254 -0.143,1.787 l 2.207,2.593 c 0.249,0.293 0.605,0.447 0.967,0.447 0.238,0 0.479,-0.068 0.692,-0.207 l 1.922,-1.255 z"
     id="path216" /><g
     id="g260"
     transform="translate(-18.195,-6.724)"><path
       d="m -118.523,-200.274 c 0.701,0 1.268,-0.567 1.268,-1.268 v -2.2 c 3.549,-0.549 6.353,-3.354 6.902,-6.901 h 2.199 c 0.701,0 1.268,-0.568 1.268,-1.268 0,-0.701 -0.567,-1.268 -1.268,-1.268 h -2.199 c -0.549,-3.549 -3.354,-6.353 -6.902,-6.902 v -2.2 c 0,-0.701 -0.567,-1.268 -1.268,-1.268 -0.7,0 -1.268,0.567 -1.268,1.268 v 2.2 c -3.548,0.549 -6.352,3.353 -6.902,6.902 h -2.199 c -0.7,0 -1.268,0.567 -1.268,1.268 0,0.7 0.568,1.268 1.268,1.268 h 2.2 c 0.549,3.548 3.354,6.352 6.901,6.901 v 2.2 c -0.001,0.7 0.567,1.268 1.268,1.268 z m -5.596,-10.37 h 1.707 c 0.701,0 1.268,-0.568 1.268,-1.268 0,-0.701 -0.567,-1.268 -1.268,-1.268 h -1.707 c 0.486,-2.148 2.179,-3.84 4.327,-4.328 v 1.707 c 0,0.7 0.568,1.268 1.268,1.268 0.701,0 1.268,-0.568 1.268,-1.268 v -1.707 c 2.148,0.487 3.841,2.179 4.328,4.328 h -1.708 c -0.7,0 -1.268,0.567 -1.268,1.268 0,0.7 0.568,1.268 1.268,1.268 h 1.707 c -0.486,2.148 -2.179,3.84 -4.327,4.327 v -1.707 c 0,-0.701 -0.567,-1.268 -1.268,-1.268 -0.7,0 -1.268,0.567 -1.268,1.268 v 1.707 c -2.148,-0.487 -3.839,-2.179 -4.327,-4.327 z"
       id="path218" /><path
       d="m -81.489,-213.3 h -5.287 c -0.011,-0.272 -0.008,-0.544 -0.027,-0.815 -0.047,-0.699 -0.649,-1.233 -1.35,-1.18 -0.699,0.046 -1.228,0.651 -1.181,1.35 0.015,0.214 0.012,0.43 0.021,0.646 h -9.939 l 3.584,-3.354 c 0.511,-0.478 0.538,-1.281 0.06,-1.792 -0.479,-0.51 -1.281,-0.538 -1.792,-0.06 l -5.954,5.572 c -0.253,0.237 -0.399,0.568 -0.402,0.915 -0.002,0.347 0.137,0.68 0.387,0.922 l 5.954,5.764 c 0.246,0.239 0.564,0.357 0.882,0.357 0.332,0 0.663,-0.129 0.912,-0.386 0.487,-0.503 0.474,-1.306 -0.029,-1.793 l -3.728,-3.608 H -89.3 c -0.011,0.331 -0.01,0.662 -0.032,0.991 -0.047,0.699 0.482,1.303 1.181,1.35 0.029,0.002 0.058,0.003 0.086,0.003 0.662,0 1.219,-0.514 1.264,-1.184 0.027,-0.385 0.027,-0.772 0.038,-1.16 h 5.276 c 0.701,0 1.268,-0.568 1.268,-1.268 -0.002,-0.702 -0.569,-1.27 -1.27,-1.27 z"
       id="path220" /><path
       d="m -139.577,-218.492 c -0.504,-0.487 -1.307,-0.474 -1.793,0.029 -0.487,0.503 -0.475,1.306 0.029,1.793 l 3.727,3.608 h -10.074 c 0.011,-0.295 0.009,-0.592 0.029,-0.885 0.047,-0.699 -0.482,-1.303 -1.181,-1.35 -0.701,-0.053 -1.303,0.481 -1.35,1.18 -0.024,0.348 -0.022,0.702 -0.035,1.054 h -5.28 c -0.7,0 -1.268,0.567 -1.268,1.268 0,0.701 0.568,1.268 1.268,1.268 h 5.284 c 0.012,0.308 0.01,0.617 0.031,0.921 0.044,0.67 0.602,1.184 1.264,1.184 0.028,0 0.057,-0.001 0.086,-0.003 0.699,-0.046 1.228,-0.651 1.181,-1.35 -0.017,-0.249 -0.014,-0.501 -0.025,-0.752 h 9.944 l -3.585,3.354 c -0.512,0.479 -0.538,1.281 -0.059,1.792 0.249,0.267 0.587,0.402 0.926,0.402 0.311,0 0.622,-0.114 0.866,-0.342 l 5.954,-5.572 c 0.253,-0.237 0.399,-0.568 0.401,-0.915 0.003,-0.347 -0.136,-0.681 -0.386,-0.922 z"
       id="path222" /><path
       d="m -125.117,-233.378 5.571,5.955 c 0.237,0.253 0.568,0.398 0.915,0.401 0.004,0 0.008,0 0.011,0 0.344,0 0.672,-0.139 0.912,-0.386 l 5.765,-5.955 c 0.487,-0.503 0.474,-1.306 -0.029,-1.793 -0.503,-0.487 -1.307,-0.474 -1.793,0.029 l -3.609,3.727 v -9.86 c 0.319,0.013 0.639,0.014 0.956,0.037 0.032,0.002 0.063,0.003 0.094,0.003 0.659,0 1.214,-0.509 1.264,-1.175 0.051,-0.699 -0.474,-1.307 -1.172,-1.358 -0.378,-0.028 -0.761,-0.03 -1.142,-0.044 v -5.493 c 0,-0.701 -0.567,-1.268 -1.268,-1.268 -0.7,0 -1.268,0.567 -1.268,1.268 v 5.503 c -0.283,0.013 -0.567,0.013 -0.849,0.033 -0.699,0.051 -1.223,0.659 -1.172,1.358 0.049,0.667 0.605,1.175 1.263,1.175 0.032,0 0.063,-0.001 0.094,-0.003 0.22,-0.016 0.442,-0.015 0.663,-0.026 v 9.722 l -3.354,-3.584 c -0.478,-0.511 -1.28,-0.538 -1.792,-0.06 -0.512,0.48 -0.539,1.283 -0.06,1.794 z"
       id="path224" /><path
       d="m -111.929,-190.341 -5.571,-5.954 c -0.237,-0.253 -0.568,-0.399 -0.916,-0.402 -0.342,-0.006 -0.68,0.137 -0.921,0.386 l -5.765,5.954 c -0.487,0.503 -0.475,1.306 0.029,1.793 0.503,0.487 1.306,0.474 1.793,-0.029 l 3.608,-3.728 v 9.859 c -0.301,-0.013 -0.603,-0.013 -0.902,-0.035 -0.702,-0.044 -1.306,0.474 -1.357,1.172 -0.051,0.698 0.473,1.307 1.172,1.358 0.36,0.026 0.725,0.027 1.088,0.042 v 5.494 c 0,0.701 0.568,1.269 1.268,1.269 0.701,0 1.268,-0.568 1.268,-1.269 v -5.501 c 0.302,-0.013 0.604,-0.013 0.903,-0.035 0.698,-0.051 1.223,-0.66 1.172,-1.358 -0.051,-0.698 -0.646,-1.217 -1.358,-1.172 -0.238,0.017 -0.477,0.016 -0.717,0.027 v -9.724 l 3.354,3.584 c 0.25,0.267 0.587,0.402 0.927,0.402 0.31,0 0.621,-0.113 0.866,-0.342 0.51,-0.477 0.537,-1.279 0.059,-1.791 z"
       id="path226" /><path
       d="m -144.994,-227.178 c 0.209,0.131 0.443,0.194 0.674,0.194 0.422,0 0.833,-0.21 1.075,-0.594 0.672,-1.07 1.423,-2.107 2.231,-3.082 0.447,-0.54 0.372,-1.338 -0.167,-1.786 -0.54,-0.447 -1.338,-0.371 -1.786,0.167 -0.877,1.06 -1.694,2.187 -2.425,3.351 -0.374,0.595 -0.195,1.378 0.398,1.75 z"
       id="path228" /><path
       d="m -138.073,-234.142 c 0.288,0 0.577,-0.098 0.815,-0.297 0.974,-0.817 2.005,-1.577 3.068,-2.257 0.59,-0.377 0.762,-1.162 0.384,-1.751 -0.376,-0.59 -1.16,-0.762 -1.751,-0.384 -1.154,0.739 -2.275,1.563 -3.332,2.451 -0.536,0.45 -0.605,1.25 -0.155,1.787 0.25,0.297 0.609,0.451 0.971,0.451 z"
       id="path230" /><path
       d="m -129.94,-239.053 c 0.159,0 0.321,-0.03 0.478,-0.094 1.172,-0.478 2.388,-0.881 3.611,-1.201 0.678,-0.177 1.083,-0.87 0.906,-1.547 -0.177,-0.678 -0.866,-1.084 -1.548,-0.907 -1.33,0.348 -2.651,0.787 -3.926,1.306 -0.649,0.264 -0.961,1.003 -0.697,1.652 0.202,0.492 0.676,0.791 1.176,0.791 z"
       id="path232" /><path
       d="m -148.366,-218.288 c 0.104,0.026 0.209,0.039 0.312,0.039 0.566,0 1.083,-0.383 1.229,-0.957 0.31,-1.229 0.705,-2.448 1.171,-3.622 0.258,-0.651 -0.06,-1.388 -0.711,-1.646 -0.651,-0.259 -1.389,0.06 -1.646,0.71 -0.507,1.276 -0.936,2.601 -1.273,3.936 -0.172,0.679 0.24,1.368 0.918,1.54 z"
       id="path234" /><path
       d="m -93.748,-227.577 c 0.24,0.383 0.653,0.594 1.075,0.594 0.23,0 0.464,-0.063 0.673,-0.194 0.593,-0.373 0.772,-1.156 0.399,-1.749 -0.731,-1.164 -1.547,-2.292 -2.425,-3.351 -0.448,-0.539 -1.247,-0.615 -1.786,-0.167 -0.54,0.447 -0.614,1.246 -0.168,1.786 0.809,0.974 1.56,2.011 2.232,3.081 z"
       id="path236" /><path
       d="m -91.339,-222.828 c 0.467,1.176 0.861,2.395 1.172,3.622 0.145,0.575 0.662,0.957 1.229,0.957 0.103,0 0.208,-0.013 0.312,-0.039 0.679,-0.172 1.09,-0.861 0.918,-1.541 -0.337,-1.333 -0.766,-2.657 -1.273,-3.936 -0.259,-0.651 -0.996,-0.969 -1.647,-0.71 -0.652,0.259 -0.97,0.996 -0.711,1.647 z"
       id="path238" /><path
       d="m -102.802,-236.697 c 1.063,0.68 2.095,1.44 3.067,2.257 0.238,0.2 0.527,0.297 0.815,0.297 0.361,0 0.721,-0.154 0.972,-0.453 0.451,-0.536 0.381,-1.336 -0.155,-1.787 -1.056,-0.888 -2.177,-1.712 -3.332,-2.451 -0.59,-0.379 -1.375,-0.206 -1.752,0.384 -0.377,0.591 -0.206,1.375 0.385,1.753 z"
       id="path240" /><path
       d="m -106.574,-241.496 c -1.275,-0.519 -2.597,-0.958 -3.927,-1.306 -0.679,-0.179 -1.371,0.229 -1.547,0.907 -0.178,0.677 0.229,1.37 0.906,1.547 1.223,0.32 2.438,0.724 3.611,1.201 0.156,0.064 0.318,0.094 0.477,0.094 0.5,0 0.975,-0.298 1.175,-0.791 0.265,-0.649 -0.047,-1.388 -0.695,-1.652 z"
       id="path242" /><path
       d="m -88.627,-205.43 c -0.681,-0.174 -1.369,0.239 -1.541,0.918 -0.311,1.227 -0.705,2.446 -1.172,3.622 -0.258,0.651 0.06,1.388 0.71,1.646 0.154,0.061 0.312,0.09 0.468,0.09 0.504,0 0.981,-0.303 1.179,-0.8 0.507,-1.278 0.936,-2.603 1.273,-3.936 0.173,-0.679 -0.238,-1.369 -0.917,-1.54 z"
       id="path244" /><path
       d="m -92,-196.541 c -0.592,-0.373 -1.375,-0.193 -1.748,0.399 -0.673,1.07 -1.423,2.107 -2.231,3.082 -0.446,0.539 -0.372,1.338 0.168,1.786 0.236,0.196 0.523,0.292 0.808,0.292 0.364,0 0.727,-0.157 0.978,-0.459 0.877,-1.06 1.693,-2.187 2.425,-3.352 0.372,-0.593 0.194,-1.375 -0.4,-1.748 z"
       id="path246" /><path
       d="m -99.735,-189.278 c -0.973,0.817 -2.004,1.577 -3.067,2.257 -0.59,0.378 -0.762,1.162 -0.385,1.752 0.242,0.378 0.652,0.584 1.069,0.584 0.234,0 0.471,-0.064 0.683,-0.2 1.154,-0.739 2.275,-1.564 3.332,-2.451 0.537,-0.451 0.606,-1.25 0.155,-1.787 -0.451,-0.537 -1.25,-0.606 -1.787,-0.155 z"
       id="path248" /><path
       d="m -107.53,-184.571 c -1.173,0.477 -2.389,0.881 -3.611,1.201 -0.678,0.177 -1.084,0.87 -0.906,1.547 0.148,0.57 0.663,0.948 1.226,0.948 0.106,0 0.214,-0.014 0.321,-0.042 1.33,-0.348 2.651,-0.787 3.927,-1.306 0.648,-0.264 0.96,-1.004 0.696,-1.653 -0.265,-0.647 -1.003,-0.958 -1.653,-0.695 z"
       id="path250" /><path
       d="m -125.851,-183.371 c -1.224,-0.32 -2.439,-0.724 -3.611,-1.201 -0.648,-0.265 -1.389,0.048 -1.653,0.696 -0.264,0.649 0.048,1.389 0.697,1.653 1.275,0.519 2.596,0.958 3.926,1.306 0.108,0.028 0.215,0.042 0.322,0.042 0.563,0 1.077,-0.378 1.226,-0.948 0.176,-0.677 -0.229,-1.37 -0.907,-1.548 z"
       id="path252" /><path
       d="m -143.246,-196.142 c -0.372,-0.592 -1.156,-0.772 -1.749,-0.399 -0.593,0.372 -0.772,1.155 -0.399,1.748 0.731,1.164 1.547,2.292 2.425,3.351 0.251,0.303 0.613,0.459 0.978,0.459 0.285,0 0.571,-0.096 0.809,-0.292 0.539,-0.447 0.614,-1.247 0.167,-1.786 -0.808,-0.973 -1.558,-2.01 -2.231,-3.081 z"
       id="path254" /><path
       d="m -145.654,-200.89 c -0.466,-1.175 -0.861,-2.393 -1.171,-3.622 -0.172,-0.679 -0.86,-1.089 -1.541,-0.918 -0.678,0.171 -1.089,0.861 -0.918,1.541 0.338,1.335 0.766,2.659 1.273,3.936 0.197,0.498 0.674,0.8 1.179,0.8 0.155,0 0.314,-0.029 0.467,-0.09 0.652,-0.259 0.969,-0.996 0.711,-1.647 z"
       id="path256" /><path
       d="m -134.19,-187.021 c -1.062,-0.681 -2.094,-1.44 -3.068,-2.257 -0.536,-0.451 -1.336,-0.38 -1.787,0.155 -0.45,0.536 -0.38,1.336 0.155,1.787 1.057,0.887 2.178,1.712 3.332,2.451 0.211,0.136 0.449,0.2 0.682,0.2 0.418,0 0.827,-0.207 1.069,-0.584 0.379,-0.591 0.206,-1.375 -0.383,-1.752 z"
       id="path258" /></g><g
     id="g274"
     transform="translate(-18.195,-6.724)"><path
       d="m 251.04,-91.023 -7.391,-13.146 c -0.03,-0.052 -0.066,-0.096 -0.102,-0.142 -1.069,-2.489 -2.51,-4.545 -4.456,-5.689 v -0.205 c 0.299,0.026 0.6,0.044 0.906,0.044 4.63,0 10.066,-2.792 10.339,-2.933 0.62,-0.323 0.863,-1.089 0.539,-1.709 -0.123,-0.239 -0.313,-0.421 -0.534,-0.537 -0.193,-0.212 -0.456,-0.364 -0.764,-0.405 -3.119,-0.418 -4.439,-3.506 -4.496,-3.637 -0.058,-0.143 -0.142,-0.266 -0.241,-0.372 -0.541,-3.392 -3.476,-5.993 -7.016,-5.993 -3.544,0 -6.481,2.605 -7.02,5.998 -0.098,0.105 -0.182,0.227 -0.239,0.367 -0.057,0.131 -1.377,3.219 -4.496,3.637 -0.308,0.041 -0.571,0.193 -0.765,0.407 -0.222,0.116 -0.409,0.297 -0.533,0.535 -0.324,0.62 -0.081,1.386 0.54,1.709 0.272,0.141 5.706,2.933 10.336,2.933 0.308,0 0.609,-0.018 0.907,-0.044 v 0.134 c -1.185,0.662 -2.185,1.655 -3.032,2.879 l -11.017,9.061 c -0.542,0.444 -0.619,1.244 -0.174,1.785 0.25,0.305 0.613,0.463 0.979,0.463 0.284,0 0.569,-0.096 0.806,-0.289 l 6.948,-5.715 c -2.396,7.646 -2.138,17.576 -2.077,19.184 0.019,0.478 0.304,0.904 0.74,1.104 0.168,0.077 0.348,0.115 0.526,0.115 0.234,0 0.457,-0.079 0.66,-0.204 -0.3,4.045 -0.198,7.259 -0.192,7.413 0.016,0.492 0.316,0.93 0.769,1.123 0.16,0.068 0.331,0.103 0.499,0.103 0.306,0 0.607,-0.111 0.844,-0.322 0.01,-0.009 0.484,-0.414 1.252,-0.861 l 0.596,7.243 h -1.712 c -0.7,0 -1.269,0.568 -1.269,1.269 0,0.701 0.568,1.268 1.269,1.268 h 9.707 c 0.7,0 1.269,-0.567 1.269,-1.268 0,-0.701 -0.568,-1.269 -1.269,-1.269 h -1.714 l 0.597,-7.243 c 0.772,0.447 1.245,0.854 1.253,0.861 0.366,0.328 0.894,0.412 1.343,0.22 0.452,-0.193 0.753,-0.631 0.77,-1.123 0.005,-0.15 0.106,-3.32 -0.187,-7.332 0.163,0.074 0.335,0.124 0.513,0.124 0.179,0 0.358,-0.037 0.527,-0.113 0.436,-0.199 0.723,-0.628 0.741,-1.106 0.043,-1.143 0.187,-6.494 -0.595,-12.239 l 2.903,5.164 c 0.232,0.414 0.663,0.646 1.106,0.646 0.211,0 0.424,-0.052 0.62,-0.162 0.614,-0.348 0.831,-1.12 0.487,-1.731 z m -7.019,5.997 c -1.482,-0.784 -3.674,-1.651 -6.22,-1.745 -0.014,-0.001 -0.027,0.003 -0.04,0.003 -0.019,0 -0.035,-0.004 -0.053,-0.003 -2.546,0.094 -4.737,0.961 -6.221,1.745 0.017,-5.773 0.783,-15.61 3.952,-20.49 0.053,-0.066 0.101,-0.138 0.139,-0.212 0.629,-0.92 1.351,-1.646 2.176,-2.115 5.129,2.913 6.245,15.835 6.267,22.817 z m 2.475,-29.142 c -1.354,0.519 -2.958,1.025 -4.505,1.288 1.05,-0.763 1.888,-1.798 2.395,-3.008 0.55,0.613 1.248,1.227 2.11,1.72 z m -8.671,-9.043 c 2.523,0 4.577,2.053 4.577,4.577 0,2.524 -2.054,4.578 -4.577,4.578 -2.524,0 -4.579,-2.054 -4.579,-4.578 0,-2.524 2.055,-4.577 4.579,-4.577 z m -6.563,7.323 c 0.509,1.21 1.346,2.245 2.394,3.007 -1.545,-0.262 -3.148,-0.769 -4.502,-1.287 0.861,-0.493 1.559,-1.107 2.108,-1.72 z m 7.158,48.896 h -1.192 l -0.679,-8.24 c 0.393,-0.091 0.801,-0.155 1.224,-0.173 l 0.053,-0.001 c 0.442,0.019 0.867,0.085 1.271,0.179 z m -0.542,-10.949 -0.158,0.001 c -1.771,0.072 -3.324,0.663 -4.476,1.271 0.019,-1.651 0.098,-4.024 0.353,-6.554 1.134,-0.497 2.57,-0.943 4.157,-1.01 1.663,0.069 3.16,0.556 4.318,1.08 0,0.038 -0.005,0.076 -0.002,0.114 0.241,2.46 0.317,4.76 0.334,6.373 -1.159,-0.609 -2.728,-1.202 -4.526,-1.275 z"
       id="path262" /><path
       d="m 223.494,-109.335 c -0.169,-0.292 -0.444,-0.505 -0.77,-0.592 l -9.391,-2.521 c -0.674,-0.177 -1.372,0.221 -1.554,0.896 l -2.082,7.757 -9.833,-8.531 c -0.401,-0.521 -0.832,-0.979 -1.291,-1.37 v -2.532 c 3.318,-0.601 5.847,-3.505 5.847,-6.994 0,-2.513 -1.312,-4.72 -3.286,-5.986 1.435,-0.676 2.744,-1.593 3.202,-2.789 0.251,-0.655 -0.078,-1.388 -0.731,-1.638 -0.654,-0.251 -1.388,0.078 -1.639,0.732 -0.347,0.908 -3.337,2.134 -5.809,2.668 -3.379,0.552 -5.966,3.482 -5.966,7.013 0,3.489 2.526,6.394 5.845,6.994 v 1.986 c -0.082,0.08 -0.155,0.171 -0.213,0.271 -7.957,6.047 -7.441,32.309 -7.354,35.363 0.015,0.512 0.337,0.965 0.814,1.148 0.148,0.056 0.302,0.083 0.454,0.083 0.34,0 0.675,-0.138 0.92,-0.396 0.008,-0.009 0.29,-0.301 0.78,-0.706 l 1.477,11.484 h -2.78 c -0.7,0 -1.269,0.568 -1.269,1.269 0,0.701 0.568,1.268 1.269,1.268 h 4.222 5.898 4.222 c 0.7,0 1.269,-0.567 1.269,-1.268 0,-0.701 -0.568,-1.269 -1.269,-1.269 h -2.78 l 1.422,-11.069 c 0.193,0.176 0.301,0.286 0.306,0.291 0.353,0.372 0.895,0.494 1.373,0.312 0.478,-0.184 0.8,-0.637 0.814,-1.148 0.066,-2.304 0.373,-17.808 -2.893,-27.886 l 6.248,5.422 -1.393,5.19 c -0.087,0.324 -0.041,0.671 0.126,0.962 0.168,0.291 0.445,0.504 0.771,0.592 l 9.39,2.52 c 0.109,0.029 0.22,0.043 0.329,0.043 0.56,0 1.071,-0.373 1.226,-0.939 l 4.205,-15.67 c 0.087,-0.323 0.042,-0.67 -0.126,-0.96 z m -30.765,-13.887 c 0,-2.524 2.053,-4.578 4.577,-4.578 2.524,0 4.579,2.054 4.579,4.578 0,2.524 -2.055,4.578 -4.579,4.578 -2.524,0 -4.577,-2.053 -4.577,-4.578 z m 6.41,56.23 h -3.666 l -1.674,-13.023 c 0.939,-0.471 2.035,-0.856 3.222,-0.951 1.418,0.115 2.709,0.638 3.758,1.227 z m -1.264,-16.423 c -0.153,-0.066 -0.323,-0.103 -0.5,-0.103 l -0.2,0.002 c -0.051,0.002 -0.102,0.005 -0.153,0.008 -0.058,-0.003 -0.117,-0.007 -0.177,-0.01 h -0.139 c -0.17,0 -0.332,0.033 -0.479,0.094 -2.127,0.309 -3.951,1.255 -5.258,2.141 -0.003,-6.615 0.568,-17.574 2.865,-24.654 l 5.35,14.988 c 0.187,0.519 0.674,0.842 1.195,0.842 0.141,0 0.286,-0.024 0.427,-0.073 0.658,-0.236 1.004,-0.961 0.768,-1.621 l -6.286,-17.608 c 0.523,-0.943 1.104,-1.724 1.753,-2.288 0.311,0.271 0.604,0.59 0.886,0.952 0.041,0.07 0.089,0.136 0.144,0.199 4.138,5.661 5.046,20.923 5.041,29.267 -1.299,-0.877 -3.111,-1.816 -5.237,-2.136 z m 19.419,-11.171 -6.94,-1.861 0.745,-2.774 1.659,1.44 c 0.241,0.209 0.537,0.311 0.831,0.311 0.354,0 0.708,-0.147 0.959,-0.437 0.459,-0.529 0.401,-1.33 -0.127,-1.789 l -2.593,-2.249 2.072,-7.723 6.941,1.861 z"
       id="path264" /><path
       d="m 214.939,-105.365 3.058,0.821 c 0.109,0.029 0.22,0.044 0.329,0.044 0.56,0 1.071,-0.374 1.224,-0.94 0.182,-0.676 -0.219,-1.371 -0.896,-1.553 l -3.058,-0.821 c -0.674,-0.182 -1.372,0.22 -1.554,0.896 -0.181,0.676 0.22,1.371 0.897,1.553 z"
       id="path266" /><path
       d="m 217.722,-103.519 -3.059,-0.821 c -0.674,-0.181 -1.372,0.219 -1.554,0.896 -0.182,0.676 0.22,1.371 0.896,1.553 l 3.059,0.821 c 0.11,0.03 0.221,0.044 0.33,0.044 0.56,0 1.071,-0.373 1.224,-0.939 0.182,-0.677 -0.22,-1.372 -0.896,-1.554 z"
       id="path268" /><path
       d="m 206.876,-120.752 c -0.426,0.557 -0.32,1.353 0.234,1.778 0.231,0.177 0.502,0.262 0.771,0.262 0.382,0 0.758,-0.171 1.007,-0.496 2.483,-3.239 0.987,-6.06 -0.149,-7.098 -0.519,-0.472 -1.32,-0.437 -1.792,0.081 -0.473,0.518 -0.436,1.319 0.081,1.791 0.065,0.059 1.552,1.461 -0.152,3.682 z"
       id="path270" /><path
       d="m 212.395,-116.86 c 0.229,0.177 0.502,0.262 0.771,0.262 0.38,0 0.758,-0.171 1.007,-0.496 3.989,-5.205 1.646,-9.684 -0.151,-11.324 -0.514,-0.47 -1.309,-0.434 -1.782,0.077 -0.473,0.511 -0.442,1.312 0.064,1.789 0.354,0.331 3.342,3.367 -0.144,7.914 -0.426,0.556 -0.322,1.352 0.235,1.778 z"
       id="path272" /></g></svg>
