<?xml version="1.0" encoding="UTF-8" standalone="no"?>
<svg
   version="1.1"
   x="0px"
   y="0px"
   viewBox="0 0 73.199219 95.022637"
   xml:space="preserve"
   id="svg18"
   sodipodi:docname="pdf-download.svg"
   width="73.199219"
   height="95.022636"
   inkscape:version="1.1.2 (0a00cf5339, 2022-02-04)"
   xmlns:inkscape="http://www.inkscape.org/namespaces/inkscape"
   xmlns:sodipodi="http://sodipodi.sourceforge.net/DTD/sodipodi-0.dtd"
   xmlns="http://www.w3.org/2000/svg"
   xmlns:svg="http://www.w3.org/2000/svg"><defs
     id="defs22" /><sodipodi:namedview
     id="namedview20"
     pagecolor="#ffffff"
     bordercolor="#666666"
     borderopacity="1.0"
     inkscape:pageshadow="2"
     inkscape:pageopacity="0.0"
     inkscape:pagecheckerboard="0"
     showgrid="false"
     fit-margin-top="0"
     fit-margin-left="0"
     fit-margin-right="0"
     fit-margin-bottom="0"
     inkscape:zoom="6.088"
     inkscape:cx="36.465177"
     inkscape:cy="60.693167"
     inkscape:window-width="1850"
     inkscape:window-height="1025"
     inkscape:window-x="1990"
     inkscape:window-y="27"
     inkscape:window-maximized="1"
     inkscape:current-layer="svg18" /><g
     id="g12"
     transform="translate(-13.5,-1.8)"
     style="fill:#404040"><path
       d="m 32.1,38.7 c 2.8,0 4.9,-0.6 6.2,-1.8 1.4,-1.2 2,-3.1 2,-5.6 0,-2.6 -0.7,-4.5 -2,-5.7 C 37,24.4 34.9,23.7 32,23.7 h -6.7 v 20.8 h 4.2 v -5.8 z m -2.6,-11 h 2.4 c 1.4,0 2.4,0.3 3.1,0.8 0.7,0.5 1,1.4 1,2.6 0,1.2 -0.3,2.1 -0.8,2.7 -0.5,0.6 -1.5,0.9 -2.9,0.9 h -2.8 z"
       id="path2"
       style="fill:#404040" /><path
       d="m 56.8,41.6 c 1.8,-1.9 2.6,-4.4 2.6,-7.7 0,-3.2 -0.9,-5.8 -2.7,-7.6 -1.8,-1.8 -4.4,-2.7 -7.8,-2.7 h -6.7 v 20.8 h 6.5 c 3.6,0.1 6.3,-0.9 8.1,-2.8 z m -3.2,-2.8 c -1,1.1 -2.5,1.6 -4.4,1.6 H 46.5 V 27.7 h 2.4 c 2.1,0 3.7,0.6 4.8,1.7 1,1.1 1.6,2.7 1.6,4.7 -0.1,2 -0.7,3.6 -1.7,4.7 z"
       id="path4"
       style="fill:#404040" /><polygon
       points="65.9,44.5 65.9,36.3 74.2,36.3 74.2,32.3 65.9,32.3 65.9,27.8 74.7,27.8 74.7,23.7 61.7,23.7 61.7,44.5 "
       id="polygon6"
       style="fill:#404040" /><path
       id="path8"
       transform="translate(13.5,1.8)"
       d="M 6.3007812,0 C 2.8007812,0 0,2.8007813 0,6.3007812 V 80.099609 c 0,3.5 2.8007812,6.300782 6.3007812,6.300782 H 20.199219 L 18.300781,84.5 16.400391,82.599609 H 6.4003906 c -1.4,0 -2.5,-1.1 -2.5,-2.5 V 6.3007812 c 0,-1.3999999 1.1,-2.4999999 2.5,-2.5 H 66.900391 c 1.4,0 2.5,1.1000001 2.5,2.5 V 80.099609 c 0,1.4 -1.1,2.5 -2.5,2.5 h -8.59961 L 56.400391,84.5 54.5,86.400391 h 12.400391 c 3.5,0 6.298828,-2.800782 6.298828,-6.300782 V 6.3007812 c -0.1,-3.5 -3,-6.3007812 -6.5,-6.3007812 z"
       style="fill:#404040" /><path
       id="polygon10"
       transform="translate(13.5,1.8)"
       d="m 41.550781,58.021484 c 9e-5,0.02083 -1.36e-4,0.07156 0,0.0957 0.0059,-8.2e-5 0.01172,2.7e-5 0.01758,0 -0.0023,-0.0475 -0.0041,-0.06357 -0.0059,-0.0957 -0.0039,-3.5e-5 -0.0078,3.4e-5 -0.01172,0 z m 1.429688,0.234375 c -0.02678,0.0021 -0.05332,0.0056 -0.08008,0.0078 0.02677,0.0043 0.05336,0.0089 0.08008,0.01367 2e-6,-0.0072 -3e-6,-0.01433 0,-0.02148 z m 2.138672,9.597657 c -0.0059,0.0011 -0.01169,0.0028 -0.01758,0.0039 0.0019,0.0026 0.0039,0.0052 0.0059,0.0078 0.0058,-0.0021 0.01179,-0.0037 0.01758,-0.0059 -0.0018,-0.0021 -0.0041,-0.0037 -0.0059,-0.0059 z M 44.875,67.904297 c -0.08459,0.01858 -0.169234,0.03567 -0.253906,0.05469 -2.8e-4,0.02474 2.82e-4,0.04948 0,0.07422 0.08503,-0.02816 0.168918,-0.05931 0.253906,-0.08789 2.36e-4,-0.01367 -2.11e-4,-0.02732 0,-0.04102 z m -19.429688,9.207031 c 0.01812,0.02602 0.03772,0.05464 0.05469,0.07813 -1.13e-4,-0.01563 -0.0018,-0.03127 -0.002,-0.04687 -0.01782,-0.01007 -0.03488,-0.02124 -0.05273,-0.03125 z"
       style="fill:#404040" /></g><g
     id="g4"
     transform="matrix(0.64557153,0,0,0.62551617,5.3987753,44.981344)"
     style="fill:#404040"><path
       d="M 78,47 H 60 V 19 c 0,-1.104 -0.896,-2 -2,-2 H 42 c -1.104,0 -2,0.896 -2,2 V 47 H 22 c -0.803,0 -1.527,0.479 -1.841,1.219 -0.314,0.738 -0.155,1.593 0.402,2.171 l 28,29 C 48.938,79.779 49.458,80 50,80 c 0.542,0 1.062,-0.221 1.439,-0.61 l 28,-29 c 0.557,-0.578 0.716,-1.433 0.402,-2.171 C 79.527,47.479 78.803,47 78,47 Z M 50,75.121 26.711,51 H 42 c 1.104,0 2,-0.896 2,-2 V 21 h 12 v 28 c 0,1.104 0.896,2 2,2 h 15.289 z"
       id="path2-3"
       style="fill:#404040" /></g></svg>
