<?xml version="1.0" encoding="UTF-8" standalone="no"?>
<svg
   version="1.1"
   x="0px"
   y="0px"
   viewBox="0 0 24 24"
   xml:space="preserve"
   id="svg16"
   sodipodi:docname="percent-up.svg"
   width="24"
   height="24"
   inkscape:version="1.2.2 (b0a8486541, 2022-12-01)"
   xmlns:inkscape="http://www.inkscape.org/namespaces/inkscape"
   xmlns:sodipodi="http://sodipodi.sourceforge.net/DTD/sodipodi-0.dtd"
   xmlns="http://www.w3.org/2000/svg"
   xmlns:svg="http://www.w3.org/2000/svg"><defs
     id="defs20" /><sodipodi:namedview
     id="namedview18"
     pagecolor="#ffffff"
     bordercolor="#000000"
     borderopacity="0.25"
     inkscape:showpageshadow="2"
     inkscape:pageopacity="0.0"
     inkscape:pagecheckerboard="0"
     inkscape:deskcolor="#d1d1d1"
     showgrid="false"
     inkscape:zoom="22.325"
     inkscape:cx="12.026876"
     inkscape:cy="12.474804"
     inkscape:window-width="1920"
     inkscape:window-height="1044"
     inkscape:window-x="3840"
     inkscape:window-y="0"
     inkscape:window-maximized="1"
     inkscape:current-layer="svg16" /><g
     id="g10"
     transform="translate(-4,-4)"
     style="fill:#6a6a6a"><path
       d="m 21,4 c -0.6,0 -1,0.4 -1,1 0,0.6 0.4,1 1,1 0,0 0,0 0,0 h 5 v 5 c 0,0.6 0.4,1 1,1 0.6,0 1,-0.4 1,-1 0,0 0,0 0,0 V 5 C 28,4.4 27.6,4 27,4 Z"
       id="path2"
       style="fill:#6a6a6a" /><path
       d="M 9,4 C 6.3,4 4,6.3 4,9 c 0,2.7 2.3,5 5,5 2.7,0 5,-2.3 5,-5 C 14,6.3 11.7,4 9,4 Z m 0,2 c 1.7,0 3,1.3 3,3 0,1.7 -1.3,3 -3,3 C 7.3,12 6,10.7 6,9 6,7.3 7.3,6 9,6 Z"
       id="path4"
       style="fill:#6a6a6a" /><path
       d="m 23,18 c -2.7,0 -5,2.3 -5,5 0,2.7 2.3,5 5,5 2.7,0 5,-2.3 5,-5 0,-2.7 -2.3,-5 -5,-5 z m 0,2 c 1.7,0 3,1.3 3,3 0,1.7 -1.3,3 -3,3 -1.7,0 -3,-1.3 -3,-3 0,-1.7 1.3,-3 3,-3 z"
       id="path6"
       style="fill:#6a6a6a" /><path
       d="m 26,5 c -0.3,0 -0.5,0.1 -0.7,0.3 l -21,21 c -0.4,0.4 -0.4,1 0,1.4 0.4,0.4 1,0.4 1.4,0 0,0 0,0 0,0 l 21,-21 c 0.4,-0.4 0.4,-1 0,-1.4 C 26.5,5.1 26.3,5 26,5 Z"
       id="path8"
       style="fill:#6a6a6a" /></g></svg>
