<?xml version="1.0" encoding="UTF-8" standalone="no"?>
<svg
   viewBox="0 0 23.830334 23.882999"
   x="0px"
   y="0px"
   version="1.1"
   id="svg20"
   sodipodi:docname="perfilCompartir.svg"
   width="23.830334"
   height="23.882999"
   inkscape:version="1.1.2 (0a00cf5339, 2022-02-04)"
   xmlns:inkscape="http://www.inkscape.org/namespaces/inkscape"
   xmlns:sodipodi="http://sodipodi.sourceforge.net/DTD/sodipodi-0.dtd"
   xmlns="http://www.w3.org/2000/svg"
   xmlns:svg="http://www.w3.org/2000/svg"
   xmlns:rdf="http://www.w3.org/1999/02/22-rdf-syntax-ns#"
   xmlns:cc="http://creativecommons.org/ns#"
   xmlns:dc="http://purl.org/dc/elements/1.1/">
  <defs
     id="defs24" />
  <sodipodi:namedview
     id="namedview22"
     pagecolor="#ffffff"
     bordercolor="#666666"
     borderopacity="1.0"
     inkscape:pageshadow="2"
     inkscape:pageopacity="0.0"
     inkscape:pagecheckerboard="0"
     showgrid="false"
     fit-margin-top="0"
     fit-margin-left="0"
     fit-margin-right="0"
     fit-margin-bottom="0"
     inkscape:zoom="21.742857"
     inkscape:cx="11.911958"
     inkscape:cy="15.430355"
     inkscape:window-width="1850"
     inkscape:window-height="1025"
     inkscape:window-x="1990"
     inkscape:window-y="27"
     inkscape:window-maximized="1"
     inkscape:current-layer="svg20" />
  <title
     id="title2">icon_42Artboard 1</title>
  <g
     id="g14"
     transform="translate(-2.0862222,-2.059)"
     style="fill:#959595">
    <rect
       x="12.516"
       y="2.059"
       width="1"
       height="23.882999"
       id="rect4"
       style="fill:#959595" />
    <path
       d="m 6.056,7.747 h 0.005 a 1.7,1.7 0 1 0 -0.005,0 z"
       id="path6"
       style="fill:#959595" />
    <path
       d="M 8.594,8.4 C 7.741,8.387 4.356,8.386 3.517,8.4 A 1.4,1.4 0 0 0 2.092,9.852 c -0.013,1.654 0,5.878 0,5.878 A 0.86,0.86 0 0 0 2.151,16.088 0.529,0.529 0 0 0 2.64,16.43 0.742,0.742 0 0 0 2.814,16.407 0.572,0.572 0 0 0 3.272,15.77 v -5.135 a 0.377,0.377 0 0 1 0.377,-0.377 v 0 a 0.377,0.377 0 0 1 0.377,0.377 V 22.78 a 2.282,2.282 0 0 0 0.014,0.363 0.824,0.824 0 0 0 0.785,0.706 H 4.84 a 0.831,0.831 0 0 0 0.8,-0.717 2.5,2.5 0 0 0 0.012,-0.361 c 0,0 0,-3.995 0,-5.594 a 0.415,0.415 0 0 1 0.119,-0.3 0.4,0.4 0 0 1 0.683,0.293 v 5.517 a 2.566,2.566 0 0 0 0.04,0.542 0.806,0.806 0 0 0 0.8,0.613 v 0 A 0.816,0.816 0 0 0 8.057,23.12 2.43,2.43 0 0 0 8.07,22.8 c 0,0 0,-10.389 0,-12.171 a 0.3775,0.3775 0 0 1 0.755,0 c 0,0 0,3.959 0,5.085 0,0.437 0.23,0.708 0.61,0.708 v 0 c 0.358,-0.008 0.582,-0.272 0.583,-0.692 0.007,-1.959 0.012,-3.918 0,-5.877 A 1.4,1.4 0 0 0 8.594,8.4 Z"
       id="path8"
       style="fill:#959595" />
    <path
       d="m 21.088,7.689 h 0.04 a 1.722,1.722 0 1 0 -0.04,0 z"
       id="path10"
       style="fill:#959595" />
    <path
       d="m 25.893,15.281 c 0,0 -0.826,-4 -1.156,-5.536 A 1.424,1.424 0 0 0 23.192,8.47 c -0.708,0 -3.464,0 -4.135,0 a 1.408,1.408 0 0 0 -1.511,1.25 l -1.1,5.247 a 1.292,1.292 0 0 0 0.026,0.908 0.474,0.474 0 0 0 0.331,0.188 0.79,0.79 0 0 0 0.155,0.016 c 0.218,0 0.462,-0.1 0.623,-0.877 0,0 0.805,-3.826 1.032,-4.919 a 0.4,0.4 0 0 1 0.774,0.163 L 17.7,18.59 h 1.445 v 3.964 c 0,0.519 0.137,1.139 0.8,1.148 0.682,0 0.785,-0.7 0.785,-1.123 v -3.464 a 0.395,0.395 0 0 1 0.681,-0.279 0.437,0.437 0 0 1 0.128,0.312 v 0.382 c 0,1.1 -0.008,2.205 0.006,3.307 a 0.805,0.805 0 0 0 0.78,0.865 h 0.032 a 0.806,0.806 0 0 0 0.76,-0.875 c 0.007,-0.435 0,-4.252 0,-4.252 h 1.453 l -1.664,-8.141 a 0.4,0.4 0 0 1 0.774,-0.159 c 0.308,1.5 0.794,3.881 1.085,5.244 a 0.612,0.612 0 0 0 0.568,0.559 0.749,0.749 0 0 0 0.164,-0.019 c 0.333,-0.074 0.481,-0.366 0.396,-0.778 z"
       id="path12"
       style="fill:#959595" />
  </g>
  <metadata
     id="metadata26">
    <rdf:RDF>
      <cc:Work
         rdf:about="">
        <dc:title>icon_42Artboard 1</dc:title>
      </cc:Work>
    </rdf:RDF>
  </metadata>
</svg>
