<?xml version="1.0" encoding="UTF-8" standalone="no"?>
<svg
   width="956.05688pt"
   height="817.20538pt"
   version="1.1"
   viewBox="0 0 956.05688 817.20538"
   id="svg4"
   sodipodi:docname="pets ok.svg"
   inkscape:version="1.1.2 (0a00cf5339, 2022-02-04)"
   xmlns:inkscape="http://www.inkscape.org/namespaces/inkscape"
   xmlns:sodipodi="http://sodipodi.sourceforge.net/DTD/sodipodi-0.dtd"
   xmlns="http://www.w3.org/2000/svg"
   xmlns:svg="http://www.w3.org/2000/svg">
  <defs
     id="defs8" />
  <sodipodi:namedview
     id="namedview6"
     pagecolor="#ffffff"
     bordercolor="#666666"
     borderopacity="1.0"
     inkscape:pageshadow="2"
     inkscape:pageopacity="0.0"
     inkscape:pagecheckerboard="0"
     inkscape:document-units="pt"
     showgrid="false"
     fit-margin-top="0"
     fit-margin-left="0"
     fit-margin-right="0"
     fit-margin-bottom="0"
     inkscape:zoom="0.475625"
     inkscape:cx="632.85151"
     inkscape:cy="517.21419"
     inkscape:window-width="1920"
     inkscape:window-height="1052"
     inkscape:window-x="3840"
     inkscape:window-y="0"
     inkscape:window-maximized="1"
     inkscape:current-layer="svg4" />
  <path
     d="m 211.05395,279.76138 c 26.535,75.598 3.2266,152.62 -52.035,171.99 -55.242,19.383 -121.549999,-26.195 -148.069999,-101.79 -26.512,-75.617 -3.2265999,-152.62 52.035,-172.01 55.265999,-19.383 121.559999,26.199 148.069999,101.82 z m 444.84,537.44 c -24.113,0.031 -47.996,-4.7031 -70.277,-13.93 -22.277,-9.2266 -42.516,-22.766 -59.547,-39.836 -12.734,-12.75 -30.02,-19.914 -48.039,-19.914 -18.019,0 -35.301,7.1641 -48.039,19.914 -34.434,34.43 -81.137,53.773 -129.83,53.77 -48.695,0 -95.395,-19.348 -129.83,-53.781 -34.43,-34.434 -53.773,-81.137 -53.773,-129.83 0.004,-48.695 19.352,-95.398 53.785,-129.83 54,-54.035 121.27,-92.895 195.06,-112.67 73.785,-19.777 151.48,-19.777 225.26,0 73.781,19.777 141.06,58.637 195.06,112.67 25.68,25.676 43.168,58.391 50.254,94.008 7.0859,35.617 3.4531,72.535 -10.445,106.09 -13.895,33.551 -37.43,62.227 -67.625,82.402 -30.195,20.176 -65.695,30.941 -102.01,30.941 z m -196.27,-663.11 c 8.625,91.184 -38.41,170.24 -105.04,176.55 -66.652,6.3086 -127.7,-62.52 -136.32,-153.72 -8.625,-91.184003 38.387,-170.2200028 105.06,-176.52000275 66.633,-6.30860005 127.65,62.49599975 136.3,153.70000275 z m 36.805,0 c -8.625,91.184 38.387,170.24 105.06,176.55 66.633,6.3086 127.65,-62.52 136.28,-153.72 8.6484,-91.184003 -38.387,-170.2200028 -105.04,-176.52000275 -66.629,-6.30860005 -127.67,62.49599975 -136.3,153.70000275 z m 248.55,125.67 c -26.512,75.598 -3.2227,152.63 52.039,171.99 55.262,19.383 121.56,-26.195 148.09,-101.79 26.512,-75.617 3.2266,-152.62 -52.035,-172.01 -55.266,-19.383 -121.56,26.199 -148.09,101.82 z"
     id="path2"
     style="fill:#434343" />
</svg>
