<?xml version="1.0" encoding="UTF-8" standalone="no"?>
<svg
   width="1231.0121pt"
   height="1110.3611pt"
   version="1.1"
   viewBox="0 0 1231.0121 1110.3611"
   id="svg4"
   sodipodi:docname="pets no.svg"
   inkscape:version="1.1.2 (0a00cf5339, 2022-02-04)"
   xmlns:inkscape="http://www.inkscape.org/namespaces/inkscape"
   xmlns:sodipodi="http://sodipodi.sourceforge.net/DTD/sodipodi-0.dtd"
   xmlns="http://www.w3.org/2000/svg"
   xmlns:svg="http://www.w3.org/2000/svg">
  <defs
     id="defs8" />
  <sodipodi:namedview
     id="namedview6"
     pagecolor="#ffffff"
     bordercolor="#666666"
     borderopacity="1.0"
     inkscape:pageshadow="2"
     inkscape:pageopacity="0.0"
     inkscape:pagecheckerboard="0"
     inkscape:document-units="pt"
     showgrid="false"
     fit-margin-top="0"
     fit-margin-left="0"
     fit-margin-right="0"
     fit-margin-bottom="0"
     inkscape:zoom="0.475625"
     inkscape:cx="998.68594"
     inkscape:cy="739.0276"
     inkscape:window-width="1850"
     inkscape:window-height="1025"
     inkscape:window-x="1990"
     inkscape:window-y="27"
     inkscape:window-maximized="1"
     inkscape:current-layer="svg4" />
  <path
     d="m 486.00914,572.91708 c 26.535,75.598 3.2266,152.62 -52.035,171.99 -55.242,19.383 -121.55,-26.195 -148.07,-101.79 -26.512,-75.617 -3.2266,-152.62 52.035,-172.01 55.266,-19.383 121.56,26.199 148.07,101.82 z m 444.84,537.44002 c -24.113,0.031 -47.996,-4.7031 -70.277,-13.93 -22.277,-9.2266 -42.516,-22.766 -59.547,-39.836 -12.734,-12.75 -30.02,-19.914 -48.039,-19.914 -18.019,0 -35.301,7.1641 -48.039,19.914 -34.434,34.43 -81.137,53.773 -129.83,53.77 -48.695,0 -95.395,-19.348 -129.83,-53.781 -34.43,-34.434 -53.773,-81.13702 -53.773,-129.83002 0.004,-48.695 19.352,-95.398 53.785,-129.83 54,-54.035 121.27,-92.895 195.06,-112.67 73.785,-19.777 151.48,-19.777 225.26,0 73.781,19.777 141.05996,58.637 195.05996,112.67 25.68,25.676 43.168,58.391 50.254,94.008 7.0859,35.617 3.4531,72.535 -10.445,106.09 -13.895,33.55102 -37.43,62.22702 -67.625,82.40202 -30.195,20.176 -65.69496,30.941 -102.00996,30.941 z m -196.27,-663.11002 c 8.625,91.184 -38.41,170.24 -105.04,176.55 -66.652,6.3086 -127.7,-62.52 -136.32,-153.72 -8.625,-91.184 38.387,-170.22 105.06,-176.52 66.633,-6.3086 127.65,62.496 136.3,153.7 z m 36.805,0 c -8.625,91.184 38.387,170.24 105.06,176.55 66.633,6.3086 127.64996,-62.52 136.27996,-153.72 8.6484,-91.184 -38.38696,-170.22 -105.03996,-176.52 -66.629,-6.3086 -127.67,62.496 -136.3,153.7 z m 248.54996,125.67 c -26.51196,75.598 -3.2227,152.63 52.039,171.99 55.262,19.383 121.56,-26.195 148.09,-101.79 26.512,-75.617 3.2266,-152.62 -52.035,-172.01 -55.266,-19.383 -121.56,26.199 -148.09,101.82 z"
     id="path2"
     style="fill:#474747" />
  <path
     d="m 398.80245,418.70195 c 90.62374,-95.35399 90.62374,-251.83238 0,-347.186465 -90.62371,-95.35398 -239.33956,-95.35398 -329.963272,0 -91.78557,95.354085 -91.78557,251.832475 0,347.186465 90.623712,95.354 238.177722,95.354 329.963272,0 z M 116.47471,121.63752 C 173.40501,61.735605 262.86689,54.400685 327.93006,100.85525 L 96.723388,342.90775 C 52.573368,275.67094 58.382578,181.53942 116.47471,121.63752 Z m 254.44352,24.44976 c 44.15002,68.4593 37.17896,161.36834 -19.75131,222.49269 -56.9303,59.90188 -146.39218,67.23681 -211.45535,20.7823 z"
     id="path6"
     style="fill:#dc3545;stroke-width:11.9178" />
</svg>
