<?xml version="1.0" encoding="UTF-8" standalone="no"?>
<svg
   version="1.1"
   x="0px"
   y="0px"
   viewBox="0 0 66.625 62.458332"
   id="svg8"
   sodipodi:docname="pets_question.svg"
   width="66.625"
   height="62.458332"
   inkscape:version="1.1.2 (0a00cf5339, 2022-02-04)"
   xmlns:inkscape="http://www.inkscape.org/namespaces/inkscape"
   xmlns:sodipodi="http://sodipodi.sourceforge.net/DTD/sodipodi-0.dtd"
   xmlns="http://www.w3.org/2000/svg"
   xmlns:svg="http://www.w3.org/2000/svg">
  <defs
     id="defs12" />
  <sodipodi:namedview
     id="namedview10"
     pagecolor="#ffffff"
     bordercolor="#666666"
     borderopacity="1.0"
     inkscape:pageshadow="2"
     inkscape:pageopacity="0.0"
     inkscape:pagecheckerboard="0"
     showgrid="false"
     fit-margin-top="0"
     fit-margin-left="0"
     fit-margin-right="0"
     fit-margin-bottom="0"
     inkscape:zoom="6.088"
     inkscape:cx="33.180026"
     inkscape:cy="45.663601"
     inkscape:window-width="1920"
     inkscape:window-height="1052"
     inkscape:window-x="3840"
     inkscape:window-y="0"
     inkscape:window-maximized="1"
     inkscape:current-layer="svg8" />
  <path
     d="M 66.625005,12.666663 V 8.3333293 H 60.375004 C 59.125004,1.2083288 53.833337,-4.6632867e-6 50.66667,-4.6632867e-6 42.291669,-4.6632867e-6 38.708336,7.874996 38.708336,11.416663 c 0,5.916667 2.041667,8.375001 5.666667,8.375001 l 0.08333,3.125 c -4.75,0 -7.708334,-2.375 -8.083334,-6.208334 C 16.791667,24.458331 13.291667,46.166666 12.458334,56.208333 H -6.633267e-7 C -6.633267e-7,59.625 1.6666661,62.458334 6.4166665,62.458334 H 20.750001 l 0.04167,-2.666667 c 0.08333,-6.333334 0.458333,-15.583335 12.500001,-20.666669 V 27.083331 l 4.791667,4.375 c 2.208333,-0.666667 4.875,-0.625 7.166667,0.04167 l 4.708334,-4.416667 v 5.75 c 0,9.458334 -4.208334,10.750001 -4.208334,18.041668 v 11.583335 h 16.041668 c 1.375,-5.000001 -1.833334,-6.083334 -7.666667,-6.250001 0,-15.041668 4.166667,-21.125002 4.166667,-34.166669 C 62.958341,20.875 66.625008,17.75 66.625008,12.666666 Z M 29.416668,50.874999 28.583335,54 c 5.416667,1.083333 6.583334,3.75 6.583334,8.458334 h 3.125 c 0.04167,-6.375001 -2.375,-10.083334 -8.875001,-11.583335 z m 0,0"
     fill="#000000"
     stroke="none"
     stroke-dasharray="none"
     stroke-linecap="inherit"
     stroke-linejoin="inherit"
     stroke-width="0.0416667"
     id="path2"
     style="fill:#494949" />
</svg>
