<?xml version="1.0" encoding="UTF-8" standalone="no"?>
<svg
   viewBox="0 0 93.660004 93.90538"
   x="0px"
   y="0px"
   version="1.1"
   id="svg24"
   sodipodi:docname="poolprivate3.svg"
   width="93.660004"
   height="93.90538"
   inkscape:version="1.1.2 (0a00cf5339, 2022-02-04)"
   xmlns:inkscape="http://www.inkscape.org/namespaces/inkscape"
   xmlns:sodipodi="http://sodipodi.sourceforge.net/DTD/sodipodi-0.dtd"
   xmlns="http://www.w3.org/2000/svg"
   xmlns:svg="http://www.w3.org/2000/svg"
   xmlns:rdf="http://www.w3.org/1999/02/22-rdf-syntax-ns#"
   xmlns:cc="http://creativecommons.org/ns#"
   xmlns:dc="http://purl.org/dc/elements/1.1/">
  <defs
     id="defs28" />
  <sodipodi:namedview
     id="namedview26"
     pagecolor="#ffffff"
     bordercolor="#666666"
     borderopacity="1.0"
     inkscape:pageshadow="2"
     inkscape:pageopacity="0.0"
     inkscape:pagecheckerboard="0"
     showgrid="false"
     fit-margin-top="0"
     fit-margin-left="0"
     fit-margin-right="0"
     fit-margin-bottom="0"
     inkscape:zoom="6.088"
     inkscape:cx="46.813403"
     inkscape:cy="59.543364"
     inkscape:window-width="1850"
     inkscape:window-height="1025"
     inkscape:window-x="1990"
     inkscape:window-y="27"
     inkscape:window-maximized="1"
     inkscape:current-layer="svg24" />
  <title
     id="title2">FILE</title>
  <g
     data-name="ICON 02"
     id="g18"
     transform="translate(-3.17,-2.9846165)"
     style="fill:#5e5e5e">
    <path
       d="m 96.83,62 a 1,1 0 0 0 -1,-1 H 75.35 a 3,3 0 0 0 0.18,-1 V 29.8 l 2.16,1.55 a 3.5,3.5 0 0 0 5.5,-3.4 3.49,3.49 0 0 0 -1.41,-2.28 L 50.58,3.17 a 1,1 0 0 0 -1.16,0 l -31.2,22.5 a 3.5,3.5 0 0 0 -0.79,4.89 3.5,3.5 0 0 0 4.88,0.79 L 24.47,29.8 V 60 a 3,3 0 0 0 0.18,1 H 4.17 a 1,1 0 0 0 0,2 h 4.25 l 1.75,4.6 a 7.34,7.34 0 0 0 -1.59,4.56 1,1 0 0 0 2,0 5.44,5.44 0 0 1 0.48,-2.16 l 2.25,5.9 a 7.29,7.29 0 0 0 -1.58,4.54 1,1 0 0 0 2,0 5.35,5.35 0 0 1 0.48,-2.19 l 6.85,18 a 1,1 0 0 0 0.93,0.64 H 95.5 a 1,1 0 0 0 0.85,-1.52 L 76.41,63 h 19.42 a 1,1 0 0 0 1,-1 z M 21.14,29.73 A 1.5,1.5 0 0 1 19.05,29.39 1.48,1.48 0 0 1 19.39,27.3 L 50,5.22 80.61,27.3 a 1.5,1.5 0 0 1 -1.75,2.43 L 50.58,9.34 a 1,1 0 0 0 -1.16,0 z M 26.47,60 V 28.36 L 50,11.38 l 23.53,17 V 60 a 1,1 0 0 1 -1,1 H 47.48 V 40.58 a 5,5 0 0 0 -5,-5 h -7.37 a 5,5 0 0 0 -5,5 V 61 h -2.64 a 1,1 0 0 1 -1,-1 z m -3.14,22.74 v -5.63 a 5.31,5.31 0 0 1 1.15,3.28 v 5.36 z m -2,-9.37 a 6.82,6.82 0 0 0 -1.7,-0.32 L 17.32,67 a 5.37,5.37 0 0 1 4,5.18 z m -3.78,-0.18 a 7.21,7.21 0 0 0 -2.67,1.17 l -2.39,-6.28 a 5.4,5.4 0 0 1 2.65,-1.22 z m 3.78,2.33 v 2 l -0.87,-2.27 a 5.26,5.26 0 0 1 0.87,0.27 z m 2,-1.16 v -2.2 A 7.38,7.38 0 0 0 16.5,64.81 L 15.81,63 H 68.58 L 85.35,90.16 H 26.48 V 80.39 A 7.37,7.37 0 0 0 23.33,74.36 Z M 45.48,61 H 32.11 V 40.58 a 3,3 0 0 1 3,-3 h 7.37 a 3,3 0 0 1 3,3 z m -31.81,2 0.74,2 a 7.36,7.36 0 0 0 -2.67,1.16 L 10.56,63 Z m 80,31.83 h -71 l -7,-18.5 a 5.28,5.28 0 0 1 2.65,-1.23 l 6.25,16.42 a 1,1 0 0 0 0.23,0.34 v 0 a 0.76,0.76 0 0 0 0.26,0.18 h 0.06 a 1,1 0 0 0 0.36,0.07 H 87.14 A 1,1 0 0 0 88,90.64 L 70.93,63 h 3.13 z"
       id="path4"
       style="fill:#5e5e5e" />
    <path
       d="m 29.17,68 a 2.47,2.47 0 0 1 1.49,0.46 4.61,4.61 0 0 0 5,0 2.64,2.64 0 0 1 3,0 4.61,4.61 0 0 0 5,0 2.5,2.5 0 0 1 1.5,-0.46 2.45,2.45 0 0 1 1.49,0.46 4.43,4.43 0 0 0 2.53,0.75 1,1 0 0 0 0,-2 2.48,2.48 0 0 1 -1.5,-0.46 4.61,4.61 0 0 0 -5,0 2.5,2.5 0 0 1 -1.5,0.46 2.45,2.45 0 0 1 -1.49,-0.46 4.61,4.61 0 0 0 -5,0 2.64,2.64 0 0 1 -3,0 4.39,4.39 0 0 0 -2.52,-0.75 1,1 0 0 0 0,2 z"
       id="path6"
       style="fill:#5e5e5e" />
    <path
       d="m 48.54,73.4 a 1,1 0 0 0 1,1 2.38,2.38 0 0 1 1.49,0.46 4.66,4.66 0 0 0 5,0 2.66,2.66 0 0 1 3,0 4.66,4.66 0 0 0 5,0 2.66,2.66 0 0 1 3,0 4.37,4.37 0 0 0 2.52,0.74 1,1 0 0 0 0,-2 2.41,2.41 0 0 1 -1.49,-0.46 4.68,4.68 0 0 0 -5.05,0 2.64,2.64 0 0 1 -3,0 4.68,4.68 0 0 0 -5.05,0 2.64,2.64 0 0 1 -3,0 4.37,4.37 0 0 0 -2.52,-0.74 1,1 0 0 0 -0.9,1 z"
       id="path8"
       style="fill:#5e5e5e" />
    <path
       d="m 53.39,80.92 a 1,1 0 0 0 -1,-1 2.41,2.41 0 0 1 -1.5,-0.46 4.37,4.37 0 0 0 -2.52,-0.74 4.44,4.44 0 0 0 -2.53,0.74 2.64,2.64 0 0 1 -3,0 4.66,4.66 0 0 0 -5,0 2.41,2.41 0 0 1 -1.49,0.46 2.44,2.44 0 0 1 -1.5,-0.46 4.37,4.37 0 0 0 -2.52,-0.74 1,1 0 0 0 0,2 2.44,2.44 0 0 1 1.5,0.46 4.66,4.66 0 0 0 5,0 2.64,2.64 0 0 1 3,0 4.66,4.66 0 0 0 5,0 2.41,2.41 0 0 1 1.5,-0.46 2.38,2.38 0 0 1 1.49,0.46 4.41,4.41 0 0 0 2.53,0.74 1,1 0 0 0 1.04,-1 z"
       id="path10"
       style="fill:#5e5e5e" />
    <path
       d="m 66.22,85.9 a 2.66,2.66 0 0 1 -3,0 4.61,4.61 0 0 0 -5,0 2.64,2.64 0 0 1 -3,0 4.37,4.37 0 0 0 -2.52,-0.75 1,1 0 0 0 0,2 2.45,2.45 0 0 1 1.49,0.46 4.61,4.61 0 0 0 5,0 2.64,2.64 0 0 1 3,0 4.43,4.43 0 0 0 2.53,0.75 4.37,4.37 0 0 0 2.52,-0.75 2.66,2.66 0 0 1 3,0 4.37,4.37 0 0 0 2.52,0.75 1,1 0 0 0 0,-2 2.45,2.45 0 0 1 -1.49,-0.46 4.43,4.43 0 0 0 -2.53,-0.75 4.37,4.37 0 0 0 -2.52,0.75 z"
       id="path12"
       style="fill:#5e5e5e" />
    <path
       d="m 51.17,52.12 h 17.72 a 1,1 0 0 0 0,-2 H 68.3 V 38.58 a 1,1 0 0 0 -1,-1 H 52.76 a 1,1 0 0 0 -1,1 v 11.54 h -0.59 a 1,1 0 0 0 0,2 z M 53.76,39.58 H 66.3 V 50.12 H 53.76 Z"
       id="path14"
       style="fill:#5e5e5e" />
    <circle
       cx="34.540001"
       cy="49.290001"
       r="0.92000002"
       id="circle16"
       style="fill:#5e5e5e" />
  </g>
  <metadata
     id="metadata30">
    <rdf:RDF>
      <cc:Work
         rdf:about="">
        <dc:title>FILE</dc:title>
      </cc:Work>
    </rdf:RDF>
  </metadata>
</svg>
