<?xml version="1.0" encoding="UTF-8" standalone="no"?>
<svg
   version="1.1"
   x="0px"
   y="0px"
   viewBox="0 0 475.55701 453.04242"
   xml:space="preserve"
   id="svg38"
   sodipodi:docname="pool-views.svg"
   width="475.55701"
   height="453.04242"
   inkscape:version="1.1.2 (0a00cf5339, 2022-02-04)"
   xmlns:inkscape="http://www.inkscape.org/namespaces/inkscape"
   xmlns:sodipodi="http://sodipodi.sourceforge.net/DTD/sodipodi-0.dtd"
   xmlns="http://www.w3.org/2000/svg"
   xmlns:svg="http://www.w3.org/2000/svg"><defs
     id="defs42" /><sodipodi:namedview
     id="namedview40"
     pagecolor="#ffffff"
     bordercolor="#666666"
     borderopacity="1.0"
     inkscape:pageshadow="2"
     inkscape:pageopacity="0.0"
     inkscape:pagecheckerboard="0"
     showgrid="false"
     fit-margin-top="0"
     fit-margin-left="0"
     fit-margin-right="0"
     fit-margin-bottom="0"
     inkscape:zoom="1.1890625"
     inkscape:cx="237.16163"
     inkscape:cy="290.56505"
     inkscape:window-width="1850"
     inkscape:window-height="1025"
     inkscape:window-x="1990"
     inkscape:window-y="27"
     inkscape:window-maximized="1"
     inkscape:current-layer="svg38" /><g
     id="g32"
     transform="translate(-18.12,-29.47957)"
     style="fill:#4a4a4a"><path
       d="m 437.001,412.844 c -0.161,0 -0.304,0 -0.447,0 -13.056,0 -19.933,4.037 -26.024,7.609 -5.376,3.161 -10.002,5.34 -18.968,5.573 -9.288,-0.071 -13.485,-2.626 -18.826,-5.858 -6.091,-3.715 -12.985,-7.912 -26.327,-8.02 -14.235,-0.054 -20.272,4.001 -26.416,7.609 -5.305,3.108 -9.502,5.573 -18.522,5.573 -0.161,0 -0.357,-0.018 -0.464,0 -4.019,0 -7.287,3.251 -7.323,7.269 -0.018,4.037 3.233,7.341 7.269,7.377 12.824,-0.232 20.308,-4.001 26.452,-7.609 5.305,-3.108 9.502,-5.573 18.54,-5.573 0.107,0 0.232,0 0.357,0 9.288,0.071 13.503,2.626 18.843,5.876 6.091,3.697 12.985,7.895 26.309,8.002 0.161,0 0.339,0 0.5,0 13.021,0 19.897,-4.037 25.97,-7.591 5.394,-3.179 9.556,-5.591 18.968,-5.591 4.447,-0.268 7.341,-3.233 7.377,-7.269 0.02,-4.037 -3.231,-7.341 -7.268,-7.377 z"
       id="path2"
       style="fill:#4a4a4a" /><path
       d="m 121.37,434.67 c 0.92,0 1.875,-0.018 2.858,-0.071 13.306,-0.625 20.031,-5.09 25.961,-9.02 5.189,-3.447 9.279,-6.18 18.549,-6.609 9.27,-0.464 13.628,1.875 19.12,4.822 6.278,3.358 13.378,7.198 26.711,6.537 4.037,-0.196 7.153,-3.608 6.957,-7.645 -0.188,-4.037 -3.733,-6.823 -7.653,-6.966 -9.35,0.375 -13.637,-1.893 -19.12,-4.822 -6.287,-3.358 -13.449,-7.305 -26.702,-6.537 -13.306,0.625 -20.031,5.09 -25.961,9.02 -5.189,3.447 -9.279,6.18 -18.549,6.609 -9.359,0.375 -13.637,-1.893 -19.12,-4.822 -6.278,-3.376 -13.324,-7.377 -26.702,-6.555 -4.037,0.179 -7.153,3.608 -6.966,7.645 0.188,4.054 3.536,7.037 7.645,6.966 9.341,-0.447 13.628,1.875 19.12,4.84 5.812,3.108 12.35,6.608 23.852,6.608 z"
       id="path4"
       style="fill:#4a4a4a" /><path
       d="m 410.21,453.764 c -12.949,-0.107 -20.326,3.983 -26.47,7.609 -5.394,3.144 -8.788,5.394 -18.968,5.573 -9.288,-0.071 -13.503,-2.626 -18.826,-5.858 -6.091,-3.715 -12.985,-7.912 -26.327,-8.02 -13.128,-0.304 -20.308,3.983 -26.452,7.609 -5.287,3.108 -9.484,5.573 -18.504,5.573 -0.125,0 -0.25,0 -0.393,0 -4.492,-0.679 -7.35,3.233 -7.368,7.269 -0.036,4.037 3.215,7.341 7.26,7.377 13.324,0.393 20.29,-3.983 26.434,-7.609 5.287,-3.108 9.502,-5.591 18.522,-5.591 0.125,0 0.25,0.018 0.393,0.018 9.288,0.071 13.503,2.626 18.826,5.858 6.091,3.715 12.985,7.912 26.327,8.02 0.161,0 0.339,0 0.5,0 13.021,0 19.897,-4.037 25.97,-7.609 5.323,-3.108 9.52,-5.591 18.575,-5.591 0.143,0 0.232,0 0.447,0.018 4.019,0 7.287,-3.251 7.323,-7.269 0.018,-4.037 -3.233,-7.342 -7.269,-7.377 z"
       id="path6"
       style="fill:#4a4a4a" /><path
       d="m 231.028,463.569 c -9.261,0.429 -13.619,-1.893 -19.111,-4.822 -6.278,-3.358 -13.494,-7.287 -26.711,-6.537 -13.306,0.625 -20.022,5.09 -25.952,9.02 -5.189,3.447 -9.288,6.18 -18.558,6.609 -9.279,0.411 -13.619,-1.893 -19.111,-4.822 -6.278,-3.358 -13.369,-7.216 -26.72,-6.537 -4.037,0.196 -7.153,3.608 -6.957,7.645 0.196,4.054 3.679,7.019 7.653,6.966 9.154,-0.393 13.61,1.875 19.12,4.822 5.814,3.108 12.342,6.609 23.844,6.609 0.92,0 1.875,-0.018 2.858,-0.071 13.315,-0.625 20.031,-5.09 25.97,-9.02 5.18,-3.447 9.27,-6.18 18.54,-6.609 9.1,-0.447 13.619,1.875 19.12,4.822 6.278,3.358 13.315,7.323 26.711,6.537 4.037,-0.196 7.153,-3.608 6.957,-7.645 -0.196,-4.055 -3.688,-7.074 -7.653,-6.967 z"
       id="path8"
       style="fill:#4a4a4a" /><path
       d="m 486.357,217.409 h -36.388 v -20.165 c 0,-16.959 -13.807,-30.757 -30.775,-30.757 -16.968,0 -30.775,13.798 -30.775,30.757 v 20.165 h -15.468 v -20.165 c 0,-16.959 -13.807,-30.757 -30.775,-30.757 -16.95,0 -30.757,13.798 -30.757,30.757 v 20.165 H 289.182 V 201.62 h 6.144 c 4.037,0 7.323,-3.278 7.323,-7.314 0,-4.036 -3.286,-7.314 -7.323,-7.314 h -85.072 l -6.734,-19.745 c -1.304,-3.84 -5.519,-5.894 -9.279,-4.564 -3.831,1.304 -5.867,5.457 -4.564,9.279 l 8.421,24.702 c 1.009,2.965 3.787,4.956 6.921,4.956 h 5.599 v 15.789 h -47.653 v -66.256 h 83.679 c 4.037,0 7.314,-3.277 7.314,-7.314 0,-51.703 -40.25,-93.75 -90.993,-97.568 v -6.312 c 0,-4.037 -3.277,-7.314 -7.314,-7.314 -4.037,0 -7.314,3.278 -7.314,7.314 v 6.312 c -50.743,3.818 -90.993,45.865 -90.993,97.568 0,4.037 3.278,7.314 7.314,7.314 h 83.679 v 66.256 H 25.434 c -4.037,0 -7.314,3.277 -7.314,7.314 0,4.037 3.278,7.314 7.314,7.314 H 311.42 v 122.369 c -1.505,-0.137 -2.834,-0.383 -4.537,-0.396 -0.161,0 -0.304,0 -0.447,0 -13.039,0 -19.915,4.037 -25.988,7.609 -5.376,3.161 -9.966,5.287 -18.924,5.573 -9.288,-0.071 -13.494,-2.626 -18.817,-5.858 -6.091,-3.715 -12.985,-7.912 -26.318,-8.02 -13.619,-0.214 -20.272,4.001 -26.408,7.609 -5.296,3.126 -9.484,5.573 -18.406,5.573 -0.009,0 -0.027,0 -0.036,0 -9.207,-0.107 -13.548,-2.697 -19.049,-5.966 -6.234,-3.715 -13.306,-7.93 -26.622,-8.037 -13.298,0 -20.317,3.983 -26.47,7.609 -5.394,3.161 -9.824,5.251 -18.959,5.573 -8.529,-0.071 -12.842,-2.25 -17.593,-5.108 -3.483,-2.125 -7.975,-0.965 -10.038,2.501 -2.081,3.465 -0.964,7.966 2.501,10.038 5.975,3.59 12.833,7.109 25.014,7.216 13.699,0.429 20.335,-3.983 26.479,-7.591 5.394,-3.179 9.788,-5.626 18.959,-5.591 9.341,0.071 13.708,2.661 19.245,5.966 6.189,3.697 13.217,7.877 26.434,8.037 0.018,0 0.036,0 0.054,0 12.985,0 19.853,-4.037 25.907,-7.609 5.376,-3.144 9.6,-5.823 18.879,-5.573 9.288,0.071 13.494,2.626 18.817,5.858 6.091,3.715 12.985,7.912 26.318,8.02 0.161,0 0.33,0 0.5,0 13.012,0 19.87,-4.037 25.943,-7.609 5.305,-3.108 9.52,-5.573 18.558,-5.573 0.107,0 0.232,0 0.357,0 9.288,0.071 13.485,2.626 18.826,5.858 6.091,3.715 12.985,7.912 26.327,8.02 13.11,0.089 20.326,-3.983 26.47,-7.609 5.323,-3.108 9.52,-5.573 18.593,-5.573 0.107,0 0.232,0 0.357,0 9.306,0.071 13.539,2.626 18.879,5.876 6.091,3.697 13.003,7.895 26.363,8.002 0.018,0 0.036,0 0.054,0 4.019,0 7.287,-3.251 7.323,-7.269 0.018,-4.037 -3.233,-7.341 -7.269,-7.377 -9.306,-0.071 -13.539,-2.626 -18.879,-5.876 -5.131,-3.115 -11.094,-6.433 -20.755,-7.513 V 232.037 h 83.292 c 4.037,0 7.323,-3.277 7.323,-7.314 0.003,-4.037 -3.283,-7.314 -7.32,-7.314 z M 192.096,136.525 H 162.968 V 71.069 c 12.265,14.301 29.28,38.983 29.128,65.456 z m 46.916,0 h -32.644 c 0.118,-30.354 -17.576,-57.642 -31.213,-73.8 34.42,8.292 60.715,37.669 63.857,73.8 z m -102.857,-73.8 c -13.638,16.158 -31.339,43.447 -31.221,73.8 H 72.297 c 3.141,-36.131 29.437,-65.508 63.858,-73.8 z m -16.952,73.8 c -0.131,-26.399 16.876,-51.093 29.137,-65.419 v 65.419 z m 106.047,65.094 h 49.288 v 15.789 H 225.25 Z m 100.816,-4.375 c 0,-8.895 7.216,-16.129 16.111,-16.129 8.895,0 16.129,7.234 16.129,16.129 v 20.165 h -32.239 v -20.165 z m 0,111.059 h 62.353 v 23.505 h -62.353 z m 62.353,-14.646 H 326.066 V 270.17 h 62.353 z m -17.414,68.658 c -5.412,3.161 -9.484,5.519 -18.968,5.573 -9.288,-0.071 -13.503,-2.626 -18.843,-5.876 -2.149,-1.305 -4.529,-2.618 -7.127,-3.846 v -11.711 h 62.353 v 9.018 c -7.772,1.321 -12.84,4.156 -17.415,6.842 z m 17.414,-106.773 h -62.353 v -23.505 h 62.353 z m 14.646,-58.298 c 0,-8.895 7.234,-16.129 16.129,-16.129 8.895,0 16.129,7.234 16.129,16.129 v 20.165 h -32.257 v -20.165 z"
       id="path10"
       style="fill:#4a4a4a" /><path
       d="m 106.804,321.181 c 16.298,0 29.56,-13.271 29.56,-29.578 0,-16.307 -13.262,-29.56 -29.56,-29.56 -16.298,0 -29.56,13.253 -29.56,29.56 0,16.307 13.262,29.578 29.56,29.578 z m 0,-44.509 c 8.234,0 14.932,6.698 14.932,14.932 0,8.234 -6.698,14.932 -14.932,14.932 -8.234,0 -14.932,-6.698 -14.932,-14.932 0.001,-8.235 6.698,-14.932 14.932,-14.932 z"
       id="path12"
       style="fill:#4a4a4a" /><path
       d="m 414.729,102.223 c 11.753,0 21.326,-9.565 21.326,-21.317 0,-11.761 -9.574,-21.326 -21.326,-21.326 -11.752,0 -21.326,9.565 -21.326,21.326 0,11.752 9.573,21.317 21.326,21.317 z m 0,-28.015 c 3.679,0 6.68,3.01 6.68,6.698 0,3.688 -3.001,6.689 -6.68,6.689 -3.679,0 -6.68,-3.001 -6.68,-6.689 0,-3.689 3,-6.698 6.68,-6.698 z"
       id="path14"
       style="fill:#4a4a4a" /><path
       d="m 414.729,57.061 c 4.037,0 7.323,-3.278 7.323,-7.314 v -12.94 c 0,-4.037 -3.286,-7.314 -7.323,-7.314 -4.037,0 -7.323,3.278 -7.323,7.314 v 12.94 c 0,4.037 3.286,7.314 7.323,7.314 z"
       id="path16"
       style="fill:#4a4a4a" /><path
       d="m 372.88,65.188 11.199,6.466 c 1.161,0.67 2.411,0.982 3.661,0.982 2.518,0 4.983,-1.313 6.341,-3.653 2.018,-3.501 0.822,-7.975 -2.679,-9.993 l -11.199,-6.466 c -3.483,-2.009 -7.966,-0.831 -10.002,2.67 -2.018,3.501 -0.821,7.976 2.679,9.994 z"
       id="path18"
       style="fill:#4a4a4a" /><path
       d="m 376.542,110.269 c 1.25,0 2.501,-0.313 3.661,-0.982 l 11.199,-6.475 c 3.501,-2.018 4.697,-6.492 2.679,-9.993 -2.036,-3.519 -6.484,-4.697 -10.002,-2.67 l -11.199,6.475 c -3.501,2.018 -4.697,6.492 -2.679,9.993 1.358,2.348 3.822,3.652 6.341,3.652 z"
       id="path20"
       style="fill:#4a4a4a" /><path
       d="m 407.406,112.055 v 12.949 c 0,4.037 3.286,7.314 7.323,7.314 4.037,0 7.323,-3.277 7.323,-7.314 v -12.949 c 0,-4.037 -3.286,-7.314 -7.323,-7.314 -4.037,0 -7.323,3.278 -7.323,7.314 z"
       id="path22"
       style="fill:#4a4a4a" /><path
       d="m 456.577,96.623 -11.199,-6.475 c -3.501,-2.027 -7.966,-0.848 -10.002,2.67 -2.018,3.501 -0.822,7.975 2.679,9.993 l 11.199,6.475 c 1.161,0.67 2.411,0.982 3.661,0.982 2.518,0 4.983,-1.304 6.341,-3.653 2.019,-3.499 0.822,-7.973 -2.679,-9.992 z"
       id="path24"
       style="fill:#4a4a4a" /><path
       d="m 441.717,72.636 c 1.25,0 2.501,-0.313 3.661,-0.982 l 11.199,-6.466 c 3.501,-2.018 4.697,-6.492 2.679,-9.993 -2.036,-3.501 -6.501,-4.68 -10.002,-2.67 l -11.199,6.466 c -3.501,2.018 -4.697,6.492 -2.679,9.993 1.357,2.339 3.822,3.652 6.341,3.652 z"
       id="path26"
       style="fill:#4a4a4a" /><path
       d="m 247.746,43.987 c 0.116,0.027 12.485,2.742 20.96,16.039 0.02,0.031 0.058,0.041 0.078,0.073 0.549,0.841 1.255,1.593 2.154,2.169 0.081,0.051 0.179,0.028 0.26,0.076 1.127,0.663 2.379,1.067 3.678,1.067 1.302,0 2.551,-0.406 3.677,-1.069 0.079,-0.047 0.174,-0.023 0.252,-0.074 0.902,-0.574 1.607,-1.325 2.159,-2.165 0.019,-0.029 0.055,-0.038 0.074,-0.068 8.43,-13.217 20.433,-15.932 21.04,-16.057 3.929,-0.786 6.501,-4.608 5.733,-8.555 -0.768,-3.947 -4.376,-6.555 -8.573,-5.796 -0.63,0.119 -13.243,2.822 -24.365,14.716 -11.11,-11.895 -23.724,-14.597 -24.36,-14.716 -3.885,-0.813 -7.805,1.822 -8.564,5.796 -0.767,3.965 1.823,7.796 5.797,8.564 z"
       id="path28"
       style="fill:#4a4a4a" /><path
       d="M 300.638,89.788 C 289.518,77.895 276.9,75.193 276.27,75.074 c -4.117,-0.75 -7.743,1.822 -8.529,5.742 -0.795,3.929 1.759,7.778 5.689,8.609 0.509,0.107 12.592,2.786 21.04,16.048 0.018,0.029 0.051,0.038 0.07,0.066 0.551,0.843 1.257,1.597 2.162,2.176 0.079,0.05 0.174,0.027 0.255,0.074 1.126,0.663 2.374,1.069 3.675,1.069 1.302,0 2.551,-0.406 3.677,-1.069 0.079,-0.047 0.174,-0.023 0.252,-0.074 0.904,-0.575 1.611,-1.326 2.162,-2.167 0.019,-0.028 0.052,-0.038 0.07,-0.066 8.43,-13.217 20.433,-15.932 21.04,-16.057 3.929,-0.786 6.501,-4.608 5.733,-8.555 -0.768,-3.956 -4.358,-6.528 -8.573,-5.796 -0.628,0.119 -13.238,2.823 -24.355,14.714 z"
       id="path30"
       style="fill:#4a4a4a" /></g></svg>
