<?xml version="1.0" encoding="UTF-8" standalone="no"?>
<svg
   version="1.1"
   viewBox="-5 -10 64.849251 63.45306"
   id="svg299"
   sodipodi:docname="pool-form.svg"
   width="64.849251"
   height="63.45306"
   inkscape:version="1.2.2 (b0a8486541, 2022-12-01)"
   xmlns:inkscape="http://www.inkscape.org/namespaces/inkscape"
   xmlns:sodipodi="http://sodipodi.sourceforge.net/DTD/sodipodi-0.dtd"
   xmlns="http://www.w3.org/2000/svg"
   xmlns:svg="http://www.w3.org/2000/svg">
  <defs
     id="defs303" />
  <sodipodi:namedview
     id="namedview301"
     pagecolor="#ffffff"
     bordercolor="#000000"
     borderopacity="0.25"
     inkscape:showpageshadow="2"
     inkscape:pageopacity="0.0"
     inkscape:pagecheckerboard="0"
     inkscape:deskcolor="#d1d1d1"
     showgrid="false"
     inkscape:zoom="6.4222222"
     inkscape:cx="31.842561"
     inkscape:cy="39.939446"
     inkscape:window-width="1920"
     inkscape:window-height="1044"
     inkscape:window-x="3840"
     inkscape:window-y="0"
     inkscape:window-maximized="1"
     inkscape:current-layer="svg299" />
  <g
     id="g293"
     transform="translate(-23.175912,-27.73)"
     style="fill:#6a6a6a">
    <path
       d="m 21.125,30.668 h 13.988 v 29.145 c 0,0.67969 0.55078,1.2305 1.2305,1.2305 0.67972,0 1.2305,-0.55078 1.2305,-1.2305 v -6.7773 h 17.625 v 6.7773 c 0,0.67969 0.55078,1.2305 1.2305,1.2305 0.67969,0 1.2305,-0.55078 1.2305,-1.2305 V 30.668 h 22.406 c 0.67969,0 1.2305,-0.55078 1.2305,-1.2305 0,-0.67972 -0.55078,-1.2305 -1.2305,-1.2305 H 70.1519 C 70.062056,22.3125 66.816,17.73 62.6792,17.73 c -4.1367,0 -7.3828,4.582 -7.4727,10.477 H 50.0698 C 49.979957,22.3125 46.7339,17.73 42.5971,17.73 c -4.1367,0 -7.3828,4.582 -7.4727,10.477 h -14 c -0.67969,0 -1.2305,0.55078 -1.2305,1.2305 0,0.67972 0.55078,1.2305 1.2305,1.2305 z M 37.578,50.574 V 41.3084 H 55.203 V 50.574 Z M 55.199,38.847 H 37.574 v -8.1836 h 17.625 z m 7.4805,-18.66 c 2.6719,0 4.9336,3.6484 5.0156,8.0195 h -10.031 c 0.08203,-4.3711 2.3438,-8.0195 5.0156,-8.0195 h -0.0039 z m -20.078,0 c 2.6719,0 4.9297,3.6484 5.0117,8.0195 h -10.031 c 0.08203,-4.3711 2.3438,-8.0195 5.0156,-8.0195 z"
       id="path287"
       style="fill:#6a6a6a" />
    <path
       d="m 19.383,71.102 c 4.1484,0.07813 8.6914,-1.7617 11.809,-4.8086 0.125,-0.12109 0.28125,-0.13672 0.38672,-0.10938 0.125,0.03125 0.14844,0.10156 0.16406,0.13281 1.0781,3.1211 4.3086,5.1094 8.4375,5.1914 4.1484,0.08203 8.6914,-1.7617 11.809,-4.8086 0.125,-0.12109 0.28125,-0.13672 0.38672,-0.10938 0.125,0.03125 0.14844,0.10156 0.16406,0.13281 1.0781,3.1211 4.3086,5.1094 8.4375,5.1914 4.125,0.08203 8.6914,-1.7617 11.809,-4.8086 0.12109,-0.12109 0.27734,-0.13672 0.38672,-0.10938 0.125,0.03125 0.15234,0.10156 0.16406,0.13281 1.0781,3.1211 4.3086,5.1094 8.4336,5.1914 h 0.02344 c 0.66797,0 1.2148,-0.53516 1.2305,-1.2031 0.01172,-0.67969 -0.52734,-1.2383 -1.207,-1.2539 -3.1094,-0.05859 -5.4141,-1.3828 -6.1562,-3.5352 -0.30078,-0.86719 -1.0195,-1.5117 -1.9219,-1.7227 -0.96094,-0.22656 -1.9609,0.05078 -2.668,0.74219 -2.668,2.6016 -6.5117,4.1953 -10.043,4.1055 -3.1133,-0.05859 -5.4141,-1.3828 -6.1602,-3.5352 -0.30078,-0.86719 -1.0156,-1.5117 -1.9219,-1.7227 -0.96094,-0.23047 -1.9609,0.05078 -2.6719,0.74219 -2.6641,2.6016 -6.4883,4.1875 -10.039,4.1055 -3.1133,-0.05859 -5.4141,-1.3828 -6.1602,-3.5352 -0.30078,-0.86719 -1.0156,-1.5117 -1.9219,-1.7227 -0.94141,-0.21875 -1.9688,0.05859 -2.6719,0.74219 -2.6641,2.6016 -6.5078,4.207 -10.039,4.1055 h -0.02344 c -0.67188,0 -1.2148,0.53516 -1.2305,1.207 -0.01172,0.67578 0.52734,1.2383 1.207,1.2539 h -0.0078 z"
       id="path289"
       style="fill:#6a6a6a" />
    <path
       d="m 81.809,78.738 c -3.1094,-0.05859 -5.4141,-1.3828 -6.1562,-3.5352 -0.30078,-0.86719 -1.0195,-1.5117 -1.9219,-1.7227 -0.94141,-0.22266 -1.9688,0.05859 -2.6719,0.74219 -2.668,2.6016 -6.5117,4.1914 -10.043,4.1055 -3.1133,-0.05859 -5.4141,-1.3828 -6.1602,-3.5352 -0.30078,-0.86719 -1.0156,-1.5117 -1.9219,-1.7227 -0.96094,-0.22656 -1.9609,0.05078 -2.6719,0.74219 -2.6641,2.6016 -6.4883,4.1875 -10.039,4.1055 -3.1133,-0.05859 -5.4141,-1.3828 -6.1602,-3.5352 -0.30078,-0.86719 -1.0156,-1.5117 -1.9219,-1.7227 -0.94922,-0.22266 -1.9688,0.05859 -2.6719,0.74219 -2.6641,2.6016 -6.5078,4.207 -10.039,4.1055 -0.64063,0.01563 -1.2383,0.52734 -1.2539,1.2031 -0.01172,0.67578 0.52734,1.2383 1.207,1.2539 4.1484,0.07813 8.6914,-1.7617 11.809,-4.8086 0.125,-0.12109 0.28125,-0.13672 0.38672,-0.10938 0.125,0.03125 0.14844,0.10156 0.16406,0.13281 1.0781,3.1211 4.3086,5.1094 8.4375,5.1914 4.1484,0.08594 8.6914,-1.7617 11.809,-4.8086 0.125,-0.12109 0.28125,-0.13672 0.38672,-0.10938 0.125,0.03125 0.14844,0.10156 0.16406,0.13281 1.0781,3.1211 4.3086,5.1094 8.4375,5.1914 4.125,0.08594 8.6914,-1.7617 11.809,-4.8086 0.12109,-0.12109 0.28125,-0.13672 0.38672,-0.10938 0.125,0.03125 0.15234,0.10156 0.16406,0.13281 1.0781,3.1211 4.3086,5.1094 8.4336,5.1914 h 0.02344 c 0.66797,0 1.2148,-0.53516 1.2305,-1.2031 0.01172,-0.67969 -0.52734,-1.2383 -1.207,-1.2539 h -0.0039 z"
       id="path291"
       style="fill:#6a6a6a" />
  </g>
</svg>
