<?xml version="1.0" encoding="UTF-8" standalone="no"?>
<svg
   version="1.1"
   x="0px"
   y="0px"
   viewBox="0 0 82 90"
   id="svg10"
   sodipodi:docname="popup-elevator.svg"
   width="82"
   height="90"
   inkscape:version="1.1.2 (0a00cf5339, 2022-02-04)"
   xmlns:inkscape="http://www.inkscape.org/namespaces/inkscape"
   xmlns:sodipodi="http://sodipodi.sourceforge.net/DTD/sodipodi-0.dtd"
   xmlns="http://www.w3.org/2000/svg"
   xmlns:svg="http://www.w3.org/2000/svg">
  <defs
     id="defs14" />
  <sodipodi:namedview
     id="namedview12"
     pagecolor="#ffffff"
     bordercolor="#666666"
     borderopacity="1.0"
     inkscape:pageshadow="2"
     inkscape:pageopacity="0.0"
     inkscape:pagecheckerboard="0"
     showgrid="false"
     fit-margin-top="0"
     fit-margin-left="0"
     fit-margin-right="0"
     fit-margin-bottom="0"
     inkscape:zoom="6.088"
     inkscape:cx="40.900131"
     inkscape:cy="57.572273"
     inkscape:window-width="1850"
     inkscape:window-height="1025"
     inkscape:window-x="1990"
     inkscape:window-y="27"
     inkscape:window-maximized="1"
     inkscape:current-layer="svg10" />
  <g
     transform="translate(-9,-957.36218)"
     id="g4"
     style="fill:#5e5e5e">
    <path
       style="color:#000000;font-style:normal;font-variant:normal;font-weight:normal;font-stretch:normal;font-size:medium;line-height:normal;font-family:Sans;-inkscape-font-specification:Sans;text-indent:0;text-align:start;text-decoration:none;text-decoration-line:none;letter-spacing:normal;word-spacing:normal;text-transform:none;writing-mode:lr-tb;direction:ltr;baseline-shift:baseline;text-anchor:start;display:inline;overflow:visible;visibility:visible;opacity:1;fill:#5e5e5e;fill-opacity:1;stroke:none;stroke-width:6;marker:none;enable-background:accumulate"
       d="M 12,5 A 3.0003,3.0003 0 0 0 9,8 v 84 a 3.0003,3.0003 0 0 0 3,3 h 76 a 3.0003,3.0003 0 0 0 3,-3 V 8 A 3.0003,3.0003 0 0 0 88,5 Z m 3,6 H 47.03125 V 89 H 15 Z m 38.03125,0 H 85 V 89 H 53.03125 Z M 32.96875,30.9375 A 3.0003,3.0003 0 0 0 30,34 V 56.96875 L 29.40625,56.1875 a 3.0003,3.0003 0 0 0 -2.59375,-1.21875 3.0003,3.0003 0 0 0 -2.21875,4.8125 l 6,8 a 3.0003,3.0003 0 0 0 4.8125,0 l 6,-8 A 3.0031315,3.0031315 0 1 0 36.59375,56.1875 L 36,56.96875 V 34 A 3.0003,3.0003 0 0 0 32.96875,30.9375 Z M 68.8125,31 a 3.0003,3.0003 0 0 0 -2.15625,1.1875 l -6,8 a 3.0003,3.0003 0 1 0 4.78125,3.59375 L 66.03125,43 v 23 a 3.0003,3.0003 0 1 0 6,0 V 42.9375 l 0.625,0.84375 A 3.0003,3.0003 0 1 0 77.4375,40.1875 l -6,-8 A 3.0003,3.0003 0 0 0 68.8125,31 Z"
       transform="translate(0,952.36218)"
       id="path2" />
  </g>
</svg>
