<?xml version="1.0" encoding="UTF-8" standalone="no"?>
<svg
   version="1.1"
   x="0px"
   y="0px"
   viewBox="0 0 98.388702 89.415001"
   enable-background="new 0 0 100 100"
   xml:space="preserve"
   id="svg26"
   sodipodi:docname="private-shower.svg"
   width="98.388702"
   height="89.415001"
   inkscape:version="1.1.2 (0a00cf5339, 2022-02-04)"
   xmlns:inkscape="http://www.inkscape.org/namespaces/inkscape"
   xmlns:sodipodi="http://sodipodi.sourceforge.net/DTD/sodipodi-0.dtd"
   xmlns="http://www.w3.org/2000/svg"
   xmlns:svg="http://www.w3.org/2000/svg"><defs
     id="defs30" /><sodipodi:namedview
     id="namedview28"
     pagecolor="#ffffff"
     bordercolor="#666666"
     borderopacity="1.0"
     inkscape:pageshadow="2"
     inkscape:pageopacity="0.0"
     inkscape:pagecheckerboard="0"
     showgrid="false"
     fit-margin-top="0"
     fit-margin-left="0"
     fit-margin-right="0"
     fit-margin-bottom="0"
     inkscape:zoom="6.088"
     inkscape:cx="48.948752"
     inkscape:cy="56.586728"
     inkscape:window-width="1850"
     inkscape:window-height="1025"
     inkscape:window-x="1990"
     inkscape:window-y="27"
     inkscape:window-maximized="1"
     inkscape:current-layer="svg26" /><g
     id="g12"
     transform="translate(-0.97497589,-5.866)"
     style="fill:#4f4f4f"><path
       d="m 73.667,22.198 c 3.348,0 6.062,2.714 6.062,6.062 0,3.35 -2.715,6.053 -6.062,6.053 -3.347,0 -6.052,-2.703 -6.052,-6.053 0,-3.347 2.705,-6.062 6.052,-6.062 z"
       id="path2"
       style="fill:#4f4f4f" /><path
       d="M 22.818,14.577 C 21.704,10.665 18.541,5.866 11.613,5.866 c -2.974,0 -5.419,0.942 -7.269,2.8 -3.356,3.372 -3.37,8.54 -3.369,8.75 v 75.758 c 0,1.03 0.835,1.864 1.864,1.864 1.03,0 1.865,-0.834 1.865,-1.864 V 17.408 c 0,-0.039 0.043,-3.862 2.283,-6.111 1.14,-1.146 2.653,-1.702 4.626,-1.702 5.047,0 6.902,3.522 7.582,5.87 -5.309,2.207 -8.455,7.945 -7.197,13.764 l 23.73,-5.132 C 34.42,18.051 28.823,14.051 22.818,14.577 Z"
       id="path4"
       style="fill:#4f4f4f" /><path
       d="m 18.975,79.498 c -1.096,0 -1.973,-0.878 -1.973,-1.954 0,-1.097 0.877,-1.973 1.973,-1.973 1.074,0 1.974,0.876 1.974,1.973 0,1.076 -0.9,1.954 -1.974,1.954 z m 0,-6.997 c -1.096,0 -1.973,-0.9 -1.973,-1.977 0,-1.096 0.877,-1.972 1.973,-1.972 1.074,0 1.974,0.876 1.974,1.972 0,1.077 -0.9,1.977 -1.974,1.977 z m 0,-7.018 c -1.096,0 -1.973,-0.9 -1.973,-1.976 0,-1.096 0.877,-1.975 1.973,-1.975 1.074,0 1.974,0.879 1.974,1.975 0,1.076 -0.9,1.976 -1.974,1.976 z m 0,-7.022 c -1.096,0 -1.973,-0.896 -1.973,-1.972 0,-1.097 0.877,-1.996 1.973,-1.996 1.074,0 1.974,0.899 1.974,1.996 0,1.075 -0.9,1.972 -1.974,1.972 z m 0,-7.016 c -1.096,0 -1.973,-0.9 -1.973,-1.975 0,-1.096 0.877,-1.974 1.973,-1.974 1.074,0 1.974,0.877 1.974,1.974 0,1.075 -0.9,1.975 -1.974,1.975 z m 0,-7.019 c -1.096,0 -1.973,-0.9 -1.973,-1.973 0,-1.098 0.877,-1.975 1.973,-1.975 1.074,0 1.974,0.877 1.974,1.975 0,1.073 -0.9,1.973 -1.974,1.973 z m 0,-7.019 c -1.096,0 -1.973,-0.898 -1.973,-1.973 0,-1.097 0.877,-1.974 1.973,-1.974 1.074,0 1.974,0.877 1.974,1.974 0,1.074 -0.9,1.973 -1.974,1.973 z"
       id="path6"
       style="fill:#4f4f4f" /><path
       d="m 35.951,95.179 c -0.964,0 -1.777,-0.679 -1.951,-1.645 -0.087,-0.504 0.021,-1.031 0.329,-1.47 0.307,-0.416 0.769,-0.7 1.272,-0.812 1.097,-0.198 2.105,0.548 2.281,1.623 0.086,0.506 -0.022,1.031 -0.33,1.47 -0.285,0.439 -0.745,0.725 -1.272,0.812 -0.11,0.022 -0.219,0.022 -0.329,0.022 z m -1.206,-6.908 c -0.964,0 -1.777,-0.703 -1.953,-1.646 -0.087,-0.506 0.023,-1.032 0.329,-1.47 0.308,-0.438 0.768,-0.723 1.295,-0.812 1.074,-0.175 2.083,0.548 2.281,1.601 0.088,0.526 -0.044,1.054 -0.33,1.492 -0.306,0.416 -0.767,0.7 -1.293,0.789 -0.109,0.025 -0.22,0.046 -0.329,0.046 z M 33.538,81.36 c -0.965,0 -1.776,-0.701 -1.93,-1.645 -0.197,-1.074 0.527,-2.105 1.601,-2.28 1.075,-0.22 2.105,0.548 2.281,1.602 0.088,0.525 -0.021,1.052 -0.329,1.47 -0.307,0.439 -0.767,0.725 -1.272,0.812 -0.109,0.021 -0.241,0.041 -0.351,0.041 z m -1.184,-6.93 c -0.966,0 -1.799,-0.679 -1.952,-1.645 -0.088,-0.504 0.021,-1.03 0.328,-1.447 0.308,-0.438 0.746,-0.723 1.273,-0.813 1.096,-0.196 2.105,0.551 2.281,1.604 0.197,1.074 -0.527,2.084 -1.601,2.28 -0.11,0.021 -0.219,0.021 -0.329,0.021 z m -1.206,-6.909 c -0.965,0 -1.777,-0.68 -1.953,-1.645 -0.087,-0.505 0.022,-1.031 0.33,-1.469 0.306,-0.419 0.767,-0.725 1.271,-0.812 1.097,-0.199 2.106,0.548 2.282,1.62 0.087,0.507 -0.021,1.033 -0.329,1.47 -0.307,0.418 -0.745,0.703 -1.272,0.813 -0.11,0.023 -0.219,0.023 -0.329,0.023 z m -1.206,-6.909 c -0.965,0 -1.777,-0.703 -1.953,-1.645 -0.088,-0.507 0.022,-1.03 0.329,-1.469 0.308,-0.438 0.768,-0.725 1.295,-0.813 1.074,-0.172 2.083,0.549 2.28,1.601 0.087,0.526 -0.043,1.054 -0.329,1.493 -0.306,0.417 -0.768,0.701 -1.293,0.79 -0.11,0.022 -0.22,0.043 -0.329,0.043 z m -1.208,-6.93 c -0.964,0 -1.777,-0.68 -1.93,-1.624 -0.197,-1.073 0.527,-2.105 1.601,-2.28 1.097,-0.198 2.105,0.548 2.281,1.6 0.088,0.526 -0.021,1.053 -0.329,1.47 -0.308,0.439 -0.768,0.725 -1.272,0.812 -0.13,0.022 -0.24,0.022 -0.351,0.022 z m -1.206,-6.91 c -0.943,0 -1.776,-0.679 -1.93,-1.622 -0.198,-1.076 0.526,-2.105 1.601,-2.282 1.097,-0.196 2.105,0.527 2.281,1.602 0.197,1.075 -0.526,2.084 -1.601,2.281 -0.109,0.021 -0.241,0.021 -0.351,0.021 z m -1.184,-6.908 c -0.965,0 -1.777,-0.702 -1.952,-1.646 -0.197,-1.074 0.527,-2.083 1.601,-2.281 1.119,-0.197 2.105,0.548 2.281,1.623 0.088,0.505 -0.021,1.031 -0.329,1.469 -0.307,0.417 -0.745,0.725 -1.272,0.813 -0.109,0.001 -0.219,0.022 -0.329,0.022 z m -1.206,-6.909 c -0.965,0 -1.776,-0.701 -1.952,-1.645 -0.176,-1.075 0.548,-2.105 1.623,-2.281 1.075,-0.197 2.084,0.548 2.281,1.601 0.176,1.075 -0.548,2.105 -1.623,2.281 -0.111,0.022 -0.219,0.044 -0.329,0.044 z"
       id="path8"
       style="fill:#4f4f4f" /><path
       d="m 44.11,68.531 c -0.856,0 -1.601,-0.526 -1.864,-1.317 -0.373,-1.03 0.176,-2.172 1.206,-2.521 0.987,-0.352 2.149,0.197 2.501,1.206 0.372,1.032 -0.176,2.15 -1.206,2.523 -0.198,0.063 -0.417,0.109 -0.637,0.109 z m -2.347,-6.625 c -0.833,0 -1.579,-0.527 -1.864,-1.315 -0.176,-0.505 -0.132,-1.054 0.088,-1.512 0.241,-0.484 0.636,-0.836 1.14,-1.011 0.987,-0.352 2.15,0.218 2.5,1.207 0.176,0.504 0.154,1.031 -0.065,1.512 -0.241,0.462 -0.636,0.835 -1.14,1.01 -0.197,0.067 -0.417,0.109 -0.659,0.109 z m -2.324,-6.623 c -0.834,0 -1.58,-0.526 -1.864,-1.315 -0.176,-0.506 -0.155,-1.032 0.087,-1.514 0.22,-0.483 0.636,-0.834 1.118,-1.009 1.009,-0.353 2.172,0.218 2.522,1.205 0.175,0.503 0.154,1.031 -0.088,1.516 -0.219,0.48 -0.614,0.83 -1.118,1.006 -0.219,0.068 -0.438,0.111 -0.657,0.111 z M 37.114,48.66 c -0.834,0 -1.58,-0.528 -1.864,-1.317 -0.176,-0.504 -0.153,-1.031 0.087,-1.514 0.219,-0.46 0.614,-0.833 1.119,-1.008 1.009,-0.352 2.172,0.218 2.523,1.206 0.35,1.031 -0.198,2.171 -1.207,2.521 -0.22,0.068 -0.439,0.112 -0.658,0.112 z m -2.325,-6.625 c -0.856,0 -1.601,-0.527 -1.865,-1.315 -0.373,-1.009 0.175,-2.15 1.206,-2.523 1.01,-0.352 2.15,0.219 2.5,1.229 0.176,0.481 0.155,1.031 -0.064,1.49 -0.242,0.483 -0.637,0.833 -1.141,1.01 -0.198,0.087 -0.417,0.109 -0.636,0.109 z m -2.348,-6.601 c -0.833,0 -1.579,-0.548 -1.864,-1.338 -0.175,-0.483 -0.132,-1.031 0.088,-1.492 0.241,-0.482 0.636,-0.833 1.141,-1.009 0.986,-0.373 2.149,0.199 2.5,1.208 0.373,1.008 -0.176,2.149 -1.206,2.522 -0.22,0.064 -0.439,0.109 -0.659,0.109 z"
       id="path10"
       style="fill:#4f4f4f" /></g><g
     id="g20"
     transform="translate(-0.97497589,-5.866)"
     style="fill:#4f4f4f"><g
       id="g18"
       style="fill:#4f4f4f"><path
         d="m 66.61,67.792 v 24.199 c 0,1.816 1.474,3.29 3.29,3.29 1.816,0 3.29,-1.474 3.29,-3.29 V 67.792 Z"
         id="path14"
         style="fill:#4f4f4f" /><path
         d="M 98.613,52.896 82.596,37.684 C 81.925,37.017 80.864,36.608 79.972,36.608 H 66.914 c -1.096,0 -2.124,0.479 -2.63,1.164 l -6.3,7.78 -7.608,-7.356 c -0.96,-0.926 -2.487,-0.904 -3.412,0.058 -0.925,0.958 -0.9,2.485 0.057,3.412 l 9.502,9.186 c 0.485,0.471 1.137,0.7 1.822,0.674 0.677,-0.042 1.303,-0.364 1.73,-0.891 l 6.351,-7.843 0.016,1.902 -0.005,14.339 h -3.851 c -0.887,0 -1.737,0.358 -2.356,0.995 L 46.344,74.284 c -1.268,1.302 -1.242,3.384 0.06,4.652 0.64,0.623 1.468,0.934 2.296,0.934 0.856,0 1.711,-0.332 2.356,-0.993 L 63.419,66.148 c 0,0 0.549,-0.548 1.268,-0.548 H 76.4 c 2.423,0 4.326,-1.966 4.326,-4.387 0,-0.146 0.018,-16.519 0.018,-16.519 0,0 -0.058,-0.564 0.428,-0.858 0.459,-0.277 0.985,0.102 1.242,0.33 l 12.876,12.23 c 0.467,0.441 1.064,0.665 1.662,0.665 0.638,0 1.274,-0.253 1.75,-0.753 0.915,-0.964 0.877,-2.492 -0.089,-3.412 z"
         id="path16"
         style="fill:#4f4f4f" /></g></g></svg>
