<?xml version="1.0" encoding="UTF-8" standalone="no"?>
<svg
   version="1.1"
   x="0px"
   y="0px"
   viewBox="0 0 90.015511 68.018494"
   id="svg3074"
   sodipodi:docname="noun-homes-2469505.svg"
   width="90.015511"
   height="68.018494"
   xmlns:inkscape="http://www.inkscape.org/namespaces/inkscape"
   xmlns:sodipodi="http://sodipodi.sourceforge.net/DTD/sodipodi-0.dtd"
   xmlns="http://www.w3.org/2000/svg"
   xmlns:svg="http://www.w3.org/2000/svg">
  <defs
     id="defs3078" />
  <sodipodi:namedview
     id="namedview3076"
     pagecolor="#ffffff"
     bordercolor="#000000"
     borderopacity="0.25"
     inkscape:showpageshadow="2"
     inkscape:pageopacity="0.0"
     inkscape:pagecheckerboard="0"
     inkscape:deskcolor="#d1d1d1"
     showgrid="false" />
  <g
     transform="translate(-4.9914394,-968.34369)"
     id="g3068"
     style="fill:#919191">
    <path
       style="color:#000000;font-style:normal;font-variant:normal;font-weight:normal;font-stretch:normal;font-size:medium;line-height:normal;font-family:Sans;-inkscape-font-specification:Sans;text-indent:0;text-align:start;text-decoration:none;text-decoration-line:none;letter-spacing:normal;word-spacing:normal;text-transform:none;writing-mode:lr-tb;direction:ltr;baseline-shift:baseline;text-anchor:start;display:inline;overflow:visible;visibility:visible;opacity:1;fill:#919191;fill-opacity:1;stroke:none;stroke-width:6;marker:none;enable-background:accumulate"
       d="m 60.53125,16 a 3.0003,3.0003 0 0 0 -1.75,0.875 l -31.125,31 A 3.0003,3.0003 0 0 0 29.78125,53 H 34.5625 V 78 H 18.78125 V 54.625 a 3.0003,3.0003 0 0 0 -3,-3 H 15 L 34.53125,31 35,31.46875 a 3.0003,3.0003 0 1 0 4.1875,-4.25 l -2.625,-2.625 A 3.0003,3.0003 0 0 0 32.28125,24.6875 L 5.8125,52.5625 A 3.0003,3.0003 0 0 0 8,57.625 h 4.78125 V 81 a 3.0003,3.0003 0 0 0 3,3 h 68.4375 a 3.0003,3.0003 0 0 0 3,-3 V 53 H 92 a 3.0003,3.0003 0 0 0 2.125,-5.125 L 63,16.875 A 3.0003,3.0003 0 0 0 60.53125,16 Z M 60.875,23.21875 84.75,47 h -0.53125 a 3.0003,3.0003 0 0 0 -3,3 v 28 h -8 V 57.75 a 3.0003,3.0003 0 0 0 -3,-3 H 51.5625 a 3.0003,3.0003 0 0 0 -0.3125,0 3.0003,3.0003 0 0 0 -2.6875,3 V 78 h -8 V 50 a 3.0003,3.0003 0 0 0 -3,-3 H 37.03125 Z M 54.5625,60.75 H 67.21875 V 78 H 54.5625 Z m 3.21875,7.84375 c -0.859158,0 -1.5625,0.706459 -1.5625,1.5625 0,0.856041 0.703342,1.53125 1.5625,1.53125 0.859158,0 1.5625,-0.675209 1.5625,-1.53125 0,-0.856041 -0.703342,-1.5625 -1.5625,-1.5625 z"
       transform="translate(0,952.36218)"
       id="path3066" />
  </g>
</svg>
