<?xml version="1.0" encoding="UTF-8" standalone="no"?>
<svg
   xml:space="preserve"
   version="1.1"
   style="image-rendering:optimizeQuality;shape-rendering:geometricPrecision;text-rendering:geometricPrecision"
   viewBox="0 0 296.25 132"
   x="0px"
   y="0px"
   fill-rule="evenodd"
   clip-rule="evenodd"
   id="svg14"
   sodipodi:docname="propietarioVive.svg"
   width="296.25"
   height="132"
   inkscape:version="1.1.2 (0a00cf5339, 2022-02-04)"
   xmlns:inkscape="http://www.inkscape.org/namespaces/inkscape"
   xmlns:sodipodi="http://sodipodi.sourceforge.net/DTD/sodipodi-0.dtd"
   xmlns="http://www.w3.org/2000/svg"
   xmlns:svg="http://www.w3.org/2000/svg"><sodipodi:namedview
     id="namedview16"
     pagecolor="#ffffff"
     bordercolor="#666666"
     borderopacity="1.0"
     inkscape:pageshadow="2"
     inkscape:pageopacity="0.0"
     inkscape:pagecheckerboard="0"
     showgrid="false"
     fit-margin-top="0"
     fit-margin-left="0"
     fit-margin-right="0"
     fit-margin-bottom="0"
     inkscape:zoom="2.3060606"
     inkscape:cx="121.41919"
     inkscape:cy="66.130092"
     inkscape:window-width="1850"
     inkscape:window-height="1025"
     inkscape:window-x="1990"
     inkscape:window-y="27"
     inkscape:window-maximized="1"
     inkscape:current-layer="svg14" /><defs
     id="defs4"><style
       type="text/css"
       id="style2">
   
    .fil0 {fill:black;fill-rule:nonzero}
   
  </style></defs><g
     id="g8"
     style="fill:#878787"><path
       class="fil0"
       d="m 76,118 c 11,0 19,-9 19,-20 0,-10 -8,-19 -19,-19 -11,0 -19,9 -19,19 0,11 8,20 19,20 z M 278,75 v 27 c 0,5 -4,8 -8,8 -5,0 -9,-3 -9,-8 V 75 h -5 v 22 c 0,5 -4,9 -9,9 -4,0 -8,-4 -8,-9 V 75 H 112 v 7 h -7 c 3,5 5,11 5,16 0,19 -15,34 -34,34 -18,0 -34,-15 -33,-34 -3,1 -6,1 -9,1 C 15,99 0,84 0,66 0,47 15,32 34,32 c 3,0 6,1 9,2 0,-19 14,-34 33,-34 19,0 34,15 34,34 0,5 -2,11 -5,16 h 7 v 7 h 176 c 11,0 11,18 0,18 z M 76,14 C 65,14 57,23 57,34 57,44 65,53 76,53 87,53 95,44 95,34 95,23 87,14 76,14 Z M 34,47 C 23,47 14,55 14,66 14,77 23,85 34,85 44,85 53,77 53,66 53,55 44,47 34,47 Z"
       id="path6"
       style="fill:#878787" /></g></svg>
