<?xml version="1.0" encoding="UTF-8" standalone="no"?>
<svg
   viewBox="0 0 48 48"
   version="1.1"
   xml:space="preserve"
   x="0px"
   y="0px"
   fill-rule="evenodd"
   clip-rule="evenodd"
   stroke-linejoin="round"
   stroke-miterlimit="2"
   id="svg30"
   sodipodi:docname="reception.svg"
   width="48"
   height="48"
   inkscape:version="1.1.2 (0a00cf5339, 2022-02-04)"
   xmlns:inkscape="http://www.inkscape.org/namespaces/inkscape"
   xmlns:sodipodi="http://sodipodi.sourceforge.net/DTD/sodipodi-0.dtd"
   xmlns="http://www.w3.org/2000/svg"
   xmlns:svg="http://www.w3.org/2000/svg"><defs
     id="defs34" /><sodipodi:namedview
     id="namedview32"
     pagecolor="#ffffff"
     bordercolor="#666666"
     borderopacity="1.0"
     inkscape:pageshadow="2"
     inkscape:pageopacity="0.0"
     inkscape:pagecheckerboard="0"
     showgrid="false"
     fit-margin-top="0"
     fit-margin-left="0"
     fit-margin-right="0"
     fit-margin-bottom="0"
     inkscape:zoom="9.5125"
     inkscape:cx="23.968463"
     inkscape:cy="15.190539"
     inkscape:window-width="1850"
     inkscape:window-height="1025"
     inkscape:window-x="1990"
     inkscape:window-y="27"
     inkscape:window-maximized="1"
     inkscape:current-layer="svg30" /><rect
     x="-8"
     y="-8"
     width="64"
     height="64"
     fill="none"
     id="rect2" /><path
     d="M 48,29 C 48,27.674 47.473,26.402 46.536,25.464 45.598,24.527 44.326,24 43,24 34.293,24 13.707,24 5,24 3.674,24 2.402,24.527 1.464,25.464 0.527,26.402 0,27.674 0,29 c 0,6.343 0,18 0,18 0,0.552 0.448,1 1,1 h 46 c 0.552,0 1,-0.448 1,-1 z M 46,46 V 29 C 46,28.204 45.684,27.441 45.121,26.879 44.559,26.316 43.796,26 43,26 34.293,26 13.707,26 5,26 4.204,26 3.441,26.316 2.879,26.879 2.316,27.441 2,28.204 2,29 v 17 z"
     id="path4"
     style="fill:#4b4b4b" /><path
     d="m 28,23 c 0,-4.971 -4.029,-9 -9,-9 -1.317,0 -2.683,0 -4,0 -4.971,0 -9,4.029 -9,9 0,1.175 0,2 0,2 0,0.552 0.448,1 1,1 h 20 c 0.552,0 1,-0.448 1,-1 z m -2,1 v -1 c 0,-3.866 -3.134,-7 -7,-7 -1.317,0 -2.683,0 -4,0 -3.866,0 -7,3.134 -7,7 v 1 z"
     id="path6"
     style="fill:#4b4b4b" /><path
     d="m 42,24 c 0,-2.761 -2.239,-5 -5,-5 v 0 c -2.761,0 -5,2.239 -5,5 0,0.588 0,1 0,1 0,0.552 0.448,1 1,1 h 8 c 0.552,0 1,-0.448 1,-1 z m -2,0 v 0 c 0,-1.657 -1.343,-3 -3,-3 v 0 c -1.657,0 -3,1.343 -3,3 v 0 z"
     id="path8"
     style="fill:#4b4b4b" /><path
     d="m 36,18 h 2 c 0.552,0 1,-0.448 1,-1 0,-0.552 -0.448,-1 -1,-1 h -2 c -0.552,0 -1,0.448 -1,1 0,0.552 0.448,1 1,1 z"
     id="path10"
     style="fill:#4b4b4b" /><path
     d="M 23,1 C 23,0.448 22.552,0 22,0 H 12 c -0.552,0 -1,0.448 -1,1 v 5 c 0,0.552 0.448,1 1,1 h 10 c 0.552,0 1,-0.448 1,-1 z M 13,2 v 3 h 8 V 2 Z"
     id="path12"
     style="fill:#4b4b4b" /><path
     d="M 23,6 C 23,5.448 22.552,5 22,5 H 12 c -0.552,0 -1,0.448 -1,1 v 1.002 c 0,3.313 2.685,5.998 5.998,5.998 10e-4,0 0.003,0 0.004,0 C 20.315,13 23,10.315 23,7.002 23,6.404 23,6 23,6 Z M 21,7 H 13 V 7.002 C 13,9.21 14.79,11 16.998,11 c 10e-4,0 0.003,0 0.004,0 C 19.21,11 21,9.21 21,7.002 Z"
     id="path14"
     style="fill:#4b4b4b" /><path
     d="m 1,37 h 13 c 0.552,0 1,-0.448 1,-1 0,-0.552 -0.448,-1 -1,-1 H 1 c -0.552,0 -1,0.448 -1,1 0,0.552 0.448,1 1,1 z"
     id="path16"
     style="fill:#4b4b4b" /><path
     d="m 20,37 h 8 c 0.552,0 1,-0.448 1,-1 0,-0.552 -0.448,-1 -1,-1 h -8 c -0.552,0 -1,0.448 -1,1 0,0.552 0.448,1 1,1 z"
     id="path18"
     style="fill:#4b4b4b" /><path
     d="m 34,37 h 13 c 0.552,0 1,-0.448 1,-1 0,-0.552 -0.448,-1 -1,-1 H 34 c -0.552,0 -1,0.448 -1,1 0,0.552 0.448,1 1,1 z"
     id="path20"
     style="fill:#4b4b4b" /></svg>
