<?xml version="1.0" encoding="UTF-8" standalone="no"?>
<svg
   version="1.1"
   x="0px"
   y="0px"
   viewBox="0 0 38 38"
   enable-background="new 0 0 48 48"
   xml:space="preserve"
   id="svg18"
   sodipodi:docname="restore-home.svg"
   width="38"
   height="38"
   inkscape:version="1.1.2 (0a00cf5339, 2022-02-04)"
   xmlns:inkscape="http://www.inkscape.org/namespaces/inkscape"
   xmlns:sodipodi="http://sodipodi.sourceforge.net/DTD/sodipodi-0.dtd"
   xmlns="http://www.w3.org/2000/svg"
   xmlns:svg="http://www.w3.org/2000/svg"><defs
     id="defs22" /><sodipodi:namedview
     id="namedview20"
     pagecolor="#ffffff"
     bordercolor="#666666"
     borderopacity="1.0"
     inkscape:pageshadow="2"
     inkscape:pageopacity="0.0"
     inkscape:pagecheckerboard="0"
     showgrid="false"
     fit-margin-top="0"
     fit-margin-left="0"
     fit-margin-right="0"
     fit-margin-bottom="0"
     inkscape:zoom="12.683333"
     inkscape:cx="19.001314"
     inkscape:cy="18.725361"
     inkscape:window-width="1850"
     inkscape:window-height="1025"
     inkscape:window-x="1990"
     inkscape:window-y="27"
     inkscape:window-maximized="1"
     inkscape:current-layer="svg18" /><g
     id="g12"
     transform="translate(-5,-5)"
     style="fill:#484848"><path
       d="M 42,41 H 38 V 24 c 0,-0.54999 -0.45001,-1 -1,-1 -0.54999,0 -1,0.45001 -1,1 V 41 H 34 V 10 C 34,9.45001 33.54999,9 33,9 H 15 c -0.54999,0 -1,0.45001 -1,1 v 3.52997 l -2,0.57001 V 7 h 24 v 9 c 0,0.54999 0.45001,1 1,1 0.54999,0 1,-0.45001 1,-1 V 6 C 38,5.45001 37.54999,5 37,5 H 11 c -0.54999,0 -1,0.45001 -1,1 0,0 0,9.42047 0,9.42999 0,0.64919 0.64319,1.14798 1.27002,0.96003 l 2.82001,-0.80005 -0.98004,1.96002 c -0.20001,0.39001 -0.12,0.84998 0.17999,1.15997 l 1.39001,1.38 -2.12,2.82001 c 0,0 -1.39642,-0.22939 -1.40002,-0.22998 C 10.56658,22.58252 10,23.07326 10,23.66998 V 41 H 6 c -0.54999,0 -1,0.45001 -1,1 0,0.54999 0.45001,1 1,1 h 36 c 0.54999,0 1,-0.45001 1,-1 0,-0.54999 -0.45001,-1 -1,-1 z M 14,41 H 12 V 24.84998 l 0.84003,0.14001 c 0.37,0.06 0.73999,-0.09003 0.95996,-0.39001 L 14,24.32996 Z m 18,0 H 16 V 21.66998 l 0.79999,-1.07001 c 0.29999,-0.39996 0.26001,-0.95996 -0.08997,-1.31 l -1.49005,-1.48999 c 0,0 1.66605,-3.34197 1.67004,-3.34996 C 17.21663,13.79484 16.73481,13 16,13 v -2 h 16 z"
       id="path2"
       style="fill:#484848" /><path
       d="M 29,13 H 19 c -0.55225,0 -1,0.44727 -1,1 v 9 c 0,0.55273 0.44775,1 1,1 h 10 c 0.55273,0 1,-0.44727 1,-1 v -9 c 0,-0.55273 -0.44727,-1 -1,-1 z m -1,9 h -8 v -7 h 8 z"
       id="path4"
       style="fill:#484848" /><path
       d="M 29,28 H 19 c -0.55225,0 -1,0.44727 -1,1 v 9 c 0,0.55273 0.44775,1 1,1 h 10 c 0.55273,0 1,-0.44727 1,-1 v -9 c 0,-0.55273 -0.44727,-1 -1,-1 z m -1,9 h -8 v -7 h 8 z"
       id="path6"
       style="fill:#484848" /><path
       d="m 29,25 h -2 c -0.55273,0 -1,0.44727 -1,1 0,0.55273 0.44727,1 1,1 h 2 c 0.55273,0 1,-0.44727 1,-1 0,-0.55273 -0.44727,-1 -1,-1 z"
       id="path8"
       style="fill:#484848" /><circle
       cx="37"
       cy="20"
       r="1"
       id="circle10"
       style="fill:#484848" /></g></svg>
