<?xml version="1.0" encoding="UTF-8" standalone="no"?>
<svg
   viewBox="0 0 29.002146 16.473722"
   version="1.1"
   xml:space="preserve"
   x="0px"
   y="0px"
   fill-rule="evenodd"
   clip-rule="evenodd"
   stroke-linejoin="round"
   stroke-miterlimit="2"
   id="svg10"
   sodipodi:docname="river.svg"
   width="29.002146"
   height="16.473722"
   inkscape:version="1.1.2 (0a00cf5339, 2022-02-04)"
   xmlns:inkscape="http://www.inkscape.org/namespaces/inkscape"
   xmlns:sodipodi="http://sodipodi.sourceforge.net/DTD/sodipodi-0.dtd"
   xmlns="http://www.w3.org/2000/svg"
   xmlns:svg="http://www.w3.org/2000/svg"><defs
     id="defs14" /><sodipodi:namedview
     id="namedview12"
     pagecolor="#ffffff"
     bordercolor="#666666"
     borderopacity="1.0"
     inkscape:pageshadow="2"
     inkscape:pageopacity="0.0"
     inkscape:pagecheckerboard="0"
     showgrid="false"
     fit-margin-top="0"
     fit-margin-left="0"
     fit-margin-right="0"
     fit-margin-bottom="0"
     inkscape:zoom="19.025"
     inkscape:cx="14.507227"
     inkscape:cy="12.220762"
     inkscape:window-width="1850"
     inkscape:window-height="1025"
     inkscape:window-x="1990"
     inkscape:window-y="27"
     inkscape:window-maximized="1"
     inkscape:current-layer="svg10" /><g
     transform="translate(-1991.7147,-41.443297)"
     id="g4"
     style="fill:#4a4a4a"><path
       d="m 2019.84,53.326 c 0,0 -2.98,3.37 -7.07,3.37 -2.63,0 -4.34,-1.144 -5.96,-2.272 -1.78,-1.237 -3.48,-2.451 -6,-2.451 -2.02,0 -3.88,0.825 -5.38,1.825 -2.2,1.472 -3.61,3.314 -3.61,3.314 -0.17,0.219 -0.13,0.534 0.09,0.702 0.22,0.168 0.53,0.126 0.7,-0.093 0,0 1.32,-1.717 3.38,-3.092 1.34,-0.898 3.01,-1.656 4.82,-1.656 2.29,0 3.81,1.149 5.43,2.272 1.78,1.234 3.65,2.451 6.53,2.451 4.52,0 7.82,-3.706 7.82,-3.706 0.18,-0.206 0.17,-0.522 -0.04,-0.706 -0.21,-0.183 -0.52,-0.164 -0.71,0.042 z m -7.01,-0.849 c -0.13,-10e-4 -0.26,0.048 -0.36,0.147 v 0 c -0.22,0.219 -0.52,0.343 -0.83,0.343 -0.31,0 -0.61,-0.124 -0.83,-0.343 v 0 c -0.19,-0.196 -0.51,-0.196 -0.71,0 -0.19,0.195 -0.19,0.511 0,0.707 0,0 0,0 0,0 0.41,0.407 0.96,0.636 1.54,0.636 0.42,0 0.84,-0.124 1.19,-0.352 0.35,0.228 0.76,0.352 1.18,0.352 0.58,0 1.13,-0.229 1.54,-0.636 0,0 0,0 0,0 0.19,-0.196 0.19,-0.512 0,-0.707 -0.2,-0.196 -0.51,-0.196 -0.71,0 v 0 c -0.22,0.219 -0.52,0.343 -0.83,0.343 -0.31,0 -0.61,-0.124 -0.83,-0.343 v 0 c -0.09,-0.099 -0.22,-0.148 -0.35,-0.147 z m 0,-2.377 c -0.13,-0.001 -0.26,0.048 -0.36,0.146 v 0 c -0.22,0.22 -0.52,0.344 -0.83,0.344 -0.31,0 -0.61,-0.124 -0.83,-0.344 v 0 c -0.19,-0.195 -0.51,-0.195 -0.71,0 -0.19,0.195 -0.19,0.512 0,0.707 0,0 0,0 0,10e-4 0.41,0.407 0.96,0.636 1.54,0.636 0.42,0 0.84,-0.124 1.19,-0.353 0.35,0.229 0.76,0.353 1.18,0.353 0.58,0 1.13,-0.229 1.54,-0.636 0,-10e-4 0,-10e-4 0,-10e-4 0.19,-0.195 0.19,-0.512 0,-0.707 -0.2,-0.195 -0.51,-0.195 -0.71,0 v 0 c -0.22,0.22 -0.52,0.344 -0.83,0.344 -0.31,0 -0.61,-0.124 -0.83,-0.344 v 0 c -0.09,-0.098 -0.22,-0.147 -0.35,-0.146 z m -13.42,-2.077 c -0.13,-0.001 -0.26,0.048 -0.36,0.146 v 0 c -0.22,0.22 -0.51,0.344 -0.82,0.344 -0.32,0 -0.61,-0.124 -0.83,-0.344 v 0 c -0.2,-0.195 -0.52,-0.195 -0.71,0 -0.2,0.195 -0.2,0.512 0,0.707 0,0 0,0 0,0 0.41,0.408 0.96,0.637 1.54,0.637 0.42,0 0.83,-0.125 1.18,-0.353 0.35,0.228 0.76,0.353 1.19,0.353 0.57,0 1.13,-0.229 1.53,-0.637 0,0 0,0 0,0 0.2,-0.195 0.2,-0.512 0,-0.707 -0.19,-0.195 -0.51,-0.195 -0.7,0 v 0 c -0.22,0.22 -0.52,0.344 -0.83,0.344 -0.31,0 -0.61,-0.124 -0.83,-0.344 v 0 c -0.1,-0.098 -0.23,-0.147 -0.36,-0.146 z m 20.39,-6.353 c 0,0 -1.14,1.74 -2.91,3.133 -1.15,0.898 -2.56,1.661 -4.12,1.661 -1.73,0 -3.14,-1.093 -4.84,-2.195 -1.85,-1.201 -4,-2.439 -7.09,-2.625 -5.75,-0.347 -8.98,2.942 -8.98,2.942 -0.19,0.196 -0.19,0.513 0.01,0.707 0.19,0.194 0.51,0.193 0.7,-0.003 0,0 2.97,-2.964 8.21,-2.648 3.48,0.209 5.68,1.868 7.65,3.148 1.45,0.937 2.79,1.674 4.34,1.674 1.79,0 3.42,-0.844 4.73,-1.874 1.91,-1.499 3.13,-3.374 3.13,-3.374 0.16,-0.231 0.09,-0.541 -0.14,-0.692 -0.23,-0.15 -0.54,-0.085 -0.69,0.146 z m -20.39,3.976 c -0.13,-10e-4 -0.26,0.047 -0.36,0.146 v 0 c -0.22,0.22 -0.51,0.343 -0.82,0.343 -0.32,0 -0.61,-0.123 -0.83,-0.343 v 0 c -0.2,-0.195 -0.52,-0.195 -0.71,0 -0.2,0.195 -0.2,0.512 0,0.707 0,0 0,0 0,0 0.41,0.407 0.96,0.636 1.54,0.636 0.42,0 0.83,-0.124 1.18,-0.352 0.35,0.228 0.76,0.352 1.19,0.352 0.57,0 1.13,-0.229 1.53,-0.636 0,0 0,0 0,0 0.2,-0.195 0.2,-0.512 0,-0.707 -0.19,-0.195 -0.51,-0.195 -0.7,0 v 0 c -0.22,0.22 -0.52,0.343 -0.83,0.343 -0.31,0 -0.61,-0.123 -0.83,-0.343 v 0 c -0.1,-0.099 -0.23,-0.147 -0.36,-0.146 z"
       id="path2"
       style="fill:#4a4a4a" /></g></svg>
