<?xml version="1.0" encoding="UTF-8" standalone="no"?>
<svg
   viewBox="0 0 52.891548 53.006348"
   x="0px"
   y="0px"
   version="1.1"
   id="svg9306"
   sodipodi:docname="noun-agriculture-3173731.svg"
   width="52.891548"
   height="53.006348"
   xmlns:inkscape="http://www.inkscape.org/namespaces/inkscape"
   xmlns:sodipodi="http://sodipodi.sourceforge.net/DTD/sodipodi-0.dtd"
   xmlns="http://www.w3.org/2000/svg"
   xmlns:svg="http://www.w3.org/2000/svg">
  <defs
     id="defs9310" />
  <sodipodi:namedview
     id="namedview9308"
     pagecolor="#ffffff"
     bordercolor="#000000"
     borderopacity="0.25"
     inkscape:showpageshadow="2"
     inkscape:pageopacity="0.0"
     inkscape:pagecheckerboard="0"
     inkscape:deskcolor="#d1d1d1"
     showgrid="false" />
  <title
     id="title9294">1</title>
  <g
     data-name="Layer 22"
     id="g9300"
     transform="translate(-5.5493877,-5.4936539)"
     style="fill:#6a6a6a">
    <path
       d="m 58.16,52.59 a 1,1 0 0 0 -1.41,0 L 55,54.28 v -1.84 a 1,1 0 0 0 -2,0 v 1.84 L 51.25,52.57 A 1,1 0 0 0 49.86,54 l 2.55,2.5 h -7.19 l 3.6,-3.5 a 1.0006123,1.0006123 0 1 0 -1.4,-1.43 l -2.59,2.53 v -2.89 a 1,1 0 0 0 -2,0 v 2.86 L 40.25,51.54 A 1.007931,1.007931 0 0 0 38.86,53 l 3.6,3.53 H 35.6 l 1.6,-4 a 1,1 0 0 0 0.07,-0.37 V 39.65 h 15.6 a 1,1 0 0 0 1,-1 v -28 a 1,1 0 0 0 -1,-1 h -15.7 a 5.14,5.14 0 0 0 -10.09,0 h -15.7 a 1,1 0 0 0 -1,1 v 28 a 1,1 0 0 0 1,1 H 27 v 12.48 a 1,1 0 0 0 0.07,0.37 l 1.6,4 H 22.59 L 25.14,54 a 1.0006123,1.0006123 0 1 0 -1.4,-1.43 L 22,54.28 v -1.84 a 1,1 0 0 0 -2,0 v 1.84 L 18.25,52.57 A 1,1 0 0 0 16.86,54 l 2.55,2.5 h -7.34 l 3.36,-3.29 A 1.0076334,1.0076334 0 1 0 14,51.79 l -2.39,2.34 V 51.5 a 1,1 0 0 0 -2,0 v 2.62 L 7.25,51.79 a 1.0006123,1.0006123 0 1 0 -1.4,1.43 l 3.43,3.35 a 1,1 0 0 0 0.34,1.93 h 45 A 1,1 0 0 0 55.3,56.78 L 58.14,54 a 1,1 0 0 0 0.02,-1.41 z M 32.13,7.5 a 3.14,3.14 0 0 1 3,2.15 H 29.15 A 3.14,3.14 0 0 1 32.13,7.5 Z M 12.38,18 H 18 a 1,1 0 0 0 0,-2 H 12.38 V 15 H 15 a 1,1 0 0 0 0,-2 H 12.38 V 11.65 H 51.87 V 31 H 46 a 1,1 0 0 0 0,2 h 5.87 v 1 H 49 a 1,1 0 0 0 0,2 h 2.87 v 1.65 H 12.38 Z M 29,51.94 V 39.65 h 6.3 V 51.94 L 33.45,56.5 H 30.8 Z"
       id="path9296"
       style="fill:#6a6a6a" />
    <path
       d="m 43.58,15.54 c -0.3,0 -7.35,-0.59 -11.48,3.54 a 12,12 0 0 0 -3,5.47 6.69,6.69 0 0 0 -1.06,-1.41 c -2.68,-2.68 -7.22,-2.32 -7.41,-2.3 a 1,1 0 0 0 -0.91,0.91 c 0,0.19 -0.38,4.73 2.3,7.41 2.08,2.08 5.27,2.33 6.69,2.33 0.42,0 0.68,0 0.72,0 v 0 c 0.07,0 0.48,0 1.14,0 2.22,0 7.15,-0.39 10.34,-3.58 4.13,-4.13 3.57,-11.18 3.54,-11.48 A 1,1 0 0 0 43.58,15.54 Z M 23.47,27.75 a 7.52,7.52 0 0 1 -1.73,-4.93 7.49,7.49 0 0 1 4.92,1.74 7.53,7.53 0 0 1 1.73,4.92 7.53,7.53 0 0 1 -4.92,-1.73 z m 16.06,-1.24 c -2.68,2.68 -7.1,3 -9,3 v 0 c 0,-1.88 0.3,-6.32 3,-9 2.7,-2.68 7.13,-3 9,-3 -0.01,1.87 -0.31,6.31 -3,9 z"
       id="path9298"
       style="fill:#6a6a6a" />
  </g>
</svg>
