<?xml version="1.0" encoding="UTF-8" standalone="no"?>
<svg
   viewBox="0 0 56 60"
   x="0px"
   y="0px"
   version="1.1"
   id="svg24"
   sodipodi:docname="sauna.svg"
   width="56"
   height="60"
   inkscape:version="1.1.2 (0a00cf5339, 2022-02-04)"
   xmlns:inkscape="http://www.inkscape.org/namespaces/inkscape"
   xmlns:sodipodi="http://sodipodi.sourceforge.net/DTD/sodipodi-0.dtd"
   xmlns="http://www.w3.org/2000/svg"
   xmlns:svg="http://www.w3.org/2000/svg">
  <defs
     id="defs28" />
  <sodipodi:namedview
     id="namedview26"
     pagecolor="#ffffff"
     bordercolor="#666666"
     borderopacity="1.0"
     inkscape:pageshadow="2"
     inkscape:pageopacity="0.0"
     inkscape:pagecheckerboard="0"
     showgrid="false"
     fit-margin-top="0"
     fit-margin-left="0"
     fit-margin-right="0"
     fit-margin-bottom="0"
     inkscape:zoom="9.5125"
     inkscape:cx="27.963206"
     inkscape:cy="29.592641"
     inkscape:window-width="1850"
     inkscape:window-height="1025"
     inkscape:window-x="1990"
     inkscape:window-y="27"
     inkscape:window-maximized="1"
     inkscape:current-layer="svg24" />
  <path
     d="M 2.8813831e-8,59 A 0.99976,0.99976 0 0 0 1,60 h 20 a 0.99979,0.99979 0 0 0 1,-1 V 17 A 0.99979,0.99979 0 0 0 21,16 H 1 A 0.99976,0.99976 0 0 0 2.8813831e-8,17 Z M 2,18 H 20 V 58 H 2 Z"
     id="path2"
     style="fill:#494949" />
  <path
     d="m 46,60 h 4 a 0.99979,0.99979 0 0 0 1,-1 v -7 h 2 a 0.99979,0.99979 0 0 0 1,-1 V 45 A 0.99979,0.99979 0 0 0 53,44 H 29 a 0.99979,0.99979 0 0 0 -1,1 v 6 a 0.99979,0.99979 0 0 0 1,1 h 2 v 7 a 0.99979,0.99979 0 0 0 1,1 h 4 a 0.99979,0.99979 0 0 0 1,-1 v -7 h 8 v 7 a 0.99979,0.99979 0 0 0 1,1 z m 3,-2 h -2 v -6 h 2 z M 30,46 h 22 v 4 H 30 Z m 5,12 h -2 v -6 h 2 z"
     id="path4"
     style="fill:#494949" />
  <path
     d="M 53,2.2059266e-8 H 45 A 0.99979,0.99979 0 0 0 44,1 v 20.1113 a 7,7 0 1 0 10,0 V 1 A 0.99979,0.99979 0 0 0 53,2.2059266e-8 Z M 49,31 A 4.9936,4.9936 0 0 1 45.668,22.2813 0.999,0.999 0 0 0 46,21.5371 V 2 h 6 V 21.5371 A 0.999,0.999 0 0 0 52.332,22.2813 4.9936,4.9936 0 0 1 49,31 Z"
     id="path6"
     style="fill:#494949" />
  <path
     d="M 50,23.1843 V 5 a 1,1 0 0 0 -2,0 v 18.1843 a 3,3 0 1 0 2,0 z M 49,27 a 1,1 0 1 1 1,-1 1.00094,1.00094 0 0 1 -1,1 z"
     id="path8"
     style="fill:#494949" />
  <path
     d="m 16,34 a 3,3 0 1 0 3,3 3.00328,3.00328 0 0 0 -3,-3 z m 0,4 a 1,1 0 1 1 1,-1 1.00094,1.00094 0 0 1 -1,1 z"
     id="path10"
     style="fill:#494949" />
  <path
     d="M 26.3413,28.9932 A 3.00713,3.00713 0 0 0 26.3408,34 C 26.8389,34.4365 27,34.6104 27,35 a 1,1 0 0 0 2,0 3.17828,3.17828 0 0 0 -1.3413,-2.5039 C 27.1611,32.0596 27,31.8857 27,31.4971 c 0,-0.3897 0.1611,-0.5635 0.6592,-1 a 3.005,3.005 0 0 0 -10e-4,-5.0049 C 27.1606,25.0576 27,24.8838 27,24.4961 27,24.1084 27.1606,23.9355 27.6582,23.501 A 3.174,3.174 0 0 0 29,21 1,1 0 0 0 27,21 c 0,0.3877 -0.1606,0.5605 -0.6582,0.9951 a 3.00256,3.00256 0 0 0 0,5.0029 C 26.8394,27.4326 27,27.6064 27,27.9941 c 0,0.3887 -0.1611,0.5625 -0.6587,0.9991 z"
     id="path12"
     style="fill:#494949" />
  <path
     d="M 31.3413,28.9932 A 3.00713,3.00713 0 0 0 31.3408,34 C 31.8389,34.4365 32,34.6104 32,35 a 1,1 0 0 0 2,0 3.17828,3.17828 0 0 0 -1.3413,-2.5039 C 32.1611,32.0596 32,31.8857 32,31.4971 c 0,-0.3897 0.1611,-0.5635 0.6592,-1 a 3.005,3.005 0 0 0 -10e-4,-5.0049 C 32.1606,25.0576 32,24.8838 32,24.4961 32,24.1084 32.1606,23.9355 32.6582,23.501 A 3.174,3.174 0 0 0 34,21 1,1 0 0 0 32,21 c 0,0.3877 -0.1606,0.5605 -0.6582,0.9951 a 3.00256,3.00256 0 0 0 0,5.0029 C 31.8394,27.4326 32,27.6064 32,27.9941 c 0,0.3887 -0.1611,0.5625 -0.6587,0.9991 z"
     id="path14"
     style="fill:#494949" />
  <path
     d="M 36.3413,28.9932 A 3.00713,3.00713 0 0 0 36.3408,34 C 36.8389,34.4365 37,34.6104 37,35 a 1,1 0 0 0 2,0 3.17828,3.17828 0 0 0 -1.3413,-2.5039 C 37.1611,32.0596 37,31.8857 37,31.4971 c 0,-0.3897 0.1611,-0.5635 0.6592,-1 a 3.005,3.005 0 0 0 -10e-4,-5.0049 C 37.1606,25.0576 37,24.8838 37,24.4961 37,24.1084 37.1606,23.9355 37.6582,23.501 A 3.174,3.174 0 0 0 39,21 1,1 0 0 0 37,21 c 0,0.3877 -0.1606,0.5605 -0.6582,0.9951 a 3.00256,3.00256 0 0 0 0,5.0029 C 36.8394,27.4326 37,27.6064 37,27.9941 c 0,0.3887 -0.1611,0.5625 -0.6587,0.9991 z"
     id="path16"
     style="fill:#494949" />
</svg>
