<?xml version="1.0" encoding="UTF-8" standalone="no"?>
<svg
   data-name="Layer 1"
   viewBox="0 0 28 28"
   x="0px"
   y="0px"
   version="1.1"
   id="svg1112"
   sodipodi:docname="savings.svg"
   width="28"
   height="28"
   inkscape:version="1.2.2 (b0a8486541, 2022-12-01)"
   xmlns:inkscape="http://www.inkscape.org/namespaces/inkscape"
   xmlns:sodipodi="http://sodipodi.sourceforge.net/DTD/sodipodi-0.dtd"
   xmlns="http://www.w3.org/2000/svg"
   xmlns:svg="http://www.w3.org/2000/svg">
  <defs
     id="defs1116" />
  <sodipodi:namedview
     id="namedview1114"
     pagecolor="#ffffff"
     bordercolor="#000000"
     borderopacity="0.25"
     inkscape:showpageshadow="2"
     inkscape:pageopacity="0.0"
     inkscape:pagecheckerboard="0"
     inkscape:deskcolor="#d1d1d1"
     showgrid="false"
     inkscape:zoom="22.325"
     inkscape:cx="13.99776"
     inkscape:cy="14.445689"
     inkscape:window-width="1920"
     inkscape:window-height="1044"
     inkscape:window-x="3840"
     inkscape:window-y="0"
     inkscape:window-maximized="1"
     inkscape:current-layer="svg1112" />
  <path
     d="M 25,0 H 3 A 3,3 0 0 0 0,3 v 22 a 3,3 0 0 0 3,3 h 22 a 3,3 0 0 0 3,-3 V 3 A 3,3 0 0 0 25,0 Z m 1,25 a 1,1 0 0 1 -1,1 H 3 A 1,1 0 0 1 2,25 V 3 A 1,1 0 0 1 3,2 h 22 a 1,1 0 0 1 1,1 z"
     id="path1102"
     style="fill:#6a6a6a" />
  <path
     d="M 22,4 H 6 A 2,2 0 0 0 4,6 v 16 a 2,2 0 0 0 2,2 h 16 a 2,2 0 0 0 2,-2 V 6 A 2,2 0 0 0 22,4 Z M 6,22 V 20 H 7 A 1,1 0 0 0 7,18 H 6 V 10 H 7 A 1,1 0 0 0 7,8 H 6 V 6 h 16 v 16 z"
     id="path1104"
     style="fill:#6a6a6a" />
  <path
     d="m 17,11 a 3,3 0 1 0 3,3 3,3 0 0 0 -3,-3 z m 0,4 a 1,1 0 1 1 1,-1 1,1 0 0 1 -1,1 z"
     id="path1106"
     style="fill:#6a6a6a" />
  <text
     x="-2"
     y="45"
     fill="#000000"
     font-size="5px"
     font-weight="bold"
     font-family="'Helvetica Neue', Helvetica, Arial-Unicode, Arial, Sans-serif"
     id="text1108">Created by Daniil Churakov</text>
  <text
     x="-2"
     y="50"
     fill="#000000"
     font-size="5px"
     font-weight="bold"
     font-family="'Helvetica Neue', Helvetica, Arial-Unicode, Arial, Sans-serif"
     id="text1110">from the Noun Project</text>
</svg>
