<?xml version="1.0" encoding="UTF-8" standalone="no"?>
<svg
   viewBox="0 0 97.39 95.839994"
   x="0px"
   y="0px"
   version="1.1"
   id="svg334"
   sodipodi:docname="school-icon.svg"
   width="97.389999"
   height="95.839996"
   inkscape:version="1.1.2 (0a00cf5339, 2022-02-04)"
   xmlns:inkscape="http://www.inkscape.org/namespaces/inkscape"
   xmlns:sodipodi="http://sodipodi.sourceforge.net/DTD/sodipodi-0.dtd"
   xmlns="http://www.w3.org/2000/svg"
   xmlns:svg="http://www.w3.org/2000/svg"
   xmlns:rdf="http://www.w3.org/1999/02/22-rdf-syntax-ns#"
   xmlns:cc="http://creativecommons.org/ns#"
   xmlns:dc="http://purl.org/dc/elements/1.1/">
  <defs
     id="defs338" />
  <sodipodi:namedview
     id="namedview336"
     pagecolor="#ffffff"
     bordercolor="#666666"
     borderopacity="1.0"
     inkscape:pageshadow="2"
     inkscape:pageopacity="0.0"
     inkscape:pagecheckerboard="0"
     showgrid="false"
     fit-margin-top="0"
     fit-margin-left="0"
     fit-margin-right="0"
     fit-margin-bottom="0"
     inkscape:zoom="6.3522536"
     inkscape:cx="48.644154"
     inkscape:cy="59.900002"
     inkscape:window-width="1850"
     inkscape:window-height="1025"
     inkscape:window-x="1990"
     inkscape:window-y="27"
     inkscape:window-maximized="1"
     inkscape:current-layer="svg334" />
  <title
     id="title298">school </title>
  <g
     id="g328">
    <path
       d="M 95.39,91.84 H 88 V 46.92 H 72 71.9 A 2,2 0 0 1 70.32,46.26 L 49.21,22.4 28.1,46.24 a 2,2 0 0 1 -1.5,0.68 H 26.36 26.15 9.46 V 91.84 H 2 a 2,2 0 0 0 0,4 h 93.39 a 2,2 0 1 0 0,-4 z M 30.71,83.65 a 3.49,3.49 0 0 1 -3.49,3.49 H 15.87 a 3.49,3.49 0 0 1 -3.49,-3.49 v -9.46 a 3.49,3.49 0 0 1 3.49,-3.49 h 11.35 a 3.49,3.49 0 0 1 3.49,3.49 z m 0,-21.14 A 3.49,3.49 0 0 1 27.22,66 H 15.87 A 3.49,3.49 0 0 1 12.38,62.51 V 53 a 3.48,3.48 0 0 1 3.49,-3.48 H 27.22 A 3.48,3.48 0 0 1 30.71,53 Z M 60,91.84 h -4 v -21 h -4.79 v 21 h -4 v -21 h -4.79 v 21 h -4 V 69.23 a 1.71,1.71 0 0 1 0,-0.82 v -3.5 a 5.1,5.1 0 0 1 5.1,-5.1 H 54.9 a 5.1,5.1 0 0 1 5.1,5.1 z M 49.21,52.32 A 10.83,10.83 0 1 1 60,41.49 10.85,10.85 0 0 1 49.21,52.32 Z m 36.05,31.43 a 3.49,3.49 0 0 1 -3.48,3.49 H 70.42 a 3.49,3.49 0 0 1 -3.48,-3.49 v -9.47 a 3.48,3.48 0 0 1 3.48,-3.48 h 11.36 a 3.48,3.48 0 0 1 3.48,3.48 z m 0,-21.14 a 3.48,3.48 0 0 1 -3.48,3.48 H 70.42 a 3.48,3.48 0 0 1 -3.48,-3.48 v -9.47 a 3.48,3.48 0 0 1 3.48,-3.48 h 11.36 a 3.48,3.48 0 0 1 3.48,3.48 z"
       id="path300" />
    <path
       d="M 49.21,34.66 A 6.83,6.83 0 1 0 56,41.49 6.84,6.84 0 0 0 49.21,34.66 Z m 5.07,4.74 a 1,1 0 0 1 -0.48,1.32 l -4.17,2 a 1.06,1.06 0 0 1 -0.42,0.09 1,1 0 0 1 -0.91,-0.58 1.05,1.05 0 0 1 -0.07,-0.55 c 0,-0.05 0,-0.09 0,-0.14 v -5.1 a 1,1 0 0 1 2,0 v 3.8 L 53,38.91 a 1,1 0 0 1 1.28,0.49 z"
       id="path302" />
    <rect
       x="16.379999"
       y="74.699997"
       width="3.1600001"
       height="8.4399996"
       id="rect304" />
    <rect
       x="16.379999"
       y="53.560001"
       width="3.1600001"
       height="8.4399996"
       id="rect306" />
    <rect
       x="23.540001"
       y="53.560001"
       width="3.1600001"
       height="8.4399996"
       id="rect308" />
    <rect
       x="23.540001"
       y="74.699997"
       width="3.1600001"
       height="8.4399996"
       id="rect310" />
    <path
       d="M 54.9,63.81 H 43.52 a 1.1,1.1 0 0 0 -1.1,1.1 v 1.91 H 56 v -1.91 a 1.1,1.1 0 0 0 -1.1,-1.1 z"
       id="path312" />
    <rect
       x="78.099998"
       y="53.66"
       width="3.1600001"
       height="8.4399996"
       id="rect314" />
    <rect
       x="70.940002"
       y="74.800003"
       width="3.1600001"
       height="8.4399996"
       id="rect316" />
    <rect
       x="70.940002"
       y="53.66"
       width="3.1600001"
       height="8.4399996"
       id="rect318" />
    <rect
       x="78.099998"
       y="74.800003"
       width="3.1600001"
       height="8.4399996"
       id="rect320" />
    <path
       d="m 49.21,21.38 a 2,2 0 0 0 2,-2 v -7.53 h 12 L 61.1,8.17 63.18,4.49 h -12 V 2 a 2,2 0 0 0 -4,0 v 17.38 a 2,2 0 0 0 2.03,2 z"
       id="path322" />
    <polygon
       points="86.81,29.2 60.57,29.2 72.71,42.91 92.76,42.91 "
       id="polygon324" />
    <polygon
       points="3.86,42.91 25.7,42.91 37.84,29.2 9.84,29.2 "
       id="polygon326" />
  </g>
  <metadata
     id="metadata340">
    <rdf:RDF>
      <cc:Work
         rdf:about="">
        <dc:title>school </dc:title>
      </cc:Work>
    </rdf:RDF>
  </metadata>
</svg>
