<?xml version="1.0" encoding="UTF-8" standalone="no"?>
<svg
   version="1.1"
   x="0px"
   y="0px"
   viewBox="0 0 66.099998 36.700001"
   xml:space="preserve"
   id="svg14"
   sodipodi:docname="sea.svg"
   width="66.099998"
   height="36.700001"
   inkscape:version="1.1.2 (0a00cf5339, 2022-02-04)"
   xmlns:inkscape="http://www.inkscape.org/namespaces/inkscape"
   xmlns:sodipodi="http://sodipodi.sourceforge.net/DTD/sodipodi-0.dtd"
   xmlns="http://www.w3.org/2000/svg"
   xmlns:svg="http://www.w3.org/2000/svg"><defs
     id="defs18" /><sodipodi:namedview
     id="namedview16"
     pagecolor="#ffffff"
     bordercolor="#666666"
     borderopacity="1.0"
     inkscape:pageshadow="2"
     inkscape:pageopacity="0.0"
     inkscape:pagecheckerboard="0"
     showgrid="false"
     fit-margin-top="0"
     fit-margin-left="0"
     fit-margin-right="0"
     fit-margin-bottom="0"
     inkscape:zoom="6.088"
     inkscape:cx="33.508541"
     inkscape:cy="31.291064"
     inkscape:window-width="1850"
     inkscape:window-height="1025"
     inkscape:window-x="1990"
     inkscape:window-y="27"
     inkscape:window-maximized="1"
     inkscape:current-layer="svg14" /><path
     d="M 65.1,5.8 C 63.2,5.8 61.5,5 60.3,3.5 59.5,2.5 58.3,2 57.1,2 55.9,2 54.7,2.6 53.9,3.5 52.7,5 51,5.8 49.1,5.8 47.2,5.8 45.5,5 44.3,3.5 43.5,2.5 42.3,2 41.1,2 39.9,2 38.7,2.6 37.9,3.5 36.7,5 35,5.8 33.1,5.8 31.2,5.8 29.5,5 28.3,3.5 27.5,2.5 26.3,2 25.1,2 23.9,2 22.7,2.6 21.9,3.5 20.7,5 19,5.8 17.1,5.8 15.2,5.8 13.5,5 12.3,3.5 11.5,2.5 10.3,2 9.1,2 7.9,2 6.7,2.6 5.9,3.5 4.7,5 3,5.8 1.1,5.8 c -0.6,0 -1,-0.4 -1,-1 0,-0.6 0.4,-1 1,-1 C 2.4,3.8 3.5,3.2 4.3,2.3 5.5,0.8 7.2,0 9.1,0 c 1.9,0 3.6,0.8 4.8,2.3 0.8,1 2,1.5 3.2,1.5 1.2,0 2.4,-0.6 3.2,-1.5 1.2,-1.5 2.9,-2.3 4.8,-2.3 1.9,0 3.6,0.8 4.8,2.3 0.8,1 2,1.5 3.2,1.5 1.2,0 2.4,-0.6 3.2,-1.5 1.2,-1.5 2.9,-2.3 4.8,-2.3 1.9,0 3.6,0.8 4.8,2.3 0.8,1 2,1.5 3.2,1.5 1.2,0 2.4,-0.6 3.2,-1.5 1.2,-1.5 2.9,-2.3 4.8,-2.3 1.9,0 3.6,0.8 4.8,2.3 0.8,1 2,1.5 3.2,1.5 0.6,0 1,0.4 1,1 0,0.6 -0.5,1 -1,1 z"
     id="path2"
     style="fill:#474747" /><path
     d="m 65.1,16.1 c -1.9,0 -3.6,-0.8 -4.8,-2.3 -0.8,-1 -2,-1.5 -3.2,-1.5 -1.2,0 -2.5,0.5 -3.3,1.5 -1.2,1.5 -2.9,2.3 -4.8,2.3 -1.9,0 -3.6,-0.8 -4.8,-2.3 -0.8,-1 -2,-1.5 -3.2,-1.5 -1.2,0 -2.4,0.5 -3.2,1.5 -1.2,1.5 -2.9,2.3 -4.8,2.3 -1.9,0 -3.6,-0.8 -4.8,-2.3 -0.8,-1 -2,-1.5 -3.2,-1.5 -1.2,0 -2.4,0.5 -3.2,1.5 -1.2,1.5 -2.9,2.3 -4.8,2.3 -1.9,0 -3.6,-0.8 -4.8,-2.3 -0.8,-1 -2,-1.5 -3.2,-1.5 -1.2,0 -2.4,0.5 -3.2,1.5 -1.2,1.5 -2.9,2.3 -4.8,2.3 -0.6,0 -1,-0.4 -1,-1 0,-0.6 0.4,-1 1,-1 1.3,0 2.4,-0.6 3.2,-1.5 1.2,-1.5 2.9,-2.3 4.8,-2.3 1.9,0 3.6,0.8 4.8,2.3 0.8,1 2,1.5 3.2,1.5 1.2,0 2.4,-0.6 3.2,-1.5 1.2,-1.5 2.9,-2.3 4.8,-2.3 1.9,0 3.6,0.8 4.8,2.3 0.8,1 2,1.5 3.2,1.5 1.2,0 2.4,-0.6 3.2,-1.5 1.2,-1.5 2.9,-2.3 4.8,-2.3 1.9,0 3.6,0.8 4.8,2.3 0.8,1 2,1.5 3.2,1.5 1.2,0 2.4,-0.6 3.2,-1.5 1.2,-1.5 2.9,-2.3 4.8,-2.3 1.9,0 3.6,0.8 4.8,2.3 0.8,1 2,1.5 3.2,1.5 0.6,0 1,0.4 1,1 0,0.6 -0.4,1 -0.9,1 z"
     id="path4"
     style="fill:#474747" /><path
     d="m 65.1,26.4 c -1.9,0 -3.6,-0.8 -4.8,-2.3 -0.8,-1 -2,-1.5 -3.2,-1.5 -1.2,0 -2.4,0.6 -3.2,1.5 -1.2,1.5 -2.9,2.3 -4.8,2.3 -1.9,0 -3.6,-0.8 -4.8,-2.3 -0.8,-1 -2,-1.5 -3.2,-1.5 -1.2,0 -2.4,0.6 -3.2,1.5 -1.2,1.5 -2.9,2.3 -4.8,2.3 -1.9,0 -3.6,-0.8 -4.8,-2.3 -0.8,-1 -2,-1.5 -3.2,-1.5 -1.2,0 -2.4,0.6 -3.2,1.5 -1.2,1.5 -2.9,2.3 -4.8,2.3 -1.9,0 -3.6,-0.8 -4.8,-2.3 -0.8,-1 -2,-1.5 -3.2,-1.5 -1.2,0 -2.4,0.6 -3.2,1.5 -1.2,1.5 -2.9,2.3 -4.8,2.3 -0.6,0 -1,-0.4 -1,-1 0,-0.6 0.4,-1 1,-1 1.3,0 2.4,-0.6 3.2,-1.5 1.2,-1.5 2.9,-2.3 4.8,-2.3 1.9,0 3.6,0.8 4.8,2.3 0.8,1 2,1.5 3.2,1.5 1.2,0 2.4,-0.6 3.2,-1.5 1.2,-1.5 2.9,-2.3 4.8,-2.3 1.9,0 3.6,0.8 4.8,2.3 0.8,1 2,1.5 3.2,1.5 1.2,0 2.4,-0.6 3.2,-1.5 1.2,-1.5 2.9,-2.3 4.8,-2.3 1.9,0 3.6,0.8 4.8,2.3 0.8,1 2,1.5 3.2,1.5 1.2,0 2.4,-0.6 3.2,-1.5 1.2,-1.5 2.9,-2.3 4.8,-2.3 1.9,0 3.6,0.8 4.8,2.3 0.8,1 2,1.5 3.2,1.5 0.6,0 1,0.4 1,1 0,0.6 -0.5,1 -1,1 z"
     id="path6"
     style="fill:#474747" /><path
     d="m 65.1,36.7 c -1.9,0 -3.6,-0.8 -4.8,-2.3 -0.8,-1 -2,-1.5 -3.2,-1.5 -1.2,0 -2.4,0.6 -3.2,1.5 -1.2,1.5 -2.9,2.3 -4.8,2.3 -1.9,0 -3.6,-0.8 -4.8,-2.3 -0.8,-1 -2,-1.5 -3.2,-1.5 -1.2,0 -2.4,0.6 -3.2,1.5 -1.2,1.5 -2.9,2.3 -4.8,2.3 -1.9,0 -3.6,-0.8 -4.8,-2.3 -0.8,-1 -2,-1.5 -3.2,-1.5 -1.2,0 -2.4,0.6 -3.2,1.5 -1.2,1.5 -2.9,2.3 -4.8,2.3 -1.9,0 -3.6,-0.8 -4.8,-2.3 -0.8,-1 -2,-1.5 -3.2,-1.5 -1.2,0 -2.4,0.6 -3.2,1.5 -1.2,1.5 -2.9,2.3 -4.8,2.3 -0.6,0 -1,-0.4 -1,-1 0,-0.6 0.4,-1 1,-1 1.3,0 2.4,-0.6 3.2,-1.5 1.2,-1.5 2.9,-2.3 4.8,-2.3 1.9,0 3.6,0.8 4.8,2.3 0.8,1 2,1.5 3.2,1.5 1.2,0 2.4,-0.6 3.2,-1.5 1.2,-1.5 2.9,-2.3 4.8,-2.3 1.9,0 3.6,0.8 4.8,2.3 0.8,1 2,1.5 3.2,1.5 1.2,0 2.4,-0.6 3.2,-1.5 1.2,-1.5 2.9,-2.3 4.8,-2.3 1.9,0 3.6,0.8 4.8,2.3 0.8,1 2,1.5 3.2,1.5 1.2,0 2.4,-0.6 3.2,-1.5 1.2,-1.5 2.9,-2.3 4.8,-2.3 1.9,0 3.6,0.8 4.8,2.3 0.8,1 2,1.5 3.2,1.5 0.6,0 1,0.4 1,1 0,0.6 -0.5,1 -1,1 z"
     id="path8"
     style="fill:#474747" /></svg>
