<?xml version="1.0" encoding="UTF-8" standalone="no"?>
<svg
   viewBox="0 0 21.999989 15"
   version="1.1"
   x="0px"
   y="0px"
   id="svg14"
   sodipodi:docname="sea.svg"
   width="21.999989"
   height="15"
   inkscape:version="1.1.2 (0a00cf5339, 2022-02-04)"
   xmlns:inkscape="http://www.inkscape.org/namespaces/inkscape"
   xmlns:sodipodi="http://sodipodi.sourceforge.net/DTD/sodipodi-0.dtd"
   xmlns="http://www.w3.org/2000/svg"
   xmlns:svg="http://www.w3.org/2000/svg"
   xmlns:rdf="http://www.w3.org/1999/02/22-rdf-syntax-ns#"
   xmlns:cc="http://creativecommons.org/ns#"
   xmlns:dc="http://purl.org/dc/elements/1.1/">
  <defs
     id="defs18" />
  <sodipodi:namedview
     id="namedview16"
     pagecolor="#ffffff"
     bordercolor="#666666"
     borderopacity="1.0"
     inkscape:pageshadow="2"
     inkscape:pageopacity="0.0"
     inkscape:pagecheckerboard="0"
     showgrid="false"
     fit-margin-top="0"
     fit-margin-left="0"
     fit-margin-right="0"
     fit-margin-bottom="0"
     inkscape:zoom="40.586667"
     inkscape:cx="10.98883"
     inkscape:cy="6.5292378"
     inkscape:window-width="1920"
     inkscape:window-height="1052"
     inkscape:window-x="3840"
     inkscape:window-y="0"
     inkscape:window-maximized="1"
     inkscape:current-layer="svg14" />
  <title
     id="title2">sea</title>
  <g
     stroke="none"
     stroke-width="1"
     fill="none"
     fill-rule="evenodd"
     id="g8"
     style="fill:#616161">
    <g
       transform="translate(-225,-133)"
       fill="#000000"
       id="g6"
       style="fill:#616161">
      <path
         d="m 241.92299,146.172 c 1.315,-1.514 3.64,-1.512 4.954,0 0.182,0.208 0.159,0.524 -0.049,0.705 -0.095,0.083 -0.212,0.123 -0.32799,0.123 -0.14001,0 -0.27801,-0.059 -0.37701,-0.172 -0.93,-1.067 -2.517,-1.069 -3.446,0 -0.656,0.755 -1.536,1.172 -2.476,1.172 v 0 c -0.941,0 -1.821,-0.416 -2.478,-1.172 -0.93,-1.068 -2.516,-1.068 -3.446,0 -0.657,0.756 -1.537,1.172 -2.477,1.172 v 0 c -0.941,0 -1.821,-0.417 -2.477,-1.172 -0.931,-1.069 -2.518,-1.067 -3.446,0 -0.182,0.208 -0.496,0.231 -0.705,0.049 -0.208,-0.181 -0.231,-0.497 -0.049,-0.705 1.314,-1.511 3.639,-1.513 4.954,0 0.465,0.534 1.076,0.828 1.723,0.828 0.646,0 1.259,-0.294 1.723,-0.828 1.313,-1.512 3.641,-1.512 4.954,0 0.464,0.534 1.077,0.828 1.723,0.828 0.647,0 1.258,-0.294 1.723,-0.828 z m 4.954,-4 c 0.182,0.208 0.159,0.524 -0.049,0.705 -0.095,0.083 -0.212,0.123 -0.32799,0.123 -0.14001,0 -0.27801,-0.059 -0.37701,-0.172 -0.93,-1.067 -2.517,-1.069 -3.446,0 -0.656,0.755 -1.536,1.172 -2.476,1.172 h -10e-4 c -0.94,0 -1.82,-0.416 -2.477,-1.172 -0.93,-1.068 -2.516,-1.068 -3.446,0 -0.657,0.756 -1.537,1.172 -2.477,1.172 h -0.001 c -0.94,0 -1.82,-0.417 -2.476,-1.172 -0.931,-1.069 -2.518,-1.067 -3.446,0 -0.182,0.207 -0.496,0.231 -0.705,0.049 -0.208,-0.181 -0.231,-0.497 -0.049,-0.705 1.314,-1.511 3.639,-1.513 4.954,0 0.465,0.534 1.076,0.828 1.723,0.828 0.646,0 1.259,-0.294 1.723,-0.828 1.313,-1.512 3.641,-1.512 4.954,0 0.464,0.534 1.077,0.828 1.723,0.828 0.647,0 1.258,-0.294 1.723,-0.828 1.315,-1.514 3.64,-1.512 4.954,0 z m 0,-4.03725 c 0.182,0.208 0.159,0.524 -0.049,0.705 -0.095,0.083 -0.212,0.123 -0.32799,0.123 -0.14001,0 -0.27801,-0.059 -0.37701,-0.172 -0.93,-1.067 -2.517,-1.069 -3.446,0 -0.656,0.755 -1.536,1.172 -2.476,1.172 h -10e-4 c -0.94,0 -1.82,-0.416 -2.477,-1.172 -0.93,-1.068 -2.516,-1.068 -3.446,0 -0.657,0.756 -1.537,1.172 -2.477,1.172 h -0.001 c -0.94,0 -1.82,-0.417 -2.476,-1.172 -0.931,-1.069 -2.518,-1.067 -3.446,0 -0.182,0.207 -0.496,0.231 -0.705,0.049 -0.208,-0.181 -0.231,-0.497 -0.049,-0.705 1.314,-1.511 3.639,-1.513 4.954,0 0.465,0.534 1.076,0.828 1.723,0.828 0.646,0 1.259,-0.294 1.723,-0.828 1.313,-1.512 3.641,-1.512 4.954,0 0.464,0.534 1.077,0.828 1.723,0.828 0.647,0 1.258,-0.294 1.723,-0.828 1.315,-1.514 3.64,-1.512 4.954,0 z m 0,-4 c 0.182,0.208 0.159,0.524 -0.049,0.705 -0.095,0.083 -0.212,0.123 -0.32799,0.123 -0.14001,0 -0.27801,-0.059 -0.37701,-0.172 -0.93,-1.067 -2.517,-1.069 -3.446,0 -0.656,0.755 -1.536,1.172 -2.476,1.172 h -10e-4 c -0.94,0 -1.82,-0.416 -2.477,-1.172 -0.93,-1.068 -2.516,-1.068 -3.446,0 -0.657,0.756 -1.537,1.172 -2.477,1.172 h -0.001 c -0.94,0 -1.82,-0.417 -2.476,-1.172 -0.931,-1.069 -2.518,-1.067 -3.446,0 -0.182,0.207 -0.496,0.231 -0.705,0.049 -0.208,-0.181 -0.231,-0.497 -0.049,-0.705 1.314,-1.511 3.639,-1.513 4.954,0 0.465,0.534 1.076,0.828 1.723,0.828 0.646,0 1.259,-0.294 1.723,-0.828 1.313,-1.512 3.641,-1.512 4.954,0 0.464,0.534 1.077,0.828 1.723,0.828 0.647,0 1.258,-0.294 1.723,-0.828 1.315,-1.514 3.64,-1.512 4.954,0 z"
         id="path4"
         style="fill:#616161" />
    </g>
  </g>
  <metadata
     id="metadata20">
    <rdf:RDF>
      <cc:Work
         rdf:about="">
        <dc:title>sea</dc:title>
      </cc:Work>
    </rdf:RDF>
  </metadata>
</svg>
