<?xml version="1.0" encoding="UTF-8" standalone="no"?>
<svg
   version="1.1"
   x="0px"
   y="0px"
   viewBox="0 0 95 47.400002"
   xml:space="preserve"
   id="svg16"
   sodipodi:docname="share-smoke.svg"
   width="95"
   height="47.400002"
   inkscape:version="1.2.2 (b0a8486541, 2022-12-01)"
   xmlns:inkscape="http://www.inkscape.org/namespaces/inkscape"
   xmlns:sodipodi="http://sodipodi.sourceforge.net/DTD/sodipodi-0.dtd"
   xmlns="http://www.w3.org/2000/svg"
   xmlns:svg="http://www.w3.org/2000/svg"><defs
     id="defs20" /><sodipodi:namedview
     id="namedview18"
     pagecolor="#ffffff"
     bordercolor="#000000"
     borderopacity="0.25"
     inkscape:showpageshadow="2"
     inkscape:pageopacity="0.0"
     inkscape:pagecheckerboard="0"
     inkscape:deskcolor="#d1d1d1"
     showgrid="false"
     inkscape:zoom="7.144"
     inkscape:cx="47.522396"
     inkscape:cy="36.324188"
     inkscape:window-width="1920"
     inkscape:window-height="1044"
     inkscape:window-x="3840"
     inkscape:window-y="0"
     inkscape:window-maximized="1"
     inkscape:current-layer="svg16" /><path
     d="m 1.5,47.3 h 77.2 c 0.8,0 1.5,-0.7 1.5,-1.5 V 33.5 C 80.2,32.7 79.5,32 78.7,32 H 1.5 C 0.7,32 0,32.7 0,33.5 v 12.4 c 0,0.8 0.7,1.4 1.5,1.4 z M 24.6,35 h 52.7 v 9.4 H 24.6 Z M 2.9,35 h 18.7 v 9.4 H 2.9 Z"
     id="path2"
     style="fill:#6a6a6a" /><path
     d="m 86.1,32 c -0.8,0 -1.5,0.7 -1.5,1.5 v 12.4 c 0,0.8 0.7,1.5 1.5,1.5 0.8,0 1.5,-0.7 1.5,-1.5 V 33.5 C 87.6,32.7 86.9,32 86.1,32 Z"
     id="path4"
     style="fill:#6a6a6a" /><path
     d="M 93.5,32 C 92.7,32 92,32.7 92,33.5 v 12.4 c 0,0.8 0.7,1.5 1.5,1.5 0.8,0 1.5,-0.7 1.5,-1.5 V 33.5 C 95,32.7 94.3,32 93.5,32 Z"
     id="path6"
     style="fill:#6a6a6a" /><path
     d="m 72.1,3 h 4.7 C 77.6,3 78.3,2.3 78.3,1.5 78.3,0.7 77.6,0 76.8,0 H 72.1 C 67.6,0 64,3.6 64,8.1 c 0,4.5 3.6,8.1 8.1,8.1 h 7.4 c 2.8,0 5.1,2.3 5.1,5.1 v 6.6 c 0,0.8 0.7,1.5 1.5,1.5 0.8,0 1.5,-0.7 1.5,-1.5 v -6.6 c 0,-4.5 -3.6,-8.1 -8.1,-8.1 H 72.1 C 69.3,13.2 67,10.9 67,8.1 67,5.3 69.3,3 72.1,3 Z"
     id="path8"
     style="fill:#6a6a6a" /><path
     d="M 80.5,6.7 C 79.7,6.7 79,7.4 79,8.2 79,9 79.7,9.7 80.5,9.7 86.9,9.7 92,14.9 92,21.2 v 7.6 c 0,0.8 0.7,1.5 1.5,1.5 0.8,0 1.5,-0.7 1.5,-1.5 V 21.2 C 95,13.2 88.5,6.7 80.5,6.7 Z"
     id="path10"
     style="fill:#6a6a6a" /></svg>
