<?xml version="1.0" encoding="UTF-8" standalone="no"?>
<svg
   version="1.1"
   x="0px"
   y="0px"
   viewBox="0 0 449 464.89999"
   xml:space="preserve"
   id="svg323"
   sodipodi:docname="share-contract.svg"
   width="449"
   height="464.89999"
   inkscape:version="1.2.2 (b0a8486541, 2022-12-01)"
   xmlns:inkscape="http://www.inkscape.org/namespaces/inkscape"
   xmlns:sodipodi="http://sodipodi.sourceforge.net/DTD/sodipodi-0.dtd"
   xmlns="http://www.w3.org/2000/svg"
   xmlns:svg="http://www.w3.org/2000/svg"><defs
     id="defs327" /><sodipodi:namedview
     id="namedview325"
     pagecolor="#ffffff"
     bordercolor="#000000"
     borderopacity="0.25"
     inkscape:showpageshadow="2"
     inkscape:pageopacity="0.0"
     inkscape:pagecheckerboard="0"
     inkscape:deskcolor="#d1d1d1"
     showgrid="false"
     inkscape:zoom="1.271875"
     inkscape:cx="193.41523"
     inkscape:cy="272.82555"
     inkscape:window-width="1860"
     inkscape:window-height="1012"
     inkscape:window-x="0"
     inkscape:window-y="0"
     inkscape:window-maximized="1"
     inkscape:current-layer="svg323" /><g
     id="g317"
     transform="translate(-31.5,-23.5)"
     style="fill:#666666"><path
       id="path307"
       d="m 250.97461,154.44727 c 0.0877,0.019 0.16095,0.0395 0.25195,0.0586 0.041,0.009 -0.14263,-0.0427 -0.11133,-0.0586 z"
       style="fill:#666666" /><path
       id="path309"
       d="m 123.30078,23.5 c -22.0999,0 -40.201171,17.799329 -40.201171,39.699219 l -1.5,252.101561 H 41.5 c -5.499974,0 -10,4.50005 -10,10 v 43.29883 c 0,28.19985 22.400921,51.3 50.300781,52.5 v 0.0996 H 306.59961 v -0.0996 c 1,0.1 2,0.0996 3,0.0996 28.99985,0 52.59961,-23.59976 52.59961,-52.59961 v -197 H 415.5 c 5.49995,0.1 10,-4.30044 10,-9.90039 V 65.199219 C 425.5,42.199334 406.80068,23.5 383.80078,23.5 Z m 0.0996,20 h 225 c -4,6.39997 -6.20117,13.799259 -6.20117,21.699219 V 368.69922 c 0,17.9999 -14.59971,32.60156 -32.59961,32.60156 -17.99985,0 -32.5996,-14.60166 -32.5996,-32.60156 v -43.29883 c 0,-5.49995 -4.50005,-10 -10,-10 H 101.69922 l 1.5,-252.099609 C 103.19922,52.400836 112.20044,43.5 123.40039,43.5 Z m 260.5,0 c 11.89995,0 21.69922,9.699279 21.69922,21.699219 V 151.69922 H 405.5 362.19922 V 65.199219 C 362.19922,53.299279 371.90044,43.5 383.90039,43.5 Z M 51.5,335.40039 H 257 v 33.29883 c 0,12.29995 4.30044,23.60161 11.40039,32.60156 H 84.099609 C 66.099699,401.30078 51.5,386.69912 51.5,368.69922 Z"
       style="fill:#666666" /><path
       d="M 299.4,234.6 H 139.9 c -5.5,0 -10,4.5 -10,10 0,5.5 4.5,10 10,10 h 159.6 c 5.5,0 10,-4.5 10,-10 0,-5.5 -4.6,-10 -10.1,-10 z"
       id="path311"
       style="fill:#666666" /><path
       d="m 236.4,275.5 h -96.5 c -5.5,0 -10,4.5 -10,10 0,5.5 4.5,10 10,10 h 96.5 c 5.5,0 10,-4.5 10,-10 0,-5.5 -4.5,-10 -10,-10 z"
       id="path313"
       style="fill:#666666" /><path
       d="m 441.5,203.9 c -21.5,0 -39,17.5 -39,39 v 173.3 c 0,0.4 0,0.7 0.1,1.1 0,0.1 0,0.2 0,0.2 0,0.3 0.1,0.5 0.1,0.8 0,0.1 0,0.2 0.1,0.3 0.1,0.3 0.1,0.5 0.2,0.7 0,0.1 0.1,0.2 0.1,0.3 0.1,0.2 0.2,0.5 0.3,0.7 0,0 0,0.1 0.1,0.1 l 29.5,62.3 c 1.7,3.5 5.2,5.7 9,5.7 0,0 0,0 0.1,0 3.9,0 7.4,-2.3 9,-5.8 l 28.5,-62.3 v -0.1 c 0.1,-0.2 0.2,-0.5 0.3,-0.7 0,-0.1 0.1,-0.2 0.1,-0.2 0.1,-0.3 0.2,-0.5 0.2,-0.8 0,-0.1 0,-0.1 0.1,-0.2 0.1,-0.3 0.1,-0.6 0.1,-0.9 0,-0.1 0,-0.1 0,-0.2 0,-0.3 0.1,-0.7 0.1,-1.1 V 242.9 c 0,-21.5 -17.5,-39 -39,-39 z m -19,202.3 V 273.9 h 38 v 132.3 z m 19,-182.3 c 10.5,0 19,8.5 19,19 v 11 h -38 v -11 c 0,-10.5 8.5,-19 19,-19 z m 0.4,230.8 -13.5,-28.6 H 455 Z"
       id="path315"
       style="fill:#666666" /></g></svg>
