<?xml version="1.0" encoding="UTF-8" standalone="no"?>
<svg
   viewBox="0 0 59.977402 60"
   x="0px"
   y="0px"
   version="1.1"
   id="svg404"
   sodipodi:docname="shower-head.svg"
   width="59.977402"
   height="60"
   inkscape:version="1.2.2 (b0a8486541, 2022-12-01)"
   xmlns:inkscape="http://www.inkscape.org/namespaces/inkscape"
   xmlns:sodipodi="http://sodipodi.sourceforge.net/DTD/sodipodi-0.dtd"
   xmlns="http://www.w3.org/2000/svg"
   xmlns:svg="http://www.w3.org/2000/svg"
   xmlns:rdf="http://www.w3.org/1999/02/22-rdf-syntax-ns#"
   xmlns:cc="http://creativecommons.org/ns#"
   xmlns:dc="http://purl.org/dc/elements/1.1/">
  <defs
     id="defs408" />
  <sodipodi:namedview
     id="namedview406"
     pagecolor="#ffffff"
     bordercolor="#000000"
     borderopacity="0.25"
     inkscape:showpageshadow="2"
     inkscape:pageopacity="0.0"
     inkscape:pagecheckerboard="0"
     inkscape:deskcolor="#d1d1d1"
     showgrid="false"
     inkscape:zoom="11.56"
     inkscape:cx="30.017301"
     inkscape:cy="27.551903"
     inkscape:window-width="1920"
     inkscape:window-height="1044"
     inkscape:window-x="3840"
     inkscape:window-y="0"
     inkscape:window-maximized="1"
     inkscape:current-layer="svg404" />
  <title
     id="title370">Bathroom Objects - Outline - 069 - Shower Head</title>
  <g
     data-name="01-Toilet Front"
     id="g398"
     transform="translate(-0.02259887)"
     style="fill:#555555">
    <path
       d="m 57,0 a 3,3 0 0 0 -3,3 v 16 h -3 a 1,1 0 0 0 -1,1 v 2.86 l -5.58,2.73 v 0 A 1,1 0 0 0 43.07,25.16 L 42.18,25.62 37.13,15.85 29.77,1.62 a 3,3 0 0 0 -4,-1.29 L 20.4,3.09 v 0 L 18.62,4 a 3,3 0 0 0 -1.29,4 l 6.43,12.44 a 3,3 0 0 0 4,1.29 l 2.66,-1.38 4.59,8.88 -0.89,0.46 a 1,1 0 0 0 -0.43,1.35 l 2.76,5.33 a 1,1 0 0 0 0.58,0.49 1,1 0 0 0 0.76,-0.06 l 0.89,-0.46 2.76,5.33 a 1,1 0 0 0 1.35,0.43 v 0 l 1.38,2.66 a 1,1 0 0 0 1.35,0.43 L 46,45 A 16.12,16.12 0 0 0 48.07,51.95 14,14 0 0 1 50,59 1,1 0 0 0 52,59 15.82,15.82 0 0 0 49.89,51.05 14,14 0 0 1 48,44 v 0 l 1.13,-0.58 a 1,1 0 0 0 0.43,-1.35 L 48.18,39.4 A 1,1 0 0 0 48.6,38 l -2.76,-5.33 0.89,-0.46 a 1,1 0 0 0 0.43,-1.35 v 0 L 50,29.44 V 32 a 1,1 0 0 0 1,1 h 3 v 24 a 3,3 0 0 0 6,0 V 3 A 3,3 0 0 0 57,0 Z M 26.65,2.11 A 1,1 0 0 1 28,2.54 L 34.89,15.86 29.56,18.62 22.21,4.41 Z M 25.55,19.57 19.11,7.13 a 1,1 0 0 1 0.43,-1.35 l 0.89,-0.46 7.35,14.21 -0.89,0.46 a 1,1 0 0 1 -1.35,-0.42 z m 10.25,-1.93 1.38,2.66 -3.55,1.84 -1.38,-2.66 z m -1.26,6.28 3.55,-1.84 2.3,4.44 -3.55,1.84 z m 3.28,10.69 -1.82,-3.55 7.11,-3.67 1.83,3.55 v 0 l -0.89,0.46 v 0 l -5.33,2.76 v 0 z m 7.72,8.39 -0.92,-1.78 1.78,-0.92 0.92,1.78 z m 0.83,-4.93 -3.55,1.84 -2.3,-4.44 3.55,-1.84 z M 49.8,27.29 46.25,29.13 45.34,27.37 50,25.09 v 2.14 a 1,1 0 0 0 -0.2,0.06 z M 52,31 V 21 h 2 v 10 z m 6,26 a 1,1 0 0 1 -2,0 V 3 a 1,1 0 0 1 2,0 z"
       id="path372"
       style="fill:#555555" />
    <path
       d="m 18.11,22.45 a 1,1 0 0 0 1.34,0.45 l 2,-1 a 1,1 0 1 0 -0.89,-1.79 l -2,1 a 1,1 0 0 0 -0.45,1.34 z"
       id="path374"
       style="fill:#555555" />
    <path
       d="m 18.55,16.11 -2,1 a 1,1 0 0 0 0.89,1.79 l 2,-1 a 1,1 0 1 0 -0.89,-1.79 z"
       id="path376"
       style="fill:#555555" />
    <path
       d="m 16.55,12.11 -2,1 a 1,1 0 0 0 0.89,1.79 l 2,-1 a 1,1 0 0 0 -0.89,-1.79 z"
       id="path378"
       style="fill:#555555" />
    <path
       d="m 14.55,8.11 -2,1 a 1,1 0 0 0 0.89,1.79 l 2,-1 A 1,1 0 1 0 14.55,8.11 Z"
       id="path380"
       style="fill:#555555" />
    <path
       d="m 14.55,23.11 -2,1 a 1,1 0 0 0 0.89,1.79 l 2,-1 a 1,1 0 1 0 -0.89,-1.79 z"
       id="path382"
       style="fill:#555555" />
    <path
       d="m 10.11,21.45 a 1,1 0 0 0 1.34,0.45 l 2,-1 a 1,1 0 0 0 -0.89,-1.79 l -2,1 a 1,1 0 0 0 -0.45,1.34 z"
       id="path384"
       style="fill:#555555" />
    <path
       d="m 10.55,15.11 -2,1 a 1,1 0 0 0 0.89,1.79 l 2,-1 a 1,1 0 0 0 -0.89,-1.79 z"
       id="path386"
       style="fill:#555555" />
    <path
       d="m 8.55,11.11 -2,1 a 1,1 0 0 0 0.89,1.79 l 2,-1 A 1,1 0 0 0 8.55,11.11 Z"
       id="path388"
       style="fill:#555555" />
    <path
       d="m 8.55,26.11 -2,1 a 1,1 0 0 0 0.89,1.79 l 2,-1 A 1,1 0 0 0 8.55,26.11 Z"
       id="path390"
       style="fill:#555555" />
    <path
       d="m 4.11,24.45 a 1,1 0 0 0 1.34,0.45 l 2,-1 A 1,1 0 0 0 6.56,22.11 l -2,1 a 1,1 0 0 0 -0.45,1.34 z"
       id="path392"
       style="fill:#555555" />
    <path
       d="m 4.55,18.11 -2,1 a 1,1 0 0 0 0.89,1.79 l 2,-1 A 1,1 0 0 0 4.55,18.11 Z"
       id="path394"
       style="fill:#555555" />
    <path
       d="m 2.55,14.11 -2,1 a 1,1 0 0 0 0.89,1.79 l 2,-1 A 1,1 0 0 0 2.55,14.11 Z"
       id="path396"
       style="fill:#555555" />
  </g>
  <metadata
     id="metadata426">
    <rdf:RDF>
      <cc:Work
         rdf:about="">
        <dc:title>Bathroom Objects - Outline - 069 - Shower Head</dc:title>
      </cc:Work>
    </rdf:RDF>
  </metadata>
</svg>
