<?xml version="1.0" encoding="UTF-8" standalone="no"?>
<svg
   viewBox="0 0 98.035233 98.035202"
   x="0px"
   y="0px"
   version="1.1"
   id="svg12"
   sodipodi:docname="shower-tabs.svg"
   width="98.035233"
   height="98.035202"
   inkscape:version="1.1.2 (0a00cf5339, 2022-02-04)"
   xmlns:inkscape="http://www.inkscape.org/namespaces/inkscape"
   xmlns:sodipodi="http://sodipodi.sourceforge.net/DTD/sodipodi-0.dtd"
   xmlns="http://www.w3.org/2000/svg"
   xmlns:svg="http://www.w3.org/2000/svg"
   xmlns:rdf="http://www.w3.org/1999/02/22-rdf-syntax-ns#"
   xmlns:cc="http://creativecommons.org/ns#"
   xmlns:dc="http://purl.org/dc/elements/1.1/">
  <defs
     id="defs16" />
  <sodipodi:namedview
     id="namedview14"
     pagecolor="#ffffff"
     bordercolor="#666666"
     borderopacity="1.0"
     inkscape:pageshadow="2"
     inkscape:pageopacity="0.0"
     inkscape:pagecheckerboard="0"
     showgrid="false"
     fit-margin-top="0"
     fit-margin-left="0"
     fit-margin-right="0"
     fit-margin-bottom="0"
     inkscape:zoom="4.75625"
     inkscape:cx="48.988173"
     inkscape:cy="65.072273"
     inkscape:window-width="1850"
     inkscape:window-height="1025"
     inkscape:window-x="1990"
     inkscape:window-y="27"
     inkscape:window-maximized="1"
     inkscape:current-layer="svg12" />
  <title
     id="title2">19</title>
  <g
     data-name="1"
     id="g6"
     style="fill:#414141"
     transform="translate(-14.98238,-14.98242)">
    <path
       d="m 33.364,61.9576 h 4.0848 V 86.46641 H 33.364 Z m 71.484,46.97522 h 8.16961 v 4.0848 H 14.98238 v -4.0848 H 23.152 v -91.908 a 2.04146,2.04146 0 0 1 2.0424,-2.0424 h 77.61122 a 2.04146,2.04146 0 0 1 2.0424,2.0424 z m -77.61122,0 H 100.7632 V 76.2544 H 94.636 v 4.08481 H 90.5512 V 68.0848 h 4.0848 v 4.0848 h 6.1272 V 31.3216 H 74.212 a 2.04492,2.04492 0 0 0 -2.0424,2.0424 v 2.20559 A 14.3079,14.3079 0 0 1 84.424,49.70319 2.0415,2.0415 0 0 1 82.3816,51.7456 H 57.8728 A 2.04149,2.04149 0 0 1 55.8304,49.70319 14.30789,14.30789 0 0 1 68.0848,35.56958 V 33.364 a 6.13413,6.13413 0 0 1 6.1272,-6.1272 h 26.55121 V 19.06718 H 27.23679 Z m 32.884,-61.272 h 20.01281 a 10.21287,10.21287 0 0 0 -20.01277,0 z M 72.1696,53.788 h -4.0848 v 4.0848 h 4.0848 z m 0,12.2544 h -4.0848 v 4.0848 h 4.0848 z m 0,12.25441 h -4.0848 v 4.0848 h 4.0848 z M 64,53.788 h -4.0848 v 4.0848 H 64 Z m 0,12.2544 h -4.0848 v 4.0848 H 64 Z m 0,12.25441 h -4.0848 v 4.0848 H 64 Z m 12.2544,-20.424 h 4.08481 V 53.788 H 76.2544 Z m 0,12.2544 h 4.08481 V 66.0424 H 76.2544 Z m 0,12.25441 h 4.08481 v -4.0848 H 76.2544 Z m 0,-22.46641 H 72.1696 V 64 h 4.0848 z M 64,64 h 4.0848 V 59.9152 H 64 Z m 12.2544,8.1696 h -4.0848 v 4.0848 h 4.0848 z m -8.1696,0 H 64 v 4.0848 h 4.0848 z m 4.0848,18.38161 H 68.0848 V 94.636 h 4.0848 z m -8.1696,0 H 59.9152 V 94.636 H 64 Z M 76.2544,94.636 h 4.08481 V 90.5512 H 76.2544 Z m -8.1696,12.25441 h 4.0848 v -4.08481 h -4.0848 z m -8.1696,0 H 64 v -4.08481 h -4.0848 z m 16.3392,0 h 4.08481 V 102.8056 H 76.2544 Z m 0,-22.46641 h -4.0848 v 4.0848 h 4.0848 z M 64,88.50881 h 4.0848 V 84.424 H 64 Z m 12.2544,8.1696 h -4.0848 v 4.0848 h 4.0848 z m -8.1696,0 H 64 v 4.0848 h 4.0848 z"
       id="path4"
       style="fill:#414141" />
  </g>
  <metadata
     id="metadata18">
    <rdf:RDF>
      <cc:Work
         rdf:about="">
        <dc:title>19</dc:title>
      </cc:Work>
    </rdf:RDF>
  </metadata>
</svg>
