<?xml version="1.0" encoding="UTF-8" standalone="no"?>
<svg
   viewBox="0 0 32 32"
   x="0px"
   y="0px"
   version="1.1"
   id="svg16"
   sodipodi:docname="size-box-white.svg"
   width="32"
   height="32"
   inkscape:version="1.1.2 (0a00cf5339, 2022-02-04)"
   xmlns:inkscape="http://www.inkscape.org/namespaces/inkscape"
   xmlns:sodipodi="http://sodipodi.sourceforge.net/DTD/sodipodi-0.dtd"
   xmlns="http://www.w3.org/2000/svg"
   xmlns:svg="http://www.w3.org/2000/svg"
   xmlns:rdf="http://www.w3.org/1999/02/22-rdf-syntax-ns#"
   xmlns:cc="http://creativecommons.org/ns#"
   xmlns:dc="http://purl.org/dc/elements/1.1/">
  <defs
     id="defs20" />
  <sodipodi:namedview
     id="namedview18"
     pagecolor="#ffffff"
     bordercolor="#666666"
     borderopacity="1.0"
     inkscape:pageshadow="2"
     inkscape:pageopacity="0.0"
     inkscape:pagecheckerboard="0"
     showgrid="false"
     fit-margin-top="0"
     fit-margin-left="0"
     fit-margin-right="0"
     fit-margin-bottom="0"
     inkscape:zoom="19.025"
     inkscape:cx="15.978975"
     inkscape:cy="16.74113"
     inkscape:window-width="1850"
     inkscape:window-height="1025"
     inkscape:window-x="1990"
     inkscape:window-y="27"
     inkscape:window-maximized="1"
     inkscape:current-layer="svg16" />
  <title
     id="title2">64-Arrow</title>
  <g
     data-name="64-Arrow"
     id="g10"
     style="fill:#ffffff">
    <path
       d="M 31,0 H 1 A 1,1 0 0 0 0,1 v 30 a 1,1 0 0 0 1,1 h 30 a 1,1 0 0 0 1,-1 V 1 A 1,1 0 0 0 31,0 Z M 30,30 H 2 V 2 h 28 z"
       id="path4"
       style="fill:#ffffff" />
    <path
       d="M 19.71,13.71 25,8.41 V 13 h 2 V 6 A 1,1 0 0 0 26,5 h -7 v 2 h 4.59 l -5.29,5.29 z"
       id="path6"
       style="fill:#ffffff" />
    <path
       d="m 6,27 h 7 V 25 H 8.41 L 13.7,19.71 12.29,18.3 7,23.59 V 19 H 5 v 7 a 1,1 0 0 0 1,1 z"
       id="path8"
       style="fill:#ffffff" />
  </g>
  <metadata
     id="metadata22">
    <rdf:RDF>
      <cc:Work
         rdf:about="">
        <dc:title>64-Arrow</dc:title>
      </cc:Work>
    </rdf:RDF>
  </metadata>
</svg>
