<?xml version="1.0" encoding="UTF-8" standalone="no"?>
<svg
   version="1.1"
   x="0px"
   y="0px"
   viewBox="0 0 44 44"
   enable-background="new 0 0 48 48"
   xml:space="preserve"
   id="svg8"
   sodipodi:docname="size_arrow.svg"
   width="44"
   height="44"
   inkscape:version="1.1.2 (0a00cf5339, 2022-02-04)"
   xmlns:inkscape="http://www.inkscape.org/namespaces/inkscape"
   xmlns:sodipodi="http://sodipodi.sourceforge.net/DTD/sodipodi-0.dtd"
   xmlns="http://www.w3.org/2000/svg"
   xmlns:svg="http://www.w3.org/2000/svg"><defs
     id="defs12" /><sodipodi:namedview
     id="namedview10"
     pagecolor="#ffffff"
     bordercolor="#666666"
     borderopacity="1.0"
     inkscape:pageshadow="2"
     inkscape:pageopacity="0.0"
     inkscape:pagecheckerboard="0"
     showgrid="false"
     fit-margin-top="0"
     fit-margin-left="0"
     fit-margin-right="0"
     fit-margin-bottom="0"
     inkscape:zoom="12.683333"
     inkscape:cx="21.997372"
     inkscape:cy="19.671485"
     inkscape:window-width="1850"
     inkscape:window-height="1025"
     inkscape:window-x="1990"
     inkscape:window-y="27"
     inkscape:window-maximized="1"
     inkscape:current-layer="svg8" /><path
     d="m 44,1 v 14 c 0,0.552246 -0.447266,1 -1,1 -0.552734,0 -1,-0.447754 -1,-1 V 3.4140625 L 3.4140625,42 H 15 c 0.552734,0 1,0.447754 1,1 0,0.552246 -0.447266,1 -1,1 H 1 C 0.4472656,44 0,43.552246 0,43 V 29 c 0,-0.552246 0.4472656,-1 1,-1 0.5527344,0 1,0.447754 1,1 V 40.585937 L 40.585937,2 H 29 C 28.447266,2 28,1.5522461 28,1 28,0.4477539 28.447266,0 29,0 h 14 c 0.552734,0 1,0.4477539 1,1 z"
     id="path2"
     style="fill:#4a4a4a" /></svg>
