<?xml version="1.0" encoding="UTF-8" standalone="no"?>
<svg
   viewBox="0 0 17 16"
   x="0px"
   y="0px"
   version="1.1"
   id="svg34"
   sodipodi:docname="size-popup-office.svg"
   inkscape:version="1.2.2 (b0a8486541, 2022-12-01)"
   width="17"
   height="16"
   xmlns:inkscape="http://www.inkscape.org/namespaces/inkscape"
   xmlns:sodipodi="http://sodipodi.sourceforge.net/DTD/sodipodi-0.dtd"
   xmlns="http://www.w3.org/2000/svg"
   xmlns:svg="http://www.w3.org/2000/svg"
   xmlns:rdf="http://www.w3.org/1999/02/22-rdf-syntax-ns#"
   xmlns:cc="http://creativecommons.org/ns#"
   xmlns:dc="http://purl.org/dc/elements/1.1/">
  <defs
     id="defs38" />
  <sodipodi:namedview
     id="namedview36"
     pagecolor="#ffffff"
     bordercolor="#666666"
     borderopacity="1.0"
     inkscape:pageshadow="2"
     inkscape:pageopacity="0.0"
     inkscape:pagecheckerboard="0"
     showgrid="false"
     inkscape:zoom="24.352"
     inkscape:cx="8.5208607"
     inkscape:cy="11.148982"
     inkscape:window-width="1864"
     inkscape:window-height="1012"
     inkscape:window-x="1976"
     inkscape:window-y="32"
     inkscape:window-maximized="1"
     inkscape:current-layer="svg34"
     fit-margin-top="0"
     fit-margin-left="0"
     fit-margin-right="0"
     fit-margin-bottom="0"
     inkscape:showpageshadow="2"
     inkscape:deskcolor="#d1d1d1" />
  <title
     id="title2">Artboard 5</title>
  <g
     id="g28"
     style="fill:#0000e2"
     transform="translate(-4,-4.5)">
    <path
       d="M 12.5,20.5 A 1.5017,1.5017 0 0 0 14,19 V 12 A 1.4819,1.4819 0 0 0 13.8492,11.3564 L 13.8535,11.3535 16,9.207 V 10 a 0.5,0.5 0 0 0 1,0 V 8 A 0.4975,0.4975 0 0 0 16.9624,7.8134 V 7.8086 l -7e-4,-8e-4 A 0.4921,0.4921 0 0 0 16.7987,7.609 0.4611,0.4611 0 0 0 16.7487,7.5751 0.4858,0.4858 0 0 0 16.5,7.5 h -2 a 0.5,0.5 0 0 0 0,1 h 0.793 l -2.1465,2.1465 -0.0029,0.0043 A 1.4819,1.4819 0 0 0 12.5,10.5 h -7 A 1.5017,1.5017 0 0 0 4,12 v 7 a 1.5017,1.5017 0 0 0 1.5,1.5 z M 5,19 v -7 a 0.5006,0.5006 0 0 1 0.5,-0.5 h 7 A 0.5006,0.5006 0 0 1 13,12 v 7 a 0.5006,0.5006 0 0 1 -0.5,0.5 h -7 A 0.5006,0.5006 0 0 1 5,19 Z"
       id="path4"
       style="fill:#0000e2" />
    <path
       d="M 4.5,9.5 A 0.5,0.5 0 0 0 5,9 V 7 A 0.5,0.5 0 0 0 4,7 v 2 a 0.5,0.5 0 0 0 0.5,0.5 z"
       id="path6"
       style="fill:#0000e2" />
    <path
       d="m 4.5,5.5 h 2 a 0.5,0.5 0 0 0 0,-1 h -2 a 0.5,0.5 0 0 0 0,1 z"
       id="path8"
       style="fill:#0000e2" />
    <path
       d="m 8.5,5.5 h 2 a 0.5,0.5 0 0 0 0,-1 h -2 a 0.5,0.5 0 0 0 0,1 z"
       id="path10"
       style="fill:#0000e2" />
    <path
       d="m 12.5,5.5 h 2 a 0.5,0.5 0 0 0 0,-1 h -2 a 0.5,0.5 0 0 0 0,1 z"
       id="path12"
       style="fill:#0000e2" />
    <path
       d="m 16.5,5.5 h 2 a 0.5,0.5 0 0 0 0,-1 h -2 a 0.5,0.5 0 0 0 0,1 z"
       id="path14"
       style="fill:#0000e2" />
    <path
       d="M 20.5,4.5 A 0.5,0.5 0 0 0 20,5 v 2 a 0.5,0.5 0 0 0 1,0 V 5 A 0.5,0.5 0 0 0 20.5,4.5 Z"
       id="path16"
       style="fill:#0000e2" />
    <path
       d="M 20.5,8.5 A 0.5,0.5 0 0 0 20,9 v 2 a 0.5,0.5 0 0 0 1,0 V 9 A 0.5,0.5 0 0 0 20.5,8.5 Z"
       id="path18"
       style="fill:#0000e2" />
    <path
       d="M 20.5,12.5 A 0.5,0.5 0 0 0 20,13 v 2 a 0.5,0.5 0 0 0 1,0 v -2 a 0.5,0.5 0 0 0 -0.5,-0.5 z"
       id="path20"
       style="fill:#0000e2" />
    <path
       d="M 20.5,16.5 A 0.5,0.5 0 0 0 20,17 v 2 a 0.5,0.5 0 0 0 1,0 v -2 a 0.5,0.5 0 0 0 -0.5,-0.5 z"
       id="path22"
       style="fill:#0000e2" />
    <path
       d="m 19.5,19.5 h -2 a 0.5,0.5 0 0 0 0,1 h 2 a 0.5,0.5 0 0 0 0,-1 z"
       id="path24"
       style="fill:#0000e2" />
    <path
       d="m 15.5,20.5 a 0.5,0.5 0 0 0 0,-1 h -1 a 0.5,0.5 0 0 0 0,1 z"
       id="path26"
       style="fill:#0000e2" />
  </g>
  <metadata
     id="metadata40">
    <rdf:RDF>
      <cc:Work
         rdf:about="">
        <dc:title>Artboard 5</dc:title>
      </cc:Work>
    </rdf:RDF>
  </metadata>
</svg>
