<?xml version="1.0" encoding="UTF-8" standalone="no"?>
<svg
   data-name="Layer 1"
   viewBox="0 0 30 30"
   x="0px"
   y="0px"
   version="1.1"
   id="svg14"
   sodipodi:docname="size-box.svg"
   width="30"
   height="30"
   inkscape:version="1.1.2 (0a00cf5339, 2022-02-04)"
   xmlns:inkscape="http://www.inkscape.org/namespaces/inkscape"
   xmlns:sodipodi="http://sodipodi.sourceforge.net/DTD/sodipodi-0.dtd"
   xmlns="http://www.w3.org/2000/svg"
   xmlns:svg="http://www.w3.org/2000/svg"
   xmlns:rdf="http://www.w3.org/1999/02/22-rdf-syntax-ns#"
   xmlns:cc="http://creativecommons.org/ns#"
   xmlns:dc="http://purl.org/dc/elements/1.1/">
  <defs
     id="defs18" />
  <sodipodi:namedview
     id="namedview16"
     pagecolor="#ffffff"
     bordercolor="#666666"
     borderopacity="1.0"
     inkscape:pageshadow="2"
     inkscape:pageopacity="0.0"
     inkscape:pagecheckerboard="0"
     showgrid="false"
     fit-margin-top="0"
     fit-margin-left="0"
     fit-margin-right="0"
     fit-margin-bottom="0"
     inkscape:zoom="19.025"
     inkscape:cx="14.980289"
     inkscape:cy="15.21682"
     inkscape:window-width="1850"
     inkscape:window-height="1025"
     inkscape:window-x="1990"
     inkscape:window-y="27"
     inkscape:window-maximized="1"
     inkscape:current-layer="svg14" />
  <title
     id="title2">UI UX</title>
  <path
     d="M 29,0 H 1 A 1,1 0 0 0 0,1 v 28 a 1,1 0 0 0 1,1 h 28 a 1,1 0 0 0 1,-1 V 1 A 1,1 0 0 0 29,0 Z M 28,28 H 2 V 2 h 26 z"
     id="path4"
     style="fill:#404040" />
  <path
     d="M 18.28,12.95 A 1,1 0 0 0 19,12.65 l 5.12,-5.27 v 3.41 a 1,1 0 0 0 2,0 v -5.88 0 A 1,1 0 0 0 26,4.55 c 0,0 0,0 0,0 v 0 A 1,1 0 0 0 25.78,4.23 v 0 L 25.68,4.17 A 0.71,0.71 0 0 0 25.2,3.98 h -0.12 -5.72 a 1,1 0 0 0 0,2 h 3.39 l -5.19,5.35 a 1,1 0 0 0 0.72,1.62 z"
     id="path6"
     style="fill:#404040" />
  <path
     d="m 4,25.45 a 1,1 0 0 0 0.14,0.22 0.93,0.93 0 0 0 0.07,0.1 v 0 a 1,1 0 0 0 0.71,0.3 h 5.87 a 1,1 0 1 0 0,-2 H 7.4 L 12.67,19 a 1.0007122,1.0007122 0 1 0 -1.39,-1.44 l -5.35,5.15 v -3.39 a 1,1 0 0 0 -2,0 v 5.75 a 0.94,0.94 0 0 0 0,0.13 1,1 0 0 0 0.07,0.25 z"
     id="path8"
     style="fill:#404040" />
  <metadata
     id="metadata20">
    <rdf:RDF>
      <cc:Work
         rdf:about="">
        <dc:title>UI UX</dc:title>
      </cc:Work>
    </rdf:RDF>
  </metadata>
</svg>
