<?xml version="1.0" encoding="UTF-8" standalone="no"?>
<svg
   viewBox="0 0 60 59.999786"
   x="0px"
   y="0px"
   version="1.1"
   id="svg14"
   sodipodi:docname="slide.svg"
   width="60"
   height="59.999786"
   inkscape:version="1.1.2 (0a00cf5339, 2022-02-04)"
   xmlns:inkscape="http://www.inkscape.org/namespaces/inkscape"
   xmlns:sodipodi="http://sodipodi.sourceforge.net/DTD/sodipodi-0.dtd"
   xmlns="http://www.w3.org/2000/svg"
   xmlns:svg="http://www.w3.org/2000/svg">
  <defs
     id="defs18" />
  <sodipodi:namedview
     id="namedview16"
     pagecolor="#ffffff"
     bordercolor="#666666"
     borderopacity="1.0"
     inkscape:pageshadow="2"
     inkscape:pageopacity="0.0"
     inkscape:pagecheckerboard="0"
     showgrid="false"
     fit-margin-top="0"
     fit-margin-left="0"
     fit-margin-right="0"
     fit-margin-bottom="0"
     inkscape:zoom="9.5125"
     inkscape:cx="29.960578"
     inkscape:cy="29.592641"
     inkscape:window-width="1850"
     inkscape:window-height="1025"
     inkscape:window-x="1990"
     inkscape:window-y="27"
     inkscape:window-maximized="1"
     inkscape:current-layer="svg14" />
  <g
     id="g8"
     transform="translate(-2,-2.0002135)"
     style="fill:#474747">
    <path
       d="m 17,42 h 6 v -8 h -6 z m 2,-6 h 2 v 4 h -2 z"
       id="path2"
       style="fill:#474747" />
    <path
       d="m 25,42 h 6 v -8 h -6 z m 2,-6 h 2 v 4 h -2 z"
       id="path4"
       style="fill:#474747" />
    <path
       d="M 61,56 H 54.414 L 35,36.586 V 18 h 3 a 1,1 0 0 0 0.707,-1.707 l -14,-14 a 1,1 0 0 0 -1.414,0 l -14,14 A 1,1 0 0 0 10,18 h 3 V 44 H 9 v 4 H 7 v 4 H 4 v 4 H 2 v 6 H 19 V 46 h 10 v 16 h 6 V 46.414 L 50.293,61.707 A 1,1 0 0 0 51,62 h 10 a 1,1 0 0 0 1,-1 V 57 A 1,1 0 0 0 61,56 Z M 13,60 H 4 v -2 h 9 z m 0,-4 H 6 v -2 h 7 z m 0,-4 H 9 v -2 h 4 z m 0,-4 h -2 v -2 h 2 z m 4,12 H 15 V 46 h 2 z m 16,0 H 31 V 46 h 2 z M 33,44 H 15 V 32 H 33 Z M 15,30 V 18 h 2 v 12 z m 4,0 V 18 h 10 v 12 z m 14,0 H 31 V 18 h 2 z M 12.414,16 24,4.414 35.586,16 Z M 60,60 H 51.414 L 35,43.586 V 39.414 L 53.293,57.707 A 1,1 0 0 0 54,58 h 6 z"
       id="path6"
       style="fill:#474747" />
  </g>
</svg>
