<?xml version="1.0" encoding="UTF-8" standalone="no"?>
<svg
   version="1.1"
   x="0px"
   y="0px"
   viewBox="0 0 38.085999 57.421001"
   xml:space="preserve"
   id="svg10"
   sodipodi:docname="smoking-ok.svg"
   width="38.085999"
   height="57.421001"
   inkscape:version="1.2.2 (b0a8486541, 2022-12-01)"
   xmlns:inkscape="http://www.inkscape.org/namespaces/inkscape"
   xmlns:sodipodi="http://sodipodi.sourceforge.net/DTD/sodipodi-0.dtd"
   xmlns="http://www.w3.org/2000/svg"
   xmlns:svg="http://www.w3.org/2000/svg"><defs
     id="defs14" /><sodipodi:namedview
     id="namedview12"
     pagecolor="#ffffff"
     bordercolor="#000000"
     borderopacity="0.25"
     inkscape:showpageshadow="2"
     inkscape:pageopacity="0.0"
     inkscape:pagecheckerboard="0"
     inkscape:deskcolor="#d1d1d1"
     showgrid="false"
     inkscape:zoom="10.175"
     inkscape:cx="19.066339"
     inkscape:cy="28.894349"
     inkscape:window-width="1860"
     inkscape:window-height="1012"
     inkscape:window-x="0"
     inkscape:window-y="0"
     inkscape:window-maximized="1"
     inkscape:current-layer="svg10" /><g
     id="g4"
     transform="translate(-12.957,-3.289)"
     style="fill:#666666"><path
       d="M 50.043,18.749 H 50.012 V 9.444 c 0,-0.552 -0.447,-1 -1,-1 h -5.155 c -0.553,0 -1,0.448 -1,1 v 9.305 H 42.795 V 9.444 c 0,-0.552 -0.447,-1 -1,-1 H 36.64 c -0.553,0 -1,0.448 -1,1 v 9.305 H 35.577 V 4.289 c 0,-0.552 -0.447,-1 -1,-1 h -5.155 c -0.552,0 -1,0.448 -1,1 v 14.46 H 28.36 v -7.243 c 0,-0.552 -0.448,-1 -1,-1 h -5.155 c -0.552,0 -1,0.448 -1,1 v 7.243 h -0.062 v -7.243 c 0,-0.552 -0.448,-1 -1,-1 h -5.155 c -0.552,0 -1,0.448 -1,1 v 7.243 h -0.031 c -0.552,0 -1,0.448 -1,1 v 11.712 20.001 8.248 c 0,0.552 0.448,1 1,1 h 36.086 c 0.553,0 1,-0.448 1,-1 V 51.462 31.884 19.749 c 0,-0.552 -0.447,-1 -1,-1 z m -5.187,-8.305 h 3.155 v 8.305 h -3.155 z m -7.216,0 h 3.155 v 8.305 H 37.64 Z M 30.422,5.289 h 3.155 v 13.465 h -3.155 z m -7.217,7.217 h 3.155 v 6.243 h -3.155 z m -7.217,0 h 3.155 v 6.243 h -3.155 z m -1,8.248 c 0.009,0 0.017,-0.005 0.026,-0.005 h 5.103 c 0.009,0 0.017,0.005 0.026,0.005 0.009,0 0.017,-0.005 0.026,-0.005 h 2.009 c 0.009,0 0.017,0.005 0.026,0.005 0.009,0 0.017,-0.005 0.026,-0.005 h 5.103 c 0.009,0 0.017,0.005 0.026,0.005 0.009,0 0.017,-0.005 0.026,-0.005 h 2.009 c 0.009,0 0.017,0.005 0.026,0.005 h 5.155 c 0.01,0 0.018,-0.005 0.026,-0.005 h 2.01 c 0.009,0 0.017,0.005 0.026,0.005 0.009,0 0.018,-0.005 0.026,-0.005 h 5.103 c 0.009,0 0.017,0.005 0.026,0.005 0.009,0 0.018,-0.005 0.026,-0.005 h 2.009 c 0.009,0 0.017,0.005 0.026,0.005 0.009,0 0.018,-0.005 0.026,-0.005 h 5.103 c 0.009,0 0.017,0.005 0.026,0.005 L 49.017,31.406 31.68,44.642 14.957,30.987 V 20.749 h 0.005 c 0.009,0 0.017,0.005 0.026,0.005 z M 49.036,50.463 H 14.957 V 33.569 l 16.07,13.122 c 0.357,0.293 0.87,0.3 1.239,0.021 l 16.756,-12.79 z m -34.079,8.248 v -6.248 h 34.081 l 0.005,6.248 z"
       id="path2"
       style="fill:#666666" /></g></svg>
