<?xml version="1.0" encoding="UTF-8" standalone="no"?>
<svg
   version="1.1"
   x="0px"
   y="0px"
   viewBox="0 0 73.667092 100"
   enable-background="new 0 0 100 100"
   xml:space="preserve"
   id="svg8"
   sodipodi:docname="solar_panels3.svg"
   width="73.667091"
   height="100"
   inkscape:version="1.1.2 (0a00cf5339, 2022-02-04)"
   xmlns:inkscape="http://www.inkscape.org/namespaces/inkscape"
   xmlns:sodipodi="http://sodipodi.sourceforge.net/DTD/sodipodi-0.dtd"
   xmlns="http://www.w3.org/2000/svg"
   xmlns:svg="http://www.w3.org/2000/svg"><defs
     id="defs12" /><sodipodi:namedview
     id="namedview10"
     pagecolor="#ffffff"
     bordercolor="#666666"
     borderopacity="1.0"
     inkscape:pageshadow="2"
     inkscape:pageopacity="0.0"
     inkscape:pagecheckerboard="0"
     showgrid="false"
     fit-margin-top="0"
     fit-margin-left="0"
     fit-margin-right="0"
     fit-margin-bottom="0"
     inkscape:zoom="6.088"
     inkscape:cx="21.189225"
     inkscape:cy="62.5"
     inkscape:window-width="1850"
     inkscape:window-height="1025"
     inkscape:window-x="1990"
     inkscape:window-y="27"
     inkscape:window-maximized="1"
     inkscape:current-layer="svg8" /><path
     id="path2"
     d="m 44.647558,0 c -0.558,0 -1.009769,0.45176575 -1.009766,1.0097656 v 6.2265625 c -10e-7,0.558 0.451766,1.0097655 1.009766,1.0097657 0.557999,-1e-7 1.009765,-0.4517657 1.009765,-1.0097657 V 1.0097656 C 45.657323,0.4517658 45.205555,0 44.647558,0 Z M 26.846776,6.65625 c -0.258375,0 -0.517344,0.097422 -0.714844,0.2949219 -0.394998,0.394 -0.394998,1.0346875 0,1.4296875 l 4.402344,4.4023436 c 0.197,0.197 0.456844,0.296875 0.714844,0.296875 0.258,0 0.515891,-0.09988 0.712891,-0.296875 0.395,-0.394 0.395,-1.032734 0,-1.427734 L 27.559667,6.9511719 C 27.362668,6.7536719 27.105151,6.65625 26.846776,6.65625 Z m 35.603516,0 c -0.258376,0 -0.515391,0.097422 -0.712891,0.2949219 l -4.404297,4.4042971 c -0.395,0.394 -0.395,1.033734 0,1.427734 0.197,0.197 0.454891,0.296875 0.712891,0.296875 0.258,0 0.517844,-0.09988 0.714844,-0.296875 l 4.404297,-4.4023436 c 0.395,-0.394 0.394,-1.0346875 0,-1.4296875 -0.197,-0.1975 -0.456469,-0.2949219 -0.714844,-0.2949219 z m -17.802734,5.029297 c -8.08,0 -14.654297,6.568531 -14.654297,14.644531 0,3.756 1.478625,7.343969 4.015625,10.042969 H 23.057714 c -0.459,0 -0.860563,0.308953 -0.976563,0.751953 l -8.15039,30.892578 c -0.08,0.303 -0.01622,0.625047 0.175781,0.873047 0.191,0.248 0.487781,0.394531 0.800781,0.394531 h 24.853516 v 21.28125 h -3.050781 c -0.558,0 -1.009767,0.451766 -1.009766,1.009766 v 7.414062 c 0,0.558 0.451766,1.009766 1.009766,1.009766 h 14.123046 c 0.558,0 1.009766,-0.451766 1.009766,-1.009766 v -7.414062 c 0,-0.558 -0.451766,-1.009766 -1.009766,-1.009766 h -3.048828 v -21.28125 h 24.853516 c 0.006,0 0.01353,-0.001 0.01953,0 0.558,0 1.009766,-0.451765 1.009766,-1.009765 0,-0.152 -0.0318,-0.295782 -0.0918,-0.425782 L 66.213964,37.148438 c -0.109,-0.454001 -0.513469,-0.775391 -0.980469,-0.775391 h -9.949219 c 2.537,-2.699 4.015625,-6.286969 4.015625,-10.042969 0,-8.076 -6.572345,-14.644531 -14.652343,-14.644531 z m 0,2.019531 c 6.966,0 12.632812,5.664953 12.632812,12.626953 0,3.914 -1.837594,7.636485 -4.933594,10.021485 H 36.950292 c -3.096002,-2.385 -4.935547,-6.107485 -4.935547,-10.021485 0,-6.962 5.666812,-12.626953 12.632813,-12.626953 z m -25.175782,9.453125 c -0.558,0 -1.009765,0.453719 -1.009765,1.011719 0,0.557 0.451765,1.009764 1.009765,1.009766 h 6.226563 c 0.558,0 1.009765,-0.451766 1.009765,-1.009766 0,-0.558 -0.451765,-1.011719 -1.009765,-1.011719 z m 44.125,0 c -0.559,0 -1.009765,0.453719 -1.009765,1.011719 0,0.558 0.451765,1.009766 1.009765,1.009766 h 6.226563 c 0.558,0 1.009765,-0.451766 1.009765,-1.009766 0,-0.558 -0.451765,-1.011719 -1.009765,-1.011719 z M 7.3155259,36.427734 c -0.031023,0.02045 -0.069559,0.0455 -0.109375,0.07227 -0.00234,0.0025 -0.00759,0.0094 -0.00977,0.01172 0.1206575,-0.08368 0.1199747,-0.08237 0.1191406,-0.08203 0,0 0,-0.002 0,-0.002 z m 16.5195321,1.964844 h 10.972656 l -0.628906,8.101563 H 21.698339 Z m 13,0 h 14.130859 l 0.558594,8.101563 h -15.31836 z m 16.15625,0 H 64.43662 l 1.941406,8.101563 H 53.549901 Z M 5.2452135,40.136719 c 0.00522,0.03007 -7.827e-4,0.07167 -0.00195,0.107422 0.00421,-0.0077 0.00743,-0.01583 0.011719,-0.02344 -0.00306,-0.02939 -0.00739,-0.05215 -0.00977,-0.08398 z m 15.9199225,8.376953 h 12.857422 l -0.609376,7.865234 H 19.088964 Z m 32.523437,0 h 13.171875 l 1.884766,7.865234 H 54.231542 Z m -17.640625,0.002 h 15.615234 l 0.542969,7.865234 H 35.438573 Z m -17.490234,9.882813 h 14.697265 l -0.6875,8.867187 H 16.21787 Z m 35.8125,0 h 14.859375 l 2.125,8.867187 H 54.983495 Z m -19.087891,0.002 h 17.064453 l 0.611328,8.865234 H 34.59287 Z m -35.1816408,0.05859 c -0.12867423,0.632398 -0.13055183,1.309456 -0.02539063,2.007813 0.04364095,-0.503622 0.03741762,-1.008584 0.02539063,-1.513672 -0.001683,-0.164579 3.3798e-4,-0.329363 0,-0.494141 z M 41.78037,69.285156 h 3.982422 v 21.28125 H 41.78037 Z m -4.060547,23.300782 h 3.050781 6.001954 3.048828 v 5.394531 H 37.719823 Z"
     style="fill:#5e5e5e" /></svg>
