<?xml version="1.0" encoding="UTF-8" standalone="no"?>
<svg
   version="1.1"
   viewBox="-5 -10 100.006 78.06292"
   id="svg311"
   sodipodi:docname="solar-small.svg"
   width="100.006"
   height="78.06292"
   inkscape:version="1.2.2 (b0a8486541, 2022-12-01)"
   xmlns:inkscape="http://www.inkscape.org/namespaces/inkscape"
   xmlns:sodipodi="http://sodipodi.sourceforge.net/DTD/sodipodi-0.dtd"
   xmlns="http://www.w3.org/2000/svg"
   xmlns:svg="http://www.w3.org/2000/svg">
  <defs
     id="defs315" />
  <sodipodi:namedview
     id="namedview313"
     pagecolor="#ffffff"
     bordercolor="#000000"
     borderopacity="0.25"
     inkscape:showpageshadow="2"
     inkscape:pageopacity="0.0"
     inkscape:pagecheckerboard="0"
     inkscape:deskcolor="#d1d1d1"
     showgrid="false"
     inkscape:zoom="6.4222222"
     inkscape:cx="50.060554"
     inkscape:cy="46.479239"
     inkscape:window-width="1864"
     inkscape:window-height="1012"
     inkscape:window-x="1976"
     inkscape:window-y="32"
     inkscape:window-maximized="1"
     inkscape:current-layer="svg311" />
  <g
     id="g305"
     transform="translate(-5.0059795,-20.96808)"
     style="fill:#666666">
    <path
       d="M 97.594,68.109 H 2.406 c -0.75,0 -1.4531,-0.34375 -1.9062,-0.95312 -0.4531,-0.60937 -0.60938,-1.3594 -0.40625,-2.0938 l 14.578,-52.344 c 0.28125,-1.0312 1.2344,-1.75 2.3125,-1.75 h 66.047 c 1.0781,0 2.0312,0.71875 2.3125,1.75 l 14.578,52.344 c 0.20312,0.73438 0.0625,1.5 -0.40625,2.0938 -0.46875,0.60938 -1.1562,0.95312 -1.9219,0.95312 z M 3.235,65.0934 H 96.766 L 82.547,14.0154 H 17.453 Z m 79.797,-51.094 z"
       id="path289"
       style="fill:#666666" />
    <path
       d="m 42.266,89.031 c -0.84375,0 -1.5156,-0.67188 -1.5156,-1.5156 v -20.922 c 0,-0.84375 0.67188,-1.5156 1.5156,-1.5156 0.84372,0 1.5156,0.67188 1.5156,1.5156 v 20.906 c 0,0.84375 -0.67188,1.5312 -1.5156,1.5312 z"
       id="path291"
       style="fill:#666666" />
    <path
       d="m 57.734,89.031 c -0.84375,0 -1.5156,-0.67188 -1.5156,-1.5156 v -20.922 c 0,-0.84375 0.67188,-1.5156 1.5156,-1.5156 0.84372,0 1.5156,0.67188 1.5156,1.5156 v 20.906 c 0,0.84375 -0.6875,1.5312 -1.5156,1.5312 z"
       id="path293"
       style="fill:#666666" />
    <path
       d="M 68.812,89.031 H 31.187 c -0.84375,0 -1.5156,-0.67188 -1.5156,-1.5156 0,-0.84372 0.67188,-1.5156 1.5156,-1.5156 h 37.609 c 0.84375,0 1.5156,0.67188 1.5156,1.5156 0,0.84372 -0.67188,1.5156 -1.5,1.5156 z"
       id="path295"
       style="fill:#666666" />
    <path
       d="M 46.203,35.812 H 22.875 c -0.45312,0 -0.875,-0.20312 -1.1719,-0.54688 -0.28125,-0.34375 -0.40625,-0.79688 -0.32812,-1.25 l 2.0781,-11.297 c 0.125,-0.71875 0.76562,-1.2344 1.4844,-1.2344 h 21.266 c 0.84375,0 1.5156,0.67188 1.5156,1.5156 v 11.297 c 0,0.82812 -0.67188,1.5156 -1.5156,1.5156 z M 24.687,32.7808 h 20 V 24.5152 H 26.203 Z"
       id="path297"
       style="fill:#666666" />
    <path
       d="M 77.125,35.812 H 53.797 c -0.45312,0 -0.875,-0.20312 -1.1719,-0.54688 -0.28125,-0.34375 -0.40625,-0.79688 -0.32812,-1.25 l 2.0781,-11.297 c 0.125,-0.71875 0.76562,-1.2344 1.4844,-1.2344 h 21.266 c 0.84375,0 1.5156,0.67188 1.5156,1.5156 v 11.297 c 0,0.82812 -0.67188,1.5156 -1.5156,1.5156 z M 55.609,32.7808 h 20 V 24.5152 H 57.14 Z"
       id="path299"
       style="fill:#666666" />
    <path
       d="M 45.562,56.625 H 18.265 c -0.45312,0 -0.875,-0.20312 -1.1719,-0.54688 -0.28125,-0.34375 -0.40625,-0.79688 -0.32812,-1.25 l 2.4375,-13.219 c 0.125,-0.71875 0.76562,-1.2344 1.4844,-1.2344 h 24.875 c 0.84375,0 1.5156,0.67188 1.5156,1.5156 v 13.219 c 0,0.82812 -0.67188,1.5156 -1.5156,1.5156 z M 20.078,53.5938 H 44.047 V 43.4058 H 21.953 Z"
       id="path301"
       style="fill:#666666" />
    <path
       d="M 81.734,56.625 H 54.437 c -0.45312,0 -0.875,-0.20312 -1.1719,-0.54688 -0.28125,-0.34375 -0.40625,-0.79688 -0.32812,-1.25 l 2.4375,-13.219 c 0.125,-0.71875 0.76562,-1.2344 1.4844,-1.2344 h 24.875 c 0.84375,0 1.5156,0.67188 1.5156,1.5156 v 13.219 c 0,0.82812 -0.67188,1.5156 -1.5156,1.5156 z M 56.25,53.5938 H 80.219 V 43.4058 H 58.125 Z"
       id="path303"
       style="fill:#666666" />
  </g>
</svg>
