<?xml version="1.0" encoding="UTF-8" standalone="no"?>
<svg
   version="1.1"
   x="0px"
   y="0px"
   viewBox="0 0 60.000508 46.796875"
   xml:space="preserve"
   id="svg40"
   sodipodi:docname="solar_panels.svg"
   width="60.000507"
   height="46.796875"
   inkscape:version="1.1.2 (0a00cf5339, 2022-02-04)"
   xmlns:inkscape="http://www.inkscape.org/namespaces/inkscape"
   xmlns:sodipodi="http://sodipodi.sourceforge.net/DTD/sodipodi-0.dtd"
   xmlns="http://www.w3.org/2000/svg"
   xmlns:svg="http://www.w3.org/2000/svg"><defs
     id="defs44" /><sodipodi:namedview
     id="namedview42"
     pagecolor="#ffffff"
     bordercolor="#666666"
     borderopacity="1.0"
     inkscape:pageshadow="2"
     inkscape:pageopacity="0.0"
     inkscape:pagecheckerboard="0"
     showgrid="false"
     fit-margin-top="0"
     fit-margin-left="0"
     fit-margin-right="0"
     fit-margin-bottom="0"
     inkscape:zoom="9.5125"
     inkscape:cx="29.960578"
     inkscape:cy="29.908016"
     inkscape:window-width="1850"
     inkscape:window-height="1025"
     inkscape:window-x="1990"
     inkscape:window-y="27"
     inkscape:window-maximized="1"
     inkscape:current-layer="svg40" /><path
     d="m 28,41.896893 h 24 c 0.373,0 0.715,-0.207 0.887,-0.538 0.172,-0.331 0.146,-0.729 -0.068,-1.035 l -7,-10 c -0.187,-0.268 -0.493,-0.427 -0.819,-0.427 H 21 c -0.373,0 -0.715,0.207 -0.887,0.538 -0.172,0.331 -0.146,0.729 0.068,1.035 l 7,10 c 0.187,0.268 0.493,0.427 0.819,0.427 z m -1.58,-5 h 3.559 l 2.1,3 H 28.52 Z m 10.601,-2 -2.1,-3 h 3.559 l 2.1,3 z m 4.958,2 2.1,3 H 40.52 l -2.1,-3 z m -7.4,-2 H 31.02 l -2.1,-3 h 3.559 z m 1.4,2 2.1,3 H 34.52 l -2.1,-3 z m 10.542,3 -2.1,-3 h 3.559 l 2.1,3 z m 0.059,-5 h -3.559 l -2.1,-3 h 3.559 z m -20.101,-3 2.1,3 H 25.02 l -2.1,-3 z"
     id="path2"
     style="fill:#444444" /><path
     id="path4"
     style="fill:#444444"
     d="m 12.999698,25.896484 c -0.324,0 -0.616734,0.163875 -0.802734,0.421875 -0.007,0.01 -0.0223,0.01244 -0.0293,0.02344 l -12.00000028,18 c -0.205,0.307 -0.22282817,0.700391 -0.0488281,1.025391 0.17400892,0.325992 0.51186238,0.529294 0.88086235,0.529294 H 2.999698 v 0.589844 c 0.097054,1.01e-4 0.1941105,-1.19e-4 0.2910156,0 0.1351927,1.7e-4 0.2710572,9e-6 0.40625,0 0.1590564,2.1e-5 0.317506,3e-6 0.4765625,0 0.16162,-3e-6 0.322755,-10e-7 0.484375,0 H 4.999698 v -0.589844 h 19 v 0.822266 c 0.06855,0.0025 0.150778,0.0059 0.257812,0.0059 h 0.458985 0.166015 c 0.0709,-1.5e-5 0.141993,1.05e-4 0.212891,0 h 0.220703 0.07813 c 0.127716,3.2e-4 0.255097,5.62e-4 0.382813,0 0.07411,-4.12e-4 0.148398,-0.0015 0.222656,-0.002 v -0.826172 h 29 v 0.707032 h 0.308594 c 0.138121,-0.032 0.277723,-0.03232 0.429687,0 0.02751,3e-4 0.04793,1.02e-4 0.08008,0 h 0.06445 c 0.03656,-0.0026 0.08645,-4.89e-4 0.158204,0 h 0.339843 c 0.0241,-6.6e-5 0.04816,4e-5 0.07227,0 h 0.46875 c 0.0017,0 0.01613,4.8e-5 0.01953,0 0.0078,-1.11e-4 0.03001,2.78e-4 0.04492,0 0.0025,-0.01006 0.0062,-0.0081 0.0098,0 0.0014,-2.6e-5 0.0027,1.75e-4 0.0039,0 v -0.707032 h 2 c 0.369,0 0.708813,-0.202343 0.882812,-0.527343 0.174,-0.325 0.154217,-0.719391 -0.05078,-1.025391 l -12,-18 c -0.186041,-0.278988 -0.498065,-0.44726 -0.832065,-0.44726 z m 1.869141,2 h 31.595703 l 10.667968,16 H 25.534854 Z m -1.869141,0.802735 10.130859,15.197265 H 2.8688386 Z m 42.800781,17.910156 c -0.006,8.89e-4 -0.01167,0.0031 -0.01758,0.0059 0.01143,0.0029 0.02358,0.0046 0.03516,0.0078 0.0034,-0.0029 0.0071,-0.0057 0.01172,-0.0078 -0.01026,-0.0043 -0.01923,-0.0073 -0.0293,-0.0059 z m 0.04883,0.01758 c -0.0022,0.0012 -0.0057,6.37e-4 -0.0078,0.002 0.0066,0.0019 0.01288,0.0038 0.01953,0.0059 -0.0036,-0.0037 -0.0081,-0.0049 -0.01172,-0.0078 z m -0.05078,0.05078 c -0.01806,0.03148 -0.02667,0.0721 -0.02734,0.119141 h 0.03906 c -0.0059,-0.04918 -0.01138,-0.09213 -0.01172,-0.119141 z" /><path
     d="M 0.99999997,14.896893 H 28.975 c 0.525,0 0.966,-0.491 1.003,-1.015 0.011,-0.161 0.022,-0.321 0.022,-0.485 0,-4.6870005 -3.813,-8.5000005 -8.5,-8.5000005 -1.679,0 -3.31,0.5 -4.698,1.425 -1.119,-1.502 -2.899,-2.425 -4.802,-2.425 -2.58,0 -4.823,1.639 -5.651,4.011 C 2.895,7.7018925 0,10.471893 0,13.896893 c 0,0.553 0.448,1 0.99999997,1 z M 6,9.8968925 c 0.274,0 0.559,0.034 0.871,0.1040005 0.266,0.059 0.545,0.007 0.772,-0.1450005 0.227,-0.151 0.382,-0.39 0.43,-0.658 0.338,-1.912 1.989,-3.301 3.927,-3.301 1.541,0 2.96,0.911 3.617,2.321 0.133,0.286 0.395,0.493 0.704,0.558 0.309,0.062 0.63,-0.021 0.867,-0.232 1.194,-1.062 2.726,-1.647 4.312,-1.647 3.416,0 6.225,2.648 6.481,6.0000005 H 2.126 C 2.572,11.172893 4.14,9.8968925 6,9.8968925 Z"
     id="path6"
     style="fill:#444444" /><path
     d="m 37.142303,12.440893 c 0,4.116691 3.757819,7.464534 8.378637,7.464534 4.620818,0 8.378637,-3.347843 8.378637,-7.464534 0,-4.116692 -3.757819,-7.4645358 -8.378637,-7.4645358 -4.620818,0 -8.378637,3.3478438 -8.378637,7.4645358 z M 45.52094,7.4645354 c 3.080546,0 5.585758,2.2318959 5.585758,4.9763576 0,2.74446 -2.505212,4.976356 -5.585758,4.976356 -3.080545,0 -5.585758,-2.231896 -5.585758,-4.976356 0,-2.7444617 2.505213,-4.9763576 5.585758,-4.9763576 z"
     id="path10"
     style="fill:#444444;stroke-width:1.31806" /><rect
     x="44.124504"
     y="0"
     width="2.7928789"
     height="2.4881783"
     id="rect12"
     style="fill:#444444;stroke-width:1.31806" /><rect
     x="44.124504"
     y="22.393604"
     width="2.7928789"
     height="2.4881783"
     id="rect14"
     style="fill:#444444;stroke-width:1.31806" /><rect
     x="56.692459"
     y="11.196802"
     width="2.7928789"
     height="2.4881783"
     id="rect16"
     style="fill:#444444;stroke-width:1.31806" /><rect
     x="31.556547"
     y="11.196802"
     width="2.7928789"
     height="2.4881783"
     id="rect18"
     style="fill:#444444;stroke-width:1.31806" /><rect
     x="19.799894"
     y="50.419754"
     transform="matrix(0.74656943,-0.66530751,0.74675633,0.66509772,0,0)"
     width="2.6448517"
     height="2.6449378"
     id="rect20"
     style="fill:#444444;stroke-width:1.32245" /><rect
     x="19.804499"
     y="26.614765"
     transform="matrix(0.74656943,-0.66530751,0.74675633,0.66509772,0,0)"
     width="2.6448517"
     height="2.6449378"
     id="rect22"
     style="fill:#444444;stroke-width:1.32245" /><rect
     x="7.9127855"
     y="38.507599"
     transform="matrix(0.74675633,-0.66509772,0.74656943,0.66530751,0,0)"
     width="2.6449378"
     height="2.6448517"
     id="rect24"
     style="fill:#444444;stroke-width:1.32245" /><rect
     x="31.71739"
     y="38.503963"
     transform="matrix(0.74675633,-0.66509772,0.74656943,0.66530751,0,0)"
     width="2.6449378"
     height="2.6448517"
     id="rect26"
     style="fill:#444444;stroke-width:1.32245" /></svg>
