<?xml version="1.0" encoding="UTF-8" standalone="no"?>
<svg
   version="1.1"
   x="0px"
   y="0px"
   viewBox="0 0 89.997002 90"
   xml:space="preserve"
   id="svg18"
   sodipodi:docname="sprinklers.svg"
   width="89.997002"
   height="90"
   inkscape:version="1.1.2 (0a00cf5339, 2022-02-04)"
   xmlns:inkscape="http://www.inkscape.org/namespaces/inkscape"
   xmlns:sodipodi="http://sodipodi.sourceforge.net/DTD/sodipodi-0.dtd"
   xmlns="http://www.w3.org/2000/svg"
   xmlns:svg="http://www.w3.org/2000/svg"><defs
     id="defs22" /><sodipodi:namedview
     id="namedview20"
     pagecolor="#ffffff"
     bordercolor="#666666"
     borderopacity="1.0"
     inkscape:pageshadow="2"
     inkscape:pageopacity="0.0"
     inkscape:pagecheckerboard="0"
     showgrid="false"
     fit-margin-top="0"
     fit-margin-left="0"
     fit-margin-right="0"
     fit-margin-bottom="0"
     inkscape:zoom="6.088"
     inkscape:cx="45.00657"
     inkscape:cy="57.572273"
     inkscape:window-width="1850"
     inkscape:window-height="1025"
     inkscape:window-x="1990"
     inkscape:window-y="27"
     inkscape:window-maximized="1"
     inkscape:current-layer="svg18" /><g
     id="g12"
     transform="translate(-5,-5)"
     style="fill:#4c4c4c"><path
       d="M 58.438,19.062 H 41.562 c -1.555,0 -2.812,1.258 -2.812,2.812 0,1.554 1.258,2.812 2.812,2.812 h 16.875 c 1.555,0 2.812,-1.258 2.812,-2.812 0,-1.554 -1.257,-2.812 -2.811,-2.812 z"
       id="path2"
       style="fill:#4c4c4c" /><path
       d="M 92.188,5 H 7.812 C 6.258,5 5,6.258 5,7.812 v 28.125 c 0,1.555 1.258,2.812 2.812,2.812 h 2.812 v 8.438 c 0,1.555 1.258,2.812 2.812,2.812 h 73.125 c 1.555,0 2.812,-1.258 2.812,-2.812 V 38.75 h 2.812 c 1.555,0 2.812,-1.258 2.812,-2.812 V 7.812 C 95,6.258 93.742,5 92.188,5 Z M 83.75,44.375 H 16.25 V 38.75 h 67.5 z m 2.812,-11.25 H 13.438 10.626 v -8.438 h 8.438 c 1.555,0 2.812,-1.258 2.812,-2.812 0,-1.554 -1.258,-2.812 -2.812,-2.812 h -8.438 v -8.438 h 78.75 v 8.438 h -8.438 c -1.555,0 -2.812,1.258 -2.812,2.812 0,1.554 1.258,2.812 2.812,2.812 h 8.438 v 8.438 z"
       id="path4"
       style="fill:#4c4c4c" /><path
       d="m 29.524,66.018 c 1.079,-1.121 1.046,-2.9 -0.071,-3.977 -1.115,-1.077 -2.898,-1.049 -3.977,0.066 -4.782,4.955 -4.782,13.019 0,17.974 2.703,2.796 2.703,7.355 0,10.151 -1.079,1.121 -1.046,2.9 0.071,3.977 0.547,0.527 1.25,0.791 1.953,0.791 0.736,0 1.472,-0.286 2.024,-0.857 4.782,-4.955 4.782,-13.019 0,-17.974 -2.702,-2.796 -2.702,-7.355 0,-10.151 z"
       id="path6"
       style="fill:#4c4c4c" /><path
       d="m 52.024,66.018 c 1.079,-1.121 1.046,-2.9 -0.071,-3.977 -1.115,-1.077 -2.895,-1.049 -3.977,0.066 -4.782,4.955 -4.782,13.019 0,17.974 2.703,2.796 2.703,7.355 0,10.151 -1.079,1.121 -1.046,2.9 0.071,3.977 C 48.594,94.736 49.297,95 50,95 c 0.736,0 1.472,-0.286 2.024,-0.857 4.782,-4.955 4.782,-13.019 0,-17.974 -2.702,-2.796 -2.702,-7.355 0,-10.151 z"
       id="path8"
       style="fill:#4c4c4c" /><path
       d="m 74.521,66.018 c 1.082,-1.121 1.049,-2.9 -0.066,-3.977 -1.126,-1.077 -2.895,-1.049 -3.977,0.066 -4.79,4.955 -4.79,13.019 0,17.974 2.703,2.796 2.703,7.355 0,10.151 -1.082,1.121 -1.049,2.9 0.066,3.977 0.55,0.527 1.253,0.791 1.956,0.791 0.736,0 1.472,-0.286 2.021,-0.857 4.79,-4.955 4.79,-13.019 0,-17.974 -2.702,-2.796 -2.702,-7.355 0,-10.151 z"
       id="path10"
       style="fill:#4c4c4c" /></g></svg>
