<?xml version="1.0" encoding="UTF-8" standalone="no"?>
<svg
   version="1.1"
   x="0px"
   y="0px"
   viewBox="0 0 78 78"
   enable-background="new 0 0 100 100"
   xml:space="preserve"
   id="svg10"
   sodipodi:docname="stairs_white.svg"
   width="78"
   height="78"
   inkscape:version="1.1.2 (0a00cf5339, 2022-02-04)"
   xmlns:inkscape="http://www.inkscape.org/namespaces/inkscape"
   xmlns:sodipodi="http://sodipodi.sourceforge.net/DTD/sodipodi-0.dtd"
   xmlns="http://www.w3.org/2000/svg"
   xmlns:svg="http://www.w3.org/2000/svg"><defs
     id="defs14"><filter
       style="color-interpolation-filters:sRGB;"
       inkscape:label="Colorize"
       id="filter270"
       x="0"
       y="0"
       width="1"
       height="1"><feComposite
         in2="SourceGraphic"
         operator="arithmetic"
         k1="0"
         k2="1"
         result="composite1"
         id="feComposite256" /><feColorMatrix
         in="composite1"
         values="1"
         type="saturate"
         result="colormatrix1"
         id="feColorMatrix258" /><feFlood
         flood-opacity="1"
         flood-color="rgb(255,255,255)"
         result="flood1"
         id="feFlood260" /><feBlend
         in="flood1"
         in2="colormatrix1"
         mode="screen"
         result="blend1"
         id="feBlend262" /><feBlend
         in2="blend1"
         mode="multiply"
         result="blend2"
         id="feBlend264" /><feColorMatrix
         in="blend2"
         values="1"
         type="saturate"
         result="colormatrix2"
         id="feColorMatrix266" /><feComposite
         in="colormatrix2"
         in2="SourceGraphic"
         operator="in"
         k2="1"
         result="composite2"
         id="feComposite268" /></filter></defs><sodipodi:namedview
     id="namedview12"
     pagecolor="#ffffff"
     bordercolor="#666666"
     borderopacity="1.0"
     inkscape:pageshadow="2"
     inkscape:pageopacity="0.0"
     inkscape:pagecheckerboard="0"
     showgrid="false"
     fit-margin-top="0"
     fit-margin-left="0"
     fit-margin-right="0"
     fit-margin-bottom="0"
     inkscape:zoom="6.088"
     inkscape:cx="38.929041"
     inkscape:cy="51.494744"
     inkscape:window-width="1850"
     inkscape:window-height="1025"
     inkscape:window-x="1990"
     inkscape:window-y="27"
     inkscape:window-maximized="1"
     inkscape:current-layer="svg10" /><path
     d="m 78,3 c 0,1.657 -1.343,3 -3,3 H 54 v 21 c 0,1.657 -1.343,3 -3,3 H 30 v 21 c 0,1.657 -1.343,3 -3,3 H 6 V 75 C 6,76.657 4.657,78 3,78 1.343,78 0,76.657 0,75 V 54 C 0,50.691 2.691,48 6,48 H 24 V 30 c 0,-3.309 2.691,-6 6,-6 H 48 V 6 c 0,-3.309 2.691,-6 6,-6 h 21 c 1.657,0 3,1.343 3,3 z"
     id="path2"
     style="filter:url(#filter270)" /></svg>
