<?xml version="1.0" encoding="UTF-8" standalone="no"?>
<svg
   version="1.1"
   viewBox="-5 -10 80.686081 92.986885"
   id="svg8"
   width="80.686081"
   height="92.986885"
   xmlns="http://www.w3.org/2000/svg"
   xmlns:svg="http://www.w3.org/2000/svg">
  <defs
     id="defs12" />
  <path
     d="m 38.070326,45.464376 c -0.58203,0.58594 -1.5312,0.58984 -2.1172,0.0078 -0.58594,-0.58203 -0.58984,-1.5312 -0.0078,-2.1172 l 0.16016,-0.16016 c 0.58203,-0.58594 1.5312,-0.58984 2.1172,-0.0078 0.58594,0.58203 0.58984,1.5312 0.0078,2.1172 z m 23.41,-54.4060003 1.8359,5.9688 c 0.10938,0.35938 0.28906,0.66406 0.52734,0.89844 0.24219,0.24219 0.54688,0.42187 0.90625,0.53125 l 5.9688,1.8359 c 0.78906,0.24219 1.2305,1.0781 0.98828,1.8672 -0.15234,0.49219 -0.53125,0.84766 -0.98828,0.98828 l -6.0273,1.8516 c -0.33203,0.10938 -0.61719,0.28516 -0.84375,0.51172 -0.24219,0.24609 -0.42578,0.55469 -0.53125,0.90625 l -1.8359,5.9688003 c -0.24219,0.78906 -1.0781,1.2305 -1.8672,0.98828 -0.49219,-0.15234 -0.84766,-0.53125 -0.98828,-0.98828 l -1.8516,-6.0273003 c -0.10938,-0.33203 -0.28516,-0.61719 -0.51172,-0.84766 -0.23828,-0.23828 -0.54688,-0.42188 -0.90625,-0.53125 l -5.9688,-1.832 c -0.78906,-0.24219 -1.2305,-1.0781 -0.98828,-1.8672 0.15234,-0.49219 0.53125,-0.84766 0.98828,-0.98828 l 5.9688,-1.8359 c 0.35938,-0.10938 0.66797,-0.28906 0.90234,-0.52734 0.24219,-0.24609 0.42578,-0.55469 0.53125,-0.89844 l 1.8359,-5.9766 c 0.24219,-0.78906 1.0781,-1.2304997 1.8672,-0.98828 0.49219,0.15234 0.84766,0.53125 0.98828,0.98828 z m -1.0234,6.8477 -0.40625,-1.3164 -0.40625,1.3164 c -0.26172,0.84375 -0.69141,1.5664 -1.2695,2.1406 -0.58594,0.57812 -1.3125,1.0117 -2.1445,1.2695 l -1.3164,0.40625 1.3164,0.40234 c 0.83203,0.25781 1.5586,0.69141 2.1367,1.2695 0.56641,0.56641 0.98828,1.2617 1.25,2.0664 l 0.42969,1.3945 0.40625,-1.3164 c 0.25781,-0.83984 0.69141,-1.5664 1.2695,-2.1445 0.56641,-0.55859 1.2617,-0.98438 2.0664,-1.2422 l 1.3945,-0.42969 -1.3164,-0.40625 c -0.83203,-0.25781 -1.5547,-0.6875 -2.1367,-1.2695 -0.58594,-0.58984 -1.0195,-1.3125 -1.2773,-2.1445 z m -42.719,-4.8125 3.5547,11.57 c 0.28125,0.91406 0.75,1.7031 1.3789,2.3281 0.625,0.625 1.4141,1.0977 2.3281,1.3789 l 11.57,3.5547003 c 0.78906,0.24219 1.2305,1.0781 0.98828,1.8672 -0.15234,0.49219 -0.53125,0.84766 -0.98828,0.98828 l -11.57,3.5547 c -0.92188,0.28125 -1.707,0.75 -2.3281,1.3711 -0.62891,0.625 -1.0977,1.4141 -1.3789,2.332 l -3.5547,11.57 c -0.24219,0.78906 -1.0781,1.2305 -1.8672,0.98828 -0.49219,-0.15234 -0.84766,-0.53125 -0.98828,-0.98828 l -3.5547,-11.57 c -0.28125,-0.91797 -0.75,-1.707 -1.3711003,-2.3281 -0.625,-0.62891 -1.4141,-1.0977 -2.332,-1.3789 l -11.57,-3.5547 c -0.78906,-0.24219 -1.2305,-1.0781 -0.98828,-1.8672 0.15234,-0.49219 0.53125,-0.84766 0.98828,-0.98828 l 11.57,-3.5547003 c 0.91406,-0.28125 1.7031,-0.75 2.3281,-1.3789 0.6289103,-0.62891 1.0977003,-1.4141 1.3789003,-2.3281 l 3.5547,-11.57 c 0.24219,-0.78906 1.0781,-1.2305 1.8672,-0.98828 0.49219,0.15234 0.84766,0.53125 0.98828,0.98828 z m 0.69531,12.449 -2.125,-6.918 -2.125,6.918 c -0.42969,1.4023 -1.1523,2.6094 -2.1172,3.5703 -0.96094,0.9609403 -2.1719003,1.6836003 -3.5703003,2.1133003 l -6.918,2.125 6.918,2.125 c 1.3906,0.42578 2.5977003,1.1484 3.5625003,2.1133 0.97266,0.97266 1.6953,2.1797 2.1211,3.5703 l 2.125,6.918 2.125,-6.918 c 0.42578,-1.3906 1.1484,-2.5977 2.1133,-3.5625 0.97266,-0.97266 2.1797,-1.6953 3.5703,-2.1211 l 6.918,-2.125 -6.918,-2.125 c -1.4023,-0.42969 -2.6094,-1.1523 -3.5703,-2.1133003 -0.96484,-0.96484 -1.6875,-2.1719 -2.1172,-3.5703 z m 22.855,34.1720003 c -0.24219,0.78906 -1.0781,1.2305 -1.8672,0.98828 -0.78906,-0.24219 -1.2305,-1.0781 -0.98828,-1.8672 l 5.0312,-16.379 c 0.24219,-0.78906 1.0781,-1.2305 1.8672,-0.98828 0.49219,0.15234 0.84766,0.53125 0.98828,0.98828 l 5.2539,17.105 c 0.45312,1.4727 1.207,2.7383 2.207,3.7383 1.0078,1.0078 2.2695,1.7617 3.7461,2.2148 l 17.105,5.2539 c 0.78906,0.24219 1.2305,1.0781 0.98828,1.8672 -0.15234,0.49219 -0.53125,0.84766 -0.98828,0.98828 l -17.105,5.2539 c -1.4688,0.44922 -2.7344,1.207 -3.7383,2.2109 -1.0078,1.0078 -1.7617,2.2695 -2.2148,3.7383 l -5.2539,17.105 c -0.24219,0.78906 -1.0781,1.2305 -1.8672,0.98828 -0.49219,-0.15234 -0.84766,-0.53125 -0.98828,-0.98828 l -5.2539,-17.105 c -0.45312,-1.4727 -1.207,-2.7383 -2.2109,-3.7422 -1.0039,-1.0039 -2.2695,-1.7578 -3.7422,-2.2109 l -17.105,-5.2539 c -0.78906,-0.24219 -1.2305,-1.0781 -0.98828,-1.8672 0.15234,-0.49219 0.53125,-0.84766 0.98828,-0.98828 l 16.48,-5.0625 c 0.78906,-0.24219 1.625,0.19922 1.8672,0.98828 0.24219,0.78906 -0.19922,1.625 -0.98828,1.8672 l -11.828,3.6328 12.453,3.8242 c 1.9492,0.59766 3.6289,1.6055 4.9766,2.9492 1.3516,1.3516 2.3555,3.0312 2.957,4.9805 l 3.8242,12.453 3.8242,-12.453 c 0.60156,-1.957 1.6094,-3.6406 2.9492,-4.9805 1.3438,-1.3438 3.0273,-2.3477 4.9805,-2.9492 l 12.453,-3.8242 -12.453,-3.8242 c -1.9453,-0.59766 -3.6289,-1.6016 -4.9727,-2.9492 -1.3555,-1.3555 -2.3594,-3.0391 -2.957,-4.9844 l -3.8242,-12.453 -3.6016,11.727 z"
     id="path2"
     style="fill:#6a6a6a" />
</svg>
