<?xml version="1.0" encoding="UTF-8" standalone="no"?>
<svg
   viewBox="0 0 52 44"
   fill="none"
   x="0px"
   y="0px"
   version="1.1"
   id="svg14"
   sodipodi:docname="storage.svg"
   width="52"
   height="44"
   inkscape:version="1.1.2 (0a00cf5339, 2022-02-04)"
   xmlns:inkscape="http://www.inkscape.org/namespaces/inkscape"
   xmlns:sodipodi="http://sodipodi.sourceforge.net/DTD/sodipodi-0.dtd"
   xmlns="http://www.w3.org/2000/svg"
   xmlns:svg="http://www.w3.org/2000/svg">
  <defs
     id="defs18" />
  <sodipodi:namedview
     id="namedview16"
     pagecolor="#ffffff"
     bordercolor="#666666"
     borderopacity="1.0"
     inkscape:pageshadow="2"
     inkscape:pageopacity="0.0"
     inkscape:pagecheckerboard="0"
     showgrid="false"
     fit-margin-top="0"
     fit-margin-left="0"
     fit-margin-right="0"
     fit-margin-bottom="0"
     inkscape:zoom="9.5125"
     inkscape:cx="27.963206"
     inkscape:cy="30.013141"
     inkscape:window-width="1850"
     inkscape:window-height="1025"
     inkscape:window-x="1990"
     inkscape:window-y="27"
     inkscape:window-maximized="1"
     inkscape:current-layer="svg14" />
  <path
     d="M 9,0 C 7.3431,0 6,1.3431 6,3 v 12 c 0,0.5523 0.4477,1 1,1 0.5523,0 1,-0.4477 1,-1 V 3 C 8,2.4477 8.4477,2 9,2 h 38 c 0.5523,0 1,0.4477 1,1 V 42 H 44 V 11 c 0,-0.5523 -0.4477,-1 -1,-1 H 13 c -0.5523,0 -1,0.4477 -1,1 0,0.5523 0.4477,1 1,1 h 29 v 2 H 13 c -0.5523,0 -1,0.4477 -1,1 0,0.5523 0.4477,1 1,1 H 42 V 42 H 31 c -0.5523,0 -1,0.4477 -1,1 0,0.5523 0.4477,1 1,1 H 51.0003 C 51.5526,44 52,43.5523 52,43 V 3 C 52,1.3431 50.6569,0 49,0 Z"
     fill="#000000"
     id="path2"
     style="fill:#464646" />
  <path
     d="m 3,20 c -0.55228,0 -1,0.4477 -1,1 v 9 c 0,0.5523 0.44772,1 1,1 h 10 c 0.5523,0 1,-0.4477 1,-1 v -9 c 0,-0.5523 -0.4477,-1 -1,-1 H 8 v 4 H 6 v -4 z"
     fill="#000000"
     id="path4"
     style="fill:#464646" />
  <path
     d="m 1,33 c -0.55228,0 -1,0.4477 -1,1 v 9 c 0,0.5523 0.44772,1 1,1 h 10 c 0.5523,0 1,-0.4477 1,-1 v -9 c 0,-0.5523 -0.4477,-1 -1,-1 H 6 v 4 H 4 v -4 z"
     fill="#000000"
     id="path6"
     style="fill:#464646" />
  <path
     d="m 15,33 c -0.5523,0 -1,0.4477 -1,1 v 9 c 0,0.5523 0.4477,1 1,1 h 10 c 0.5523,0 1,-0.4477 1,-1 v -9 c 0,-0.5523 -0.4477,-1 -1,-1 h -5 v 4 h -2 v -4 z"
     fill="#000000"
     id="path8"
     style="fill:#464646" />
</svg>
