<?xml version="1.0" encoding="UTF-8" standalone="no"?>
<svg
   data-name="Layer 1"
   viewBox="0 0 188.44009 199.41"
   x="0px"
   y="0px"
   version="1.1"
   id="svg12"
   sodipodi:docname="streetview.svg"
   width="188.44009"
   height="199.41"
   inkscape:version="1.1.2 (0a00cf5339, 2022-02-04)"
   xmlns:inkscape="http://www.inkscape.org/namespaces/inkscape"
   xmlns:sodipodi="http://sodipodi.sourceforge.net/DTD/sodipodi-0.dtd"
   xmlns="http://www.w3.org/2000/svg"
   xmlns:svg="http://www.w3.org/2000/svg"
   xmlns:rdf="http://www.w3.org/1999/02/22-rdf-syntax-ns#"
   xmlns:cc="http://creativecommons.org/ns#"
   xmlns:dc="http://purl.org/dc/elements/1.1/">
  <defs
     id="defs16" />
  <sodipodi:namedview
     id="namedview14"
     pagecolor="#ffffff"
     bordercolor="#666666"
     borderopacity="1.0"
     inkscape:pageshadow="2"
     inkscape:pageopacity="0.0"
     inkscape:pagecheckerboard="0"
     showgrid="false"
     fit-margin-top="0"
     fit-margin-left="0"
     fit-margin-right="0"
     fit-margin-bottom="0"
     inkscape:zoom="2.4352"
     inkscape:cx="94.037451"
     inkscape:cy="139.82424"
     inkscape:window-width="1850"
     inkscape:window-height="1025"
     inkscape:window-x="1990"
     inkscape:window-y="27"
     inkscape:window-maximized="1"
     inkscape:current-layer="svg12" />
  <title
     id="title2">Location</title>
  <path
     d="M 94.25,34.86 A 17.43,17.43 0 1 0 76.82,17.43 17.45,17.45 0 0 0 94.25,34.86 Z M 94.25,4 A 13.43,13.43 0 1 1 80.82,17.43 13.45,13.45 0 0 1 94.25,4 Z"
     id="path4"
     style="fill:#626262" />
  <path
     d="M 116.38,116.23 V 65.36 a 0.53,0.53 0 0 1 0.18,-0.4 0.57,0.57 0 0 1 0.93,0.4 v 35.36 a 8.68,8.68 0 1 0 17.35,0 V 60.96 c 0,-9.42 -10.22,-23.67 -25.63,-23.67 H 78.79 c -14.54,0 -25.14,14.14 -25.14,23.66 v 39.77 a 8.68,8.68 0 1 0 17.35,0 V 65.36 a 0.55,0.55 0 0 1 0.18,-0.4 0.52,0.52 0 0 1 0.38,-0.15 0.55,0.55 0 0 1 0.55,0.55 v 50.87 C 29.56,120.74 0,137.48 0,157.23 c 0,11.58 10,22.32 28.22,30.24 17.67,7.7 41.12,11.94 66,11.94 24.88,0 48.36,-4.24 66,-11.94 18.2,-7.92 28.22,-18.66 28.22,-30.24 0.06,-19.74 -29.51,-36.49 -72.06,-41 z m -41.13,44.72 a 10.68,10.68 0 0 0 18.22,-7.52 V 139 h 1.54 v 14.43 a 10.68,10.68 0 0 0 21.36,0 v -13 c 21.34,2.83 36.59,9.8 36.59,16.84 0,8.63 -24.11,18.25 -58.71,18.25 -34.6,0 -58.71,-9.62 -58.71,-18.25 0,-7 15.25,-14 36.57,-16.84 v 13 a 10.68,10.68 0 0 0 3.14,7.52 z m 19.77,-25.94 h -1.54 v -15.94 h 1.54 z m 0,-19.92 h -1.54 v -5.75 a 0.77,0.77 0 1 1 1.54,0 z M 71.56,60.81 A 4.58,4.58 0 0 0 67,65.36 v 35.36 a 4.68,4.68 0 1 1 -9.35,0 V 60.95 c 0,-6.91 8.72,-19.66 21.14,-19.66 h 30.46 c 13.42,0 21.63,12.74 21.63,19.67 v 39.76 a 4.69,4.69 0 0 1 -4.68,4.68 4.64,4.64 0 0 1 -3.3,-1.37 4.69,4.69 0 0 1 -1.37,-3.31 V 65.36 a 4.56,4.56 0 0 0 -4.56,-4.55 4.56,4.56 0 0 0 -4.55,4.55 v 50.47 0 37.6 a 6.69,6.69 0 0 1 -6.68,6.68 6.6,6.6 0 0 1 -4.72,-1.95 6.68,6.68 0 0 1 -2,-4.73 v -44.09 a 4.78,4.78 0 0 0 -4.77,-4.77 4.78,4.78 0 0 0 -4.77,4.77 v 44.09 a 6.68,6.68 0 1 1 -13.36,0 v -88 a 4.55,4.55 0 0 0 -4.56,-4.62 z m 87.12,123 c -17.17,7.5 -40.06,11.62 -64.43,11.62 -24.37,0 -47.26,-4.12 -64.43,-11.6 C 13.17,176.58 4,167.14 4,157.25 c 0,-17.31 28.51,-32.72 68.11,-37 v 16.12 c -24.71,3.19 -40.57,11.31 -40.57,20.88 0,6.34 6.8,12.1 19.15,16.22 11.66,3.89 27.13,6 43.56,6 16.43,0 31.9,-2.14 43.56,-6 12.35,-4.12 19.15,-9.88 19.15,-16.22 0,-9.57 -15.87,-17.69 -40.59,-20.88 v -16.12 c 39.61,4.29 68.12,19.7 68.12,37 0.01,9.89 -9.16,19.33 -25.81,26.58 z"
     id="path6"
     style="fill:#626262" />
  <metadata
     id="metadata18">
    <rdf:RDF>
      <cc:Work
         rdf:about="">
        <dc:title>Location</dc:title>
      </cc:Work>
    </rdf:RDF>
  </metadata>
</svg>
