<?xml version="1.0" encoding="UTF-8" standalone="no"?>
<svg
   version="1.1"
   x="0px"
   y="0px"
   viewBox="0 0 92.012619 92"
   xml:space="preserve"
   id="svg8"
   sodipodi:docname="tag.svg"
   width="92.012619"
   height="92"
   inkscape:version="1.2.2 (b0a8486541, 2022-12-01)"
   xmlns:inkscape="http://www.inkscape.org/namespaces/inkscape"
   xmlns:sodipodi="http://sodipodi.sourceforge.net/DTD/sodipodi-0.dtd"
   xmlns="http://www.w3.org/2000/svg"
   xmlns:svg="http://www.w3.org/2000/svg"><defs
     id="defs12" /><sodipodi:namedview
     id="namedview10"
     pagecolor="#ffffff"
     bordercolor="#000000"
     borderopacity="0.25"
     inkscape:showpageshadow="2"
     inkscape:pageopacity="0.0"
     inkscape:pagecheckerboard="0"
     inkscape:deskcolor="#d1d1d1"
     showgrid="false"
     inkscape:zoom="6.936"
     inkscape:cx="46.064014"
     inkscape:cy="58.607266"
     inkscape:window-width="1864"
     inkscape:window-height="1012"
     inkscape:window-x="1976"
     inkscape:window-y="32"
     inkscape:window-maximized="1"
     inkscape:current-layer="svg8" /><path
     d="M 89.1,51.7 52.9,15.4 C 51.2,13.7 48.5,12.6 45.7,12.6 L 16.2,13.9 2.3,0 0,2.3 l 14,14 -1.3,29.3 c -0.2,2.7 0.9,5.5 2.9,7.3 l 36.2,36.2 c 1.9,1.9 4.3,2.9 6.9,2.9 2.6,0 5,-1 6.9,-2.9 L 89,65.5 c 4,-3.9 4,-9.9 0.1,-13.8 z M 86.8,63.2 63.4,86.8 c -2.6,2.6 -6.6,2.6 -9.2,0 L 17.9,50.5 c -1.3,-1.2 -2,-3 -1.9,-4.7 l 1.1,-26.3 8.7,8.7 c -2.4,3.6 -2.1,8.6 1.1,11.7 1.7,1.7 4,2.7 6.5,2.7 2.5,0 4.8,-0.9 6.5,-2.7 1.7,-1.7 2.7,-4 2.7,-6.5 0,-2.5 -0.9,-4.8 -2.7,-6.5 -1.7,-1.7 -4,-2.7 -6.5,-2.7 -1.9,0 -3.8,0.6 -5.3,1.7 l -8.7,-8.7 26.4,-1.1 c 1.9,0 3.7,0.7 4.8,1.8 L 86.8,54 c 2.6,2.6 2.6,6.6 0,9.2 z m -56.3,-35 c 0.9,-0.5 1.9,-0.8 2.9,-0.8 1.6,0 3.1,0.6 4.2,1.7 1.1,1.1 1.7,2.6 1.7,4.2 0,1.6 -0.6,3.1 -1.7,4.2 -2.2,2.2 -6.2,2.2 -8.4,0 -1.9,-1.9 -2.2,-4.8 -1,-7.1 l 4,4.1 2.3,-2.3 z"
     id="path2"
     style="fill:#666666" /></svg>
