<?xml version="1.0" encoding="UTF-8" standalone="no"?>
<svg
   viewBox="0 0 28 25.499891"
   version="1.1"
   xml:space="preserve"
   x="0px"
   y="0px"
   fill-rule="evenodd"
   clip-rule="evenodd"
   stroke-linejoin="round"
   stroke-miterlimit="2"
   id="svg1875"
   sodipodi:docname="talking-area.svg"
   width="28"
   height="25.499891"
   inkscape:version="1.2.2 (b0a8486541, 2022-12-01)"
   xmlns:inkscape="http://www.inkscape.org/namespaces/inkscape"
   xmlns:sodipodi="http://sodipodi.sourceforge.net/DTD/sodipodi-0.dtd"
   xmlns="http://www.w3.org/2000/svg"
   xmlns:svg="http://www.w3.org/2000/svg"><defs
     id="defs1879" /><sodipodi:namedview
     id="namedview1877"
     pagecolor="#ffffff"
     bordercolor="#000000"
     borderopacity="0.25"
     inkscape:showpageshadow="2"
     inkscape:pageopacity="0.0"
     inkscape:pagecheckerboard="0"
     inkscape:deskcolor="#d1d1d1"
     showgrid="false"
     inkscape:zoom="22.325"
     inkscape:cx="13.99776"
     inkscape:cy="9.8768197"
     inkscape:window-width="1920"
     inkscape:window-height="1044"
     inkscape:window-x="3840"
     inkscape:window-y="0"
     inkscape:window-maximized="1"
     inkscape:current-layer="svg1875" /><g
     transform="translate(-98,-3)"
     id="g1869"
     style="fill:#6a6a6a"><path
       d="m 105,10 h -4.5 c -1.381,0 -2.5,1.119 -2.5,2.5 0,2.661 0,7.339 0,10 0,1.381 1.119,2.5 2.5,2.5 0,0 1.325,0 1.325,0 0,0 0,3 0,3 0,0.204 0.123,0.387 0.312,0.463 0.189,0.077 0.405,0.031 0.547,-0.115 L 105.936,25 c 0,0 7.564,0 7.564,0 1.381,0 2.5,-1.119 2.5,-2.5 V 18 h 0.793 c 0,0 3.853,3.854 3.853,3.854 0.143,0.143 0.359,0.185 0.545,0.108 0.187,-0.077 0.309,-0.26 0.309,-0.462 V 18 c 0,0 2,0 2,0 1.381,0 2.5,-1.119 2.5,-2.5 V 5.5 C 126,4.837 125.737,4.201 125.268,3.732 124.799,3.263 124.163,3 123.5,3 c -3.832,0 -12.168,0 -16,0 -0.663,0 -1.299,0.263 -1.768,0.732 C 105.263,4.201 105,4.837 105,5.5 Z m 0,1 h -4.5 c -0.828,0 -1.5,0.672 -1.5,1.5 0,0 0,10 0,10 0,0.828 0.672,1.5 1.5,1.5 0.926,0 1.825,0 1.825,0 0.276,0 0.5,0.224 0.5,0.5 0,0 0,2.268 0,2.268 l 2.541,-2.616 C 105.461,24.055 105.59,24 105.725,24 c 0,0 7.775,0 7.775,0 0.828,0 1.5,-0.672 1.5,-1.5 V 18 h -7.5 c -1.381,0 -2.5,-1.119 -2.5,-2.5 z m 20,-5.5 v 10 c 0,0.828 -0.672,1.5 -1.5,1.5 H 121 c -0.276,0 -0.5,0.224 -0.5,0.5 v 2.793 c 0,0 -3.146,-3.147 -3.146,-3.147 C 117.26,17.053 117.133,17 117,17 h -9.5 c -0.828,0 -1.5,-0.672 -1.5,-1.5 0,0 0,-10 0,-10 0,-0.398 0.158,-0.779 0.439,-1.061 C 106.721,4.158 107.102,4 107.5,4 h 16 c 0.398,0 0.779,0.158 1.061,0.439 C 124.842,4.721 125,5.102 125,5.5 Z m -9.5,3 c -1.104,0 -2,0.896 -2,2 0,1.104 0.896,2 2,2 1.104,0 2,-0.896 2,-2 0,-1.104 -0.896,-2 -2,-2 z m 5.5,0 c -1.104,0 -2,0.896 -2,2 0,1.104 0.896,2 2,2 1.104,0 2,-0.896 2,-2 0,-1.104 -0.896,-2 -2,-2 z m -11,0 c -1.104,0 -2,0.896 -2,2 0,1.104 0.896,2 2,2 1.104,0 2,-0.896 2,-2 0,-1.104 -0.896,-2 -2,-2 z m 5.5,1 c 0.552,0 1,0.448 1,1 0,0.552 -0.448,1 -1,1 -0.552,0 -1,-0.448 -1,-1 0,-0.552 0.448,-1 1,-1 z m 5.5,0 c 0.552,0 1,0.448 1,1 0,0.552 -0.448,1 -1,1 -0.552,0 -1,-0.448 -1,-1 0,-0.552 0.448,-1 1,-1 z m -11,0 c 0.552,0 1,0.448 1,1 0,0.552 -0.448,1 -1,1 -0.552,0 -1,-0.448 -1,-1 0,-0.552 0.448,-1 1,-1 z"
       id="path1867"
       style="fill:#6a6a6a" /></g></svg>
