<?xml version="1.0" encoding="UTF-8" standalone="no"?>
<svg
   version="1.1"
   x="0px"
   y="0px"
   viewBox="0 0 73.849998 90.139"
   enable-background="new 0 0 100 100"
   xml:space="preserve"
   id="svg8"
   sodipodi:docname="teenagers.svg"
   width="73.849998"
   height="90.139"
   inkscape:version="1.1.2 (0a00cf5339, 2022-02-04)"
   xmlns:inkscape="http://www.inkscape.org/namespaces/inkscape"
   xmlns:sodipodi="http://sodipodi.sourceforge.net/DTD/sodipodi-0.dtd"
   xmlns="http://www.w3.org/2000/svg"
   xmlns:svg="http://www.w3.org/2000/svg"><defs
     id="defs12" /><sodipodi:namedview
     id="namedview10"
     pagecolor="#ffffff"
     bordercolor="#666666"
     borderopacity="1.0"
     inkscape:pageshadow="2"
     inkscape:pageopacity="0.0"
     inkscape:pagecheckerboard="0"
     showgrid="false"
     fit-margin-top="0"
     fit-margin-left="0"
     fit-margin-right="0"
     fit-margin-bottom="0"
     inkscape:zoom="6.088"
     inkscape:cx="35.972405"
     inkscape:cy="57.572273"
     inkscape:window-width="1850"
     inkscape:window-height="1025"
     inkscape:window-x="1990"
     inkscape:window-y="27"
     inkscape:window-maximized="1"
     inkscape:current-layer="svg8" /><path
     d="m 36.748,24.26 c 0.835,-1.35 2.571,-6.399 5.819,-6.298 2.96,0.09 3.169,2.702 3.169,3.168 0,4.63 -6.654,4.48 -8.988,3.13 z M 65.077,70.561 V 90.139 H 59.458 V 70.561 H 52.887 V 90.139 H 47.268 V 70.561 H 38.495 L 43.972,49.315 43.967,37.914 c 0,-6.731 5.475,-12.208 12.206,-12.208 6.731,0 12.206,5.477 12.206,12.208 V 49.453 L 73.85,70.561 Z M 45.757,64.942 H 66.588 L 62.765,49.649 62.76,37.914 c 0,-3.633 -2.954,-6.589 -6.587,-6.589 -3.633,0 -6.587,2.956 -6.587,6.589 L 49.47,50.615 Z M 43.628,12.544 c 0,-6.916 5.628,-12.543 12.547,-12.543 6.919,0 12.545,5.627 12.545,12.543 0,6.919 -5.627,12.547 -12.545,12.547 -6.918,0 -12.547,-5.628 -12.547,-12.547 z m 19.471,0 c 0,-0.444 -0.051,-0.875 -0.131,-1.296 -2.854,-0.18 -5.368,-1.615 -7.111,-3.224 -2.092,2.252 -4.802,3.582 -6.585,4.272 -0.003,0.084 -0.025,0.163 -0.025,0.248 0,3.82 3.108,6.928 6.927,6.928 3.819,0 6.925,-3.108 6.925,-6.928 z M 5.621,90.139 H 11.24 V 60.908 H 5.621 Z m 12.19,0 H 23.43 V 60.908 H 17.811 Z M 14.526,25.708 C 6.517,25.708 0,32.223 0,40.232 v 20.665 h 2.81 v 0 h 23.432 v 0 h 2.81 V 40.232 C 29.051,32.223 22.535,25.708 14.526,25.708 Z M 1.981,12.544 C 1.981,5.628 7.609,0 14.528,0 21.445,0 27.073,5.628 27.073,12.544 27.073,19.462 21.445,25.09 14.528,25.09 7.61,25.09 1.981,19.462 1.981,12.544 Z m 19.472,0 c 0,-0.256 -0.048,-0.499 -0.076,-0.747 C 18.08,11.516 13.973,9.58 11.291,7.267 L 8.296,9.574 c -0.433,0.904 -0.697,1.903 -0.697,2.971 0,3.819 3.108,6.926 6.927,6.926 3.82,-0.001 6.927,-3.108 6.927,-6.927 z"
     id="path2"
     style="fill:#8f8f8f" /></svg>
