<?xml version="1.0" encoding="UTF-8" standalone="no"?>
<svg
   version="1.1"
   x="0px"
   y="0px"
   viewBox="0 0 53.726662 55.120998"
   enable-background="new 0 0 100 100"
   xml:space="preserve"
   id="svg774"
   sodipodi:docname="teenagers-ok.svg"
   width="53.726662"
   height="55.120998"
   inkscape:version="1.2.2 (b0a8486541, 2022-12-01)"
   xmlns:inkscape="http://www.inkscape.org/namespaces/inkscape"
   xmlns:sodipodi="http://sodipodi.sourceforge.net/DTD/sodipodi-0.dtd"
   xmlns="http://www.w3.org/2000/svg"
   xmlns:svg="http://www.w3.org/2000/svg"><defs
     id="defs778" /><sodipodi:namedview
     id="namedview776"
     pagecolor="#ffffff"
     bordercolor="#000000"
     borderopacity="0.25"
     inkscape:showpageshadow="2"
     inkscape:pageopacity="0.0"
     inkscape:pagecheckerboard="0"
     inkscape:deskcolor="#d1d1d1"
     showgrid="false"
     inkscape:zoom="6.512"
     inkscape:cx="49.907862"
     inkscape:cy="31.787469"
     inkscape:window-width="1860"
     inkscape:window-height="1012"
     inkscape:window-x="0"
     inkscape:window-y="0"
     inkscape:window-maximized="1"
     inkscape:current-layer="svg774" /><path
     id="path746"
     d="m 53.6915,36.829188 v 0.410156 h 0.03516 C 53.71495,37.102641 53.70284,36.965919 53.6915,36.829188 Z"
     style="fill:#666666" /><path
     d="m 33.187,12.92 c 0,-0.286 -0.128,-1.882 -1.938,-1.938 -1.987,-0.061 -3.049,3.026 -3.559,3.851 1.427,0.827 5.497,0.919 5.497,-1.913 z"
     id="path756"
     style="fill:#666666" /><path
     d="m 47.033,23.183 c 0,-4.115 -3.348,-7.465 -7.465,-7.465 -4.117,0 -7.465,3.35 -7.465,7.465 l 0.003,6.972 -3.349,12.994 h 5.365 v 11.972 h 3.437 V 43.149 h 4.017 v 11.972 h 3.437 V 43.149 h 5.366 L 47.033,30.24 Z"
     id="path758"
     style="fill:#666666" /><path
     d="m 39.569,15.342 c 4.23,0 7.671,-3.442 7.671,-7.672 C 47.24,3.441 43.799,0 39.569,0 35.34,0 31.897,3.441 31.897,7.67 c 0,4.23 3.443,7.672 7.672,7.672 z m -4.22,-7.824 c 1.09,-0.422 2.745,-1.234 4.024,-2.61 1.068,0.985 2.607,1.878 4.353,1.986 0.047,0.252 0.078,0.51 0.078,0.776 0,2.336 -1.899,4.235 -4.235,4.235 -2.336,0 -4.235,-1.9 -4.235,-4.235 0,-0.052 0.013,-0.101 0.015,-0.152 z"
     id="path760"
     style="fill:#666666" /><rect
     x="11.644"
     y="37.523998"
     width="3.398"
     height="17.596001"
     id="rect762"
     style="fill:#666666" /><rect
     x="19.014999"
     y="37.523998"
     width="3.398"
     height="17.596001"
     id="rect764"
     style="fill:#666666" /><path
     d="m 17.028,16.162 c -2.046,0 -3.926,0.709 -5.42,1.886 V 16.722 H 0 v 18.334 h 8.245 v 2.469 h 3.398 V 24.946 c 0,-2.969 2.416,-5.386 5.385,-5.386 2.969,0 5.385,2.417 5.385,5.386 v 12.579 h 3.398 V 24.946 c 0,-4.844 -3.94,-8.784 -8.783,-8.784 z M 3.411,20.133 H 6.479 L 3.411,22.457 Z M 8.197,31.645 H 3.411 V 26.736 L 8.197,23.11 Z"
     id="path766"
     style="fill:#666666" /><path
     d="m 17.03,15.789 c 4.183,0 7.585,-3.403 7.585,-7.585 0,-4.183 -3.402,-7.585 -7.585,-7.585 -4.184,0 -7.586,3.403 -7.586,7.585 -0.001,4.182 3.402,7.585 7.586,7.585 z m 2.406,-10.356 1.075,0.448 c 0.445,0.665 0.706,1.463 0.706,2.322 0,2.309 -1.878,4.188 -4.187,4.188 -1.544,0 -2.88,-0.849 -3.606,-2.094 2.176,-0.763 4.615,-2.813 6.012,-4.864 z"
     id="path768"
     style="fill:#666666" /></svg>
