<?xml version="1.0" encoding="UTF-8" standalone="no"?>
<svg
   version="1.1"
   x="0px"
   y="0px"
   viewBox="0 0 27.465141 28.929325"
   xml:space="preserve"
   id="svg998"
   sodipodi:docname="teenagers-no.svg"
   width="27.465141"
   height="28.929325"
   inkscape:version="1.2.2 (b0a8486541, 2022-12-01)"
   xmlns:inkscape="http://www.inkscape.org/namespaces/inkscape"
   xmlns:sodipodi="http://sodipodi.sourceforge.net/DTD/sodipodi-0.dtd"
   xmlns="http://www.w3.org/2000/svg"
   xmlns:svg="http://www.w3.org/2000/svg"><defs
     id="defs1002" /><sodipodi:namedview
     id="namedview1000"
     pagecolor="#ffffff"
     bordercolor="#000000"
     borderopacity="0.25"
     inkscape:showpageshadow="2"
     inkscape:pageopacity="0.0"
     inkscape:pagecheckerboard="0"
     inkscape:deskcolor="#d1d1d1"
     showgrid="false"
     inkscape:zoom="21.706667"
     inkscape:cx="14.14312"
     inkscape:cy="17.552211"
     inkscape:window-width="1920"
     inkscape:window-height="1044"
     inkscape:window-x="0"
     inkscape:window-y="0"
     inkscape:window-maximized="1"
     inkscape:current-layer="svg998" /><g
     transform="translate(-270.87624,-441.17645)"
     id="g992"
     style="fill:#6a6a6a"><g
       id="g990"
       style="fill:#6a6a6a"><path
         d="m 278,469 h 5 c 0.553,0 1,-0.447 1,-1 v -9 c 1.104,0 2,-0.896 2,-2 v -7 c 0,-1.104 -0.896,-2 -2,-2 h -1.055 c 0.649,-0.635 1.055,-1.52 1.055,-2.5 0,-1.934 -1.566,-3.5 -3.5,-3.5 -1.934,0 -3.5,1.566 -3.5,3.5 0,0.98 0.405,1.865 1.055,2.5 H 277 c -1.104,0 -2,0.896 -2,2 v 7 c 0,1.104 0.896,2 2,2 v 9 c 0,0.553 0.447,1 1,1 z m 0,-23.5 c 0,-1.379 1.121,-2.5 2.5,-2.5 1.379,0 2.5,1.121 2.5,2.5 0,1.379 -1.121,2.5 -2.5,2.5 -1.379,0 -2.5,-1.121 -2.5,-2.5 z m -2,11.5 v -7 c 0,-0.552 0.448,-1 1,-1 h 7 c 0.552,0 1,0.448 1,1 v 7 c 0,0.552 -0.448,1 -1,1 v -6 h -1 v 16 h -2 v -10 h -1 v 10 h -2 v -16 h -1 v 6 c -0.552,0 -1,-0.448 -1,-1 z"
         id="path986"
         style="fill:#6a6a6a" /><path
         d="m 290,469 h 3 c 0.553,0 1,-0.447 1,-1 v -5.277 c 0.596,-0.347 1,-0.984 1,-1.723 v -3 c 0,-0.951 -0.666,-1.744 -1.556,-1.946 0.343,-0.428 0.556,-0.963 0.556,-1.554 0,-1.381 -1.119,-2.5 -2.5,-2.5 -1.381,0 -2.5,1.119 -2.5,2.5 0,0.591 0.213,1.126 0.556,1.554 -0.89,0.202 -1.556,0.995 -1.556,1.946 v 3 c 0,0.738 0.404,1.376 1,1.723 V 468 c 0,0.553 0.447,1 1,1 z m 1.5,-16 c 0.827,0 1.5,0.673 1.5,1.5 0,0.827 -0.673,1.5 -1.5,1.5 -0.827,0 -1.5,-0.673 -1.5,-1.5 0,-0.827 0.673,-1.5 1.5,-1.5 z m -2.5,5 c 0,-0.552 0.448,-1 1,-1 h 1 1 1 c 0.552,0 1,0.448 1,1 v 3 h -1 v 7 h -1 v -5 c -0.596,0 -1,0 -1,0 v 5 h -1 v -7 h -1 z"
         id="path988"
         style="fill:#6a6a6a" /></g></g><g
     id="g526"
     transform="matrix(0.57408013,0,0,0.60467836,-14.971149,-15.769105)"
     style="fill:#6a6a6a"><path
       d="m 27.579,73.921 c -0.384,0 -0.768,-0.146 -1.061,-0.439 -0.586,-0.585 -0.586,-1.536 0,-2.121 L 71.36,26.518 c 0.586,-0.586 1.535,-0.586 2.121,0 0.586,0.585 0.586,1.536 0,2.121 L 28.639,73.481 c -0.293,0.293 -0.677,0.44 -1.06,0.44 z"
       id="path524"
       style="fill:#6a6a6a" /></g></svg>
