<?xml version="1.0" encoding="UTF-8" standalone="no"?>
<svg
   data-name="Layer 38"
   viewBox="0 0 89.777245 89.795448"
   x="0px"
   y="0px"
   version="1.1"
   id="svg78"
   sodipodi:docname="tennis.svg"
   width="89.777245"
   height="89.795448"
   inkscape:version="1.1.2 (0a00cf5339, 2022-02-04)"
   xmlns:inkscape="http://www.inkscape.org/namespaces/inkscape"
   xmlns:sodipodi="http://sodipodi.sourceforge.net/DTD/sodipodi-0.dtd"
   xmlns="http://www.w3.org/2000/svg"
   xmlns:svg="http://www.w3.org/2000/svg">
  <defs
     id="defs82" />
  <sodipodi:namedview
     id="namedview80"
     pagecolor="#ffffff"
     bordercolor="#666666"
     borderopacity="1.0"
     inkscape:pageshadow="2"
     inkscape:pageopacity="0.0"
     inkscape:pagecheckerboard="0"
     showgrid="false"
     fit-margin-top="0"
     fit-margin-left="0"
     fit-margin-right="0"
     fit-margin-bottom="0"
     inkscape:zoom="6.088"
     inkscape:cx="46.484888"
     inkscape:cy="56.750986"
     inkscape:window-width="1850"
     inkscape:window-height="1025"
     inkscape:window-x="1990"
     inkscape:window-y="27"
     inkscape:window-maximized="1"
     inkscape:current-layer="svg78" />
  <path
     d="m 55.301101,49.045041 a 105.58,105.58 0 0 0 7.5,13.78 105.6,105.6 0 0 0 -13.79,-7.54 24.83,24.83 0 0 1 -6.51,3.18 92.72,92.72 0 0 1 19.54,10.67 4.16,4.16 0 0 1 0.84,-1.22 l 5,-5 a 4.31,4.31 0 0 1 1.21,-0.84 92.52,92.52 0 0 1 -10.66,-19.54 24.43,24.43 0 0 1 -3.13,6.51 z"
     id="path2"
     style="fill:#474747" />
  <path
     d="m 10.391101,47.815041 c 6.87,6.87 15.61,10.41 23.8,10.41 a 23.94,23.94 0 0 0 17.21,-6.8 23.47,23.47 0 0 0 6.65,-14.29 14.39,14.39 0 0 1 -1.84,-0.3 v 0 a 14.35,14.35 0 0 1 -2.71,-0.92 v 0 a 20.64,20.64 0 0 1 -1.09,5.51 v 0.11 a 17.69,17.69 0 0 1 -4.17,6.65 h -0.05 v 0 h -0.05 a 17.75,17.75 0 0 1 -6.74,4.12 0.34,0.34 0 0 1 -0.14,0 20.9,20.9 0 0 1 -6.76,1.21 24.14,24.14 0 0 1 -2.79,-0.17 30.45,30.45 0 0 1 -17.83,-9 v 0 0 a 30.54,30.54 0 0 1 -9.0000001,-17.83 c -0.76,-6.46 1.04,-12.23 5.06,-16.33 v 0 0 l 0.05,-0.05 C 14.141101,5.9850407 19.981101,4.1350407 26.501101,4.8850407 a 30.48,30.48 0 0 1 17.84,9.0000003 c 0.75,0.74 1.44,1.51 2.09,2.29 a 14.47,14.47 0 0 1 3,-4.06 c -0.51,-0.58 -1,-1.15 -1.59,-1.7 -6.92,-6.8700003 -15.66,-10.41000033 -23.85,-10.41000033 A 23.94,23.94 0 0 0 6.7811009,6.8050407 c -10.28,10.3300003 -8.71,28.6900003 3.6100001,41.0100003 z"
     id="path4"
     style="fill:#474747" />
  <path
     d="m 10.751101,20.475041 4.25,-4.19 -4.5,-4.51 a 16.2,16.2 0 0 0 -3.1800001,5.31 z"
     id="path6"
     style="fill:#474747" />
  <path
     d="m 39.501101,51.355041 -2.84,-2.84 -3.44,3.43 a 19.89,19.89 0 0 0 6.28,-0.59 z"
     id="path8"
     style="fill:#474747" />
  <path
     d="m 10.871101,33.285041 -4.0000001,-4 a 27.78,27.78 0 0 0 2.11,5.79 z"
     id="path10"
     style="fill:#474747" />
  <path
     d="m 16.061101,15.175041 4.24,-4.24 -3.48,-3.4900003 a 16.12,16.12 0 0 0 -5.23,3.2600003 z"
     id="path12"
     style="fill:#474747" />
  <rect
     x="-14.372333"
     y="32.746712"
     width="6"
     height="7.6700001"
     transform="rotate(-45)"
     id="rect14"
     style="fill:#474747" />
  <path
     d="m 23.831101,46.285041 -5.42,-5.41 -2.91,2.93 a 31.45,31.45 0 0 0 6.21,4.63 z"
     id="path16"
     style="fill:#474747" />
  <rect
     x="-14.375234"
     y="23.579706"
     width="6"
     height="7.6599998"
     transform="rotate(-45)"
     id="rect18"
     style="fill:#474747" />
  <path
     d="m 17.351101,39.805041 -5.42,-5.43 -2.1600001,2.15 a 31.56,31.56 0 0 0 4.6400001,6.22 z"
     id="path20"
     style="fill:#474747" />
  <rect
     x="-6.8773994"
     y="41.917019"
     width="6"
     height="7.6599998"
     transform="rotate(-45)"
     id="rect22"
     style="fill:#474747" />
  <rect
     x="-14.376502"
     y="41.906647"
     width="6"
     height="7.6599998"
     transform="rotate(-45)"
     id="rect24"
     style="fill:#474747" />
  <path
     d="m 18.411101,6.9250407 2.95,2.95 3.61,-3.59 h -1.27 a 19.37,19.37 0 0 0 -5.29,0.64 z"
     id="path26"
     style="fill:#474747" />
  <rect
     x="8.125001"
     y="23.579609"
     width="6"
     height="7.6599998"
     transform="rotate(-45)"
     id="rect28"
     style="fill:#474747" />
  <path
     d="m 33.141101,11.045041 2,-2.0000003 a 26.6,26.6 0 0 0 -6.2,-2.22 z"
     id="path30"
     style="fill:#474747" />
  <rect
     x="-14.373599"
     y="51.073654"
     width="6"
     height="7.6599998"
     transform="rotate(-45)"
     id="rect32"
     style="fill:#474747" />
  <path
     d="m 45.741101,17.755041 c -0.61,-0.77 -1.27,-1.53 -2,-2.26 l -3.1,3.09 4.22,4.21 a 14.34,14.34 0 0 1 0.88,-5.04 z"
     id="path34"
     style="fill:#474747" />
  <path
     d="m 34.201101,12.105041 5.42,5.42 3.1,-3.09 a 31.51,31.51 0 0 0 -6.22,-4.6300003 z"
     id="path36"
     style="fill:#474747" />
  <path
     d="m 41.971101,43.215041 -4.24,4.24 3.39,3.39 a 16.2,16.2 0 0 0 5.31,-3.18 z"
     id="path38"
     style="fill:#474747" />
  <path
     d="m 6.8511009,18.695041 a 20.19,20.19 0 0 0 -0.59,6.28 l 3.43,-3.44 z"
     id="path40"
     style="fill:#474747" />
  <rect
     x="0.62463129"
     y="41.920319"
     width="6"
     height="7.6599998"
     transform="rotate(-45)"
     id="rect42"
     style="fill:#474747" />
  <rect
     x="0.63297027"
     y="23.586308"
     width="6"
     height="7.6599998"
     transform="rotate(-45)"
     id="rect44"
     style="fill:#474747" />
  <path
     d="m 47.271101,35.785041 2.38,-2.38 a 14.5,14.5 0 0 1 -3.82,-5.61 c -0.13,-0.35 -0.24,-0.7 -0.34,-1 l -3.63,3.62 z"
     id="path46"
     style="fill:#474747" />
  <rect
     x="8.127902"
     y="32.746613"
     width="6"
     height="7.6700001"
     transform="rotate(-45)"
     id="rect48"
     style="fill:#474747" />
  <rect
     x="-6.8803005"
     y="32.740013"
     width="6"
     height="7.6700001"
     transform="rotate(-45)"
     id="rect50"
     style="fill:#474747" />
  <rect
     x="0.62880081"
     y="32.736244"
     width="6"
     height="7.6700001"
     transform="rotate(-45)"
     id="rect52"
     style="fill:#474747" />
  <path
     d="m 47.271101,37.905041 -4.24,4.24 4.47,4.47 a 16.14,16.14 0 0 0 3.23,-5.25 z"
     id="path54"
     style="fill:#474747" />
  <rect
     x="-6.881567"
     y="51.076954"
     width="6"
     height="7.6599998"
     transform="rotate(-45)"
     id="rect56"
     style="fill:#474747" />
  <rect
     x="0.62460554"
     y="51.070255"
     width="6"
     height="7.6599998"
     transform="rotate(-45)"
     id="rect58"
     style="fill:#474747" />
  <path
     d="m 50.821101,34.365041 -2.48,2.48 2.92,2.93 a 19,19 0 0 0 0.68,-4.67 c -0.39,-0.23 -0.76,-0.48 -1.12,-0.74 z"
     id="path60"
     style="fill:#474747" />
  <rect
     x="8.1237326"
     y="41.906551"
     width="6"
     height="7.6599998"
     transform="rotate(-45)"
     id="rect62"
     style="fill:#474747" />
  <path
     d="m 24.891101,47.345041 -1.84,1.84 a 27.78,27.78 0 0 0 5.79,2.1 z"
     id="path64"
     style="fill:#474747" />
  <rect
     x="-6.883204"
     y="23.583008"
     width="6"
     height="7.6599998"
     transform="rotate(-45)"
     id="rect66"
     style="fill:#474747" />
  <path
     d="m 88.941101,83.955041 a 2.81,2.81 0 0 0 0,-4 l -16,-16 a 2.82,2.82 0 0 0 -4,0 l -5,5 a 2.81,2.81 0 0 0 0,4 l 16,16 a 2.8,2.8 0 0 0 4,0 z"
     id="path68"
     style="fill:#474747" />
  <path
     d="m 60.861101,9.6550407 c 0.35,4.9000003 -3.31,6.3000003 -3.87,6.4800003 a 5.83,5.83 0 0 1 -2.2,0.43 6.16,6.16 0 0 1 -5,-2.74 13.17,13.17 0 0 0 -2.29,3.46 13.06,13.06 0 0 0 6.54,17.28 12.55,12.55 0 0 0 1.71,0.62 10.1,10.1 0 0 0 -0.19,-4.77 c -0.75,-2.56 -0.66,-4.71 0.29,-6.39 a 6.32,6.32 0 0 1 6,-3 0.75041655,0.75041655 0 1 1 -0.18,1.49 4.09,4.09 0 0 0 -2.09,0.29 l -0.14,0.05 a 4.15,4.15 0 0 0 -2.27,1.9 6.8,6.8 0 0 0 -0.14,5.22 12,12 0 0 1 0.21,5.53 13,13 0 0 0 12.36,-4.68 12.79,12.79 0 0 1 -1.89,-1.78 0.76,0.76 0 0 1 0.09,-1.06 0.77,0.77 0 0 1 1.06,0.09 11.14,11.14 0 0 0 1.64,1.53 13,13 0 0 0 -9.62,-20.0000003 z m 5.71,16.0600003 a 0.77,0.77 0 0 1 -0.39,0.11 0.74,0.74 0 0 1 -0.64,-0.37 8.44,8.44 0 0 0 -1.24,-1.61 0.75,0.75 0 0 1 0,-1.06 0.75,0.75 0 0 1 1.06,0 9.23,9.23 0 0 1 1.49,1.91 0.76,0.76 0 0 1 -0.28,1.02 z"
     id="path70"
     style="fill:#474747" />
  <path
     d="m 50.891101,12.775041 c 2.47,3.38 5.38,2.05 5.5,2 h 0.14 c 0.13,0 3.2,-1 2.81,-5.1300003 a 13,13 0 0 0 -8.45,3.2000003 z"
     id="path72"
     style="fill:#474747" />
</svg>
