<?xml version="1.0" encoding="UTF-8" standalone="no"?>
<svg
   version="1.1"
   viewBox="-5 -10 84.316399 84.318367"
   id="svg813"
   sodipodi:docname="tennis-ball.svg"
   width="84.316399"
   height="84.318367"
   inkscape:version="1.2.2 (b0a8486541, 2022-12-01)"
   xmlns:inkscape="http://www.inkscape.org/namespaces/inkscape"
   xmlns:sodipodi="http://sodipodi.sourceforge.net/DTD/sodipodi-0.dtd"
   xmlns="http://www.w3.org/2000/svg"
   xmlns:svg="http://www.w3.org/2000/svg">
  <defs
     id="defs817" />
  <sodipodi:namedview
     id="namedview815"
     pagecolor="#ffffff"
     bordercolor="#000000"
     borderopacity="0.25"
     inkscape:showpageshadow="2"
     inkscape:pageopacity="0.0"
     inkscape:pagecheckerboard="0"
     inkscape:deskcolor="#d1d1d1"
     showgrid="false"
     inkscape:zoom="6.4222222"
     inkscape:cx="42.275087"
     inkscape:cy="49.749135"
     inkscape:window-width="1920"
     inkscape:window-height="1044"
     inkscape:window-x="3840"
     inkscape:window-y="0"
     inkscape:window-maximized="1"
     inkscape:current-layer="svg813" />
  <path
     d="m 79.2891,33.580652 c 0.42188,-11.617 -4.0625,-23.008 -12.301,-31.2500004 -8.2422,-8.2461 -19.684,-12.7419996 -31.25,-12.301 -10.723,0.33594 -20.812,4.7031 -28.4100002,12.301 -0.94922,0.94922 -1.8477,1.9375 -2.6953,2.9609 -5.9336,7.1680004 -9.3125,16.0660004 -9.6055,25.4410004 v 0.0078 c -0.42188,11.617 4.06249996,23.008 12.301,31.25 7.8828002,7.8828 18.6450002,12.328 29.7270002,12.328 0.50781,0 1.0156,-0.0078 1.5234,-0.02734 10.723,-0.33594 20.812,-4.7031 28.41,-12.301 0.94922,-0.94922 1.8477,-1.9375 2.6953,-2.9609 5.9297,-7.168 9.3125,-16.066 9.6055,-25.441 v -0.0078 z M 12.2111,2.1036516 c 0.32031,-0.26562 0.66016,-0.49609 0.98437,-0.75 0.62109,-0.48438 1.2383,-0.96875 1.8828,-1.4141 0.39844,-0.27344 0.81641,-0.51172 1.2266,-0.76953 0.59766,-0.37891 1.1914,-0.76562 1.8086,-1.1094 0.44531,-0.25 0.90625,-0.46094 1.3594,-0.69141 0.60547,-0.30859 1.2109,-0.62109 1.832,-0.89844 0.47266,-0.21094 0.96094,-0.38672 1.4414,-0.57812 0.62109,-0.24609 1.2422,-0.49609 1.8789,-0.71094 0.49609,-0.16797 1.0039,-0.30469 1.5117,-0.45312 0.63672,-0.1875 1.2734,-0.37109 1.9219,-0.52344 0.51953,-0.125 1.0469,-0.21875 1.5703,-0.32031 0.64453,-0.125 1.293,-0.24609 1.9453,-0.33984 0.54297,-0.07812 1.0938,-0.12891 1.6445,-0.18359 0.40234,-0.03906 0.80859,-0.06641 1.2148,-0.09375 1.0703,9.8086 -2.3945,19.7150004 -9.4219,26.7460004 -7.0312,7.0312 -16.9570002,10.48 -26.7460002,9.4258 0.02734,-0.42578 0.05859,-0.85156 0.10156,-1.2773 0.05078,-0.51953 0.10156,-1.0391 0.17578,-1.5547 0.09766,-0.68359 0.22266,-1.3555 0.35547,-2.0273 0.09766,-0.5 0.18749996,-1 0.30468996,-1.4922 0.16016,-0.67578 0.35156,-1.3398 0.54688,-2.0039 0.14062,-0.47656 0.26953,-0.95703 0.42969,-1.4297 0.22266,-0.66797 0.48437,-1.3203 0.74609,-1.9727 0.17969004,-0.44922 0.34375004,-0.90625 0.53906004,-1.3477 0.29297,-0.66016 0.625,-1.3008 0.95312,-1.9414 0.21484,-0.41797 0.41016,-0.83984 0.63672,-1.25 0.36719,-0.65625 0.77734,-1.2891 1.1797,-1.9258 0.23438,-0.37109 0.45312,-0.75 0.69922,-1.1133 0.47266,-0.6875004 0.98828,-1.3438004 1.5039,-2.0039004 0.22656,-0.28516 0.42969,-0.58594 0.66016,-0.86719 0.76953,-0.92578 1.582,-1.8242 2.4414,-2.6836 0.8593802,-0.85938 1.7539002,-1.668 2.6758002,-2.4375 z M -1.8239002,32.544652 c 1.19529996,0.12109 2.39449996,0.20313 3.5859,0.20313 9.4492002,0 18.6720002,-3.7539 25.4530002,-10.531 7.6445,-7.6484 11.379,-18.4020004 10.285,-29.0780004 10.176,0.06641 20.043,4.1602 27.281,11.402 7.2344,7.2383004 11.289,17.0980004 11.359,27.2770004 -10.676,-1.082 -21.406,2.6523 -29.039,10.289 -7.6367,7.6367 -11.367,18.375 -10.289,29.035 -10.172,-0.08594 -20.039,-4.1211 -27.2770002,-11.359 -7.2266,-7.2266 -11.277,-17.07 -11.359,-27.238 z m 63.9260002,29.672 c -0.32031,0.26562 -0.66406,0.5 -0.98828,0.75391 -0.61719,0.48047 -1.2344,0.96875 -1.875,1.4102 -0.40234,0.27344 -0.82031,0.51562 -1.2305,0.77344 -0.59766,0.37891 -1.1875,0.76172 -1.8047,1.1055 -0.44531,0.25 -0.90625,0.46094 -1.3594,0.69141 -0.60547,0.30859 -1.2109,0.62109 -1.832,0.89844 -0.47266,0.21094 -0.96094,0.38672 -1.4414,0.57812 -0.62109,0.24609 -1.2422,0.49609 -1.8789,0.71094 -0.49609,0.16797 -1.0078,0.30469 -1.5117,0.45313 -0.63672,0.1875 -1.2734,0.37109 -1.918,0.52344 -0.51953,0.125 -1.0469,0.21875 -1.5742,0.32031 -0.64453,0.125 -1.293,0.24609 -1.9453,0.33984 -0.54297,0.07813 -1.0938,0.12891 -1.6445,0.18359 -0.40234,0.03906 -0.80859,0.06641 -1.2148,0.09375 -1.0703,-9.8086 2.3945,-19.715 9.4219,-26.746 6.1875,-6.1914 14.613,-9.6172 23.234,-9.6172 1.168,0 2.3398,0.06641 3.5078,0.19141 -0.02734,0.42578 -0.05859,0.85156 -0.10156,1.2773 -0.05078,0.51953 -0.10156,1.0391 -0.17578,1.5547 -0.09766,0.68359 -0.22266,1.3555 -0.35547,2.0273 -0.09766,0.5 -0.1875,1 -0.30469,1.4922 -0.16016,0.67578 -0.35156,1.3398 -0.54688,2.0039 -0.14062,0.47656 -0.26953,0.95703 -0.42969,1.4297 -0.22266,0.66797 -0.48437,1.3203 -0.74609,1.9727 -0.17969,0.44922 -0.34375,0.90625 -0.53906,1.3477 -0.29297,0.66016 -0.625,1.3008 -0.95312,1.9414 -0.21484,0.41797 -0.41016,0.83984 -0.63672,1.25 -0.36719,0.65625 -0.77734,1.2891 -1.1797,1.9258 -0.23438,0.37109 -0.45312,0.75 -0.69922,1.1133 -0.47266,0.6875 -0.98828,1.3438 -1.5039,2.0039 -0.22656,0.28516 -0.42969,0.58594 -0.66016,0.86719 -0.76953,0.92578 -1.582,1.8242 -2.4414,2.6836 -0.85938,0.85938 -1.7539,1.668 -2.6758,2.4375 z"
     id="path807"
     style="fill:#6a6a6a" />
</svg>
