<?xml version="1.0" encoding="UTF-8" standalone="no"?>
<svg
   viewBox="0 0 59 46"
   x="0px"
   y="0px"
   version="1.1"
   id="svg136"
   sodipodi:docname="terrace2.svg"
   width="59"
   height="46"
   inkscape:version="1.1.2 (0a00cf5339, 2022-02-04)"
   xmlns:inkscape="http://www.inkscape.org/namespaces/inkscape"
   xmlns:sodipodi="http://sodipodi.sourceforge.net/DTD/sodipodi-0.dtd"
   xmlns="http://www.w3.org/2000/svg"
   xmlns:svg="http://www.w3.org/2000/svg">
  <defs
     id="defs140" />
  <sodipodi:namedview
     id="namedview138"
     pagecolor="#ffffff"
     bordercolor="#666666"
     borderopacity="1.0"
     inkscape:pageshadow="2"
     inkscape:pageopacity="0.0"
     inkscape:pagecheckerboard="0"
     showgrid="false"
     fit-margin-top="0"
     fit-margin-left="0"
     fit-margin-right="0"
     fit-margin-bottom="0"
     inkscape:zoom="9.5125"
     inkscape:cx="19.448095"
     inkscape:cy="26.754271"
     inkscape:window-width="1850"
     inkscape:window-height="1025"
     inkscape:window-x="1990"
     inkscape:window-y="27"
     inkscape:window-maximized="1"
     inkscape:current-layer="svg136" />
  <path
     d="m 6,40.00586 a 0.99943,0.99943 0 0 1 -1,-1 v -4.002 a 1,1 0 0 1 2,0 v 4.002 a 0.99943,0.99943 0 0 1 -1,1 z"
     id="path2"
     style="fill:#4b4b4b" />
  <path
     d="m 42.98828,40.00586 a 1.00011,1.00011 0 0 1 -0.89551,-0.55273 l -2.002,-4.002 a 1.0001149,1.0001149 0 0 1 1.78906,-0.89453 l 2.002,4.002 a 0.99991,0.99991 0 0 1 -0.89356,1.44727 z"
     id="path4"
     style="fill:#4b4b4b" />
  <path
     d="m 43.01563,40.0293 a 1,1 0 0 1 -0.707,-1.707 L 56.28906,24.3418 a 0.99989495,0.99989495 0 0 1 1.41407,1.41406 L 43.72266,39.73633 a 0.9968,0.9968 0 0 1 -0.70703,0.29297 z"
     id="path6"
     style="fill:#4b4b4b" />
  <path
     d="m 41.01367,36.02539 a 1,1 0 0 1 -0.707,-1.707 L 53.28613,21.33984 a 0.9999,0.9999 0 1 1 1.41407,1.41407 L 41.7207,35.73242 a 0.99676,0.99676 0 0 1 -0.70703,0.29297 z"
     id="path8"
     style="fill:#4b4b4b" />
  <path
     d="m 56.99609,26.04883 a 0.99678,0.99678 0 0 1 -0.707,-0.293 l -3.00293,-3.00195 a 0.9999,0.9999 0 0 1 1.41407,-1.41407 l 3.00293,3.002 a 1,1 0 0 1 -0.707,1.707 z"
     id="path10"
     style="fill:#4b4b4b" />
  <path
     d="m 7.99707,46 a 0.99943,0.99943 0 0 1 -1,-1 v -5.99414 a 1,1 0 0 1 2,0 V 45 a 0.99943,0.99943 0 0 1 -1,1 z"
     id="path12"
     style="fill:#4b4b4b" />
  <path
     d="m 11.99707,46 a 0.99943,0.99943 0 0 1 -1,-1 v -5.99414 a 1,1 0 0 1 2,0 V 45 a 0.99943,0.99943 0 0 1 -1,1 z"
     id="path14"
     style="fill:#4b4b4b" />
  <path
     d="m 39,46 a 0.99943,0.99943 0 0 1 -1,-1 v -5.99414 a 1,1 0 0 1 2,0 V 45 a 0.99943,0.99943 0 0 1 -1,1 z"
     id="path16"
     style="fill:#4b4b4b" />
  <path
     d="m 43,46 a 0.99943,0.99943 0 0 1 -1,-1 v -5.99414 a 1,1 0 0 1 2,0 V 45 a 0.99943,0.99943 0 0 1 -1,1 z"
     id="path18"
     style="fill:#4b4b4b" />
  <path
     d="m 19.99609,36.00781 a 0.99942,0.99942 0 0 1 -1,-1 4.004,4.004 0 0 1 4,-4 1,1 0 1 1 0,2 2.0026,2.0026 0 0 0 -2,2 0.99942,0.99942 0 0 1 -1,1 z"
     id="path20"
     style="fill:#4b4b4b" />
  <path
     d="m 33.99609,36.00781 a 0.99942,0.99942 0 0 1 -1,-1 2,2 0 0 0 -4,0 1,1 0 1 1 -2,0 4,4 0 0 1 8,0 0.99942,0.99942 0 0 1 -1,1 z"
     id="path22"
     style="fill:#4b4b4b" />
  <path
     d="m 30.99609,33.00781 h -8 a 1,1 0 0 1 0,-2 h 8 a 1,1 0 0 1 0,2 z"
     id="path24"
     style="fill:#4b4b4b" />
  <path
     d="m 27.99609,43.00781 a 0.99942,0.99942 0 0 1 -1,-1 v -7 a 1,1 0 0 1 2,0 v 7 a 0.99942,0.99942 0 0 1 -1,1 z"
     id="path26"
     style="fill:#4b4b4b" />
  <path
     d="m 27.99609,43.00781 h -8 a 1,1 0 0 1 0,-2 h 8 a 1,1 0 0 1 0,2 z"
     id="path28"
     style="fill:#4b4b4b" />
  <path
     d="m 19.99609,43.00781 a 0.99942,0.99942 0 0 1 -1,-1 v -7 a 1,1 0 0 1 2,0 v 7 a 0.99942,0.99942 0 0 1 -1,1 z"
     id="path30"
     style="fill:#4b4b4b" />
  <path
     d="M 19.99609,36.00781 H 6 a 1,1 0 0 1 0,-2 h 13.99609 a 1,1 0 1 1 0,2 z"
     id="path32"
     style="fill:#4b4b4b" />
  <path
     d="M 19.99609,40.00586 H 6 a 1,1 0 0 1 0,-2 h 13.99609 a 1,1 0 0 1 0,2 z"
     id="path34"
     style="fill:#4b4b4b" />
  <path
     d="M 40.98535,36.00391 H 27.99609 a 1,1 0 0 1 0,-2 h 12.98926 a 1,1 0 0 1 0,2 z"
     id="path36"
     style="fill:#4b4b4b" />
  <path
     d="M 42.9873,40.00586 H 27.99609 a 1,1 0 0 1 0,-2 H 42.9873 a 1,1 0 0 1 0,2 z"
     id="path38"
     style="fill:#4b4b4b" />
  <path
     id="path40"
     style="fill:#4b4b4b"
     d="m 0.3457031,44 c 3.586e-4,0.08072 1.03e-5,0.161444 0,0.242188 -2.68e-5,0.147546 -2.8e-6,0.29386 0,0.441406 -1.6e-6,0.211847 -2e-7,0.424872 0,0.636718 V 46 H 58 a 1,1 0 0 0 0,-2 z" />
  <path
     d="m 11.999,17.99805 a 5.999,5.999 0 1 1 5.999,-5.999 6.00584,6.00584 0 0 1 -5.999,5.999 z m 0,-9.998 a 3.999,3.999 0 1 0 3.999,3.999 A 4.00355,4.00355 0 0 0 11.999,8 Z"
     id="path106"
     style="fill:#4b4b4b" />
  <path
     d="M 12,5 A 0.99974,0.99974 0 0 1 11,4 V 1 a 1,1 0 0 1 2,0 v 3 a 0.99974,0.99974 0 0 1 -1,1 z"
     id="path108"
     style="fill:#4b4b4b" />
  <path
     d="m 12,24 a 0.99974,0.99974 0 0 1 -1,-1 v -3 a 1,1 0 0 1 2,0 v 3 a 0.99974,0.99974 0 0 1 -1,1 z"
     id="path110"
     style="fill:#4b4b4b" />
  <path
     d="m 6.34277,7.34326 a 0.99672,0.99672 0 0 1 -0.707,-0.293 L 3.51465,4.92871 A 0.99989142,0.99989142 0 1 1 4.92871,3.51465 L 7.0498,5.63623 a 1,1 0 0 1 -0.707,1.707 z"
     id="path112"
     style="fill:#4b4b4b" />
  <path
     d="m 19.77832,20.77832 a 0.99676,0.99676 0 0 1 -0.707,-0.293 L 16.9502,18.36377 a 0.99989142,0.99989142 0 1 1 1.41406,-1.41406 l 2.12109,2.12158 a 1,1 0 0 1 -0.707,1.707 z"
     id="path114"
     style="fill:#4b4b4b" />
  <path
     d="M 4,13 H 1 a 1,1 0 0 1 0,-2 h 3 a 1,1 0 0 1 0,2 z"
     id="path116"
     style="fill:#4b4b4b" />
  <path
     d="m 23,13 h -3 a 1,1 0 0 1 0,-2 h 3 a 1,1 0 0 1 0,2 z"
     id="path118"
     style="fill:#4b4b4b" />
  <path
     d="m 4.22168,20.77832 a 1,1 0 0 1 -0.707,-1.707 l 2.12109,-2.12158 a 0.99989142,0.99989142 0 0 1 1.41406,1.41406 l -2.12112,2.12155 a 0.99676,0.99676 0 0 1 -0.70703,0.29297 z"
     id="path120"
     style="fill:#4b4b4b" />
  <path
     d="m 17.65723,7.34326 a 1,1 0 0 1 -0.707,-1.707 l 2.12109,-2.12158 a 0.99989142,0.99989142 0 1 1 1.41406,1.41406 l -2.12109,2.12158 a 0.99672,0.99672 0 0 1 -0.70706,0.29294 z"
     id="path122"
     style="fill:#4b4b4b" />
  <path
     d="m 41,13 a 1,1 0 0 1 0,-2 2,2 0 1 0 -2,-2 1,1 0 0 1 -2,0 4,4 0 1 1 4,4 z"
     id="path124"
     style="fill:#4b4b4b" />
  <path
     d="m 34.5,13 a 2.5,2.5 0 0 1 0,-5 1,1 0 0 1 0,2 0.5,0.5 0 0 0 0,1 1,1 0 0 1 0,2 z"
     id="path126"
     style="fill:#4b4b4b" />
  <path
     d="m 38,10 h -3.5 a 1,1 0 0 1 0,-2 H 38 a 1,1 0 0 1 0,2 z"
     id="path128"
     style="fill:#4b4b4b" />
  <path
     d="m 41,13 h -6.5 a 1,1 0 0 1 0,-2 H 41 a 1,1 0 0 1 0,2 z"
     id="path130"
     style="fill:#4b4b4b" />
</svg>
