<?xml version="1.0" encoding="UTF-8" standalone="no"?>
<svg
   version="1.1"
   x="0px"
   y="0px"
   viewBox="0 0 92.459999 22.48"
   xml:space="preserve"
   id="svg38"
   width="92.459999"
   height="22.48"
   xmlns="http://www.w3.org/2000/svg"
   xmlns:svg="http://www.w3.org/2000/svg"><defs
     id="defs42" /><g
     id="g32"
     transform="translate(-3.77,-38.76)"
     style="fill:#666666"><g
       id="g10"
       style="fill:#666666"><g
         id="g8"
         style="fill:#666666"><g
           id="g6"
           style="fill:#666666"><g
             id="g4"
             style="fill:#666666"><path
               d="M 15.01,61.24 C 8.81,61.24 3.77,56.2 3.77,50 c 0,-6.2 5.04,-11.24 11.24,-11.24 6.2,0 11.23,5.04 11.23,11.24 0,6.2 -5.04,11.24 -11.23,11.24 z m 0,-18.48 c -3.99,0 -7.24,3.25 -7.24,7.24 0,3.99 3.25,7.24 7.24,7.24 3.99,0 7.24,-3.25 7.24,-7.24 0,-3.99 -3.25,-7.24 -7.24,-7.24 z"
               id="path2"
               style="fill:#666666" /></g></g></g></g><g
       id="g20"
       style="fill:#666666"><g
         id="g18"
         style="fill:#666666"><g
           id="g16"
           style="fill:#666666"><g
             id="g14"
             style="fill:#666666"><path
               d="M 50,61.24 C 43.8,61.24 38.76,56.2 38.76,50 38.76,43.8 43.8,38.76 50,38.76 c 6.2,0 11.24,5.04 11.24,11.24 0,6.2 -5.04,11.24 -11.24,11.24 z m 0,-18.48 c -3.99,0 -7.24,3.25 -7.24,7.24 0,3.99 3.25,7.24 7.24,7.24 3.99,0 7.24,-3.25 7.24,-7.24 0,-3.99 -3.25,-7.24 -7.24,-7.24 z"
               id="path12"
               style="fill:#666666" /></g></g></g></g><g
       id="g30"
       style="fill:#666666"><g
         id="g28"
         style="fill:#666666"><g
           id="g26"
           style="fill:#666666"><g
             id="g24"
             style="fill:#666666"><path
               d="m 84.99,61.24 c -6.2,0 -11.24,-5.04 -11.24,-11.24 0,-6.2 5.04,-11.24 11.24,-11.24 6.2,0 11.24,5.04 11.24,11.24 0,6.2 -5.04,11.24 -11.24,11.24 z m 0,-18.48 c -3.99,0 -7.24,3.25 -7.24,7.24 0,3.99 3.25,7.24 7.24,7.24 3.99,0 7.24,-3.25 7.24,-7.24 0,-3.99 -3.25,-7.24 -7.24,-7.24 z"
               id="path22"
               style="fill:#666666" /></g></g></g></g></g></svg>
