<?xml version="1.0" encoding="UTF-8" standalone="no"?>
<svg
   viewBox="0 0 60.371788 60.569027"
   x="0px"
   y="0px"
   version="1.1"
   id="svg12"
   sodipodi:docname="noun-deal-3477718.svg"
   width="60.371788"
   height="60.569027"
   xmlns:inkscape="http://www.inkscape.org/namespaces/inkscape"
   xmlns:sodipodi="http://sodipodi.sourceforge.net/DTD/sodipodi-0.dtd"
   xmlns="http://www.w3.org/2000/svg"
   xmlns:svg="http://www.w3.org/2000/svg">
  <defs
     id="defs16" />
  <sodipodi:namedview
     id="namedview14"
     pagecolor="#ffffff"
     bordercolor="#000000"
     borderopacity="0.25"
     inkscape:showpageshadow="2"
     inkscape:pageopacity="0.0"
     inkscape:pagecheckerboard="0"
     inkscape:deskcolor="#d1d1d1"
     showgrid="false" />
  <g
     id="g6"
     transform="translate(-2,-1.9999752)"
     style="fill:#6a6a6a">
    <path
       d="m 61.713,45.6 -5.638,-2.052 a 1,1 0 0 0 -1.281,0.6 L 54.452,45.087 47.92,42.705 A 0.968,0.968 0 0 0 47.406,42.66 l -13.59,2.4 a 4.008,4.008 0 0 0 -2.862,2.114 L 24.72,44.9 a 3.962,3.962 0 0 0 -3.057,0.135 4.01,4.01 0 0 0 -2.27,3.041 4.088,4.088 0 0 0 2.729,4.391 l 20.535,7.474 a 0.979,0.979 0 0 0 0.342,0.061 1,1 0 0 0 0.32,-0.053 l 5.735,-1.936 0.61,0.222 -0.342,0.94 a 1,1 0 0 0 0.6,1.281 l 5.639,2.052 a 0.978,0.978 0 0 0 0.341,0.061 1,1 0 0 0 0.94,-0.658 L 62.314,46.875 A 1,1 0 0 0 61.713,45.6 Z M 48.746,56.009 43.011,57.945 22.806,50.59 a 2.113,2.113 0 0 1 -1.436,-2.208 2,2 0 0 1 2.666,-1.6 l 6.488,2.361 a 4.352,4.352 0 0 0 0.045,0.551 4.017,4.017 0 0 0 4.631,3.245 l 11.258,-1.985 -0.348,-1.97 -11.253,1.985 a 2.014,2.014 0 0 1 -2.317,-1.615 1.853,1.853 0 0 1 0.005,-0.69 0.9,0.9 0 0 0 0.017,-0.1 1.107,1.107 0 0 1 0.069,-0.249 2.008,2.008 0 0 1 1.533,-1.287 l 13.324,-2.35 6.28,2.285 -3.42,9.4 -0.94,-0.341 a 1,1 0 0 0 -0.662,-0.013 z m 6.554,4.281 -3.759,-1.368 4.788,-13.156 3.759,1.368 z"
       id="path2"
       style="fill:#6a6a6a" />
    <path
       d="M 25.293,18.131 A 7.834,7.834 0 0 0 27.031,21.312 1.952,1.952 0 0 0 27,21.554 V 27 a 3,3 0 0 0 3,3 v 10 a 1,1 0 0 0 0.553,0.9 l 2,1 a 1,1 0 0 0 0.894,0 l 2,-1 A 1,1 0 0 0 36,40 V 30 a 3,3 0 0 0 3,-3 V 21.554 A 2.053,2.053 0 0 0 38.967,21.294 7.742,7.742 0 0 0 40.5,18.771 3.653,3.653 0 0 0 44.23,17.06 3.947,3.947 0 0 0 43.602,12.186 L 35.464,4.05 A 6.954,6.954 0 0 0 30.515,2 H 20 A 0.989,0.989 0 0 0 19.606,2.081 L 12.8,5 H 12 V 3 A 1,1 0 0 0 11,2 H 3 A 1,1 0 0 0 2,3 v 16 a 1,1 0 0 0 1,1 h 8 a 1,1 0 0 0 1,-1 v -2 h 0.146 c 0.716,2.4 3.932,4 6.854,4 a 7.979,7.979 0 0 0 6.293,-2.869 z M 10,18 H 4 V 4 h 6 z m 24,21.382 -1,0.5 -1,-0.5 V 30 h 2 z M 37,27 a 1,1 0 0 1 -1,1 h -6 a 1,1 0 0 1 -1,-1 v -4.082 a 7.868,7.868 0 0 0 2.157,0.86 2.013,2.013 0 1 0 0.28,-2.01 5.935,5.935 0 0 1 -1.6,-0.683 A 7.849,7.849 0 0 1 33,20 a 9.374,9.374 0 0 1 4,1.554 z m 0.745,-7.327 A 10.915,10.915 0 0 0 33,18 10.891,10.891 0 0 0 28.263,19.669 5.862,5.862 0 0 1 27.089,17 H 32 a 3.9,3.9 0 0 0 3.494,-2.091 l 2.8,2.8 A 3.622,3.622 0 0 0 38.648,18 5.752,5.752 0 0 1 37.745,19.673 Z m -1.792,-7.134 a 3.962,3.962 0 0 0 -0.991,-2.2 6,6 0 0 1 4.016,5.228 z M 24,16 c 0,1.514 -2.477,3 -5,3 -2.523,0 -5,-1.486 -5,-3 A 1,1 0 0 0 13,15 H 12 V 7 h 1 A 0.989,0.989 0 0 0 13.394,6.919 L 20.2,4 h 10.31 a 4.967,4.967 0 0 1 3.54,1.464 L 42.186,13.6 A 1.936,1.936 0 0 1 42.543,15.981 1.8,1.8 0 0 1 41,16.82 c -0.016,0 -0.031,0 -0.047,0 A 7.839,7.839 0 0 0 41,16 8.009,8.009 0 0 0 33,8 7.918,7.918 0 0 0 29.161,9 H 21 v 2 h 11 a 2,2 0 0 1 0,4 h -7 a 1,1 0 0 0 -1,1 z"
       id="path4"
       style="fill:#6a6a6a" />
  </g>
</svg>
