<?xml version="1.0" encoding="UTF-8" standalone="no"?>
<svg
   data-name="Layer 38"
   viewBox="0 0 89.5 93.128059"
   x="0px"
   y="0px"
   version="1.1"
   id="svg18"
   sodipodi:docname="noun-turnstiles-4454382.svg"
   width="89.5"
   height="93.128059"
   xmlns:inkscape="http://www.inkscape.org/namespaces/inkscape"
   xmlns:sodipodi="http://sodipodi.sourceforge.net/DTD/sodipodi-0.dtd"
   xmlns="http://www.w3.org/2000/svg"
   xmlns:svg="http://www.w3.org/2000/svg">
  <defs
     id="defs22" />
  <sodipodi:namedview
     id="namedview20"
     pagecolor="#ffffff"
     bordercolor="#000000"
     borderopacity="0.25"
     inkscape:showpageshadow="2"
     inkscape:pageopacity="0.0"
     inkscape:pagecheckerboard="0"
     inkscape:deskcolor="#d1d1d1"
     showgrid="false" />
  <path
     d="m 1,92.88 h 25 a 1,1 0 0 0 1,-1 V 84.53 A 4.53,4.53 0 0 0 22.47,80 H 22 V 47 a 10.33,10.33 0 0 0 1.26,-0.19 l 21.39,21.34 a 3.5355339,3.5355339 0 0 0 5,-5 L 29.44,43 a 10.81,10.81 0 0 0 2,-3.54 H 61 a 3.5,3.5 0 0 0 0,-7 H 31.42 a 10.81,10.81 0 0 0 -2,-3.54 L 49.6,8.8 a 3.51,3.51 0 0 0 0,-5 3.57,3.57 0 0 0 -5,0 L 23.26,25.24 A 10.33,10.33 0 0 0 22,25.05 V 19.68 A 4.66,4.66 0 0 0 20.18,16 4.66,4.66 0 0 0 22,12.32 V 4.68 A 4.69,4.69 0 0 0 17.32,0 H 9.68 A 4.69,4.69 0 0 0 5,4.68 v 7.64 A 4.66,4.66 0 0 0 6.82,16 4.66,4.66 0 0 0 5,19.68 V 80 H 4.53 A 4.53,4.53 0 0 0 0,84.53 v 7.35 a 1,1 0 0 0 1,1 z M 31.89,34.5 H 61 a 1.5,1.5 0 0 1 0,3 H 31.89 a 10.28,10.28 0 0 0 0,-3 z m 16.3,30.12 v 0 a 1.49,1.49 0 0 1 0.43,1.06 1.46,1.46 0 0 1 -0.44,1.06 1.54,1.54 0 0 1 -2.12,0 L 25.4,46.08 a 11.15,11.15 0 0 0 2.62,-1.62 z M 46.06,5.26 a 1.54,1.54 0 0 1 2.13,0 1.52,1.52 0 0 1 0,2.12 L 28.02,27.54 A 11.15,11.15 0 0 0 25.4,25.92 Z M 7,4.68 A 2.68,2.68 0 0 1 9.68,2 h 7.64 A 2.68,2.68 0 0 1 20,4.68 v 7.64 A 2.68,2.68 0 0 1 17.32,15 H 9.68 A 2.68,2.68 0 0 1 7,12.32 Z m 0,15 A 2.68,2.68 0 0 1 9.68,17 h 7.64 A 2.68,2.68 0 0 1 20,19.68 v 10 a 1,1 0 0 0 2,0 v -2.62 a 9,9 0 0 1 0,17.88 v -2.3 a 1,1 0 0 0 -2,0 V 80 H 7 Z M 2,84.53 A 2.53,2.53 0 0 1 4.53,82 H 22.47 A 2.53,2.53 0 0 1 25,84.53 v 6.35 H 2 Z"
     id="path2"
     style="fill:#666666" />
  <path
     d="m 21,38.82 a 1,1 0 0 0 1,-1 V 35 a 1,1 0 1 0 -2,0 v 2.84 a 1,1 0 0 0 1,0.98 z"
     id="path4"
     style="fill:#666666" />
  <path
     d="M 72.18,0.24805724 A 4.69,4.69 0 0 0 67.5,4.9280572 v 7.6399998 a 4.65,4.65 0 0 0 1.82,3.68 4.66,4.66 0 0 0 -1.82,3.68 v 60.32 h -0.47 a 4.53,4.53 0 0 0 -4.53,4.53 v 7.35 a 1,1 0 0 0 1,1 h 25 a 1,1 0 0 0 1,-1 v -7.35 a 4.53,4.53 0 0 0 -4.53,-4.53 H 84.5 v -60.32 a 4.66,4.66 0 0 0 -1.82,-3.68 4.65,4.65 0 0 0 1.82,-3.68 V 4.9280572 A 4.69,4.69 0 0 0 79.82,0.24805724 Z M 69.5,19.928057 a 2.68,2.68 0 0 1 2.68,-2.68 h 7.64 a 2.68,2.68 0 0 1 2.68,2.68 v 60.32 h -13 z m 14,62.32 h 1.47 a 2.53,2.53 0 0 1 2.53,2.53 v 6.35 h -23 v -6.35 a 2.53,2.53 0 0 1 2.53,-2.53 z m -1,-77.3199998 v 7.6399998 a 2.68,2.68 0 0 1 -2.68,2.68 h -7.64 a 2.68,2.68 0 0 1 -2.68,-2.68 V 4.9280572 a 2.68,2.68 0 0 1 2.68,-2.68 h 7.64 a 2.68,2.68 0 0 1 2.68,2.68 z"
     id="path6"
     style="fill:#666666" />
  <path
     d="m 76,23.83 a 3.9,3.9 0 0 0 -3.89,3.9 v 15.93 a 3.89,3.89 0 0 0 7.78,0 v 0 a 1,1 0 0 0 -1,-1 v 0 a 1,1 0 0 0 -1,1 1.89,1.89 0 0 1 -3.78,0 V 27.73 a 1.89,1.89 0 1 1 3.78,0 v 3.56 a 1,1 0 0 0 1,1 v 0 a 1,1 0 0 0 1,-1 V 27.73 A 3.9,3.9 0 0 0 76,23.83 Z"
     id="path8"
     style="fill:#666666" />
  <path
     d="m 78.89,35.23 v 0 a 1,1 0 0 0 -1,1 v 2.27 a 1,1 0 0 0 1,1 v 0 a 1,1 0 0 0 1,-1 v -2.27 a 1,1 0 0 0 -1,-1 z"
     id="path10"
     style="fill:#666666" />
  <path
     d="m 13.5,23.83 a 3.9,3.9 0 0 0 -3.89,3.9 v 15.93 a 3.89,3.89 0 0 0 7.78,0 V 27.73 a 3.9,3.9 0 0 0 -3.89,-3.9 z m 1.89,19.83 a 1.89,1.89 0 0 1 -3.78,0 V 27.73 a 1.89,1.89 0 1 1 3.78,0 z"
     id="path12"
     style="fill:#666666" />
</svg>
