<?xml version="1.0" encoding="UTF-8" standalone="no"?>
<svg
   version="1.1"
   x="0px"
   y="0px"
   viewBox="0 0 3400.6412 3021.3981"
   xml:space="preserve"
   id="svg3279"
   sodipodi:docname="noun-turnstiles-5197289.svg"
   width="3400.6411"
   height="3021.3979"
   xmlns:inkscape="http://www.inkscape.org/namespaces/inkscape"
   xmlns:sodipodi="http://sodipodi.sourceforge.net/DTD/sodipodi-0.dtd"
   xmlns="http://www.w3.org/2000/svg"
   xmlns:svg="http://www.w3.org/2000/svg"><defs
     id="defs3283" /><sodipodi:namedview
     id="namedview3281"
     pagecolor="#ffffff"
     bordercolor="#000000"
     borderopacity="0.25"
     inkscape:showpageshadow="2"
     inkscape:pageopacity="0.0"
     inkscape:pagecheckerboard="0"
     inkscape:deskcolor="#d1d1d1"
     showgrid="false" /><g
     id="g3273"
     transform="translate(-238.219,-431.632)"
     style="fill:#0000e2"><g
       id="g3271"
       style="fill:#0000e2"><g
         id="g3269"
         style="fill:#0000e2"><g
           id="g3235"
           style="fill:#0000e2"><path
             d="m 1381.303,2897.88 c -32.237,0 -58.378,-26.141 -58.378,-58.378 V 1384.395 c 0,-14.527 5.409,-28.56 15.212,-39.295 l 634.206,-696.566 c 16.309,-17.902 19.714,-41.408 9.336,-64.447 -10.215,-22.709 -30.342,-35.698 -55.25,-35.698 H 660.407 c -33.417,0 -60.574,27.186 -60.574,60.577 v 2230.51 c 0,32.237 -26.143,58.378 -58.38,58.378 -32.237,0 -58.378,-26.141 -58.378,-58.378 V 608.965 c 0,-97.783 79.55,-177.333 177.332,-177.333 l 1266.021,0.027 c 70.709,0 132.684,40.063 161.71,104.54 29.464,65.436 18.177,138.615 -29.465,190.953 l -618.991,679.87 v 1432.507 c 10e-4,32.21 -26.142,58.351 -58.379,58.351 z"
             fill-rule="evenodd"
             clip-rule="evenodd"
             id="path3233"
             style="fill:#0000e2" /></g><g
           id="g3239"
           style="fill:#0000e2"><path
             d="M 1626.159,3453.03 H 296.599 c -32.239,0 -58.38,-26.144 -58.38,-58.381 v -277.587 c 0,-185.243 150.698,-335.941 335.941,-335.941 h 774.412 c 185.24,0 335.939,150.698 335.939,335.941 v 277.587 c 0.026,32.237 -26.115,58.381 -58.352,58.381 z M 354.977,3336.298 h 1212.804 v -219.209 c 0,-120.849 -98.334,-219.209 -219.209,-219.209 H 574.186 c -120.878,0 -219.209,98.333 -219.209,219.209 z"
             fill-rule="evenodd"
             clip-rule="evenodd"
             id="path3237"
             style="fill:#0000e2" /></g><g
           id="g3243"
           style="fill:#0000e2"><path
             d="m 1698.406,1426.599 c -97.509,0 -190.87,-36.138 -262.872,-101.766 -23.834,-21.72 -25.563,-58.625 -3.842,-82.461 21.72,-23.861 58.653,-25.536 82.459,-3.842 50.472,45.967 115.906,71.311 184.255,71.311 150.917,0 273.715,-122.799 273.715,-273.715 0,-76.832 -32.62,-150.616 -89.464,-202.405 -23.834,-21.72 -25.563,-58.625 -3.842,-82.461 21.72,-23.834 58.652,-25.536 82.459,-3.842 81.089,73.864 127.578,179.118 127.578,288.736 0.028,215.28 -175.137,390.445 -390.446,390.445 z"
             fill-rule="evenodd"
             clip-rule="evenodd"
             id="path3241"
             style="fill:#0000e2" /></g><g
           id="g3247"
           style="fill:#0000e2"><path
             d="m 1867.281,2744.298 c -119.641,0 -216.984,-97.343 -216.984,-216.985 V 1368.056 c 0,-32.239 26.14,-58.38 58.378,-58.38 32.237,0 58.38,26.141 58.38,58.38 v 1159.258 c 0,55.277 44.979,100.255 100.253,100.255 55.277,0 100.255,-44.979 100.255,-100.255 v -1435.83 c 0,-32.239 26.143,-58.38 58.38,-58.38 32.237,0 58.378,26.141 58.378,58.38 v 1435.83 c -0.055,119.668 -97.398,216.984 -217.04,216.984 z"
             fill-rule="evenodd"
             clip-rule="evenodd"
             id="path3245"
             style="fill:#0000e2" /></g><g
           id="g3251"
           style="fill:#0000e2"><path
             d="M 3421.875,1270.218 H 2025.887 c -32.237,0 -58.378,-26.143 -58.378,-58.38 0,-32.237 26.141,-58.378 58.378,-58.378 h 1395.988 c 55.274,0 100.253,-44.979 100.253,-100.255 0,-55.276 -44.979,-100.255 -100.253,-100.255 l -1422.952,0.029 c -32.237,0 -58.38,-26.143 -58.38,-58.38 0,-32.237 26.143,-58.378 58.38,-58.378 h 1422.952 c 119.64,0 216.985,97.343 216.985,216.985 0.027,119.666 -97.317,217.012 -216.985,217.012 z"
             fill-rule="evenodd"
             clip-rule="evenodd"
             id="path3249"
             style="fill:#0000e2" /></g><g
           id="g3255"
           style="fill:#0000e2"><path
             d="m 2937.434,2412.506 c -55.578,0 -111.129,-21.146 -153.445,-63.459 l -799.373,-799.374 c -22.792,-22.792 -22.792,-59.753 0,-82.544 22.792,-22.792 59.753,-22.792 82.544,0 l 799.374,799.376 c 39.074,39.074 102.671,39.101 141.746,0 39.103,-39.077 39.103,-102.672 0,-141.748 l -871.62,-871.62 c -22.792,-22.789 -22.792,-59.75 0,-82.542 22.792,-22.792 59.753,-22.792 82.544,0 l 871.62,871.62 c 84.602,84.631 84.602,222.284 0,306.888 -42.261,42.257 -97.839,63.403 -153.39,63.403 z"
             fill-rule="evenodd"
             clip-rule="evenodd"
             id="path3253"
             style="fill:#0000e2" /></g><g
           id="g3259"
           style="fill:#0000e2"><path
             d="M 1311.31,1141.954 H 773.487 c -32.237,0 -58.378,-26.141 -58.378,-58.38 V 736.597 c 0,-32.238 26.141,-58.378 58.378,-58.378 h 537.824 c 32.237,0 58.378,26.14 58.378,58.378 v 346.978 c -10e-4,32.238 -26.142,58.379 -58.379,58.379 z M 831.865,1025.196 H 1252.93 V 794.975 H 831.865 Z"
             fill-rule="evenodd"
             clip-rule="evenodd"
             id="path3257"
             style="fill:#0000e2" /></g><g
           id="g3263"
           style="fill:#0000e2"><path
             d="M 1110.086,1936.99 H 812.672 c -32.237,0 -58.38,-26.143 -58.38,-58.38 v -297.414 c 0,-32.237 26.143,-58.378 58.38,-58.378 h 297.414 c 32.237,0 58.378,26.141 58.378,58.378 v 297.414 c 0,32.237 -26.141,58.38 -58.378,58.38 z M 871.05,1820.231 h 180.657 V 1639.574 H 871.05 Z"
             fill-rule="evenodd"
             clip-rule="evenodd"
             id="path3261"
             style="fill:#0000e2" /></g><g
           id="g3267"
           style="fill:#0000e2"><path
             d="M 1110.086,2531.79 H 812.672 c -32.237,0 -58.38,-26.141 -58.38,-58.381 v -297.413 c 0,-32.237 26.143,-58.378 58.38,-58.378 h 297.414 c 32.237,0 58.378,26.141 58.378,58.378 v 297.413 c 0,32.24 -26.141,58.381 -58.378,58.381 z M 871.05,2415.031 h 180.657 V 2234.376 H 871.05 Z"
             fill-rule="evenodd"
             clip-rule="evenodd"
             id="path3265"
             style="fill:#0000e2" /></g></g></g></g></svg>
