<?xml version="1.0" encoding="UTF-8" standalone="no"?>
<svg
   version="1.1"
   x="0px"
   y="0px"
   viewBox="0 0 70.585213 80.668999"
   xml:space="preserve"
   id="svg393"
   sodipodi:docname="two-glass2.svg"
   width="70.585213"
   height="80.668999"
   inkscape:version="1.2.2 (b0a8486541, 2022-12-01)"
   xmlns:inkscape="http://www.inkscape.org/namespaces/inkscape"
   xmlns:sodipodi="http://sodipodi.sourceforge.net/DTD/sodipodi-0.dtd"
   xmlns="http://www.w3.org/2000/svg"
   xmlns:svg="http://www.w3.org/2000/svg"><defs
     id="defs397" /><sodipodi:namedview
     id="namedview395"
     pagecolor="#ffffff"
     bordercolor="#000000"
     borderopacity="0.25"
     inkscape:showpageshadow="2"
     inkscape:pageopacity="0.0"
     inkscape:pagecheckerboard="0"
     inkscape:deskcolor="#d1d1d1"
     showgrid="false"
     inkscape:zoom="7.144"
     inkscape:cx="35.344345"
     inkscape:cy="52.981523"
     inkscape:window-width="1920"
     inkscape:window-height="1044"
     inkscape:window-x="3840"
     inkscape:window-y="0"
     inkscape:window-maximized="1"
     inkscape:current-layer="svg393" /><path
     d="m 70.141631,20.713 c -0.318,-0.348 -0.768,-0.546 -1.239,-0.546 h -3.361 V 1.681 c 0,-0.928 -0.752,-1.681 -1.681,-1.681 H 6.7216308 c -0.928,0 -1.68,0.752 -1.68,1.681 v 18.486 h -3.361 c -0.471,0 -0.92200001,0.197 -1.23900001,0.546 -0.318,0.348 -0.477,0.813 -0.435,1.283 L 5.0486308,79.135 c 0.003,0.034 0.013,0.065 0.018,0.099 0.008,0.052 0.016,0.103 0.029,0.153 0.013,0.056 0.031,0.109 0.05,0.163 0.017,0.047 0.034,0.094 0.055,0.139 0.024,0.052 0.053,0.102 0.082,0.151 0.024,0.041 0.048,0.082 0.075,0.121 0.034,0.047 0.073,0.091 0.111,0.134 0.031,0.035 0.061,0.071 0.094,0.103 0.042,0.041 0.09,0.076 0.136,0.112 0.036,0.029 0.071,0.058 0.11,0.084 0.051,0.033 0.106,0.059 0.16,0.087 0.04,0.02 0.078,0.044 0.12,0.061 0.063,0.026 0.129,0.042 0.195,0.061 0.038,0.01 0.074,0.025 0.112,0.033 0.107,0.021 0.216,0.033 0.328,0.033 h 6.7230002 43.694 6.722 c 0.113,0 0.223,-0.012 0.329,-0.033 0.039,-0.008 0.075,-0.022 0.113,-0.033 0.066,-0.018 0.132,-0.035 0.193,-0.06 0.043,-0.018 0.083,-0.042 0.123,-0.063 0.053,-0.027 0.107,-0.052 0.156,-0.085 0.04,-0.026 0.076,-0.057 0.114,-0.087 0.045,-0.035 0.09,-0.069 0.132,-0.108 0.035,-0.034 0.066,-0.071 0.098,-0.108 0.036,-0.042 0.073,-0.084 0.106,-0.129 0.029,-0.041 0.054,-0.084 0.08,-0.128 0.028,-0.047 0.055,-0.095 0.078,-0.144 0.022,-0.047 0.039,-0.096 0.057,-0.145 0.018,-0.052 0.035,-0.104 0.049,-0.158 0.012,-0.051 0.021,-0.103 0.029,-0.156 0.005,-0.033 0.015,-0.064 0.018,-0.098 l 5.042,-57.139 c 0.038,-0.469 -0.119,-0.934 -0.438,-1.282 z m -4.6,20.109 -1.681,19.042 -1.539,17.442 h -0.141 -3.361 -1.681 -1.68 -40.334 -1.68 -1.681 -3.3610002 -0.142 l -1.539,-17.439 -0.092,-1.047 h 0.092 1.681 1.6040002 l 1.203,13.596 c 0.034,0.448 0.243,0.837 0.554,1.111 0.295,0.26 0.683,0.418 1.109,0.418 h 0.572 1.68 40.334 1.68 0.572 c 0.425,0 0.813,-0.158 1.109,-0.418 0.311,-0.275 0.52,-0.663 0.554,-1.111 l 0.806,-9.16 c 0.079,-0.85 -0.523,-1.618 -1.36,-1.781 -0.053,-0.01 -0.104,-0.026 -0.16,-0.031 -0.003,-0.001 -0.006,-0.002 -0.01,-0.002 -0.619,-0.057 -1.18,0.239 -1.511,0.716 -0.163,0.234 -0.275,0.509 -0.304,0.813 l -0.671,7.614 h -0.706 -40.333 -0.706 l -0.974,-11.029 -0.152,-1.724 c 0.096,-0.211 0.152,-0.444 0.152,-0.691 V 55.46 l 1.68,1.261 2.353,1.764 c 0.303,0.227 0.656,0.337 1.007,0.337 0.512,0 1.016,-0.233 1.346,-0.672 0.557,-0.743 0.407,-1.796 -0.336,-2.353 l -4.37,-3.277 -1.68,-1.261 v -2.521 c 0,-0.721 -0.456,-1.331 -1.094,-1.569 l -0.586,-6.641 -0.908,-10.276 h 0.908 1.681 1.68 40.334 1.68 1.681 0.908 l -0.908,10.227 -0.807,9.099 c -0.033,0.437 0.102,0.874 0.387,1.227 0.12,0.14 0.264,0.255 0.42,0.349 0.216,0.132 0.459,0.219 0.722,0.238 0.002,0 0.004,-0.001 0.006,0 0.922,0.081 1.742,-0.607 1.826,-1.513 l 0.807,-9.156 1.058,-12.002 c 0.033,-0.47 -0.118,-0.924 -0.436,-1.294 -0.174,-0.183 -0.388,-0.321 -0.622,-0.413 -0.197,-0.077 -0.407,-0.124 -0.622,-0.124 h -2.739 -1.681 -1.68 -40.335 -1.68 -1.681 -2.7400002 c -0.215,0 -0.424,0.047 -0.621,0.124 -0.234,0.092 -0.449,0.231 -0.622,0.413 -0.319,0.353 -0.471,0.824 -0.437,1.294 l 1.059,11.974 0.563,6.361 h -0.563 -1.681 -1.13 l -0.55,-6.238 -1.526,-17.29 h 1.526 1.68 1.681 3.3610002 1.681 1.68 40.334 1.68 1.681 3.361 1.68 1.681 1.526 z m -55.458,9.595 v 5.042 h -0.3750002 -1.306 -1.681 -0.363 l -0.445,-5.042 h 0.807 1.681 0.86 z M 8.4026308,3.362 H 62.180631 v 16.806 h -3.361 V 8.403 c 0,-0.928 -0.752,-1.681 -1.681,-1.681 h -43.694 c -0.928,0 -1.681,0.753 -1.681,1.681 V 20.167 H 8.4026308 Z M 55.458631,20.167 h -40.334 V 10.084 h 40.334 z m 5.327,36.4 c -0.084,0.874 -0.807,1.53 -1.68,1.53 -0.051,0 -0.101,0 -0.15,0 -10e-4,0 -10e-4,0 -0.002,0 -0.046,-0.004 -0.089,-0.018 -0.134,-0.026 -0.854,-0.148 -1.475,-0.928 -1.395,-1.806 0.07,-0.777 0.654,-1.369 1.395,-1.491 0.14,-0.023 0.283,-0.035 0.431,-0.022 0.002,0 0.003,0 0.005,0 0.924,0.068 1.597,0.892 1.53,1.815 z m -5.697,-20.636 c 0.285,0.353 0.402,0.789 0.353,1.243 -0.051,0.437 -0.27,0.84 -0.622,1.126 l -23.528,18.486 c -0.302,0.235 -0.655,0.353 -1.042,0.353 -0.521,0 -1.008,-0.235 -1.328,-0.639 -0.572,-0.739 -0.437,-1.798 0.285,-2.369 l 23.528,-18.486 c 0.707,-0.554 1.8,-0.42 2.354,0.286 z m -10.05,16.839 c 0.554,0.74 0.404,1.798 -0.337,2.353 l -13.444,10.083 c -0.285,0.218 -0.638,0.337 -1.008,0.337 -0.538,0 -1.026,-0.253 -1.345,-0.673 -0.555,-0.739 -0.403,-1.797 0.337,-2.352 l 13.444,-10.084 c 0.723,-0.538 1.815,-0.387 2.353,0.336 z"
     id="path387"
     style="fill:#6a6a6a" /></svg>
