<?xml version="1.0" encoding="UTF-8" standalone="no"?>
<svg
   viewBox="0 0 68.134369 75.664902"
   x="0px"
   y="0px"
   version="1.1"
   id="svg1639"
   sodipodi:docname="two-glass.svg"
   width="68.134369"
   height="75.664902"
   inkscape:version="1.2.2 (b0a8486541, 2022-12-01)"
   xmlns:inkscape="http://www.inkscape.org/namespaces/inkscape"
   xmlns:sodipodi="http://sodipodi.sourceforge.net/DTD/sodipodi-0.dtd"
   xmlns="http://www.w3.org/2000/svg"
   xmlns:svg="http://www.w3.org/2000/svg">
  <defs
     id="defs1643" />
  <sodipodi:namedview
     id="namedview1641"
     pagecolor="#ffffff"
     bordercolor="#000000"
     borderopacity="0.25"
     inkscape:showpageshadow="2"
     inkscape:pageopacity="0.0"
     inkscape:pagecheckerboard="0"
     inkscape:deskcolor="#d1d1d1"
     showgrid="false"
     inkscape:zoom="6.936"
     inkscape:cx="37.125144"
     inkscape:cy="50.533449"
     inkscape:window-width="1920"
     inkscape:window-height="1044"
     inkscape:window-x="3840"
     inkscape:window-y="0"
     inkscape:window-maximized="1"
     inkscape:current-layer="svg1639" />
  <path
     d="m 16.350015,68.822254 a 1.23,1.23 0 0 0 1.05,0.2 l 38.59,-10.76 a 1.21,1.21 0 0 0 0.87,-1.16 v -38.55 a 1.2,1.2 0 0 0 -0.87,-1.16 l -38.59,-10.7599996 a 1.2,1.2 0 0 0 -1.52,1.19 V 67.822254 a 1.2,1.2 0 0 0 0.47,1 z m 1.93,-59.4599996 36.18,10.0999996 v 36.73 l -36.18,10.09 z"
     id="path1627"
     style="fill:#6a6a6a" />
  <path
     d="m 1.0800151,74.542254 10.8699999,1.1 a 1.08,1.08 0 0 0 0.44,0 l 48.6,-13.59 a 1.2,1.2 0 0 0 0.87,-1.15 v -21.84 a 1.85,1.85 0 0 1 1.4,1.27 l 2.49,7.86 a 1.2193543,1.2193543 0 0 0 2.33,-0.72 l -2.49,-7.87 a 4.24,4.24 0 0 0 -3.69,-3 v -21.85 a 1.21,1.21 0 0 0 -0.87,-1.16 l -48.6,-13.5399996 a 1.41,1.41 0 0 0 -0.46,-0.05 l -10.8899999,1.1 a 1.2,1.2 0 0 0 -1.080000032023,1.2 V 73.352254 a 1.2,1.2 0 0 0 1.080000032023,1.19 z m 9.7999999,-1.42 -2.9999999,-0.31 V 2.8222544 l 2.9999999,-0.3 z m 48.58,-36.5 h -0.57 a 1.2,1.2 0 0 0 0,2.4 h 0.57 v 21 l -46.18,12.85 V 2.8222544 l 46.18,12.8399996 z M 2.4600151,3.3822544 l 3,-0.31 V 72.572254 l -3,-0.31 z"
     id="path1629"
     style="fill:#6a6a6a" />
  <path
     d="m 22.080015,20.482254 a 1.2,1.2 0 0 0 0.85,-0.35 l 3.58,-3.58 a 1.2020815,1.2020815 0 0 0 -1.7,-1.7 l -3.58,3.58 a 1.21,1.21 0 0 0 0.85,2.05 z"
     id="path1631"
     style="fill:#6a6a6a" />
  <path
     d="m 30.390015,15.392254 -9.14,9.13 a 1.2,1.2 0 0 0 0,1.7 1.22,1.22 0 0 0 1.7,0 l 9.13,-9.14 a 1.2,1.2 0 0 0 -1.69,-1.69 z"
     id="path1633"
     style="fill:#6a6a6a" />
</svg>
