<?xml version="1.0" encoding="UTF-8" standalone="no"?>
<svg
   data-name="Layer 1"
   viewBox="0 0 81.162613 90"
   x="0px"
   y="0px"
   version="1.1"
   id="svg12"
   sodipodi:docname="up-prices.svg"
   width="81.162613"
   height="90"
   inkscape:version="1.1.2 (0a00cf5339, 2022-02-04)"
   xmlns:inkscape="http://www.inkscape.org/namespaces/inkscape"
   xmlns:sodipodi="http://sodipodi.sourceforge.net/DTD/sodipodi-0.dtd"
   xmlns="http://www.w3.org/2000/svg"
   xmlns:svg="http://www.w3.org/2000/svg">
  <sodipodi:namedview
     id="namedview14"
     pagecolor="#ffffff"
     bordercolor="#666666"
     borderopacity="1.0"
     inkscape:pageshadow="2"
     inkscape:pageopacity="0.0"
     inkscape:pagecheckerboard="0"
     showgrid="false"
     fit-margin-top="0"
     fit-margin-left="0"
     fit-margin-right="0"
     fit-margin-bottom="0"
     inkscape:zoom="6.088"
     inkscape:cx="40.571616"
     inkscape:cy="57.572273"
     inkscape:window-width="1850"
     inkscape:window-height="1025"
     inkscape:window-x="1990"
     inkscape:window-y="27"
     inkscape:window-maximized="1"
     inkscape:current-layer="svg12" />
  <defs
     id="defs4">
    <style
       id="style2">
      .cls-1 {
        stroke-width: 0px;
      }
    </style>
  </defs>
  <path
     class="cls-1"
     d="M 40.58122,5.734711 73.92561,40.45401 H 57.73869 V 85 H 23.423749 V 40.45404 H 7.2370417 L 40.58122,5.734711 M 40.58125,0 C 39.704327,0 38.827374,0.3425598 38.169354,1.0276794 L 0.93891574,39.793579 c -2.04129024,2.125366 -0.5350036,5.660462 2.41174296,5.660462 H 18.423749 V 85.981628 C 18.423749,88.200897 20.222974,90 22.442181,90 H 58.72041 c 2.21933,0 4.01828,-1.799103 4.01828,-4.018372 V 45.45401 h 15.07309 c 2.946899,0 4.453186,-3.535065 2.411987,-5.660431 L 42.993085,1.0276794 C 42.335126,0.3425598 41.458203,0 40.58125,0 Z"
     id="path6"
     style="fill:#454545" />
  <path
     d="m 44.066086,42.896089 c 2.096539,0 4.085562,0.564053 5.752042,1.69216 l 0.537574,0.376035 0.967633,-2.162204 -0.322544,-0.188018 c -2.042782,-1.26912 -4.461865,-1.927182 -6.934705,-1.927182 -5.752042,0 -10.75148,3.572337 -11.880385,8.507804 h -1.989024 -0.05376 -0.322544 c -0.591331,0 -1.075148,0.42304 -1.075148,0.940088 0,0.517049 0.483817,0.940089 1.075148,0.940089 h 0.322544 0.05376 1.720237 c 0,0.09401 0,0.141014 0,0.235022 0,0.141014 0,0.235023 0,0.376036 h -1.720237 -0.05376 -0.322544 c -0.591331,0 -1.075148,0.42304 -1.075148,0.940089 0,0.517049 0.483817,0.940089 1.075148,0.940089 h 0.322544 0.05376 1.989024 c 1.182662,4.841457 6.182101,8.36679 11.826628,8.36679 2.204053,0 4.354349,-0.517049 6.182101,-1.504142 v -2.773262 c -1.720237,1.26912 -3.924291,2.021191 -6.182101,2.021191 -4.300592,0 -8.009853,-2.491235 -9.192516,-6.063573 H 46.431412 L 47.29153,51.732923 H 34.551026 c 0,-0.141013 0,-0.235022 0,-0.376035 0,-0.09401 0,-0.141013 0,-0.235022 h 13.063048 l 0.860119,-1.880178 H 34.873571 c 1.075148,-3.713351 4.891923,-6.345599 9.192515,-6.345599 z"
     id="path10"
     style="stroke-width:0.502676;fill:#454545" />
</svg>
