<?xml version="1.0" encoding="UTF-8" standalone="no"?>
<svg
   version="1.1"
   x="0px"
   y="0px"
   viewBox="0 0 64 61"
   enable-background="new 0 0 64 64"
   xml:space="preserve"
   id="svg8502"
   sodipodi:docname="noun-catalog-1689606.svg"
   width="64"
   height="61"
   xmlns:inkscape="http://www.inkscape.org/namespaces/inkscape"
   xmlns:sodipodi="http://sodipodi.sourceforge.net/DTD/sodipodi-0.dtd"
   xmlns="http://www.w3.org/2000/svg"
   xmlns:svg="http://www.w3.org/2000/svg"><defs
     id="defs8506" /><sodipodi:namedview
     id="namedview8504"
     pagecolor="#ffffff"
     bordercolor="#000000"
     borderopacity="0.25"
     inkscape:showpageshadow="2"
     inkscape:pageopacity="0.0"
     inkscape:pagecheckerboard="0"
     inkscape:deskcolor="#d1d1d1"
     showgrid="false" /><g
     id="g8496"
     transform="translate(0,-1.5)"
     style="fill:#6a6a6a"><g
       id="g8494"
       style="fill:#6a6a6a"><g
         id="g8306"
         style="fill:#6a6a6a"><path
           d="m 63,53.5 c -0.553,0 -1,-0.447 -1,-1 v -47 c 0,-0.553 0.447,-1 1,-1 0.553,0 1,0.447 1,1 v 47 c 0,0.553 -0.447,1 -1,1 z"
           id="path8304"
           style="fill:#6a6a6a" /></g><g
         id="g8310"
         style="fill:#6a6a6a"><path
           d="M 60,62.5 H 8 c -0.553,0 -1,-0.447 -1,-1 0,-0.553 0.447,-1 1,-1 h 52 c 0.553,0 1,0.447 1,1 0,0.553 -0.447,1 -1,1 z"
           id="path8308"
           style="fill:#6a6a6a" /></g><g
         id="g8314"
         style="fill:#6a6a6a"><path
           d="m 5,10.5 c -0.553,0 -1,-0.447 -1,-1 v -4 c 0,-0.553 0.447,-1 1,-1 0.553,0 1,0.447 1,1 v 4 c 0,0.553 -0.447,1 -1,1 z"
           id="path8312"
           style="fill:#6a6a6a" /></g><g
         id="g8318"
         style="fill:#6a6a6a"><path
           d="m 5,19.5 c -0.553,0 -1,-0.447 -1,-1 v -6 c 0,-0.553 0.447,-1 1,-1 0.553,0 1,0.447 1,1 v 6 c 0,0.553 -0.447,1 -1,1 z"
           id="path8316"
           style="fill:#6a6a6a" /></g><g
         id="g8322"
         style="fill:#6a6a6a"><path
           d="m 5,28.5 c -0.553,0 -1,-0.447 -1,-1 v -6 c 0,-0.553 0.447,-1 1,-1 0.553,0 1,0.447 1,1 v 6 c 0,0.553 -0.447,1 -1,1 z"
           id="path8320"
           style="fill:#6a6a6a" /></g><g
         id="g8326"
         style="fill:#6a6a6a"><path
           d="m 5,37.5 c -0.553,0 -1,-0.447 -1,-1 v -6 c 0,-0.553 0.447,-1 1,-1 0.553,0 1,0.447 1,1 v 6 c 0,0.553 -0.447,1 -1,1 z"
           id="path8324"
           style="fill:#6a6a6a" /></g><g
         id="g8330"
         style="fill:#6a6a6a"><path
           d="m 5,46.5 c -0.553,0 -1,-0.447 -1,-1 v -6 c 0,-0.553 0.447,-1 1,-1 0.553,0 1,0.447 1,1 v 6 c 0,0.553 -0.447,1 -1,1 z"
           id="path8328"
           style="fill:#6a6a6a" /></g><g
         id="g8334"
         style="fill:#6a6a6a"><path
           d="m 5,59.5 c -0.553,0 -1,-0.447 -1,-1 v -10 c 0,-0.553 0.447,-1 1,-1 0.553,0 1,0.447 1,1 v 10 c 0,0.553 -0.447,1 -1,1 z"
           id="path8332"
           style="fill:#6a6a6a" /></g><g
         id="g8338"
         style="fill:#6a6a6a"><path
           d="m 8,62.5 c -2.206,0 -4,-1.794 -4,-4 0,-2.206 1.794,-4 4,-4 0.553,0 1,0.447 1,1 0,0.553 -0.447,1 -1,1 -1.103,0 -2,0.897 -2,2 0,1.103 0.897,2 2,2 0.553,0 1,0.447 1,1 0,0.553 -0.447,1 -1,1 z"
           id="path8336"
           style="fill:#6a6a6a" /></g><g
         id="g8342"
         style="fill:#6a6a6a"><path
           d="m 7.5,13.5 h -5 C 1.121,13.5 0,12.379 0,11 0,9.621 1.121,8.5 2.5,8.5 h 5 c 1.379,0 2.5,1.121 2.5,2.5 0,1.379 -1.121,2.5 -2.5,2.5 z m -5,-3 C 2.225,10.5 2,10.725 2,11 c 0,0.275 0.225,0.5 0.5,0.5 h 5 C 7.775,11.5 8,11.275 8,11 8,10.725 7.775,10.5 7.5,10.5 Z"
           id="path8340"
           style="fill:#6a6a6a" /></g><g
         id="g8346"
         style="fill:#6a6a6a"><path
           d="m 7.5,22.5 h -5 C 1.121,22.5 0,21.379 0,20 0,18.621 1.121,17.5 2.5,17.5 h 5 c 1.379,0 2.5,1.121 2.5,2.5 0,1.379 -1.121,2.5 -2.5,2.5 z m -5,-3 C 2.225,19.5 2,19.725 2,20 c 0,0.275 0.225,0.5 0.5,0.5 h 5 C 7.775,20.5 8,20.275 8,20 8,19.725 7.775,19.5 7.5,19.5 Z"
           id="path8344"
           style="fill:#6a6a6a" /></g><g
         id="g8350"
         style="fill:#6a6a6a"><path
           d="m 7.5,31.5 h -5 C 1.121,31.5 0,30.379 0,29 0,27.621 1.121,26.5 2.5,26.5 h 5 c 1.379,0 2.5,1.121 2.5,2.5 0,1.379 -1.121,2.5 -2.5,2.5 z m -5,-3 C 2.225,28.5 2,28.725 2,29 c 0,0.275 0.225,0.5 0.5,0.5 h 5 C 7.775,29.5 8,29.275 8,29 8,28.725 7.775,28.5 7.5,28.5 Z"
           id="path8348"
           style="fill:#6a6a6a" /></g><g
         id="g8354"
         style="fill:#6a6a6a"><path
           d="m 7.5,40.5 h -5 C 1.121,40.5 0,39.379 0,38 0,36.621 1.121,35.5 2.5,35.5 h 5 c 1.379,0 2.5,1.121 2.5,2.5 0,1.379 -1.121,2.5 -2.5,2.5 z m -5,-3 C 2.225,37.5 2,37.725 2,38 c 0,0.275 0.225,0.5 0.5,0.5 h 5 C 7.775,38.5 8,38.275 8,38 8,37.725 7.775,37.5 7.5,37.5 Z"
           id="path8352"
           style="fill:#6a6a6a" /></g><g
         id="g8358"
         style="fill:#6a6a6a"><path
           d="m 7.5,49.5 h -5 C 1.121,49.5 0,48.379 0,47 0,45.621 1.121,44.5 2.5,44.5 h 5 c 1.379,0 2.5,1.121 2.5,2.5 0,1.379 -1.121,2.5 -2.5,2.5 z m -5,-3 C 2.225,46.5 2,46.725 2,47 c 0,0.275 0.225,0.5 0.5,0.5 h 5 C 7.775,47.5 8,47.275 8,47 8,46.725 7.775,46.5 7.5,46.5 Z"
           id="path8356"
           style="fill:#6a6a6a" /></g><g
         id="g8362"
         style="fill:#6a6a6a"><path
           d="m 5,6.5 c -0.553,0 -1,-0.447 -1,-1 0,-2.206 1.794,-4 4,-4 0.553,0 1,0.447 1,1 0,0.553 -0.447,1 -1,1 -1.103,0 -2,0.897 -2,2 0,0.553 -0.447,1 -1,1 z"
           id="path8360"
           style="fill:#6a6a6a" /></g><g
         id="g8366"
         style="fill:#6a6a6a"><path
           d="m 60,56.5 c -0.553,0 -1,-0.447 -1,-1 0,-0.553 0.447,-1 1,-1 1.103,0 2,-0.897 2,-2 0,-0.553 0.447,-1 1,-1 0.553,0 1,0.447 1,1 0,2.206 -1.794,4 -4,4 z"
           id="path8364"
           style="fill:#6a6a6a" /></g><g
         id="g8370"
         style="fill:#6a6a6a"><path
           d="m 63,6.5 c -0.553,0 -1,-0.447 -1,-1 0,-1.103 -0.897,-2 -2,-2 -0.553,0 -1,-0.447 -1,-1 0,-0.553 0.447,-1 1,-1 2.206,0 4,1.794 4,4 0,0.553 -0.447,1 -1,1 z"
           id="path8368"
           style="fill:#6a6a6a" /></g><g
         id="g8374"
         style="fill:#6a6a6a"><path
           d="m 60,62.5 c -0.553,0 -1,-0.447 -1,-1 0,-0.553 0.447,-1 1,-1 1.103,0 2,-0.897 2,-2 0,-0.553 0.447,-1 1,-1 0.553,0 1,0.447 1,1 0,2.206 -1.794,4 -4,4 z"
           id="path8372"
           style="fill:#6a6a6a" /></g><g
         id="g8378"
         style="fill:#6a6a6a"><path
           d="M 60,56.5 H 8 c -0.553,0 -1,-0.447 -1,-1 0,-0.553 0.447,-1 1,-1 h 52 c 0.553,0 1,0.447 1,1 0,0.553 -0.447,1 -1,1 z"
           id="path8376"
           style="fill:#6a6a6a" /></g><g
         id="g8382"
         style="fill:#6a6a6a"><path
           d="m 63,59.5 c -0.553,0 -1,-0.447 -1,-1 v -6 c 0,-0.553 0.447,-1 1,-1 0.553,0 1,0.447 1,1 v 6 c 0,0.553 -0.447,1 -1,1 z"
           id="path8380"
           style="fill:#6a6a6a" /></g><g
         id="g8386"
         style="fill:#6a6a6a"><path
           d="M 60,3.5 H 8 c -0.553,0 -1,-0.447 -1,-1 0,-0.553 0.447,-1 1,-1 h 52 c 0.553,0 1,0.447 1,1 0,0.553 -0.447,1 -1,1 z"
           id="path8384"
           style="fill:#6a6a6a" /></g><g
         id="g8488"
         style="fill:#6a6a6a"><g
           id="g8390"
           style="fill:#6a6a6a"><path
             d="M 58,51.501 H 14 c -0.553,0 -1,-0.447 -1,-1 v -43 c 0,-0.553 0.447,-1 1,-1 h 44 c 0.553,0 1,0.447 1,1 v 43 c 0,0.553 -0.447,1 -1,1 z m -43,-2 h 42 v -41 H 15 Z"
             id="path8388"
             style="fill:#6a6a6a" /></g><g
           id="g8430"
           style="fill:#6a6a6a"><g
             id="g8424"
             style="fill:#6a6a6a"><g
               id="g8394"
               style="fill:#6a6a6a"><path
                 d="m 26,51.501 c -0.553,0 -1,-0.447 -1,-1 V 36.655 c 0,-0.553 0.447,-1 1,-1 0.553,0 1,0.447 1,1 v 13.846 c 0,0.553 -0.447,1 -1,1 z"
                 id="path8392"
                 style="fill:#6a6a6a" /></g><g
               id="g8398"
               style="fill:#6a6a6a"><path
                 d="m 46,51.501 c -0.553,0 -1,-0.447 -1,-1 V 36.655 c 0,-0.553 0.447,-1 1,-1 0.553,0 1,0.447 1,1 v 13.846 c 0,0.553 -0.447,1 -1,1 z"
                 id="path8396"
                 style="fill:#6a6a6a" /></g><g
               id="g8402"
               style="fill:#6a6a6a"><path
                 d="m 23.001,35.501 c -0.336,0 -0.664,-0.169 -0.853,-0.476 -0.289,-0.471 -0.143,-1.087 0.327,-1.376 l 13,-8 c 0.472,-0.29 1.087,-0.144 1.376,0.327 0.289,0.471 0.143,1.087 -0.327,1.376 l -13,8 c -0.164,0.101 -0.344,0.149 -0.523,0.149 z"
                 id="path8400"
                 style="fill:#6a6a6a" /></g><g
               id="g8406"
               style="fill:#6a6a6a"><path
                 d="m 48.999,35.501 c -0.179,0 -0.359,-0.048 -0.523,-0.148 l -13,-8 c -0.47,-0.289 -0.616,-0.905 -0.327,-1.376 0.288,-0.471 0.902,-0.617 1.376,-0.327 l 13,8 c 0.47,0.289 0.616,0.905 0.327,1.376 -0.189,0.306 -0.517,0.475 -0.853,0.475 z"
                 id="path8404"
                 style="fill:#6a6a6a" /></g><g
               id="g8410"
               style="fill:#6a6a6a"><path
                 d="m 23.001,39.501 c -0.336,0 -0.664,-0.169 -0.853,-0.476 -0.289,-0.471 -0.143,-1.087 0.327,-1.376 l 13,-8 c 0.472,-0.291 1.087,-0.144 1.376,0.327 0.289,0.471 0.143,1.087 -0.327,1.376 l -13,8 c -0.164,0.101 -0.344,0.149 -0.523,0.149 z"
                 id="path8408"
                 style="fill:#6a6a6a" /></g><g
               id="g8414"
               style="fill:#6a6a6a"><path
                 d="m 48.999,39.501 c -0.179,0 -0.359,-0.048 -0.523,-0.148 l -13,-8 c -0.47,-0.289 -0.616,-0.905 -0.327,-1.376 0.288,-0.471 0.902,-0.618 1.376,-0.327 l 13,8 c 0.47,0.289 0.616,0.905 0.327,1.376 -0.189,0.306 -0.517,0.475 -0.853,0.475 z"
                 id="path8412"
                 style="fill:#6a6a6a" /></g><g
               id="g8418"
               style="fill:#6a6a6a"><path
                 d="m 23,39.501 c -0.553,0 -1,-0.447 -1,-1 v -4 c 0,-0.553 0.447,-1 1,-1 0.553,0 1,0.447 1,1 v 4 c 0,0.553 -0.447,1 -1,1 z"
                 id="path8416"
                 style="fill:#6a6a6a" /></g><g
               id="g8422"
               style="fill:#6a6a6a"><path
                 d="m 49,39.501 c -0.553,0 -1,-0.447 -1,-1 v -4 c 0,-0.553 0.447,-1 1,-1 0.553,0 1,0.447 1,1 v 4 c 0,0.553 -0.447,1 -1,1 z"
                 id="path8420"
                 style="fill:#6a6a6a" /></g></g><g
             id="g8428"
             style="fill:#6a6a6a"><path
               d="m 38,51.501 h -4 c -0.553,0 -1,-0.447 -1,-1 v -7 c 0,-0.553 0.447,-1 1,-1 h 4 c 0.553,0 1,0.447 1,1 v 7 c 0,0.553 -0.447,1 -1,1 z m -3,-2 h 2 v -5 h -2 z"
               id="path8426"
               style="fill:#6a6a6a" /></g></g><g
           id="g8448"
           style="fill:#6a6a6a"><g
             id="g8434"
             style="fill:#6a6a6a"><path
               d="M 44.5,21.5 C 43.121,21.5 42,20.379 42,19 c 0,-1.379 1.121,-2.5 2.5,-2.5 0.553,0 1,0.447 1,1 0,0.553 -0.447,1 -1,1 -0.275,0 -0.5,0.225 -0.5,0.5 0,0.275 0.225,0.5 0.5,0.5 0.553,0 1,0.447 1,1 0,0.553 -0.447,1 -1,1 z"
               id="path8432"
               style="fill:#6a6a6a" /></g><g
             id="g8438"
             style="fill:#6a6a6a"><path
               d="m 51,21.5 c -0.553,0 -1,-0.447 -1,-1 0,-0.553 0.447,-1 1,-1 1.103,0 2,-0.897 2,-2 0,-1.103 -0.897,-2 -2,-2 -1.103,0 -2,0.897 -2,2 0,0.553 -0.447,1 -1,1 -0.553,0 -1,-0.447 -1,-1 0,-2.206 1.794,-4 4,-4 2.206,0 4,1.794 4,4 0,2.206 -1.794,4 -4,4 z"
               id="path8436"
               style="fill:#6a6a6a" /></g><g
             id="g8442"
             style="fill:#6a6a6a"><path
               d="m 51,21.5 h -6.5 c -0.553,0 -1,-0.447 -1,-1 0,-0.553 0.447,-1 1,-1 H 51 c 0.553,0 1,0.447 1,1 0,0.553 -0.447,1 -1,1 z"
               id="path8440"
               style="fill:#6a6a6a" /></g><g
             id="g8446"
             style="fill:#6a6a6a"><path
               d="m 48,18.5 h -3.5 c -0.553,0 -1,-0.447 -1,-1 0,-0.553 0.447,-1 1,-1 H 48 c 0.553,0 1,0.447 1,1 0,0.553 -0.447,1 -1,1 z"
               id="path8444"
               style="fill:#6a6a6a" /></g></g><g
           id="g8486"
           style="fill:#6a6a6a"><g
             id="g8452"
             style="fill:#6a6a6a"><path
               d="m 24.002,20.5 c -1.654,0 -3,-1.346 -3,-3 0,-1.654 1.346,-3 3,-3 1.654,0 3,1.346 3,3 0,1.654 -1.346,3 -3,3 z m 0,-4 c -0.552,0 -1,0.448 -1,1 0,0.552 0.448,1 1,1 0.552,0 1,-0.448 1,-1 0,-0.552 -0.448,-1 -1,-1 z"
               id="path8450"
               style="fill:#6a6a6a" /></g><g
             id="g8456"
             style="fill:#6a6a6a"><path
               d="m 24.002,13.5 c -0.553,0 -1,-0.447 -1,-1 v -1 c 0,-0.553 0.447,-1 1,-1 0.553,0 1,0.447 1,1 v 1 c 0,0.553 -0.447,1 -1,1 z"
               id="path8454"
               style="fill:#6a6a6a" /></g><g
             id="g8460"
             style="fill:#6a6a6a"><path
               d="m 24.002,24.5 c -0.553,0 -1,-0.447 -1,-1 v -1 c 0,-0.553 0.447,-1 1,-1 0.553,0 1,0.447 1,1 v 1 c 0,0.553 -0.447,1 -1,1 z"
               id="path8458"
               style="fill:#6a6a6a" /></g><g
             id="g8464"
             style="fill:#6a6a6a"><path
               d="m 20.466,14.964 c -0.256,0 -0.512,-0.098 -0.707,-0.293 l -0.707,-0.707 c -0.391,-0.391 -0.391,-1.023 0,-1.414 0.391,-0.391 1.023,-0.391 1.414,0 l 0.707,0.707 c 0.391,0.391 0.391,1.023 0,1.414 -0.195,0.195 -0.451,0.293 -0.707,0.293 z"
               id="path8462"
               style="fill:#6a6a6a" /></g><g
             id="g8468"
             style="fill:#6a6a6a"><path
               d="m 28.244,22.742 c -0.256,0 -0.512,-0.098 -0.707,-0.293 L 26.83,21.742 c -0.391,-0.391 -0.391,-1.023 0,-1.414 0.391,-0.391 1.023,-0.391 1.414,0 l 0.707,0.707 c 0.391,0.391 0.391,1.023 0,1.414 -0.195,0.196 -0.451,0.293 -0.707,0.293 z"
               id="path8466"
               style="fill:#6a6a6a" /></g><g
             id="g8472"
             style="fill:#6a6a6a"><path
               d="m 19,18.5 h -1 c -0.553,0 -1,-0.447 -1,-1 0,-0.553 0.447,-1 1,-1 h 1 c 0.553,0 1,0.447 1,1 0,0.553 -0.447,1 -1,1 z"
               id="path8470"
               style="fill:#6a6a6a" /></g><g
             id="g8476"
             style="fill:#6a6a6a"><path
               d="m 30,18.5 h -1 c -0.553,0 -1,-0.447 -1,-1 0,-0.553 0.447,-1 1,-1 h 1 c 0.553,0 1,0.447 1,1 0,0.553 -0.447,1 -1,1 z"
               id="path8474"
               style="fill:#6a6a6a" /></g><g
             id="g8480"
             style="fill:#6a6a6a"><path
               d="m 19.758,22.744 c -0.256,0 -0.512,-0.098 -0.707,-0.293 -0.391,-0.391 -0.391,-1.023 0,-1.414 l 0.707,-0.707 c 0.391,-0.391 1.023,-0.391 1.414,0 0.391,0.391 0.391,1.023 0,1.414 l -0.707,0.707 c -0.195,0.195 -0.451,0.293 -0.707,0.293 z"
               id="path8478"
               style="fill:#6a6a6a" /></g><g
             id="g8484"
             style="fill:#6a6a6a"><path
               d="m 27.535,14.965 c -0.256,0 -0.512,-0.098 -0.707,-0.293 -0.391,-0.391 -0.391,-1.023 0,-1.414 l 0.707,-0.707 c 0.391,-0.391 1.023,-0.391 1.414,0 0.391,0.391 0.391,1.023 0,1.414 l -0.707,0.707 c -0.195,0.195 -0.451,0.293 -0.707,0.293 z"
               id="path8482"
               style="fill:#6a6a6a" /></g></g></g><g
         id="g8492"
         style="fill:#6a6a6a"><path
           d="m 58,62.5 c -0.553,0 -1,-0.447 -1,-1 v -6 c 0,-0.553 0.447,-1 1,-1 0.553,0 1,0.447 1,1 v 6 c 0,0.553 -0.447,1 -1,1 z"
           id="path8490"
           style="fill:#6a6a6a" /></g></g></g></svg>
