<?xml version="1.0" encoding="UTF-8" standalone="no"?>
<svg
   version="1.1"
   viewBox="-5 -10 90.625504 86.6175"
   id="svg7800"
   sodipodi:docname="noun-land-6852517.svg"
   width="90.625504"
   height="86.6175"
   xmlns:inkscape="http://www.inkscape.org/namespaces/inkscape"
   xmlns:sodipodi="http://sodipodi.sourceforge.net/DTD/sodipodi-0.dtd"
   xmlns="http://www.w3.org/2000/svg"
   xmlns:svg="http://www.w3.org/2000/svg">
  <defs
     id="defs7804" />
  <sodipodi:namedview
     id="namedview7802"
     pagecolor="#ffffff"
     bordercolor="#000000"
     borderopacity="0.25"
     inkscape:showpageshadow="2"
     inkscape:pageopacity="0.0"
     inkscape:pagecheckerboard="0"
     inkscape:deskcolor="#d1d1d1"
     showgrid="false" />
  <path
     d="m 33.0315,35.754 v 21.25 h -36.469 c -0.875,0 -1.5625,0.69922 -1.5625,1.5625 0,0.86328 0.6875,1.5625 1.5625,1.5625 h 36.469 v 14.926 c 0,0.86328 0.6875,1.5625 1.5625,1.5625 0.875,0 1.5625,-0.69922 1.5625,-1.5625 V 35.754 h 8.3125 v 39.301 c 0,0.86328 0.6875,1.5625 1.5625,1.5625 0.875,0 1.5625,-0.69922 1.5625,-1.5625 V 60.129 h 36.469 c 0.84375,0 1.5625,-0.69922 1.5625,-1.5625 0,-0.86328 -0.71875,-1.5625 -1.5625,-1.5625 H 47.594 v -21.25 h 23.75 c 0.875,0 1.5625,-0.69922 1.5625,-1.5625 V -8.4375 C 72.9065,-9.30078 72.219,-10 71.344,-10 H 9.282 c -0.875,0 -1.5625,0.69922 -1.5625,1.5625 v 42.629 c 0,0.86328 0.6875,1.5625 1.5625,1.5625 z m 36.75,-42.629 V 32.629 H 10.8435 V -6.875 Z m -43.625,17.801 v 14.73 c 0,0.86328 0.6875,1.5625 1.5625,1.5625 h 25.094 c 0.84375,0 1.5625,-0.69922 1.5625,-1.5625 V 10.859 l 0.3125,0.21484 c 0.71875,0.47266 1.6875,0.28125 2.1562,-0.4375 0.5,-0.71875 0.3125,-1.6875 -0.40625,-2.168 l -15.312,-10.172 c -0.53125,-0.35156 -1.2188,-0.34766 -1.75,0 l -15.188,10.176 c -0.71875,0.48047 -0.90625,1.4492 -0.40625,2.168 0.46875,0.71875 1.4375,0.90625 2.1562,0.42969 z m 3.125,-2.0938 v 15.262 h 5.5 v -11.625 c 0,-0.86328 0.6875,-1.5625 1.5625,-1.5625 h 7.8438 c 0.84375,0 1.5625,0.69922 1.5625,1.5625 v 11.625 h 5.5 V 8.7822 c -4.2812,-2.8438 -11,-7.3047 -11,-7.3047 z m 13.344,15.262 v -10.062 h -4.7188 v 10.062 z"
     fill-rule="evenodd"
     id="path7794"
     style="fill:#6a6a6a" />
</svg>
