<?xml version="1.0" encoding="UTF-8" standalone="no"?>
<svg
   version="1.1"
   x="0px"
   y="0px"
   viewBox="0 0 16.917 23.754"
   enable-background="new 0 0 24 24"
   xml:space="preserve"
   id="svg20"
   sodipodi:docname="used-home.svg"
   width="16.917"
   height="23.754"
   inkscape:version="1.1.2 (0a00cf5339, 2022-02-04)"
   xmlns:inkscape="http://www.inkscape.org/namespaces/inkscape"
   xmlns:sodipodi="http://sodipodi.sourceforge.net/DTD/sodipodi-0.dtd"
   xmlns="http://www.w3.org/2000/svg"
   xmlns:svg="http://www.w3.org/2000/svg"><defs
     id="defs24" /><sodipodi:namedview
     id="namedview22"
     pagecolor="#ffffff"
     bordercolor="#666666"
     borderopacity="1.0"
     inkscape:pageshadow="2"
     inkscape:pageopacity="0.0"
     inkscape:pagecheckerboard="0"
     showgrid="false"
     fit-margin-top="0"
     fit-margin-left="0"
     fit-margin-right="0"
     fit-margin-bottom="0"
     inkscape:zoom="25.366667"
     inkscape:cx="8.4362681"
     inkscape:cy="11.727989"
     inkscape:window-width="1850"
     inkscape:window-height="1025"
     inkscape:window-x="1990"
     inkscape:window-y="27"
     inkscape:window-maximized="1"
     inkscape:current-layer="svg20" /><g
     id="g14"
     transform="translate(-3.542,-0.123)"
     style="fill:#4b4b4b"><path
       d="M 19.958,23.877 H 4.042 c -0.276,0 -0.5,-0.224 -0.5,-0.5 V 0.623 c 0,-0.276 0.224,-0.5 0.5,-0.5 h 15.917 c 0.276,0 0.5,0.224 0.5,0.5 v 22.754 c -0.001,0.276 -0.224,0.5 -0.501,0.5 z m -15.416,-1 H 19.459 V 1.123 H 4.542 Z"
       id="path2"
       style="fill:#4b4b4b" /><path
       d="M 16.318,9.138 H 7.682 c -0.276,0 -0.5,-0.224 -0.5,-0.5 V 2.73 c 0,-0.276 0.224,-0.5 0.5,-0.5 h 8.636 c 0.276,0 0.5,0.224 0.5,0.5 v 5.907 c 0,0.277 -0.224,0.501 -0.5,0.501 z m -8.136,-1 h 7.636 V 3.23 H 8.182 Z"
       id="path4"
       style="fill:#4b4b4b" /><path
       d="m 12,8.946 c -0.276,0 -0.5,-0.224 -0.5,-0.5 V 2.922 c 0,-0.276 0.224,-0.5 0.5,-0.5 0.276,0 0.5,0.224 0.5,0.5 v 5.524 c 0,0.277 -0.224,0.5 -0.5,0.5 z"
       id="path6"
       style="fill:#4b4b4b" /><path
       d="M 16.088,6.185 H 7.911 c -0.276,0 -0.5,-0.224 -0.5,-0.5 0,-0.276 0.224,-0.5 0.5,-0.5 h 8.177 c 0.276,0 0.5,0.224 0.5,0.5 0,0.276 -0.223,0.5 -0.5,0.5 z"
       id="path8"
       style="fill:#4b4b4b" /><path
       d="M 7.353,13.492 C 6.53,13.492 5.861,12.823 5.861,12 c 0,-0.823 0.669,-1.492 1.492,-1.492 0.823,0 1.492,0.669 1.492,1.492 0,0.823 -0.669,1.492 -1.492,1.492 z m 0,-1.984 c -0.271,0 -0.492,0.221 -0.492,0.492 0,0.271 0.221,0.492 0.492,0.492 0.271,0 0.492,-0.221 0.492,-0.492 0,-0.271 -0.221,-0.492 -0.492,-0.492 z"
       id="path10"
       style="fill:#4b4b4b" /><path
       d="M 17.674,21.498 H 6.325 c -0.276,0 -0.5,-0.224 -0.5,-0.5 v -3.907 c 0,-0.276 0.224,-0.5 0.5,-0.5 h 11.349 c 0.276,0 0.5,0.224 0.5,0.5 v 3.907 c 0,0.276 -0.224,0.5 -0.5,0.5 z m -10.849,-1 H 17.174 V 17.591 H 6.825 Z"
       id="path12"
       style="fill:#4b4b4b" /></g></svg>
