<?xml version="1.0" encoding="UTF-8" standalone="no"?>
<svg
   version="1.1"
   x="0px"
   y="0px"
   viewBox="0 0 47.346008 48.000366"
   xml:space="preserve"
   id="svg373"
   sodipodi:docname="ventilacionCruzada.svg"
   width="47.346008"
   height="48.000366"
   inkscape:version="1.2.2 (b0a8486541, 2022-12-01)"
   xmlns:inkscape="http://www.inkscape.org/namespaces/inkscape"
   xmlns:sodipodi="http://sodipodi.sourceforge.net/DTD/sodipodi-0.dtd"
   xmlns="http://www.w3.org/2000/svg"
   xmlns:svg="http://www.w3.org/2000/svg"><defs
     id="defs377" /><sodipodi:namedview
     id="namedview375"
     pagecolor="#ffffff"
     bordercolor="#000000"
     borderopacity="0.25"
     inkscape:showpageshadow="2"
     inkscape:pageopacity="0.0"
     inkscape:pagecheckerboard="0"
     inkscape:deskcolor="#d1d1d1"
     showgrid="false"
     inkscape:zoom="11.56"
     inkscape:cx="23.918685"
     inkscape:cy="31.790657"
     inkscape:window-width="1920"
     inkscape:window-height="1044"
     inkscape:window-x="3840"
     inkscape:window-y="0"
     inkscape:window-maximized="1"
     inkscape:current-layer="svg373" /><path
     id="path359"
     d="M 22.667969,0 C 22.469238,1.220732e-4 22.271484,0.05957198 22.101562,0.17773438 L 0.43164062,15.158203 C 0.07129449,15.407226 -0.0849589,15.859864 0.04492187,16.277344 0.17577942,16.69481 0.56250663,16.980469 1,16.980469 h 4.4199219 v 4.976562 c 0.6664483,0.003 1.3339629,0.02198 2,0.03711 V 16.978516 H 37.919922 v 6.466796 H 23.099609 c -0.552719,0 -1,0.447769 -1,1 0,0.552246 0.447281,1.000001 1,1 h 21.544922 c 0.552734,0 1,-0.447754 1,-1 0,-0.552231 -0.447266,-0.999999 -1,-1 h -4.724609 v -6.464843 h 4.429687 c 0.4375,0 0.82422,-0.28566 0.955079,-0.703125 0.129868,-0.417969 -0.02637,-0.870118 -0.386719,-1.119141 L 39.560547,11.455078 V 1.5761719 c 0,-0.5522386 -0.447281,-1.00000003 -1,-1.00000002 h -6.800781 c -0.552734,0 -1,0.44776142 -1,1.00000002 V 5.375 L 23.238281,0.17773438 C 23.066406,0.05908368 22.866699,-1.220732e-4 22.667969,0 Z m 0.002,2.2167969 18.474609,12.7636721 h -2.21875 c -0.0017,0 -0.0042,-0.002 -0.0059,-0.002 H 6.4238281 c -0.0017,0 -0.00221,0.002 -0.00391,0.002 H 4.2050781 Z m 10.089844,0.359375 h 4.800781 V 10.072266 L 32.759766,6.7558594 Z M 7.4199219,29.873047 c -0.086736,0.02959 -0.1897105,0.04687 -0.3105469,0.04687 H 6.5800781 5.4199219 V 47 c 0,0.552231 0.4472735,1 1,1 H 38.919922 c 0.55272,0 1,-0.447769 1,-1 V 36.09375 h 3.023437 c 1.324204,0 2.402344,1.081084 2.402344,2.410156 0,0.638672 -0.250991,1.241226 -0.710937,1.701172 -0.446289,0.452636 -1.047852,0.701172 -1.691407,0.701172 -0.552719,0 -1,0.447769 -1,1 0,0.552231 0.447281,1 1,1 1.182602,0 2.290039,-0.460952 3.111329,-1.292969 0.832992,-0.832992 1.291015,-1.936539 1.291015,-3.109375 0,-2.432084 -1.97464,-4.410156 -4.402344,-4.410156 h -4.011718 c -0.0043,-6.1e-5 -0.0074,-0.0039 -0.01172,-0.0039 -0.0043,0 -0.0074,0.0039 -0.01172,0.0039 H 15.695312 c -0.552719,0 -0.999999,0.447769 -1,1 0,0.552231 0.447281,1 1,1 h 22.22461 V 46 H 7.4199219 Z"
     style="fill:#6a6a6a" /><path
     d="m 16.694641,24.440796 c 0,-0.637696 0.250977,-1.240235 0.711914,-1.700684 0.44629,-0.452637 1.047852,-0.702148 1.691407,-0.702148 0.552734,0 1,-0.447754 1,-1 0,-0.552246 -0.447266,-1 -1,-1 -1.182617,0 -2.289063,0.460449 -3.110352,1.29248 -0.833984,0.833496 -1.292969,1.938477 -1.292969,3.110352 0,2.432129 1.975586,4.410644 4.403321,4.410644 h 27.248047 c 0.552734,0 1,-0.447754 1,-1 0,-0.552246 -0.447266,-1 -1,-1 H 19.097962 c -1.325196,0 -2.403321,-1.081543 -2.403321,-2.410644 z"
     id="path363"
     style="fill:#6a6a6a" /><path
     d="m 17.395813,30.577514 c -0.552734,0 -1,0.447754 -1,1 0,0.552247 0.447266,1 1,1 h 27.249024 c 0.552734,0 1,-0.447753 1,-1 0,-0.552246 -0.447266,-1 -1,-1 z"
     id="path365"
     style="fill:#6a6a6a" /><path
     d="m 33.872376,39.499878 c 0.552734,0 1,-0.447754 1,-1 0,-0.552246 -0.447266,-1 -1,-1 H 16.51886 c -0.552734,0 -1,0.447754 -1,1 0,0.552246 0.447266,1 1,1 z"
     id="path367"
     style="fill:#6a6a6a" /><g
     id="g546"
     transform="matrix(0.12989233,0,0,0.15044615,1.5005896,18.424486)"
     style="fill:#6a6a6a"><path
       d="M 98,30.566 C 97.929688,40.0504 90.0664,47.64 80.582,47.64 H 18.613 c -1.8594,0 -3.3672,-1.5078 -3.3672,-3.3672 v -0.15234 c 0,-1.8594 1.5078,-3.3672 3.3672,-3.3672 h 62.031 c 5.6719,0 10.402,-4.5156 10.473,-10.188 0.07422,-5.7617 -4.5742,-10.457 -10.32,-10.457 -2.9023,0 -5.5273,1.1992 -7.4023,3.1289 -1.1094,1.1445 -2.8516,1.3945 -4.2109,0.5625 l -0.12891,-0.07813 c -1.8398,-1.125 -2.1523,-3.6602 -0.66016,-5.2148 3.1289,-3.2539 7.5312,-5.2812 12.402,-5.2812 9.5469,0 17.273,7.7734 17.203,17.336 z"
       id="path542"
       style="fill:#6a6a6a" /><path
       d="m 67.516,86.766 c -4.8828,-0.0078 -9.293,-2.0547 -12.418,-5.332 -1.4688,-1.5391 -1.1094,-4.0508 0.70703,-5.1641 l 0.13281,-0.08203 c 1.3398,-0.82031 3.0742,-0.61719 4.1602,0.51562 1.9883,2.0703 4.832,3.3164 7.9609,3.1641 5.3008,-0.25391 9.5859,-4.5742 9.8008,-9.875 0.24219,-5.8984 -4.4688,-10.754 -10.312,-10.754 l -62.18,0.0039 c -1.8594,0 -3.3672,-1.5078 -3.3672,-3.3672 v -0.15234 c 0,-1.8594 1.5078,-3.3672 3.3672,-3.3672 h 62.184 c 9.7227,0 17.562,8.0664 17.191,17.875 -0.34766,9.207 -8.0117,16.555 -17.223,16.535 z"
       id="path544"
       style="fill:#6a6a6a" /></g></svg>
