<?xml version="1.0" encoding="UTF-8" standalone="no"?>
<svg
   version="1.1"
   x="0px"
   y="0px"
   viewBox="-59 61 78.507614 95"
   xml:space="preserve"
   id="svg16"
   sodipodi:docname="wardrobes.svg"
   width="78.507614"
   height="95"
   inkscape:version="1.1.2 (0a00cf5339, 2022-02-04)"
   xmlns:inkscape="http://www.inkscape.org/namespaces/inkscape"
   xmlns:sodipodi="http://sodipodi.sourceforge.net/DTD/sodipodi-0.dtd"
   xmlns="http://www.w3.org/2000/svg"
   xmlns:svg="http://www.w3.org/2000/svg"><defs
     id="defs20" /><sodipodi:namedview
     id="namedview18"
     pagecolor="#ffffff"
     bordercolor="#666666"
     borderopacity="1.0"
     inkscape:pageshadow="2"
     inkscape:pageopacity="0.0"
     inkscape:pagecheckerboard="0"
     showgrid="false"
     fit-margin-top="0"
     fit-margin-left="0"
     fit-margin-right="0"
     fit-margin-bottom="0"
     inkscape:zoom="6.088"
     inkscape:cx="38.107753"
     inkscape:cy="60.036137"
     inkscape:window-width="1850"
     inkscape:window-height="1025"
     inkscape:window-x="1990"
     inkscape:window-y="27"
     inkscape:window-maximized="1"
     inkscape:current-layer="svg16" /><g
     id="g10"
     transform="translate(-10.7,-2.5)"
     style="fill:#484848"><path
       d="m 28.4,63.5 h -74.8 c -1.1,0 -1.9,0.9 -1.9,1.9 v 91.2 c 0,1.1 0.9,1.9 1.9,1.9 h 74.7 c 1.1,0 1.9,-0.9 1.9,-1.9 V 65.4 c 0.1,-1 -0.8,-1.9 -1.8,-1.9 z m -1.9,74.6 H -6.9 V 67.3 h 33.3 v 70.8 z M -10.7,67.3 V 138 H -44.5 V 67.3 Z m -33.8,87.4 v -12.8 h 71 v 12.8 c 0,0 -71,0 -71,0 z"
       id="path2"
       style="fill:#484848" /><path
       d="m 0.8,107 c 1.1,0 1.9,-0.9 1.9,-1.9 V 93.7 c 0,-1.1 -0.9,-1.9 -1.9,-1.9 -1.1,0 -1.9,0.9 -1.9,1.9 V 105 c 0,1.1 0.9,2 1.9,2 z"
       id="path4"
       style="fill:#484848" /><path
       d="m -18.8,106.8 c 1.1,0 1.9,-0.9 1.9,-1.9 V 93.5 c 0,-1.1 -0.9,-1.9 -1.9,-1.9 -1.1,0 -1.9,0.9 -1.9,1.9 v 11.3 c 0,1.1 0.8,2 1.9,2 z"
       id="path6"
       style="fill:#484848" /><path
       d="m -2.4,146.5 h -12.5 c -1.1,0 -1.9,0.9 -1.9,1.9 0,1 0.9,1.9 1.9,1.9 h 12.5 c 1.1,0 1.9,-0.9 1.9,-1.9 0,-1 -0.8,-1.9 -1.9,-1.9 z"
       id="path8"
       style="fill:#484848" /></g></svg>
