<?xml version="1.0" encoding="UTF-8" standalone="no"?>
<svg
   version="1.1"
   x="0px"
   y="0px"
   viewBox="-6.39 24.744 99.999352 74.999359"
   enable-background="new -6.39 24.744 100 75"
   xml:space="preserve"
   id="svg20"
   sodipodi:docname="wheelchair.svg"
   width="99.999352"
   height="74.999359"
   inkscape:version="1.2.2 (b0a8486541, 2022-12-01)"
   xmlns:inkscape="http://www.inkscape.org/namespaces/inkscape"
   xmlns:sodipodi="http://sodipodi.sourceforge.net/DTD/sodipodi-0.dtd"
   xmlns="http://www.w3.org/2000/svg"
   xmlns:svg="http://www.w3.org/2000/svg"><defs
     id="defs24" /><sodipodi:namedview
     id="namedview22"
     pagecolor="#ffffff"
     bordercolor="#666666"
     borderopacity="1.0"
     inkscape:pageshadow="2"
     inkscape:pageopacity="0.0"
     inkscape:pagecheckerboard="0"
     showgrid="false"
     fit-margin-top="0"
     fit-margin-left="0"
     fit-margin-right="0"
     fit-margin-bottom="0"
     inkscape:zoom="8.1173333"
     inkscape:cx="50.078023"
     inkscape:cy="46.998193"
     inkscape:window-width="1920"
     inkscape:window-height="1044"
     inkscape:window-x="3840"
     inkscape:window-y="0"
     inkscape:window-maximized="1"
     inkscape:current-layer="svg20"
     inkscape:showpageshadow="2"
     inkscape:deskcolor="#d1d1d1" /><g
     id="g4"
     transform="translate(0,-6.3755124e-4)"
     style="fill:#6a6a6a"><path
       d="m 49.702,99.744 c -11.5,0 -22.368,-6.94 -26.732,-18.225 -3.29,-8.506 -2.249,-18.143 2.786,-25.774 1.135,-1.721 3.459,-2.201 5.191,-1.074 1.732,1.128 2.217,3.437 1.082,5.157 -3.716,5.633 -4.486,12.744 -2.058,19.021 4.172,10.79 16.404,16.194 27.267,12.051 6.071,-2.316 10.662,-7.188 12.594,-13.367 0.614,-1.966 2.716,-3.064 4.692,-2.452 1.979,0.609 3.084,2.696 2.47,4.661 -2.617,8.37 -8.838,14.973 -17.067,18.111 -3.362,1.283 -6.821,1.891 -10.225,1.891 z"
       id="path2"
       style="fill:#6a6a6a" /></g><g
     id="g8"
     transform="translate(0,-6.3755124e-4)"
     style="fill:#6a6a6a"><path
       d="m 33.751,28.538 c 1.179,3.048 -0.354,6.469 -3.422,7.64 -3.07,1.17 -6.513,-0.352 -7.692,-3.399 -1.179,-3.048 0.353,-6.468 3.422,-7.639 3.07,-1.172 6.514,0.35 7.692,3.398 z"
       id="path6"
       style="fill:#6a6a6a" /></g><path
     d="m 91.602,72.941362 -20.206,-14.991 c -1.45,-1.074 -3.372,-1.29 -5.025,-0.559 l -15.802,6.989 -5.729,-11.384 12.954,-4.591 c 1.95,-0.691 2.968,-2.822 2.271,-4.759 -0.694,-1.938 -2.841,-2.948 -4.792,-2.256 l -13.811,4.894 -2.825,-5.615 c -1.234,-2.453 -4.236,-3.448 -6.708,-2.222 -2.47,1.227 -3.472,4.209 -2.237,6.663 l 14.069,27.959 c 1.196,2.377 4.063,3.397 6.506,2.316 l 17.493,-7.736 17.856,13.249 c 0.899,0.666 1.948,0.988 2.988,0.988 1.523,0 3.028,-0.69 4.011,-1.995 1.652,-2.197 1.199,-5.308 -1.013,-6.95 z"
     id="path10"
     style="fill:#6a6a6a" /><g
     id="g14"
     transform="translate(0,-6.3755124e-4)"
     style="fill:#6a6a6a"><path
       d="m 30.65,97.642 c 0,0 -6.987,-5.051 -9.554,-12.262 -3.215,-9.034 -11.979,-9.7 -11.979,-9.7 0,0 2.205,1.226 3.72,3.76 1.425,2.381 3.114,6.086 3.114,6.086 0,0 -4.726,-7.744 -12.347,-9.846 -7.958,-2.195 -9.994,0.503 -9.994,0.503 0,0 8.377,4.159 12.251,11.563 1.851,3.535 4.358,9.748 24.789,9.896 z"
       id="path12"
       style="fill:#6a6a6a" /></g></svg>
