<?xml version="1.0" encoding="UTF-8" standalone="no"?>
<svg
   data-name="Layer 1"
   viewBox="0 0 65.137657 80.129829"
   x="0px"
   y="0px"
   version="1.1"
   id="svg10"
   sodipodi:docname="wheelchair3.svg"
   width="65.137657"
   height="80.129829"
   inkscape:version="1.1.2 (0a00cf5339, 2022-02-04)"
   xmlns:inkscape="http://www.inkscape.org/namespaces/inkscape"
   xmlns:sodipodi="http://sodipodi.sourceforge.net/DTD/sodipodi-0.dtd"
   xmlns="http://www.w3.org/2000/svg"
   xmlns:svg="http://www.w3.org/2000/svg">
  <defs
     id="defs14" />
  <sodipodi:namedview
     id="namedview12"
     pagecolor="#ffffff"
     bordercolor="#666666"
     borderopacity="1.0"
     inkscape:pageshadow="2"
     inkscape:pageopacity="0.0"
     inkscape:pagecheckerboard="0"
     showgrid="false"
     fit-margin-top="0"
     fit-margin-left="0"
     fit-margin-right="0"
     fit-margin-bottom="0"
     inkscape:zoom="6.088"
     inkscape:cx="32.522996"
     inkscape:cy="52.644547"
     inkscape:window-width="1850"
     inkscape:window-height="1025"
     inkscape:window-x="1990"
     inkscape:window-y="27"
     inkscape:window-maximized="1"
     inkscape:current-layer="svg10" />
  <path
     d="m 23.270655,80.129831 a 23.32,23.32 0 0 0 23.28,-23.28 22.83,22.83 0 0 0 -0.27,-3.53 l 4.88,-0.39 -1.54,14.2 a 6.66,6.66 0 0 0 5.93,7.38 5.79,5.79 0 0 0 0.72,0 6.64,6.64 0 0 0 6.62,-5.94 l 2.2,-20.1 a 8.45,8.45 0 0 0 -8.42,-9.34 h -0.7 l -15.2,1.23 10.51,-11.43 a 8.55,8.55 0 0 0 2.06,-7.47 h 0.34 a 10.73,10.73 0 1 0 -10.35,-8.13 l -15.16,-5.9000003 a 11,11 0 0 0 -10.75,1.64 l -6.23,5.0000003 a 6.6678651,6.6678651 0 1 0 8.36,10.39 l 5.14,-4.11 5.86,2.31 -10.16,11.09 a 23.28,23.28 0 0 0 2.88,46.38 z m 32.94,-38 a 5.45,5.45 0 0 1 5.87,6 l -2.2,20.1 a 3.6619121,3.6619121 0 0 1 -7.28,-0.8 l 1.75,-16 a 1.5,1.5 0 0 0 -1.49,-1.67 h -0.12 l -7.11,0.57 a 23.22,23.22 0 0 0 -3.44,-7.07 z m -2.53,-39.0000003 a 7.67,7.67 0 1 1 -7.67,7.6700003 7.68,7.68 0 0 1 7.67,-7.6700003 z m -19.44,19.9400003 a 1.51,1.51 0 0 0 -0.56,-2.41 l -8.75,-3.42 a 1.5,1.5 0 0 0 -1.48,0.22 l -5.81,4.67 a 3.73,3.73 0 0 1 -2.29,0.8 3.67,3.67 0 0 1 -2.29,-6.53 l 6.23,-5 a 8,8 0 0 1 7.79,-1.19 l 18.16,7.08 a 10.59,10.59 0 0 0 4.75,3.5 5.74,5.74 0 0 1 0.39,1.1 5.57,5.57 0 0 1 -1.31,5 l -11,12 a 23.16,23.16 0 0 0 -13.52,-5.29 z m -11,13.49 a 20.29,20.29 0 1 1 -20.2499998,20.29 20.31,20.31 0 0 1 20.2799998,-20.29 z"
     id="path2"
     style="fill:#5e5e5e" />
  <path
     d="m 23.270655,71.429831 a 14.59,14.59 0 1 0 -14.5799998,-14.58 14.6,14.6 0 0 0 14.5799998,14.58 z m 0,-26.17 a 11.59,11.59 0 1 1 -11.58,11.59 11.6,11.6 0 0 1 11.58,-11.59 z"
     id="path4"
     style="fill:#5e5e5e" />
</svg>
