<?xml version="1.0" encoding="UTF-8" standalone="no"?>
<svg
   version="1.1"
   x="0px"
   y="0px"
   viewBox="0 0 90 76.026001"
   enable-background="new 0 0 100 100"
   xml:space="preserve"
   id="svg8"
   sodipodi:docname="white-tick-ok.svg"
   width="90"
   height="76.026001"
   inkscape:version="1.1.2 (0a00cf5339, 2022-02-04)"
   xmlns:inkscape="http://www.inkscape.org/namespaces/inkscape"
   xmlns:sodipodi="http://sodipodi.sourceforge.net/DTD/sodipodi-0.dtd"
   xmlns="http://www.w3.org/2000/svg"
   xmlns:svg="http://www.w3.org/2000/svg"><defs
     id="defs12"><filter
       style="color-interpolation-filters:sRGB;"
       inkscape:label="Colorize"
       id="filter188"
       x="0"
       y="0"
       width="1"
       height="1"><feComposite
         in2="SourceGraphic"
         operator="arithmetic"
         k1="0"
         k2="1"
         result="composite1"
         id="feComposite174" /><feColorMatrix
         in="composite1"
         values="1"
         type="saturate"
         result="colormatrix1"
         id="feColorMatrix176" /><feFlood
         flood-opacity="1"
         flood-color="rgb(255,255,255)"
         result="flood1"
         id="feFlood178" /><feBlend
         in="flood1"
         in2="colormatrix1"
         mode="screen"
         result="blend1"
         id="feBlend180" /><feBlend
         in2="blend1"
         mode="multiply"
         result="blend2"
         id="feBlend182" /><feColorMatrix
         in="blend2"
         values="1"
         type="saturate"
         result="colormatrix2"
         id="feColorMatrix184" /><feComposite
         in="colormatrix2"
         in2="SourceGraphic"
         operator="in"
         k2="1"
         result="composite2"
         id="feComposite186" /></filter></defs><sodipodi:namedview
     id="namedview10"
     pagecolor="#ffffff"
     bordercolor="#666666"
     borderopacity="1.0"
     inkscape:pageshadow="2"
     inkscape:pageopacity="0.0"
     inkscape:pagecheckerboard="0"
     showgrid="false"
     fit-margin-top="0"
     fit-margin-left="0"
     fit-margin-right="0"
     fit-margin-bottom="0"
     inkscape:zoom="6.088"
     inkscape:cx="45.00657"
     inkscape:cy="50.509198"
     inkscape:window-width="1850"
     inkscape:window-height="1025"
     inkscape:window-x="1990"
     inkscape:window-y="27"
     inkscape:window-maximized="1"
     inkscape:current-layer="svg8" /><path
     d="M 90,10.385 C 90,4.65 85.351,0 79.615,0 76.365,0 73.466,1.496 71.561,3.833 L 71.559,3.831 34.122,49.801 18.016,32.359 18.007,32.367 C 16.11,30.312 13.403,29.018 10.385,29.018 4.649,29.018 0,33.667 0,39.402 c 0,2.718 1.053,5.185 2.763,7.036 l -0.009,0.008 24.23,26.239 0.009,-0.008 c 1.897,2.054 4.604,3.349 7.622,3.349 3.251,0 6.149,-1.496 8.054,-3.833 l 0.003,0.002 45,-55.256 -0.003,-0.002 C 89.125,15.149 90,12.869 90,10.385 Z"
     id="path2"
     style="filter:url(#filter188)" /></svg>
