<?xml version="1.0" encoding="UTF-8" standalone="no"?>
<svg
   data-name="11 Window "
   viewBox="0 0 512 432"
   x="0px"
   y="0px"
   version="1.1"
   id="svg329"
   sodipodi:docname="window-wind.svg"
   width="512"
   height="432"
   inkscape:version="1.2.2 (b0a8486541, 2022-12-01)"
   xmlns:inkscape="http://www.inkscape.org/namespaces/inkscape"
   xmlns:sodipodi="http://sodipodi.sourceforge.net/DTD/sodipodi-0.dtd"
   xmlns="http://www.w3.org/2000/svg"
   xmlns:svg="http://www.w3.org/2000/svg">
  <defs
     id="defs333" />
  <sodipodi:namedview
     id="namedview331"
     pagecolor="#ffffff"
     bordercolor="#000000"
     borderopacity="0.25"
     inkscape:showpageshadow="2"
     inkscape:pageopacity="0.0"
     inkscape:pagecheckerboard="0"
     inkscape:deskcolor="#d1d1d1"
     showgrid="false"
     inkscape:zoom="1.3953125"
     inkscape:cx="256.21501"
     inkscape:cy="223.24748"
     inkscape:window-width="1920"
     inkscape:window-height="1044"
     inkscape:window-x="3840"
     inkscape:window-y="0"
     inkscape:window-maximized="1"
     inkscape:current-layer="svg329" />
  <path
     d="M 504,0 H 8 C 3.58,0 0,3.58 0,8 v 416 c 0,4.42 3.58,8 8,8 h 496 c 4.42,0 8,-3.58 8,-8 V 8 c 0,-4.42 -3.58,-8 -8,-8 z M 111.46,400 h 289.07 c -0.23,5.2 -0.39,10.53 -0.47,16 H 111.94 c -0.08,-5.47 -0.24,-10.8 -0.47,-16 z M 401.51,384 H 110.49 C 103.9,299.32 77.26,254.76 62.72,236.34 63.53,235.09 64,233.6 64,232 v -32 c 0,-1.6 -0.47,-3.09 -1.28,-4.34 C 77.26,177.23 103.9,132.67 110.49,48 h 291.02 c 6.59,84.68 33.23,129.24 47.77,147.66 -0.81,1.25 -1.28,2.74 -1.28,4.34 v 32 c 0,1.6 0.47,3.09 1.28,4.34 C 434.74,254.77 408.1,299.33 401.51,384 Z M 16,208 h 32 v 16 H 16 Z M 400.54,32 H 111.46 c 0.23,-5.2 0.39,-10.53 0.47,-16 h 288.13 c 0.08,5.47 0.24,10.8 0.47,16 z M 464,224 v -16 h 32 v 16 z m 32,-32 h -28.75 c -9.4,-9.82 -49.43,-58.48 -51.18,-176 H 496 Z M 95.93,16 C 94.9,83.6 81.02,127.89 69.3,153.43 59.14,175.56 48.9,187.63 44.74,192 H 16 V 16 Z M 16,240 h 28.75 c 9.4,9.82 49.43,58.48 51.18,176 H 16 Z m 400.07,176 c 1.03,-67.6 14.91,-111.89 26.63,-137.43 10.16,-22.13 20.4,-34.2 24.56,-38.57 H 496 v 176 z"
     id="path323"
     style="fill:#6a6a6a" />
</svg>
