<?xml version="1.0" encoding="UTF-8" standalone="no"?>
<svg
   version="1.1"
   x="0px"
   y="0px"
   viewBox="0 0 80.667 80.667931"
   xml:space="preserve"
   id="svg361"
   sodipodi:docname="window-wind2.svg"
   width="80.667"
   height="80.667931"
   inkscape:version="1.2.2 (b0a8486541, 2022-12-01)"
   xmlns:inkscape="http://www.inkscape.org/namespaces/inkscape"
   xmlns:sodipodi="http://sodipodi.sourceforge.net/DTD/sodipodi-0.dtd"
   xmlns="http://www.w3.org/2000/svg"
   xmlns:svg="http://www.w3.org/2000/svg"><defs
     id="defs365" /><sodipodi:namedview
     id="namedview363"
     pagecolor="#ffffff"
     bordercolor="#000000"
     borderopacity="0.25"
     inkscape:showpageshadow="2"
     inkscape:pageopacity="0.0"
     inkscape:pagecheckerboard="0"
     inkscape:deskcolor="#d1d1d1"
     showgrid="false"
     inkscape:zoom="7.144"
     inkscape:cx="40.383539"
     inkscape:cy="52.981523"
     inkscape:window-width="1920"
     inkscape:window-height="1044"
     inkscape:window-x="3840"
     inkscape:window-y="0"
     inkscape:window-maximized="1"
     inkscape:current-layer="svg361" /><path
     d="m 80.179,3.8499325 c -0.319,-0.304 -0.757,-0.487 -1.193,-0.487 H 42.014 v -1.681 c 0,-0.471 -0.197,-0.92100003 -0.544,-1.23900003 -0.347,-0.318 -0.817,-0.482 -1.281,-0.435 L 1.536,3.3689325 c -0.869,0.076 -1.536,0.803 -1.536,1.674 V 72.264932 c 0,0.818 0.588,1.517 1.393,1.656 l 38.653,6.722 c 0.096,0.016 0.192,0.025 0.288,0.025 0.393,0 0.776,-0.138 1.081,-0.394 0.38,-0.32 0.599,-0.791 0.599,-1.286 v -5.042 h 36.973 c 0.436,0 0.874,-0.169 1.193,-0.487 0.319,-0.32 0.487,-0.74 0.487,-1.194 v -47.055 c 0,-0.924 -0.756,-1.681 -1.68,-1.681 -0.925,0 -1.681,0.757 -1.681,1.681 v 45.375 H 42.014 v -3.361 h 5.042 3.361 21.846 c 0.928,0 1.681,-0.752 1.681,-1.681 v -53.778 c 0,-0.929 -0.752,-1.68 -1.681,-1.68 H 50.416 47.055 42.013 V 6.7239325 h 35.292 v 5.0409995 c 0,0.924 0.756,1.681 1.681,1.681 0.924,0 1.68,-0.757 1.68,-1.681 V 5.0429325 c 0,-0.454 -0.185,-0.874 -0.487,-1.193 z M 47.055,21.848932 c 0.928,0 1.681,-0.752 1.681,-1.681 v -6.722 h 1.68 1.681 18.486 v 50.417 h -18.486 -1.681 -1.68 v -11.764 c 0,-0.929 -0.753,-1.681 -1.681,-1.681 -0.928,0 -1.681,0.752 -1.681,1.681 v 11.764 h -3.361 v -50.417 h 3.361 v 6.722 c 10e-4,0.929 0.753,1.681 1.681,1.681 z m -8.403,-10.084 v 1.681 50.417 1.68 1.681 5.041 4.725 l -35.291,-6.138 V 6.5839325 l 35.291,-3.069 v 1.528 5.0419995 z m 42.014,6.723 c 0,0.923 -0.756,1.68 -1.68,1.68 -0.925,0 -1.681,-0.757 -1.681,-1.68 0,-0.924 0.756,-1.681 1.681,-1.681 0.924,0 1.68,0.757 1.68,1.681 z M 33.5,8.4069325 8.291,10.087932 c -0.883,0.059 -1.569,0.793 -1.569,1.677 v 53.778 c 0,0.801 0.565,1.491 1.351,1.648 l 25.208,5.042 c 0.11,0.021 0.22,0.032 0.33,0.032 0.384,0 0.762,-0.132 1.065,-0.381 0.39,-0.32 0.615,-0.796 0.615,-1.3 v -5.042 -53.777 -1.68 c 0,-0.4649995 -0.193,-0.9089995 -0.532,-1.2279995 -0.34,-0.318 -0.797,-0.471 -1.259,-0.45 z m -1.57,60.1279995 -21.847,-4.369 v -50.828 l 21.847,-1.456 z m 35.926,-15.415 c -0.52,0.769 -1.562,0.975 -2.334,0.451 -2.247,-1.516 -5.15,-1.516 -7.397,0 l -0.756,0.514 c -0.289,0.196 -0.617,0.289 -0.942,0.289 -0.539,0 -1.068,-0.257 -1.393,-0.738 -0.52,-0.768 -0.319,-1.813 0.449,-2.334 l 0.758,-0.513 c 3.391,-2.291 7.771,-2.291 11.163,0 0.77,0.517 0.972,1.562 0.452,2.331 z m -0.451,-10.735 c 0.769,0.519 0.971,1.564 0.452,2.332 -0.52,0.77 -1.562,0.973 -2.334,0.452 -2.247,-1.517 -5.15,-1.517 -7.397,0 l -0.756,0.513 c -1.462,0.988 -3.053,1.39 -4.625,1.39 -0.217,0 -0.432,-0.016 -0.647,-0.031 -0.568,-0.039 -1.129,-0.127 -1.681,-0.256 -0.576,-0.134 -1.137,-0.312 -1.68,-0.525 -0.588,-0.231 -1.151,-0.5 -1.681,-0.799 -0.326,-0.184 -0.644,-0.373 -0.941,-0.575 -0.769,-0.519 -0.971,-1.564 -0.451,-2.332 0.325,-0.479 0.854,-0.739 1.393,-0.739 0.325,-10e-4 0.652,0.092 0.941,0.288 0.232,0.156 0.48,0.307 0.74,0.45 0.519,0.288 1.087,0.541 1.68,0.738 0.546,0.18 1.112,0.313 1.681,0.371 1.177,0.119 2.363,-0.07 3.388,-0.763 l 0.757,-0.514 c 3.389,-2.292 7.769,-2.292 11.161,0 z m -21.742,-8.234 c 0.325,-0.479 0.854,-0.738 1.393,-0.739 0.325,-10e-4 0.652,0.092 0.941,0.288 0.232,0.156 0.48,0.307 0.74,0.451 0.519,0.287 1.087,0.541 1.68,0.736 0.546,0.18 1.112,0.313 1.681,0.371 1.177,0.119 2.363,-0.07 3.388,-0.762 0.772,-0.522 1.814,-0.317 2.334,0.452 0.52,0.768 0.318,1.813 -0.451,2.332 -1.462,0.988 -3.051,1.39 -4.623,1.39 -0.217,0 -0.432,-0.016 -0.647,-0.031 -0.568,-0.039 -1.129,-0.127 -1.681,-0.256 -0.576,-0.135 -1.137,-0.312 -1.68,-0.526 -0.588,-0.231 -1.151,-0.5 -1.681,-0.799 -0.326,-0.184 -0.644,-0.373 -0.941,-0.575 -0.771,-0.518 -0.972,-1.564 -0.453,-2.332 z m 0,-8.403 c 0.325,-0.48 0.854,-0.738 1.393,-0.739 0.325,-0.001 0.652,0.092 0.941,0.287 0.232,0.156 0.48,0.307 0.74,0.451 0.519,0.288 1.087,0.541 1.68,0.737 0.546,0.18 1.112,0.312 1.681,0.37 1.177,0.119 2.363,-0.07 3.388,-0.762 l 0.757,-0.514 c 1.66,-1.121 3.589,-1.712 5.583,-1.712 0.928,0 1.68,0.752 1.68,1.681 0,0.928 -0.752,1.68 -1.68,1.68 -1.321,0 -2.6,0.392 -3.699,1.136 l -0.756,0.512 c -1.462,0.988 -3.053,1.39 -4.625,1.39 -0.217,0 -0.432,-0.016 -0.647,-0.031 -0.568,-0.039 -1.129,-0.126 -1.681,-0.256 -0.576,-0.135 -1.137,-0.312 -1.68,-0.526 -0.588,-0.231 -1.151,-0.499 -1.681,-0.799 -0.326,-0.183 -0.644,-0.374 -0.941,-0.575 -0.771,-0.516 -0.972,-1.562 -0.453,-2.33 z"
     id="path355"
     style="fill:#6a6a6a" /></svg>
