<?xml version="1.0" encoding="UTF-8" standalone="no"?>
<svg
   viewBox="0 0 59.751312 61.50206"
   x="0px"
   y="0px"
   version="1.1"
   id="svg212"
   sodipodi:docname="years.svg"
   width="59.751312"
   height="61.50206"
   inkscape:version="1.2.2 (b0a8486541, 2022-12-01)"
   xmlns:inkscape="http://www.inkscape.org/namespaces/inkscape"
   xmlns:sodipodi="http://sodipodi.sourceforge.net/DTD/sodipodi-0.dtd"
   xmlns="http://www.w3.org/2000/svg"
   xmlns:svg="http://www.w3.org/2000/svg">
  <defs
     id="defs216" />
  <sodipodi:namedview
     id="namedview214"
     pagecolor="#ffffff"
     bordercolor="#000000"
     borderopacity="0.25"
     inkscape:showpageshadow="2"
     inkscape:pageopacity="0.0"
     inkscape:pagecheckerboard="0"
     inkscape:deskcolor="#d1d1d1"
     showgrid="false"
     inkscape:zoom="11.1625"
     inkscape:cx="29.87682"
     inkscape:cy="30.324748"
     inkscape:window-width="1920"
     inkscape:window-height="1044"
     inkscape:window-x="3840"
     inkscape:window-y="0"
     inkscape:window-maximized="1"
     inkscape:current-layer="svg212" />
  <g
     id="g206"
     transform="translate(-2.12109,-1.2480018)"
     style="fill:#6a6a6a">
    <path
       d="M 28.21289,62.75 A 18.43082,18.43082 0 0 1 11.29883,51.749 H 5.77441 A 3.6572,3.6572 0 0 1 2.12109,48.0957 V 8.6875 a 3.651,3.651 0 0 1 3.6543,-3.63916 h 0.874 V 4.08545 a 2.84278,2.84278 0 0 1 5.68555,0 v 0.96289 h 3.668 V 4.08545 a 2.84278,2.84278 0 0 1 5.68555,0 v 0.96289 h 3.68359 V 4.08545 a 2.84278,2.84278 0 0 1 5.68555,0 v 0.96289 h 3.68359 V 4.08545 a 2.84278,2.84278 0 0 1 5.68555,0 v 0.96289 h 3.68262 V 4.08545 a 2.84278,2.84278 0 0 1 5.68554,0 v 0.96289 h 0.90332 a 3.65121,3.65121 0 0 1 3.65332,3.56348 l 7.46485,38.83935 a 3.66469,3.66469 0 0 1 -3.58111,4.30269 c -3.21576,-0.02065 -9.92524,0.01069 -13.09858,-0.0048 A 18.45612,18.45612 0 0 1 28.21289,62.75 Z m -16.999,-18.499 a 16.999,16.999 0 0 0 33.99794,-1.2e-4 C 44.27948,21.70152 12.14475,21.7042 11.21387,44.251 Z m 42.43457,6.00293 h 4.58691 a 2.14286,2.14286 0 0 0 2.10742,-2.52246 L 54.35352,16.56836 V 48.0957 a 3.65356,3.65356 0 0 1 -0.70508,2.15821 z M 45.72461,50.249 h 4.97559 a 2.14935,2.14935 0 0 0 2.15234,-2.1499 V 15.82764 H 3.62109 V 48.0957 A 2.15556,2.15556 0 0 0 5.77441,50.249 H 10.71 C 6.49945,38.56006 15.758,25.53534 28.21312,25.75214 40.66984,25.531 49.919,38.56823 45.72461,50.249 Z M 3.62109,14.32373 H 52.85254 V 8.6875 a 2.14935,2.14935 0 0 0 -2.1543,-2.13916 h -0.90332 v 0.94775 a 2.84278,2.84278 0 1 1 -5.68554,0 V 6.54834 h -3.68262 v 0.94775 a 2.84278,2.84278 0 1 1 -5.68555,0 V 6.54834 h -3.68359 v 0.94775 a 2.84278,2.84278 0 1 1 -5.68555,0 V 6.54834 h -3.68359 v 0.94775 a 2.84278,2.84278 0 1 1 -5.68555,0 V 6.54834 H 12.335 v 0.94775 a 2.84278,2.84278 0 1 1 -5.68555,0 V 6.54834 h -0.874 A 2.14935,2.14935 0 0 0 3.62109,8.6875 Z M 45.60938,7.49609 a 1.34283,1.34283 0 0 0 2.68554,0 V 4.08545 a 1.34279,1.34279 0 0 0 -2.68554,0 z m -9.36817,0 a 1.34283,1.34283 0 0 0 2.68554,0 V 4.0855 a 1.34279,1.34279 0 0 0 -2.68555,0 z m -9.36914,0 a 1.34283,1.34283 0 0 0 2.68554,0 V 4.0855 a 1.34279,1.34279 0 0 0 -2.68555,0 z m -9.36914,0 a 1.34283,1.34283 0 0 0 2.68554,0 V 4.0855 a 1.34279,1.34279 0 0 0 -2.68555,0 z m -9.35352,0 a 1.34283,1.34283 0 0 0 2.68555,0 V 4.08545 a 1.34279,1.34279 0 0 0 -2.68555,0 z M 28.21484,59.75732 C 14.46117,59.74175 7.59484,43.02889 17.17694,33.37153 a 15.57344,15.57344 0 0 1 22.076,2.6e-4 c 9.58156,9.65841 2.71522,26.37065 -11.0381,26.38553 z M 18.86035,54.6665 a 13.94863,13.94863 0 0 0 8.60449,3.5708 v -0.88867 a 0.75,0.75 0 0 1 1.5,0 v 0.88867 a 13.94864,13.94864 0 0 0 8.6045,-3.5708 c -0.44038,-0.44815 -1.24523,-1.01842 -0.624,-1.68458 0.66545,-0.62125 1.23729,0.18422 1.68453,0.624 a 13.9503,13.9503 0 0 0 3.57129,-8.6045 h -0.88965 a 0.75,0.75 0 0 1 0,-1.5 h 0.88965 a 13.95164,13.95164 0 0 0 -3.57129,-8.605 c -0.44817,0.44091 -1.01942,1.245 -1.68458,0.624 -0.62129,-0.66577 0.18424,-1.23721 0.624,-1.68453 a 13.94864,13.94864 0 0 0 -8.6045,-3.5708 v 0.88916 a 0.75,0.75 0 0 1 -1.5,0 v -0.88916 a 13.94863,13.94863 0 0 0 -8.60449,3.5708 c 0.44038,0.44815 1.24523,1.01842 0.624,1.68458 -0.66545,0.62126 -1.2373,-0.18422 -1.68454,-0.624 a 13.95168,13.95168 0 0 0 -3.57128,8.605 h 0.88867 a 0.75,0.75 0 0 1 0,1.5 H 14.22848 A 13.95035,13.95035 0 0 0 17.7998,53.606 c 0.44784,-0.44063 1.01989,-1.24514 1.68459,-0.624 0.62129,0.66574 -0.18424,1.23718 -0.62404,1.6845 z m 9.35449,-7.67578 a 2.74471,2.74471 0 0 1 -2.63476,-1.98926 h -4.40332 a 0.75,0.75 0 0 1 0,-1.5 h 4.40332 a 2.75058,2.75058 0 0 1 1.88476,-1.88525 v -6.626 a 0.75,0.75 0 0 1 1.5,0 v 6.626 a 2.74368,2.74368 0 0 1 -0.75,5.37451 z m 0,-3.979 a 1.23963,1.23963 0 0 0 6e-5,2.479 1.23963,1.23963 0 0 0 -6e-5,-2.479 z"
       id="path204"
       style="fill:#6a6a6a" />
  </g>
</svg>
