<?xml version="1.0" encoding="UTF-8"?>
<!DOCTYPE svg PUBLIC "-//W3C//DTD SVG 1.1//EN" "http://www.w3.org/Graphics/SVG/1.1/DTD/svg11.dtd">
<svg xmlns="http://www.w3.org/2000/svg" version="1.1" width="120px" height="120px" style="shape-rendering:geometricPrecision; text-rendering:geometricPrecision; image-rendering:optimizeQuality; fill-rule:evenodd; clip-rule:evenodd" xmlns:xlink="http://www.w3.org/1999/xlink">
<g><path style="opacity:0.987" fill="#343434" d="M 59.5,0.5 C 59.5,6.83333 59.5,13.1667 59.5,19.5C 46.1326,20.6936 37.2993,27.6936 33,40.5C 31.1799,55.3677 37.0132,65.8677 50.5,72C 53.3926,73.1488 56.3926,73.6488 59.5,73.5C 59.5,88.5 59.5,103.5 59.5,118.5C 56.495,118.747 53.995,117.747 52,115.5C 41.577,100.988 30.9103,86.6549 20,72.5C 8.30461,50.517 10.8046,30.3503 27.5,12C 36.6345,3.93403 47.3012,0.100701 59.5,0.5 Z"/></g>
<g><path style="opacity:1" fill="#1e1e1e" d="M 59.5,0.5 C 88.5446,2.37751 104.211,17.8775 106.5,47C 106.227,56.1525 103.727,64.6525 99,72.5C 87.8688,88.2878 76.0355,103.454 63.5,118C 62.2068,118.49 60.8734,118.657 59.5,118.5C 59.5,103.5 59.5,88.5 59.5,73.5C 76.1611,72.1723 85.1611,63.1723 86.5,46.5C 86.0642,37.1297 82.0642,29.6297 74.5,24C 69.8174,21.383 64.8174,19.883 59.5,19.5C 59.5,13.1667 59.5,6.83333 59.5,0.5 Z"/></g>
<g><path style="opacity:1" fill="#fcfcfc" d="M 59.5,19.5 C 64.8174,19.883 69.8174,21.383 74.5,24C 82.0642,29.6297 86.0642,37.1297 86.5,46.5C 85.1611,63.1723 76.1611,72.1723 59.5,73.5C 56.3926,73.6488 53.3926,73.1488 50.5,72C 37.0132,65.8677 31.1799,55.3677 33,40.5C 37.2993,27.6936 46.1326,20.6936 59.5,19.5 Z"/></g>
</svg>
