<?xml version="1.0" encoding="UTF-8"?>
<!DOCTYPE svg PUBLIC "-//W3C//DTD SVG 1.1//EN" "http://www.w3.org/Graphics/SVG/1.1/DTD/svg11.dtd">
<svg xmlns="http://www.w3.org/2000/svg" version="1.1" width="512px" height="418px" style="shape-rendering:geometricPrecision; text-rendering:geometricPrecision; image-rendering:optimizeQuality; fill-rule:evenodd; clip-rule:evenodd" xmlns:xlink="http://www.w3.org/1999/xlink">
<g><path style="opacity:0.985" fill="#302b38" d="M 236.5,0.5 C 306.258,-4.53746 359.758,22.1292 397,80.5C 418.548,120.674 424.215,163.007 414,207.5C 407.5,232.165 396.5,254.498 381,274.5C 343.761,319.316 306.761,364.316 270,409.5C 264.643,416.085 257.809,418.251 249.5,416C 246.098,414.6 243.264,412.433 241,409.5C 204.239,364.316 167.239,319.316 130,274.5C 91.163,222.637 82.163,165.97 103,104.5C 127.785,44.5507 172.285,9.88407 236.5,0.5 Z"/></g>
<g><path style="opacity:1" fill="#fa5867" d="M 239.5,32.5 C 301.832,28.5678 346.999,54.2344 375,109.5C 394.904,163.508 387.238,213.175 352,258.5C 319.992,297.337 287.825,336.004 255.5,374.5C 223.175,336.004 191.008,297.337 159,258.5C 127.628,219.358 117.961,175.358 130,126.5C 147.691,73.0953 184.191,41.7619 239.5,32.5 Z"/></g>
<g><path style="opacity:1" fill="#312b38" d="M 245.5,80.5 C 286.272,78.7845 314.772,96.4512 331,133.5C 342.271,175.378 329.771,207.878 293.5,231C 254.187,248.871 220.353,241.704 192,209.5C 170.029,176.806 170.029,144.139 192,111.5C 205.874,94.3138 223.707,83.9805 245.5,80.5 Z"/></g>
<g><path style="opacity:1" fill="#d7304b" d="M 246.5,112.5 C 275.639,110.803 294.472,123.803 303,151.5C 305.348,182.328 291.515,201.162 261.5,208C 231.6,209.106 213.767,194.94 208,165.5C 207.139,137.891 219.972,120.224 246.5,112.5 Z"/></g>
</svg>
