<?xml version="1.0" encoding="UTF-8"?>
<!DOCTYPE svg PUBLIC "-//W3C//DTD SVG 1.1//EN" "http://www.w3.org/Graphics/SVG/1.1/DTD/svg11.dtd">
<svg xmlns="http://www.w3.org/2000/svg" version="1.1" width="545px" height="638px" style="shape-rendering:geometricPrecision; text-rendering:geometricPrecision; image-rendering:optimizeQuality; fill-rule:evenodd; clip-rule:evenodd" xmlns:xlink="http://www.w3.org/1999/xlink">
<g><path style="opacity:1" fill="#00c4ac" d="M 217.5,0.5 C 217.5,25.8333 217.5,51.1667 217.5,76.5C 220.385,76.1936 223.052,76.5269 225.5,77.5C 222.833,77.5 220.167,77.5 217.5,77.5C 170.409,78.2955 132.575,97.2955 104,134.5C 70.3798,186.069 68.7131,238.735 99,292.5C 127.187,334.352 166.687,356.018 217.5,357.5C 217.833,450.668 217.499,543.668 216.5,636.5C 173.816,589.781 135.483,539.781 101.5,486.5C 101.715,484.821 101.048,483.821 99.5,483.5C 99.7148,481.821 99.0481,480.821 97.5,480.5C 96.2485,478.999 95.2485,477.332 94.5,475.5C 94.7148,473.821 94.0481,472.821 92.5,472.5C 91.2485,470.999 90.2485,469.332 89.5,467.5C 89.7148,465.821 89.0481,464.821 87.5,464.5C 85.9138,462.33 84.5804,459.996 83.5,457.5C 83.7148,455.821 83.0481,454.821 81.5,454.5C 81.1667,453.833 80.8333,453.167 80.5,452.5C 80.7148,450.821 80.0481,449.821 78.5,449.5C 49.8608,402.433 27.6941,352.433 12,299.5C 2.65989,266.446 -1.00678,232.78 1,198.5C 1.68631,187.503 3.51965,176.836 6.5,166.5C 7.92381,164.485 8.59047,162.152 8.5,159.5C 13.6695,138.173 22.3361,118.506 34.5,100.5C 35.9063,100.027 36.573,99.0269 36.5,97.5C 37.9063,97.0269 38.573,96.0269 38.5,94.5C 40.7376,89.9289 43.7376,85.9289 47.5,82.5C 49.2624,81.7377 50.2624,80.4044 50.5,78.5C 50.8333,77.5 51.5,76.8333 52.5,76.5C 53.9063,76.0269 54.573,75.0269 54.5,73.5C 58.5,68.8333 62.8333,64.5 67.5,60.5C 71.1002,58.5698 74.1002,55.9031 76.5,52.5C 76.5,51.8333 76.8333,51.5 77.5,51.5C 79.7488,50.9202 81.4154,49.5869 82.5,47.5C 84.7488,46.9202 86.4154,45.5869 87.5,43.5C 103.862,30.1955 122.196,20.1955 142.5,13.5C 145.716,13.6545 148.383,12.6545 150.5,10.5C 150.833,10.5 151.167,10.5 151.5,10.5C 154.152,10.5905 156.485,9.92381 158.5,8.5C 161.152,8.59047 163.485,7.92381 165.5,6.5C 182.487,1.87703 199.82,-0.12297 217.5,0.5 Z"/></g>
<g><path style="opacity:1" fill="#02a48c" d="M 217.5,0.5 C 277.653,0.595538 328.986,21.5955 371.5,63.5C 371.427,65.0269 372.094,66.0269 373.5,66.5C 376.5,68.8333 379.167,71.5 381.5,74.5C 381.427,76.0269 382.094,77.0269 383.5,77.5C 391.297,85.0937 397.631,93.7604 402.5,103.5C 402.427,105.027 403.094,106.027 404.5,106.5C 405.674,107.514 406.34,108.847 406.5,110.5C 406.427,112.027 407.094,113.027 408.5,113.5C 409.338,113.842 409.672,114.508 409.5,115.5C 431.132,157.285 438.965,201.619 433,248.5C 426.13,294.444 412.797,338.444 393,380.5C 360.395,448.019 321.062,511.019 275,569.5C 256.665,591.998 238.165,614.332 219.5,636.5C 219.5,636.833 219.5,637.167 219.5,637.5C 218.5,637.5 217.5,637.5 216.5,637.5C 216.5,637.167 216.5,636.833 216.5,636.5C 217.499,543.668 217.833,450.668 217.5,357.5C 264.392,356.138 302.226,337.138 331,300.5C 358.691,260.032 365.024,216.366 350,169.5C 331.58,123.413 298.414,93.9132 250.5,81C 242.29,78.9322 233.957,77.7655 225.5,77.5C 223.052,76.5269 220.385,76.1936 217.5,76.5C 217.5,51.1667 217.5,25.8333 217.5,0.5 Z"/></g>
<g><path style="opacity:0.918" fill="#086e61" d="M 165.5,6.5 C 163.485,7.92381 161.152,8.59047 158.5,8.5C 160.515,7.07619 162.848,6.40953 165.5,6.5 Z"/></g>
<g><path style="opacity:0.918" fill="#087365" d="M 158.5,8.5 C 156.485,9.92381 154.152,10.5905 151.5,10.5C 153.515,9.07619 155.848,8.40953 158.5,8.5 Z"/></g>
<g><path style="opacity:0.957" fill="#0c7667" d="M 150.5,10.5 C 148.383,12.6545 145.716,13.6545 142.5,13.5C 144.936,12.129 147.603,11.129 150.5,10.5 Z"/></g>
<g><path style="opacity:0.953" fill="#087768" d="M 87.5,43.5 C 86.4154,45.5869 84.7488,46.9202 82.5,47.5C 83.5846,45.4131 85.2512,44.0798 87.5,43.5 Z"/></g>
<g><path style="opacity:0.953" fill="#0a796a" d="M 82.5,47.5 C 81.4154,49.5869 79.7488,50.9202 77.5,51.5C 78.5846,49.4131 80.2512,48.0798 82.5,47.5 Z"/></g>
<g><path style="opacity:0.976" fill="#068171" d="M 76.5,52.5 C 74.1002,55.9031 71.1002,58.5698 67.5,60.5C 69.8998,57.0969 72.8998,54.4302 76.5,52.5 Z"/></g>
<g><path style="opacity:0.58" fill="#103931" d="M 371.5,63.5 C 372.906,63.9731 373.573,64.9731 373.5,66.5C 372.094,66.0269 371.427,65.0269 371.5,63.5 Z"/></g>
<g><path style="opacity:0.643" fill="#13473f" d="M 54.5,73.5 C 54.573,75.0269 53.9063,76.0269 52.5,76.5C 52.427,74.9731 53.0937,73.9731 54.5,73.5 Z"/></g>
<g><path style="opacity:0.678" fill="#113e36" d="M 381.5,74.5 C 382.906,74.9731 383.573,75.9731 383.5,77.5C 382.094,77.0269 381.427,76.0269 381.5,74.5 Z"/></g>
<g><path style="opacity:1" fill="#77f3e1" d="M 217.5,77.5 C 217.5,170.833 217.5,264.167 217.5,357.5C 166.687,356.018 127.187,334.352 99,292.5C 68.7131,238.735 70.3798,186.069 104,134.5C 132.575,97.2955 170.409,78.2955 217.5,77.5 Z"/></g>
<g><path style="opacity:1" fill="#66d2c0" d="M 217.5,77.5 C 220.167,77.5 222.833,77.5 225.5,77.5C 233.957,77.7655 242.29,78.9322 250.5,81C 298.414,93.9132 331.58,123.413 350,169.5C 365.024,216.366 358.691,260.032 331,300.5C 302.226,337.138 264.392,356.138 217.5,357.5C 217.5,264.167 217.5,170.833 217.5,77.5 Z"/></g>
<g><path style="opacity:0.859" fill="#0c5c51" d="M 50.5,78.5 C 50.2624,80.4044 49.2624,81.7377 47.5,82.5C 47.7376,80.5956 48.7376,79.2623 50.5,78.5 Z"/></g>
<g><path style="opacity:0.49" fill="#0e5148" d="M 38.5,94.5 C 38.573,96.0269 37.9063,97.0269 36.5,97.5C 36.427,95.9731 37.0937,94.9731 38.5,94.5 Z"/></g>
<g><path style="opacity:0.416" fill="#0c4840" d="M 36.5,97.5 C 36.573,99.0269 35.9063,100.027 34.5,100.5C 34.427,98.9731 35.0937,97.9731 36.5,97.5 Z"/></g>
<g><path style="opacity:0.365" fill="#0a3a32" d="M 402.5,103.5 C 403.906,103.973 404.573,104.973 404.5,106.5C 403.094,106.027 402.427,105.027 402.5,103.5 Z"/></g>
<g><path style="opacity:0.392" fill="#0a3d35" d="M 406.5,110.5 C 407.906,110.973 408.573,111.973 408.5,113.5C 407.094,113.027 406.427,112.027 406.5,110.5 Z"/></g>
<g><path style="opacity:0.502" fill="#020000" d="M 409.5,115.5 C 435.016,119.727 459.016,128.227 481.5,141C 518.063,163.405 539.063,195.905 544.5,238.5C 544.5,246.167 544.5,253.833 544.5,261.5C 540.668,290.16 531.501,317.16 517,342.5C 492.218,383.629 463.218,421.629 430,456.5C 365.238,523.476 295.071,583.476 219.5,636.5C 238.165,614.332 256.665,591.998 275,569.5C 321.062,511.019 360.395,448.019 393,380.5C 412.797,338.444 426.13,294.444 433,248.5C 438.965,201.619 431.132,157.285 409.5,115.5 Z"/></g>
<g><path style="opacity:0.714" fill="#076d5f" d="M 8.5,159.5 C 8.59047,162.152 7.92381,164.485 6.5,166.5C 6.40953,163.848 7.07619,161.515 8.5,159.5 Z"/></g>
<g><path style="opacity:0.945" fill="#135b51" d="M 78.5,449.5 C 80.0481,449.821 80.7148,450.821 80.5,452.5C 79.5987,451.71 78.9321,450.71 78.5,449.5 Z"/></g>
<g><path style="opacity:0.953" fill="#145d53" d="M 81.5,454.5 C 83.0481,454.821 83.7148,455.821 83.5,457.5C 82.5987,456.71 81.9321,455.71 81.5,454.5 Z"/></g>
<g><path style="opacity:0.937" fill="#135a50" d="M 87.5,464.5 C 89.0481,464.821 89.7148,465.821 89.5,467.5C 88.5987,466.71 87.9321,465.71 87.5,464.5 Z"/></g>
<g><path style="opacity:0.953" fill="#145c51" d="M 92.5,472.5 C 94.0481,472.821 94.7148,473.821 94.5,475.5C 93.5987,474.71 92.9321,473.71 92.5,472.5 Z"/></g>
<g><path style="opacity:0.929" fill="#12584e" d="M 97.5,480.5 C 99.0481,480.821 99.7148,481.821 99.5,483.5C 98.5987,482.71 97.9321,481.71 97.5,480.5 Z"/></g>
<g><path style="opacity:0.953" fill="#125c52" d="M 99.5,483.5 C 101.048,483.821 101.715,484.821 101.5,486.5C 100.599,485.71 99.9321,484.71 99.5,483.5 Z"/></g>
</svg>
